<?xml version="1.0" encoding="UTF-8" standalone="no"?>
<!DOCTYPE svg PUBLIC "-//W3C//DTD SVG 1.1//EN"
 "http://www.w3.org/Graphics/SVG/1.1/DTD/svg11.dtd">
<!-- Generated by graphviz version 9.0.0 (20230911.1827)
 -->
<!-- Title: workspace/albert/include/albert/action.h Pages: 1 -->
<svg width="454pt" height="305pt"
 viewBox="0.00 0.00 454.00 304.50" xmlns="http://www.w3.org/2000/svg" xmlns:xlink="http://www.w3.org/1999/xlink">
<g id="graph0" class="graph" transform="scale(1 1) rotate(0) translate(4 300.5)">
<title>workspace/albert/include/albert/action.h</title>
<!-- Node1 -->
<g id="Node000001" class="node">
<title>Node1</title>
<g id="a_Node000001"><a xlink:title=" ">
<polygon fill="#999999" stroke="#666666" points="259,-296.5 135,-296.5 135,-266 259,-266 259,-296.5"/>
<text text-anchor="start" x="143" y="-283" font-family="Helvetica,sans-Serif" font-size="10.00">workspace/albert/include</text>
<text text-anchor="middle" x="197" y="-271.75" font-family="Helvetica,sans-Serif" font-size="10.00">/albert/action.h</text>
</a>
</g>
</g>
<!-- Node2 -->
<g id="Node000002" class="node">
<title>Node2</title>
<g id="a_Node000002"><a xlink:href="item_8h.html" target="_top" xlink:title=" ">
<polygon fill="white" stroke="#666666" points="259,-230 135,-230 135,-199.5 259,-199.5 259,-230"/>
<text text-anchor="start" x="143" y="-216.5" font-family="Helvetica,sans-Serif" font-size="10.00">workspace/albert/include</text>
<text text-anchor="middle" x="197" y="-205.25" font-family="Helvetica,sans-Serif" font-size="10.00">/albert/item.h</text>
</a>
</g>
</g>
<!-- Node1&#45;&gt;Node2 -->
<g id="edge1_Node000001_Node000002" class="edge">
<title>Node1&#45;&gt;Node2</title>
<g id="a_edge1_Node000001_Node000002"><a xlink:title=" ">
<path fill="none" stroke="#63b8ff" d="M197,-254.31C197,-246.14 197,-237.41 197,-230.33"/>
<polygon fill="#63b8ff" stroke="#63b8ff" points="193.5,-254.1 197,-264.1 200.5,-254.1 193.5,-254.1"/>
</a>
</g>
</g>
<!-- Node3 -->
<g id="Node000003" class="node">
<title>Node3</title>
<g id="a_Node000003"><a xlink:href="fallbackhandler_8h.html" target="_top" xlink:title=" ">
<polygon fill="white" stroke="#666666" points="124,-163.5 0,-163.5 0,-133 124,-133 124,-163.5"/>
<text text-anchor="start" x="8" y="-150" font-family="Helvetica,sans-Serif" font-size="10.00">workspace/albert/include</text>
<text text-anchor="middle" x="62" y="-138.75" font-family="Helvetica,sans-Serif" font-size="10.00">/albert/fallbackhandler.h</text>
</a>
</g>
</g>
<!-- Node2&#45;&gt;Node3 -->
<g id="edge2_Node000002_Node000003" class="edge">
<title>Node2&#45;&gt;Node3</title>
<g id="a_edge2_Node000002_Node000003"><a xlink:title=" ">
<path fill="none" stroke="#63b8ff" d="M156.08,-194.2C135.63,-184.43 111.3,-172.81 92.51,-163.83"/>
<polygon fill="#63b8ff" stroke="#63b8ff" points="154.47,-197.31 165,-198.46 157.49,-190.99 154.47,-197.31"/>
</a>
</g>
</g>
<!-- Node4 -->
<g id="Node000004" class="node">
<title>Node4</title>
<g id="a_Node000004"><a xlink:href="indexitem_8h.html" target="_top" xlink:title=" ">
<polygon fill="white" stroke="#666666" points="185,-97 61,-97 61,-66.5 185,-66.5 185,-97"/>
<text text-anchor="start" x="69" y="-83.5" font-family="Helvetica,sans-Serif" font-size="10.00">workspace/albert/include</text>
<text text-anchor="middle" x="123" y="-72.25" font-family="Helvetica,sans-Serif" font-size="10.00">/albert/indexitem.h</text>
</a>
</g>
</g>
<!-- Node2&#45;&gt;Node4 -->
<g id="edge3_Node000002_Node000004" class="edge">
<title>Node2&#45;&gt;Node4</title>
<g id="a_edge3_Node000002_Node000004"><a xlink:title=" ">
<path fill="none" stroke="#63b8ff" d="M183.23,-189.38C167.96,-162.34 143.82,-119.6 131.24,-97.33"/>
<polygon fill="#63b8ff" stroke="#63b8ff" points="180.09,-190.93 188.05,-197.91 186.18,-187.48 180.09,-190.93"/>
</a>
</g>
</g>
<!-- Node6 -->
<g id="Node000006" class="node">
<title>Node6</title>
<g id="a_Node000006"><a xlink:href="rankitem_8h.html" target="_top" xlink:title=" ">
<polygon fill="white" stroke="#666666" points="304,-163.5 180,-163.5 180,-133 304,-133 304,-163.5"/>
<text text-anchor="start" x="188" y="-150" font-family="Helvetica,sans-Serif" font-size="10.00">workspace/albert/include</text>
<text text-anchor="middle" x="242" y="-138.75" font-family="Helvetica,sans-Serif" font-size="10.00">/albert/rankitem.h</text>
</a>
</g>
</g>
<!-- Node2&#45;&gt;Node6 -->
<g id="edge5_Node000002_Node000006" class="edge">
<title>Node2&#45;&gt;Node6</title>
<g id="a_edge5_Node000002_Node000006"><a xlink:title=" ">
<path fill="none" stroke="#63b8ff" d="M213.72,-189.79C219.8,-181.07 226.49,-171.49 231.83,-163.83"/>
<polygon fill="#63b8ff" stroke="#63b8ff" points="210.93,-187.67 208.08,-197.87 216.67,-191.67 210.93,-187.67"/>
</a>
</g>
</g>
<!-- Node8 -->
<g id="Node000008" class="node">
<title>Node8</title>
<g id="a_Node000008"><a xlink:href="standarditem_8h.html" target="_top" xlink:title=" ">
<polygon fill="white" stroke="#666666" points="446,-163.5 322,-163.5 322,-133 446,-133 446,-163.5"/>
<text text-anchor="start" x="330" y="-150" font-family="Helvetica,sans-Serif" font-size="10.00">workspace/albert/include</text>
<text text-anchor="middle" x="384" y="-138.75" font-family="Helvetica,sans-Serif" font-size="10.00">/albert/standarditem.h</text>
</a>
</g>
</g>
<!-- Node2&#45;&gt;Node8 -->
<g id="edge8_Node000002_Node000008" class="edge">
<title>Node2&#45;&gt;Node8</title>
<g id="a_edge8_Node000002_Node000008"><a xlink:title=" ">
<path fill="none" stroke="#63b8ff" d="M250.17,-195.41C279.07,-185.44 314.34,-173.28 341.41,-163.94"/>
<polygon fill="#63b8ff" stroke="#63b8ff" points="249.18,-192.05 240.86,-198.62 251.46,-198.67 249.18,-192.05"/>
</a>
</g>
</g>
<!-- Node5 -->
<g id="Node000005" class="node">
<title>Node5</title>
<g id="a_Node000005"><a xlink:href="indexqueryhandler_8h.html" target="_top" xlink:title=" ">
<polygon fill="white" stroke="#666666" points="261.38,-30.5 130.62,-30.5 130.62,0 261.38,0 261.38,-30.5"/>
<text text-anchor="start" x="138.62" y="-17" font-family="Helvetica,sans-Serif" font-size="10.00">workspace/albert/include</text>
<text text-anchor="middle" x="196" y="-5.75" font-family="Helvetica,sans-Serif" font-size="10.00">/albert/indexqueryhandler.h</text>
</a>
</g>
</g>
<!-- Node4&#45;&gt;Node5 -->
<g id="edge4_Node000004_Node000005" class="edge">
<title>Node4&#45;&gt;Node5</title>
<g id="a_edge4_Node000004_Node000005"><a xlink:title=" ">
<path fill="none" stroke="#63b8ff" d="M147.91,-58.74C158.34,-49.53 170.18,-39.06 179.5,-30.83"/>
<polygon fill="#63b8ff" stroke="#63b8ff" points="145.88,-55.87 140.7,-65.11 150.51,-61.11 145.88,-55.87"/>
</a>
</g>
</g>
<!-- Node7 -->
<g id="Node000007" class="node">
<title>Node7</title>
<g id="a_Node000007"><a xlink:href="globalqueryhandler_8h.html" target="_top" xlink:title=" ">
<polygon fill="white" stroke="#666666" points="336.88,-97 203.12,-97 203.12,-66.5 336.88,-66.5 336.88,-97"/>
<text text-anchor="start" x="211.12" y="-83.5" font-family="Helvetica,sans-Serif" font-size="10.00">workspace/albert/include</text>
<text text-anchor="middle" x="270" y="-72.25" font-family="Helvetica,sans-Serif" font-size="10.00">/albert/globalqueryhandler.h</text>
</a>
</g>
</g>
<!-- Node6&#45;&gt;Node7 -->
<g id="edge6_Node000006_Node000007" class="edge">
<title>Node6&#45;&gt;Node7</title>
<g id="a_edge6_Node000006_Node000007"><a xlink:title=" ">
<path fill="none" stroke="#63b8ff" d="M252.89,-122.16C256.54,-113.75 260.49,-104.66 263.67,-97.33"/>
<polygon fill="#63b8ff" stroke="#63b8ff" points="249.73,-120.66 248.96,-131.23 256.15,-123.45 249.73,-120.66"/>
</a>
</g>
</g>
<!-- Node7&#45;&gt;Node5 -->
<g id="edge7_Node000007_Node000005" class="edge">
<title>Node7&#45;&gt;Node5</title>
<g id="a_edge7_Node000007_Node000005"><a xlink:title=" ">
<path fill="none" stroke="#63b8ff" d="M244.75,-58.74C234.18,-49.53 222.17,-39.06 212.73,-30.83"/>
<polygon fill="#63b8ff" stroke="#63b8ff" points="242.23,-61.19 252.07,-65.12 246.83,-55.91 242.23,-61.19"/>
</a>
</g>
</g>
</g>
</svg>
