<?xml version="1.0" encoding="UTF-8" standalone="no"?>
<!DOCTYPE svg PUBLIC "-//W3C//DTD SVG 1.1//EN"
 "http://www.w3.org/Graphics/SVG/1.1/DTD/svg11.dtd">
<!-- Generated by graphviz version 9.0.0 (20230911.1827)
 -->
<!-- Title: workspace/albert/include/albert/asyncgeneratorqueryhandler.h Pages: 1 -->
<svg width="360pt" height="204pt"
 viewBox="0.00 0.00 359.67 204.25" xmlns="http://www.w3.org/2000/svg" xmlns:xlink="http://www.w3.org/1999/xlink">
<g id="graph0" class="graph" transform="scale(1 1) rotate(0) translate(4 200.25)">
<title>workspace/albert/include/albert/asyncgeneratorqueryhandler.h</title>
<!-- Node1 -->
<g id="Node000001" class="node">
<title>Node1</title>
<g id="a_Node000001"><a xlink:title=" ">
<polygon fill="#999999" stroke="#666666" points="351.67,-196.25 177.42,-196.25 177.42,-165.75 351.67,-165.75 351.67,-196.25"/>
<text text-anchor="start" x="185.42" y="-182.75" font-family="Helvetica,sans-Serif" font-size="10.00">workspace/albert/include</text>
<text text-anchor="middle" x="264.55" y="-171.5" font-family="Helvetica,sans-Serif" font-size="10.00">/albert/asyncgeneratorqueryhandler.h</text>
</a>
</g>
</g>
<!-- Node2 -->
<g id="Node000002" class="node">
<title>Node2</title>
<g id="a_Node000002"><a xlink:href="queryhandler_8h.html" target="_top" xlink:title=" ">
<polygon fill="white" stroke="#666666" points="229.17,-129.75 123.92,-129.75 123.92,-110.5 229.17,-110.5 229.17,-129.75"/>
<text text-anchor="middle" x="176.55" y="-116.25" font-family="Helvetica,sans-Serif" font-size="10.00">albert/queryhandler.h</text>
</a>
</g>
</g>
<!-- Node1&#45;&gt;Node2 -->
<g id="edge1_Node000001_Node000002" class="edge">
<title>Node1&#45;&gt;Node2</title>
<g id="a_edge1_Node000001_Node000002"><a xlink:title=" ">
<path fill="none" stroke="#63b8ff" d="M242.79,-165.45C229.65,-156.65 212.92,-145.46 199.56,-136.52"/>
<polygon fill="#63b8ff" stroke="#63b8ff" points="201.63,-133.69 191.37,-131.04 197.74,-139.51 201.63,-133.69"/>
</a>
</g>
</g>
<!-- Node7 -->
<g id="Node000007" class="node">
<title>Node7</title>
<g id="a_Node000007"><a xlink:title=" ">
<polygon fill="#e0e0e0" stroke="#999999" points="297.8,-74.5 247.3,-74.5 247.3,-55.25 297.8,-55.25 297.8,-74.5"/>
<text text-anchor="middle" x="272.55" y="-61" font-family="Helvetica,sans-Serif" font-size="10.00">memory</text>
</a>
</g>
</g>
<!-- Node1&#45;&gt;Node7 -->
<g id="edge9_Node000001_Node000007" class="edge">
<title>Node1&#45;&gt;Node7</title>
<g id="a_edge9_Node000001_Node000007"><a xlink:title=" ">
<path fill="none" stroke="#63b8ff" d="M265.56,-165.55C266.97,-145.5 269.51,-109.15 271.11,-86.32"/>
<polygon fill="#63b8ff" stroke="#63b8ff" points="274.6,-86.68 271.81,-76.46 267.61,-86.19 274.6,-86.68"/>
</a>
</g>
</g>
<!-- Node8 -->
<g id="Node000008" class="node">
<title>Node8</title>
<g id="a_Node000008"><a xlink:title=" ">
<polygon fill="#e0e0e0" stroke="#999999" points="336.05,-129.75 293.05,-129.75 293.05,-110.5 336.05,-110.5 336.05,-129.75"/>
<text text-anchor="middle" x="314.55" y="-116.25" font-family="Helvetica,sans-Serif" font-size="10.00">vector</text>
</a>
</g>
</g>
<!-- Node1&#45;&gt;Node8 -->
<g id="edge10_Node000001_Node000008" class="edge">
<title>Node1&#45;&gt;Node8</title>
<g id="a_edge10_Node000001_Node000008"><a xlink:title=" ">
<path fill="none" stroke="#63b8ff" d="M276.91,-165.45C283.71,-157.43 292.22,-147.42 299.42,-138.94"/>
<polygon fill="#63b8ff" stroke="#63b8ff" points="302.05,-141.24 305.86,-131.35 296.72,-136.71 302.05,-141.24"/>
</a>
</g>
</g>
<!-- Node3 -->
<g id="Node000003" class="node">
<title>Node3</title>
<g id="a_Node000003"><a xlink:title=" ">
<polygon fill="#e0e0e0" stroke="#999999" points="97.92,-19.25 21.17,-19.25 21.17,0 97.92,0 97.92,-19.25"/>
<text text-anchor="middle" x="59.55" y="-5.75" font-family="Helvetica,sans-Serif" font-size="10.00">albert/export.h</text>
</a>
</g>
</g>
<!-- Node2&#45;&gt;Node3 -->
<g id="edge2_Node000002_Node000003" class="edge">
<title>Node2&#45;&gt;Node3</title>
<g id="a_edge2_Node000002_Node000003"><a xlink:title=" ">
<path fill="none" stroke="#63b8ff" d="M123.75,-112.53C78.76,-105.7 19.13,-93.35 4.55,-74.5 -8.86,-57.17 12.22,-38.27 32.04,-25.55"/>
<polygon fill="#63b8ff" stroke="#63b8ff" points="33.75,-28.61 40.51,-20.46 30.14,-22.62 33.75,-28.61"/>
</a>
</g>
</g>
<!-- Node4 -->
<g id="Node000004" class="node">
<title>Node4</title>
<g id="a_Node000004"><a xlink:href="extension_8h.html" target="_top" xlink:title=" ">
<polygon fill="white" stroke="#666666" points="105.42,-74.5 13.67,-74.5 13.67,-55.25 105.42,-55.25 105.42,-74.5"/>
<text text-anchor="middle" x="59.55" y="-61" font-family="Helvetica,sans-Serif" font-size="10.00">albert/extension.h</text>
</a>
</g>
</g>
<!-- Node2&#45;&gt;Node4 -->
<g id="edge3_Node000002_Node000004" class="edge">
<title>Node2&#45;&gt;Node4</title>
<g id="a_edge3_Node000002_Node000004"><a xlink:title=" ">
<path fill="none" stroke="#63b8ff" d="M156.7,-110.09C138.38,-101.75 110.9,-89.25 89.84,-79.66"/>
<polygon fill="#63b8ff" stroke="#63b8ff" points="91.42,-76.54 80.87,-75.58 88.52,-82.91 91.42,-76.54"/>
</a>
</g>
</g>
<!-- Node5 -->
<g id="Node000005" class="node">
<title>Node5</title>
<g id="a_Node000005"><a xlink:href="querycontext_8h.html" target="_top" xlink:title=" ">
<polygon fill="white" stroke="#666666" points="229.17,-74.5 123.92,-74.5 123.92,-55.25 229.17,-55.25 229.17,-74.5"/>
<text text-anchor="middle" x="176.55" y="-61" font-family="Helvetica,sans-Serif" font-size="10.00">albert/querycontext.h</text>
</a>
</g>
</g>
<!-- Node2&#45;&gt;Node5 -->
<g id="edge5_Node000002_Node000005" class="edge">
<title>Node2&#45;&gt;Node5</title>
<g id="a_edge5_Node000002_Node000005"><a xlink:title=" ">
<path fill="none" stroke="#63b8ff" d="M176.55,-110.33C176.55,-103.82 176.55,-94.67 176.55,-86.37"/>
<polygon fill="#63b8ff" stroke="#63b8ff" points="180.05,-86.37 176.55,-76.37 173.05,-86.37 180.05,-86.37"/>
</a>
</g>
</g>
<!-- Node2&#45;&gt;Node7 -->
<g id="edge8_Node000002_Node000007" class="edge">
<title>Node2&#45;&gt;Node7</title>
<g id="a_edge8_Node000002_Node000007"><a xlink:title=" ">
<path fill="none" stroke="#63b8ff" d="M192.83,-110.09C207.45,-101.98 229.17,-89.93 246.25,-80.46"/>
<polygon fill="#63b8ff" stroke="#63b8ff" points="247.81,-83.6 254.86,-75.69 244.42,-77.48 247.81,-83.6"/>
</a>
</g>
</g>
<!-- Node4&#45;&gt;Node3 -->
<g id="edge4_Node000004_Node000003" class="edge">
<title>Node4&#45;&gt;Node3</title>
<g id="a_edge4_Node000004_Node000003"><a xlink:title=" ">
<path fill="none" stroke="#63b8ff" d="M59.55,-55.08C59.55,-48.57 59.55,-39.42 59.55,-31.12"/>
<polygon fill="#63b8ff" stroke="#63b8ff" points="63.05,-31.12 59.55,-21.12 56.05,-31.12 63.05,-31.12"/>
</a>
</g>
</g>
<!-- Node5&#45;&gt;Node3 -->
<g id="edge7_Node000005_Node000003" class="edge">
<title>Node5&#45;&gt;Node3</title>
<g id="a_edge7_Node000005_Node000003"><a xlink:title=" ">
<path fill="none" stroke="#63b8ff" d="M156.7,-54.84C138.38,-46.5 110.9,-34 89.84,-24.41"/>
<polygon fill="#63b8ff" stroke="#63b8ff" points="91.42,-21.29 80.87,-20.33 88.52,-27.66 91.42,-21.29"/>
</a>
</g>
</g>
<!-- Node6 -->
<g id="Node000006" class="node">
<title>Node6</title>
<g id="a_Node000006"><a xlink:title=" ">
<polygon fill="#e0e0e0" stroke="#999999" points="201.05,-19.25 152.05,-19.25 152.05,0 201.05,0 201.05,-19.25"/>
<text text-anchor="middle" x="176.55" y="-5.75" font-family="Helvetica,sans-Serif" font-size="10.00">QString</text>
</a>
</g>
</g>
<!-- Node5&#45;&gt;Node6 -->
<g id="edge6_Node000005_Node000006" class="edge">
<title>Node5&#45;&gt;Node6</title>
<g id="a_edge6_Node000005_Node000006"><a xlink:title=" ">
<path fill="none" stroke="#63b8ff" d="M176.55,-55.08C176.55,-48.57 176.55,-39.42 176.55,-31.12"/>
<polygon fill="#63b8ff" stroke="#63b8ff" points="180.05,-31.12 176.55,-21.12 173.05,-31.12 180.05,-31.12"/>
</a>
</g>
</g>
</g>
</svg>
