<?xml version="1.0" encoding="UTF-8" standalone="no"?>
<!DOCTYPE svg PUBLIC "-//W3C//DTD SVG 1.1//EN"
 "http://www.w3.org/Graphics/SVG/1.1/DTD/svg11.dtd">
<!-- Generated by graphviz version 9.0.0 (20230911.1827)
 -->
<!-- Title: workspace/albert/include/albert/backgroundexecutor.h Pages: 1 -->
<svg width="427pt" height="149pt"
 viewBox="0.00 0.00 426.62 149.00" xmlns="http://www.w3.org/2000/svg" xmlns:xlink="http://www.w3.org/1999/xlink">
<g id="graph0" class="graph" transform="scale(1 1) rotate(0) translate(4 145)">
<title>workspace/albert/include/albert/backgroundexecutor.h</title>
<!-- Node1 -->
<g id="Node000001" class="node">
<title>Node1</title>
<g id="a_Node000001"><a xlink:title=" ">
<polygon fill="#999999" stroke="#666666" points="308.88,-141 168.38,-141 168.38,-110.5 308.88,-110.5 308.88,-141"/>
<text text-anchor="start" x="176.38" y="-127.5" font-family="Helvetica,sans-Serif" font-size="10.00">workspace/albert/include</text>
<text text-anchor="middle" x="238.62" y="-116.25" font-family="Helvetica,sans-Serif" font-size="10.00">/albert/backgroundexecutor.h</text>
</a>
</g>
</g>
<!-- Node2 -->
<g id="Node000002" class="node">
<title>Node2</title>
<g id="a_Node000002"><a xlink:title=" ">
<polygon fill="#e0e0e0" stroke="#999999" points="87.25,-74.5 0,-74.5 0,-55.25 87.25,-55.25 87.25,-74.5"/>
<text text-anchor="middle" x="43.62" y="-61" font-family="Helvetica,sans-Serif" font-size="10.00">QFutureWatcher</text>
</a>
</g>
</g>
<!-- Node1&#45;&gt;Node2 -->
<g id="edge1_Node000001_Node000002" class="edge">
<title>Node1&#45;&gt;Node2</title>
<g id="a_edge1_Node000001_Node000002"><a xlink:title=" ">
<path fill="none" stroke="#63b8ff" d="M189.92,-110.05C157.47,-100.25 115.3,-87.52 84.58,-78.24"/>
<polygon fill="#63b8ff" stroke="#63b8ff" points="85.85,-74.97 75.27,-75.43 83.83,-81.67 85.85,-74.97"/>
</a>
</g>
</g>
<!-- Node3 -->
<g id="Node000003" class="node">
<title>Node3</title>
<g id="a_Node000003"><a xlink:title=" ">
<polygon fill="#e0e0e0" stroke="#999999" points="179.5,-74.5 105.75,-74.5 105.75,-55.25 179.5,-55.25 179.5,-74.5"/>
<text text-anchor="middle" x="142.62" y="-61" font-family="Helvetica,sans-Serif" font-size="10.00">QtConcurrent</text>
</a>
</g>
</g>
<!-- Node1&#45;&gt;Node3 -->
<g id="edge2_Node000001_Node000003" class="edge">
<title>Node1&#45;&gt;Node3</title>
<g id="a_edge2_Node000001_Node000003"><a xlink:title=" ">
<path fill="none" stroke="#63b8ff" d="M214.89,-110.2C200.28,-101.23 181.59,-89.77 166.87,-80.75"/>
<polygon fill="#63b8ff" stroke="#63b8ff" points="169.07,-77.99 158.71,-75.74 165.41,-83.95 169.07,-77.99"/>
</a>
</g>
</g>
<!-- Node4 -->
<g id="Node000004" class="node">
<title>Node4</title>
<g id="a_Node000004"><a xlink:href="logging_8h.html" target="_top" xlink:title=" ">
<polygon fill="white" stroke="#666666" points="279.25,-74.5 198,-74.5 198,-55.25 279.25,-55.25 279.25,-74.5"/>
<text text-anchor="middle" x="238.62" y="-61" font-family="Helvetica,sans-Serif" font-size="10.00">albert/logging.h</text>
</a>
</g>
</g>
<!-- Node1&#45;&gt;Node4 -->
<g id="edge3_Node000001_Node000004" class="edge">
<title>Node1&#45;&gt;Node4</title>
<g id="a_edge3_Node000001_Node000004"><a xlink:title=" ">
<path fill="none" stroke="#63b8ff" d="M238.62,-110.2C238.62,-102.96 238.62,-94.09 238.62,-86.19"/>
<polygon fill="#63b8ff" stroke="#63b8ff" points="242.13,-86.46 238.63,-76.46 235.13,-86.46 242.13,-86.46"/>
</a>
</g>
</g>
<!-- Node6 -->
<g id="Node000006" class="node">
<title>Node6</title>
<g id="a_Node000006"><a xlink:title=" ">
<polygon fill="#e0e0e0" stroke="#999999" points="342.25,-74.5 297,-74.5 297,-55.25 342.25,-55.25 342.25,-74.5"/>
<text text-anchor="middle" x="319.62" y="-61" font-family="Helvetica,sans-Serif" font-size="10.00">chrono</text>
</a>
</g>
</g>
<!-- Node1&#45;&gt;Node6 -->
<g id="edge5_Node000001_Node000006" class="edge">
<title>Node1&#45;&gt;Node6</title>
<g id="a_edge5_Node000001_Node000006"><a xlink:title=" ">
<path fill="none" stroke="#63b8ff" d="M258.65,-110.2C270.62,-101.49 285.84,-90.43 298.08,-81.53"/>
<polygon fill="#63b8ff" stroke="#63b8ff" points="299.88,-84.55 305.91,-75.84 295.77,-78.89 299.88,-84.55"/>
</a>
</g>
</g>
<!-- Node7 -->
<g id="Node000007" class="node">
<title>Node7</title>
<g id="a_Node000007"><a xlink:title=" ">
<polygon fill="#e0e0e0" stroke="#999999" points="418.62,-74.5 360.62,-74.5 360.62,-55.25 418.62,-55.25 418.62,-74.5"/>
<text text-anchor="middle" x="389.62" y="-61" font-family="Helvetica,sans-Serif" font-size="10.00">functional</text>
</a>
</g>
</g>
<!-- Node1&#45;&gt;Node7 -->
<g id="edge6_Node000001_Node000007" class="edge">
<title>Node1&#45;&gt;Node7</title>
<g id="a_edge6_Node000001_Node000007"><a xlink:title=" ">
<path fill="none" stroke="#63b8ff" d="M276.34,-110.05C300.77,-100.52 332.32,-88.22 355.92,-79.02"/>
<polygon fill="#63b8ff" stroke="#63b8ff" points="357.01,-82.35 365.06,-75.45 354.47,-75.83 357.01,-82.35"/>
</a>
</g>
</g>
<!-- Node5 -->
<g id="Node000005" class="node">
<title>Node5</title>
<g id="a_Node000005"><a xlink:title=" ">
<polygon fill="#e0e0e0" stroke="#999999" points="286.75,-19.25 190.5,-19.25 190.5,0 286.75,0 286.75,-19.25"/>
<text text-anchor="middle" x="238.62" y="-5.75" font-family="Helvetica,sans-Serif" font-size="10.00">QLoggingCategory</text>
</a>
</g>
</g>
<!-- Node4&#45;&gt;Node5 -->
<g id="edge4_Node000004_Node000005" class="edge">
<title>Node4&#45;&gt;Node5</title>
<g id="a_edge4_Node000004_Node000005"><a xlink:title=" ">
<path fill="none" stroke="#63b8ff" d="M238.62,-55.08C238.62,-48.57 238.62,-39.42 238.62,-31.12"/>
<polygon fill="#63b8ff" stroke="#63b8ff" points="242.13,-31.12 238.63,-21.12 235.13,-31.12 242.13,-31.12"/>
</a>
</g>
</g>
</g>
</svg>
