<?xml version="1.0" encoding="UTF-8" standalone="no"?>
<!DOCTYPE svg PUBLIC "-//W3C//DTD SVG 1.1//EN"
 "http://www.w3.org/Graphics/SVG/1.1/DTD/svg11.dtd">
<!-- Generated by graphviz version 9.0.0 (20230911.1827)
 -->
<!-- Title: workspace/albert/include/albert/backgroundexecutor.h Pages: 1 -->
<svg width="443pt" height="149pt"
 viewBox="0.00 0.00 442.62 149.00" xmlns="http://www.w3.org/2000/svg" xmlns:xlink="http://www.w3.org/1999/xlink">
<g id="graph0" class="graph" transform="scale(1 1) rotate(0) translate(4 145)">
<title>workspace/albert/include/albert/backgroundexecutor.h</title>
<!-- Node1 -->
<g id="Node000001" class="node">
<title>Node1</title>
<g id="a_Node000001"><a xlink:title=" ">
<polygon fill="#999999" stroke="#666666" points="324.88,-141 184.38,-141 184.38,-110.5 324.88,-110.5 324.88,-141"/>
<text text-anchor="start" x="192.38" y="-127.5" font-family="Helvetica,sans-Serif" font-size="10.00">workspace/albert/include</text>
<text text-anchor="middle" x="254.62" y="-116.25" font-family="Helvetica,sans-Serif" font-size="10.00">/albert/backgroundexecutor.h</text>
</a>
</g>
</g>
<!-- Node2 -->
<g id="Node000002" class="node">
<title>Node2</title>
<g id="a_Node000002"><a xlink:title=" ">
<polygon fill="#e0e0e0" stroke="#999999" points="87.25,-74.5 0,-74.5 0,-55.25 87.25,-55.25 87.25,-74.5"/>
<text text-anchor="middle" x="43.62" y="-61" font-family="Helvetica,sans-Serif" font-size="10.00">QFutureWatcher</text>
</a>
</g>
</g>
<!-- Node1&#45;&gt;Node2 -->
<g id="edge1_Node000001_Node000002" class="edge">
<title>Node1&#45;&gt;Node2</title>
<g id="a_edge1_Node000001_Node000002"><a xlink:title=" ">
<path fill="none" stroke="#63b8ff" d="M201.93,-110.05C166.5,-100.16 120.38,-87.29 87.07,-78"/>
<polygon fill="#63b8ff" stroke="#63b8ff" points="88.33,-74.71 77.75,-75.4 86.44,-81.46 88.33,-74.71"/>
</a>
</g>
</g>
<!-- Node3 -->
<g id="Node000003" class="node">
<title>Node3</title>
<g id="a_Node000003"><a xlink:title=" ">
<polygon fill="#e0e0e0" stroke="#999999" points="196.12,-74.5 105.12,-74.5 105.12,-55.25 196.12,-55.25 196.12,-74.5"/>
<text text-anchor="middle" x="150.62" y="-61" font-family="Helvetica,sans-Serif" font-size="10.00">QtConcurrentRun</text>
</a>
</g>
</g>
<!-- Node1&#45;&gt;Node3 -->
<g id="edge2_Node000001_Node000003" class="edge">
<title>Node1&#45;&gt;Node3</title>
<g id="a_edge2_Node000001_Node000003"><a xlink:title=" ">
<path fill="none" stroke="#63b8ff" d="M228.65,-110.05C212.66,-100.99 192.24,-89.44 176.31,-80.41"/>
<polygon fill="#63b8ff" stroke="#63b8ff" points="178.32,-77.53 167.89,-75.65 174.87,-83.62 178.32,-77.53"/>
</a>
</g>
</g>
<!-- Node4 -->
<g id="Node000004" class="node">
<title>Node4</title>
<g id="a_Node000004"><a xlink:href="logging_8h.html" target="_top" xlink:title=" ">
<polygon fill="white" stroke="#666666" points="295.25,-74.5 214,-74.5 214,-55.25 295.25,-55.25 295.25,-74.5"/>
<text text-anchor="middle" x="254.62" y="-61" font-family="Helvetica,sans-Serif" font-size="10.00">albert/logging.h</text>
</a>
</g>
</g>
<!-- Node1&#45;&gt;Node4 -->
<g id="edge3_Node000001_Node000004" class="edge">
<title>Node1&#45;&gt;Node4</title>
<g id="a_edge3_Node000001_Node000004"><a xlink:title=" ">
<path fill="none" stroke="#63b8ff" d="M254.62,-110.2C254.62,-102.96 254.62,-94.09 254.62,-86.19"/>
<polygon fill="#63b8ff" stroke="#63b8ff" points="258.13,-86.46 254.63,-76.46 251.13,-86.46 258.13,-86.46"/>
</a>
</g>
</g>
<!-- Node6 -->
<g id="Node000006" class="node">
<title>Node6</title>
<g id="a_Node000006"><a xlink:title=" ">
<polygon fill="#e0e0e0" stroke="#999999" points="358.25,-74.5 313,-74.5 313,-55.25 358.25,-55.25 358.25,-74.5"/>
<text text-anchor="middle" x="335.62" y="-61" font-family="Helvetica,sans-Serif" font-size="10.00">chrono</text>
</a>
</g>
</g>
<!-- Node1&#45;&gt;Node6 -->
<g id="edge5_Node000001_Node000006" class="edge">
<title>Node1&#45;&gt;Node6</title>
<g id="a_edge5_Node000001_Node000006"><a xlink:title=" ">
<path fill="none" stroke="#63b8ff" d="M274.65,-110.2C286.62,-101.49 301.84,-90.43 314.08,-81.53"/>
<polygon fill="#63b8ff" stroke="#63b8ff" points="315.88,-84.55 321.91,-75.84 311.77,-78.89 315.88,-84.55"/>
</a>
</g>
</g>
<!-- Node7 -->
<g id="Node000007" class="node">
<title>Node7</title>
<g id="a_Node000007"><a xlink:title=" ">
<polygon fill="#e0e0e0" stroke="#999999" points="434.62,-74.5 376.62,-74.5 376.62,-55.25 434.62,-55.25 434.62,-74.5"/>
<text text-anchor="middle" x="405.62" y="-61" font-family="Helvetica,sans-Serif" font-size="10.00">functional</text>
</a>
</g>
</g>
<!-- Node1&#45;&gt;Node7 -->
<g id="edge6_Node000001_Node000007" class="edge">
<title>Node1&#45;&gt;Node7</title>
<g id="a_edge6_Node000001_Node000007"><a xlink:title=" ">
<path fill="none" stroke="#63b8ff" d="M292.34,-110.05C316.77,-100.52 348.32,-88.22 371.92,-79.02"/>
<polygon fill="#63b8ff" stroke="#63b8ff" points="373.01,-82.35 381.06,-75.45 370.47,-75.83 373.01,-82.35"/>
</a>
</g>
</g>
<!-- Node5 -->
<g id="Node000005" class="node">
<title>Node5</title>
<g id="a_Node000005"><a xlink:title=" ">
<polygon fill="#e0e0e0" stroke="#999999" points="302.75,-19.25 206.5,-19.25 206.5,0 302.75,0 302.75,-19.25"/>
<text text-anchor="middle" x="254.62" y="-5.75" font-family="Helvetica,sans-Serif" font-size="10.00">QLoggingCategory</text>
</a>
</g>
</g>
<!-- Node4&#45;&gt;Node5 -->
<g id="edge4_Node000004_Node000005" class="edge">
<title>Node4&#45;&gt;Node5</title>
<g id="a_edge4_Node000004_Node000005"><a xlink:title=" ">
<path fill="none" stroke="#63b8ff" d="M254.62,-55.08C254.62,-48.57 254.62,-39.42 254.62,-31.12"/>
<polygon fill="#63b8ff" stroke="#63b8ff" points="258.13,-31.12 254.63,-21.12 251.13,-31.12 258.13,-31.12"/>
</a>
</g>
</g>
</g>
</svg>
