<?xml version="1.0" encoding="UTF-8" standalone="no"?>
<!DOCTYPE svg PUBLIC "-//W3C//DTD SVG 1.1//EN"
 "http://www.w3.org/Graphics/SVG/1.1/DTD/svg11.dtd">
<!-- Generated by graphviz version 9.0.0 (20230911.1827)
 -->
<!-- Title: albert::Extension Pages: 1 -->
<svg width="931pt" height="175pt"
 viewBox="0.00 0.00 931.25 175.25" xmlns="http://www.w3.org/2000/svg" xmlns:xlink="http://www.w3.org/1999/xlink">
<g id="graph0" class="graph" transform="scale(1 1) rotate(0) translate(4 171.25)">
<title>albert::Extension</title>
<!-- Node1 -->
<g id="Node000001" class="node">
<title>Node1</title>
<g id="a_Node000001"><a xlink:title="Abstract extension class.">
<polygon fill="#999999" stroke="#666666" points="86.5,-93.25 0,-93.25 0,-74 86.5,-74 86.5,-93.25"/>
<text text-anchor="middle" x="43.25" y="-79.75" font-family="Helvetica,sans-Serif" font-size="10.00">albert::Extension</text>
</a>
</g>
</g>
<!-- Node2 -->
<g id="Node000002" class="node">
<title>Node2</title>
<g id="a_Node000002"><a xlink:href="classalbert_1_1ExtensionPlugin.html" target="_top" xlink:title="Extension plugin base class.">
<polygon fill="white" stroke="#666666" points="236.75,-167.25 123.25,-167.25 123.25,-148 236.75,-148 236.75,-167.25"/>
<text text-anchor="middle" x="180" y="-153.75" font-family="Helvetica,sans-Serif" font-size="10.00">albert::ExtensionPlugin</text>
</a>
</g>
</g>
<!-- Node1&#45;&gt;Node2 -->
<g id="edge1_Node000001_Node000002" class="edge">
<title>Node1&#45;&gt;Node2</title>
<g id="a_edge1_Node000001_Node000002"><a xlink:title=" ">
<path fill="none" stroke="#63b8ff" d="M64.23,-100.61C79.4,-112.83 101.23,-128.96 122.5,-139.62 128.48,-142.62 135.07,-145.26 141.57,-147.53"/>
<polygon fill="#63b8ff" stroke="#63b8ff" points="66.81,-98.21 56.87,-94.56 62.37,-103.61 66.81,-98.21"/>
</a>
</g>
</g>
<!-- Node3 -->
<g id="Node000003" class="node">
<title>Node3</title>
<g id="a_Node000003"><a xlink:href="classalbert_1_1FallbackHandler.html" target="_top" xlink:title="Abstract fallback item provider.">
<polygon fill="white" stroke="#666666" points="237.5,-130.25 122.5,-130.25 122.5,-111 237.5,-111 237.5,-130.25"/>
<text text-anchor="middle" x="180" y="-116.75" font-family="Helvetica,sans-Serif" font-size="10.00">albert::FallbackHandler</text>
</a>
</g>
</g>
<!-- Node1&#45;&gt;Node3 -->
<g id="edge2_Node000001_Node000003" class="edge">
<title>Node1&#45;&gt;Node3</title>
<g id="a_edge2_Node000001_Node000003"><a xlink:title=" ">
<path fill="none" stroke="#63b8ff" d="M92.15,-96.78C108.61,-101.3 126.78,-106.29 142.22,-110.53"/>
<polygon fill="#63b8ff" stroke="#63b8ff" points="93.1,-93.41 82.53,-94.14 91.25,-100.16 93.1,-93.41"/>
</a>
</g>
</g>
<!-- Node4 -->
<g id="Node000004" class="node">
<title>Node4</title>
<g id="a_Node000004"><a xlink:href="classalbert_1_1PluginProvider.html" target="_top" xlink:title="Plugin provider interface class.">
<polygon fill="white" stroke="#666666" points="233.75,-93.25 126.25,-93.25 126.25,-74 233.75,-74 233.75,-93.25"/>
<text text-anchor="middle" x="180" y="-79.75" font-family="Helvetica,sans-Serif" font-size="10.00">albert::PluginProvider</text>
</a>
</g>
</g>
<!-- Node1&#45;&gt;Node4 -->
<g id="edge3_Node000001_Node000004" class="edge">
<title>Node1&#45;&gt;Node4</title>
<g id="a_edge3_Node000001_Node000004"><a xlink:title=" ">
<path fill="none" stroke="#63b8ff" d="M98.3,-83.62C107.51,-83.62 117.06,-83.62 126.23,-83.62"/>
<polygon fill="#63b8ff" stroke="#63b8ff" points="98.4,-80.13 88.4,-83.63 98.4,-87.13 98.4,-80.13"/>
</a>
</g>
</g>
<!-- Node5 -->
<g id="Node000005" class="node">
<title>Node5</title>
<g id="a_Node000005"><a xlink:href="classalbert_1_1QueryHandler.html" target="_top" xlink:title="Base query handler interface for triggered queries.">
<polygon fill="white" stroke="#666666" points="231.88,-56.25 128.12,-56.25 128.12,-37 231.88,-37 231.88,-56.25"/>
<text text-anchor="middle" x="180" y="-42.75" font-family="Helvetica,sans-Serif" font-size="10.00">albert::QueryHandler</text>
</a>
</g>
</g>
<!-- Node1&#45;&gt;Node5 -->
<g id="edge4_Node000001_Node000005" class="edge">
<title>Node1&#45;&gt;Node5</title>
<g id="a_edge4_Node000001_Node000005"><a xlink:title=" ">
<path fill="none" stroke="#63b8ff" d="M92.15,-70.47C108.61,-65.95 126.78,-60.96 142.22,-56.72"/>
<polygon fill="#63b8ff" stroke="#63b8ff" points="91.25,-67.09 82.53,-73.11 93.1,-73.84 91.25,-67.09"/>
</a>
</g>
</g>
<!-- Node11 -->
<g id="Node000011" class="node">
<title>Node11</title>
<g id="a_Node000011"><a xlink:href="classalbert_1_1UrlHandler.html" target="_top" xlink:title="Albert scheme URL handler interface.">
<polygon fill="white" stroke="#666666" points="225.5,-19.25 134.5,-19.25 134.5,0 225.5,0 225.5,-19.25"/>
<text text-anchor="middle" x="180" y="-5.75" font-family="Helvetica,sans-Serif" font-size="10.00">albert::UrlHandler</text>
</a>
</g>
</g>
<!-- Node1&#45;&gt;Node11 -->
<g id="edge10_Node000001_Node000011" class="edge">
<title>Node1&#45;&gt;Node11</title>
<g id="a_edge10_Node000001_Node000011"><a xlink:title=" ">
<path fill="none" stroke="#63b8ff" d="M64.23,-66.64C79.4,-54.42 101.23,-38.29 122.5,-27.62 128.48,-24.63 135.07,-21.99 141.57,-19.72"/>
<polygon fill="#63b8ff" stroke="#63b8ff" points="62.37,-63.64 56.87,-72.69 66.81,-69.04 62.37,-63.64"/>
</a>
</g>
</g>
<!-- Node6 -->
<g id="Node000006" class="node">
<title>Node6</title>
<g id="a_Node000006"><a xlink:href="classalbert_1_1AsyncGeneratorQueryHandler.html" target="_top" xlink:title="Coroutine&#45;based asynchronous generator query handler.">
<polygon fill="white" stroke="#666666" points="416.62,-83.88 276.88,-83.88 276.88,-53.38 416.62,-53.38 416.62,-83.88"/>
<text text-anchor="start" x="284.88" y="-70.38" font-family="Helvetica,sans-Serif" font-size="10.00">albert::AsyncGeneratorQuery</text>
<text text-anchor="middle" x="346.75" y="-59.12" font-family="Helvetica,sans-Serif" font-size="10.00">Handler</text>
</a>
</g>
</g>
<!-- Node5&#45;&gt;Node6 -->
<g id="edge5_Node000005_Node000006" class="edge">
<title>Node5&#45;&gt;Node6</title>
<g id="a_edge5_Node000005_Node000006"><a xlink:title=" ">
<path fill="none" stroke="#63b8ff" d="M243.63,-54.99C254.34,-56.42 265.52,-57.91 276.4,-59.36"/>
<polygon fill="#63b8ff" stroke="#63b8ff" points="244.1,-51.52 233.73,-53.67 243.17,-58.46 244.1,-51.52"/>
</a>
</g>
</g>
<!-- Node7 -->
<g id="Node000007" class="node">
<title>Node7</title>
<g id="a_Node000007"><a xlink:href="classalbert_1_1GeneratorQueryHandler.html" target="_top" xlink:title="Coroutine&#45;based synchronous generator query handler.">
<polygon fill="white" stroke="#666666" points="420,-35.25 273.5,-35.25 273.5,-16 420,-16 420,-35.25"/>
<text text-anchor="middle" x="346.75" y="-21.75" font-family="Helvetica,sans-Serif" font-size="10.00">albert::GeneratorQueryHandler</text>
</a>
</g>
</g>
<!-- Node5&#45;&gt;Node7 -->
<g id="edge6_Node000005_Node000007" class="edge">
<title>Node5&#45;&gt;Node7</title>
<g id="a_edge6_Node000005_Node000007"><a xlink:title=" ">
<path fill="none" stroke="#63b8ff" d="M243.39,-38.67C253.09,-37.44 263.18,-36.15 273.09,-34.89"/>
<polygon fill="#63b8ff" stroke="#63b8ff" points="243.2,-35.17 233.73,-39.9 244.09,-42.11 243.2,-35.17"/>
</a>
</g>
</g>
<!-- Node8 -->
<g id="Node000008" class="node">
<title>Node8</title>
<g id="a_Node000008"><a xlink:href="classalbert_1_1RankedQueryHandler.html" target="_top" xlink:title="Usage&#45;ranked query handler.">
<polygon fill="white" stroke="#666666" points="592.75,-35.25 456,-35.25 456,-16 592.75,-16 592.75,-35.25"/>
<text text-anchor="middle" x="524.38" y="-21.75" font-family="Helvetica,sans-Serif" font-size="10.00">albert::RankedQueryHandler</text>
</a>
</g>
</g>
<!-- Node7&#45;&gt;Node8 -->
<g id="edge7_Node000007_Node000008" class="edge">
<title>Node7&#45;&gt;Node8</title>
<g id="a_edge7_Node000007_Node000008"><a xlink:title=" ">
<path fill="none" stroke="#63b8ff" d="M431.96,-25.62C439.86,-25.62 447.8,-25.62 455.52,-25.62"/>
<polygon fill="#63b8ff" stroke="#63b8ff" points="431.96,-22.13 421.96,-25.63 431.96,-29.13 431.96,-22.13"/>
</a>
</g>
</g>
<!-- Node9 -->
<g id="Node000009" class="node">
<title>Node9</title>
<g id="a_Node000009"><a xlink:href="classalbert_1_1GlobalQueryHandler.html" target="_top" xlink:title="Query handler participating in the global search.">
<polygon fill="white" stroke="#666666" points="760.25,-35.25 628.75,-35.25 628.75,-16 760.25,-16 760.25,-35.25"/>
<text text-anchor="middle" x="694.5" y="-21.75" font-family="Helvetica,sans-Serif" font-size="10.00">albert::GlobalQueryHandler</text>
</a>
</g>
</g>
<!-- Node8&#45;&gt;Node9 -->
<g id="edge8_Node000008_Node000009" class="edge">
<title>Node8&#45;&gt;Node9</title>
<g id="a_edge8_Node000008_Node000009"><a xlink:title=" ">
<path fill="none" stroke="#63b8ff" d="M604.13,-25.62C612.21,-25.62 620.35,-25.62 628.26,-25.62"/>
<polygon fill="#63b8ff" stroke="#63b8ff" points="604.3,-22.13 594.3,-25.63 604.3,-29.13 604.3,-22.13"/>
</a>
</g>
</g>
<!-- Node10 -->
<g id="Node000010" class="node">
<title>Node10</title>
<g id="a_Node000010"><a xlink:href="classalbert_1_1IndexQueryHandler.html" target="_top" xlink:title="Index&#45;based global query handler.">
<polygon fill="white" stroke="#666666" points="923.25,-35.25 796.25,-35.25 796.25,-16 923.25,-16 923.25,-35.25"/>
<text text-anchor="middle" x="859.75" y="-21.75" font-family="Helvetica,sans-Serif" font-size="10.00">albert::IndexQueryHandler</text>
</a>
</g>
</g>
<!-- Node9&#45;&gt;Node10 -->
<g id="edge9_Node000009_Node000010" class="edge">
<title>Node9&#45;&gt;Node10</title>
<g id="a_edge9_Node000009_Node000010"><a xlink:title=" ">
<path fill="none" stroke="#63b8ff" d="M771.8,-25.62C779.85,-25.62 787.97,-25.62 795.85,-25.62"/>
<polygon fill="#63b8ff" stroke="#63b8ff" points="772,-22.13 762,-25.63 772,-29.13 772,-22.13"/>
</a>
</g>
</g>
</g>
</svg>
