<?xml version="1.0" encoding="UTF-8" standalone="no"?>
<!DOCTYPE svg PUBLIC "-//W3C//DTD SVG 1.1//EN"
 "http://www.w3.org/Graphics/SVG/1.1/DTD/svg11.dtd">
<!-- Generated by graphviz version 9.0.0 (20230911.1827)
 -->
<!-- Title: albert::PluginInstance Pages: 1 -->
<svg width="268pt" height="83pt"
 viewBox="0.00 0.00 267.62 82.50" xmlns="http://www.w3.org/2000/svg" xmlns:xlink="http://www.w3.org/1999/xlink">
<g id="graph0" class="graph" transform="scale(1 1) rotate(0) translate(4 78.5)">
<title>albert::PluginInstance</title>
<!-- Node1 -->
<g id="Node000001" class="node">
<title>Node1</title>
<g id="a_Node000001"><a xlink:title="Abstract plugin instance class.">
<polygon fill="#999999" stroke="#666666" points="178.75,-74.5 69.75,-74.5 69.75,-55.25 178.75,-55.25 178.75,-74.5"/>
<text text-anchor="middle" x="124.25" y="-61" font-family="Helvetica,sans-Serif" font-size="10.00">albert::PluginInstance</text>
</a>
</g>
</g>
<!-- Node2 -->
<g id="Node000002" class="node">
<title>Node2</title>
<g id="a_Node000002"><a xlink:href="classalbert_1_1detail_1_1Frontend.html" target="_top" xlink:title="The interface for albert frontends.">
<polygon fill="white" stroke="#666666" points="110.5,-19.25 0,-19.25 0,0 110.5,0 110.5,-19.25"/>
<text text-anchor="middle" x="55.25" y="-5.75" font-family="Helvetica,sans-Serif" font-size="10.00">albert::detail::Frontend</text>
</a>
</g>
</g>
<!-- Node1&#45;&gt;Node2 -->
<g id="edge1_Node000001_Node000002" class="edge">
<title>Node1&#45;&gt;Node2</title>
<g id="a_edge1_Node000001_Node000002"><a xlink:title=" ">
<path fill="none" stroke="#63b8ff" d="M103.6,-47.94C91.55,-38.64 76.8,-27.26 66.78,-19.52"/>
<polygon fill="#63b8ff" stroke="#63b8ff" points="101.29,-50.58 111.35,-53.92 105.57,-45.04 101.29,-50.58"/>
</a>
</g>
</g>
<!-- Node3 -->
<g id="Node000003" class="node">
<title>Node3</title>
<g id="a_Node000003"><a xlink:href="classalbert_1_1util_1_1ExtensionPlugin.html" target="_top" xlink:title="Convenience base class for extension plugins.">
<polygon fill="white" stroke="#666666" points="259.62,-19.25 128.88,-19.25 128.88,0 259.62,0 259.62,-19.25"/>
<text text-anchor="middle" x="194.25" y="-5.75" font-family="Helvetica,sans-Serif" font-size="10.00">albert::util::ExtensionPlugin</text>
</a>
</g>
</g>
<!-- Node1&#45;&gt;Node3 -->
<g id="edge2_Node000001_Node000003" class="edge">
<title>Node1&#45;&gt;Node3</title>
<g id="a_edge2_Node000001_Node000003"><a xlink:title=" ">
<path fill="none" stroke="#63b8ff" d="M145.2,-47.94C157.42,-38.64 172.39,-27.26 182.55,-19.52"/>
<polygon fill="#63b8ff" stroke="#63b8ff" points="143.17,-45.09 137.33,-53.93 147.41,-50.66 143.17,-45.09"/>
</a>
</g>
</g>
</g>
</svg>
