<?xml version="1.0" encoding="UTF-8" standalone="no"?>
<!DOCTYPE svg PUBLIC "-//W3C//DTD SVG 1.1//EN"
 "http://www.w3.org/Graphics/SVG/1.1/DTD/svg11.dtd">
<!-- Generated by graphviz version 9.0.0 (20230911.1827)
 -->
<!-- Title: albert::Dependency&lt; T &gt; Pages: 1 -->
<svg width="320pt" height="83pt"
 viewBox="0.00 0.00 319.88 82.50" xmlns="http://www.w3.org/2000/svg" xmlns:xlink="http://www.w3.org/1999/xlink">
<g id="graph0" class="graph" transform="scale(1 1) rotate(0) translate(4 78.5)">
<title>albert::Dependency&lt; T &gt;</title>
<!-- Node1 -->
<g id="Node000001" class="node">
<title>Node1</title>
<g id="a_Node000001"><a xlink:title="Base class for StrongDependency and WeakDependency.">
<polygon fill="#999999" stroke="#666666" points="216.5,-74.5 96.25,-74.5 96.25,-55.25 216.5,-55.25 216.5,-74.5"/>
<text text-anchor="middle" x="156.38" y="-61" font-family="Helvetica,sans-Serif" font-size="10.00">albert::Dependency&lt; T &gt;</text>
</a>
</g>
</g>
<!-- Node2 -->
<g id="Node000002" class="node">
<title>Node2</title>
<g id="a_Node000002"><a xlink:href="classalbert_1_1_strong_dependency.html" target="_top" xlink:title="Convenience holder class for plugin hard dependencies.">
<polygon fill="white" stroke="#666666" points="148.75,-19.25 0,-19.25 0,0 148.75,0 148.75,-19.25"/>
<text text-anchor="middle" x="74.38" y="-5.75" font-family="Helvetica,sans-Serif" font-size="10.00">albert::StrongDependency&lt; T &gt;</text>
</a>
</g>
</g>
<!-- Node1&#45;&gt;Node2 -->
<g id="edge1_Node000001_Node000002" class="edge">
<title>Node1&#45;&gt;Node2</title>
<g id="a_edge1_Node000001_Node000002"><a xlink:title=" ">
<path fill="none" stroke="#63b8ff" d="M133.17,-48.8C118.72,-39.42 100.63,-27.67 88.35,-19.7"/>
<polygon fill="#63b8ff" stroke="#63b8ff" points="130.9,-51.51 141.2,-54.02 134.71,-45.64 130.9,-51.51"/>
</a>
</g>
</g>
<!-- Node3 -->
<g id="Node000003" class="node">
<title>Node3</title>
<g id="a_Node000003"><a xlink:href="classalbert_1_1_weak_dependency.html" target="_top" xlink:title="Convenience holder class for plugin soft dependencies.">
<polygon fill="white" stroke="#666666" points="311.88,-19.25 166.88,-19.25 166.88,0 311.88,0 311.88,-19.25"/>
<text text-anchor="middle" x="239.38" y="-5.75" font-family="Helvetica,sans-Serif" font-size="10.00">albert::WeakDependency&lt; T &gt;</text>
</a>
</g>
</g>
<!-- Node1&#45;&gt;Node3 -->
<g id="edge2_Node000001_Node000003" class="edge">
<title>Node1&#45;&gt;Node3</title>
<g id="a_edge2_Node000001_Node000003"><a xlink:title=" ">
<path fill="none" stroke="#63b8ff" d="M179.87,-48.8C194.49,-39.42 212.8,-27.67 225.23,-19.7"/>
<polygon fill="#63b8ff" stroke="#63b8ff" points="178.26,-45.68 171.73,-54.02 182.04,-51.57 178.26,-45.68"/>
</a>
</g>
</g>
</g>
</svg>
