<?xml version="1.0" encoding="UTF-8" standalone="no"?>
<!DOCTYPE svg PUBLIC "-//W3C//DTD SVG 1.1//EN"
 "http://www.w3.org/Graphics/SVG/1.1/DTD/svg11.dtd">
<!-- Generated by graphviz version 9.0.0 (20230911.1827)
 -->
<!-- Title: albert::ExtensionPlugin Pages: 1 -->
<svg width="222pt" height="83pt"
 viewBox="0.00 0.00 221.75 82.50" xmlns="http://www.w3.org/2000/svg" xmlns:xlink="http://www.w3.org/1999/xlink">
<g id="graph0" class="graph" transform="scale(1 1) rotate(0) translate(4 78.5)">
<title>albert::ExtensionPlugin</title>
<!-- Node1 -->
<g id="Node000001" class="node">
<title>Node1</title>
<g id="a_Node000001"><a xlink:title="Extension plugin base class.">
<polygon fill="#999999" stroke="#666666" points="169.25,-19.25 55.75,-19.25 55.75,0 169.25,0 169.25,-19.25"/>
<text text-anchor="middle" x="112.5" y="-5.75" font-family="Helvetica,sans-Serif" font-size="10.00">albert::ExtensionPlugin</text>
</a>
</g>
</g>
<!-- Node2 -->
<g id="Node000002" class="node">
<title>Node2</title>
<g id="a_Node000002"><a xlink:href="classalbert_1_1PluginInstance.html" target="_top" xlink:title="Abstract plugin instance class.">
<polygon fill="white" stroke="#666666" points="109,-74.5 0,-74.5 0,-55.25 109,-55.25 109,-74.5"/>
<text text-anchor="middle" x="54.5" y="-61" font-family="Helvetica,sans-Serif" font-size="10.00">albert::PluginInstance</text>
</a>
</g>
</g>
<!-- Node2&#45;&gt;Node1 -->
<g id="edge1_Node000001_Node000002" class="edge">
<title>Node2&#45;&gt;Node1</title>
<g id="a_edge1_Node000001_Node000002"><a xlink:title=" ">
<path fill="none" stroke="#63b8ff" d="M72.76,-47.11C82.72,-37.97 94.64,-27.03 102.81,-19.52"/>
<polygon fill="#63b8ff" stroke="#63b8ff" points="70.45,-44.48 65.45,-53.82 75.19,-49.63 70.45,-44.48"/>
</a>
</g>
</g>
<!-- Node3 -->
<g id="Node000003" class="node">
<title>Node3</title>
<g id="a_Node000003"><a xlink:href="classalbert_1_1Extension.html" target="_top" xlink:title="Abstract extension class.">
<polygon fill="white" stroke="#666666" points="213.75,-74.5 127.25,-74.5 127.25,-55.25 213.75,-55.25 213.75,-74.5"/>
<text text-anchor="middle" x="170.5" y="-61" font-family="Helvetica,sans-Serif" font-size="10.00">albert::Extension</text>
</a>
</g>
</g>
<!-- Node3&#45;&gt;Node1 -->
<g id="edge2_Node000001_Node000003" class="edge">
<title>Node3&#45;&gt;Node1</title>
<g id="a_edge2_Node000001_Node000003"><a xlink:title=" ">
<path fill="none" stroke="#63b8ff" d="M152.24,-47.11C142.28,-37.97 130.36,-27.03 122.19,-19.52"/>
<polygon fill="#63b8ff" stroke="#63b8ff" points="149.81,-49.63 159.55,-53.82 154.55,-44.48 149.81,-49.63"/>
</a>
</g>
</g>
</g>
</svg>
