<?xml version="1.0" encoding="UTF-8" standalone="no"?>
<!DOCTYPE svg PUBLIC "-//W3C//DTD SVG 1.1//EN"
 "http://www.w3.org/Graphics/SVG/1.1/DTD/svg11.dtd">
<!-- Generated by graphviz version 9.0.0 (20230911.1827)
 -->
<!-- Title: albert::Item Pages: 1 -->
<svg width="276pt" height="83pt"
 viewBox="0.00 0.00 275.75 82.50" xmlns="http://www.w3.org/2000/svg" xmlns:xlink="http://www.w3.org/1999/xlink">
<g id="graph0" class="graph" transform="scale(1 1) rotate(0) translate(4 78.5)">
<title>albert::Item</title>
<!-- Node1 -->
<g id="Node000001" class="node">
<title>Node1</title>
<g id="a_Node000001"><a xlink:title="Result items displayed in the query results list.">
<polygon fill="#999999" stroke="#666666" points="167.62,-74.5 103.62,-74.5 103.62,-55.25 167.62,-55.25 167.62,-74.5"/>
<text text-anchor="middle" x="135.62" y="-61" font-family="Helvetica,sans-Serif" font-size="10.00">albert::Item</text>
</a>
</g>
</g>
<!-- Node2 -->
<g id="Node000002" class="node">
<title>Node2</title>
<g id="a_Node000002"><a xlink:href="classalbert_1_1detail_1_1DynamicItem.html" target="_top" xlink:title=" ">
<polygon fill="white" stroke="#666666" points="129.25,-19.25 0,-19.25 0,0 129.25,0 129.25,-19.25"/>
<text text-anchor="middle" x="64.62" y="-5.75" font-family="Helvetica,sans-Serif" font-size="10.00">albert::detail::DynamicItem</text>
</a>
</g>
</g>
<!-- Node1&#45;&gt;Node2 -->
<g id="edge1_Node000001_Node000002" class="edge">
<title>Node1&#45;&gt;Node2</title>
<g id="a_edge1_Node000001_Node000002"><a xlink:title=" ">
<path fill="none" stroke="#63b8ff" d="M114.38,-47.94C101.98,-38.64 86.8,-27.26 76.49,-19.52"/>
<polygon fill="#63b8ff" stroke="#63b8ff" points="112.27,-50.73 122.37,-53.93 116.47,-45.13 112.27,-50.73"/>
</a>
</g>
</g>
<!-- Node3 -->
<g id="Node000003" class="node">
<title>Node3</title>
<g id="a_Node000003"><a xlink:href="classalbert_1_1util_1_1StandardItem.html" target="_top" xlink:title="General purpose value type Item implememtation.">
<polygon fill="white" stroke="#666666" points="267.75,-19.25 147.5,-19.25 147.5,0 267.75,0 267.75,-19.25"/>
<text text-anchor="middle" x="207.62" y="-5.75" font-family="Helvetica,sans-Serif" font-size="10.00">albert::util::StandardItem</text>
</a>
</g>
</g>
<!-- Node1&#45;&gt;Node3 -->
<g id="edge2_Node000001_Node000003" class="edge">
<title>Node1&#45;&gt;Node3</title>
<g id="a_edge2_Node000001_Node000003"><a xlink:title=" ">
<path fill="none" stroke="#63b8ff" d="M156.8,-48.22C169.44,-38.87 185.03,-27.33 195.59,-19.52"/>
<polygon fill="#63b8ff" stroke="#63b8ff" points="155.01,-45.18 149.06,-53.94 159.18,-50.81 155.01,-45.18"/>
</a>
</g>
</g>
</g>
</svg>
