<?xml version="1.0" encoding="UTF-8" standalone="no"?>
<!DOCTYPE svg PUBLIC "-//W3C//DTD SVG 1.1//EN"
 "http://www.w3.org/Graphics/SVG/1.1/DTD/svg11.dtd">
<!-- Generated by graphviz version 9.0.0 (20230911.1827)
 -->
<!-- Title: albert::GlobalQueryHandler Pages: 1 -->
<svg width="142pt" height="138pt"
 viewBox="0.00 0.00 141.75 137.75" xmlns="http://www.w3.org/2000/svg" xmlns:xlink="http://www.w3.org/1999/xlink">
<g id="graph0" class="graph" transform="scale(1 1) rotate(0) translate(4 133.75)">
<title>albert::GlobalQueryHandler</title>
<!-- Node1 -->
<g id="Node000001" class="node">
<title>Node1</title>
<g id="a_Node000001"><a xlink:title="Abstract global query handler.">
<polygon fill="#999999" stroke="#666666" points="132.62,-19.25 1.12,-19.25 1.12,0 132.62,0 132.62,-19.25"/>
<text text-anchor="middle" x="66.88" y="-5.75" font-family="Helvetica,sans-Serif" font-size="10.00">albert::GlobalQueryHandler</text>
</a>
</g>
</g>
<!-- Node2 -->
<g id="Node000002" class="node">
<title>Node2</title>
<g id="a_Node000002"><a xlink:href="classalbert_1_1TriggerQueryHandler.html" target="_top" xlink:title="Abstract trigger query handler.">
<polygon fill="white" stroke="#666666" points="133.75,-74.5 0,-74.5 0,-55.25 133.75,-55.25 133.75,-74.5"/>
<text text-anchor="middle" x="66.88" y="-61" font-family="Helvetica,sans-Serif" font-size="10.00">albert::TriggerQueryHandler</text>
</a>
</g>
</g>
<!-- Node2&#45;&gt;Node1 -->
<g id="edge1_Node000001_Node000002" class="edge">
<title>Node2&#45;&gt;Node1</title>
<g id="a_edge1_Node000001_Node000002"><a xlink:title=" ">
<path fill="none" stroke="#63b8ff" d="M66.88,-43.63C66.88,-35.34 66.88,-26.17 66.88,-19.61"/>
<polygon fill="#63b8ff" stroke="#63b8ff" points="63.38,-43.57 66.88,-53.57 70.38,-43.57 63.38,-43.57"/>
</a>
</g>
</g>
<!-- Node3 -->
<g id="Node000003" class="node">
<title>Node3</title>
<g id="a_Node000003"><a xlink:href="classalbert_1_1Extension.html" target="_top" xlink:title="Abstract extension class.">
<polygon fill="white" stroke="#666666" points="110.12,-129.75 23.62,-129.75 23.62,-110.5 110.12,-110.5 110.12,-129.75"/>
<text text-anchor="middle" x="66.88" y="-116.25" font-family="Helvetica,sans-Serif" font-size="10.00">albert::Extension</text>
</a>
</g>
</g>
<!-- Node3&#45;&gt;Node2 -->
<g id="edge2_Node000002_Node000003" class="edge">
<title>Node3&#45;&gt;Node2</title>
<g id="a_edge2_Node000002_Node000003"><a xlink:title=" ">
<path fill="none" stroke="#63b8ff" d="M66.88,-98.88C66.88,-90.59 66.88,-81.42 66.88,-74.86"/>
<polygon fill="#63b8ff" stroke="#63b8ff" points="63.38,-98.82 66.88,-108.82 70.38,-98.82 63.38,-98.82"/>
</a>
</g>
</g>
</g>
</svg>
