<?xml version="1.0" encoding="UTF-8" standalone="no"?>
<!DOCTYPE svg PUBLIC "-//W3C//DTD SVG 1.1//EN"
 "http://www.w3.org/Graphics/SVG/1.1/DTD/svg11.dtd">
<!-- Generated by graphviz version 9.0.0 (20230911.1827)
 -->
<!-- Title: albert::util::Dependency&lt; T &gt; Pages: 1 -->
<svg width="354pt" height="83pt"
 viewBox="0.00 0.00 354.12 82.50" xmlns="http://www.w3.org/2000/svg" xmlns:xlink="http://www.w3.org/1999/xlink">
<g id="graph0" class="graph" transform="scale(1 1) rotate(0) translate(4 78.5)">
<title>albert::util::Dependency&lt; T &gt;</title>
<!-- Node1 -->
<g id="Node000001" class="node">
<title>Node1</title>
<g id="a_Node000001"><a xlink:title=" ">
<polygon fill="#999999" stroke="#666666" points="242.75,-74.5 105.25,-74.5 105.25,-55.25 242.75,-55.25 242.75,-74.5"/>
<text text-anchor="middle" x="174" y="-61" font-family="Helvetica,sans-Serif" font-size="10.00">albert::util::Dependency&lt; T &gt;</text>
</a>
</g>
</g>
<!-- Node2 -->
<g id="Node000002" class="node">
<title>Node2</title>
<g id="a_Node000002"><a xlink:href="classalbert_1_1util_1_1StrongDependency.html" target="_top" xlink:title="Convenience holder class for plugin hard dependencies.">
<polygon fill="white" stroke="#666666" points="166,-19.25 0,-19.25 0,0 166,0 166,-19.25"/>
<text text-anchor="middle" x="83" y="-5.75" font-family="Helvetica,sans-Serif" font-size="10.00">albert::util::StrongDependency&lt; T &gt;</text>
</a>
</g>
</g>
<!-- Node1&#45;&gt;Node2 -->
<g id="edge1_Node000001_Node000002" class="edge">
<title>Node1&#45;&gt;Node2</title>
<g id="a_edge1_Node000001_Node000002"><a xlink:title=" ">
<path fill="none" stroke="#63b8ff" d="M148.71,-49.07C132.6,-39.65 112.26,-27.75 98.51,-19.7"/>
<polygon fill="#63b8ff" stroke="#63b8ff" points="146.86,-52.05 157.26,-54.08 150.39,-46.01 146.86,-52.05"/>
</a>
</g>
</g>
<!-- Node3 -->
<g id="Node000003" class="node">
<title>Node3</title>
<g id="a_Node000003"><a xlink:href="classalbert_1_1util_1_1WeakDependency.html" target="_top" xlink:title="Convenience holder class for plugin soft dependencies.">
<polygon fill="white" stroke="#666666" points="346.12,-19.25 183.88,-19.25 183.88,0 346.12,0 346.12,-19.25"/>
<text text-anchor="middle" x="265" y="-5.75" font-family="Helvetica,sans-Serif" font-size="10.00">albert::util::WeakDependency&lt; T &gt;</text>
</a>
</g>
</g>
<!-- Node1&#45;&gt;Node3 -->
<g id="edge2_Node000001_Node000003" class="edge">
<title>Node1&#45;&gt;Node3</title>
<g id="a_edge2_Node000001_Node000003"><a xlink:title=" ">
<path fill="none" stroke="#63b8ff" d="M199.29,-49.07C215.4,-39.65 235.74,-27.75 249.49,-19.7"/>
<polygon fill="#63b8ff" stroke="#63b8ff" points="197.61,-46.01 190.74,-54.08 201.14,-52.05 197.61,-46.01"/>
</a>
</g>
</g>
</g>
</svg>
