<?xml version="1.0" encoding="UTF-8" standalone="no"?>
<!DOCTYPE svg PUBLIC "-//W3C//DTD SVG 1.1//EN"
 "http://www.w3.org/Graphics/SVG/1.1/DTD/svg11.dtd">
<!-- Generated by graphviz version 9.0.0 (20230911.1827)
 -->
<!-- Title: albert::Item Pages: 1 -->
<svg width="258pt" height="83pt"
 viewBox="0.00 0.00 258.12 82.50" xmlns="http://www.w3.org/2000/svg" xmlns:xlink="http://www.w3.org/1999/xlink">
<g id="graph0" class="graph" transform="scale(1 1) rotate(0) translate(4 78.5)">
<title>albert::Item</title>
<!-- Node1 -->
<g id="Node000001" class="node">
<title>Node1</title>
<g id="a_Node000001"><a xlink:title="Result items displayed in the query results list.">
<polygon fill="#999999" stroke="#666666" points="150.5,-74.5 86.5,-74.5 86.5,-55.25 150.5,-55.25 150.5,-74.5"/>
<text text-anchor="middle" x="118.5" y="-61" font-family="Helvetica,sans-Serif" font-size="10.00">albert::Item</text>
</a>
</g>
</g>
<!-- Node2 -->
<g id="Node000002" class="node">
<title>Node2</title>
<g id="a_Node000002"><a xlink:href="classalbert_1_1StandardItem.html" target="_top" xlink:title="General purpose Item implementation.">
<polygon fill="white" stroke="#666666" points="103,-19.25 0,-19.25 0,0 103,0 103,-19.25"/>
<text text-anchor="middle" x="51.5" y="-5.75" font-family="Helvetica,sans-Serif" font-size="10.00">albert::StandardItem</text>
</a>
</g>
</g>
<!-- Node1&#45;&gt;Node2 -->
<g id="edge1_Node000001_Node000002" class="edge">
<title>Node1&#45;&gt;Node2</title>
<g id="a_edge1_Node000001_Node000002"><a xlink:title=" ">
<path fill="none" stroke="#63b8ff" d="M98.45,-47.94C86.75,-38.64 72.43,-27.26 62.7,-19.52"/>
<polygon fill="#63b8ff" stroke="#63b8ff" points="95.94,-50.42 105.95,-53.9 100.3,-44.94 95.94,-50.42"/>
</a>
</g>
</g>
<!-- Node3 -->
<g id="Node000003" class="node">
<title>Node3</title>
<g id="a_Node000003"><a xlink:href="classalbert_1_1detail_1_1DynamicItem.html" target="_top" xlink:title=" ">
<polygon fill="white" stroke="#666666" points="250.12,-19.25 120.88,-19.25 120.88,0 250.12,0 250.12,-19.25"/>
<text text-anchor="middle" x="185.5" y="-5.75" font-family="Helvetica,sans-Serif" font-size="10.00">albert::detail::DynamicItem</text>
</a>
</g>
</g>
<!-- Node1&#45;&gt;Node3 -->
<g id="edge2_Node000001_Node000003" class="edge">
<title>Node1&#45;&gt;Node3</title>
<g id="a_edge2_Node000001_Node000003"><a xlink:title=" ">
<path fill="none" stroke="#63b8ff" d="M138.55,-47.94C150.25,-38.64 164.57,-27.26 174.3,-19.52"/>
<polygon fill="#63b8ff" stroke="#63b8ff" points="136.7,-44.94 131.05,-53.9 141.06,-50.42 136.7,-44.94"/>
</a>
</g>
</g>
</g>
</svg>
