<?xml version="1.0" encoding="UTF-8" standalone="no"?>
<!DOCTYPE svg PUBLIC "-//W3C//DTD SVG 1.1//EN"
 "http://www.w3.org/Graphics/SVG/1.1/DTD/svg11.dtd">
<!-- Generated by graphviz version 9.0.0 (20230911.1827)
 -->
<!-- Title: albert::Extension Pages: 1 -->
<svg width="578pt" height="212pt"
 viewBox="0.00 0.00 578.25 212.25" xmlns="http://www.w3.org/2000/svg" xmlns:xlink="http://www.w3.org/1999/xlink">
<g id="graph0" class="graph" transform="scale(1 1) rotate(0) translate(4 208.25)">
<title>albert::Extension</title>
<!-- Node1 -->
<g id="Node000001" class="node">
<title>Node1</title>
<g id="a_Node000001"><a xlink:title="Abstract extension class.">
<polygon fill="#999999" stroke="#666666" points="86.5,-111.25 0,-111.25 0,-92 86.5,-92 86.5,-111.25"/>
<text text-anchor="middle" x="43.25" y="-97.75" font-family="Helvetica,sans-Serif" font-size="10.00">albert::Extension</text>
</a>
</g>
</g>
<!-- Node2 -->
<g id="Node000002" class="node">
<title>Node2</title>
<g id="a_Node000002"><a xlink:href="classalbert_1_1ExtensionPlugin.html" target="_top" xlink:title="Convenience base class for extension plugins.">
<polygon fill="white" stroke="#666666" points="246.12,-204.25 132.62,-204.25 132.62,-185 246.12,-185 246.12,-204.25"/>
<text text-anchor="middle" x="189.38" y="-190.75" font-family="Helvetica,sans-Serif" font-size="10.00">albert::ExtensionPlugin</text>
</a>
</g>
</g>
<!-- Node1&#45;&gt;Node2 -->
<g id="edge1_Node000001_Node000002" class="edge">
<title>Node1&#45;&gt;Node2</title>
<g id="a_edge1_Node000001_Node000002"><a xlink:title=" ">
<path fill="none" stroke="#63b8ff" d="M58.79,-120.09C73.21,-137.17 96.81,-162.07 122.5,-176.62 128.07,-179.78 134.22,-182.41 140.46,-184.58"/>
<polygon fill="#63b8ff" stroke="#63b8ff" points="61.77,-118.2 52.73,-112.68 56.36,-122.64 61.77,-118.2"/>
</a>
</g>
</g>
<!-- Node3 -->
<g id="Node000003" class="node">
<title>Node3</title>
<g id="a_Node000003"><a xlink:href="classalbert_1_1FallbackHandler.html" target="_top" xlink:title="Abstract fallback provider.">
<polygon fill="white" stroke="#666666" points="246.88,-167.25 131.88,-167.25 131.88,-148 246.88,-148 246.88,-167.25"/>
<text text-anchor="middle" x="189.38" y="-153.75" font-family="Helvetica,sans-Serif" font-size="10.00">albert::FallbackHandler</text>
</a>
</g>
</g>
<!-- Node1&#45;&gt;Node3 -->
<g id="edge2_Node000001_Node000003" class="edge">
<title>Node1&#45;&gt;Node3</title>
<g id="a_edge2_Node000001_Node000003"><a xlink:title=" ">
<path fill="none" stroke="#63b8ff" d="M72.42,-116.88C87.07,-124.4 105.44,-133.21 122.5,-139.62 130.27,-142.54 138.71,-145.21 146.89,-147.55"/>
<polygon fill="#63b8ff" stroke="#63b8ff" points="74.3,-113.91 63.82,-112.38 71.06,-120.11 74.3,-113.91"/>
</a>
</g>
</g>
<!-- Node4 -->
<g id="Node000004" class="node">
<title>Node4</title>
<g id="a_Node000004"><a xlink:href="classalbert_1_1PluginProvider.html" target="_top" xlink:title="Plugin provider interface class.">
<polygon fill="white" stroke="#666666" points="243.12,-130.25 135.62,-130.25 135.62,-111 243.12,-111 243.12,-130.25"/>
<text text-anchor="middle" x="189.38" y="-116.75" font-family="Helvetica,sans-Serif" font-size="10.00">albert::PluginProvider</text>
</a>
</g>
</g>
<!-- Node1&#45;&gt;Node4 -->
<g id="edge3_Node000001_Node000004" class="edge">
<title>Node1&#45;&gt;Node4</title>
<g id="a_edge3_Node000001_Node000004"><a xlink:title=" ">
<path fill="none" stroke="#63b8ff" d="M98.08,-108.72C110.22,-110.32 123.1,-112.02 135.21,-113.62"/>
<polygon fill="#63b8ff" stroke="#63b8ff" points="98.58,-105.26 88.21,-107.42 97.67,-112.2 98.58,-105.26"/>
</a>
</g>
</g>
<!-- Node5 -->
<g id="Node000005" class="node">
<title>Node5</title>
<g id="a_Node000005"><a xlink:href="classalbert_1_1TelemetryProvider.html" target="_top" xlink:title=" ">
<polygon fill="white" stroke="#666666" points="251,-93.25 127.75,-93.25 127.75,-74 251,-74 251,-93.25"/>
<text text-anchor="middle" x="189.38" y="-79.75" font-family="Helvetica,sans-Serif" font-size="10.00">albert::TelemetryProvider</text>
</a>
</g>
</g>
<!-- Node1&#45;&gt;Node5 -->
<g id="edge4_Node000001_Node000005" class="edge">
<title>Node1&#45;&gt;Node5</title>
<g id="a_edge4_Node000001_Node000005"><a xlink:title=" ">
<path fill="none" stroke="#63b8ff" d="M98.05,-94.91C107.58,-93.72 117.55,-92.47 127.26,-91.26"/>
<polygon fill="#63b8ff" stroke="#63b8ff" points="97.7,-91.42 88.21,-96.13 98.57,-98.37 97.7,-91.42"/>
</a>
</g>
</g>
<!-- Node6 -->
<g id="Node000006" class="node">
<title>Node6</title>
<g id="a_Node000006"><a xlink:href="classalbert_1_1TriggerQueryHandler.html" target="_top" xlink:title="Abstract trigger query handler.">
<polygon fill="white" stroke="#666666" points="256.25,-56.25 122.5,-56.25 122.5,-37 256.25,-37 256.25,-56.25"/>
<text text-anchor="middle" x="189.38" y="-42.75" font-family="Helvetica,sans-Serif" font-size="10.00">albert::TriggerQueryHandler</text>
</a>
</g>
</g>
<!-- Node1&#45;&gt;Node6 -->
<g id="edge5_Node000001_Node000006" class="edge">
<title>Node1&#45;&gt;Node6</title>
<g id="a_edge5_Node000001_Node000006"><a xlink:title=" ">
<path fill="none" stroke="#63b8ff" d="M73.05,-86.52C87.61,-79.27 105.71,-70.83 122.5,-64.62 130.4,-61.71 138.98,-59.02 147.26,-56.67"/>
<polygon fill="#63b8ff" stroke="#63b8ff" points="71.83,-83.22 64.49,-90.86 74.99,-89.46 71.83,-83.22"/>
</a>
</g>
</g>
<!-- Node9 -->
<g id="Node000009" class="node">
<title>Node9</title>
<g id="a_Node000009"><a xlink:href="classalbert_1_1UrlHandler.html" target="_top" xlink:title="Albert scheme URL handler interface.">
<polygon fill="white" stroke="#666666" points="234.88,-19.25 143.88,-19.25 143.88,0 234.88,0 234.88,-19.25"/>
<text text-anchor="middle" x="189.38" y="-5.75" font-family="Helvetica,sans-Serif" font-size="10.00">albert::UrlHandler</text>
</a>
</g>
</g>
<!-- Node1&#45;&gt;Node9 -->
<g id="edge8_Node000001_Node000009" class="edge">
<title>Node1&#45;&gt;Node9</title>
<g id="a_edge8_Node000001_Node000009"><a xlink:title=" ">
<path fill="none" stroke="#63b8ff" d="M59.08,-83.15C73.55,-66.3 97.06,-41.93 122.5,-27.62 129.01,-23.96 136.31,-21.02 143.61,-18.65"/>
<polygon fill="#63b8ff" stroke="#63b8ff" points="56.7,-80.53 52.98,-90.46 62.07,-85.02 56.7,-80.53"/>
</a>
</g>
</g>
<!-- Node7 -->
<g id="Node000007" class="node">
<title>Node7</title>
<g id="a_Node000007"><a xlink:href="classalbert_1_1GlobalQueryHandler.html" target="_top" xlink:title="Abstract global query handler.">
<polygon fill="white" stroke="#666666" points="423.75,-56.25 292.25,-56.25 292.25,-37 423.75,-37 423.75,-56.25"/>
<text text-anchor="middle" x="358" y="-42.75" font-family="Helvetica,sans-Serif" font-size="10.00">albert::GlobalQueryHandler</text>
</a>
</g>
</g>
<!-- Node6&#45;&gt;Node7 -->
<g id="edge6_Node000006_Node000007" class="edge">
<title>Node6&#45;&gt;Node7</title>
<g id="a_edge6_Node000006_Node000007"><a xlink:title=" ">
<path fill="none" stroke="#63b8ff" d="M267.98,-46.62C276.01,-46.62 284.11,-46.62 291.98,-46.62"/>
<polygon fill="#63b8ff" stroke="#63b8ff" points="268.22,-43.13 258.22,-46.63 268.22,-50.13 268.22,-43.13"/>
</a>
</g>
</g>
<!-- Node8 -->
<g id="Node000008" class="node">
<title>Node8</title>
<g id="a_Node000008"><a xlink:href="classalbert_1_1util_1_1IndexQueryHandler.html" target="_top" xlink:title="Index query handler class.">
<polygon fill="white" stroke="#666666" points="570.25,-61.88 459.75,-61.88 459.75,-31.38 570.25,-31.38 570.25,-61.88"/>
<text text-anchor="start" x="467.75" y="-48.38" font-family="Helvetica,sans-Serif" font-size="10.00">albert::util::IndexQuery</text>
<text text-anchor="middle" x="515" y="-37.12" font-family="Helvetica,sans-Serif" font-size="10.00">Handler</text>
</a>
</g>
</g>
<!-- Node7&#45;&gt;Node8 -->
<g id="edge7_Node000007_Node000008" class="edge">
<title>Node7&#45;&gt;Node8</title>
<g id="a_edge7_Node000007_Node000008"><a xlink:title=" ">
<path fill="none" stroke="#63b8ff" d="M435.24,-46.62C443.34,-46.62 451.47,-46.62 459.25,-46.62"/>
<polygon fill="#63b8ff" stroke="#63b8ff" points="435.35,-43.13 425.35,-46.63 435.35,-50.13 435.35,-43.13"/>
</a>
</g>
</g>
</g>
</svg>
