<?xml version="1.0" encoding="UTF-8" standalone="no"?>
<!DOCTYPE svg PUBLIC "-//W3C//DTD SVG 1.1//EN"
 "http://www.w3.org/Graphics/SVG/1.1/DTD/svg11.dtd">
<!-- Generated by graphviz version 9.0.0 (20230911.1827)
 -->
<!-- Title: albert::Extension Pages: 1 -->
<svg width="931pt" height="224pt"
 viewBox="0.00 0.00 931.25 223.88" xmlns="http://www.w3.org/2000/svg" xmlns:xlink="http://www.w3.org/1999/xlink">
<g id="graph0" class="graph" transform="scale(1 1) rotate(0) translate(4 219.88)">
<title>albert::Extension</title>
<!-- Node1 -->
<g id="Node000001" class="node">
<title>Node1</title>
<g id="a_Node000001"><a xlink:title="Abstract extension class.">
<polygon fill="#999999" stroke="#666666" points="86.5,-122.88 0,-122.88 0,-103.62 86.5,-103.62 86.5,-122.88"/>
<text text-anchor="middle" x="43.25" y="-109.38" font-family="Helvetica,sans-Serif" font-size="10.00">albert::Extension</text>
</a>
</g>
</g>
<!-- Node2 -->
<g id="Node000002" class="node">
<title>Node2</title>
<g id="a_Node000002"><a xlink:href="classalbert_1_1ExtensionPlugin.html" target="_top" xlink:title="Extension plugin base class.">
<polygon fill="white" stroke="#666666" points="236.75,-215.88 123.25,-215.88 123.25,-196.62 236.75,-196.62 236.75,-215.88"/>
<text text-anchor="middle" x="180" y="-202.38" font-family="Helvetica,sans-Serif" font-size="10.00">albert::ExtensionPlugin</text>
</a>
</g>
</g>
<!-- Node1&#45;&gt;Node2 -->
<g id="edge1_Node000001_Node000002" class="edge">
<title>Node1&#45;&gt;Node2</title>
<g id="a_edge1_Node000001_Node000002"><a xlink:title=" ">
<path fill="none" stroke="#63b8ff" d="M59.16,-131.74C73.7,-148.65 97.25,-173.24 122.5,-188.25 127.72,-191.35 133.54,-193.98 139.4,-196.19"/>
<polygon fill="#63b8ff" stroke="#63b8ff" points="62.13,-129.84 53.03,-124.41 56.76,-134.33 62.13,-129.84"/>
</a>
</g>
</g>
<!-- Node3 -->
<g id="Node000003" class="node">
<title>Node3</title>
<g id="a_Node000003"><a xlink:href="classalbert_1_1FallbackHandler.html" target="_top" xlink:title="Abstract fallback item provider.">
<polygon fill="white" stroke="#666666" points="237.5,-178.88 122.5,-178.88 122.5,-159.62 237.5,-159.62 237.5,-178.88"/>
<text text-anchor="middle" x="180" y="-165.38" font-family="Helvetica,sans-Serif" font-size="10.00">albert::FallbackHandler</text>
</a>
</g>
</g>
<!-- Node1&#45;&gt;Node3 -->
<g id="edge2_Node000001_Node000003" class="edge">
<title>Node1&#45;&gt;Node3</title>
<g id="a_edge2_Node000001_Node000003"><a xlink:title=" ">
<path fill="none" stroke="#63b8ff" d="M72.83,-128.35C87.46,-135.77 105.69,-144.53 122.5,-151.25 129.57,-154.08 137.28,-156.77 144.66,-159.18"/>
<polygon fill="#63b8ff" stroke="#63b8ff" points="74.72,-125.39 64.23,-123.93 71.52,-131.62 74.72,-125.39"/>
</a>
</g>
</g>
<!-- Node4 -->
<g id="Node000004" class="node">
<title>Node4</title>
<g id="a_Node000004"><a xlink:href="classalbert_1_1PluginProvider.html" target="_top" xlink:title="Plugin provider interface class.">
<polygon fill="white" stroke="#666666" points="233.75,-141.88 126.25,-141.88 126.25,-122.62 233.75,-122.62 233.75,-141.88"/>
<text text-anchor="middle" x="180" y="-128.38" font-family="Helvetica,sans-Serif" font-size="10.00">albert::PluginProvider</text>
</a>
</g>
</g>
<!-- Node1&#45;&gt;Node4 -->
<g id="edge3_Node000001_Node000004" class="edge">
<title>Node1&#45;&gt;Node4</title>
<g id="a_edge3_Node000001_Node000004"><a xlink:title=" ">
<path fill="none" stroke="#63b8ff" d="M98,-120.83C107.3,-122.14 116.95,-123.5 126.23,-124.81"/>
<polygon fill="#63b8ff" stroke="#63b8ff" points="98.78,-117.4 88.38,-119.47 97.8,-124.34 98.78,-117.4"/>
</a>
</g>
</g>
<!-- Node5 -->
<g id="Node000005" class="node">
<title>Node5</title>
<g id="a_Node000005"><a xlink:href="classalbert_1_1QueryHandler.html" target="_top" xlink:title="Base query handler interface for triggered queries.">
<polygon fill="white" stroke="#666666" points="231.88,-104.88 128.12,-104.88 128.12,-85.62 231.88,-85.62 231.88,-104.88"/>
<text text-anchor="middle" x="180" y="-91.38" font-family="Helvetica,sans-Serif" font-size="10.00">albert::QueryHandler</text>
</a>
</g>
</g>
<!-- Node1&#45;&gt;Node5 -->
<g id="edge4_Node000001_Node000005" class="edge">
<title>Node1&#45;&gt;Node5</title>
<g id="a_edge4_Node000001_Node000005"><a xlink:title=" ">
<path fill="none" stroke="#63b8ff" d="M98.1,-106.06C107.85,-104.75 118,-103.4 127.67,-102.11"/>
<polygon fill="#63b8ff" stroke="#63b8ff" points="97.83,-102.56 88.39,-107.35 98.76,-109.5 97.83,-102.56"/>
</a>
</g>
</g>
<!-- Node11 -->
<g id="Node000011" class="node">
<title>Node11</title>
<g id="a_Node000011"><a xlink:href="classalbert_1_1UrlHandler.html" target="_top" xlink:title="Albert scheme URL handler interface.">
<polygon fill="white" stroke="#666666" points="225.5,-67.88 134.5,-67.88 134.5,-48.62 225.5,-48.62 225.5,-67.88"/>
<text text-anchor="middle" x="180" y="-54.38" font-family="Helvetica,sans-Serif" font-size="10.00">albert::UrlHandler</text>
</a>
</g>
</g>
<!-- Node1&#45;&gt;Node11 -->
<g id="edge10_Node000001_Node000011" class="edge">
<title>Node1&#45;&gt;Node11</title>
<g id="a_edge10_Node000001_Node000011"><a xlink:title=" ">
<path fill="none" stroke="#63b8ff" d="M73.46,-98.3C88,-91.16 105.96,-82.76 122.5,-76.25 129.68,-73.42 137.51,-70.71 144.98,-68.28"/>
<polygon fill="#63b8ff" stroke="#63b8ff" points="72.29,-94.97 64.9,-102.56 75.41,-101.24 72.29,-94.97"/>
</a>
</g>
</g>
<!-- Node12 -->
<g id="Node000012" class="node">
<title>Node12</title>
<g id="a_Node000012"><a xlink:href="classalbert_1_1detail_1_1TelemetryProvider.html" target="_top" xlink:title=" ">
<polygon fill="white" stroke="#666666" points="237.5,-30.5 122.5,-30.5 122.5,0 237.5,0 237.5,-30.5"/>
<text text-anchor="start" x="130.5" y="-17" font-family="Helvetica,sans-Serif" font-size="10.00">albert::detail::Telemetry</text>
<text text-anchor="middle" x="180" y="-5.75" font-family="Helvetica,sans-Serif" font-size="10.00">Provider</text>
</a>
</g>
</g>
<!-- Node1&#45;&gt;Node12 -->
<g id="edge11_Node000001_Node000012" class="edge">
<title>Node1&#45;&gt;Node12</title>
<g id="a_edge11_Node000001_Node000012"><a xlink:title=" ">
<path fill="none" stroke="#63b8ff" d="M60.03,-95.01C74.86,-78.72 98.34,-55.06 122.5,-39.25 127.14,-36.21 132.22,-33.42 137.38,-30.9"/>
<polygon fill="#63b8ff" stroke="#63b8ff" points="57.77,-92.28 53.73,-102.07 63,-96.93 57.77,-92.28"/>
</a>
</g>
</g>
<!-- Node6 -->
<g id="Node000006" class="node">
<title>Node6</title>
<g id="a_Node000006"><a xlink:href="classalbert_1_1AsyncGeneratorQueryHandler.html" target="_top" xlink:title="Coroutine&#45;based asynchronous generator query handler.">
<polygon fill="white" stroke="#666666" points="416.62,-131.5 276.88,-131.5 276.88,-101 416.62,-101 416.62,-131.5"/>
<text text-anchor="start" x="284.88" y="-118" font-family="Helvetica,sans-Serif" font-size="10.00">albert::AsyncGeneratorQuery</text>
<text text-anchor="middle" x="346.75" y="-106.75" font-family="Helvetica,sans-Serif" font-size="10.00">Handler</text>
</a>
</g>
</g>
<!-- Node5&#45;&gt;Node6 -->
<g id="edge5_Node000005_Node000006" class="edge">
<title>Node5&#45;&gt;Node6</title>
<g id="a_edge5_Node000005_Node000006"><a xlink:title=" ">
<path fill="none" stroke="#63b8ff" d="M243.63,-103.23C254.34,-104.6 265.52,-106.02 276.4,-107.41"/>
<polygon fill="#63b8ff" stroke="#63b8ff" points="244.09,-99.76 233.73,-101.97 243.2,-106.71 244.09,-99.76"/>
</a>
</g>
</g>
<!-- Node7 -->
<g id="Node000007" class="node">
<title>Node7</title>
<g id="a_Node000007"><a xlink:href="classalbert_1_1GeneratorQueryHandler.html" target="_top" xlink:title="Coroutine&#45;based synchronous generator query handler.">
<polygon fill="white" stroke="#666666" points="420,-82.88 273.5,-82.88 273.5,-63.62 420,-63.62 420,-82.88"/>
<text text-anchor="middle" x="346.75" y="-69.38" font-family="Helvetica,sans-Serif" font-size="10.00">albert::GeneratorQueryHandler</text>
</a>
</g>
</g>
<!-- Node5&#45;&gt;Node7 -->
<g id="edge6_Node000005_Node000007" class="edge">
<title>Node5&#45;&gt;Node7</title>
<g id="a_edge6_Node000005_Node000007"><a xlink:title=" ">
<path fill="none" stroke="#63b8ff" d="M243.39,-86.92C253.09,-85.62 263.18,-84.28 273.09,-82.95"/>
<polygon fill="#63b8ff" stroke="#63b8ff" points="243.17,-83.42 233.73,-88.21 244.1,-90.35 243.17,-83.42"/>
</a>
</g>
</g>
<!-- Node8 -->
<g id="Node000008" class="node">
<title>Node8</title>
<g id="a_Node000008"><a xlink:href="classalbert_1_1RankedQueryHandler.html" target="_top" xlink:title="Usage&#45;ranked query handler.">
<polygon fill="white" stroke="#666666" points="592.75,-82.88 456,-82.88 456,-63.62 592.75,-63.62 592.75,-82.88"/>
<text text-anchor="middle" x="524.38" y="-69.38" font-family="Helvetica,sans-Serif" font-size="10.00">albert::RankedQueryHandler</text>
</a>
</g>
</g>
<!-- Node7&#45;&gt;Node8 -->
<g id="edge7_Node000007_Node000008" class="edge">
<title>Node7&#45;&gt;Node8</title>
<g id="a_edge7_Node000007_Node000008"><a xlink:title=" ">
<path fill="none" stroke="#63b8ff" d="M431.96,-73.25C439.86,-73.25 447.8,-73.25 455.52,-73.25"/>
<polygon fill="#63b8ff" stroke="#63b8ff" points="431.96,-69.75 421.96,-73.25 431.96,-76.75 431.96,-69.75"/>
</a>
</g>
</g>
<!-- Node9 -->
<g id="Node000009" class="node">
<title>Node9</title>
<g id="a_Node000009"><a xlink:href="classalbert_1_1GlobalQueryHandler.html" target="_top" xlink:title="Query handler participating in the global search.">
<polygon fill="white" stroke="#666666" points="760.25,-82.88 628.75,-82.88 628.75,-63.62 760.25,-63.62 760.25,-82.88"/>
<text text-anchor="middle" x="694.5" y="-69.38" font-family="Helvetica,sans-Serif" font-size="10.00">albert::GlobalQueryHandler</text>
</a>
</g>
</g>
<!-- Node8&#45;&gt;Node9 -->
<g id="edge8_Node000008_Node000009" class="edge">
<title>Node8&#45;&gt;Node9</title>
<g id="a_edge8_Node000008_Node000009"><a xlink:title=" ">
<path fill="none" stroke="#63b8ff" d="M604.13,-73.25C612.21,-73.25 620.35,-73.25 628.26,-73.25"/>
<polygon fill="#63b8ff" stroke="#63b8ff" points="604.3,-69.75 594.3,-73.25 604.3,-76.75 604.3,-69.75"/>
</a>
</g>
</g>
<!-- Node10 -->
<g id="Node000010" class="node">
<title>Node10</title>
<g id="a_Node000010"><a xlink:href="classalbert_1_1IndexQueryHandler.html" target="_top" xlink:title="Index&#45;based global query handler.">
<polygon fill="white" stroke="#666666" points="923.25,-82.88 796.25,-82.88 796.25,-63.62 923.25,-63.62 923.25,-82.88"/>
<text text-anchor="middle" x="859.75" y="-69.38" font-family="Helvetica,sans-Serif" font-size="10.00">albert::IndexQueryHandler</text>
</a>
</g>
</g>
<!-- Node9&#45;&gt;Node10 -->
<g id="edge9_Node000009_Node000010" class="edge">
<title>Node9&#45;&gt;Node10</title>
<g id="a_edge9_Node000009_Node000010"><a xlink:title=" ">
<path fill="none" stroke="#63b8ff" d="M771.8,-73.25C779.85,-73.25 787.97,-73.25 795.85,-73.25"/>
<polygon fill="#63b8ff" stroke="#63b8ff" points="772,-69.75 762,-73.25 772,-76.75 772,-69.75"/>
</a>
</g>
</g>
</g>
</svg>
