<?xml version="1.0" encoding="UTF-8" standalone="no"?>
<!DOCTYPE svg PUBLIC "-//W3C//DTD SVG 1.1//EN"
 "http://www.w3.org/Graphics/SVG/1.1/DTD/svg11.dtd">
<!-- Generated by graphviz version 9.0.0 (20230911.1827)
 -->
<!-- Title: albert::Extension Pages: 1 -->
<svg width="578pt" height="175pt"
 viewBox="0.00 0.00 578.25 175.25" xmlns="http://www.w3.org/2000/svg" xmlns:xlink="http://www.w3.org/1999/xlink">
<g id="graph0" class="graph" transform="scale(1 1) rotate(0) translate(4 171.25)">
<title>albert::Extension</title>
<!-- Node1 -->
<g id="Node000001" class="node">
<title>Node1</title>
<g id="a_Node000001"><a xlink:title="Abstract extension class.">
<polygon fill="#999999" stroke="#666666" points="86.5,-93.25 0,-93.25 0,-74 86.5,-74 86.5,-93.25"/>
<text text-anchor="middle" x="43.25" y="-79.75" font-family="Helvetica,sans-Serif" font-size="10.00">albert::Extension</text>
</a>
</g>
</g>
<!-- Node2 -->
<g id="Node000002" class="node">
<title>Node2</title>
<g id="a_Node000002"><a xlink:href="classalbert_1_1FallbackHandler.html" target="_top" xlink:title="Abstract fallback provider.">
<polygon fill="white" stroke="#666666" points="246.88,-167.25 131.88,-167.25 131.88,-148 246.88,-148 246.88,-167.25"/>
<text text-anchor="middle" x="189.38" y="-153.75" font-family="Helvetica,sans-Serif" font-size="10.00">albert::FallbackHandler</text>
</a>
</g>
</g>
<!-- Node1&#45;&gt;Node2 -->
<g id="edge1_Node000001_Node000002" class="edge">
<title>Node1&#45;&gt;Node2</title>
<g id="a_edge1_Node000001_Node000002"><a xlink:title=" ">
<path fill="none" stroke="#63b8ff" d="M63.83,-100.66C78.96,-113.03 100.89,-129.35 122.5,-139.62 128.92,-142.68 135.96,-145.29 142.96,-147.5"/>
<polygon fill="#63b8ff" stroke="#63b8ff" points="66.43,-98.27 56.52,-94.53 61.93,-103.63 66.43,-98.27"/>
</a>
</g>
</g>
<!-- Node3 -->
<g id="Node000003" class="node">
<title>Node3</title>
<g id="a_Node000003"><a xlink:href="classalbert_1_1PluginProvider.html" target="_top" xlink:title="Plugin provider interface class.">
<polygon fill="white" stroke="#666666" points="243.12,-130.25 135.62,-130.25 135.62,-111 243.12,-111 243.12,-130.25"/>
<text text-anchor="middle" x="189.38" y="-116.75" font-family="Helvetica,sans-Serif" font-size="10.00">albert::PluginProvider</text>
</a>
</g>
</g>
<!-- Node1&#45;&gt;Node3 -->
<g id="edge2_Node000001_Node000003" class="edge">
<title>Node1&#45;&gt;Node3</title>
<g id="a_edge2_Node000001_Node000003"><a xlink:title=" ">
<path fill="none" stroke="#63b8ff" d="M94.72,-96.58C112.53,-101.15 132.28,-106.23 149.04,-110.53"/>
<polygon fill="#63b8ff" stroke="#63b8ff" points="95.66,-93.21 85.1,-94.11 93.91,-99.99 95.66,-93.21"/>
</a>
</g>
</g>
<!-- Node4 -->
<g id="Node000004" class="node">
<title>Node4</title>
<g id="a_Node000004"><a xlink:href="classalbert_1_1TriggerQueryHandler.html" target="_top" xlink:title="Abstract trigger query handler.">
<polygon fill="white" stroke="#666666" points="256.25,-93.25 122.5,-93.25 122.5,-74 256.25,-74 256.25,-93.25"/>
<text text-anchor="middle" x="189.38" y="-79.75" font-family="Helvetica,sans-Serif" font-size="10.00">albert::TriggerQueryHandler</text>
</a>
</g>
</g>
<!-- Node1&#45;&gt;Node4 -->
<g id="edge3_Node000001_Node000004" class="edge">
<title>Node1&#45;&gt;Node4</title>
<g id="a_edge3_Node000001_Node000004"><a xlink:title=" ">
<path fill="none" stroke="#63b8ff" d="M97.99,-83.62C105.87,-83.62 114.06,-83.62 122.15,-83.62"/>
<polygon fill="#63b8ff" stroke="#63b8ff" points="98.23,-80.13 88.23,-83.63 98.23,-87.13 98.23,-80.13"/>
</a>
</g>
</g>
<!-- Node7 -->
<g id="Node000007" class="node">
<title>Node7</title>
<g id="a_Node000007"><a xlink:href="classalbert_1_1UrlHandler.html" target="_top" xlink:title="Albert scheme URL handler interface.">
<polygon fill="white" stroke="#666666" points="234.88,-56.25 143.88,-56.25 143.88,-37 234.88,-37 234.88,-56.25"/>
<text text-anchor="middle" x="189.38" y="-42.75" font-family="Helvetica,sans-Serif" font-size="10.00">albert::UrlHandler</text>
</a>
</g>
</g>
<!-- Node1&#45;&gt;Node7 -->
<g id="edge6_Node000001_Node000007" class="edge">
<title>Node1&#45;&gt;Node7</title>
<g id="a_edge6_Node000001_Node000007"><a xlink:title=" ">
<path fill="none" stroke="#63b8ff" d="M94.72,-70.67C112.53,-66.1 132.28,-61.02 149.04,-56.72"/>
<polygon fill="#63b8ff" stroke="#63b8ff" points="93.91,-67.26 85.1,-73.14 95.66,-74.04 93.91,-67.26"/>
</a>
</g>
</g>
<!-- Node8 -->
<g id="Node000008" class="node">
<title>Node8</title>
<g id="a_Node000008"><a xlink:href="classalbert_1_1util_1_1ExtensionPlugin.html" target="_top" xlink:title="Convenience base class for extension plugins.">
<polygon fill="white" stroke="#666666" points="254.75,-19.25 124,-19.25 124,0 254.75,0 254.75,-19.25"/>
<text text-anchor="middle" x="189.38" y="-5.75" font-family="Helvetica,sans-Serif" font-size="10.00">albert::util::ExtensionPlugin</text>
</a>
</g>
</g>
<!-- Node1&#45;&gt;Node8 -->
<g id="edge7_Node000001_Node000008" class="edge">
<title>Node1&#45;&gt;Node8</title>
<g id="a_edge7_Node000001_Node000008"><a xlink:title=" ">
<path fill="none" stroke="#63b8ff" d="M63.83,-66.59C78.96,-54.22 100.89,-37.9 122.5,-27.62 128.92,-24.57 135.96,-21.96 142.96,-19.75"/>
<polygon fill="#63b8ff" stroke="#63b8ff" points="61.93,-63.62 56.52,-72.72 66.43,-68.98 61.93,-63.62"/>
</a>
</g>
</g>
<!-- Node5 -->
<g id="Node000005" class="node">
<title>Node5</title>
<g id="a_Node000005"><a xlink:href="classalbert_1_1GlobalQueryHandler.html" target="_top" xlink:title="Abstract global query handler.">
<polygon fill="white" stroke="#666666" points="423.75,-93.25 292.25,-93.25 292.25,-74 423.75,-74 423.75,-93.25"/>
<text text-anchor="middle" x="358" y="-79.75" font-family="Helvetica,sans-Serif" font-size="10.00">albert::GlobalQueryHandler</text>
</a>
</g>
</g>
<!-- Node4&#45;&gt;Node5 -->
<g id="edge4_Node000004_Node000005" class="edge">
<title>Node4&#45;&gt;Node5</title>
<g id="a_edge4_Node000004_Node000005"><a xlink:title=" ">
<path fill="none" stroke="#63b8ff" d="M267.98,-83.62C276.01,-83.62 284.11,-83.62 291.98,-83.62"/>
<polygon fill="#63b8ff" stroke="#63b8ff" points="268.22,-80.13 258.22,-83.63 268.22,-87.13 268.22,-80.13"/>
</a>
</g>
</g>
<!-- Node6 -->
<g id="Node000006" class="node">
<title>Node6</title>
<g id="a_Node000006"><a xlink:href="classalbert_1_1util_1_1IndexQueryHandler.html" target="_top" xlink:title="Index query handler class.">
<polygon fill="white" stroke="#666666" points="570.25,-98.88 459.75,-98.88 459.75,-68.38 570.25,-68.38 570.25,-98.88"/>
<text text-anchor="start" x="467.75" y="-85.38" font-family="Helvetica,sans-Serif" font-size="10.00">albert::util::IndexQuery</text>
<text text-anchor="middle" x="515" y="-74.12" font-family="Helvetica,sans-Serif" font-size="10.00">Handler</text>
</a>
</g>
</g>
<!-- Node5&#45;&gt;Node6 -->
<g id="edge5_Node000005_Node000006" class="edge">
<title>Node5&#45;&gt;Node6</title>
<g id="a_edge5_Node000005_Node000006"><a xlink:title=" ">
<path fill="none" stroke="#63b8ff" d="M435.24,-83.62C443.34,-83.62 451.47,-83.62 459.25,-83.62"/>
<polygon fill="#63b8ff" stroke="#63b8ff" points="435.35,-80.13 425.35,-83.63 435.35,-87.13 435.35,-80.13"/>
</a>
</g>
</g>
</g>
</svg>
