<?xml version="1.0" encoding="UTF-8" standalone="no"?>
<!DOCTYPE svg PUBLIC "-//W3C//DTD SVG 1.1//EN"
 "http://www.w3.org/Graphics/SVG/1.1/DTD/svg11.dtd">
<!-- Generated by graphviz version 9.0.0 (20230911.1827)
 -->
<!-- Title: albert::IndexQueryHandler Pages: 1 -->
<svg width="155pt" height="304pt"
 viewBox="0.00 0.00 154.50 303.50" xmlns="http://www.w3.org/2000/svg" xmlns:xlink="http://www.w3.org/1999/xlink">
<g id="graph0" class="graph" transform="scale(1 1) rotate(0) translate(4 299.5)">
<title>albert::IndexQueryHandler</title>
<!-- Node1 -->
<g id="Node000001" class="node">
<title>Node1</title>
<g id="a_Node000001"><a xlink:title="Index&#45;based global query handler.">
<polygon fill="#999999" stroke="#666666" points="136.75,-19.25 9.75,-19.25 9.75,0 136.75,0 136.75,-19.25"/>
<text text-anchor="middle" x="73.25" y="-5.75" font-family="Helvetica,sans-Serif" font-size="10.00">albert::IndexQueryHandler</text>
</a>
</g>
</g>
<!-- Node2 -->
<g id="Node000002" class="node">
<title>Node2</title>
<g id="a_Node000002"><a xlink:href="classalbert_1_1GlobalQueryHandler.html" target="_top" xlink:title="Query handler participating in the global search.">
<polygon fill="white" stroke="#666666" points="139,-74.5 7.5,-74.5 7.5,-55.25 139,-55.25 139,-74.5"/>
<text text-anchor="middle" x="73.25" y="-61" font-family="Helvetica,sans-Serif" font-size="10.00">albert::GlobalQueryHandler</text>
</a>
</g>
</g>
<!-- Node2&#45;&gt;Node1 -->
<g id="edge1_Node000001_Node000002" class="edge">
<title>Node2&#45;&gt;Node1</title>
<g id="a_edge1_Node000001_Node000002"><a xlink:title=" ">
<path fill="none" stroke="#63b8ff" d="M73.25,-43.63C73.25,-35.34 73.25,-26.17 73.25,-19.61"/>
<polygon fill="#63b8ff" stroke="#63b8ff" points="69.75,-43.57 73.25,-53.57 76.75,-43.57 69.75,-43.57"/>
</a>
</g>
</g>
<!-- Node3 -->
<g id="Node000003" class="node">
<title>Node3</title>
<g id="a_Node000003"><a xlink:href="classalbert_1_1RankedQueryHandler.html" target="_top" xlink:title="Usage&#45;ranked query handler.">
<polygon fill="white" stroke="#666666" points="141.62,-129.75 4.88,-129.75 4.88,-110.5 141.62,-110.5 141.62,-129.75"/>
<text text-anchor="middle" x="73.25" y="-116.25" font-family="Helvetica,sans-Serif" font-size="10.00">albert::RankedQueryHandler</text>
</a>
</g>
</g>
<!-- Node3&#45;&gt;Node2 -->
<g id="edge2_Node000002_Node000003" class="edge">
<title>Node3&#45;&gt;Node2</title>
<g id="a_edge2_Node000002_Node000003"><a xlink:title=" ">
<path fill="none" stroke="#63b8ff" d="M73.25,-98.88C73.25,-90.59 73.25,-81.42 73.25,-74.86"/>
<polygon fill="#63b8ff" stroke="#63b8ff" points="69.75,-98.82 73.25,-108.82 76.75,-98.82 69.75,-98.82"/>
</a>
</g>
</g>
<!-- Node4 -->
<g id="Node000004" class="node">
<title>Node4</title>
<g id="a_Node000004"><a xlink:href="classalbert_1_1GeneratorQueryHandler.html" target="_top" xlink:title="Coroutine&#45;based synchronous generator query handler.">
<polygon fill="white" stroke="#666666" points="146.5,-185 0,-185 0,-165.75 146.5,-165.75 146.5,-185"/>
<text text-anchor="middle" x="73.25" y="-171.5" font-family="Helvetica,sans-Serif" font-size="10.00">albert::GeneratorQueryHandler</text>
</a>
</g>
</g>
<!-- Node4&#45;&gt;Node3 -->
<g id="edge3_Node000003_Node000004" class="edge">
<title>Node4&#45;&gt;Node3</title>
<g id="a_edge3_Node000003_Node000004"><a xlink:title=" ">
<path fill="none" stroke="#63b8ff" d="M73.25,-154.13C73.25,-145.84 73.25,-136.67 73.25,-130.11"/>
<polygon fill="#63b8ff" stroke="#63b8ff" points="69.75,-154.07 73.25,-164.07 76.75,-154.07 69.75,-154.07"/>
</a>
</g>
</g>
<!-- Node5 -->
<g id="Node000005" class="node">
<title>Node5</title>
<g id="a_Node000005"><a xlink:href="classalbert_1_1QueryHandler.html" target="_top" xlink:title="Base query handler interface for triggered queries.">
<polygon fill="white" stroke="#666666" points="125.12,-240.25 21.38,-240.25 21.38,-221 125.12,-221 125.12,-240.25"/>
<text text-anchor="middle" x="73.25" y="-226.75" font-family="Helvetica,sans-Serif" font-size="10.00">albert::QueryHandler</text>
</a>
</g>
</g>
<!-- Node5&#45;&gt;Node4 -->
<g id="edge4_Node000004_Node000005" class="edge">
<title>Node5&#45;&gt;Node4</title>
<g id="a_edge4_Node000004_Node000005"><a xlink:title=" ">
<path fill="none" stroke="#63b8ff" d="M73.25,-209.38C73.25,-201.09 73.25,-191.92 73.25,-185.36"/>
<polygon fill="#63b8ff" stroke="#63b8ff" points="69.75,-209.32 73.25,-219.32 76.75,-209.32 69.75,-209.32"/>
</a>
</g>
</g>
<!-- Node6 -->
<g id="Node000006" class="node">
<title>Node6</title>
<g id="a_Node000006"><a xlink:href="classalbert_1_1Extension.html" target="_top" xlink:title="Abstract extension class.">
<polygon fill="white" stroke="#666666" points="116.5,-295.5 30,-295.5 30,-276.25 116.5,-276.25 116.5,-295.5"/>
<text text-anchor="middle" x="73.25" y="-282" font-family="Helvetica,sans-Serif" font-size="10.00">albert::Extension</text>
</a>
</g>
</g>
<!-- Node6&#45;&gt;Node5 -->
<g id="edge5_Node000005_Node000006" class="edge">
<title>Node6&#45;&gt;Node5</title>
<g id="a_edge5_Node000005_Node000006"><a xlink:title=" ">
<path fill="none" stroke="#63b8ff" d="M73.25,-264.63C73.25,-256.34 73.25,-247.17 73.25,-240.61"/>
<polygon fill="#63b8ff" stroke="#63b8ff" points="69.75,-264.57 73.25,-274.57 76.75,-264.57 69.75,-264.57"/>
</a>
</g>
</g>
</g>
</svg>
