<?xml version="1.0" encoding="UTF-8" standalone="no"?>
<!DOCTYPE svg PUBLIC "-//W3C//DTD SVG 1.1//EN"
 "http://www.w3.org/Graphics/SVG/1.1/DTD/svg11.dtd">
<!-- Generated by graphviz version 9.0.0 (20230911.1827)
 -->
<!-- Title: albert::QueryHandler Pages: 1 -->
<svg width="312pt" height="315pt"
 viewBox="0.00 0.00 312.12 314.75" xmlns="http://www.w3.org/2000/svg" xmlns:xlink="http://www.w3.org/1999/xlink">
<g id="graph0" class="graph" transform="scale(1 1) rotate(0) translate(4 310.75)">
<title>albert::QueryHandler</title>
<!-- Node1 -->
<g id="Node000001" class="node">
<title>Node1</title>
<g id="a_Node000001"><a xlink:title="Base query handler interface for triggered queries.">
<polygon fill="#999999" stroke="#666666" points="201.75,-251.5 98,-251.5 98,-232.25 201.75,-232.25 201.75,-251.5"/>
<text text-anchor="middle" x="149.88" y="-238" font-family="Helvetica,sans-Serif" font-size="10.00">albert::QueryHandler</text>
</a>
</g>
</g>
<!-- Node3 -->
<g id="Node000003" class="node">
<title>Node3</title>
<g id="a_Node000003"><a xlink:href="classalbert_1_1AsyncGeneratorQueryHandler.html" target="_top" xlink:title="Coroutine&#45;based asynchronous generator query handler.">
<polygon fill="white" stroke="#666666" points="139.75,-196.25 0,-196.25 0,-165.75 139.75,-165.75 139.75,-196.25"/>
<text text-anchor="start" x="8" y="-182.75" font-family="Helvetica,sans-Serif" font-size="10.00">albert::AsyncGeneratorQuery</text>
<text text-anchor="middle" x="69.88" y="-171.5" font-family="Helvetica,sans-Serif" font-size="10.00">Handler</text>
</a>
</g>
</g>
<!-- Node1&#45;&gt;Node3 -->
<g id="edge2_Node000001_Node000003" class="edge">
<title>Node1&#45;&gt;Node3</title>
<g id="a_edge2_Node000001_Node000003"><a xlink:title=" ">
<path fill="none" stroke="#63b8ff" d="M128.76,-225.34C116.64,-216.42 101.51,-205.28 89.62,-196.53"/>
<polygon fill="#63b8ff" stroke="#63b8ff" points="126.38,-227.93 136.51,-231.04 130.53,-222.29 126.38,-227.93"/>
</a>
</g>
</g>
<!-- Node4 -->
<g id="Node000004" class="node">
<title>Node4</title>
<g id="a_Node000004"><a xlink:href="classalbert_1_1GeneratorQueryHandler.html" target="_top" xlink:title="Coroutine&#45;based synchronous generator query handler.">
<polygon fill="white" stroke="#666666" points="304.12,-190.62 157.62,-190.62 157.62,-171.38 304.12,-171.38 304.12,-190.62"/>
<text text-anchor="middle" x="230.88" y="-177.12" font-family="Helvetica,sans-Serif" font-size="10.00">albert::GeneratorQueryHandler</text>
</a>
</g>
</g>
<!-- Node1&#45;&gt;Node4 -->
<g id="edge3_Node000001_Node000004" class="edge">
<title>Node1&#45;&gt;Node4</title>
<g id="a_edge3_Node000001_Node000004"><a xlink:title=" ">
<path fill="none" stroke="#63b8ff" d="M171.28,-225.31C186.33,-214.38 205.92,-200.14 218.46,-191.03"/>
<polygon fill="#63b8ff" stroke="#63b8ff" points="169.43,-222.33 163.4,-231.04 173.55,-227.99 169.43,-222.33"/>
</a>
</g>
</g>
<!-- Node2 -->
<g id="Node000002" class="node">
<title>Node2</title>
<g id="a_Node000002"><a xlink:href="classalbert_1_1Extension.html" target="_top" xlink:title="Abstract extension class.">
<polygon fill="white" stroke="#666666" points="193.12,-306.75 106.62,-306.75 106.62,-287.5 193.12,-287.5 193.12,-306.75"/>
<text text-anchor="middle" x="149.88" y="-293.25" font-family="Helvetica,sans-Serif" font-size="10.00">albert::Extension</text>
</a>
</g>
</g>
<!-- Node2&#45;&gt;Node1 -->
<g id="edge1_Node000001_Node000002" class="edge">
<title>Node2&#45;&gt;Node1</title>
<g id="a_edge1_Node000001_Node000002"><a xlink:title=" ">
<path fill="none" stroke="#63b8ff" d="M149.88,-275.88C149.88,-267.59 149.88,-258.42 149.88,-251.86"/>
<polygon fill="#63b8ff" stroke="#63b8ff" points="146.38,-275.82 149.88,-285.82 153.38,-275.82 146.38,-275.82"/>
</a>
</g>
</g>
<!-- Node5 -->
<g id="Node000005" class="node">
<title>Node5</title>
<g id="a_Node000005"><a xlink:href="classalbert_1_1RankedQueryHandler.html" target="_top" xlink:title="Usage&#45;ranked query handler.">
<polygon fill="white" stroke="#666666" points="299.25,-129.75 162.5,-129.75 162.5,-110.5 299.25,-110.5 299.25,-129.75"/>
<text text-anchor="middle" x="230.88" y="-116.25" font-family="Helvetica,sans-Serif" font-size="10.00">albert::RankedQueryHandler</text>
</a>
</g>
</g>
<!-- Node4&#45;&gt;Node5 -->
<g id="edge4_Node000004_Node000005" class="edge">
<title>Node4&#45;&gt;Node5</title>
<g id="a_edge4_Node000004_Node000005"><a xlink:title=" ">
<path fill="none" stroke="#63b8ff" d="M230.88,-159.57C230.88,-149.54 230.88,-137.96 230.88,-130.15"/>
<polygon fill="#63b8ff" stroke="#63b8ff" points="227.38,-159.54 230.88,-169.54 234.38,-159.54 227.38,-159.54"/>
</a>
</g>
</g>
<!-- Node6 -->
<g id="Node000006" class="node">
<title>Node6</title>
<g id="a_Node000006"><a xlink:href="classalbert_1_1GlobalQueryHandler.html" target="_top" xlink:title="Query handler participating in the global search.">
<polygon fill="white" stroke="#666666" points="296.62,-74.5 165.12,-74.5 165.12,-55.25 296.62,-55.25 296.62,-74.5"/>
<text text-anchor="middle" x="230.88" y="-61" font-family="Helvetica,sans-Serif" font-size="10.00">albert::GlobalQueryHandler</text>
</a>
</g>
</g>
<!-- Node5&#45;&gt;Node6 -->
<g id="edge5_Node000005_Node000006" class="edge">
<title>Node5&#45;&gt;Node6</title>
<g id="a_edge5_Node000005_Node000006"><a xlink:title=" ">
<path fill="none" stroke="#63b8ff" d="M230.88,-98.88C230.88,-90.59 230.88,-81.42 230.88,-74.86"/>
<polygon fill="#63b8ff" stroke="#63b8ff" points="227.38,-98.82 230.88,-108.82 234.38,-98.82 227.38,-98.82"/>
</a>
</g>
</g>
<!-- Node7 -->
<g id="Node000007" class="node">
<title>Node7</title>
<g id="a_Node000007"><a xlink:href="classalbert_1_1IndexQueryHandler.html" target="_top" xlink:title="Index&#45;based global query handler.">
<polygon fill="white" stroke="#666666" points="294.38,-19.25 167.38,-19.25 167.38,0 294.38,0 294.38,-19.25"/>
<text text-anchor="middle" x="230.88" y="-5.75" font-family="Helvetica,sans-Serif" font-size="10.00">albert::IndexQueryHandler</text>
</a>
</g>
</g>
<!-- Node6&#45;&gt;Node7 -->
<g id="edge6_Node000006_Node000007" class="edge">
<title>Node6&#45;&gt;Node7</title>
<g id="a_edge6_Node000006_Node000007"><a xlink:title=" ">
<path fill="none" stroke="#63b8ff" d="M230.88,-43.63C230.88,-35.34 230.88,-26.17 230.88,-19.61"/>
<polygon fill="#63b8ff" stroke="#63b8ff" points="227.38,-43.57 230.88,-53.57 234.38,-43.57 227.38,-43.57"/>
</a>
</g>
</g>
</g>
</svg>
