<?xml version="1.0" encoding="UTF-8" standalone="no"?>
<!DOCTYPE svg PUBLIC "-//W3C//DTD SVG 1.1//EN"
 "http://www.w3.org/Graphics/SVG/1.1/DTD/svg11.dtd">
<!-- Generated by graphviz version 9.0.0 (20230911.1827)
 -->
<!-- Title: albert::Extension Pages: 1 -->
<svg width="595pt" height="175pt"
 viewBox="0.00 0.00 594.75 175.25" xmlns="http://www.w3.org/2000/svg" xmlns:xlink="http://www.w3.org/1999/xlink">
<g id="graph0" class="graph" transform="scale(1 1) rotate(0) translate(4 171.25)">
<title>albert::Extension</title>
<!-- Node1 -->
<g id="Node000001" class="node">
<title>Node1</title>
<g id="a_Node000001"><a xlink:title="Abstract extension class.">
<polygon fill="#999999" stroke="#666666" points="86.5,-93.25 0,-93.25 0,-74 86.5,-74 86.5,-93.25"/>
<text text-anchor="middle" x="43.25" y="-79.75" font-family="Helvetica,sans-Serif" font-size="10.00">albert::Extension</text>
</a>
</g>
</g>
<!-- Node2 -->
<g id="Node000002" class="node">
<title>Node2</title>
<g id="a_Node000002"><a xlink:href="classalbert_1_1ExtensionPlugin.html" target="_top" xlink:title="Convenience base class for extension plugins.">
<polygon fill="white" stroke="#666666" points="246.12,-167.25 132.62,-167.25 132.62,-148 246.12,-148 246.12,-167.25"/>
<text text-anchor="middle" x="189.38" y="-153.75" font-family="Helvetica,sans-Serif" font-size="10.00">albert::ExtensionPlugin</text>
</a>
</g>
</g>
<!-- Node1&#45;&gt;Node2 -->
<g id="edge1_Node000001_Node000002" class="edge">
<title>Node1&#45;&gt;Node2</title>
<g id="a_edge1_Node000001_Node000002"><a xlink:title=" ">
<path fill="none" stroke="#63b8ff" d="M63.83,-100.66C78.96,-113.03 100.89,-129.35 122.5,-139.62 128.92,-142.68 135.96,-145.29 142.96,-147.5"/>
<polygon fill="#63b8ff" stroke="#63b8ff" points="66.43,-98.27 56.52,-94.53 61.93,-103.63 66.43,-98.27"/>
</a>
</g>
</g>
<!-- Node3 -->
<g id="Node000003" class="node">
<title>Node3</title>
<g id="a_Node000003"><a xlink:href="classalbert_1_1FallbackHandler.html" target="_top" xlink:title="Abstract fallback provider.">
<polygon fill="white" stroke="#666666" points="246.88,-130.25 131.88,-130.25 131.88,-111 246.88,-111 246.88,-130.25"/>
<text text-anchor="middle" x="189.38" y="-116.75" font-family="Helvetica,sans-Serif" font-size="10.00">albert::FallbackHandler</text>
</a>
</g>
</g>
<!-- Node1&#45;&gt;Node3 -->
<g id="edge2_Node000001_Node000003" class="edge">
<title>Node1&#45;&gt;Node3</title>
<g id="a_edge2_Node000001_Node000003"><a xlink:title=" ">
<path fill="none" stroke="#63b8ff" d="M94.72,-96.58C112.53,-101.15 132.28,-106.23 149.04,-110.53"/>
<polygon fill="#63b8ff" stroke="#63b8ff" points="95.66,-93.21 85.1,-94.11 93.91,-99.99 95.66,-93.21"/>
</a>
</g>
</g>
<!-- Node4 -->
<g id="Node000004" class="node">
<title>Node4</title>
<g id="a_Node000004"><a xlink:href="classalbert_1_1PluginProvider.html" target="_top" xlink:title="Plugin provider interface class.">
<polygon fill="white" stroke="#666666" points="243.12,-93.25 135.62,-93.25 135.62,-74 243.12,-74 243.12,-93.25"/>
<text text-anchor="middle" x="189.38" y="-79.75" font-family="Helvetica,sans-Serif" font-size="10.00">albert::PluginProvider</text>
</a>
</g>
</g>
<!-- Node1&#45;&gt;Node4 -->
<g id="edge3_Node000001_Node000004" class="edge">
<title>Node1&#45;&gt;Node4</title>
<g id="a_edge3_Node000001_Node000004"><a xlink:title=" ">
<path fill="none" stroke="#63b8ff" d="M98.08,-83.62C110.22,-83.62 123.1,-83.62 135.21,-83.62"/>
<polygon fill="#63b8ff" stroke="#63b8ff" points="98.23,-80.13 88.23,-83.63 98.23,-87.13 98.23,-80.13"/>
</a>
</g>
</g>
<!-- Node5 -->
<g id="Node000005" class="node">
<title>Node5</title>
<g id="a_Node000005"><a xlink:href="classalbert_1_1TelemetryProvider.html" target="_top" xlink:title=" ">
<polygon fill="white" stroke="#666666" points="251,-56.25 127.75,-56.25 127.75,-37 251,-37 251,-56.25"/>
<text text-anchor="middle" x="189.38" y="-42.75" font-family="Helvetica,sans-Serif" font-size="10.00">albert::TelemetryProvider</text>
</a>
</g>
</g>
<!-- Node1&#45;&gt;Node5 -->
<g id="edge4_Node000001_Node000005" class="edge">
<title>Node1&#45;&gt;Node5</title>
<g id="a_edge4_Node000001_Node000005"><a xlink:title=" ">
<path fill="none" stroke="#63b8ff" d="M94.72,-70.67C112.53,-66.1 132.28,-61.02 149.04,-56.72"/>
<polygon fill="#63b8ff" stroke="#63b8ff" points="93.91,-67.26 85.1,-73.14 95.66,-74.04 93.91,-67.26"/>
</a>
</g>
</g>
<!-- Node6 -->
<g id="Node000006" class="node">
<title>Node6</title>
<g id="a_Node000006"><a xlink:href="classalbert_1_1TriggerQueryHandler.html" target="_top" xlink:title="Abstract trigger query handler.">
<polygon fill="white" stroke="#666666" points="256.25,-19.25 122.5,-19.25 122.5,0 256.25,0 256.25,-19.25"/>
<text text-anchor="middle" x="189.38" y="-5.75" font-family="Helvetica,sans-Serif" font-size="10.00">albert::TriggerQueryHandler</text>
</a>
</g>
</g>
<!-- Node1&#45;&gt;Node6 -->
<g id="edge5_Node000001_Node000006" class="edge">
<title>Node1&#45;&gt;Node6</title>
<g id="a_edge5_Node000001_Node000006"><a xlink:title=" ">
<path fill="none" stroke="#63b8ff" d="M63.83,-66.59C78.96,-54.22 100.89,-37.9 122.5,-27.62 128.92,-24.57 135.96,-21.96 142.96,-19.75"/>
<polygon fill="#63b8ff" stroke="#63b8ff" points="61.93,-63.62 56.52,-72.72 66.43,-68.98 61.93,-63.62"/>
</a>
</g>
</g>
<!-- Node7 -->
<g id="Node000007" class="node">
<title>Node7</title>
<g id="a_Node000007"><a xlink:href="classalbert_1_1GlobalQueryHandler.html" target="_top" xlink:title="Abstract global query handler.">
<polygon fill="white" stroke="#666666" points="423.75,-19.25 292.25,-19.25 292.25,0 423.75,0 423.75,-19.25"/>
<text text-anchor="middle" x="358" y="-5.75" font-family="Helvetica,sans-Serif" font-size="10.00">albert::GlobalQueryHandler</text>
</a>
</g>
</g>
<!-- Node6&#45;&gt;Node7 -->
<g id="edge6_Node000006_Node000007" class="edge">
<title>Node6&#45;&gt;Node7</title>
<g id="a_edge6_Node000006_Node000007"><a xlink:title=" ">
<path fill="none" stroke="#63b8ff" d="M267.98,-9.62C276.01,-9.62 284.11,-9.62 291.98,-9.62"/>
<polygon fill="#63b8ff" stroke="#63b8ff" points="268.22,-6.13 258.22,-9.63 268.22,-13.13 268.22,-6.13"/>
</a>
</g>
</g>
<!-- Node8 -->
<g id="Node000008" class="node">
<title>Node8</title>
<g id="a_Node000008"><a xlink:href="classalbert_1_1IndexQueryHandler.html" target="_top" xlink:title="Index query handler class.">
<polygon fill="white" stroke="#666666" points="586.75,-19.25 459.75,-19.25 459.75,0 586.75,0 586.75,-19.25"/>
<text text-anchor="middle" x="523.25" y="-5.75" font-family="Helvetica,sans-Serif" font-size="10.00">albert::IndexQueryHandler</text>
</a>
</g>
</g>
<!-- Node7&#45;&gt;Node8 -->
<g id="edge7_Node000007_Node000008" class="edge">
<title>Node7&#45;&gt;Node8</title>
<g id="a_edge7_Node000007_Node000008"><a xlink:title=" ">
<path fill="none" stroke="#63b8ff" d="M435.3,-9.62C443.35,-9.62 451.47,-9.62 459.35,-9.62"/>
<polygon fill="#63b8ff" stroke="#63b8ff" points="435.5,-6.13 425.5,-9.63 435.5,-13.13 435.5,-6.13"/>
</a>
</g>
</g>
</g>
</svg>
