<?xml version="1.0" encoding="UTF-8" standalone="no"?>
<!DOCTYPE svg PUBLIC "-//W3C//DTD SVG 1.1//EN"
 "http://www.w3.org/Graphics/SVG/1.1/DTD/svg11.dtd">
<!-- Generated by graphviz version 9.0.0 (20230911.1827)
 -->
<!-- Title: albert::Extension Pages: 1 -->
<svg width="578pt" height="224pt"
 viewBox="0.00 0.00 578.25 224.25" xmlns="http://www.w3.org/2000/svg" xmlns:xlink="http://www.w3.org/1999/xlink">
<g id="graph0" class="graph" transform="scale(1 1) rotate(0) translate(4 220.25)">
<title>albert::Extension</title>
<!-- Node1 -->
<g id="Node000001" class="node">
<title>Node1</title>
<g id="a_Node000001"><a xlink:title="Abstract extension class.">
<polygon fill="#999999" stroke="#666666" points="86.5,-123.25 0,-123.25 0,-104 86.5,-104 86.5,-123.25"/>
<text text-anchor="middle" x="43.25" y="-109.75" font-family="Helvetica,sans-Serif" font-size="10.00">albert::Extension</text>
</a>
</g>
</g>
<!-- Node2 -->
<g id="Node000002" class="node">
<title>Node2</title>
<g id="a_Node000002"><a xlink:href="classalbert_1_1FallbackHandler.html" target="_top" xlink:title="Abstract fallback provider.">
<polygon fill="white" stroke="#666666" points="246.88,-216.25 131.88,-216.25 131.88,-197 246.88,-197 246.88,-216.25"/>
<text text-anchor="middle" x="189.38" y="-202.75" font-family="Helvetica,sans-Serif" font-size="10.00">albert::FallbackHandler</text>
</a>
</g>
</g>
<!-- Node1&#45;&gt;Node2 -->
<g id="edge1_Node000001_Node000002" class="edge">
<title>Node1&#45;&gt;Node2</title>
<g id="a_edge1_Node000001_Node000002"><a xlink:title=" ">
<path fill="none" stroke="#63b8ff" d="M58.79,-132.09C73.21,-149.17 96.81,-174.07 122.5,-188.62 128.07,-191.78 134.22,-194.41 140.46,-196.58"/>
<polygon fill="#63b8ff" stroke="#63b8ff" points="61.77,-130.2 52.73,-124.68 56.36,-134.64 61.77,-130.2"/>
</a>
</g>
</g>
<!-- Node3 -->
<g id="Node000003" class="node">
<title>Node3</title>
<g id="a_Node000003"><a xlink:href="classalbert_1_1PluginProvider.html" target="_top" xlink:title="Plugin provider interface class.">
<polygon fill="white" stroke="#666666" points="243.12,-179.25 135.62,-179.25 135.62,-160 243.12,-160 243.12,-179.25"/>
<text text-anchor="middle" x="189.38" y="-165.75" font-family="Helvetica,sans-Serif" font-size="10.00">albert::PluginProvider</text>
</a>
</g>
</g>
<!-- Node1&#45;&gt;Node3 -->
<g id="edge2_Node000001_Node000003" class="edge">
<title>Node1&#45;&gt;Node3</title>
<g id="a_edge2_Node000001_Node000003"><a xlink:title=" ">
<path fill="none" stroke="#63b8ff" d="M72.42,-128.88C87.07,-136.4 105.44,-145.21 122.5,-151.62 130.27,-154.54 138.71,-157.21 146.89,-159.55"/>
<polygon fill="#63b8ff" stroke="#63b8ff" points="74.3,-125.91 63.82,-124.38 71.06,-132.11 74.3,-125.91"/>
</a>
</g>
</g>
<!-- Node4 -->
<g id="Node000004" class="node">
<title>Node4</title>
<g id="a_Node000004"><a xlink:href="classalbert_1_1TriggerQueryHandler.html" target="_top" xlink:title="Abstract trigger query handler.">
<polygon fill="white" stroke="#666666" points="256.25,-142.25 122.5,-142.25 122.5,-123 256.25,-123 256.25,-142.25"/>
<text text-anchor="middle" x="189.38" y="-128.75" font-family="Helvetica,sans-Serif" font-size="10.00">albert::TriggerQueryHandler</text>
</a>
</g>
</g>
<!-- Node1&#45;&gt;Node4 -->
<g id="edge3_Node000001_Node000004" class="edge">
<title>Node1&#45;&gt;Node4</title>
<g id="a_edge3_Node000001_Node000004"><a xlink:title=" ">
<path fill="none" stroke="#63b8ff" d="M97.99,-120.71C105.87,-121.75 114.06,-122.83 122.15,-123.89"/>
<polygon fill="#63b8ff" stroke="#63b8ff" points="98.58,-117.26 88.21,-119.42 97.67,-124.2 98.58,-117.26"/>
</a>
</g>
</g>
<!-- Node7 -->
<g id="Node000007" class="node">
<title>Node7</title>
<g id="a_Node000007"><a xlink:href="classalbert_1_1UrlHandler.html" target="_top" xlink:title="Albert scheme URL handler interface.">
<polygon fill="white" stroke="#666666" points="234.88,-105.25 143.88,-105.25 143.88,-86 234.88,-86 234.88,-105.25"/>
<text text-anchor="middle" x="189.38" y="-91.75" font-family="Helvetica,sans-Serif" font-size="10.00">albert::UrlHandler</text>
</a>
</g>
</g>
<!-- Node1&#45;&gt;Node7 -->
<g id="edge6_Node000001_Node000007" class="edge">
<title>Node1&#45;&gt;Node7</title>
<g id="a_edge6_Node000001_Node000007"><a xlink:title=" ">
<path fill="none" stroke="#63b8ff" d="M97.91,-106.92C112.9,-105.05 129.03,-103.04 143.46,-101.23"/>
<polygon fill="#63b8ff" stroke="#63b8ff" points="97.7,-103.42 88.21,-108.13 98.57,-110.37 97.7,-103.42"/>
</a>
</g>
</g>
<!-- Node8 -->
<g id="Node000008" class="node">
<title>Node8</title>
<g id="a_Node000008"><a xlink:href="classalbert_1_1detail_1_1TelemetryProvider.html" target="_top" xlink:title=" ">
<polygon fill="white" stroke="#666666" points="246.88,-67.88 131.88,-67.88 131.88,-37.38 246.88,-37.38 246.88,-67.88"/>
<text text-anchor="start" x="139.88" y="-54.38" font-family="Helvetica,sans-Serif" font-size="10.00">albert::detail::Telemetry</text>
<text text-anchor="middle" x="189.38" y="-43.12" font-family="Helvetica,sans-Serif" font-size="10.00">Provider</text>
</a>
</g>
</g>
<!-- Node1&#45;&gt;Node8 -->
<g id="edge7_Node000001_Node000008" class="edge">
<title>Node1&#45;&gt;Node8</title>
<g id="a_edge7_Node000001_Node000008"><a xlink:title=" ">
<path fill="none" stroke="#63b8ff" d="M74.6,-98.48C88.98,-91.5 106.48,-83.32 122.5,-76.62 129.24,-73.81 136.44,-71 143.51,-68.34"/>
<polygon fill="#63b8ff" stroke="#63b8ff" points="73.09,-95.32 65.65,-102.86 76.17,-101.6 73.09,-95.32"/>
</a>
</g>
</g>
<!-- Node9 -->
<g id="Node000009" class="node">
<title>Node9</title>
<g id="a_Node000009"><a xlink:href="classalbert_1_1util_1_1ExtensionPlugin.html" target="_top" xlink:title="Convenience base class for extension plugins.">
<polygon fill="white" stroke="#666666" points="254.75,-19.25 124,-19.25 124,0 254.75,0 254.75,-19.25"/>
<text text-anchor="middle" x="189.38" y="-5.75" font-family="Helvetica,sans-Serif" font-size="10.00">albert::util::ExtensionPlugin</text>
</a>
</g>
</g>
<!-- Node1&#45;&gt;Node9 -->
<g id="edge8_Node000001_Node000009" class="edge">
<title>Node1&#45;&gt;Node9</title>
<g id="a_edge8_Node000001_Node000009"><a xlink:title=" ">
<path fill="none" stroke="#63b8ff" d="M57.22,-94.23C71.15,-74.87 95.02,-45.61 122.5,-28.62 128.37,-24.99 134.96,-22.03 141.65,-19.63"/>
<polygon fill="#63b8ff" stroke="#63b8ff" points="54.41,-92.14 51.57,-102.34 60.16,-96.14 54.41,-92.14"/>
</a>
</g>
</g>
<!-- Node5 -->
<g id="Node000005" class="node">
<title>Node5</title>
<g id="a_Node000005"><a xlink:href="classalbert_1_1GlobalQueryHandler.html" target="_top" xlink:title="Abstract global query handler.">
<polygon fill="white" stroke="#666666" points="423.75,-142.25 292.25,-142.25 292.25,-123 423.75,-123 423.75,-142.25"/>
<text text-anchor="middle" x="358" y="-128.75" font-family="Helvetica,sans-Serif" font-size="10.00">albert::GlobalQueryHandler</text>
</a>
</g>
</g>
<!-- Node4&#45;&gt;Node5 -->
<g id="edge4_Node000004_Node000005" class="edge">
<title>Node4&#45;&gt;Node5</title>
<g id="a_edge4_Node000004_Node000005"><a xlink:title=" ">
<path fill="none" stroke="#63b8ff" d="M267.98,-132.62C276.01,-132.62 284.11,-132.62 291.98,-132.62"/>
<polygon fill="#63b8ff" stroke="#63b8ff" points="268.22,-129.13 258.22,-132.63 268.22,-136.13 268.22,-129.13"/>
</a>
</g>
</g>
<!-- Node6 -->
<g id="Node000006" class="node">
<title>Node6</title>
<g id="a_Node000006"><a xlink:href="classalbert_1_1util_1_1IndexQueryHandler.html" target="_top" xlink:title="Index query handler class.">
<polygon fill="white" stroke="#666666" points="570.25,-147.88 459.75,-147.88 459.75,-117.38 570.25,-117.38 570.25,-147.88"/>
<text text-anchor="start" x="467.75" y="-134.38" font-family="Helvetica,sans-Serif" font-size="10.00">albert::util::IndexQuery</text>
<text text-anchor="middle" x="515" y="-123.12" font-family="Helvetica,sans-Serif" font-size="10.00">Handler</text>
</a>
</g>
</g>
<!-- Node5&#45;&gt;Node6 -->
<g id="edge5_Node000005_Node000006" class="edge">
<title>Node5&#45;&gt;Node6</title>
<g id="a_edge5_Node000005_Node000006"><a xlink:title=" ">
<path fill="none" stroke="#63b8ff" d="M435.24,-132.62C443.34,-132.62 451.47,-132.62 459.25,-132.62"/>
<polygon fill="#63b8ff" stroke="#63b8ff" points="435.35,-129.13 425.35,-132.63 435.35,-136.13 435.35,-129.13"/>
</a>
</g>
</g>
</g>
</svg>
