<?xml version="1.0" encoding="UTF-8" standalone="no"?>
<!DOCTYPE svg PUBLIC "-//W3C//DTD SVG 1.1//EN"
 "http://www.w3.org/Graphics/SVG/1.1/DTD/svg11.dtd">
<!-- Generated by graphviz version 9.0.0 (20230911.1827)
 -->
<!-- Title: albert::util::IndexQueryHandler Pages: 1 -->
<svg width="142pt" height="204pt"
 viewBox="0.00 0.00 141.75 204.25" xmlns="http://www.w3.org/2000/svg" xmlns:xlink="http://www.w3.org/1999/xlink">
<g id="graph0" class="graph" transform="scale(1 1) rotate(0) translate(4 200.25)">
<title>albert::util::IndexQueryHandler</title>
<!-- Node1 -->
<g id="Node000001" class="node">
<title>Node1</title>
<g id="a_Node000001"><a xlink:title="Index query handler class.">
<polygon fill="#999999" stroke="#666666" points="122.12,-30.5 11.62,-30.5 11.62,0 122.12,0 122.12,-30.5"/>
<text text-anchor="start" x="19.62" y="-17" font-family="Helvetica,sans-Serif" font-size="10.00">albert::util::IndexQuery</text>
<text text-anchor="middle" x="66.88" y="-5.75" font-family="Helvetica,sans-Serif" font-size="10.00">Handler</text>
</a>
</g>
</g>
<!-- Node2 -->
<g id="Node000002" class="node">
<title>Node2</title>
<g id="a_Node000002"><a xlink:href="classalbert_1_1GlobalQueryHandler.html" target="_top" xlink:title="Abstract global query handler.">
<polygon fill="white" stroke="#666666" points="132.62,-85.75 1.12,-85.75 1.12,-66.5 132.62,-66.5 132.62,-85.75"/>
<text text-anchor="middle" x="66.88" y="-72.25" font-family="Helvetica,sans-Serif" font-size="10.00">albert::GlobalQueryHandler</text>
</a>
</g>
</g>
<!-- Node2&#45;&gt;Node1 -->
<g id="edge1_Node000001_Node000002" class="edge">
<title>Node2&#45;&gt;Node1</title>
<g id="a_edge1_Node000001_Node000002"><a xlink:title=" ">
<path fill="none" stroke="#63b8ff" d="M66.88,-54.92C66.88,-46.99 66.88,-38.06 66.88,-30.78"/>
<polygon fill="#63b8ff" stroke="#63b8ff" points="63.38,-54.67 66.88,-64.67 70.38,-54.67 63.38,-54.67"/>
</a>
</g>
</g>
<!-- Node3 -->
<g id="Node000003" class="node">
<title>Node3</title>
<g id="a_Node000003"><a xlink:href="classalbert_1_1TriggerQueryHandler.html" target="_top" xlink:title="Abstract trigger query handler.">
<polygon fill="white" stroke="#666666" points="133.75,-141 0,-141 0,-121.75 133.75,-121.75 133.75,-141"/>
<text text-anchor="middle" x="66.88" y="-127.5" font-family="Helvetica,sans-Serif" font-size="10.00">albert::TriggerQueryHandler</text>
</a>
</g>
</g>
<!-- Node3&#45;&gt;Node2 -->
<g id="edge2_Node000002_Node000003" class="edge">
<title>Node3&#45;&gt;Node2</title>
<g id="a_edge2_Node000002_Node000003"><a xlink:title=" ">
<path fill="none" stroke="#63b8ff" d="M66.88,-110.13C66.88,-101.84 66.88,-92.67 66.88,-86.11"/>
<polygon fill="#63b8ff" stroke="#63b8ff" points="63.38,-110.07 66.88,-120.07 70.38,-110.07 63.38,-110.07"/>
</a>
</g>
</g>
<!-- Node4 -->
<g id="Node000004" class="node">
<title>Node4</title>
<g id="a_Node000004"><a xlink:href="classalbert_1_1Extension.html" target="_top" xlink:title="Abstract extension class.">
<polygon fill="white" stroke="#666666" points="110.12,-196.25 23.62,-196.25 23.62,-177 110.12,-177 110.12,-196.25"/>
<text text-anchor="middle" x="66.88" y="-182.75" font-family="Helvetica,sans-Serif" font-size="10.00">albert::Extension</text>
</a>
</g>
</g>
<!-- Node4&#45;&gt;Node3 -->
<g id="edge3_Node000003_Node000004" class="edge">
<title>Node4&#45;&gt;Node3</title>
<g id="a_edge3_Node000003_Node000004"><a xlink:title=" ">
<path fill="none" stroke="#63b8ff" d="M66.88,-165.38C66.88,-157.09 66.88,-147.92 66.88,-141.36"/>
<polygon fill="#63b8ff" stroke="#63b8ff" points="63.38,-165.32 66.88,-175.32 70.38,-165.32 63.38,-165.32"/>
</a>
</g>
</g>
</g>
</svg>
