<?xml version="1.0" encoding="UTF-8" standalone="no"?>
<!DOCTYPE svg PUBLIC "-//W3C//DTD SVG 1.1//EN"
 "http://www.w3.org/Graphics/SVG/1.1/DTD/svg11.dtd">
<!-- Generated by graphviz version 9.0.0 (20230911.1827)
 -->
<!-- Title: workspace/albert/include/albert/desktopentryparser.h Pages: 1 -->
<svg width="343pt" height="94pt"
 viewBox="0.00 0.00 343.25 93.75" xmlns="http://www.w3.org/2000/svg" xmlns:xlink="http://www.w3.org/1999/xlink">
<g id="graph0" class="graph" transform="scale(1 1) rotate(0) translate(4 89.75)">
<title>workspace/albert/include/albert/desktopentryparser.h</title>
<!-- Node1 -->
<g id="Node000001" class="node">
<title>Node1</title>
<g id="a_Node000001"><a xlink:title=" ">
<polygon fill="#999999" stroke="#666666" points="244.38,-85.75 108.38,-85.75 108.38,-55.25 244.38,-55.25 244.38,-85.75"/>
<text text-anchor="start" x="116.38" y="-72.25" font-family="Helvetica,sans-Serif" font-size="10.00">workspace/albert/include</text>
<text text-anchor="middle" x="176.38" y="-61" font-family="Helvetica,sans-Serif" font-size="10.00">/albert/desktopentryparser.h</text>
</a>
</g>
</g>
<!-- Node2 -->
<g id="Node000002" class="node">
<title>Node2</title>
<g id="a_Node000002"><a xlink:title=" ">
<polygon fill="#e0e0e0" stroke="#999999" points="52.75,-19.25 0,-19.25 0,0 52.75,0 52.75,-19.25"/>
<text text-anchor="middle" x="26.38" y="-5.75" font-family="Helvetica,sans-Serif" font-size="10.00">QLocale</text>
</a>
</g>
</g>
<!-- Node1&#45;&gt;Node2 -->
<g id="edge1_Node000001_Node000002" class="edge">
<title>Node1&#45;&gt;Node2</title>
<g id="a_edge1_Node000001_Node000002"><a xlink:title=" ">
<path fill="none" stroke="#63b8ff" d="M138.91,-54.8C114.64,-45.27 83.3,-32.97 59.86,-23.77"/>
<polygon fill="#63b8ff" stroke="#63b8ff" points="61.38,-20.6 50.79,-20.21 58.82,-27.12 61.38,-20.6"/>
</a>
</g>
</g>
<!-- Node3 -->
<g id="Node000003" class="node">
<title>Node3</title>
<g id="a_Node000003"><a xlink:title=" ">
<polygon fill="#e0e0e0" stroke="#999999" points="119.88,-19.25 70.88,-19.25 70.88,0 119.88,0 119.88,-19.25"/>
<text text-anchor="middle" x="95.38" y="-5.75" font-family="Helvetica,sans-Serif" font-size="10.00">QString</text>
</a>
</g>
</g>
<!-- Node1&#45;&gt;Node3 -->
<g id="edge2_Node000001_Node000003" class="edge">
<title>Node1&#45;&gt;Node3</title>
<g id="a_edge2_Node000001_Node000003"><a xlink:title=" ">
<path fill="none" stroke="#63b8ff" d="M156.35,-54.95C144.38,-46.24 129.16,-35.18 116.92,-26.28"/>
<polygon fill="#63b8ff" stroke="#63b8ff" points="119.23,-23.64 109.09,-20.59 115.12,-29.3 119.23,-23.64"/>
</a>
</g>
</g>
<!-- Node4 -->
<g id="Node000004" class="node">
<title>Node4</title>
<g id="a_Node000004"><a xlink:title=" ">
<polygon fill="#e0e0e0" stroke="#999999" points="214.75,-19.25 138,-19.25 138,0 214.75,0 214.75,-19.25"/>
<text text-anchor="middle" x="176.38" y="-5.75" font-family="Helvetica,sans-Serif" font-size="10.00">albert/export.h</text>
</a>
</g>
</g>
<!-- Node1&#45;&gt;Node4 -->
<g id="edge3_Node000001_Node000004" class="edge">
<title>Node1&#45;&gt;Node4</title>
<g id="a_edge3_Node000001_Node000004"><a xlink:title=" ">
<path fill="none" stroke="#63b8ff" d="M176.38,-54.95C176.38,-47.71 176.38,-38.84 176.38,-30.94"/>
<polygon fill="#63b8ff" stroke="#63b8ff" points="179.88,-31.21 176.38,-21.21 172.88,-31.21 179.88,-31.21"/>
</a>
</g>
</g>
<!-- Node5 -->
<g id="Node000005" class="node">
<title>Node5</title>
<g id="a_Node000005"><a xlink:title=" ">
<polygon fill="#e0e0e0" stroke="#999999" points="267.75,-19.25 233,-19.25 233,0 267.75,0 267.75,-19.25"/>
<text text-anchor="middle" x="250.38" y="-5.75" font-family="Helvetica,sans-Serif" font-size="10.00">map</text>
</a>
</g>
</g>
<!-- Node1&#45;&gt;Node5 -->
<g id="edge4_Node000001_Node000005" class="edge">
<title>Node1&#45;&gt;Node5</title>
<g id="a_edge4_Node000001_Node000005"><a xlink:title=" ">
<path fill="none" stroke="#63b8ff" d="M194.67,-54.95C205.39,-46.41 218.96,-35.62 230.03,-26.81"/>
<polygon fill="#63b8ff" stroke="#63b8ff" points="232.14,-29.61 237.78,-20.64 227.78,-24.13 232.14,-29.61"/>
</a>
</g>
</g>
<!-- Node6 -->
<g id="Node000006" class="node">
<title>Node6</title>
<g id="a_Node000006"><a xlink:title=" ">
<polygon fill="#e0e0e0" stroke="#999999" points="335.25,-19.25 285.5,-19.25 285.5,0 335.25,0 335.25,-19.25"/>
<text text-anchor="middle" x="310.38" y="-5.75" font-family="Helvetica,sans-Serif" font-size="10.00">optional</text>
</a>
</g>
</g>
<!-- Node1&#45;&gt;Node6 -->
<g id="edge5_Node000001_Node000006" class="edge">
<title>Node1&#45;&gt;Node6</title>
<g id="a_edge5_Node000001_Node000006"><a xlink:title=" ">
<path fill="none" stroke="#63b8ff" d="M209.84,-54.8C231.13,-45.44 258.51,-33.41 279.32,-24.27"/>
<polygon fill="#63b8ff" stroke="#63b8ff" points="280.69,-27.49 288.44,-20.26 277.88,-21.08 280.69,-27.49"/>
</a>
</g>
</g>
</g>
</svg>
