<?xml version="1.0" encoding="UTF-8" standalone="no"?>
<!DOCTYPE svg PUBLIC "-//W3C//DTD SVG 1.1//EN"
 "http://www.w3.org/Graphics/SVG/1.1/DTD/svg11.dtd">
<!-- Generated by graphviz version 9.0.0 (20230911.1827)
 -->
<!-- Title: workspace/albert/include/albert/download.h Pages: 1 -->
<svg width="223pt" height="94pt"
 viewBox="0.00 0.00 223.25 93.75" xmlns="http://www.w3.org/2000/svg" xmlns:xlink="http://www.w3.org/1999/xlink">
<g id="graph0" class="graph" transform="scale(1 1) rotate(0) translate(4 89.75)">
<title>workspace/albert/include/albert/download.h</title>
<!-- Node1 -->
<g id="Node000001" class="node">
<title>Node1</title>
<g id="a_Node000001"><a xlink:title=" ">
<polygon fill="#999999" stroke="#666666" points="170,-85.75 46,-85.75 46,-55.25 170,-55.25 170,-85.75"/>
<text text-anchor="start" x="54" y="-72.25" font-family="Helvetica,sans-Serif" font-size="10.00">workspace/albert/include</text>
<text text-anchor="middle" x="108" y="-61" font-family="Helvetica,sans-Serif" font-size="10.00">/albert/download.h</text>
</a>
</g>
</g>
<!-- Node2 -->
<g id="Node000002" class="node">
<title>Node2</title>
<g id="a_Node000002"><a xlink:title=" ">
<polygon fill="#e0e0e0" stroke="#999999" points="52,-19.25 0,-19.25 0,0 52,0 52,-19.25"/>
<text text-anchor="middle" x="26" y="-5.75" font-family="Helvetica,sans-Serif" font-size="10.00">QObject</text>
</a>
</g>
</g>
<!-- Node1&#45;&gt;Node2 -->
<g id="edge1_Node000001_Node000002" class="edge">
<title>Node1&#45;&gt;Node2</title>
<g id="a_edge1_Node000001_Node000002"><a xlink:title=" ">
<path fill="none" stroke="#63b8ff" d="M87.73,-54.95C75.61,-46.24 60.2,-35.18 47.81,-26.28"/>
<polygon fill="#63b8ff" stroke="#63b8ff" points="50.04,-23.57 39.87,-20.58 45.95,-29.26 50.04,-23.57"/>
</a>
</g>
</g>
<!-- Node3 -->
<g id="Node000003" class="node">
<title>Node3</title>
<g id="a_Node000003"><a xlink:title=" ">
<polygon fill="#e0e0e0" stroke="#999999" points="146.38,-19.25 69.62,-19.25 69.62,0 146.38,0 146.38,-19.25"/>
<text text-anchor="middle" x="108" y="-5.75" font-family="Helvetica,sans-Serif" font-size="10.00">albert/export.h</text>
</a>
</g>
</g>
<!-- Node1&#45;&gt;Node3 -->
<g id="edge2_Node000001_Node000003" class="edge">
<title>Node1&#45;&gt;Node3</title>
<g id="a_edge2_Node000001_Node000003"><a xlink:title=" ">
<path fill="none" stroke="#63b8ff" d="M108,-54.95C108,-47.71 108,-38.84 108,-30.94"/>
<polygon fill="#63b8ff" stroke="#63b8ff" points="111.5,-31.21 108,-21.21 104.5,-31.21 111.5,-31.21"/>
</a>
</g>
</g>
<!-- Node4 -->
<g id="Node000004" class="node">
<title>Node4</title>
<g id="a_Node000004"><a xlink:title=" ">
<polygon fill="#e0e0e0" stroke="#999999" points="215.25,-19.25 164.75,-19.25 164.75,0 215.25,0 215.25,-19.25"/>
<text text-anchor="middle" x="190" y="-5.75" font-family="Helvetica,sans-Serif" font-size="10.00">memory</text>
</a>
</g>
</g>
<!-- Node1&#45;&gt;Node4 -->
<g id="edge3_Node000001_Node000004" class="edge">
<title>Node1&#45;&gt;Node4</title>
<g id="a_edge3_Node000001_Node000004"><a xlink:title=" ">
<path fill="none" stroke="#63b8ff" d="M128.27,-54.95C140.39,-46.24 155.8,-35.18 168.19,-26.28"/>
<polygon fill="#63b8ff" stroke="#63b8ff" points="170.05,-29.26 176.13,-20.58 165.96,-23.57 170.05,-29.26"/>
</a>
</g>
</g>
</g>
</svg>
