<?xml version="1.0" encoding="UTF-8" standalone="no"?>
<!DOCTYPE svg PUBLIC "-//W3C//DTD SVG 1.1//EN"
 "http://www.w3.org/Graphics/SVG/1.1/DTD/svg11.dtd">
<!-- Generated by graphviz version 9.0.0 (20230911.1827)
 -->
<!-- Title: workspace/albert/include/albert/extensionplugin.h Pages: 1 -->
<svg width="523pt" height="149pt"
 viewBox="0.00 0.00 523.00 149.00" xmlns="http://www.w3.org/2000/svg" xmlns:xlink="http://www.w3.org/1999/xlink">
<g id="graph0" class="graph" transform="scale(1 1) rotate(0) translate(4 145)">
<title>workspace/albert/include/albert/extensionplugin.h</title>
<!-- Node1 -->
<g id="Node000001" class="node">
<title>Node1</title>
<g id="a_Node000001"><a xlink:title=" ">
<polygon fill="#999999" stroke="#666666" points="178,-141 54,-141 54,-110.5 178,-110.5 178,-141"/>
<text text-anchor="start" x="62" y="-127.5" font-family="Helvetica,sans-Serif" font-size="10.00">workspace/albert/include</text>
<text text-anchor="middle" x="116" y="-116.25" font-family="Helvetica,sans-Serif" font-size="10.00">/albert/extensionplugin.h</text>
</a>
</g>
</g>
<!-- Node2 -->
<g id="Node000002" class="node">
<title>Node2</title>
<g id="a_Node000002"><a xlink:title=" ">
<polygon fill="#e0e0e0" stroke="#999999" points="52,-19.25 0,-19.25 0,0 52,0 52,-19.25"/>
<text text-anchor="middle" x="26" y="-5.75" font-family="Helvetica,sans-Serif" font-size="10.00">QObject</text>
</a>
</g>
</g>
<!-- Node1&#45;&gt;Node2 -->
<g id="edge1_Node000001_Node000002" class="edge">
<title>Node1&#45;&gt;Node2</title>
<g id="a_edge1_Node000001_Node000002"><a xlink:title=" ">
<path fill="none" stroke="#63b8ff" d="M96.95,-110.04C85.62,-100.67 71.47,-87.82 61,-74.5 50.12,-60.66 40.73,-42.98 34.42,-29.73"/>
<polygon fill="#63b8ff" stroke="#63b8ff" points="37.68,-28.45 30.33,-20.81 31.31,-31.36 37.68,-28.45"/>
</a>
</g>
</g>
<!-- Node3 -->
<g id="Node000003" class="node">
<title>Node3</title>
<g id="a_Node000003"><a xlink:href="extension_8h.html" target="_top" xlink:title=" ">
<polygon fill="white" stroke="#666666" points="161.88,-74.5 70.12,-74.5 70.12,-55.25 161.88,-55.25 161.88,-74.5"/>
<text text-anchor="middle" x="116" y="-61" font-family="Helvetica,sans-Serif" font-size="10.00">albert/extension.h</text>
</a>
</g>
</g>
<!-- Node1&#45;&gt;Node3 -->
<g id="edge2_Node000001_Node000003" class="edge">
<title>Node1&#45;&gt;Node3</title>
<g id="a_edge2_Node000001_Node000003"><a xlink:title=" ">
<path fill="none" stroke="#63b8ff" d="M116,-110.2C116,-102.96 116,-94.09 116,-86.19"/>
<polygon fill="#63b8ff" stroke="#63b8ff" points="119.5,-86.46 116,-76.46 112.5,-86.46 119.5,-86.46"/>
</a>
</g>
</g>
<!-- Node6 -->
<g id="Node000006" class="node">
<title>Node6</title>
<g id="a_Node000006"><a xlink:href="plugininstance_8h.html" target="_top" xlink:title=" ">
<polygon fill="white" stroke="#666666" points="308.38,-74.5 195.62,-74.5 195.62,-55.25 308.38,-55.25 308.38,-74.5"/>
<text text-anchor="middle" x="252" y="-61" font-family="Helvetica,sans-Serif" font-size="10.00">albert/plugininstance.h</text>
</a>
</g>
</g>
<!-- Node1&#45;&gt;Node6 -->
<g id="edge5_Node000001_Node000006" class="edge">
<title>Node1&#45;&gt;Node6</title>
<g id="a_edge5_Node000001_Node000006"><a xlink:title=" ">
<path fill="none" stroke="#63b8ff" d="M149.97,-110.05C171.67,-100.65 199.62,-88.55 220.77,-79.39"/>
<polygon fill="#63b8ff" stroke="#63b8ff" points="221.97,-82.69 229.75,-75.51 219.19,-76.27 221.97,-82.69"/>
</a>
</g>
</g>
<!-- Node4 -->
<g id="Node000004" class="node">
<title>Node4</title>
<g id="a_Node000004"><a xlink:title=" ">
<polygon fill="#e0e0e0" stroke="#999999" points="213.5,-19.25 164.5,-19.25 164.5,0 213.5,0 213.5,-19.25"/>
<text text-anchor="middle" x="189" y="-5.75" font-family="Helvetica,sans-Serif" font-size="10.00">QString</text>
</a>
</g>
</g>
<!-- Node3&#45;&gt;Node4 -->
<g id="edge3_Node000003_Node000004" class="edge">
<title>Node3&#45;&gt;Node4</title>
<g id="a_edge3_Node000003_Node000004"><a xlink:title=" ">
<path fill="none" stroke="#63b8ff" d="M128.38,-54.84C139.15,-46.99 154.97,-35.45 167.75,-26.12"/>
<polygon fill="#63b8ff" stroke="#63b8ff" points="169.56,-29.14 175.58,-20.42 165.44,-23.48 169.56,-29.14"/>
</a>
</g>
</g>
<!-- Node5 -->
<g id="Node000005" class="node">
<title>Node5</title>
<g id="a_Node000005"><a xlink:title=" ">
<polygon fill="#e0e0e0" stroke="#999999" points="146.38,-19.25 69.62,-19.25 69.62,0 146.38,0 146.38,-19.25"/>
<text text-anchor="middle" x="108" y="-5.75" font-family="Helvetica,sans-Serif" font-size="10.00">albert/export.h</text>
</a>
</g>
</g>
<!-- Node3&#45;&gt;Node5 -->
<g id="edge4_Node000003_Node000005" class="edge">
<title>Node3&#45;&gt;Node5</title>
<g id="a_edge4_Node000003_Node000005"><a xlink:title=" ">
<path fill="none" stroke="#63b8ff" d="M114.68,-55.08C113.69,-48.49 112.29,-39.21 111.03,-30.82"/>
<polygon fill="#63b8ff" stroke="#63b8ff" points="114.52,-30.47 109.57,-21.11 107.6,-31.51 114.52,-30.47"/>
</a>
</g>
</g>
<!-- Node6&#45;&gt;Node2 -->
<g id="edge6_Node000006_Node000002" class="edge">
<title>Node6&#45;&gt;Node2</title>
<g id="a_edge6_Node000006_Node000002"><a xlink:title=" ">
<path fill="none" stroke="#63b8ff" d="M212.46,-54.78C176.15,-46.4 120.56,-33.49 63.43,-19.81"/>
<polygon fill="#63b8ff" stroke="#63b8ff" points="64.38,-16.44 53.84,-17.51 62.74,-23.25 64.38,-16.44"/>
</a>
</g>
</g>
<!-- Node6&#45;&gt;Node4 -->
<g id="edge7_Node000006_Node000004" class="edge">
<title>Node6&#45;&gt;Node4</title>
<g id="a_edge7_Node000006_Node000004"><a xlink:title=" ">
<path fill="none" stroke="#63b8ff" d="M241.31,-54.84C232.3,-47.22 219.17,-36.12 208.32,-26.95"/>
<polygon fill="#63b8ff" stroke="#63b8ff" points="210.58,-24.28 200.69,-20.5 206.06,-29.63 210.58,-24.28"/>
</a>
</g>
</g>
<!-- Node6&#45;&gt;Node5 -->
<g id="edge9_Node000006_Node000005" class="edge">
<title>Node6&#45;&gt;Node5</title>
<g id="a_edge9_Node000006_Node000005"><a xlink:title=" ">
<path fill="none" stroke="#63b8ff" d="M227.57,-54.84C204.4,-46.27 169.34,-33.31 143.16,-23.63"/>
<polygon fill="#63b8ff" stroke="#63b8ff" points="144.56,-20.41 133.97,-20.23 142.13,-26.98 144.56,-20.41"/>
</a>
</g>
</g>
<!-- Node7 -->
<g id="Node000007" class="node">
<title>Node7</title>
<g id="a_Node000007"><a xlink:title=" ">
<polygon fill="#e0e0e0" stroke="#999999" points="515,-19.25 439,-19.25 439,0 515,0 515,-19.25"/>
<text text-anchor="middle" x="477" y="-5.75" font-family="Helvetica,sans-Serif" font-size="10.00">albert/config.h</text>
</a>
</g>
</g>
<!-- Node6&#45;&gt;Node7 -->
<g id="edge8_Node000006_Node000007" class="edge">
<title>Node6&#45;&gt;Node7</title>
<g id="a_edge8_Node000006_Node000007"><a xlink:title=" ">
<path fill="none" stroke="#63b8ff" d="M290.42,-54.78C328.28,-45.82 386.29,-32.09 427.57,-22.32"/>
<polygon fill="#63b8ff" stroke="#63b8ff" points="428.34,-25.74 437.26,-20.03 426.73,-18.93 428.34,-25.74"/>
</a>
</g>
</g>
<!-- Node8 -->
<g id="Node000008" class="node">
<title>Node8</title>
<g id="a_Node000008"><a xlink:title=" ">
<polygon fill="#e0e0e0" stroke="#999999" points="290.75,-19.25 231.25,-19.25 231.25,0 290.75,0 290.75,-19.25"/>
<text text-anchor="middle" x="261" y="-5.75" font-family="Helvetica,sans-Serif" font-size="10.00">filesystem</text>
</a>
</g>
</g>
<!-- Node6&#45;&gt;Node8 -->
<g id="edge10_Node000006_Node000008" class="edge">
<title>Node6&#45;&gt;Node8</title>
<g id="a_edge10_Node000006_Node000008"><a xlink:title=" ">
<path fill="none" stroke="#63b8ff" d="M253.49,-55.08C254.6,-48.49 256.17,-39.21 257.59,-30.82"/>
<polygon fill="#63b8ff" stroke="#63b8ff" points="261.01,-31.55 259.23,-21.1 254.11,-30.38 261.01,-31.55"/>
</a>
</g>
</g>
<!-- Node9 -->
<g id="Node000009" class="node">
<title>Node9</title>
<g id="a_Node000009"><a xlink:title=" ">
<polygon fill="#e0e0e0" stroke="#999999" points="359.25,-19.25 308.75,-19.25 308.75,0 359.25,0 359.25,-19.25"/>
<text text-anchor="middle" x="334" y="-5.75" font-family="Helvetica,sans-Serif" font-size="10.00">memory</text>
</a>
</g>
</g>
<!-- Node6&#45;&gt;Node9 -->
<g id="edge11_Node000006_Node000009" class="edge">
<title>Node6&#45;&gt;Node9</title>
<g id="a_edge11_Node000006_Node000009"><a xlink:title=" ">
<path fill="none" stroke="#63b8ff" d="M265.91,-54.84C278.16,-46.89 296.25,-35.14 310.71,-25.75"/>
<polygon fill="#63b8ff" stroke="#63b8ff" points="312.27,-28.91 318.75,-20.53 308.46,-23.04 312.27,-28.91"/>
</a>
</g>
</g>
<!-- Node10 -->
<g id="Node000010" class="node">
<title>Node10</title>
<g id="a_Node000010"><a xlink:title=" ">
<polygon fill="#e0e0e0" stroke="#999999" points="420.5,-19.25 377.5,-19.25 377.5,0 420.5,0 420.5,-19.25"/>
<text text-anchor="middle" x="399" y="-5.75" font-family="Helvetica,sans-Serif" font-size="10.00">vector</text>
</a>
</g>
</g>
<!-- Node6&#45;&gt;Node10 -->
<g id="edge12_Node000006_Node000010" class="edge">
<title>Node6&#45;&gt;Node10</title>
<g id="a_edge12_Node000006_Node000010"><a xlink:title=" ">
<path fill="none" stroke="#63b8ff" d="M276.94,-54.84C301.7,-45.87 339.78,-32.08 366.82,-22.28"/>
<polygon fill="#63b8ff" stroke="#63b8ff" points="367.67,-25.7 375.88,-19 365.28,-19.12 367.67,-25.7"/>
</a>
</g>
</g>
</g>
</svg>
