<?xml version="1.0" encoding="UTF-8" standalone="no"?>
<!DOCTYPE svg PUBLIC "-//W3C//DTD SVG 1.1//EN"
 "http://www.w3.org/Graphics/SVG/1.1/DTD/svg11.dtd">
<!-- Generated by graphviz version 9.0.0 (20230911.1827)
 -->
<!-- Title: workspace/albert/include/albert/extensionwatcher.h Pages: 1 -->
<svg width="307pt" height="204pt"
 viewBox="0.00 0.00 306.50 204.25" xmlns="http://www.w3.org/2000/svg" xmlns:xlink="http://www.w3.org/1999/xlink">
<g id="graph0" class="graph" transform="scale(1 1) rotate(0) translate(4 200.25)">
<title>workspace/albert/include/albert/extensionwatcher.h</title>
<!-- Node1 -->
<g id="Node000001" class="node">
<title>Node1</title>
<g id="a_Node000001"><a xlink:title=" ">
<polygon fill="#999999" stroke="#666666" points="129.25,-196.25 0,-196.25 0,-165.75 129.25,-165.75 129.25,-196.25"/>
<text text-anchor="start" x="8" y="-182.75" font-family="Helvetica,sans-Serif" font-size="10.00">workspace/albert/include</text>
<text text-anchor="middle" x="64.62" y="-171.5" font-family="Helvetica,sans-Serif" font-size="10.00">/albert/extensionwatcher.h</text>
</a>
</g>
</g>
<!-- Node2 -->
<g id="Node000002" class="node">
<title>Node2</title>
<g id="a_Node000002"><a xlink:title=" ">
<polygon fill="#e0e0e0" stroke="#999999" points="98.62,-74.5 46.62,-74.5 46.62,-55.25 98.62,-55.25 98.62,-74.5"/>
<text text-anchor="middle" x="72.62" y="-61" font-family="Helvetica,sans-Serif" font-size="10.00">QObject</text>
</a>
</g>
</g>
<!-- Node1&#45;&gt;Node2 -->
<g id="edge1_Node000001_Node000002" class="edge">
<title>Node1&#45;&gt;Node2</title>
<g id="a_edge1_Node000001_Node000002"><a xlink:title=" ">
<path fill="none" stroke="#63b8ff" d="M65.64,-165.55C67.04,-145.5 69.59,-109.15 71.19,-86.32"/>
<polygon fill="#63b8ff" stroke="#63b8ff" points="74.68,-86.68 71.88,-76.46 67.69,-86.19 74.68,-86.68"/>
</a>
</g>
</g>
<!-- Node3 -->
<g id="Node000003" class="node">
<title>Node3</title>
<g id="a_Node000003"><a xlink:title=" ">
<polygon fill="#e0e0e0" stroke="#999999" points="213,-19.25 136.25,-19.25 136.25,0 213,0 213,-19.25"/>
<text text-anchor="middle" x="174.62" y="-5.75" font-family="Helvetica,sans-Serif" font-size="10.00">albert/export.h</text>
</a>
</g>
</g>
<!-- Node1&#45;&gt;Node3 -->
<g id="edge2_Node000001_Node000003" class="edge">
<title>Node1&#45;&gt;Node3</title>
<g id="a_edge2_Node000001_Node000003"><a xlink:title=" ">
<path fill="none" stroke="#63b8ff" d="M54.74,-165.41C39.18,-140.44 13.15,-88.96 37.62,-55.25 57.37,-28.06 94.12,-17.11 124.59,-12.86"/>
<polygon fill="#63b8ff" stroke="#63b8ff" points="124.88,-16.35 134.4,-11.71 124.06,-9.39 124.88,-16.35"/>
</a>
</g>
</g>
<!-- Node4 -->
<g id="Node000004" class="node">
<title>Node4</title>
<g id="a_Node000004"><a xlink:href="extensionregistry_8h.html" target="_top" xlink:title=" ">
<polygon fill="white" stroke="#666666" points="216.25,-129.75 93,-129.75 93,-110.5 216.25,-110.5 216.25,-129.75"/>
<text text-anchor="middle" x="154.62" y="-116.25" font-family="Helvetica,sans-Serif" font-size="10.00">albert/extensionregistry.h</text>
</a>
</g>
</g>
<!-- Node1&#45;&gt;Node4 -->
<g id="edge3_Node000001_Node000004" class="edge">
<title>Node1&#45;&gt;Node4</title>
<g id="a_edge3_Node000001_Node000004"><a xlink:title=" ">
<path fill="none" stroke="#63b8ff" d="M86.87,-165.45C100.44,-156.57 117.76,-145.24 131.49,-136.26"/>
<polygon fill="#63b8ff" stroke="#63b8ff" points="133.03,-139.43 139.48,-131.03 129.2,-133.58 133.03,-139.43"/>
</a>
</g>
</g>
<!-- Node4&#45;&gt;Node2 -->
<g id="edge4_Node000004_Node000002" class="edge">
<title>Node4&#45;&gt;Node2</title>
<g id="a_edge4_Node000004_Node000002"><a xlink:title=" ">
<path fill="none" stroke="#63b8ff" d="M140.71,-110.09C128.46,-102.14 110.37,-90.39 95.91,-81"/>
<polygon fill="#63b8ff" stroke="#63b8ff" points="98.17,-78.29 87.87,-75.78 94.35,-84.16 98.17,-78.29"/>
</a>
</g>
</g>
<!-- Node4&#45;&gt;Node3 -->
<g id="edge5_Node000004_Node000003" class="edge">
<title>Node4&#45;&gt;Node3</title>
<g id="a_edge5_Node000004_Node000003"><a xlink:title=" ">
<path fill="none" stroke="#63b8ff" d="M156.26,-110.25C159.44,-93 166.52,-54.58 170.9,-30.81"/>
<polygon fill="#63b8ff" stroke="#63b8ff" points="174.32,-31.58 172.69,-21.12 167.44,-30.31 174.32,-31.58"/>
</a>
</g>
</g>
<!-- Node5 -->
<g id="Node000005" class="node">
<title>Node5</title>
<g id="a_Node000005"><a xlink:href="extension_8h.html" target="_top" xlink:title=" ">
<polygon fill="white" stroke="#666666" points="298.5,-74.5 206.75,-74.5 206.75,-55.25 298.5,-55.25 298.5,-74.5"/>
<text text-anchor="middle" x="252.62" y="-61" font-family="Helvetica,sans-Serif" font-size="10.00">albert/extension.h</text>
</a>
</g>
</g>
<!-- Node4&#45;&gt;Node5 -->
<g id="edge6_Node000004_Node000005" class="edge">
<title>Node4&#45;&gt;Node5</title>
<g id="a_edge6_Node000004_Node000005"><a xlink:title=" ">
<path fill="none" stroke="#63b8ff" d="M171.25,-110.09C186.31,-101.91 208.77,-89.71 226.28,-80.19"/>
<polygon fill="#63b8ff" stroke="#63b8ff" points="227.47,-83.52 234.59,-75.68 224.13,-77.37 227.47,-83.52"/>
</a>
</g>
</g>
<!-- Node7 -->
<g id="Node000007" class="node">
<title>Node7</title>
<g id="a_Node000007"><a xlink:title=" ">
<polygon fill="#e0e0e0" stroke="#999999" points="151,-74.5 116.25,-74.5 116.25,-55.25 151,-55.25 151,-74.5"/>
<text text-anchor="middle" x="133.62" y="-61" font-family="Helvetica,sans-Serif" font-size="10.00">map</text>
</a>
</g>
</g>
<!-- Node4&#45;&gt;Node7 -->
<g id="edge9_Node000004_Node000007" class="edge">
<title>Node4&#45;&gt;Node7</title>
<g id="a_edge9_Node000004_Node000007"><a xlink:title=" ">
<path fill="none" stroke="#63b8ff" d="M151.16,-110.33C148.5,-103.59 144.73,-94.02 141.36,-85.49"/>
<polygon fill="#63b8ff" stroke="#63b8ff" points="144.65,-84.29 137.72,-76.27 138.14,-86.85 144.65,-84.29"/>
</a>
</g>
</g>
<!-- Node5&#45;&gt;Node3 -->
<g id="edge8_Node000005_Node000003" class="edge">
<title>Node5&#45;&gt;Node3</title>
<g id="a_edge8_Node000005_Node000003"><a xlink:title=" ">
<path fill="none" stroke="#63b8ff" d="M239.39,-54.84C227.85,-46.96 210.86,-35.36 197.18,-26.02"/>
<polygon fill="#63b8ff" stroke="#63b8ff" points="199.4,-23.3 189.17,-20.56 195.46,-29.08 199.4,-23.3"/>
</a>
</g>
</g>
<!-- Node6 -->
<g id="Node000006" class="node">
<title>Node6</title>
<g id="a_Node000006"><a xlink:title=" ">
<polygon fill="#e0e0e0" stroke="#999999" points="280.12,-19.25 231.12,-19.25 231.12,0 280.12,0 280.12,-19.25"/>
<text text-anchor="middle" x="255.62" y="-5.75" font-family="Helvetica,sans-Serif" font-size="10.00">QString</text>
</a>
</g>
</g>
<!-- Node5&#45;&gt;Node6 -->
<g id="edge7_Node000005_Node000006" class="edge">
<title>Node5&#45;&gt;Node6</title>
<g id="a_edge7_Node000005_Node000006"><a xlink:title=" ">
<path fill="none" stroke="#63b8ff" d="M253.12,-55.08C253.49,-48.49 254.01,-39.21 254.49,-30.82"/>
<polygon fill="#63b8ff" stroke="#63b8ff" points="257.97,-31.3 255.03,-21.12 250.98,-30.91 257.97,-31.3"/>
</a>
</g>
</g>
</g>
</svg>
