<?xml version="1.0" encoding="UTF-8" standalone="no"?>
<!DOCTYPE svg PUBLIC "-//W3C//DTD SVG 1.1//EN"
 "http://www.w3.org/Graphics/SVG/1.1/DTD/svg11.dtd">
<!-- Generated by graphviz version 9.0.0 (20230911.1827)
 -->
<!-- Title: workspace/albert/include/albert/extension.h Pages: 1 -->
<svg width="990pt" height="371pt"
 viewBox="0.00 0.00 990.00 371.00" xmlns="http://www.w3.org/2000/svg" xmlns:xlink="http://www.w3.org/1999/xlink">
<g id="graph0" class="graph" transform="scale(1 1) rotate(0) translate(4 367)">
<title>workspace/albert/include/albert/extension.h</title>
<!-- Node1 -->
<g id="Node000001" class="node">
<title>Node1</title>
<g id="a_Node000001"><a xlink:title=" ">
<polygon fill="#999999" stroke="#666666" points="552,-363 428,-363 428,-332.5 552,-332.5 552,-363"/>
<text text-anchor="start" x="436" y="-349.5" font-family="Helvetica,sans-Serif" font-size="10.00">workspace/albert/include</text>
<text text-anchor="middle" x="490" y="-338.25" font-family="Helvetica,sans-Serif" font-size="10.00">/albert/extension.h</text>
</a>
</g>
</g>
<!-- Node2 -->
<g id="Node000002" class="node">
<title>Node2</title>
<g id="a_Node000002"><a xlink:href="extensionplugin_8h.html" target="_top" xlink:title=" ">
<polygon fill="white" stroke="#666666" points="124,-296.5 0,-296.5 0,-266 124,-266 124,-296.5"/>
<text text-anchor="start" x="8" y="-283" font-family="Helvetica,sans-Serif" font-size="10.00">workspace/albert/include</text>
<text text-anchor="middle" x="62" y="-271.75" font-family="Helvetica,sans-Serif" font-size="10.00">/albert/extensionplugin.h</text>
</a>
</g>
</g>
<!-- Node1&#45;&gt;Node2 -->
<g id="edge1_Node000001_Node000002" class="edge">
<title>Node1&#45;&gt;Node2</title>
<g id="a_edge1_Node000001_Node000002"><a xlink:title=" ">
<path fill="none" stroke="#63b8ff" d="M416.35,-337.66C344.03,-328.43 230.66,-313.16 133,-296.5 130.15,-296.01 127.24,-295.5 124.3,-294.97"/>
<polygon fill="#63b8ff" stroke="#63b8ff" points="415.73,-341.11 426.09,-338.89 416.61,-334.16 415.73,-341.11"/>
</a>
</g>
</g>
<!-- Node3 -->
<g id="Node000003" class="node">
<title>Node3</title>
<g id="a_Node000003"><a xlink:href="extensionregistry_8h.html" target="_top" xlink:title=" ">
<polygon fill="white" stroke="#666666" points="268.12,-296.5 141.88,-296.5 141.88,-266 268.12,-266 268.12,-296.5"/>
<text text-anchor="start" x="149.88" y="-283" font-family="Helvetica,sans-Serif" font-size="10.00">workspace/albert/include</text>
<text text-anchor="middle" x="205" y="-271.75" font-family="Helvetica,sans-Serif" font-size="10.00">/albert/extensionregistry.h</text>
</a>
</g>
</g>
<!-- Node1&#45;&gt;Node3 -->
<g id="edge2_Node000001_Node000003" class="edge">
<title>Node1&#45;&gt;Node3</title>
<g id="a_edge2_Node000001_Node000003"><a xlink:title=" ">
<path fill="none" stroke="#63b8ff" d="M416.74,-330.17C370.9,-319.79 312.42,-306.56 268.54,-296.63"/>
<polygon fill="#63b8ff" stroke="#63b8ff" points="415.81,-333.55 426.33,-332.34 417.35,-326.72 415.81,-333.55"/>
</a>
</g>
</g>
<!-- Node5 -->
<g id="Node000005" class="node">
<title>Node5</title>
<g id="a_Node000005"><a xlink:href="fallbackhandler_8h.html" target="_top" xlink:title=" ">
<polygon fill="white" stroke="#666666" points="410,-296.5 286,-296.5 286,-266 410,-266 410,-296.5"/>
<text text-anchor="start" x="294" y="-283" font-family="Helvetica,sans-Serif" font-size="10.00">workspace/albert/include</text>
<text text-anchor="middle" x="348" y="-271.75" font-family="Helvetica,sans-Serif" font-size="10.00">/albert/fallbackhandler.h</text>
</a>
</g>
</g>
<!-- Node1&#45;&gt;Node5 -->
<g id="edge4_Node000001_Node000005" class="edge">
<title>Node1&#45;&gt;Node5</title>
<g id="a_edge4_Node000001_Node000005"><a xlink:title=" ">
<path fill="none" stroke="#63b8ff" d="M447.54,-327.47C425.91,-317.64 400.04,-305.89 380.09,-296.83"/>
<polygon fill="#63b8ff" stroke="#63b8ff" points="445.85,-330.54 456.4,-331.49 448.74,-324.17 445.85,-330.54"/>
</a>
</g>
</g>
<!-- Node6 -->
<g id="Node000006" class="node">
<title>Node6</title>
<g id="a_Node000006"><a xlink:href="pluginprovider_8h.html" target="_top" xlink:title=" ">
<polygon fill="white" stroke="#666666" points="552,-296.5 428,-296.5 428,-266 552,-266 552,-296.5"/>
<text text-anchor="start" x="436" y="-283" font-family="Helvetica,sans-Serif" font-size="10.00">workspace/albert/include</text>
<text text-anchor="middle" x="490" y="-271.75" font-family="Helvetica,sans-Serif" font-size="10.00">/albert/pluginprovider.h</text>
</a>
</g>
</g>
<!-- Node1&#45;&gt;Node6 -->
<g id="edge5_Node000001_Node000006" class="edge">
<title>Node1&#45;&gt;Node6</title>
<g id="a_edge5_Node000001_Node000006"><a xlink:title=" ">
<path fill="none" stroke="#63b8ff" d="M490,-320.81C490,-312.64 490,-303.91 490,-296.83"/>
<polygon fill="#63b8ff" stroke="#63b8ff" points="486.5,-320.6 490,-330.6 493.5,-320.6 486.5,-320.6"/>
</a>
</g>
</g>
<!-- Node7 -->
<g id="Node000007" class="node">
<title>Node7</title>
<g id="a_Node000007"><a xlink:href="queryhandler_8h.html" target="_top" xlink:title=" ">
<polygon fill="white" stroke="#666666" points="694,-296.5 570,-296.5 570,-266 694,-266 694,-296.5"/>
<text text-anchor="start" x="578" y="-283" font-family="Helvetica,sans-Serif" font-size="10.00">workspace/albert/include</text>
<text text-anchor="middle" x="632" y="-271.75" font-family="Helvetica,sans-Serif" font-size="10.00">/albert/queryhandler.h</text>
</a>
</g>
</g>
<!-- Node1&#45;&gt;Node7 -->
<g id="edge6_Node000001_Node000007" class="edge">
<title>Node1&#45;&gt;Node7</title>
<g id="a_edge6_Node000001_Node000007"><a xlink:title=" ">
<path fill="none" stroke="#63b8ff" d="M532.46,-327.47C554.09,-317.64 579.96,-305.89 599.91,-296.83"/>
<polygon fill="#63b8ff" stroke="#63b8ff" points="531.26,-324.17 523.6,-331.49 534.15,-330.54 531.26,-324.17"/>
</a>
</g>
</g>
<!-- Node13 -->
<g id="Node000013" class="node">
<title>Node13</title>
<g id="a_Node000013"><a xlink:href="telemetryprovider_8h.html" target="_top" xlink:title=" ">
<polygon fill="white" stroke="#666666" points="839.88,-296.5 712.12,-296.5 712.12,-266 839.88,-266 839.88,-296.5"/>
<text text-anchor="start" x="720.12" y="-283" font-family="Helvetica,sans-Serif" font-size="10.00">workspace/albert/include</text>
<text text-anchor="middle" x="776" y="-271.75" font-family="Helvetica,sans-Serif" font-size="10.00">/albert/telemetryprovider.h</text>
</a>
</g>
</g>
<!-- Node1&#45;&gt;Node13 -->
<g id="edge12_Node000001_Node000013" class="edge">
<title>Node1&#45;&gt;Node13</title>
<g id="a_edge12_Node000001_Node000013"><a xlink:title=" ">
<path fill="none" stroke="#63b8ff" d="M563.48,-330.18C609.32,-319.84 667.75,-306.66 711.74,-296.74"/>
<polygon fill="#63b8ff" stroke="#63b8ff" points="562.87,-326.73 553.89,-332.34 564.41,-333.56 562.87,-326.73"/>
</a>
</g>
</g>
<!-- Node14 -->
<g id="Node000014" class="node">
<title>Node14</title>
<g id="a_Node000014"><a xlink:href="urlhandler_8h.html" target="_top" xlink:title=" ">
<polygon fill="white" stroke="#666666" points="982,-296.5 858,-296.5 858,-266 982,-266 982,-296.5"/>
<text text-anchor="start" x="866" y="-283" font-family="Helvetica,sans-Serif" font-size="10.00">workspace/albert/include</text>
<text text-anchor="middle" x="920" y="-271.75" font-family="Helvetica,sans-Serif" font-size="10.00">/albert/urlhandler.h</text>
</a>
</g>
</g>
<!-- Node1&#45;&gt;Node14 -->
<g id="edge13_Node000001_Node000014" class="edge">
<title>Node1&#45;&gt;Node14</title>
<g id="a_edge13_Node000001_Node000014"><a xlink:title=" ">
<path fill="none" stroke="#63b8ff" d="M563.74,-337.72C636.45,-328.51 750.65,-313.24 849,-296.5 851.85,-296.01 854.76,-295.5 857.7,-294.97"/>
<polygon fill="#63b8ff" stroke="#63b8ff" points="563.42,-334.23 553.93,-338.96 564.29,-341.18 563.42,-334.23"/>
</a>
</g>
</g>
<!-- Node4 -->
<g id="Node000004" class="node">
<title>Node4</title>
<g id="a_Node000004"><a xlink:href="plugindependency_8h.html" target="_top" xlink:title=" ">
<polygon fill="white" stroke="#666666" points="270.38,-230 139.62,-230 139.62,-199.5 270.38,-199.5 270.38,-230"/>
<text text-anchor="start" x="147.62" y="-216.5" font-family="Helvetica,sans-Serif" font-size="10.00">workspace/albert/include</text>
<text text-anchor="middle" x="205" y="-205.25" font-family="Helvetica,sans-Serif" font-size="10.00">/albert/plugindependency.h</text>
</a>
</g>
</g>
<!-- Node3&#45;&gt;Node4 -->
<g id="edge3_Node000003_Node000004" class="edge">
<title>Node3&#45;&gt;Node4</title>
<g id="a_edge3_Node000003_Node000004"><a xlink:title=" ">
<path fill="none" stroke="#63b8ff" d="M205,-254.31C205,-246.14 205,-237.41 205,-230.33"/>
<polygon fill="#63b8ff" stroke="#63b8ff" points="201.5,-254.1 205,-264.1 208.5,-254.1 201.5,-254.1"/>
</a>
</g>
</g>
<!-- Node8 -->
<g id="Node000008" class="node">
<title>Node8</title>
<g id="a_Node000008"><a xlink:href="asyncgeneratorqueryhandler_8h.html" target="_top" xlink:title=" ">
<polygon fill="white" stroke="#666666" points="629.12,-230 454.88,-230 454.88,-199.5 629.12,-199.5 629.12,-230"/>
<text text-anchor="start" x="462.88" y="-216.5" font-family="Helvetica,sans-Serif" font-size="10.00">workspace/albert/include</text>
<text text-anchor="middle" x="542" y="-205.25" font-family="Helvetica,sans-Serif" font-size="10.00">/albert/asyncgeneratorqueryhandler.h</text>
</a>
</g>
</g>
<!-- Node7&#45;&gt;Node8 -->
<g id="edge7_Node000007_Node000008" class="edge">
<title>Node7&#45;&gt;Node8</title>
<g id="a_edge7_Node000007_Node000008"><a xlink:title=" ">
<path fill="none" stroke="#63b8ff" d="M602.44,-259.07C589.31,-249.66 574.18,-238.81 562.34,-230.33"/>
<polygon fill="#63b8ff" stroke="#63b8ff" points="600.18,-261.75 610.35,-264.73 604.26,-256.06 600.18,-261.75"/>
</a>
</g>
</g>
<!-- Node9 -->
<g id="Node000009" class="node">
<title>Node9</title>
<g id="a_Node000009"><a xlink:href="generatorqueryhandler_8h.html" target="_top" xlink:title=" ">
<polygon fill="white" stroke="#666666" points="796.38,-230 647.62,-230 647.62,-199.5 796.38,-199.5 796.38,-230"/>
<text text-anchor="start" x="655.62" y="-216.5" font-family="Helvetica,sans-Serif" font-size="10.00">workspace/albert/include</text>
<text text-anchor="middle" x="722" y="-205.25" font-family="Helvetica,sans-Serif" font-size="10.00">/albert/generatorqueryhandler.h</text>
</a>
</g>
</g>
<!-- Node7&#45;&gt;Node9 -->
<g id="edge8_Node000007_Node000009" class="edge">
<title>Node7&#45;&gt;Node9</title>
<g id="a_edge8_Node000007_Node000009"><a xlink:title=" ">
<path fill="none" stroke="#63b8ff" d="M661.56,-259.07C674.69,-249.66 689.82,-238.81 701.66,-230.33"/>
<polygon fill="#63b8ff" stroke="#63b8ff" points="659.74,-256.06 653.65,-264.73 663.82,-261.75 659.74,-256.06"/>
</a>
</g>
</g>
<!-- Node10 -->
<g id="Node000010" class="node">
<title>Node10</title>
<g id="a_Node000010"><a xlink:href="rankedqueryhandler_8h.html" target="_top" xlink:title=" ">
<polygon fill="white" stroke="#666666" points="790.75,-163.5 653.25,-163.5 653.25,-133 790.75,-133 790.75,-163.5"/>
<text text-anchor="start" x="661.25" y="-150" font-family="Helvetica,sans-Serif" font-size="10.00">workspace/albert/include</text>
<text text-anchor="middle" x="722" y="-138.75" font-family="Helvetica,sans-Serif" font-size="10.00">/albert/rankedqueryhandler.h</text>
</a>
</g>
</g>
<!-- Node9&#45;&gt;Node10 -->
<g id="edge9_Node000009_Node000010" class="edge">
<title>Node9&#45;&gt;Node10</title>
<g id="a_edge9_Node000009_Node000010"><a xlink:title=" ">
<path fill="none" stroke="#63b8ff" d="M722,-187.81C722,-179.64 722,-170.91 722,-163.83"/>
<polygon fill="#63b8ff" stroke="#63b8ff" points="718.5,-187.6 722,-197.6 725.5,-187.6 718.5,-187.6"/>
</a>
</g>
</g>
<!-- Node11 -->
<g id="Node000011" class="node">
<title>Node11</title>
<g id="a_Node000011"><a xlink:href="globalqueryhandler_8h.html" target="_top" xlink:title=" ">
<polygon fill="white" stroke="#666666" points="788.88,-97 655.12,-97 655.12,-66.5 788.88,-66.5 788.88,-97"/>
<text text-anchor="start" x="663.12" y="-83.5" font-family="Helvetica,sans-Serif" font-size="10.00">workspace/albert/include</text>
<text text-anchor="middle" x="722" y="-72.25" font-family="Helvetica,sans-Serif" font-size="10.00">/albert/globalqueryhandler.h</text>
</a>
</g>
</g>
<!-- Node10&#45;&gt;Node11 -->
<g id="edge10_Node000010_Node000011" class="edge">
<title>Node10&#45;&gt;Node11</title>
<g id="a_edge10_Node000010_Node000011"><a xlink:title=" ">
<path fill="none" stroke="#63b8ff" d="M722,-121.31C722,-113.14 722,-104.41 722,-97.33"/>
<polygon fill="#63b8ff" stroke="#63b8ff" points="718.5,-121.1 722,-131.1 725.5,-121.1 718.5,-121.1"/>
</a>
</g>
</g>
<!-- Node12 -->
<g id="Node000012" class="node">
<title>Node12</title>
<g id="a_Node000012"><a xlink:href="indexqueryhandler_8h.html" target="_top" xlink:title=" ">
<polygon fill="white" stroke="#666666" points="787.38,-30.5 656.62,-30.5 656.62,0 787.38,0 787.38,-30.5"/>
<text text-anchor="start" x="664.62" y="-17" font-family="Helvetica,sans-Serif" font-size="10.00">workspace/albert/include</text>
<text text-anchor="middle" x="722" y="-5.75" font-family="Helvetica,sans-Serif" font-size="10.00">/albert/indexqueryhandler.h</text>
</a>
</g>
</g>
<!-- Node11&#45;&gt;Node12 -->
<g id="edge11_Node000011_Node000012" class="edge">
<title>Node11&#45;&gt;Node12</title>
<g id="a_edge11_Node000011_Node000012"><a xlink:title=" ">
<path fill="none" stroke="#63b8ff" d="M722,-54.81C722,-46.64 722,-37.91 722,-30.83"/>
<polygon fill="#63b8ff" stroke="#63b8ff" points="718.5,-54.6 722,-64.6 725.5,-54.6 718.5,-54.6"/>
</a>
</g>
</g>
</g>
</svg>
