<?xml version="1.0" encoding="UTF-8" standalone="no"?>
<!DOCTYPE svg PUBLIC "-//W3C//DTD SVG 1.1//EN"
 "http://www.w3.org/Graphics/SVG/1.1/DTD/svg11.dtd">
<!-- Generated by graphviz version 9.0.0 (20230911.1827)
 -->
<!-- Title: workspace/albert/include/albert/extensionplugin.h Pages: 1 -->
<svg width="484pt" height="149pt"
 viewBox="0.00 0.00 483.75 149.00" xmlns="http://www.w3.org/2000/svg" xmlns:xlink="http://www.w3.org/1999/xlink">
<g id="graph0" class="graph" transform="scale(1 1) rotate(0) translate(4 145)">
<title>workspace/albert/include/albert/extensionplugin.h</title>
<!-- Node1 -->
<g id="Node000001" class="node">
<title>Node1</title>
<g id="a_Node000001"><a xlink:title=" ">
<polygon fill="#999999" stroke="#666666" points="178,-141 54,-141 54,-110.5 178,-110.5 178,-141"/>
<text text-anchor="start" x="62" y="-127.5" font-family="Helvetica,sans-Serif" font-size="10.00">workspace/albert/include</text>
<text text-anchor="middle" x="116" y="-116.25" font-family="Helvetica,sans-Serif" font-size="10.00">/albert/extensionplugin.h</text>
</a>
</g>
</g>
<!-- Node2 -->
<g id="Node000002" class="node">
<title>Node2</title>
<g id="a_Node000002"><a xlink:title=" ">
<polygon fill="#e0e0e0" stroke="#999999" points="52,-74.5 0,-74.5 0,-55.25 52,-55.25 52,-74.5"/>
<text text-anchor="middle" x="26" y="-61" font-family="Helvetica,sans-Serif" font-size="10.00">QObject</text>
</a>
</g>
</g>
<!-- Node1&#45;&gt;Node2 -->
<g id="edge1_Node000001_Node000002" class="edge">
<title>Node1&#45;&gt;Node2</title>
<g id="a_edge1_Node000001_Node000002"><a xlink:title=" ">
<path fill="none" stroke="#63b8ff" d="M93.75,-110.2C80.18,-101.32 62.86,-89.99 49.13,-81.01"/>
<polygon fill="#63b8ff" stroke="#63b8ff" points="51.43,-78.33 41.14,-75.78 47.59,-84.18 51.43,-78.33"/>
</a>
</g>
</g>
<!-- Node3 -->
<g id="Node000003" class="node">
<title>Node3</title>
<g id="a_Node000003"><a xlink:href="extension_8h.html" target="_top" xlink:title=" ">
<polygon fill="white" stroke="#666666" points="161.88,-74.5 70.12,-74.5 70.12,-55.25 161.88,-55.25 161.88,-74.5"/>
<text text-anchor="middle" x="116" y="-61" font-family="Helvetica,sans-Serif" font-size="10.00">albert/extension.h</text>
</a>
</g>
</g>
<!-- Node1&#45;&gt;Node3 -->
<g id="edge2_Node000001_Node000003" class="edge">
<title>Node1&#45;&gt;Node3</title>
<g id="a_edge2_Node000001_Node000003"><a xlink:title=" ">
<path fill="none" stroke="#63b8ff" d="M116,-110.2C116,-102.96 116,-94.09 116,-86.19"/>
<polygon fill="#63b8ff" stroke="#63b8ff" points="119.5,-86.46 116,-76.46 112.5,-86.46 119.5,-86.46"/>
</a>
</g>
</g>
<!-- Node6 -->
<g id="Node000006" class="node">
<title>Node6</title>
<g id="a_Node000006"><a xlink:href="plugininstance_8h.html" target="_top" xlink:title=" ">
<polygon fill="white" stroke="#666666" points="292.38,-74.5 179.62,-74.5 179.62,-55.25 292.38,-55.25 292.38,-74.5"/>
<text text-anchor="middle" x="236" y="-61" font-family="Helvetica,sans-Serif" font-size="10.00">albert/plugininstance.h</text>
</a>
</g>
</g>
<!-- Node1&#45;&gt;Node6 -->
<g id="edge5_Node000001_Node000006" class="edge">
<title>Node1&#45;&gt;Node6</title>
<g id="a_edge5_Node000001_Node000006"><a xlink:title=" ">
<path fill="none" stroke="#63b8ff" d="M145.97,-110.05C164.77,-100.82 188.88,-89 207.41,-79.9"/>
<polygon fill="#63b8ff" stroke="#63b8ff" points="208.8,-83.12 216.24,-75.57 205.72,-76.83 208.8,-83.12"/>
</a>
</g>
</g>
<!-- Node4 -->
<g id="Node000004" class="node">
<title>Node4</title>
<g id="a_Node000004"><a xlink:title=" ">
<polygon fill="#e0e0e0" stroke="#999999" points="78.5,-19.25 29.5,-19.25 29.5,0 78.5,0 78.5,-19.25"/>
<text text-anchor="middle" x="54" y="-5.75" font-family="Helvetica,sans-Serif" font-size="10.00">QString</text>
</a>
</g>
</g>
<!-- Node3&#45;&gt;Node4 -->
<g id="edge3_Node000003_Node000004" class="edge">
<title>Node3&#45;&gt;Node4</title>
<g id="a_edge3_Node000003_Node000004"><a xlink:title=" ">
<path fill="none" stroke="#63b8ff" d="M105.48,-54.84C96.61,-47.22 83.69,-36.12 73.01,-26.95"/>
<polygon fill="#63b8ff" stroke="#63b8ff" points="75.38,-24.37 65.51,-20.51 70.82,-29.68 75.38,-24.37"/>
</a>
</g>
</g>
<!-- Node5 -->
<g id="Node000005" class="node">
<title>Node5</title>
<g id="a_Node000005"><a xlink:title=" ">
<polygon fill="#e0e0e0" stroke="#999999" points="173.38,-19.25 96.62,-19.25 96.62,0 173.38,0 173.38,-19.25"/>
<text text-anchor="middle" x="135" y="-5.75" font-family="Helvetica,sans-Serif" font-size="10.00">albert/export.h</text>
</a>
</g>
</g>
<!-- Node3&#45;&gt;Node5 -->
<g id="edge4_Node000003_Node000005" class="edge">
<title>Node3&#45;&gt;Node5</title>
<g id="a_edge4_Node000003_Node000005"><a xlink:title=" ">
<path fill="none" stroke="#63b8ff" d="M119.14,-55.08C121.54,-48.34 124.96,-38.77 128,-30.24"/>
<polygon fill="#63b8ff" stroke="#63b8ff" points="131.22,-31.63 131.29,-21.03 124.63,-29.28 131.22,-31.63"/>
</a>
</g>
</g>
<!-- Node6&#45;&gt;Node4 -->
<g id="edge6_Node000006_Node000004" class="edge">
<title>Node6&#45;&gt;Node4</title>
<g id="a_edge6_Node000006_Node000004"><a xlink:title=" ">
<path fill="none" stroke="#63b8ff" d="M205.13,-54.84C173.14,-45.48 123.23,-30.88 89.6,-21.04"/>
<polygon fill="#63b8ff" stroke="#63b8ff" points="90.91,-17.78 80.33,-18.33 88.94,-24.49 90.91,-17.78"/>
</a>
</g>
</g>
<!-- Node6&#45;&gt;Node5 -->
<g id="edge8_Node000006_Node000005" class="edge">
<title>Node6&#45;&gt;Node5</title>
<g id="a_edge8_Node000006_Node000005"><a xlink:title=" ">
<path fill="none" stroke="#63b8ff" d="M218.87,-54.84C203.34,-46.66 180.2,-34.46 162.16,-24.94"/>
<polygon fill="#63b8ff" stroke="#63b8ff" points="164.03,-21.98 153.56,-20.41 160.77,-28.17 164.03,-21.98"/>
</a>
</g>
</g>
<!-- Node7 -->
<g id="Node000007" class="node">
<title>Node7</title>
<g id="a_Node000007"><a xlink:title=" ">
<polygon fill="#e0e0e0" stroke="#999999" points="398,-19.25 322,-19.25 322,0 398,0 398,-19.25"/>
<text text-anchor="middle" x="360" y="-5.75" font-family="Helvetica,sans-Serif" font-size="10.00">albert/config.h</text>
</a>
</g>
</g>
<!-- Node6&#45;&gt;Node7 -->
<g id="edge7_Node000006_Node000007" class="edge">
<title>Node6&#45;&gt;Node7</title>
<g id="a_edge7_Node000006_Node000007"><a xlink:title=" ">
<path fill="none" stroke="#63b8ff" d="M257.03,-54.84C276.63,-46.43 306.11,-33.77 328.51,-24.15"/>
<polygon fill="#63b8ff" stroke="#63b8ff" points="329.66,-27.46 337.47,-20.3 326.9,-21.03 329.66,-27.46"/>
</a>
</g>
</g>
<!-- Node8 -->
<g id="Node000008" class="node">
<title>Node8</title>
<g id="a_Node000008"><a xlink:title=" ">
<polygon fill="#e0e0e0" stroke="#999999" points="475.75,-19.25 416.25,-19.25 416.25,0 475.75,0 475.75,-19.25"/>
<text text-anchor="middle" x="446" y="-5.75" font-family="Helvetica,sans-Serif" font-size="10.00">filesystem</text>
</a>
</g>
</g>
<!-- Node6&#45;&gt;Node8 -->
<g id="edge9_Node000006_Node000008" class="edge">
<title>Node6&#45;&gt;Node8</title>
<g id="a_edge9_Node000006_Node000008"><a xlink:title=" ">
<path fill="none" stroke="#63b8ff" d="M271.62,-54.84C308.58,-45.47 366.29,-30.84 405.09,-21"/>
<polygon fill="#63b8ff" stroke="#63b8ff" points="405.69,-24.46 414.53,-18.61 403.97,-17.67 405.69,-24.46"/>
</a>
</g>
</g>
<!-- Node9 -->
<g id="Node000009" class="node">
<title>Node9</title>
<g id="a_Node000009"><a xlink:title=" ">
<polygon fill="#e0e0e0" stroke="#999999" points="242.25,-19.25 191.75,-19.25 191.75,0 242.25,0 242.25,-19.25"/>
<text text-anchor="middle" x="217" y="-5.75" font-family="Helvetica,sans-Serif" font-size="10.00">memory</text>
</a>
</g>
</g>
<!-- Node6&#45;&gt;Node9 -->
<g id="edge10_Node000006_Node000009" class="edge">
<title>Node6&#45;&gt;Node9</title>
<g id="a_edge10_Node000006_Node000009"><a xlink:title=" ">
<path fill="none" stroke="#63b8ff" d="M232.86,-55.08C230.46,-48.34 227.04,-38.77 224,-30.24"/>
<polygon fill="#63b8ff" stroke="#63b8ff" points="227.37,-29.28 220.71,-21.03 220.78,-31.63 227.37,-29.28"/>
</a>
</g>
</g>
<!-- Node10 -->
<g id="Node000010" class="node">
<title>Node10</title>
<g id="a_Node000010"><a xlink:title=" ">
<polygon fill="#e0e0e0" stroke="#999999" points="303.5,-19.25 260.5,-19.25 260.5,0 303.5,0 303.5,-19.25"/>
<text text-anchor="middle" x="282" y="-5.75" font-family="Helvetica,sans-Serif" font-size="10.00">vector</text>
</a>
</g>
</g>
<!-- Node6&#45;&gt;Node10 -->
<g id="edge11_Node000006_Node000010" class="edge">
<title>Node6&#45;&gt;Node10</title>
<g id="a_edge11_Node000006_Node000010"><a xlink:title=" ">
<path fill="none" stroke="#63b8ff" d="M243.6,-55.08C249.88,-47.8 259.01,-37.23 266.8,-28.23"/>
<polygon fill="#63b8ff" stroke="#63b8ff" points="269.36,-30.61 273.25,-20.75 264.06,-26.03 269.36,-30.61"/>
</a>
</g>
</g>
</g>
</svg>
