<?xml version="1.0" encoding="UTF-8" standalone="no"?>
<!DOCTYPE svg PUBLIC "-//W3C//DTD SVG 1.1//EN"
 "http://www.w3.org/Graphics/SVG/1.1/DTD/svg11.dtd">
<!-- Generated by graphviz version 9.0.0 (20230911.1827)
 -->
<!-- Title: workspace/albert/include/albert/extension.h Pages: 1 -->
<svg width="1002pt" height="238pt"
 viewBox="0.00 0.00 1002.00 238.00" xmlns="http://www.w3.org/2000/svg" xmlns:xlink="http://www.w3.org/1999/xlink">
<g id="graph0" class="graph" transform="scale(1 1) rotate(0) translate(4 234)">
<title>workspace/albert/include/albert/extension.h</title>
<!-- Node1 -->
<g id="Node000001" class="node">
<title>Node1</title>
<g id="a_Node000001"><a xlink:title=" ">
<polygon fill="#999999" stroke="#666666" points="552,-230 428,-230 428,-199.5 552,-199.5 552,-230"/>
<text text-anchor="start" x="436" y="-216.5" font-family="Helvetica,sans-Serif" font-size="10.00">workspace/albert/include</text>
<text text-anchor="middle" x="490" y="-205.25" font-family="Helvetica,sans-Serif" font-size="10.00">/albert/extension.h</text>
</a>
</g>
</g>
<!-- Node2 -->
<g id="Node000002" class="node">
<title>Node2</title>
<g id="a_Node000002"><a xlink:href="extensionplugin_8h.html" target="_top" xlink:title=" ">
<polygon fill="white" stroke="#666666" points="124,-163.5 0,-163.5 0,-133 124,-133 124,-163.5"/>
<text text-anchor="start" x="8" y="-150" font-family="Helvetica,sans-Serif" font-size="10.00">workspace/albert/include</text>
<text text-anchor="middle" x="62" y="-138.75" font-family="Helvetica,sans-Serif" font-size="10.00">/albert/extensionplugin.h</text>
</a>
</g>
</g>
<!-- Node1&#45;&gt;Node2 -->
<g id="edge1_Node000001_Node000002" class="edge">
<title>Node1&#45;&gt;Node2</title>
<g id="a_edge1_Node000001_Node000002"><a xlink:title=" ">
<path fill="none" stroke="#63b8ff" d="M416.35,-204.66C344.03,-195.43 230.66,-180.16 133,-163.5 130.15,-163.01 127.24,-162.5 124.3,-161.97"/>
<polygon fill="#63b8ff" stroke="#63b8ff" points="415.73,-208.11 426.09,-205.89 416.61,-201.16 415.73,-208.11"/>
</a>
</g>
</g>
<!-- Node3 -->
<g id="Node000003" class="node">
<title>Node3</title>
<g id="a_Node000003"><a xlink:href="extensionregistry_8h.html" target="_top" xlink:title=" ">
<polygon fill="white" stroke="#666666" points="268.12,-163.5 141.88,-163.5 141.88,-133 268.12,-133 268.12,-163.5"/>
<text text-anchor="start" x="149.88" y="-150" font-family="Helvetica,sans-Serif" font-size="10.00">workspace/albert/include</text>
<text text-anchor="middle" x="205" y="-138.75" font-family="Helvetica,sans-Serif" font-size="10.00">/albert/extensionregistry.h</text>
</a>
</g>
</g>
<!-- Node1&#45;&gt;Node3 -->
<g id="edge2_Node000001_Node000003" class="edge">
<title>Node1&#45;&gt;Node3</title>
<g id="a_edge2_Node000001_Node000003"><a xlink:title=" ">
<path fill="none" stroke="#63b8ff" d="M416.74,-197.17C370.9,-186.79 312.42,-173.56 268.54,-163.63"/>
<polygon fill="#63b8ff" stroke="#63b8ff" points="415.81,-200.55 426.33,-199.34 417.35,-193.72 415.81,-200.55"/>
</a>
</g>
</g>
<!-- Node5 -->
<g id="Node000005" class="node">
<title>Node5</title>
<g id="a_Node000005"><a xlink:href="fallbackhandler_8h.html" target="_top" xlink:title=" ">
<polygon fill="white" stroke="#666666" points="410,-163.5 286,-163.5 286,-133 410,-133 410,-163.5"/>
<text text-anchor="start" x="294" y="-150" font-family="Helvetica,sans-Serif" font-size="10.00">workspace/albert/include</text>
<text text-anchor="middle" x="348" y="-138.75" font-family="Helvetica,sans-Serif" font-size="10.00">/albert/fallbackhandler.h</text>
</a>
</g>
</g>
<!-- Node1&#45;&gt;Node5 -->
<g id="edge4_Node000001_Node000005" class="edge">
<title>Node1&#45;&gt;Node5</title>
<g id="a_edge4_Node000001_Node000005"><a xlink:title=" ">
<path fill="none" stroke="#63b8ff" d="M447.54,-194.47C425.91,-184.64 400.04,-172.89 380.09,-163.83"/>
<polygon fill="#63b8ff" stroke="#63b8ff" points="445.85,-197.54 456.4,-198.49 448.74,-191.17 445.85,-197.54"/>
</a>
</g>
</g>
<!-- Node6 -->
<g id="Node000006" class="node">
<title>Node6</title>
<g id="a_Node000006"><a xlink:href="pluginprovider_8h.html" target="_top" xlink:title=" ">
<polygon fill="white" stroke="#666666" points="552,-163.5 428,-163.5 428,-133 552,-133 552,-163.5"/>
<text text-anchor="start" x="436" y="-150" font-family="Helvetica,sans-Serif" font-size="10.00">workspace/albert/include</text>
<text text-anchor="middle" x="490" y="-138.75" font-family="Helvetica,sans-Serif" font-size="10.00">/albert/pluginprovider.h</text>
</a>
</g>
</g>
<!-- Node1&#45;&gt;Node6 -->
<g id="edge5_Node000001_Node000006" class="edge">
<title>Node1&#45;&gt;Node6</title>
<g id="a_edge5_Node000001_Node000006"><a xlink:title=" ">
<path fill="none" stroke="#63b8ff" d="M490,-187.81C490,-179.64 490,-170.91 490,-163.83"/>
<polygon fill="#63b8ff" stroke="#63b8ff" points="486.5,-187.6 490,-197.6 493.5,-187.6 486.5,-187.6"/>
</a>
</g>
</g>
<!-- Node7 -->
<g id="Node000007" class="node">
<title>Node7</title>
<g id="a_Node000007"><a xlink:href="telemetryprovider_8h.html" target="_top" xlink:title=" ">
<polygon fill="white" stroke="#666666" points="697.88,-163.5 570.12,-163.5 570.12,-133 697.88,-133 697.88,-163.5"/>
<text text-anchor="start" x="578.12" y="-150" font-family="Helvetica,sans-Serif" font-size="10.00">workspace/albert/include</text>
<text text-anchor="middle" x="634" y="-138.75" font-family="Helvetica,sans-Serif" font-size="10.00">/albert/telemetryprovider.h</text>
</a>
</g>
</g>
<!-- Node1&#45;&gt;Node7 -->
<g id="edge6_Node000001_Node000007" class="edge">
<title>Node1&#45;&gt;Node7</title>
<g id="a_edge6_Node000001_Node000007"><a xlink:title=" ">
<path fill="none" stroke="#63b8ff" d="M533.05,-194.47C554.99,-184.64 581.23,-172.89 601.45,-163.83"/>
<polygon fill="#63b8ff" stroke="#63b8ff" points="531.75,-191.21 524.06,-198.5 534.61,-197.6 531.75,-191.21"/>
</a>
</g>
</g>
<!-- Node8 -->
<g id="Node000008" class="node">
<title>Node8</title>
<g id="a_Node000008"><a xlink:href="triggerqueryhandler_8h.html" target="_top" xlink:title=" ">
<polygon fill="white" stroke="#666666" points="851.62,-163.5 716.38,-163.5 716.38,-133 851.62,-133 851.62,-163.5"/>
<text text-anchor="start" x="724.38" y="-150" font-family="Helvetica,sans-Serif" font-size="10.00">workspace/albert/include</text>
<text text-anchor="middle" x="784" y="-138.75" font-family="Helvetica,sans-Serif" font-size="10.00">/albert/triggerqueryhandler.h</text>
</a>
</g>
</g>
<!-- Node1&#45;&gt;Node8 -->
<g id="edge7_Node000001_Node000008" class="edge">
<title>Node1&#45;&gt;Node8</title>
<g id="a_edge7_Node000001_Node000008"><a xlink:title=" ">
<path fill="none" stroke="#63b8ff" d="M563.39,-197.65C610.46,-187.32 671.09,-174.02 716.88,-163.98"/>
<polygon fill="#63b8ff" stroke="#63b8ff" points="562.85,-194.19 553.83,-199.75 564.35,-201.02 562.85,-194.19"/>
</a>
</g>
</g>
<!-- Node11 -->
<g id="Node000011" class="node">
<title>Node11</title>
<g id="a_Node000011"><a xlink:href="urlhandler_8h.html" target="_top" xlink:title=" ">
<polygon fill="white" stroke="#666666" points="994,-163.5 870,-163.5 870,-133 994,-133 994,-163.5"/>
<text text-anchor="start" x="878" y="-150" font-family="Helvetica,sans-Serif" font-size="10.00">workspace/albert/include</text>
<text text-anchor="middle" x="932" y="-138.75" font-family="Helvetica,sans-Serif" font-size="10.00">/albert/urlhandler.h</text>
</a>
</g>
</g>
<!-- Node1&#45;&gt;Node11 -->
<g id="edge10_Node000001_Node000011" class="edge">
<title>Node1&#45;&gt;Node11</title>
<g id="a_edge10_Node000001_Node000011"><a xlink:title=" ">
<path fill="none" stroke="#63b8ff" d="M563.4,-205.2C638.4,-196.14 758.11,-180.77 861,-163.5 863.85,-163.02 866.76,-162.51 869.7,-161.99"/>
<polygon fill="#63b8ff" stroke="#63b8ff" points="563.23,-201.7 553.72,-206.37 564.06,-208.65 563.23,-201.7"/>
</a>
</g>
</g>
<!-- Node4 -->
<g id="Node000004" class="node">
<title>Node4</title>
<g id="a_Node000004"><a xlink:href="plugindependency_8h.html" target="_top" xlink:title=" ">
<polygon fill="white" stroke="#666666" points="270.38,-97 139.62,-97 139.62,-66.5 270.38,-66.5 270.38,-97"/>
<text text-anchor="start" x="147.62" y="-83.5" font-family="Helvetica,sans-Serif" font-size="10.00">workspace/albert/include</text>
<text text-anchor="middle" x="205" y="-72.25" font-family="Helvetica,sans-Serif" font-size="10.00">/albert/plugindependency.h</text>
</a>
</g>
</g>
<!-- Node3&#45;&gt;Node4 -->
<g id="edge3_Node000003_Node000004" class="edge">
<title>Node3&#45;&gt;Node4</title>
<g id="a_edge3_Node000003_Node000004"><a xlink:title=" ">
<path fill="none" stroke="#63b8ff" d="M205,-121.31C205,-113.14 205,-104.41 205,-97.33"/>
<polygon fill="#63b8ff" stroke="#63b8ff" points="201.5,-121.1 205,-131.1 208.5,-121.1 201.5,-121.1"/>
</a>
</g>
</g>
<!-- Node9 -->
<g id="Node000009" class="node">
<title>Node9</title>
<g id="a_Node000009"><a xlink:href="globalqueryhandler_8h.html" target="_top" xlink:title=" ">
<polygon fill="white" stroke="#666666" points="850.88,-97 717.12,-97 717.12,-66.5 850.88,-66.5 850.88,-97"/>
<text text-anchor="start" x="725.12" y="-83.5" font-family="Helvetica,sans-Serif" font-size="10.00">workspace/albert/include</text>
<text text-anchor="middle" x="784" y="-72.25" font-family="Helvetica,sans-Serif" font-size="10.00">/albert/globalqueryhandler.h</text>
</a>
</g>
</g>
<!-- Node8&#45;&gt;Node9 -->
<g id="edge8_Node000008_Node000009" class="edge">
<title>Node8&#45;&gt;Node9</title>
<g id="a_edge8_Node000008_Node000009"><a xlink:title=" ">
<path fill="none" stroke="#63b8ff" d="M784,-121.31C784,-113.14 784,-104.41 784,-97.33"/>
<polygon fill="#63b8ff" stroke="#63b8ff" points="780.5,-121.1 784,-131.1 787.5,-121.1 780.5,-121.1"/>
</a>
</g>
</g>
<!-- Node10 -->
<g id="Node000010" class="node">
<title>Node10</title>
<g id="a_Node000010"><a xlink:href="indexqueryhandler_8h.html" target="_top" xlink:title=" ">
<polygon fill="white" stroke="#666666" points="849.38,-30.5 718.62,-30.5 718.62,0 849.38,0 849.38,-30.5"/>
<text text-anchor="start" x="726.62" y="-17" font-family="Helvetica,sans-Serif" font-size="10.00">workspace/albert/include</text>
<text text-anchor="middle" x="784" y="-5.75" font-family="Helvetica,sans-Serif" font-size="10.00">/albert/indexqueryhandler.h</text>
</a>
</g>
</g>
<!-- Node9&#45;&gt;Node10 -->
<g id="edge9_Node000009_Node000010" class="edge">
<title>Node9&#45;&gt;Node10</title>
<g id="a_edge9_Node000009_Node000010"><a xlink:title=" ">
<path fill="none" stroke="#63b8ff" d="M784,-54.81C784,-46.64 784,-37.91 784,-30.83"/>
<polygon fill="#63b8ff" stroke="#63b8ff" points="780.5,-54.6 784,-64.6 787.5,-54.6 780.5,-54.6"/>
</a>
</g>
</g>
</g>
</svg>
