<?xml version="1.0" encoding="UTF-8" standalone="no"?>
<!DOCTYPE svg PUBLIC "-//W3C//DTD SVG 1.1//EN"
 "http://www.w3.org/Graphics/SVG/1.1/DTD/svg11.dtd">
<!-- Generated by graphviz version 9.0.0 (20230911.1827)
 -->
<!-- Title: workspace/albert/include/albert/extensionregistry.h Pages: 1 -->
<svg width="260pt" height="149pt"
 viewBox="0.00 0.00 260.38 149.00" xmlns="http://www.w3.org/2000/svg" xmlns:xlink="http://www.w3.org/1999/xlink">
<g id="graph0" class="graph" transform="scale(1 1) rotate(0) translate(4 145)">
<title>workspace/albert/include/albert/extensionregistry.h</title>
<!-- Node1 -->
<g id="Node000001" class="node">
<title>Node1</title>
<g id="a_Node000001"><a xlink:title=" ">
<polygon fill="#999999" stroke="#666666" points="180.12,-141 53.88,-141 53.88,-110.5 180.12,-110.5 180.12,-141"/>
<text text-anchor="start" x="61.88" y="-127.5" font-family="Helvetica,sans-Serif" font-size="10.00">workspace/albert/include</text>
<text text-anchor="middle" x="117" y="-116.25" font-family="Helvetica,sans-Serif" font-size="10.00">/albert/extensionregistry.h</text>
</a>
</g>
</g>
<!-- Node2 -->
<g id="Node000002" class="node">
<title>Node2</title>
<g id="a_Node000002"><a xlink:title=" ">
<polygon fill="#e0e0e0" stroke="#999999" points="52,-74.5 0,-74.5 0,-55.25 52,-55.25 52,-74.5"/>
<text text-anchor="middle" x="26" y="-61" font-family="Helvetica,sans-Serif" font-size="10.00">QObject</text>
</a>
</g>
</g>
<!-- Node1&#45;&gt;Node2 -->
<g id="edge1_Node000001_Node000002" class="edge">
<title>Node1&#45;&gt;Node2</title>
<g id="a_edge1_Node000001_Node000002"><a xlink:title=" ">
<path fill="none" stroke="#63b8ff" d="M94.51,-110.2C80.78,-101.32 63.27,-89.99 49.39,-81.01"/>
<polygon fill="#63b8ff" stroke="#63b8ff" points="51.6,-78.27 41.3,-75.77 47.79,-84.14 51.6,-78.27"/>
</a>
</g>
</g>
<!-- Node3 -->
<g id="Node000003" class="node">
<title>Node3</title>
<g id="a_Node000003"><a xlink:title=" ">
<polygon fill="#e0e0e0" stroke="#999999" points="118.38,-19.25 41.62,-19.25 41.62,0 118.38,0 118.38,-19.25"/>
<text text-anchor="middle" x="80" y="-5.75" font-family="Helvetica,sans-Serif" font-size="10.00">albert/export.h</text>
</a>
</g>
</g>
<!-- Node1&#45;&gt;Node3 -->
<g id="edge2_Node000001_Node000003" class="edge">
<title>Node1&#45;&gt;Node3</title>
<g id="a_edge2_Node000001_Node000003"><a xlink:title=" ">
<path fill="none" stroke="#63b8ff" d="M111.59,-110.31C107.9,-100.31 102.98,-86.65 99,-74.5 94.19,-59.82 89.23,-43.08 85.59,-30.42"/>
<polygon fill="#63b8ff" stroke="#63b8ff" points="88.95,-29.46 82.85,-20.81 82.22,-31.38 88.95,-29.46"/>
</a>
</g>
</g>
<!-- Node4 -->
<g id="Node000004" class="node">
<title>Node4</title>
<g id="a_Node000004"><a xlink:href="extension_8h.html" target="_top" xlink:title=" ">
<polygon fill="white" stroke="#666666" points="199.88,-74.5 108.12,-74.5 108.12,-55.25 199.88,-55.25 199.88,-74.5"/>
<text text-anchor="middle" x="154" y="-61" font-family="Helvetica,sans-Serif" font-size="10.00">albert/extension.h</text>
</a>
</g>
</g>
<!-- Node1&#45;&gt;Node4 -->
<g id="edge3_Node000001_Node000004" class="edge">
<title>Node1&#45;&gt;Node4</title>
<g id="a_edge3_Node000001_Node000004"><a xlink:title=" ">
<path fill="none" stroke="#63b8ff" d="M126.15,-110.2C131.02,-102.44 137.07,-92.81 142.29,-84.51"/>
<polygon fill="#63b8ff" stroke="#63b8ff" points="145.13,-86.56 147.49,-76.23 139.21,-82.84 145.13,-86.56"/>
</a>
</g>
</g>
<!-- Node6 -->
<g id="Node000006" class="node">
<title>Node6</title>
<g id="a_Node000006"><a xlink:title=" ">
<polygon fill="#e0e0e0" stroke="#999999" points="252.38,-74.5 217.62,-74.5 217.62,-55.25 252.38,-55.25 252.38,-74.5"/>
<text text-anchor="middle" x="235" y="-61" font-family="Helvetica,sans-Serif" font-size="10.00">map</text>
</a>
</g>
</g>
<!-- Node1&#45;&gt;Node6 -->
<g id="edge6_Node000001_Node000006" class="edge">
<title>Node1&#45;&gt;Node6</title>
<g id="a_edge6_Node000001_Node000006"><a xlink:title=" ">
<path fill="none" stroke="#63b8ff" d="M146.47,-110.05C164.99,-100.81 188.73,-88.96 206.97,-79.86"/>
<polygon fill="#63b8ff" stroke="#63b8ff" points="208.51,-83 215.9,-75.41 205.38,-76.74 208.51,-83"/>
</a>
</g>
</g>
<!-- Node4&#45;&gt;Node3 -->
<g id="edge5_Node000004_Node000003" class="edge">
<title>Node4&#45;&gt;Node3</title>
<g id="a_edge5_Node000004_Node000003"><a xlink:title=" ">
<path fill="none" stroke="#63b8ff" d="M141.45,-54.84C130.54,-46.99 114.5,-35.45 101.54,-26.12"/>
<polygon fill="#63b8ff" stroke="#63b8ff" points="103.76,-23.41 93.6,-20.41 99.67,-29.09 103.76,-23.41"/>
</a>
</g>
</g>
<!-- Node5 -->
<g id="Node000005" class="node">
<title>Node5</title>
<g id="a_Node000005"><a xlink:title=" ">
<polygon fill="#e0e0e0" stroke="#999999" points="185.5,-19.25 136.5,-19.25 136.5,0 185.5,0 185.5,-19.25"/>
<text text-anchor="middle" x="161" y="-5.75" font-family="Helvetica,sans-Serif" font-size="10.00">QString</text>
</a>
</g>
</g>
<!-- Node4&#45;&gt;Node5 -->
<g id="edge4_Node000004_Node000005" class="edge">
<title>Node4&#45;&gt;Node5</title>
<g id="a_edge4_Node000004_Node000005"><a xlink:title=" ">
<path fill="none" stroke="#63b8ff" d="M155.16,-55.08C156.02,-48.49 157.24,-39.21 158.34,-30.82"/>
<polygon fill="#63b8ff" stroke="#63b8ff" points="161.79,-31.48 159.62,-21.11 154.85,-30.57 161.79,-31.48"/>
</a>
</g>
</g>
</g>
</svg>
