<?xml version="1.0" encoding="UTF-8" standalone="no"?>
<!DOCTYPE svg PUBLIC "-//W3C//DTD SVG 1.1//EN"
 "http://www.w3.org/Graphics/SVG/1.1/DTD/svg11.dtd">
<!-- Generated by graphviz version 9.0.0 (20230911.1827)
 -->
<!-- Title: workspace/albert/include/albert/extensionplugin.h Pages: 1 -->
<svg width="424pt" height="149pt"
 viewBox="0.00 0.00 424.25 149.00" xmlns="http://www.w3.org/2000/svg" xmlns:xlink="http://www.w3.org/1999/xlink">
<g id="graph0" class="graph" transform="scale(1 1) rotate(0) translate(4 145)">
<title>workspace/albert/include/albert/extensionplugin.h</title>
<!-- Node1 -->
<g id="Node000001" class="node">
<title>Node1</title>
<g id="a_Node000001"><a xlink:title=" ">
<polygon fill="#999999" stroke="#666666" points="178,-141 54,-141 54,-110.5 178,-110.5 178,-141"/>
<text text-anchor="start" x="62" y="-127.5" font-family="Helvetica,sans-Serif" font-size="10.00">workspace/albert/include</text>
<text text-anchor="middle" x="116" y="-116.25" font-family="Helvetica,sans-Serif" font-size="10.00">/albert/extensionplugin.h</text>
</a>
</g>
</g>
<!-- Node2 -->
<g id="Node000002" class="node">
<title>Node2</title>
<g id="a_Node000002"><a xlink:title=" ">
<polygon fill="#e0e0e0" stroke="#999999" points="52,-74.5 0,-74.5 0,-55.25 52,-55.25 52,-74.5"/>
<text text-anchor="middle" x="26" y="-61" font-family="Helvetica,sans-Serif" font-size="10.00">QObject</text>
</a>
</g>
</g>
<!-- Node1&#45;&gt;Node2 -->
<g id="edge1_Node000001_Node000002" class="edge">
<title>Node1&#45;&gt;Node2</title>
<g id="a_edge1_Node000001_Node000002"><a xlink:title=" ">
<path fill="none" stroke="#63b8ff" d="M93.75,-110.2C80.18,-101.32 62.86,-89.99 49.13,-81.01"/>
<polygon fill="#63b8ff" stroke="#63b8ff" points="51.43,-78.33 41.14,-75.78 47.59,-84.18 51.43,-78.33"/>
</a>
</g>
</g>
<!-- Node3 -->
<g id="Node000003" class="node">
<title>Node3</title>
<g id="a_Node000003"><a xlink:href="extension_8h.html" target="_top" xlink:title=" ">
<polygon fill="white" stroke="#666666" points="161.88,-74.5 70.12,-74.5 70.12,-55.25 161.88,-55.25 161.88,-74.5"/>
<text text-anchor="middle" x="116" y="-61" font-family="Helvetica,sans-Serif" font-size="10.00">albert/extension.h</text>
</a>
</g>
</g>
<!-- Node1&#45;&gt;Node3 -->
<g id="edge2_Node000001_Node000003" class="edge">
<title>Node1&#45;&gt;Node3</title>
<g id="a_edge2_Node000001_Node000003"><a xlink:title=" ">
<path fill="none" stroke="#63b8ff" d="M116,-110.2C116,-102.96 116,-94.09 116,-86.19"/>
<polygon fill="#63b8ff" stroke="#63b8ff" points="119.5,-86.46 116,-76.46 112.5,-86.46 119.5,-86.46"/>
</a>
</g>
</g>
<!-- Node6 -->
<g id="Node000006" class="node">
<title>Node6</title>
<g id="a_Node000006"><a xlink:href="plugininstance_8h.html" target="_top" xlink:title=" ">
<polygon fill="white" stroke="#666666" points="292.38,-74.5 179.62,-74.5 179.62,-55.25 292.38,-55.25 292.38,-74.5"/>
<text text-anchor="middle" x="236" y="-61" font-family="Helvetica,sans-Serif" font-size="10.00">albert/plugininstance.h</text>
</a>
</g>
</g>
<!-- Node1&#45;&gt;Node6 -->
<g id="edge5_Node000001_Node000006" class="edge">
<title>Node1&#45;&gt;Node6</title>
<g id="a_edge5_Node000001_Node000006"><a xlink:title=" ">
<path fill="none" stroke="#63b8ff" d="M145.97,-110.05C164.77,-100.82 188.88,-89 207.41,-79.9"/>
<polygon fill="#63b8ff" stroke="#63b8ff" points="208.8,-83.12 216.24,-75.57 205.72,-76.83 208.8,-83.12"/>
</a>
</g>
</g>
<!-- Node4 -->
<g id="Node000004" class="node">
<title>Node4</title>
<g id="a_Node000004"><a xlink:title=" ">
<polygon fill="#e0e0e0" stroke="#999999" points="200.5,-19.25 151.5,-19.25 151.5,0 200.5,0 200.5,-19.25"/>
<text text-anchor="middle" x="176" y="-5.75" font-family="Helvetica,sans-Serif" font-size="10.00">QString</text>
</a>
</g>
</g>
<!-- Node3&#45;&gt;Node4 -->
<g id="edge3_Node000003_Node000004" class="edge">
<title>Node3&#45;&gt;Node4</title>
<g id="a_edge3_Node000003_Node000004"><a xlink:title=" ">
<path fill="none" stroke="#63b8ff" d="M126.18,-54.84C134.76,-47.22 147.27,-36.12 157.6,-26.95"/>
<polygon fill="#63b8ff" stroke="#63b8ff" points="159.68,-29.79 164.84,-20.53 155.04,-24.55 159.68,-29.79"/>
</a>
</g>
</g>
<!-- Node5 -->
<g id="Node000005" class="node">
<title>Node5</title>
<g id="a_Node000005"><a xlink:title=" ">
<polygon fill="#e0e0e0" stroke="#999999" points="133.38,-19.25 56.62,-19.25 56.62,0 133.38,0 133.38,-19.25"/>
<text text-anchor="middle" x="95" y="-5.75" font-family="Helvetica,sans-Serif" font-size="10.00">albert/export.h</text>
</a>
</g>
</g>
<!-- Node3&#45;&gt;Node5 -->
<g id="edge4_Node000003_Node000005" class="edge">
<title>Node3&#45;&gt;Node5</title>
<g id="a_edge4_Node000003_Node000005"><a xlink:title=" ">
<path fill="none" stroke="#63b8ff" d="M112.53,-55.08C109.87,-48.34 106.1,-38.77 102.74,-30.24"/>
<polygon fill="#63b8ff" stroke="#63b8ff" points="106.02,-29.04 99.1,-21.02 99.51,-31.6 106.02,-29.04"/>
</a>
</g>
</g>
<!-- Node6&#45;&gt;Node4 -->
<g id="edge7_Node000006_Node000004" class="edge">
<title>Node6&#45;&gt;Node4</title>
<g id="a_edge7_Node000006_Node000004"><a xlink:title=" ">
<path fill="none" stroke="#63b8ff" d="M225.82,-54.84C217.24,-47.22 204.73,-36.12 194.4,-26.95"/>
<polygon fill="#63b8ff" stroke="#63b8ff" points="196.96,-24.55 187.16,-20.53 192.32,-29.79 196.96,-24.55"/>
</a>
</g>
</g>
<!-- Node6&#45;&gt;Node5 -->
<g id="edge9_Node000006_Node000005" class="edge">
<title>Node6&#45;&gt;Node5</title>
<g id="a_edge9_Node000006_Node000005"><a xlink:title=" ">
<path fill="none" stroke="#63b8ff" d="M212.08,-54.84C189.5,-46.31 155.36,-33.42 129.77,-23.76"/>
<polygon fill="#63b8ff" stroke="#63b8ff" points="131.04,-20.5 120.45,-20.24 128.57,-27.04 131.04,-20.5"/>
</a>
</g>
</g>
<!-- Node7 -->
<g id="Node000007" class="node">
<title>Node7</title>
<g id="a_Node000007"><a xlink:title=" ">
<polygon fill="#e0e0e0" stroke="#999999" points="253.75,-19.25 218.25,-19.25 218.25,0 253.75,0 253.75,-19.25"/>
<text text-anchor="middle" x="236" y="-5.75" font-family="Helvetica,sans-Serif" font-size="10.00">QDir</text>
</a>
</g>
</g>
<!-- Node6&#45;&gt;Node7 -->
<g id="edge6_Node000006_Node000007" class="edge">
<title>Node6&#45;&gt;Node7</title>
<g id="a_edge6_Node000006_Node000007"><a xlink:title=" ">
<path fill="none" stroke="#63b8ff" d="M236,-55.08C236,-48.57 236,-39.42 236,-31.12"/>
<polygon fill="#63b8ff" stroke="#63b8ff" points="239.5,-31.12 236,-21.12 232.5,-31.12 239.5,-31.12"/>
</a>
</g>
</g>
<!-- Node8 -->
<g id="Node000008" class="node">
<title>Node8</title>
<g id="a_Node000008"><a xlink:title=" ">
<polygon fill="#e0e0e0" stroke="#999999" points="348,-19.25 272,-19.25 272,0 348,0 348,-19.25"/>
<text text-anchor="middle" x="310" y="-5.75" font-family="Helvetica,sans-Serif" font-size="10.00">albert/config.h</text>
</a>
</g>
</g>
<!-- Node6&#45;&gt;Node8 -->
<g id="edge8_Node000006_Node000008" class="edge">
<title>Node6&#45;&gt;Node8</title>
<g id="a_edge8_Node000006_Node000008"><a xlink:title=" ">
<path fill="none" stroke="#63b8ff" d="M248.55,-54.84C259.46,-46.99 275.5,-35.45 288.46,-26.12"/>
<polygon fill="#63b8ff" stroke="#63b8ff" points="290.33,-29.09 296.4,-20.41 286.24,-23.41 290.33,-29.09"/>
</a>
</g>
</g>
<!-- Node9 -->
<g id="Node000009" class="node">
<title>Node9</title>
<g id="a_Node000009"><a xlink:title=" ">
<polygon fill="#e0e0e0" stroke="#999999" points="416.25,-19.25 365.75,-19.25 365.75,0 416.25,0 416.25,-19.25"/>
<text text-anchor="middle" x="391" y="-5.75" font-family="Helvetica,sans-Serif" font-size="10.00">memory</text>
</a>
</g>
</g>
<!-- Node6&#45;&gt;Node9 -->
<g id="edge10_Node000006_Node000009" class="edge">
<title>Node6&#45;&gt;Node9</title>
<g id="a_edge10_Node000006_Node000009"><a xlink:title=" ">
<path fill="none" stroke="#63b8ff" d="M262.29,-54.84C287.68,-46.12 326.35,-32.84 354.67,-23.1"/>
<polygon fill="#63b8ff" stroke="#63b8ff" points="355.6,-26.49 363.92,-19.93 353.33,-19.87 355.6,-26.49"/>
</a>
</g>
</g>
</g>
</svg>
