<?xml version="1.0" encoding="UTF-8" standalone="no"?>
<!DOCTYPE svg PUBLIC "-//W3C//DTD SVG 1.1//EN"
 "http://www.w3.org/Graphics/SVG/1.1/DTD/svg11.dtd">
<!-- Generated by graphviz version 9.0.0 (20230911.1827)
 -->
<!-- Title: workspace/albert/include/albert/extension.h Pages: 1 -->
<svg width="860pt" height="238pt"
 viewBox="0.00 0.00 859.62 238.00" xmlns="http://www.w3.org/2000/svg" xmlns:xlink="http://www.w3.org/1999/xlink">
<g id="graph0" class="graph" transform="scale(1 1) rotate(0) translate(4 234)">
<title>workspace/albert/include/albert/extension.h</title>
<!-- Node1 -->
<g id="Node000001" class="node">
<title>Node1</title>
<g id="a_Node000001"><a xlink:title=" ">
<polygon fill="#999999" stroke="#666666" points="481,-230 357,-230 357,-199.5 481,-199.5 481,-230"/>
<text text-anchor="start" x="365" y="-216.5" font-family="Helvetica,sans-Serif" font-size="10.00">workspace/albert/include</text>
<text text-anchor="middle" x="419" y="-205.25" font-family="Helvetica,sans-Serif" font-size="10.00">/albert/extension.h</text>
</a>
</g>
</g>
<!-- Node2 -->
<g id="Node000002" class="node">
<title>Node2</title>
<g id="a_Node000002"><a xlink:href="extensionplugin_8h.html" target="_top" xlink:title=" ">
<polygon fill="white" stroke="#666666" points="124,-163.5 0,-163.5 0,-133 124,-133 124,-163.5"/>
<text text-anchor="start" x="8" y="-150" font-family="Helvetica,sans-Serif" font-size="10.00">workspace/albert/include</text>
<text text-anchor="middle" x="62" y="-138.75" font-family="Helvetica,sans-Serif" font-size="10.00">/albert/extensionplugin.h</text>
</a>
</g>
</g>
<!-- Node1&#45;&gt;Node2 -->
<g id="edge1_Node000001_Node000002" class="edge">
<title>Node1&#45;&gt;Node2</title>
<g id="a_edge1_Node000001_Node000002"><a xlink:title=" ">
<path fill="none" stroke="#63b8ff" d="M345.49,-201.34C287.67,-191.45 205.11,-177.07 133,-163.5 130.16,-162.97 127.25,-162.41 124.32,-161.85"/>
<polygon fill="#63b8ff" stroke="#63b8ff" points="344.78,-204.77 355.22,-203 345.95,-197.87 344.78,-204.77"/>
</a>
</g>
</g>
<!-- Node3 -->
<g id="Node000003" class="node">
<title>Node3</title>
<g id="a_Node000003"><a xlink:href="extensionregistry_8h.html" target="_top" xlink:title=" ">
<polygon fill="white" stroke="#666666" points="268.12,-163.5 141.88,-163.5 141.88,-133 268.12,-133 268.12,-163.5"/>
<text text-anchor="start" x="149.88" y="-150" font-family="Helvetica,sans-Serif" font-size="10.00">workspace/albert/include</text>
<text text-anchor="middle" x="205" y="-138.75" font-family="Helvetica,sans-Serif" font-size="10.00">/albert/extensionregistry.h</text>
</a>
</g>
</g>
<!-- Node1&#45;&gt;Node3 -->
<g id="edge2_Node000001_Node000003" class="edge">
<title>Node1&#45;&gt;Node3</title>
<g id="a_edge2_Node000001_Node000003"><a xlink:title=" ">
<path fill="none" stroke="#63b8ff" d="M359.19,-195.72C325.88,-185.68 284.94,-173.34 253.62,-163.9"/>
<polygon fill="#63b8ff" stroke="#63b8ff" points="358.14,-199.06 368.72,-198.6 360.16,-192.36 358.14,-199.06"/>
</a>
</g>
</g>
<!-- Node6 -->
<g id="Node000006" class="node">
<title>Node6</title>
<g id="a_Node000006"><a xlink:href="fallbackhandler_8h.html" target="_top" xlink:title=" ">
<polygon fill="white" stroke="#666666" points="410,-163.5 286,-163.5 286,-133 410,-133 410,-163.5"/>
<text text-anchor="start" x="294" y="-150" font-family="Helvetica,sans-Serif" font-size="10.00">workspace/albert/include</text>
<text text-anchor="middle" x="348" y="-138.75" font-family="Helvetica,sans-Serif" font-size="10.00">/albert/fallbackhandler.h</text>
</a>
</g>
</g>
<!-- Node1&#45;&gt;Node6 -->
<g id="edge5_Node000001_Node000006" class="edge">
<title>Node1&#45;&gt;Node6</title>
<g id="a_edge5_Node000001_Node000006"><a xlink:title=" ">
<path fill="none" stroke="#63b8ff" d="M394.47,-191.46C384.4,-182.32 373.02,-171.98 364.05,-163.83"/>
<polygon fill="#63b8ff" stroke="#63b8ff" points="392.01,-193.96 401.77,-198.1 396.72,-188.78 392.01,-193.96"/>
</a>
</g>
</g>
<!-- Node7 -->
<g id="Node000007" class="node">
<title>Node7</title>
<g id="a_Node000007"><a xlink:href="pluginprovider_8h.html" target="_top" xlink:title=" ">
<polygon fill="white" stroke="#666666" points="552,-163.5 428,-163.5 428,-133 552,-133 552,-163.5"/>
<text text-anchor="start" x="436" y="-150" font-family="Helvetica,sans-Serif" font-size="10.00">workspace/albert/include</text>
<text text-anchor="middle" x="490" y="-138.75" font-family="Helvetica,sans-Serif" font-size="10.00">/albert/pluginprovider.h</text>
</a>
</g>
</g>
<!-- Node1&#45;&gt;Node7 -->
<g id="edge6_Node000001_Node000007" class="edge">
<title>Node1&#45;&gt;Node7</title>
<g id="a_edge6_Node000001_Node000007"><a xlink:title=" ">
<path fill="none" stroke="#63b8ff" d="M443.53,-191.46C453.6,-182.32 464.98,-171.98 473.95,-163.83"/>
<polygon fill="#63b8ff" stroke="#63b8ff" points="441.28,-188.78 436.23,-198.1 445.99,-193.96 441.28,-188.78"/>
</a>
</g>
</g>
<!-- Node8 -->
<g id="Node000008" class="node">
<title>Node8</title>
<g id="a_Node000008"><a xlink:href="telemetryprovider_8h.html" target="_top" xlink:title=" ">
<polygon fill="white" stroke="#666666" points="697.88,-163.5 570.12,-163.5 570.12,-133 697.88,-133 697.88,-163.5"/>
<text text-anchor="start" x="578.12" y="-150" font-family="Helvetica,sans-Serif" font-size="10.00">workspace/albert/include</text>
<text text-anchor="middle" x="634" y="-138.75" font-family="Helvetica,sans-Serif" font-size="10.00">/albert/telemetryprovider.h</text>
</a>
</g>
</g>
<!-- Node1&#45;&gt;Node8 -->
<g id="edge7_Node000001_Node000008" class="edge">
<title>Node1&#45;&gt;Node8</title>
<g id="a_edge7_Node000001_Node000008"><a xlink:title=" ">
<path fill="none" stroke="#63b8ff" d="M478.65,-195.85C512.2,-185.79 553.55,-173.39 585.15,-163.9"/>
<polygon fill="#63b8ff" stroke="#63b8ff" points="478.08,-192.37 469.51,-198.6 480.09,-199.08 478.08,-192.37"/>
</a>
</g>
</g>
<!-- Node9 -->
<g id="Node000009" class="node">
<title>Node9</title>
<g id="a_Node000009"><a xlink:href="triggerqueryhandler_8h.html" target="_top" xlink:title=" ">
<polygon fill="white" stroke="#666666" points="851.62,-163.5 716.38,-163.5 716.38,-133 851.62,-133 851.62,-163.5"/>
<text text-anchor="start" x="724.38" y="-150" font-family="Helvetica,sans-Serif" font-size="10.00">workspace/albert/include</text>
<text text-anchor="middle" x="784" y="-138.75" font-family="Helvetica,sans-Serif" font-size="10.00">/albert/triggerqueryhandler.h</text>
</a>
</g>
</g>
<!-- Node1&#45;&gt;Node9 -->
<g id="edge8_Node000001_Node000009" class="edge">
<title>Node1&#45;&gt;Node9</title>
<g id="a_edge8_Node000001_Node000009"><a xlink:title=" ">
<path fill="none" stroke="#63b8ff" d="M492.69,-201.11C550.9,-191.07 634.18,-176.59 707,-163.5 709.94,-162.97 712.95,-162.43 715.99,-161.88"/>
<polygon fill="#63b8ff" stroke="#63b8ff" points="492.14,-197.65 482.88,-202.8 493.33,-204.55 492.14,-197.65"/>
</a>
</g>
</g>
<!-- Node4 -->
<g id="Node000004" class="node">
<title>Node4</title>
<g id="a_Node000004"><a xlink:href="extensionwatcher_8h.html" target="_top" xlink:title=" ">
<polygon fill="white" stroke="#666666" points="195.62,-97 66.38,-97 66.38,-66.5 195.62,-66.5 195.62,-97"/>
<text text-anchor="start" x="74.38" y="-83.5" font-family="Helvetica,sans-Serif" font-size="10.00">workspace/albert/include</text>
<text text-anchor="middle" x="131" y="-72.25" font-family="Helvetica,sans-Serif" font-size="10.00">/albert/extensionwatcher.h</text>
</a>
</g>
</g>
<!-- Node3&#45;&gt;Node4 -->
<g id="edge3_Node000003_Node000004" class="edge">
<title>Node3&#45;&gt;Node4</title>
<g id="a_edge3_Node000003_Node000004"><a xlink:title=" ">
<path fill="none" stroke="#63b8ff" d="M179.75,-125.24C169.18,-116.03 157.17,-105.56 147.73,-97.33"/>
<polygon fill="#63b8ff" stroke="#63b8ff" points="177.23,-127.69 187.07,-131.62 181.83,-122.41 177.23,-127.69"/>
</a>
</g>
</g>
<!-- Node5 -->
<g id="Node000005" class="node">
<title>Node5</title>
<g id="a_Node000005"><a xlink:href="plugindependency_8h.html" target="_top" xlink:title=" ">
<polygon fill="white" stroke="#666666" points="344.38,-97 213.62,-97 213.62,-66.5 344.38,-66.5 344.38,-97"/>
<text text-anchor="start" x="221.62" y="-83.5" font-family="Helvetica,sans-Serif" font-size="10.00">workspace/albert/include</text>
<text text-anchor="middle" x="279" y="-72.25" font-family="Helvetica,sans-Serif" font-size="10.00">/albert/plugindependency.h</text>
</a>
</g>
</g>
<!-- Node3&#45;&gt;Node5 -->
<g id="edge4_Node000003_Node000005" class="edge">
<title>Node3&#45;&gt;Node5</title>
<g id="a_edge4_Node000003_Node000005"><a xlink:title=" ">
<path fill="none" stroke="#63b8ff" d="M230.25,-125.24C240.82,-116.03 252.83,-105.56 262.27,-97.33"/>
<polygon fill="#63b8ff" stroke="#63b8ff" points="228.17,-122.41 222.93,-131.62 232.77,-127.69 228.17,-122.41"/>
</a>
</g>
</g>
<!-- Node10 -->
<g id="Node000010" class="node">
<title>Node10</title>
<g id="a_Node000010"><a xlink:href="globalqueryhandler_8h.html" target="_top" xlink:title=" ">
<polygon fill="white" stroke="#666666" points="850.88,-97 717.12,-97 717.12,-66.5 850.88,-66.5 850.88,-97"/>
<text text-anchor="start" x="725.12" y="-83.5" font-family="Helvetica,sans-Serif" font-size="10.00">workspace/albert/include</text>
<text text-anchor="middle" x="784" y="-72.25" font-family="Helvetica,sans-Serif" font-size="10.00">/albert/globalqueryhandler.h</text>
</a>
</g>
</g>
<!-- Node9&#45;&gt;Node10 -->
<g id="edge9_Node000009_Node000010" class="edge">
<title>Node9&#45;&gt;Node10</title>
<g id="a_edge9_Node000009_Node000010"><a xlink:title=" ">
<path fill="none" stroke="#63b8ff" d="M784,-121.31C784,-113.14 784,-104.41 784,-97.33"/>
<polygon fill="#63b8ff" stroke="#63b8ff" points="780.5,-121.1 784,-131.1 787.5,-121.1 780.5,-121.1"/>
</a>
</g>
</g>
<!-- Node11 -->
<g id="Node000011" class="node">
<title>Node11</title>
<g id="a_Node000011"><a xlink:href="indexqueryhandler_8h.html" target="_top" xlink:title=" ">
<polygon fill="white" stroke="#666666" points="849.38,-30.5 718.62,-30.5 718.62,0 849.38,0 849.38,-30.5"/>
<text text-anchor="start" x="726.62" y="-17" font-family="Helvetica,sans-Serif" font-size="10.00">workspace/albert/include</text>
<text text-anchor="middle" x="784" y="-5.75" font-family="Helvetica,sans-Serif" font-size="10.00">/albert/indexqueryhandler.h</text>
</a>
</g>
</g>
<!-- Node10&#45;&gt;Node11 -->
<g id="edge10_Node000010_Node000011" class="edge">
<title>Node10&#45;&gt;Node11</title>
<g id="a_edge10_Node000010_Node000011"><a xlink:title=" ">
<path fill="none" stroke="#63b8ff" d="M784,-54.81C784,-46.64 784,-37.91 784,-30.83"/>
<polygon fill="#63b8ff" stroke="#63b8ff" points="780.5,-54.6 784,-64.6 787.5,-54.6 780.5,-54.6"/>
</a>
</g>
</g>
</g>
</svg>
