<?xml version="1.0" encoding="UTF-8" standalone="no"?>
<!DOCTYPE svg PUBLIC "-//W3C//DTD SVG 1.1//EN"
 "http://www.w3.org/Graphics/SVG/1.1/DTD/svg11.dtd">
<!-- Generated by graphviz version 9.0.0 (20230911.1827)
 -->
<!-- Title: workspace/albert/include/albert/extensionplugin.h Pages: 1 -->
<svg width="523pt" height="149pt"
 viewBox="0.00 0.00 522.50 149.00" xmlns="http://www.w3.org/2000/svg" xmlns:xlink="http://www.w3.org/1999/xlink">
<g id="graph0" class="graph" transform="scale(1 1) rotate(0) translate(4 145)">
<title>workspace/albert/include/albert/extensionplugin.h</title>
<!-- Node1 -->
<g id="Node000001" class="node">
<title>Node1</title>
<g id="a_Node000001"><a xlink:title=" ">
<polygon fill="#999999" stroke="#666666" points="170,-141 46,-141 46,-110.5 170,-110.5 170,-141"/>
<text text-anchor="start" x="54" y="-127.5" font-family="Helvetica,sans-Serif" font-size="10.00">workspace/albert/include</text>
<text text-anchor="middle" x="108" y="-116.25" font-family="Helvetica,sans-Serif" font-size="10.00">/albert/extensionplugin.h</text>
</a>
</g>
</g>
<!-- Node2 -->
<g id="Node000002" class="node">
<title>Node2</title>
<g id="a_Node000002"><a xlink:title=" ">
<polygon fill="#e0e0e0" stroke="#999999" points="52,-19.25 0,-19.25 0,0 52,0 52,-19.25"/>
<text text-anchor="middle" x="26" y="-5.75" font-family="Helvetica,sans-Serif" font-size="10.00">QObject</text>
</a>
</g>
</g>
<!-- Node1&#45;&gt;Node2 -->
<g id="edge1_Node000001_Node000002" class="edge">
<title>Node1&#45;&gt;Node2</title>
<g id="a_edge1_Node000001_Node000002"><a xlink:title=" ">
<path fill="none" stroke="#63b8ff" d="M88.2,-110.19C76.74,-100.97 62.7,-88.23 53,-74.5 43.42,-60.95 36.33,-43.48 31.83,-30.23"/>
<polygon fill="#63b8ff" stroke="#63b8ff" points="35.24,-29.41 28.88,-20.93 28.57,-31.52 35.24,-29.41"/>
</a>
</g>
</g>
<!-- Node3 -->
<g id="Node000003" class="node">
<title>Node3</title>
<g id="a_Node000003"><a xlink:href="extension_8h.html" target="_top" xlink:title=" ">
<polygon fill="white" stroke="#666666" points="153.88,-74.5 62.12,-74.5 62.12,-55.25 153.88,-55.25 153.88,-74.5"/>
<text text-anchor="middle" x="108" y="-61" font-family="Helvetica,sans-Serif" font-size="10.00">albert/extension.h</text>
</a>
</g>
</g>
<!-- Node1&#45;&gt;Node3 -->
<g id="edge2_Node000001_Node000003" class="edge">
<title>Node1&#45;&gt;Node3</title>
<g id="a_edge2_Node000001_Node000003"><a xlink:title=" ">
<path fill="none" stroke="#63b8ff" d="M108,-110.2C108,-102.96 108,-94.09 108,-86.19"/>
<polygon fill="#63b8ff" stroke="#63b8ff" points="111.5,-86.46 108,-76.46 104.5,-86.46 111.5,-86.46"/>
</a>
</g>
</g>
<!-- Node5 -->
<g id="Node000005" class="node">
<title>Node5</title>
<g id="a_Node000005"><a xlink:href="plugininstance_8h.html" target="_top" xlink:title=" ">
<polygon fill="white" stroke="#666666" points="314.38,-74.5 201.62,-74.5 201.62,-55.25 314.38,-55.25 314.38,-74.5"/>
<text text-anchor="middle" x="258" y="-61" font-family="Helvetica,sans-Serif" font-size="10.00">albert/plugininstance.h</text>
</a>
</g>
</g>
<!-- Node1&#45;&gt;Node5 -->
<g id="edge4_Node000001_Node000005" class="edge">
<title>Node1&#45;&gt;Node5</title>
<g id="a_edge4_Node000001_Node000005"><a xlink:title=" ">
<path fill="none" stroke="#63b8ff" d="M145.46,-110.05C169.74,-100.52 201.07,-88.22 224.51,-79.02"/>
<polygon fill="#63b8ff" stroke="#63b8ff" points="225.56,-82.37 233.59,-75.46 223,-75.85 225.56,-82.37"/>
</a>
</g>
</g>
<!-- Node4 -->
<g id="Node000004" class="node">
<title>Node4</title>
<g id="a_Node000004"><a xlink:title=" ">
<polygon fill="#e0e0e0" stroke="#999999" points="146.38,-19.25 69.62,-19.25 69.62,0 146.38,0 146.38,-19.25"/>
<text text-anchor="middle" x="108" y="-5.75" font-family="Helvetica,sans-Serif" font-size="10.00">albert/export.h</text>
</a>
</g>
</g>
<!-- Node3&#45;&gt;Node4 -->
<g id="edge3_Node000003_Node000004" class="edge">
<title>Node3&#45;&gt;Node4</title>
<g id="a_edge3_Node000003_Node000004"><a xlink:title=" ">
<path fill="none" stroke="#63b8ff" d="M108,-55.08C108,-48.57 108,-39.42 108,-31.12"/>
<polygon fill="#63b8ff" stroke="#63b8ff" points="111.5,-31.12 108,-21.12 104.5,-31.12 111.5,-31.12"/>
</a>
</g>
</g>
<!-- Node5&#45;&gt;Node2 -->
<g id="edge5_Node000005_Node000002" class="edge">
<title>Node5&#45;&gt;Node2</title>
<g id="a_edge5_Node000005_Node000002"><a xlink:title=" ">
<path fill="none" stroke="#63b8ff" d="M216.82,-54.78C179.27,-46.44 121.96,-33.58 63.32,-19.77"/>
<polygon fill="#63b8ff" stroke="#63b8ff" points="64.37,-16.42 53.83,-17.53 62.76,-23.23 64.37,-16.42"/>
</a>
</g>
</g>
<!-- Node5&#45;&gt;Node4 -->
<g id="edge7_Node000005_Node000004" class="edge">
<title>Node5&#45;&gt;Node4</title>
<g id="a_edge7_Node000005_Node000004"><a xlink:title=" ">
<path fill="none" stroke="#63b8ff" d="M232.55,-54.84C208.31,-46.24 171.57,-33.19 144.26,-23.5"/>
<polygon fill="#63b8ff" stroke="#63b8ff" points="145.59,-20.26 135,-20.21 143.25,-26.85 145.59,-20.26"/>
</a>
</g>
</g>
<!-- Node6 -->
<g id="Node000006" class="node">
<title>Node6</title>
<g id="a_Node000006"><a xlink:title=" ">
<polygon fill="#e0e0e0" stroke="#999999" points="514.5,-19.25 465.5,-19.25 465.5,0 514.5,0 514.5,-19.25"/>
<text text-anchor="middle" x="490" y="-5.75" font-family="Helvetica,sans-Serif" font-size="10.00">QString</text>
</a>
</g>
</g>
<!-- Node5&#45;&gt;Node6 -->
<g id="edge6_Node000005_Node000006" class="edge">
<title>Node5&#45;&gt;Node6</title>
<g id="a_edge6_Node000005_Node000006"><a xlink:title=" ">
<path fill="none" stroke="#63b8ff" d="M300.41,-54.81C338.41,-46.6 395.92,-33.92 454.26,-19.86"/>
<polygon fill="#63b8ff" stroke="#63b8ff" points="454.79,-23.33 463.69,-17.57 453.14,-16.53 454.79,-23.33"/>
</a>
</g>
</g>
<!-- Node7 -->
<g id="Node000007" class="node">
<title>Node7</title>
<g id="a_Node000007"><a xlink:title=" ">
<polygon fill="#e0e0e0" stroke="#999999" points="240,-19.25 164,-19.25 164,0 240,0 240,-19.25"/>
<text text-anchor="middle" x="202" y="-5.75" font-family="Helvetica,sans-Serif" font-size="10.00">albert/plugin.h</text>
</a>
</g>
</g>
<!-- Node5&#45;&gt;Node7 -->
<g id="edge8_Node000005_Node000007" class="edge">
<title>Node5&#45;&gt;Node7</title>
<g id="a_edge8_Node000005_Node000007"><a xlink:title=" ">
<path fill="none" stroke="#63b8ff" d="M248.5,-54.84C240.57,-47.3 229.05,-36.35 219.46,-27.23"/>
<polygon fill="#63b8ff" stroke="#63b8ff" points="222.11,-24.92 212.46,-20.57 217.29,-29.99 222.11,-24.92"/>
</a>
</g>
</g>
<!-- Node8 -->
<g id="Node000008" class="node">
<title>Node8</title>
<g id="a_Node000008"><a xlink:title=" ">
<polygon fill="#e0e0e0" stroke="#999999" points="317.75,-19.25 258.25,-19.25 258.25,0 317.75,0 317.75,-19.25"/>
<text text-anchor="middle" x="288" y="-5.75" font-family="Helvetica,sans-Serif" font-size="10.00">filesystem</text>
</a>
</g>
</g>
<!-- Node5&#45;&gt;Node8 -->
<g id="edge9_Node000005_Node000008" class="edge">
<title>Node5&#45;&gt;Node8</title>
<g id="a_edge9_Node000005_Node000008"><a xlink:title=" ">
<path fill="none" stroke="#63b8ff" d="M262.95,-55.08C266.88,-48.11 272.51,-38.12 277.44,-29.37"/>
<polygon fill="#63b8ff" stroke="#63b8ff" points="280.34,-31.36 282.2,-20.93 274.24,-27.92 280.34,-31.36"/>
</a>
</g>
</g>
<!-- Node9 -->
<g id="Node000009" class="node">
<title>Node9</title>
<g id="a_Node000009"><a xlink:title=" ">
<polygon fill="#e0e0e0" stroke="#999999" points="386.25,-19.25 335.75,-19.25 335.75,0 386.25,0 386.25,-19.25"/>
<text text-anchor="middle" x="361" y="-5.75" font-family="Helvetica,sans-Serif" font-size="10.00">memory</text>
</a>
</g>
</g>
<!-- Node5&#45;&gt;Node9 -->
<g id="edge10_Node000005_Node000009" class="edge">
<title>Node5&#45;&gt;Node9</title>
<g id="a_edge10_Node000005_Node000009"><a xlink:title=" ">
<path fill="none" stroke="#63b8ff" d="M275.47,-54.84C291.31,-46.66 314.91,-34.46 333.31,-24.94"/>
<polygon fill="#63b8ff" stroke="#63b8ff" points="334.82,-28.1 342.1,-20.4 331.61,-21.88 334.82,-28.1"/>
</a>
</g>
</g>
<!-- Node10 -->
<g id="Node000010" class="node">
<title>Node10</title>
<g id="a_Node000010"><a xlink:title=" ">
<polygon fill="#e0e0e0" stroke="#999999" points="447.5,-19.25 404.5,-19.25 404.5,0 447.5,0 447.5,-19.25"/>
<text text-anchor="middle" x="426" y="-5.75" font-family="Helvetica,sans-Serif" font-size="10.00">vector</text>
</a>
</g>
</g>
<!-- Node5&#45;&gt;Node10 -->
<g id="edge11_Node000005_Node000010" class="edge">
<title>Node5&#45;&gt;Node10</title>
<g id="a_edge11_Node000005_Node000010"><a xlink:title=" ">
<path fill="none" stroke="#63b8ff" d="M286.5,-54.84C316.1,-45.46 362.34,-30.8 393.38,-20.96"/>
<polygon fill="#63b8ff" stroke="#63b8ff" points="394.15,-24.39 402.63,-18.03 392.03,-17.72 394.15,-24.39"/>
</a>
</g>
</g>
</g>
</svg>
