<?xml version="1.0" encoding="UTF-8" standalone="no"?>
<!DOCTYPE svg PUBLIC "-//W3C//DTD SVG 1.1//EN"
 "http://www.w3.org/Graphics/SVG/1.1/DTD/svg11.dtd">
<!-- Generated by graphviz version 9.0.0 (20230911.1827)
 -->
<!-- Title: workspace/albert/include/albert/fallbackhandler.h Pages: 1 -->
<svg width="496pt" height="204pt"
 viewBox="0.00 0.00 496.49 204.25" xmlns="http://www.w3.org/2000/svg" xmlns:xlink="http://www.w3.org/1999/xlink">
<g id="graph0" class="graph" transform="scale(1 1) rotate(0) translate(4 200.25)">
<title>workspace/albert/include/albert/fallbackhandler.h</title>
<!-- Node1 -->
<g id="Node000001" class="node">
<title>Node1</title>
<g id="a_Node000001"><a xlink:title=" ">
<polygon fill="#999999" stroke="#666666" points="386.24,-196.25 262.24,-196.25 262.24,-165.75 386.24,-165.75 386.24,-196.25"/>
<text text-anchor="start" x="270.24" y="-182.75" font-family="Helvetica,sans-Serif" font-size="10.00">workspace/albert/include</text>
<text text-anchor="middle" x="324.24" y="-171.5" font-family="Helvetica,sans-Serif" font-size="10.00">/albert/fallbackhandler.h</text>
</a>
</g>
</g>
<!-- Node2 -->
<g id="Node000002" class="node">
<title>Node2</title>
<g id="a_Node000002"><a xlink:title=" ">
<polygon fill="#e0e0e0" stroke="#999999" points="83.74,-19.25 34.74,-19.25 34.74,0 83.74,0 83.74,-19.25"/>
<text text-anchor="middle" x="59.24" y="-5.75" font-family="Helvetica,sans-Serif" font-size="10.00">QString</text>
</a>
</g>
</g>
<!-- Node1&#45;&gt;Node2 -->
<g id="edge1_Node000001_Node000002" class="edge">
<title>Node1&#45;&gt;Node2</title>
<g id="a_edge1_Node000001_Node000002"><a xlink:title=" ">
<path fill="none" stroke="#63b8ff" d="M262.02,-179.83C186.65,-175.84 62.55,-156.32 4.24,-74.5 -8.4,-56.76 12.25,-38.06 31.76,-25.5"/>
<polygon fill="#63b8ff" stroke="#63b8ff" points="33.32,-28.65 40.08,-20.49 29.71,-22.65 33.32,-28.65"/>
</a>
</g>
</g>
<!-- Node3 -->
<g id="Node000003" class="node">
<title>Node3</title>
<g id="a_Node000003"><a xlink:title=" ">
<polygon fill="#e0e0e0" stroke="#999999" points="265.61,-19.25 188.86,-19.25 188.86,0 265.61,0 265.61,-19.25"/>
<text text-anchor="middle" x="227.24" y="-5.75" font-family="Helvetica,sans-Serif" font-size="10.00">albert/export.h</text>
</a>
</g>
</g>
<!-- Node1&#45;&gt;Node3 -->
<g id="edge2_Node000001_Node000003" class="edge">
<title>Node1&#45;&gt;Node3</title>
<g id="a_edge2_Node000001_Node000003"><a xlink:title=" ">
<path fill="none" stroke="#63b8ff" d="M342.76,-165.27C371.06,-140.97 419.01,-91.58 391.24,-55.25 377.34,-37.06 320.06,-24.53 277.08,-17.48"/>
<polygon fill="#63b8ff" stroke="#63b8ff" points="277.86,-14.06 267.44,-15.96 276.77,-20.97 277.86,-14.06"/>
</a>
</g>
</g>
<!-- Node4 -->
<g id="Node000004" class="node">
<title>Node4</title>
<g id="a_Node000004"><a xlink:href="extension_8h.html" target="_top" xlink:title=" ">
<polygon fill="white" stroke="#666666" points="105.11,-74.5 13.36,-74.5 13.36,-55.25 105.11,-55.25 105.11,-74.5"/>
<text text-anchor="middle" x="59.24" y="-61" font-family="Helvetica,sans-Serif" font-size="10.00">albert/extension.h</text>
</a>
</g>
</g>
<!-- Node1&#45;&gt;Node4 -->
<g id="edge3_Node000001_Node000004" class="edge">
<title>Node1&#45;&gt;Node4</title>
<g id="a_edge3_Node000001_Node000004"><a xlink:title=" ">
<path fill="none" stroke="#63b8ff" d="M290.14,-165.31C238.41,-143.04 140.86,-101.02 90.73,-79.44"/>
<polygon fill="#63b8ff" stroke="#63b8ff" points="92.17,-76.24 81.6,-75.5 89.4,-82.67 92.17,-76.24"/>
</a>
</g>
</g>
<!-- Node5 -->
<g id="Node000005" class="node">
<title>Node5</title>
<g id="a_Node000005"><a xlink:href="item_8h.html" target="_top" xlink:title=" ">
<polygon fill="white" stroke="#666666" points="322.86,-129.75 253.61,-129.75 253.61,-110.5 322.86,-110.5 322.86,-129.75"/>
<text text-anchor="middle" x="288.24" y="-116.25" font-family="Helvetica,sans-Serif" font-size="10.00">albert/item.h</text>
</a>
</g>
</g>
<!-- Node1&#45;&gt;Node5 -->
<g id="edge6_Node000001_Node000005" class="edge">
<title>Node1&#45;&gt;Node5</title>
<g id="a_edge6_Node000001_Node000005"><a xlink:title=" ">
<path fill="none" stroke="#63b8ff" d="M315.34,-165.45C310.6,-157.69 304.71,-148.06 299.64,-139.76"/>
<polygon fill="#63b8ff" stroke="#63b8ff" points="302.78,-138.2 294.58,-131.49 296.81,-141.85 302.78,-138.2"/>
</a>
</g>
</g>
<!-- Node9 -->
<g id="Node000009" class="node">
<title>Node9</title>
<g id="a_Node000009"><a xlink:title=" ">
<polygon fill="#e0e0e0" stroke="#999999" points="381.74,-74.5 338.74,-74.5 338.74,-55.25 381.74,-55.25 381.74,-74.5"/>
<text text-anchor="middle" x="360.24" y="-61" font-family="Helvetica,sans-Serif" font-size="10.00">vector</text>
</a>
</g>
</g>
<!-- Node1&#45;&gt;Node9 -->
<g id="edge15_Node000001_Node000009" class="edge">
<title>Node1&#45;&gt;Node9</title>
<g id="a_edge15_Node000001_Node000009"><a xlink:title=" ">
<path fill="none" stroke="#63b8ff" d="M328.8,-165.55C335.18,-145.31 346.8,-108.47 353.99,-85.69"/>
<polygon fill="#63b8ff" stroke="#63b8ff" points="357.25,-86.98 356.92,-76.39 350.58,-84.88 357.25,-86.98"/>
</a>
</g>
</g>
<!-- Node10 -->
<g id="Node000010" class="node">
<title>Node10</title>
<g id="a_Node000010"><a xlink:title=" ">
<polygon fill="#e0e0e0" stroke="#999999" points="488.49,-129.75 437.99,-129.75 437.99,-110.5 488.49,-110.5 488.49,-129.75"/>
<text text-anchor="middle" x="463.24" y="-116.25" font-family="Helvetica,sans-Serif" font-size="10.00">memory</text>
</a>
</g>
</g>
<!-- Node1&#45;&gt;Node10 -->
<g id="edge14_Node000001_Node000010" class="edge">
<title>Node1&#45;&gt;Node10</title>
<g id="a_edge14_Node000001_Node000010"><a xlink:title=" ">
<path fill="none" stroke="#63b8ff" d="M358.96,-165.3C381.24,-155.85 409.96,-143.69 431.62,-134.52"/>
<polygon fill="#63b8ff" stroke="#63b8ff" points="432.69,-137.87 440.53,-130.74 429.96,-131.42 432.69,-137.87"/>
</a>
</g>
</g>
<!-- Node4&#45;&gt;Node2 -->
<g id="edge4_Node000004_Node000002" class="edge">
<title>Node4&#45;&gt;Node2</title>
<g id="a_edge4_Node000004_Node000002"><a xlink:title=" ">
<path fill="none" stroke="#63b8ff" d="M59.24,-55.08C59.24,-48.57 59.24,-39.42 59.24,-31.12"/>
<polygon fill="#63b8ff" stroke="#63b8ff" points="62.74,-31.12 59.24,-21.12 55.74,-31.12 62.74,-31.12"/>
</a>
</g>
</g>
<!-- Node4&#45;&gt;Node3 -->
<g id="edge5_Node000004_Node000003" class="edge">
<title>Node4&#45;&gt;Node3</title>
<g id="a_edge5_Node000004_Node000003"><a xlink:title=" ">
<path fill="none" stroke="#63b8ff" d="M87.74,-54.84C115.25,-46.12 157.15,-32.84 187.85,-23.11"/>
<polygon fill="#63b8ff" stroke="#63b8ff" points="188.68,-26.52 197.16,-20.16 186.57,-19.84 188.68,-26.52"/>
</a>
</g>
</g>
<!-- Node5&#45;&gt;Node3 -->
<g id="edge12_Node000005_Node000003" class="edge">
<title>Node5&#45;&gt;Node3</title>
<g id="a_edge12_Node000005_Node000003"><a xlink:title=" ">
<path fill="none" stroke="#63b8ff" d="M277.44,-110.28C267.95,-101.97 254.41,-88.7 246.24,-74.5 238.37,-60.82 233.49,-43.58 230.65,-30.46"/>
<polygon fill="#63b8ff" stroke="#63b8ff" points="234.14,-30.04 228.81,-20.88 227.26,-31.37 234.14,-30.04"/>
</a>
</g>
</g>
<!-- Node6 -->
<g id="Node000006" class="node">
<title>Node6</title>
<g id="a_Node000006"><a xlink:title=" ">
<polygon fill="#e0e0e0" stroke="#999999" points="320.99,-74.5 255.49,-74.5 255.49,-55.25 320.99,-55.25 320.99,-74.5"/>
<text text-anchor="middle" x="288.24" y="-61" font-family="Helvetica,sans-Serif" font-size="10.00">QStringList</text>
</a>
</g>
</g>
<!-- Node5&#45;&gt;Node6 -->
<g id="edge7_Node000005_Node000006" class="edge">
<title>Node5&#45;&gt;Node6</title>
<g id="a_edge7_Node000005_Node000006"><a xlink:title=" ">
<path fill="none" stroke="#63b8ff" d="M288.24,-110.33C288.24,-103.82 288.24,-94.67 288.24,-86.37"/>
<polygon fill="#63b8ff" stroke="#63b8ff" points="291.74,-86.37 288.24,-76.37 284.74,-86.37 291.74,-86.37"/>
</a>
</g>
</g>
<!-- Node7 -->
<g id="Node000007" class="node">
<title>Node7</title>
<g id="a_Node000007"><a xlink:href="action_8h.html" target="_top" xlink:title=" ">
<polygon fill="white" stroke="#666666" points="199.61,-74.5 122.86,-74.5 122.86,-55.25 199.61,-55.25 199.61,-74.5"/>
<text text-anchor="middle" x="161.24" y="-61" font-family="Helvetica,sans-Serif" font-size="10.00">albert/action.h</text>
</a>
</g>
</g>
<!-- Node5&#45;&gt;Node7 -->
<g id="edge8_Node000005_Node000007" class="edge">
<title>Node5&#45;&gt;Node7</title>
<g id="a_edge8_Node000005_Node000007"><a xlink:title=" ">
<path fill="none" stroke="#63b8ff" d="M266.7,-110.09C246.63,-101.68 216.44,-89.02 193.49,-79.4"/>
<polygon fill="#63b8ff" stroke="#63b8ff" points="194.86,-76.18 184.29,-75.54 192.15,-82.63 194.86,-76.18"/>
</a>
</g>
</g>
<!-- Node5&#45;&gt;Node9 -->
<g id="edge13_Node000005_Node000009" class="edge">
<title>Node5&#45;&gt;Node9</title>
<g id="a_edge13_Node000005_Node000009"><a xlink:title=" ">
<path fill="none" stroke="#63b8ff" d="M300.45,-110.09C311.07,-102.24 326.68,-90.7 339.28,-81.37"/>
<polygon fill="#63b8ff" stroke="#63b8ff" points="341.03,-84.44 346.99,-75.67 336.87,-78.81 341.03,-84.44"/>
</a>
</g>
</g>
<!-- Node7&#45;&gt;Node2 -->
<g id="edge9_Node000007_Node000002" class="edge">
<title>Node7&#45;&gt;Node2</title>
<g id="a_edge9_Node000007_Node000002"><a xlink:title=" ">
<path fill="none" stroke="#63b8ff" d="M143.94,-54.84C128.26,-46.66 104.89,-34.46 86.66,-24.94"/>
<polygon fill="#63b8ff" stroke="#63b8ff" points="88.45,-21.93 77.97,-20.4 85.21,-28.13 88.45,-21.93"/>
</a>
</g>
</g>
<!-- Node7&#45;&gt;Node3 -->
<g id="edge10_Node000007_Node000003" class="edge">
<title>Node7&#45;&gt;Node3</title>
<g id="a_edge10_Node000007_Node000003"><a xlink:title=" ">
<path fill="none" stroke="#63b8ff" d="M172.44,-54.84C181.97,-47.15 195.91,-35.9 207.35,-26.68"/>
<polygon fill="#63b8ff" stroke="#63b8ff" points="209.45,-29.48 215.03,-20.48 205.05,-24.03 209.45,-29.48"/>
</a>
</g>
</g>
<!-- Node8 -->
<g id="Node000008" class="node">
<title>Node8</title>
<g id="a_Node000008"><a xlink:title=" ">
<polygon fill="#e0e0e0" stroke="#999999" points="171.24,-19.25 113.24,-19.25 113.24,0 171.24,0 171.24,-19.25"/>
<text text-anchor="middle" x="142.24" y="-5.75" font-family="Helvetica,sans-Serif" font-size="10.00">functional</text>
</a>
</g>
</g>
<!-- Node7&#45;&gt;Node8 -->
<g id="edge11_Node000007_Node000008" class="edge">
<title>Node7&#45;&gt;Node8</title>
<g id="a_edge11_Node000007_Node000008"><a xlink:title=" ">
<path fill="none" stroke="#63b8ff" d="M158.1,-55.08C155.7,-48.34 152.28,-38.77 149.24,-30.24"/>
<polygon fill="#63b8ff" stroke="#63b8ff" points="152.61,-29.28 145.95,-21.03 146.02,-31.63 152.61,-29.28"/>
</a>
</g>
</g>
</g>
</svg>
