<?xml version="1.0" encoding="UTF-8" standalone="no"?>
<!DOCTYPE svg PUBLIC "-//W3C//DTD SVG 1.1//EN"
 "http://www.w3.org/Graphics/SVG/1.1/DTD/svg11.dtd">
<!-- Generated by graphviz version 9.0.0 (20230911.1827)
 -->
<!-- Title: workspace/albert/include/albert/fallbackhandler.h Pages: 1 -->
<svg width="400pt" height="149pt"
 viewBox="0.00 0.00 399.75 149.00" xmlns="http://www.w3.org/2000/svg" xmlns:xlink="http://www.w3.org/1999/xlink">
<g id="graph0" class="graph" transform="scale(1 1) rotate(0) translate(4 145)">
<title>workspace/albert/include/albert/fallbackhandler.h</title>
<!-- Node1 -->
<g id="Node000001" class="node">
<title>Node1</title>
<g id="a_Node000001"><a xlink:title=" ">
<polygon fill="#999999" stroke="#666666" points="262.5,-141 138.5,-141 138.5,-110.5 262.5,-110.5 262.5,-141"/>
<text text-anchor="start" x="146.5" y="-127.5" font-family="Helvetica,sans-Serif" font-size="10.00">workspace/albert/include</text>
<text text-anchor="middle" x="200.5" y="-116.25" font-family="Helvetica,sans-Serif" font-size="10.00">/albert/fallbackhandler.h</text>
</a>
</g>
</g>
<!-- Node2 -->
<g id="Node000002" class="node">
<title>Node2</title>
<g id="a_Node000002"><a xlink:title=" ">
<polygon fill="#e0e0e0" stroke="#999999" points="49,-74.5 0,-74.5 0,-55.25 49,-55.25 49,-74.5"/>
<text text-anchor="middle" x="24.5" y="-61" font-family="Helvetica,sans-Serif" font-size="10.00">QString</text>
</a>
</g>
</g>
<!-- Node1&#45;&gt;Node2 -->
<g id="edge1_Node000001_Node000002" class="edge">
<title>Node1&#45;&gt;Node2</title>
<g id="a_edge1_Node000001_Node000002"><a xlink:title=" ">
<path fill="none" stroke="#63b8ff" d="M156.54,-110.05C126.83,-100.11 88.1,-87.15 60.28,-77.84"/>
<polygon fill="#63b8ff" stroke="#63b8ff" points="61.48,-74.55 50.89,-74.7 59.26,-81.19 61.48,-74.55"/>
</a>
</g>
</g>
<!-- Node3 -->
<g id="Node000003" class="node">
<title>Node3</title>
<g id="a_Node000003"><a xlink:title=" ">
<polygon fill="#e0e0e0" stroke="#999999" points="119.88,-19.25 43.12,-19.25 43.12,0 119.88,0 119.88,-19.25"/>
<text text-anchor="middle" x="81.5" y="-5.75" font-family="Helvetica,sans-Serif" font-size="10.00">albert/export.h</text>
</a>
</g>
</g>
<!-- Node1&#45;&gt;Node3 -->
<g id="edge2_Node000001_Node000003" class="edge">
<title>Node1&#45;&gt;Node3</title>
<g id="a_edge2_Node000001_Node000003"><a xlink:title=" ">
<path fill="none" stroke="#63b8ff" d="M148.38,-110.07C129.53,-102.33 109.67,-90.93 96.5,-74.5 86.57,-62.11 83.01,-44.29 81.82,-30.61"/>
<polygon fill="#63b8ff" stroke="#63b8ff" points="85.34,-30.83 81.36,-21.01 78.34,-31.16 85.34,-30.83"/>
</a>
</g>
</g>
<!-- Node4 -->
<g id="Node000004" class="node">
<title>Node4</title>
<g id="a_Node000004"><a xlink:href="extension_8h.html" target="_top" xlink:title=" ">
<polygon fill="white" stroke="#666666" points="197.38,-74.5 105.62,-74.5 105.62,-55.25 197.38,-55.25 197.38,-74.5"/>
<text text-anchor="middle" x="151.5" y="-61" font-family="Helvetica,sans-Serif" font-size="10.00">albert/extension.h</text>
</a>
</g>
</g>
<!-- Node1&#45;&gt;Node4 -->
<g id="edge3_Node000001_Node000004" class="edge">
<title>Node1&#45;&gt;Node4</title>
<g id="a_edge3_Node000001_Node000004"><a xlink:title=" ">
<path fill="none" stroke="#63b8ff" d="M188.39,-110.2C181.72,-102.18 173.38,-92.17 166.32,-83.69"/>
<polygon fill="#63b8ff" stroke="#63b8ff" points="169.11,-81.56 160.02,-76.11 163.73,-86.04 169.11,-81.56"/>
</a>
</g>
</g>
<!-- Node5 -->
<g id="Node000005" class="node">
<title>Node5</title>
<g id="a_Node000005"><a xlink:href="item_8h.html" target="_top" xlink:title=" ">
<polygon fill="white" stroke="#666666" points="285.12,-74.5 215.88,-74.5 215.88,-55.25 285.12,-55.25 285.12,-74.5"/>
<text text-anchor="middle" x="250.5" y="-61" font-family="Helvetica,sans-Serif" font-size="10.00">albert/item.h</text>
</a>
</g>
</g>
<!-- Node1&#45;&gt;Node5 -->
<g id="edge5_Node000001_Node000005" class="edge">
<title>Node1&#45;&gt;Node5</title>
<g id="a_edge5_Node000001_Node000005"><a xlink:title=" ">
<path fill="none" stroke="#63b8ff" d="M212.86,-110.2C219.67,-102.18 228.17,-92.17 235.37,-83.69"/>
<polygon fill="#63b8ff" stroke="#63b8ff" points="238.01,-85.99 241.81,-76.1 232.67,-81.46 238.01,-85.99"/>
</a>
</g>
</g>
<!-- Node8 -->
<g id="Node000008" class="node">
<title>Node8</title>
<g id="a_Node000008"><a xlink:title=" ">
<polygon fill="#e0e0e0" stroke="#999999" points="341,-19.25 298,-19.25 298,0 341,0 341,-19.25"/>
<text text-anchor="middle" x="319.5" y="-5.75" font-family="Helvetica,sans-Serif" font-size="10.00">vector</text>
</a>
</g>
</g>
<!-- Node1&#45;&gt;Node8 -->
<g id="edge11_Node000001_Node000008" class="edge">
<title>Node1&#45;&gt;Node8</title>
<g id="a_edge11_Node000001_Node000008"><a xlink:title=" ">
<path fill="none" stroke="#63b8ff" d="M242.25,-110.08C260.31,-101.96 280.49,-90.27 294.5,-74.5 305.52,-62.1 311.95,-44.27 315.52,-30.6"/>
<polygon fill="#63b8ff" stroke="#63b8ff" points="318.91,-31.49 317.71,-20.97 312.08,-29.94 318.91,-31.49"/>
</a>
</g>
</g>
<!-- Node9 -->
<g id="Node000009" class="node">
<title>Node9</title>
<g id="a_Node000009"><a xlink:title=" ">
<polygon fill="#e0e0e0" stroke="#999999" points="391.75,-74.5 341.25,-74.5 341.25,-55.25 391.75,-55.25 391.75,-74.5"/>
<text text-anchor="middle" x="366.5" y="-61" font-family="Helvetica,sans-Serif" font-size="10.00">memory</text>
</a>
</g>
</g>
<!-- Node1&#45;&gt;Node9 -->
<g id="edge10_Node000001_Node000009" class="edge">
<title>Node1&#45;&gt;Node9</title>
<g id="a_edge10_Node000001_Node000009"><a xlink:title=" ">
<path fill="none" stroke="#63b8ff" d="M241.96,-110.05C269.19,-100.39 304.44,-87.88 330.49,-78.65"/>
<polygon fill="#63b8ff" stroke="#63b8ff" points="331.36,-82.05 339.62,-75.41 329.02,-75.45 331.36,-82.05"/>
</a>
</g>
</g>
<!-- Node4&#45;&gt;Node3 -->
<g id="edge4_Node000004_Node000003" class="edge">
<title>Node4&#45;&gt;Node3</title>
<g id="a_edge4_Node000004_Node000003"><a xlink:title=" ">
<path fill="none" stroke="#63b8ff" d="M139.63,-54.84C129.41,-47.07 114.43,-35.67 102.24,-26.4"/>
<polygon fill="#63b8ff" stroke="#63b8ff" points="104.48,-23.71 94.4,-20.44 100.24,-29.28 104.48,-23.71"/>
</a>
</g>
</g>
<!-- Node5&#45;&gt;Node3 -->
<g id="edge7_Node000005_Node000003" class="edge">
<title>Node5&#45;&gt;Node3</title>
<g id="a_edge7_Node000005_Node000003"><a xlink:title=" ">
<path fill="none" stroke="#63b8ff" d="M221.83,-54.84C194.15,-46.12 152.01,-32.84 121.13,-23.11"/>
<polygon fill="#63b8ff" stroke="#63b8ff" points="122.34,-19.82 111.75,-20.16 120.24,-26.5 122.34,-19.82"/>
</a>
</g>
</g>
<!-- Node6 -->
<g id="Node000006" class="node">
<title>Node6</title>
<g id="a_Node000006"><a xlink:title=" ">
<polygon fill="#e0e0e0" stroke="#999999" points="203.25,-19.25 137.75,-19.25 137.75,0 203.25,0 203.25,-19.25"/>
<text text-anchor="middle" x="170.5" y="-5.75" font-family="Helvetica,sans-Serif" font-size="10.00">QStringList</text>
</a>
</g>
</g>
<!-- Node5&#45;&gt;Node6 -->
<g id="edge6_Node000005_Node000006" class="edge">
<title>Node5&#45;&gt;Node6</title>
<g id="a_edge6_Node000005_Node000006"><a xlink:title=" ">
<path fill="none" stroke="#63b8ff" d="M236.93,-54.84C225.09,-46.96 207.66,-35.36 193.63,-26.02"/>
<polygon fill="#63b8ff" stroke="#63b8ff" points="195.66,-23.17 185.4,-20.54 191.78,-29 195.66,-23.17"/>
</a>
</g>
</g>
<!-- Node7 -->
<g id="Node000007" class="node">
<title>Node7</title>
<g id="a_Node000007"><a xlink:title=" ">
<polygon fill="#e0e0e0" stroke="#999999" points="279.5,-19.25 221.5,-19.25 221.5,0 279.5,0 279.5,-19.25"/>
<text text-anchor="middle" x="250.5" y="-5.75" font-family="Helvetica,sans-Serif" font-size="10.00">functional</text>
</a>
</g>
</g>
<!-- Node5&#45;&gt;Node7 -->
<g id="edge8_Node000005_Node000007" class="edge">
<title>Node5&#45;&gt;Node7</title>
<g id="a_edge8_Node000005_Node000007"><a xlink:title=" ">
<path fill="none" stroke="#63b8ff" d="M250.5,-55.08C250.5,-48.57 250.5,-39.42 250.5,-31.12"/>
<polygon fill="#63b8ff" stroke="#63b8ff" points="254,-31.12 250.5,-21.12 247,-31.12 254,-31.12"/>
</a>
</g>
</g>
<!-- Node5&#45;&gt;Node8 -->
<g id="edge9_Node000005_Node000008" class="edge">
<title>Node5&#45;&gt;Node8</title>
<g id="a_edge9_Node000005_Node000008"><a xlink:title=" ">
<path fill="none" stroke="#63b8ff" d="M262.2,-54.84C272.28,-47.07 287.04,-35.67 299.06,-26.4"/>
<polygon fill="#63b8ff" stroke="#63b8ff" points="300.99,-29.33 306.77,-20.45 296.71,-23.79 300.99,-29.33"/>
</a>
</g>
</g>
</g>
</svg>
