<?xml version="1.0" encoding="UTF-8" standalone="no"?>
<!DOCTYPE svg PUBLIC "-//W3C//DTD SVG 1.1//EN"
 "http://www.w3.org/Graphics/SVG/1.1/DTD/svg11.dtd">
<!-- Generated by graphviz version 9.0.0 (20230911.1827)
 -->
<!-- Title: workspace/albert/include/albert/fallbackhandler.h Pages: 1 -->
<svg width="385pt" height="149pt"
 viewBox="0.00 0.00 384.75 149.00" xmlns="http://www.w3.org/2000/svg" xmlns:xlink="http://www.w3.org/1999/xlink">
<g id="graph0" class="graph" transform="scale(1 1) rotate(0) translate(4 145)">
<title>workspace/albert/include/albert/fallbackhandler.h</title>
<!-- Node1 -->
<g id="Node000001" class="node">
<title>Node1</title>
<g id="a_Node000001"><a xlink:title=" ">
<polygon fill="#999999" stroke="#666666" points="265.5,-141 141.5,-141 141.5,-110.5 265.5,-110.5 265.5,-141"/>
<text text-anchor="start" x="149.5" y="-127.5" font-family="Helvetica,sans-Serif" font-size="10.00">workspace/albert/include</text>
<text text-anchor="middle" x="203.5" y="-116.25" font-family="Helvetica,sans-Serif" font-size="10.00">/albert/fallbackhandler.h</text>
</a>
</g>
</g>
<!-- Node2 -->
<g id="Node000002" class="node">
<title>Node2</title>
<g id="a_Node000002"><a xlink:title=" ">
<polygon fill="#e0e0e0" stroke="#999999" points="49,-19.25 0,-19.25 0,0 49,0 49,-19.25"/>
<text text-anchor="middle" x="24.5" y="-5.75" font-family="Helvetica,sans-Serif" font-size="10.00">QString</text>
</a>
</g>
</g>
<!-- Node1&#45;&gt;Node2 -->
<g id="edge1_Node000001_Node000002" class="edge">
<title>Node1&#45;&gt;Node2</title>
<g id="a_edge1_Node000001_Node000002"><a xlink:title=" ">
<path fill="none" stroke="#63b8ff" d="M141.15,-119.18C108.09,-113.12 69.14,-100.53 43.5,-74.5 32.06,-62.89 27.46,-44.71 25.63,-30.71"/>
<polygon fill="#63b8ff" stroke="#63b8ff" points="29.13,-30.5 24.75,-20.85 22.15,-31.12 29.13,-30.5"/>
</a>
</g>
</g>
<!-- Node3 -->
<g id="Node000003" class="node">
<title>Node3</title>
<g id="a_Node000003"><a xlink:title=" ">
<polygon fill="#e0e0e0" stroke="#999999" points="143.88,-19.25 67.12,-19.25 67.12,0 143.88,0 143.88,-19.25"/>
<text text-anchor="middle" x="105.5" y="-5.75" font-family="Helvetica,sans-Serif" font-size="10.00">albert/export.h</text>
</a>
</g>
</g>
<!-- Node1&#45;&gt;Node3 -->
<g id="edge2_Node000001_Node000003" class="edge">
<title>Node1&#45;&gt;Node3</title>
<g id="a_edge2_Node000001_Node000003"><a xlink:title=" ">
<path fill="none" stroke="#63b8ff" d="M194.14,-110.01C184.63,-95.49 169.13,-72.98 153.5,-55.25 144.69,-45.27 133.91,-35.09 124.8,-26.98"/>
<polygon fill="#63b8ff" stroke="#63b8ff" points="127.36,-24.56 117.52,-20.63 122.76,-29.84 127.36,-24.56"/>
</a>
</g>
</g>
<!-- Node4 -->
<g id="Node000004" class="node">
<title>Node4</title>
<g id="a_Node000004"><a xlink:href="extension_8h.html" target="_top" xlink:title=" ">
<polygon fill="white" stroke="#666666" points="144.38,-74.5 52.62,-74.5 52.62,-55.25 144.38,-55.25 144.38,-74.5"/>
<text text-anchor="middle" x="98.5" y="-61" font-family="Helvetica,sans-Serif" font-size="10.00">albert/extension.h</text>
</a>
</g>
</g>
<!-- Node1&#45;&gt;Node4 -->
<g id="edge3_Node000001_Node000004" class="edge">
<title>Node1&#45;&gt;Node4</title>
<g id="a_edge3_Node000001_Node000004"><a xlink:title=" ">
<path fill="none" stroke="#63b8ff" d="M177.27,-110.05C161.13,-100.99 140.52,-89.44 124.43,-80.41"/>
<polygon fill="#63b8ff" stroke="#63b8ff" points="126.36,-77.48 115.92,-75.64 122.93,-83.59 126.36,-77.48"/>
</a>
</g>
</g>
<!-- Node5 -->
<g id="Node000005" class="node">
<title>Node5</title>
<g id="a_Node000005"><a xlink:href="item_8h.html" target="_top" xlink:title=" ">
<polygon fill="white" stroke="#666666" points="270.12,-74.5 200.88,-74.5 200.88,-55.25 270.12,-55.25 270.12,-74.5"/>
<text text-anchor="middle" x="235.5" y="-61" font-family="Helvetica,sans-Serif" font-size="10.00">albert/item.h</text>
</a>
</g>
</g>
<!-- Node1&#45;&gt;Node5 -->
<g id="edge6_Node000001_Node000005" class="edge">
<title>Node1&#45;&gt;Node5</title>
<g id="a_edge6_Node000001_Node000005"><a xlink:title=" ">
<path fill="none" stroke="#63b8ff" d="M211.41,-110.2C215.53,-102.61 220.63,-93.24 225.07,-85.07"/>
<polygon fill="#63b8ff" stroke="#63b8ff" points="228.14,-86.74 229.84,-76.28 221.99,-83.4 228.14,-86.74"/>
</a>
</g>
</g>
<!-- Node8 -->
<g id="Node000008" class="node">
<title>Node8</title>
<g id="a_Node000008"><a xlink:title=" ">
<polygon fill="#e0e0e0" stroke="#999999" points="365,-19.25 322,-19.25 322,0 365,0 365,-19.25"/>
<text text-anchor="middle" x="343.5" y="-5.75" font-family="Helvetica,sans-Serif" font-size="10.00">vector</text>
</a>
</g>
</g>
<!-- Node1&#45;&gt;Node8 -->
<g id="edge12_Node000001_Node000008" class="edge">
<title>Node1&#45;&gt;Node8</title>
<g id="a_edge12_Node000001_Node000008"><a xlink:title=" ">
<path fill="none" stroke="#63b8ff" d="M228.33,-110.09C243.62,-100.65 263.32,-87.7 279.5,-74.5 297.29,-59.99 315.64,-41.21 328.11,-27.78"/>
<polygon fill="#63b8ff" stroke="#63b8ff" points="330.53,-30.31 334.7,-20.57 325.37,-25.59 330.53,-30.31"/>
</a>
</g>
</g>
<!-- Node9 -->
<g id="Node000009" class="node">
<title>Node9</title>
<g id="a_Node000009"><a xlink:title=" ">
<polygon fill="#e0e0e0" stroke="#999999" points="376.75,-74.5 326.25,-74.5 326.25,-55.25 376.75,-55.25 376.75,-74.5"/>
<text text-anchor="middle" x="351.5" y="-61" font-family="Helvetica,sans-Serif" font-size="10.00">memory</text>
</a>
</g>
</g>
<!-- Node1&#45;&gt;Node9 -->
<g id="edge11_Node000001_Node000009" class="edge">
<title>Node1&#45;&gt;Node9</title>
<g id="a_edge11_Node000001_Node000009"><a xlink:title=" ">
<path fill="none" stroke="#63b8ff" d="M240.46,-110.05C264.3,-100.56 295.05,-88.33 318.15,-79.14"/>
<polygon fill="#63b8ff" stroke="#63b8ff" points="319.4,-82.41 327.4,-75.46 316.81,-75.91 319.4,-82.41"/>
</a>
</g>
</g>
<!-- Node4&#45;&gt;Node2 -->
<g id="edge4_Node000004_Node000002" class="edge">
<title>Node4&#45;&gt;Node2</title>
<g id="a_edge4_Node000004_Node000002"><a xlink:title=" ">
<path fill="none" stroke="#63b8ff" d="M85.95,-54.84C75.04,-46.99 59,-35.45 46.04,-26.12"/>
<polygon fill="#63b8ff" stroke="#63b8ff" points="48.26,-23.41 38.1,-20.41 44.17,-29.09 48.26,-23.41"/>
</a>
</g>
</g>
<!-- Node4&#45;&gt;Node3 -->
<g id="edge5_Node000004_Node000003" class="edge">
<title>Node4&#45;&gt;Node3</title>
<g id="a_edge5_Node000004_Node000003"><a xlink:title=" ">
<path fill="none" stroke="#63b8ff" d="M99.66,-55.08C100.52,-48.49 101.74,-39.21 102.84,-30.82"/>
<polygon fill="#63b8ff" stroke="#63b8ff" points="106.29,-31.48 104.12,-21.11 99.35,-30.57 106.29,-31.48"/>
</a>
</g>
</g>
<!-- Node5&#45;&gt;Node3 -->
<g id="edge8_Node000005_Node000003" class="edge">
<title>Node5&#45;&gt;Node3</title>
<g id="a_edge8_Node000005_Node000003"><a xlink:title=" ">
<path fill="none" stroke="#63b8ff" d="M213.45,-54.84C192.81,-46.39 161.72,-33.65 138.2,-24.02"/>
<polygon fill="#63b8ff" stroke="#63b8ff" points="139.64,-20.83 129.06,-20.28 136.99,-27.31 139.64,-20.83"/>
</a>
</g>
</g>
<!-- Node6 -->
<g id="Node000006" class="node">
<title>Node6</title>
<g id="a_Node000006"><a xlink:title=" ">
<polygon fill="#e0e0e0" stroke="#999999" points="227.25,-19.25 161.75,-19.25 161.75,0 227.25,0 227.25,-19.25"/>
<text text-anchor="middle" x="194.5" y="-5.75" font-family="Helvetica,sans-Serif" font-size="10.00">QStringList</text>
</a>
</g>
</g>
<!-- Node5&#45;&gt;Node6 -->
<g id="edge7_Node000005_Node000006" class="edge">
<title>Node5&#45;&gt;Node6</title>
<g id="a_edge7_Node000005_Node000006"><a xlink:title=" ">
<path fill="none" stroke="#63b8ff" d="M228.73,-55.08C223.18,-47.88 215.16,-37.46 208.27,-28.51"/>
<polygon fill="#63b8ff" stroke="#63b8ff" points="211.21,-26.6 202.34,-20.81 205.67,-30.87 211.21,-26.6"/>
</a>
</g>
</g>
<!-- Node7 -->
<g id="Node000007" class="node">
<title>Node7</title>
<g id="a_Node000007"><a xlink:title=" ">
<polygon fill="#e0e0e0" stroke="#999999" points="303.5,-19.25 245.5,-19.25 245.5,0 303.5,0 303.5,-19.25"/>
<text text-anchor="middle" x="274.5" y="-5.75" font-family="Helvetica,sans-Serif" font-size="10.00">functional</text>
</a>
</g>
</g>
<!-- Node5&#45;&gt;Node7 -->
<g id="edge9_Node000005_Node000007" class="edge">
<title>Node5&#45;&gt;Node7</title>
<g id="a_edge9_Node000005_Node000007"><a xlink:title=" ">
<path fill="none" stroke="#63b8ff" d="M241.94,-55.08C247.16,-47.96 254.69,-37.68 261.19,-28.8"/>
<polygon fill="#63b8ff" stroke="#63b8ff" points="263.94,-30.97 267.03,-20.83 258.29,-26.83 263.94,-30.97"/>
</a>
</g>
</g>
<!-- Node5&#45;&gt;Node8 -->
<g id="edge10_Node000005_Node000008" class="edge">
<title>Node5&#45;&gt;Node8</title>
<g id="a_edge10_Node000005_Node000008"><a xlink:title=" ">
<path fill="none" stroke="#63b8ff" d="M253.82,-54.84C270.58,-46.58 295.63,-34.23 315,-24.68"/>
<polygon fill="#63b8ff" stroke="#63b8ff" points="316.31,-27.93 323.73,-20.37 313.22,-21.65 316.31,-27.93"/>
</a>
</g>
</g>
</g>
</svg>
