<?xml version="1.0" encoding="UTF-8" standalone="no"?>
<!DOCTYPE svg PUBLIC "-//W3C//DTD SVG 1.1//EN"
 "http://www.w3.org/Graphics/SVG/1.1/DTD/svg11.dtd">
<!-- Generated by graphviz version 9.0.0 (20230911.1827)
 -->
<!-- Title: workspace/albert/include/albert/frontend.h Pages: 1 -->
<svg width="524pt" height="149pt"
 viewBox="0.00 0.00 524.00 149.00" xmlns="http://www.w3.org/2000/svg" xmlns:xlink="http://www.w3.org/1999/xlink">
<g id="graph0" class="graph" transform="scale(1 1) rotate(0) translate(4 145)">
<title>workspace/albert/include/albert/frontend.h</title>
<!-- Node1 -->
<g id="Node000001" class="node">
<title>Node1</title>
<g id="a_Node000001"><a xlink:title=" ">
<polygon fill="#999999" stroke="#666666" points="182,-141 58,-141 58,-110.5 182,-110.5 182,-141"/>
<text text-anchor="start" x="66" y="-127.5" font-family="Helvetica,sans-Serif" font-size="10.00">workspace/albert/include</text>
<text text-anchor="middle" x="120" y="-116.25" font-family="Helvetica,sans-Serif" font-size="10.00">/albert/frontend.h</text>
</a>
</g>
</g>
<!-- Node2 -->
<g id="Node000002" class="node">
<title>Node2</title>
<g id="a_Node000002"><a xlink:title=" ">
<polygon fill="#e0e0e0" stroke="#999999" points="52,-19.25 0,-19.25 0,0 52,0 52,-19.25"/>
<text text-anchor="middle" x="26" y="-5.75" font-family="Helvetica,sans-Serif" font-size="10.00">QObject</text>
</a>
</g>
</g>
<!-- Node1&#45;&gt;Node2 -->
<g id="edge1_Node000001_Node000002" class="edge">
<title>Node1&#45;&gt;Node2</title>
<g id="a_edge1_Node000001_Node000002"><a xlink:title=" ">
<path fill="none" stroke="#63b8ff" d="M108.09,-110.3C90.97,-89.5 59.39,-51.17 40.79,-28.58"/>
<polygon fill="#63b8ff" stroke="#63b8ff" points="43.49,-26.36 34.44,-20.87 38.09,-30.81 43.49,-26.36"/>
</a>
</g>
</g>
<!-- Node3 -->
<g id="Node000003" class="node">
<title>Node3</title>
<g id="a_Node000003"><a xlink:title=" ">
<polygon fill="#e0e0e0" stroke="#999999" points="119.5,-19.25 70.5,-19.25 70.5,0 119.5,0 119.5,-19.25"/>
<text text-anchor="middle" x="95" y="-5.75" font-family="Helvetica,sans-Serif" font-size="10.00">QString</text>
</a>
</g>
</g>
<!-- Node1&#45;&gt;Node3 -->
<g id="edge2_Node000001_Node000003" class="edge">
<title>Node1&#45;&gt;Node3</title>
<g id="a_edge2_Node000001_Node000003"><a xlink:title=" ">
<path fill="none" stroke="#63b8ff" d="M116.83,-110.3C112.42,-90.15 104.4,-53.56 99.41,-30.75"/>
<polygon fill="#63b8ff" stroke="#63b8ff" points="102.87,-30.2 97.31,-21.18 96.03,-31.69 102.87,-30.2"/>
</a>
</g>
</g>
<!-- Node4 -->
<g id="Node000004" class="node">
<title>Node4</title>
<g id="a_Node000004"><a xlink:title=" ">
<polygon fill="#e0e0e0" stroke="#999999" points="214.38,-19.25 137.62,-19.25 137.62,0 214.38,0 214.38,-19.25"/>
<text text-anchor="middle" x="176" y="-5.75" font-family="Helvetica,sans-Serif" font-size="10.00">albert/export.h</text>
</a>
</g>
</g>
<!-- Node1&#45;&gt;Node4 -->
<g id="edge3_Node000001_Node000004" class="edge">
<title>Node1&#45;&gt;Node4</title>
<g id="a_edge3_Node000001_Node000004"><a xlink:title=" ">
<path fill="none" stroke="#63b8ff" d="M127.09,-110.3C137.11,-89.87 155.43,-52.54 166.58,-29.81"/>
<polygon fill="#63b8ff" stroke="#63b8ff" points="169.62,-31.58 170.88,-21.06 163.33,-28.49 169.62,-31.58"/>
</a>
</g>
</g>
<!-- Node5 -->
<g id="Node000005" class="node">
<title>Node5</title>
<g id="a_Node000005"><a xlink:href="plugininstance_8h.html" target="_top" xlink:title=" ">
<polygon fill="white" stroke="#666666" points="312.38,-74.5 199.62,-74.5 199.62,-55.25 312.38,-55.25 312.38,-74.5"/>
<text text-anchor="middle" x="256" y="-61" font-family="Helvetica,sans-Serif" font-size="10.00">albert/plugininstance.h</text>
</a>
</g>
</g>
<!-- Node1&#45;&gt;Node5 -->
<g id="edge4_Node000001_Node000005" class="edge">
<title>Node1&#45;&gt;Node5</title>
<g id="a_edge4_Node000001_Node000005"><a xlink:title=" ">
<path fill="none" stroke="#63b8ff" d="M153.97,-110.05C175.67,-100.65 203.62,-88.55 224.77,-79.39"/>
<polygon fill="#63b8ff" stroke="#63b8ff" points="225.97,-82.69 233.75,-75.51 223.19,-76.27 225.97,-82.69"/>
</a>
</g>
</g>
<!-- Node5&#45;&gt;Node2 -->
<g id="edge5_Node000005_Node000002" class="edge">
<title>Node5&#45;&gt;Node2</title>
<g id="a_edge5_Node000005_Node000002"><a xlink:title=" ">
<path fill="none" stroke="#63b8ff" d="M215.24,-54.76C178.08,-46.39 121.35,-33.52 63.23,-19.75"/>
<polygon fill="#63b8ff" stroke="#63b8ff" points="64.37,-16.43 53.83,-17.52 62.76,-23.24 64.37,-16.43"/>
</a>
</g>
</g>
<!-- Node5&#45;&gt;Node3 -->
<g id="edge6_Node000005_Node000003" class="edge">
<title>Node5&#45;&gt;Node3</title>
<g id="a_edge6_Node000005_Node000003"><a xlink:title=" ">
<path fill="none" stroke="#63b8ff" d="M228.69,-54.84C201.64,-45.9 160.09,-32.15 130.5,-22.37"/>
<polygon fill="#63b8ff" stroke="#63b8ff" points="131.83,-19.12 121.23,-19.3 129.63,-25.77 131.83,-19.12"/>
</a>
</g>
</g>
<!-- Node5&#45;&gt;Node4 -->
<g id="edge7_Node000005_Node000004" class="edge">
<title>Node5&#45;&gt;Node4</title>
<g id="a_edge7_Node000005_Node000004"><a xlink:title=" ">
<path fill="none" stroke="#63b8ff" d="M242.43,-54.84C230.59,-46.96 213.16,-35.36 199.13,-26.02"/>
<polygon fill="#63b8ff" stroke="#63b8ff" points="201.16,-23.17 190.9,-20.54 197.28,-29 201.16,-23.17"/>
</a>
</g>
</g>
<!-- Node6 -->
<g id="Node000006" class="node">
<title>Node6</title>
<g id="a_Node000006"><a xlink:title=" ">
<polygon fill="#e0e0e0" stroke="#999999" points="516,-19.25 440,-19.25 440,0 516,0 516,-19.25"/>
<text text-anchor="middle" x="478" y="-5.75" font-family="Helvetica,sans-Serif" font-size="10.00">albert/plugin.h</text>
</a>
</g>
</g>
<!-- Node5&#45;&gt;Node6 -->
<g id="edge8_Node000005_Node000006" class="edge">
<title>Node5&#45;&gt;Node6</title>
<g id="a_edge8_Node000005_Node000006"><a xlink:title=" ">
<path fill="none" stroke="#63b8ff" d="M293.91,-54.78C331.27,-45.82 388.5,-32.09 429.23,-22.32"/>
<polygon fill="#63b8ff" stroke="#63b8ff" points="429.87,-25.77 438.77,-20.03 428.23,-18.96 429.87,-25.77"/>
</a>
</g>
</g>
<!-- Node7 -->
<g id="Node000007" class="node">
<title>Node7</title>
<g id="a_Node000007"><a xlink:title=" ">
<polygon fill="#e0e0e0" stroke="#999999" points="291.75,-19.25 232.25,-19.25 232.25,0 291.75,0 291.75,-19.25"/>
<text text-anchor="middle" x="262" y="-5.75" font-family="Helvetica,sans-Serif" font-size="10.00">filesystem</text>
</a>
</g>
</g>
<!-- Node5&#45;&gt;Node7 -->
<g id="edge9_Node000005_Node000007" class="edge">
<title>Node5&#45;&gt;Node7</title>
<g id="a_edge9_Node000005_Node000007"><a xlink:title=" ">
<path fill="none" stroke="#63b8ff" d="M256.99,-55.08C257.73,-48.49 258.78,-39.21 259.72,-30.82"/>
<polygon fill="#63b8ff" stroke="#63b8ff" points="263.18,-31.44 260.82,-21.11 256.22,-30.66 263.18,-31.44"/>
</a>
</g>
</g>
<!-- Node8 -->
<g id="Node000008" class="node">
<title>Node8</title>
<g id="a_Node000008"><a xlink:title=" ">
<polygon fill="#e0e0e0" stroke="#999999" points="360.25,-19.25 309.75,-19.25 309.75,0 360.25,0 360.25,-19.25"/>
<text text-anchor="middle" x="335" y="-5.75" font-family="Helvetica,sans-Serif" font-size="10.00">memory</text>
</a>
</g>
</g>
<!-- Node5&#45;&gt;Node8 -->
<g id="edge10_Node000005_Node000008" class="edge">
<title>Node5&#45;&gt;Node8</title>
<g id="a_edge10_Node000005_Node000008"><a xlink:title=" ">
<path fill="none" stroke="#63b8ff" d="M269.4,-54.84C281.09,-46.96 298.3,-35.36 312.16,-26.02"/>
<polygon fill="#63b8ff" stroke="#63b8ff" points="313.94,-29.04 320.28,-20.55 310.03,-23.24 313.94,-29.04"/>
</a>
</g>
</g>
<!-- Node9 -->
<g id="Node000009" class="node">
<title>Node9</title>
<g id="a_Node000009"><a xlink:title=" ">
<polygon fill="#e0e0e0" stroke="#999999" points="421.5,-19.25 378.5,-19.25 378.5,0 421.5,0 421.5,-19.25"/>
<text text-anchor="middle" x="400" y="-5.75" font-family="Helvetica,sans-Serif" font-size="10.00">vector</text>
</a>
</g>
</g>
<!-- Node5&#45;&gt;Node9 -->
<g id="edge11_Node000005_Node000009" class="edge">
<title>Node5&#45;&gt;Node9</title>
<g id="a_edge11_Node000005_Node000009"><a xlink:title=" ">
<path fill="none" stroke="#63b8ff" d="M280.43,-54.84C304.44,-45.96 341.23,-32.36 367.66,-22.58"/>
<polygon fill="#63b8ff" stroke="#63b8ff" points="368.7,-25.93 376.86,-19.18 366.27,-19.37 368.7,-25.93"/>
</a>
</g>
</g>
</g>
</svg>
