<?xml version="1.0" encoding="UTF-8" standalone="no"?>
<!DOCTYPE svg PUBLIC "-//W3C//DTD SVG 1.1//EN"
 "http://www.w3.org/Graphics/SVG/1.1/DTD/svg11.dtd">
<!-- Generated by graphviz version 9.0.0 (20230911.1827)
 -->
<!-- Title: workspace/albert/include/albert/globalqueryhandler.h Pages: 1 -->
<svg width="632pt" height="204pt"
 viewBox="0.00 0.00 632.00 204.25" xmlns="http://www.w3.org/2000/svg" xmlns:xlink="http://www.w3.org/1999/xlink">
<g id="graph0" class="graph" transform="scale(1 1) rotate(0) translate(4 200.25)">
<title>workspace/albert/include/albert/globalqueryhandler.h</title>
<!-- Node1 -->
<g id="Node000001" class="node">
<title>Node1</title>
<g id="a_Node000001"><a xlink:title=" ">
<polygon fill="#999999" stroke="#666666" points="388.62,-196.25 254.88,-196.25 254.88,-165.75 388.62,-165.75 388.62,-196.25"/>
<text text-anchor="start" x="262.88" y="-182.75" font-family="Helvetica,sans-Serif" font-size="10.00">workspace/albert/include</text>
<text text-anchor="middle" x="321.75" y="-171.5" font-family="Helvetica,sans-Serif" font-size="10.00">/albert/globalqueryhandler.h</text>
</a>
</g>
</g>
<!-- Node2 -->
<g id="Node000002" class="node">
<title>Node2</title>
<g id="a_Node000002"><a xlink:href="rankitem_8h.html" target="_top" xlink:title=" ">
<polygon fill="white" stroke="#666666" points="190.75,-129.75 102.75,-129.75 102.75,-110.5 190.75,-110.5 190.75,-129.75"/>
<text text-anchor="middle" x="146.75" y="-116.25" font-family="Helvetica,sans-Serif" font-size="10.00">albert/rankitem.h</text>
</a>
</g>
</g>
<!-- Node1&#45;&gt;Node2 -->
<g id="edge1_Node000001_Node000002" class="edge">
<title>Node1&#45;&gt;Node2</title>
<g id="a_edge1_Node000001_Node000002"><a xlink:title=" ">
<path fill="none" stroke="#63b8ff" d="M278.04,-165.3C249.3,-155.63 212.07,-143.1 184.6,-133.86"/>
<polygon fill="#63b8ff" stroke="#63b8ff" points="185.87,-130.59 175.28,-130.72 183.64,-137.23 185.87,-130.59"/>
</a>
</g>
</g>
<!-- Node7 -->
<g id="Node000007" class="node">
<title>Node7</title>
<g id="a_Node000007"><a xlink:title=" ">
<polygon fill="#e0e0e0" stroke="#999999" points="297.25,-19.25 254.25,-19.25 254.25,0 297.25,0 297.25,-19.25"/>
<text text-anchor="middle" x="275.75" y="-5.75" font-family="Helvetica,sans-Serif" font-size="10.00">vector</text>
</a>
</g>
</g>
<!-- Node1&#45;&gt;Node7 -->
<g id="edge21_Node000001_Node000007" class="edge">
<title>Node1&#45;&gt;Node7</title>
<g id="a_edge21_Node000001_Node000007"><a xlink:title=" ">
<path fill="none" stroke="#63b8ff" d="M332.47,-165.47C338.87,-155.86 346.38,-142.7 349.75,-129.75 351.9,-121.47 351.23,-118.93 349.75,-110.5 345.24,-84.78 344.79,-76.6 329.75,-55.25 321.71,-43.83 310.01,-33.68 299.56,-25.95"/>
<polygon fill="#63b8ff" stroke="#63b8ff" points="301.89,-23.31 291.69,-20.44 297.88,-29.04 301.89,-23.31"/>
</a>
</g>
</g>
<!-- Node8 -->
<g id="Node000008" class="node">
<title>Node8</title>
<g id="a_Node000008"><a xlink:title=" ">
<polygon fill="#e0e0e0" stroke="#999999" points="624,-19.25 573.5,-19.25 573.5,0 624,0 624,-19.25"/>
<text text-anchor="middle" x="598.75" y="-5.75" font-family="Helvetica,sans-Serif" font-size="10.00">memory</text>
</a>
</g>
</g>
<!-- Node1&#45;&gt;Node8 -->
<g id="edge20_Node000001_Node000008" class="edge">
<title>Node1&#45;&gt;Node8</title>
<g id="a_edge20_Node000001_Node000008"><a xlink:title=" ">
<path fill="none" stroke="#63b8ff" d="M352.18,-165.33C391.11,-146.14 460.16,-110.68 515.75,-74.5 538.55,-59.66 563.06,-40.34 579.48,-26.86"/>
<polygon fill="#63b8ff" stroke="#63b8ff" points="581.52,-29.71 586.98,-20.63 577.05,-24.33 581.52,-29.71"/>
</a>
</g>
</g>
<!-- Node9 -->
<g id="Node000009" class="node">
<title>Node9</title>
<g id="a_Node000009"><a xlink:href="triggerqueryhandler_8h.html" target="_top" xlink:title=" ">
<polygon fill="white" stroke="#666666" points="340.88,-129.75 208.62,-129.75 208.62,-110.5 340.88,-110.5 340.88,-129.75"/>
<text text-anchor="middle" x="274.75" y="-116.25" font-family="Helvetica,sans-Serif" font-size="10.00">albert/triggerqueryhandler.h</text>
</a>
</g>
</g>
<!-- Node1&#45;&gt;Node9 -->
<g id="edge9_Node000001_Node000009" class="edge">
<title>Node1&#45;&gt;Node9</title>
<g id="a_edge9_Node000001_Node000009"><a xlink:title=" ">
<path fill="none" stroke="#63b8ff" d="M310.13,-165.45C303.73,-157.43 295.74,-147.42 288.97,-138.94"/>
<polygon fill="#63b8ff" stroke="#63b8ff" points="291.91,-137.02 282.94,-131.38 286.44,-141.38 291.91,-137.02"/>
</a>
</g>
</g>
<!-- Node3 -->
<g id="Node000003" class="node">
<title>Node3</title>
<g id="a_Node000003"><a xlink:title=" ">
<polygon fill="#e0e0e0" stroke="#999999" points="236.12,-19.25 159.38,-19.25 159.38,0 236.12,0 236.12,-19.25"/>
<text text-anchor="middle" x="197.75" y="-5.75" font-family="Helvetica,sans-Serif" font-size="10.00">albert/export.h</text>
</a>
</g>
</g>
<!-- Node2&#45;&gt;Node3 -->
<g id="edge2_Node000002_Node000003" class="edge">
<title>Node2&#45;&gt;Node3</title>
<g id="a_edge2_Node000002_Node000003"><a xlink:title=" ">
<path fill="none" stroke="#63b8ff" d="M154.59,-110.13C161.75,-101.5 172.21,-87.86 178.75,-74.5 185.62,-60.49 190.52,-43.51 193.63,-30.58"/>
<polygon fill="#63b8ff" stroke="#63b8ff" points="196.97,-31.65 195.73,-21.13 190.14,-30.13 196.97,-31.65"/>
</a>
</g>
</g>
<!-- Node4 -->
<g id="Node000004" class="node">
<title>Node4</title>
<g id="a_Node000004"><a xlink:href="item_8h.html" target="_top" xlink:title=" ">
<polygon fill="white" stroke="#666666" points="169.38,-74.5 100.12,-74.5 100.12,-55.25 169.38,-55.25 169.38,-74.5"/>
<text text-anchor="middle" x="134.75" y="-61" font-family="Helvetica,sans-Serif" font-size="10.00">albert/item.h</text>
</a>
</g>
</g>
<!-- Node2&#45;&gt;Node4 -->
<g id="edge3_Node000002_Node000004" class="edge">
<title>Node2&#45;&gt;Node4</title>
<g id="a_edge3_Node000002_Node000004"><a xlink:title=" ">
<path fill="none" stroke="#63b8ff" d="M144.77,-110.33C143.28,-103.74 141.19,-94.46 139.3,-86.07"/>
<polygon fill="#63b8ff" stroke="#63b8ff" points="142.72,-85.32 137.11,-76.34 135.89,-86.86 142.72,-85.32"/>
</a>
</g>
</g>
<!-- Node2&#45;&gt;Node8 -->
<g id="edge8_Node000002_Node000008" class="edge">
<title>Node2&#45;&gt;Node8</title>
<g id="a_edge8_Node000002_Node000008"><a xlink:title=" ">
<path fill="none" stroke="#63b8ff" d="M190.98,-111.81C193.95,-111.36 196.89,-110.92 199.75,-110.5 323.91,-92.42 360.27,-112.8 479.75,-74.5 515.57,-63.02 553.23,-40.84 576.36,-25.88"/>
<polygon fill="#63b8ff" stroke="#63b8ff" points="578.22,-28.85 584.64,-20.42 574.36,-23.01 578.22,-28.85"/>
</a>
</g>
</g>
<!-- Node4&#45;&gt;Node3 -->
<g id="edge5_Node000004_Node000003" class="edge">
<title>Node4&#45;&gt;Node3</title>
<g id="a_edge5_Node000004_Node000003"><a xlink:title=" ">
<path fill="none" stroke="#63b8ff" d="M145.44,-54.84C154.45,-47.22 167.58,-36.12 178.43,-26.95"/>
<polygon fill="#63b8ff" stroke="#63b8ff" points="180.69,-29.63 186.06,-20.5 176.17,-24.28 180.69,-29.63"/>
</a>
</g>
</g>
<!-- Node5 -->
<g id="Node000005" class="node">
<title>Node5</title>
<g id="a_Node000005"><a xlink:title=" ">
<polygon fill="#e0e0e0" stroke="#999999" points="65.5,-19.25 0,-19.25 0,0 65.5,0 65.5,-19.25"/>
<text text-anchor="middle" x="32.75" y="-5.75" font-family="Helvetica,sans-Serif" font-size="10.00">QStringList</text>
</a>
</g>
</g>
<!-- Node4&#45;&gt;Node5 -->
<g id="edge4_Node000004_Node000005" class="edge">
<title>Node4&#45;&gt;Node5</title>
<g id="a_edge4_Node000004_Node000005"><a xlink:title=" ">
<path fill="none" stroke="#63b8ff" d="M117.45,-54.84C101.77,-46.66 78.4,-34.46 60.17,-24.94"/>
<polygon fill="#63b8ff" stroke="#63b8ff" points="61.96,-21.93 51.48,-20.4 58.72,-28.13 61.96,-21.93"/>
</a>
</g>
</g>
<!-- Node6 -->
<g id="Node000006" class="node">
<title>Node6</title>
<g id="a_Node000006"><a xlink:title=" ">
<polygon fill="#e0e0e0" stroke="#999999" points="141.75,-19.25 83.75,-19.25 83.75,0 141.75,0 141.75,-19.25"/>
<text text-anchor="middle" x="112.75" y="-5.75" font-family="Helvetica,sans-Serif" font-size="10.00">functional</text>
</a>
</g>
</g>
<!-- Node4&#45;&gt;Node6 -->
<g id="edge6_Node000004_Node000006" class="edge">
<title>Node4&#45;&gt;Node6</title>
<g id="a_edge6_Node000004_Node000006"><a xlink:title=" ">
<path fill="none" stroke="#63b8ff" d="M131.12,-55.08C128.33,-48.34 124.38,-38.77 120.85,-30.24"/>
<polygon fill="#63b8ff" stroke="#63b8ff" points="124.09,-28.91 117.04,-21.01 117.62,-31.59 124.09,-28.91"/>
</a>
</g>
</g>
<!-- Node4&#45;&gt;Node7 -->
<g id="edge7_Node000004_Node000007" class="edge">
<title>Node4&#45;&gt;Node7</title>
<g id="a_edge7_Node000004_Node000007"><a xlink:title=" ">
<path fill="none" stroke="#63b8ff" d="M158.67,-54.84C181.94,-46.05 217.46,-32.64 243.28,-22.89"/>
<polygon fill="#63b8ff" stroke="#63b8ff" points="244.5,-26.17 252.62,-19.36 242.02,-19.62 244.5,-26.17"/>
</a>
</g>
</g>
<!-- Node10 -->
<g id="Node000010" class="node">
<title>Node10</title>
<g id="a_Node000010"><a xlink:href="extension_8h.html" target="_top" xlink:title=" ">
<polygon fill="white" stroke="#666666" points="320.62,-74.5 228.88,-74.5 228.88,-55.25 320.62,-55.25 320.62,-74.5"/>
<text text-anchor="middle" x="274.75" y="-61" font-family="Helvetica,sans-Serif" font-size="10.00">albert/extension.h</text>
</a>
</g>
</g>
<!-- Node9&#45;&gt;Node10 -->
<g id="edge10_Node000009_Node000010" class="edge">
<title>Node9&#45;&gt;Node10</title>
<g id="a_edge10_Node000009_Node000010"><a xlink:title=" ">
<path fill="none" stroke="#63b8ff" d="M274.75,-110.33C274.75,-103.82 274.75,-94.67 274.75,-86.37"/>
<polygon fill="#63b8ff" stroke="#63b8ff" points="278.25,-86.37 274.75,-76.37 271.25,-86.37 278.25,-86.37"/>
</a>
</g>
</g>
<!-- Node12 -->
<g id="Node000012" class="node">
<title>Node12</title>
<g id="a_Node000012"><a xlink:href="query_8h.html" target="_top" xlink:title=" ">
<polygon fill="white" stroke="#666666" points="470.62,-74.5 396.88,-74.5 396.88,-55.25 470.62,-55.25 470.62,-74.5"/>
<text text-anchor="middle" x="433.75" y="-61" font-family="Helvetica,sans-Serif" font-size="10.00">albert/query.h</text>
</a>
</g>
</g>
<!-- Node9&#45;&gt;Node12 -->
<g id="edge13_Node000009_Node000012" class="edge">
<title>Node9&#45;&gt;Node12</title>
<g id="a_edge13_Node000009_Node000012"><a xlink:title=" ">
<path fill="none" stroke="#63b8ff" d="M301.72,-110.09C327.65,-101.41 367.06,-88.21 396.08,-78.49"/>
<polygon fill="#63b8ff" stroke="#63b8ff" points="396.84,-81.93 405.21,-75.43 394.62,-75.29 396.84,-81.93"/>
</a>
</g>
</g>
<!-- Node10&#45;&gt;Node3 -->
<g id="edge12_Node000010_Node000003" class="edge">
<title>Node10&#45;&gt;Node3</title>
<g id="a_edge12_Node000010_Node000003"><a xlink:title=" ">
<path fill="none" stroke="#63b8ff" d="M261.69,-54.84C250.29,-46.96 233.52,-35.36 220.01,-26.02"/>
<polygon fill="#63b8ff" stroke="#63b8ff" points="222.34,-23.37 212.12,-20.56 218.35,-29.13 222.34,-23.37"/>
</a>
</g>
</g>
<!-- Node11 -->
<g id="Node000011" class="node">
<title>Node11</title>
<g id="a_Node000011"><a xlink:title=" ">
<polygon fill="#e0e0e0" stroke="#999999" points="364.25,-19.25 315.25,-19.25 315.25,0 364.25,0 364.25,-19.25"/>
<text text-anchor="middle" x="339.75" y="-5.75" font-family="Helvetica,sans-Serif" font-size="10.00">QString</text>
</a>
</g>
</g>
<!-- Node10&#45;&gt;Node11 -->
<g id="edge11_Node000010_Node000011" class="edge">
<title>Node10&#45;&gt;Node11</title>
<g id="a_edge11_Node000010_Node000011"><a xlink:title=" ">
<path fill="none" stroke="#63b8ff" d="M285.78,-54.84C295.17,-47.15 308.9,-35.9 320.16,-26.68"/>
<polygon fill="#63b8ff" stroke="#63b8ff" points="322.2,-29.53 327.72,-20.48 317.76,-24.11 322.2,-29.53"/>
</a>
</g>
</g>
<!-- Node12&#45;&gt;Node3 -->
<g id="edge17_Node000012_Node000003" class="edge">
<title>Node12&#45;&gt;Node3</title>
<g id="a_edge17_Node000012_Node000003"><a xlink:title=" ">
<path fill="none" stroke="#63b8ff" d="M396.62,-55.5C356.37,-46.42 291.96,-31.88 247.39,-21.83"/>
<polygon fill="#63b8ff" stroke="#63b8ff" points="248.24,-18.43 237.71,-19.64 246.7,-25.26 248.24,-18.43"/>
</a>
</g>
</g>
<!-- Node12&#45;&gt;Node7 -->
<g id="edge19_Node000012_Node000007" class="edge">
<title>Node12&#45;&gt;Node7</title>
<g id="a_edge19_Node000012_Node000007"><a xlink:title=" ">
<path fill="none" stroke="#63b8ff" d="M406.95,-54.84C379.74,-45.67 337.59,-31.47 308.44,-21.64"/>
<polygon fill="#63b8ff" stroke="#63b8ff" points="309.62,-18.35 299.02,-18.47 307.38,-24.98 309.62,-18.35"/>
</a>
</g>
</g>
<!-- Node12&#45;&gt;Node8 -->
<g id="edge18_Node000012_Node000008" class="edge">
<title>Node12&#45;&gt;Node8</title>
<g id="a_edge18_Node000012_Node000008"><a xlink:title=" ">
<path fill="none" stroke="#63b8ff" d="M461.74,-54.84C489.5,-45.88 532.16,-32.11 562.5,-22.32"/>
<polygon fill="#63b8ff" stroke="#63b8ff" points="563.19,-25.78 571.63,-19.38 561.04,-19.12 563.19,-25.78"/>
</a>
</g>
</g>
<!-- Node12&#45;&gt;Node11 -->
<g id="edge16_Node000012_Node000011" class="edge">
<title>Node12&#45;&gt;Node11</title>
<g id="a_edge16_Node000012_Node000011"><a xlink:title=" ">
<path fill="none" stroke="#63b8ff" d="M417.8,-54.84C403.49,-46.73 382.22,-34.68 365.5,-25.21"/>
<polygon fill="#63b8ff" stroke="#63b8ff" points="367.52,-22.33 357.09,-20.45 364.07,-28.42 367.52,-22.33"/>
</a>
</g>
</g>
<!-- Node13 -->
<g id="Node000013" class="node">
<title>Node13</title>
<g id="a_Node000013"><a xlink:title=" ">
<polygon fill="#e0e0e0" stroke="#999999" points="485.25,-19.25 382.25,-19.25 382.25,0 485.25,0 485.25,-19.25"/>
<text text-anchor="middle" x="433.75" y="-5.75" font-family="Helvetica,sans-Serif" font-size="10.00">QAbstractListModel</text>
</a>
</g>
</g>
<!-- Node12&#45;&gt;Node13 -->
<g id="edge14_Node000012_Node000013" class="edge">
<title>Node12&#45;&gt;Node13</title>
<g id="a_edge14_Node000012_Node000013"><a xlink:title=" ">
<path fill="none" stroke="#63b8ff" d="M433.75,-55.08C433.75,-48.57 433.75,-39.42 433.75,-31.12"/>
<polygon fill="#63b8ff" stroke="#63b8ff" points="437.25,-31.12 433.75,-21.12 430.25,-31.12 437.25,-31.12"/>
</a>
</g>
</g>
<!-- Node14 -->
<g id="Node000014" class="node">
<title>Node14</title>
<g id="a_Node000014"><a xlink:title=" ">
<polygon fill="#e0e0e0" stroke="#999999" points="555.75,-19.25 503.75,-19.25 503.75,0 555.75,0 555.75,-19.25"/>
<text text-anchor="middle" x="529.75" y="-5.75" font-family="Helvetica,sans-Serif" font-size="10.00">QObject</text>
</a>
</g>
</g>
<!-- Node12&#45;&gt;Node14 -->
<g id="edge15_Node000012_Node000014" class="edge">
<title>Node12&#45;&gt;Node14</title>
<g id="a_edge15_Node000012_Node000014"><a xlink:title=" ">
<path fill="none" stroke="#63b8ff" d="M450.04,-54.84C464.65,-46.73 486.38,-34.68 503.46,-25.21"/>
<polygon fill="#63b8ff" stroke="#63b8ff" points="505.01,-28.35 512.06,-20.44 501.62,-22.23 505.01,-28.35"/>
</a>
</g>
</g>
</g>
</svg>
