<?xml version="1.0" encoding="UTF-8" standalone="no"?>
<!DOCTYPE svg PUBLIC "-//W3C//DTD SVG 1.1//EN"
 "http://www.w3.org/Graphics/SVG/1.1/DTD/svg11.dtd">
<!-- Generated by graphviz version 9.0.0 (20230911.1827)
 -->
<!-- Title: workspace/albert/include/albert/globalqueryhandler.h Pages: 1 -->
<svg width="626pt" height="315pt"
 viewBox="0.00 0.00 626.02 314.75" xmlns="http://www.w3.org/2000/svg" xmlns:xlink="http://www.w3.org/1999/xlink">
<g id="graph0" class="graph" transform="scale(1 1) rotate(0) translate(4 310.75)">
<title>workspace/albert/include/albert/globalqueryhandler.h</title>
<!-- Node1 -->
<g id="Node000001" class="node">
<title>Node1</title>
<g id="a_Node000001"><a xlink:title=" ">
<polygon fill="#999999" stroke="#666666" points="454.5,-306.75 320.75,-306.75 320.75,-276.25 454.5,-276.25 454.5,-306.75"/>
<text text-anchor="start" x="328.75" y="-293.25" font-family="Helvetica,sans-Serif" font-size="10.00">workspace/albert/include</text>
<text text-anchor="middle" x="387.62" y="-282" font-family="Helvetica,sans-Serif" font-size="10.00">/albert/globalqueryhandler.h</text>
</a>
</g>
</g>
<!-- Node2 -->
<g id="Node000002" class="node">
<title>Node2</title>
<g id="a_Node000002"><a xlink:href="rankedqueryhandler_8h.html" target="_top" xlink:title=" ">
<polygon fill="white" stroke="#666666" points="407.88,-240.25 273.38,-240.25 273.38,-221 407.88,-221 407.88,-240.25"/>
<text text-anchor="middle" x="340.62" y="-226.75" font-family="Helvetica,sans-Serif" font-size="10.00">albert/rankedqueryhandler.h</text>
</a>
</g>
</g>
<!-- Node1&#45;&gt;Node2 -->
<g id="edge1_Node000001_Node000002" class="edge">
<title>Node1&#45;&gt;Node2</title>
<g id="a_edge1_Node000001_Node000002"><a xlink:title=" ">
<path fill="none" stroke="#63b8ff" d="M376.01,-275.95C369.61,-267.93 361.61,-257.92 354.84,-249.44"/>
<polygon fill="#63b8ff" stroke="#63b8ff" points="357.79,-247.52 348.81,-241.88 352.32,-251.88 357.79,-247.52"/>
</a>
</g>
</g>
<!-- Node9 -->
<g id="Node000009" class="node">
<title>Node9</title>
<g id="a_Node000009"><a xlink:title=" ">
<polygon fill="#e0e0e0" stroke="#999999" points="321.88,-74.5 271.38,-74.5 271.38,-55.25 321.88,-55.25 321.88,-74.5"/>
<text text-anchor="middle" x="296.62" y="-61" font-family="Helvetica,sans-Serif" font-size="10.00">memory</text>
</a>
</g>
</g>
<!-- Node1&#45;&gt;Node9 -->
<g id="edge23_Node000001_Node000009" class="edge">
<title>Node1&#45;&gt;Node9</title>
<g id="a_edge23_Node000001_Node000009"><a xlink:title=" ">
<path fill="none" stroke="#63b8ff" d="M330.79,-275.8C287.87,-261.07 233.28,-233.42 214.62,-185 198.73,-143.74 243.5,-102.88 273,-81.39"/>
<polygon fill="#63b8ff" stroke="#63b8ff" points="274.88,-84.34 281.07,-75.74 270.87,-78.61 274.88,-84.34"/>
</a>
</g>
</g>
<!-- Node10 -->
<g id="Node000010" class="node">
<title>Node10</title>
<g id="a_Node000010"><a xlink:title=" ">
<polygon fill="#e0e0e0" stroke="#999999" points="401.12,-74.5 358.12,-74.5 358.12,-55.25 401.12,-55.25 401.12,-74.5"/>
<text text-anchor="middle" x="379.62" y="-61" font-family="Helvetica,sans-Serif" font-size="10.00">vector</text>
</a>
</g>
</g>
<!-- Node1&#45;&gt;Node10 -->
<g id="edge24_Node000001_Node000010" class="edge">
<title>Node1&#45;&gt;Node10</title>
<g id="a_edge24_Node000001_Node000010"><a xlink:title=" ">
<path fill="none" stroke="#63b8ff" d="M398.73,-276.02C405.35,-266.44 413.13,-253.29 416.62,-240.25 425.23,-208.13 430.31,-204.41 401.62,-110.5 398.91,-101.63 394.61,-92.35 390.52,-84.56"/>
<polygon fill="#63b8ff" stroke="#63b8ff" points="393.72,-83.12 385.81,-76.07 387.6,-86.51 393.72,-83.12"/>
</a>
</g>
</g>
<!-- Node11 -->
<g id="Node000011" class="node">
<title>Node11</title>
<g id="a_Node000011"><a xlink:href="rankitem_8h.html" target="_top" xlink:title=" ">
<polygon fill="white" stroke="#666666" points="551.62,-185 463.62,-185 463.62,-165.75 551.62,-165.75 551.62,-185"/>
<text text-anchor="middle" x="507.62" y="-171.5" font-family="Helvetica,sans-Serif" font-size="10.00">albert/rankitem.h</text>
</a>
</g>
</g>
<!-- Node1&#45;&gt;Node11 -->
<g id="edge22_Node000001_Node000011" class="edge">
<title>Node1&#45;&gt;Node11</title>
<g id="a_edge22_Node000001_Node000011"><a xlink:title=" ">
<path fill="none" stroke="#63b8ff" d="M407.25,-275.83C419.78,-266.17 436.13,-253 449.62,-240.25 465.22,-225.51 481.52,-207.27 492.85,-194.06"/>
<polygon fill="#63b8ff" stroke="#63b8ff" points="495.37,-196.5 499.17,-186.6 490.03,-191.97 495.37,-196.5"/>
</a>
</g>
</g>
<!-- Node3 -->
<g id="Node000003" class="node">
<title>Node3</title>
<g id="a_Node000003"><a xlink:href="generatorqueryhandler_8h.html" target="_top" xlink:title=" ">
<polygon fill="white" stroke="#666666" points="369.5,-185 223.75,-185 223.75,-165.75 369.5,-165.75 369.5,-185"/>
<text text-anchor="middle" x="296.62" y="-171.5" font-family="Helvetica,sans-Serif" font-size="10.00">albert/generatorqueryhandler.h</text>
</a>
</g>
</g>
<!-- Node2&#45;&gt;Node3 -->
<g id="edge2_Node000002_Node000003" class="edge">
<title>Node2&#45;&gt;Node3</title>
<g id="a_edge2_Node000002_Node000003"><a xlink:title=" ">
<path fill="none" stroke="#63b8ff" d="M333.36,-220.83C327.34,-213.55 318.61,-202.98 311.17,-193.98"/>
<polygon fill="#63b8ff" stroke="#63b8ff" points="314.08,-192.01 305.01,-186.53 308.68,-196.46 314.08,-192.01"/>
</a>
</g>
</g>
<!-- Node2&#45;&gt;Node10 -->
<g id="edge21_Node000002_Node000010" class="edge">
<title>Node2&#45;&gt;Node10</title>
<g id="a_edge21_Node000002_Node000010"><a xlink:title=" ">
<path fill="none" stroke="#63b8ff" d="M351.67,-220.69C360.84,-212.51 373.22,-199.49 378.62,-185 390.87,-152.15 387.34,-110.56 383.55,-86.22"/>
<polygon fill="#63b8ff" stroke="#63b8ff" points="387.01,-85.66 381.84,-76.41 380.11,-86.86 387.01,-85.66"/>
</a>
</g>
</g>
<!-- Node2&#45;&gt;Node11 -->
<g id="edge13_Node000002_Node000011" class="edge">
<title>Node2&#45;&gt;Node11</title>
<g id="a_edge13_Node000002_Node000011"><a xlink:title=" ">
<path fill="none" stroke="#63b8ff" d="M368.95,-220.59C396.3,-211.87 437.95,-198.59 468.46,-188.86"/>
<polygon fill="#63b8ff" stroke="#63b8ff" points="469.25,-192.28 477.71,-185.91 467.12,-185.62 469.25,-192.28"/>
</a>
</g>
</g>
<!-- Node4 -->
<g id="Node000004" class="node">
<title>Node4</title>
<g id="a_Node000004"><a xlink:href="queryhandler_8h.html" target="_top" xlink:title=" ">
<polygon fill="white" stroke="#666666" points="195.25,-129.75 90,-129.75 90,-110.5 195.25,-110.5 195.25,-129.75"/>
<text text-anchor="middle" x="142.62" y="-116.25" font-family="Helvetica,sans-Serif" font-size="10.00">albert/queryhandler.h</text>
</a>
</g>
</g>
<!-- Node3&#45;&gt;Node4 -->
<g id="edge3_Node000003_Node000004" class="edge">
<title>Node3&#45;&gt;Node4</title>
<g id="a_edge3_Node000003_Node000004"><a xlink:title=" ">
<path fill="none" stroke="#63b8ff" d="M270.5,-165.34C245.5,-156.7 207.55,-143.57 179.48,-133.87"/>
<polygon fill="#63b8ff" stroke="#63b8ff" points="180.9,-130.66 170.31,-130.7 178.61,-137.27 180.9,-130.66"/>
</a>
</g>
</g>
<!-- Node3&#45;&gt;Node9 -->
<g id="edge11_Node000003_Node000009" class="edge">
<title>Node3&#45;&gt;Node9</title>
<g id="a_edge11_Node000003_Node000009"><a xlink:title=" ">
<path fill="none" stroke="#63b8ff" d="M296.62,-165.5C296.62,-148.25 296.62,-109.83 296.62,-86.06"/>
<polygon fill="#63b8ff" stroke="#63b8ff" points="300.13,-86.39 296.63,-76.39 293.13,-86.39 300.13,-86.39"/>
</a>
</g>
</g>
<!-- Node3&#45;&gt;Node10 -->
<g id="edge12_Node000003_Node000010" class="edge">
<title>Node3&#45;&gt;Node10</title>
<g id="a_edge12_Node000003_Node000010"><a xlink:title=" ">
<path fill="none" stroke="#63b8ff" d="M303.42,-165.5C317.04,-147.69 347.91,-107.33 365.9,-83.81"/>
<polygon fill="#63b8ff" stroke="#63b8ff" points="368.52,-86.15 371.82,-76.08 362.96,-81.89 368.52,-86.15"/>
</a>
</g>
</g>
<!-- Node5 -->
<g id="Node000005" class="node">
<title>Node5</title>
<g id="a_Node000005"><a xlink:title=" ">
<polygon fill="#e0e0e0" stroke="#999999" points="282,-19.25 205.25,-19.25 205.25,0 282,0 282,-19.25"/>
<text text-anchor="middle" x="243.62" y="-5.75" font-family="Helvetica,sans-Serif" font-size="10.00">albert/export.h</text>
</a>
</g>
</g>
<!-- Node4&#45;&gt;Node5 -->
<g id="edge4_Node000004_Node000005" class="edge">
<title>Node4&#45;&gt;Node5</title>
<g id="a_edge4_Node000004_Node000005"><a xlink:title=" ">
<path fill="none" stroke="#63b8ff" d="M171.04,-110.04C188.8,-102.98 210.85,-91.5 224.62,-74.5 234.77,-61.97 239.5,-44.16 241.71,-30.52"/>
<polygon fill="#63b8ff" stroke="#63b8ff" points="245.13,-31.31 242.91,-20.95 238.19,-30.43 245.13,-31.31"/>
</a>
</g>
</g>
<!-- Node6 -->
<g id="Node000006" class="node">
<title>Node6</title>
<g id="a_Node000006"><a xlink:href="extension_8h.html" target="_top" xlink:title=" ">
<polygon fill="white" stroke="#666666" points="215.5,-74.5 123.75,-74.5 123.75,-55.25 215.5,-55.25 215.5,-74.5"/>
<text text-anchor="middle" x="169.62" y="-61" font-family="Helvetica,sans-Serif" font-size="10.00">albert/extension.h</text>
</a>
</g>
</g>
<!-- Node4&#45;&gt;Node6 -->
<g id="edge5_Node000004_Node000006" class="edge">
<title>Node4&#45;&gt;Node6</title>
<g id="a_edge5_Node000004_Node000006"><a xlink:title=" ">
<path fill="none" stroke="#63b8ff" d="M147.08,-110.33C150.58,-103.44 155.57,-93.59 159.97,-84.91"/>
<polygon fill="#63b8ff" stroke="#63b8ff" points="162.98,-86.71 164.39,-76.21 156.74,-83.55 162.98,-86.71"/>
</a>
</g>
</g>
<!-- Node7 -->
<g id="Node000007" class="node">
<title>Node7</title>
<g id="a_Node000007"><a xlink:href="querycontext_8h.html" target="_top" xlink:title=" ">
<polygon fill="white" stroke="#666666" points="105.25,-74.5 0,-74.5 0,-55.25 105.25,-55.25 105.25,-74.5"/>
<text text-anchor="middle" x="52.62" y="-61" font-family="Helvetica,sans-Serif" font-size="10.00">albert/querycontext.h</text>
</a>
</g>
</g>
<!-- Node4&#45;&gt;Node7 -->
<g id="edge7_Node000004_Node000007" class="edge">
<title>Node4&#45;&gt;Node7</title>
<g id="a_edge7_Node000004_Node000007"><a xlink:title=" ">
<path fill="none" stroke="#63b8ff" d="M127.36,-110.09C113.78,-102.06 93.67,-90.16 77.73,-80.73"/>
<polygon fill="#63b8ff" stroke="#63b8ff" points="79.66,-77.8 69.27,-75.72 76.09,-83.83 79.66,-77.8"/>
</a>
</g>
</g>
<!-- Node4&#45;&gt;Node9 -->
<g id="edge10_Node000004_Node000009" class="edge">
<title>Node4&#45;&gt;Node9</title>
<g id="a_edge10_Node000004_Node000009"><a xlink:title=" ">
<path fill="none" stroke="#63b8ff" d="M168.75,-110.09C193.9,-101.39 232.16,-88.17 260.28,-78.44"/>
<polygon fill="#63b8ff" stroke="#63b8ff" points="261.15,-81.85 269.46,-75.27 258.86,-75.23 261.15,-81.85"/>
</a>
</g>
</g>
<!-- Node6&#45;&gt;Node5 -->
<g id="edge6_Node000006_Node000005" class="edge">
<title>Node6&#45;&gt;Node5</title>
<g id="a_edge6_Node000006_Node000005"><a xlink:title=" ">
<path fill="none" stroke="#63b8ff" d="M182.18,-54.84C193.09,-46.99 209.13,-35.45 222.09,-26.12"/>
<polygon fill="#63b8ff" stroke="#63b8ff" points="223.96,-29.09 230.03,-20.41 219.87,-23.41 223.96,-29.09"/>
</a>
</g>
</g>
<!-- Node7&#45;&gt;Node5 -->
<g id="edge9_Node000007_Node000005" class="edge">
<title>Node7&#45;&gt;Node5</title>
<g id="a_edge9_Node000007_Node000005"><a xlink:title=" ">
<path fill="none" stroke="#63b8ff" d="M85.03,-54.84C116.72,-46.01 165.19,-32.49 200.21,-22.73"/>
<polygon fill="#63b8ff" stroke="#63b8ff" points="200.91,-26.17 209.61,-20.11 199.03,-19.42 200.91,-26.17"/>
</a>
</g>
</g>
<!-- Node8 -->
<g id="Node000008" class="node">
<title>Node8</title>
<g id="a_Node000008"><a xlink:title=" ">
<polygon fill="#e0e0e0" stroke="#999999" points="77.12,-19.25 28.12,-19.25 28.12,0 77.12,0 77.12,-19.25"/>
<text text-anchor="middle" x="52.62" y="-5.75" font-family="Helvetica,sans-Serif" font-size="10.00">QString</text>
</a>
</g>
</g>
<!-- Node7&#45;&gt;Node8 -->
<g id="edge8_Node000007_Node000008" class="edge">
<title>Node7&#45;&gt;Node8</title>
<g id="a_edge8_Node000007_Node000008"><a xlink:title=" ">
<path fill="none" stroke="#63b8ff" d="M52.62,-55.08C52.62,-48.57 52.62,-39.42 52.62,-31.12"/>
<polygon fill="#63b8ff" stroke="#63b8ff" points="56.13,-31.12 52.63,-21.12 49.13,-31.12 56.13,-31.12"/>
</a>
</g>
</g>
<!-- Node11&#45;&gt;Node5 -->
<g id="edge14_Node000011_Node000005" class="edge">
<title>Node11&#45;&gt;Node5</title>
<g id="a_edge14_Node000011_Node000005"><a xlink:title=" ">
<path fill="none" stroke="#63b8ff" d="M525.74,-165.3C563.52,-145.22 644.39,-95.65 608.62,-55.25 588.09,-32.05 388.76,-18.37 293.65,-13.12"/>
<polygon fill="#63b8ff" stroke="#63b8ff" points="294,-9.63 283.82,-12.59 293.62,-16.62 294,-9.63"/>
</a>
</g>
</g>
<!-- Node11&#45;&gt;Node9 -->
<g id="edge20_Node000011_Node000009" class="edge">
<title>Node11&#45;&gt;Node9</title>
<g id="a_edge20_Node000011_Node000009"><a xlink:title=" ">
<path fill="none" stroke="#63b8ff" d="M490,-165.31C453.31,-146.44 368.48,-102.82 324.38,-80.15"/>
<polygon fill="#63b8ff" stroke="#63b8ff" points="326.19,-77.14 315.7,-75.68 322.99,-83.37 326.19,-77.14"/>
</a>
</g>
</g>
<!-- Node12 -->
<g id="Node000012" class="node">
<title>Node12</title>
<g id="a_Node000012"><a xlink:href="item_8h.html" target="_top" xlink:title=" ">
<polygon fill="white" stroke="#666666" points="571.25,-129.75 502,-129.75 502,-110.5 571.25,-110.5 571.25,-129.75"/>
<text text-anchor="middle" x="536.62" y="-116.25" font-family="Helvetica,sans-Serif" font-size="10.00">albert/item.h</text>
</a>
</g>
</g>
<!-- Node11&#45;&gt;Node12 -->
<g id="edge15_Node000011_Node000012" class="edge">
<title>Node11&#45;&gt;Node12</title>
<g id="a_edge15_Node000011_Node000012"><a xlink:title=" ">
<path fill="none" stroke="#63b8ff" d="M512.41,-165.58C516.17,-158.69 521.53,-148.84 526.26,-140.16"/>
<polygon fill="#63b8ff" stroke="#63b8ff" points="529.3,-141.89 531.01,-131.44 523.15,-138.55 529.3,-141.89"/>
</a>
</g>
</g>
<!-- Node12&#45;&gt;Node5 -->
<g id="edge17_Node000012_Node000005" class="edge">
<title>Node12&#45;&gt;Node5</title>
<g id="a_edge17_Node000012_Node000005"><a xlink:title=" ">
<path fill="none" stroke="#63b8ff" d="M518.9,-110.13C484.27,-92.56 410.97,-55.38 410.62,-55.25 372.22,-40.57 327.09,-28.82 293.43,-21.07"/>
<polygon fill="#63b8ff" stroke="#63b8ff" points="294.48,-17.72 283.96,-18.93 292.94,-24.55 294.48,-17.72"/>
</a>
</g>
</g>
<!-- Node12&#45;&gt;Node10 -->
<g id="edge19_Node000012_Node000010" class="edge">
<title>Node12&#45;&gt;Node10</title>
<g id="a_edge19_Node000012_Node000010"><a xlink:title=" ">
<path fill="none" stroke="#63b8ff" d="M509.99,-110.09C482.96,-100.92 441.08,-86.72 412.11,-76.89"/>
<polygon fill="#63b8ff" stroke="#63b8ff" points="413.35,-73.62 402.76,-73.72 411.1,-80.25 413.35,-73.62"/>
</a>
</g>
</g>
<!-- Node13 -->
<g id="Node000013" class="node">
<title>Node13</title>
<g id="a_Node000013"><a xlink:title=" ">
<polygon fill="#e0e0e0" stroke="#999999" points="599.38,-74.5 533.88,-74.5 533.88,-55.25 599.38,-55.25 599.38,-74.5"/>
<text text-anchor="middle" x="566.62" y="-61" font-family="Helvetica,sans-Serif" font-size="10.00">QStringList</text>
</a>
</g>
</g>
<!-- Node12&#45;&gt;Node13 -->
<g id="edge16_Node000012_Node000013" class="edge">
<title>Node12&#45;&gt;Node13</title>
<g id="a_edge16_Node000012_Node000013"><a xlink:title=" ">
<path fill="none" stroke="#63b8ff" d="M541.58,-110.33C545.51,-103.36 551.14,-93.37 556.06,-84.62"/>
<polygon fill="#63b8ff" stroke="#63b8ff" points="558.96,-86.61 560.82,-76.18 552.86,-83.17 558.96,-86.61"/>
</a>
</g>
</g>
<!-- Node14 -->
<g id="Node000014" class="node">
<title>Node14</title>
<g id="a_Node000014"><a xlink:title=" ">
<polygon fill="#e0e0e0" stroke="#999999" points="515.62,-74.5 457.62,-74.5 457.62,-55.25 515.62,-55.25 515.62,-74.5"/>
<text text-anchor="middle" x="486.62" y="-61" font-family="Helvetica,sans-Serif" font-size="10.00">functional</text>
</a>
</g>
</g>
<!-- Node12&#45;&gt;Node14 -->
<g id="edge18_Node000012_Node000014" class="edge">
<title>Node12&#45;&gt;Node14</title>
<g id="a_edge18_Node000012_Node000014"><a xlink:title=" ">
<path fill="none" stroke="#63b8ff" d="M528.37,-110.33C521.46,-102.98 511.4,-92.26 502.89,-83.19"/>
<polygon fill="#63b8ff" stroke="#63b8ff" points="505.49,-80.86 496.1,-75.96 500.39,-85.65 505.49,-80.86"/>
</a>
</g>
</g>
</g>
</svg>
