<?xml version="1.0" encoding="UTF-8" standalone="no"?>
<!DOCTYPE svg PUBLIC "-//W3C//DTD SVG 1.1//EN"
 "http://www.w3.org/Graphics/SVG/1.1/DTD/svg11.dtd">
<!-- Generated by graphviz version 9.0.0 (20230911.1827)
 -->
<!-- Title: workspace/albert/include/albert/globalqueryhandler.h Pages: 1 -->
<svg width="702pt" height="260pt"
 viewBox="0.00 0.00 701.85 259.50" xmlns="http://www.w3.org/2000/svg" xmlns:xlink="http://www.w3.org/1999/xlink">
<g id="graph0" class="graph" transform="scale(1 1) rotate(0) translate(4 255.5)">
<title>workspace/albert/include/albert/globalqueryhandler.h</title>
<!-- Node1 -->
<g id="Node000001" class="node">
<title>Node1</title>
<g id="a_Node000001"><a xlink:title=" ">
<polygon fill="#999999" stroke="#666666" points="322.85,-251.5 189.1,-251.5 189.1,-221 322.85,-221 322.85,-251.5"/>
<text text-anchor="start" x="197.1" y="-238" font-family="Helvetica,sans-Serif" font-size="10.00">workspace/albert/include</text>
<text text-anchor="middle" x="255.97" y="-226.75" font-family="Helvetica,sans-Serif" font-size="10.00">/albert/globalqueryhandler.h</text>
</a>
</g>
</g>
<!-- Node2 -->
<g id="Node000002" class="node">
<title>Node2</title>
<g id="a_Node000002"><a xlink:href="rankitem_8h.html" target="_top" xlink:title=" ">
<polygon fill="white" stroke="#666666" points="189.97,-185 101.97,-185 101.97,-165.75 189.97,-165.75 189.97,-185"/>
<text text-anchor="middle" x="145.97" y="-171.5" font-family="Helvetica,sans-Serif" font-size="10.00">albert/rankitem.h</text>
</a>
</g>
</g>
<!-- Node1&#45;&gt;Node2 -->
<g id="edge1_Node000001_Node000002" class="edge">
<title>Node1&#45;&gt;Node2</title>
<g id="a_edge1_Node000001_Node000002"><a xlink:title=" ">
<path fill="none" stroke="#63b8ff" d="M228.5,-220.55C211.43,-211.41 189.58,-199.72 172.66,-190.66"/>
<polygon fill="#63b8ff" stroke="#63b8ff" points="174.65,-187.75 164.18,-186.12 171.34,-193.92 174.65,-187.75"/>
</a>
</g>
</g>
<!-- Node9 -->
<g id="Node000009" class="node">
<title>Node9</title>
<g id="a_Node000009"><a xlink:title=" ">
<polygon fill="#e0e0e0" stroke="#999999" points="248.47,-74.5 205.47,-74.5 205.47,-55.25 248.47,-55.25 248.47,-74.5"/>
<text text-anchor="middle" x="226.97" y="-61" font-family="Helvetica,sans-Serif" font-size="10.00">vector</text>
</a>
</g>
</g>
<!-- Node1&#45;&gt;Node9 -->
<g id="edge24_Node000001_Node000009" class="edge">
<title>Node1&#45;&gt;Node9</title>
<g id="a_edge24_Node000001_Node000009"><a xlink:title=" ">
<path fill="none" stroke="#63b8ff" d="M253.45,-220.52C248.25,-190.12 236.32,-120.44 230.41,-85.96"/>
<polygon fill="#63b8ff" stroke="#63b8ff" points="233.93,-85.74 228.79,-76.48 227.03,-86.92 233.93,-85.74"/>
</a>
</g>
</g>
<!-- Node10 -->
<g id="Node000010" class="node">
<title>Node10</title>
<g id="a_Node000010"><a xlink:title=" ">
<polygon fill="#e0e0e0" stroke="#999999" points="317.22,-74.5 266.72,-74.5 266.72,-55.25 317.22,-55.25 317.22,-74.5"/>
<text text-anchor="middle" x="291.97" y="-61" font-family="Helvetica,sans-Serif" font-size="10.00">memory</text>
</a>
</g>
</g>
<!-- Node1&#45;&gt;Node10 -->
<g id="edge23_Node000001_Node000010" class="edge">
<title>Node1&#45;&gt;Node10</title>
<g id="a_edge23_Node000001_Node000010"><a xlink:title=" ">
<path fill="none" stroke="#63b8ff" d="M259.11,-220.52C265.57,-190.12 280.38,-120.44 287.71,-85.96"/>
<polygon fill="#63b8ff" stroke="#63b8ff" points="291.07,-86.97 289.72,-76.47 284.22,-85.52 291.07,-86.97"/>
</a>
</g>
</g>
<!-- Node11 -->
<g id="Node000011" class="node">
<title>Node11</title>
<g id="a_Node000011"><a xlink:href="triggerqueryhandler_8h.html" target="_top" xlink:title=" ">
<polygon fill="white" stroke="#666666" points="454.1,-185 321.85,-185 321.85,-165.75 454.1,-165.75 454.1,-185"/>
<text text-anchor="middle" x="387.97" y="-171.5" font-family="Helvetica,sans-Serif" font-size="10.00">albert/triggerqueryhandler.h</text>
</a>
</g>
</g>
<!-- Node1&#45;&gt;Node11 -->
<g id="edge12_Node000001_Node000011" class="edge">
<title>Node1&#45;&gt;Node11</title>
<g id="a_edge12_Node000001_Node000011"><a xlink:title=" ">
<path fill="none" stroke="#63b8ff" d="M288.94,-220.55C309.92,-211.19 336.88,-199.16 357.38,-190.02"/>
<polygon fill="#63b8ff" stroke="#63b8ff" points="358.64,-193.29 366.35,-186.02 355.79,-186.9 358.64,-193.29"/>
</a>
</g>
</g>
<!-- Node3 -->
<g id="Node000003" class="node">
<title>Node3</title>
<g id="a_Node000003"><a xlink:title=" ">
<polygon fill="#e0e0e0" stroke="#999999" points="229.35,-19.25 152.6,-19.25 152.6,0 229.35,0 229.35,-19.25"/>
<text text-anchor="middle" x="190.97" y="-5.75" font-family="Helvetica,sans-Serif" font-size="10.00">albert/export.h</text>
</a>
</g>
</g>
<!-- Node2&#45;&gt;Node3 -->
<g id="edge2_Node000002_Node000003" class="edge">
<title>Node2&#45;&gt;Node3</title>
<g id="a_edge2_Node000002_Node000003"><a xlink:title=" ">
<path fill="none" stroke="#63b8ff" d="M119.12,-165.26C69.37,-146.96 -28.77,-103.36 8.97,-55.25 13.15,-49.93 88.7,-32.69 141.13,-21.26"/>
<polygon fill="#63b8ff" stroke="#63b8ff" points="141.76,-24.71 150.79,-19.17 140.27,-17.87 141.76,-24.71"/>
</a>
</g>
</g>
<!-- Node4 -->
<g id="Node000004" class="node">
<title>Node4</title>
<g id="a_Node000004"><a xlink:href="item_8h.html" target="_top" xlink:title=" ">
<polygon fill="white" stroke="#666666" points="180.6,-129.75 111.35,-129.75 111.35,-110.5 180.6,-110.5 180.6,-129.75"/>
<text text-anchor="middle" x="145.97" y="-116.25" font-family="Helvetica,sans-Serif" font-size="10.00">albert/item.h</text>
</a>
</g>
</g>
<!-- Node2&#45;&gt;Node4 -->
<g id="edge3_Node000002_Node000004" class="edge">
<title>Node2&#45;&gt;Node4</title>
<g id="a_edge3_Node000002_Node000004"><a xlink:title=" ">
<path fill="none" stroke="#63b8ff" d="M145.97,-165.58C145.97,-159.07 145.97,-149.92 145.97,-141.62"/>
<polygon fill="#63b8ff" stroke="#63b8ff" points="149.47,-141.62 145.97,-131.62 142.47,-141.62 149.47,-141.62"/>
</a>
</g>
</g>
<!-- Node2&#45;&gt;Node10 -->
<g id="edge11_Node000002_Node000010" class="edge">
<title>Node2&#45;&gt;Node10</title>
<g id="a_edge11_Node000002_Node000010"><a xlink:title=" ">
<path fill="none" stroke="#63b8ff" d="M158.17,-165.31C183.03,-146.84 239.83,-104.63 270.83,-81.59"/>
<polygon fill="#63b8ff" stroke="#63b8ff" points="272.76,-84.51 278.7,-75.74 268.59,-78.9 272.76,-84.51"/>
</a>
</g>
</g>
<!-- Node4&#45;&gt;Node3 -->
<g id="edge9_Node000004_Node000003" class="edge">
<title>Node4&#45;&gt;Node3</title>
<g id="a_edge9_Node000004_Node000003"><a xlink:title=" ">
<path fill="none" stroke="#63b8ff" d="M111.2,-114.86C64.59,-107.72 -9.33,-90.49 17.97,-55.25 25.67,-45.32 92.91,-30.08 141.25,-20.24"/>
<polygon fill="#63b8ff" stroke="#63b8ff" points="141.88,-23.68 150.99,-18.28 140.49,-16.82 141.88,-23.68"/>
</a>
</g>
</g>
<!-- Node5 -->
<g id="Node000005" class="node">
<title>Node5</title>
<g id="a_Node000005"><a xlink:title=" ">
<polygon fill="#e0e0e0" stroke="#999999" points="92.72,-74.5 27.22,-74.5 27.22,-55.25 92.72,-55.25 92.72,-74.5"/>
<text text-anchor="middle" x="59.97" y="-61" font-family="Helvetica,sans-Serif" font-size="10.00">QStringList</text>
</a>
</g>
</g>
<!-- Node4&#45;&gt;Node5 -->
<g id="edge4_Node000004_Node000005" class="edge">
<title>Node4&#45;&gt;Node5</title>
<g id="a_edge4_Node000004_Node000005"><a xlink:title=" ">
<path fill="none" stroke="#63b8ff" d="M131.39,-110.09C118.54,-102.14 99.56,-90.39 84.4,-81"/>
<polygon fill="#63b8ff" stroke="#63b8ff" points="86.27,-78.04 75.92,-75.75 82.58,-83.99 86.27,-78.04"/>
</a>
</g>
</g>
<!-- Node6 -->
<g id="Node000006" class="node">
<title>Node6</title>
<g id="a_Node000006"><a xlink:href="action_8h.html" target="_top" xlink:title=" ">
<polygon fill="white" stroke="#666666" points="187.35,-74.5 110.6,-74.5 110.6,-55.25 187.35,-55.25 187.35,-74.5"/>
<text text-anchor="middle" x="148.97" y="-61" font-family="Helvetica,sans-Serif" font-size="10.00">albert/action.h</text>
</a>
</g>
</g>
<!-- Node4&#45;&gt;Node6 -->
<g id="edge5_Node000004_Node000006" class="edge">
<title>Node4&#45;&gt;Node6</title>
<g id="a_edge5_Node000004_Node000006"><a xlink:title=" ">
<path fill="none" stroke="#63b8ff" d="M146.47,-110.33C146.84,-103.74 147.36,-94.46 147.84,-86.07"/>
<polygon fill="#63b8ff" stroke="#63b8ff" points="151.31,-86.55 148.38,-76.37 144.33,-86.16 151.31,-86.55"/>
</a>
</g>
</g>
<!-- Node4&#45;&gt;Node9 -->
<g id="edge10_Node000004_Node000009" class="edge">
<title>Node4&#45;&gt;Node9</title>
<g id="a_edge10_Node000004_Node000009"><a xlink:title=" ">
<path fill="none" stroke="#63b8ff" d="M159.71,-110.09C171.7,-102.21 189.35,-90.61 203.56,-81.27"/>
<polygon fill="#63b8ff" stroke="#63b8ff" points="205.47,-84.2 211.9,-75.78 201.62,-78.35 205.47,-84.2"/>
</a>
</g>
</g>
<!-- Node6&#45;&gt;Node3 -->
<g id="edge7_Node000006_Node000003" class="edge">
<title>Node6&#45;&gt;Node3</title>
<g id="a_edge7_Node000006_Node000003"><a xlink:title=" ">
<path fill="none" stroke="#63b8ff" d="M155.91,-55.08C161.59,-47.88 169.81,-37.46 176.87,-28.51"/>
<polygon fill="#63b8ff" stroke="#63b8ff" points="179.51,-30.82 182.95,-20.8 174.01,-26.48 179.51,-30.82"/>
</a>
</g>
</g>
<!-- Node7 -->
<g id="Node000007" class="node">
<title>Node7</title>
<g id="a_Node000007"><a xlink:title=" ">
<polygon fill="#e0e0e0" stroke="#999999" points="407.47,-19.25 358.47,-19.25 358.47,0 407.47,0 407.47,-19.25"/>
<text text-anchor="middle" x="382.97" y="-5.75" font-family="Helvetica,sans-Serif" font-size="10.00">QString</text>
</a>
</g>
</g>
<!-- Node6&#45;&gt;Node7 -->
<g id="edge6_Node000006_Node000007" class="edge">
<title>Node6&#45;&gt;Node7</title>
<g id="a_edge6_Node000006_Node000007"><a xlink:title=" ">
<path fill="none" stroke="#63b8ff" d="M187.61,-55.08C231.97,-44.99 304.12,-28.57 347.22,-18.76"/>
<polygon fill="#63b8ff" stroke="#63b8ff" points="347.85,-22.21 356.83,-16.58 346.3,-15.38 347.85,-22.21"/>
</a>
</g>
</g>
<!-- Node8 -->
<g id="Node000008" class="node">
<title>Node8</title>
<g id="a_Node000008"><a xlink:title=" ">
<polygon fill="#e0e0e0" stroke="#999999" points="134.97,-19.25 76.97,-19.25 76.97,0 134.97,0 134.97,-19.25"/>
<text text-anchor="middle" x="105.97" y="-5.75" font-family="Helvetica,sans-Serif" font-size="10.00">functional</text>
</a>
</g>
</g>
<!-- Node6&#45;&gt;Node8 -->
<g id="edge8_Node000006_Node000008" class="edge">
<title>Node6&#45;&gt;Node8</title>
<g id="a_edge8_Node000006_Node000008"><a xlink:title=" ">
<path fill="none" stroke="#63b8ff" d="M141.87,-55.08C136.06,-47.88 127.64,-37.46 120.42,-28.51"/>
<polygon fill="#63b8ff" stroke="#63b8ff" points="123.19,-26.37 114.18,-20.79 117.74,-30.77 123.19,-26.37"/>
</a>
</g>
</g>
<!-- Node12 -->
<g id="Node000012" class="node">
<title>Node12</title>
<g id="a_Node000012"><a xlink:href="extension_8h.html" target="_top" xlink:title=" ">
<polygon fill="white" stroke="#666666" points="693.85,-74.5 602.1,-74.5 602.1,-55.25 693.85,-55.25 693.85,-74.5"/>
<text text-anchor="middle" x="647.97" y="-61" font-family="Helvetica,sans-Serif" font-size="10.00">albert/extension.h</text>
</a>
</g>
</g>
<!-- Node11&#45;&gt;Node12 -->
<g id="edge13_Node000011_Node000012" class="edge">
<title>Node11&#45;&gt;Node12</title>
<g id="a_edge13_Node000011_Node000012"><a xlink:title=" ">
<path fill="none" stroke="#63b8ff" d="M409.69,-165.31C455.48,-146.2 562.1,-101.71 615.82,-79.29"/>
<polygon fill="#63b8ff" stroke="#63b8ff" points="616.86,-82.65 624.74,-75.57 614.16,-76.19 616.86,-82.65"/>
</a>
</g>
</g>
<!-- Node13 -->
<g id="Node000013" class="node">
<title>Node13</title>
<g id="a_Node000013"><a xlink:href="query_8h.html" target="_top" xlink:title=" ">
<polygon fill="white" stroke="#666666" points="419.85,-129.75 346.1,-129.75 346.1,-110.5 419.85,-110.5 419.85,-129.75"/>
<text text-anchor="middle" x="382.97" y="-116.25" font-family="Helvetica,sans-Serif" font-size="10.00">albert/query.h</text>
</a>
</g>
</g>
<!-- Node11&#45;&gt;Node13 -->
<g id="edge16_Node000011_Node000013" class="edge">
<title>Node11&#45;&gt;Node13</title>
<g id="a_edge16_Node000011_Node000013"><a xlink:title=" ">
<path fill="none" stroke="#63b8ff" d="M387.15,-165.58C386.53,-158.99 385.66,-149.71 384.87,-141.32"/>
<polygon fill="#63b8ff" stroke="#63b8ff" points="388.38,-141.25 383.96,-131.62 381.41,-141.9 388.38,-141.25"/>
</a>
</g>
</g>
<!-- Node12&#45;&gt;Node3 -->
<g id="edge15_Node000012_Node000003" class="edge">
<title>Node12&#45;&gt;Node3</title>
<g id="a_edge15_Node000012_Node000003"><a xlink:title=" ">
<path fill="none" stroke="#63b8ff" d="M601.75,-56.34C599.12,-55.96 596.51,-55.59 593.97,-55.25 467.07,-38.1 317.03,-22.79 240.81,-15.37"/>
<polygon fill="#63b8ff" stroke="#63b8ff" points="241.47,-11.91 231.18,-14.43 240.79,-18.88 241.47,-11.91"/>
</a>
</g>
</g>
<!-- Node12&#45;&gt;Node7 -->
<g id="edge14_Node000012_Node000007" class="edge">
<title>Node12&#45;&gt;Node7</title>
<g id="a_edge14_Node000012_Node000007"><a xlink:title=" ">
<path fill="none" stroke="#63b8ff" d="M602.72,-54.78C550.69,-44.33 466.34,-27.38 418.7,-17.8"/>
<polygon fill="#63b8ff" stroke="#63b8ff" points="419.69,-14.43 409.19,-15.89 418.31,-21.29 419.69,-14.43"/>
</a>
</g>
</g>
<!-- Node13&#45;&gt;Node3 -->
<g id="edge20_Node000013_Node000003" class="edge">
<title>Node13&#45;&gt;Node3</title>
<g id="a_edge20_Node000013_Node000003"><a xlink:title=" ">
<path fill="none" stroke="#63b8ff" d="M377.41,-110.37C368.28,-96.69 348.84,-70.25 325.97,-55.25 300.24,-38.36 267.55,-27.34 240.78,-20.47"/>
<polygon fill="#63b8ff" stroke="#63b8ff" points="241.73,-17.1 231.18,-18.14 240.07,-23.9 241.73,-17.1"/>
</a>
</g>
</g>
<!-- Node13&#45;&gt;Node7 -->
<g id="edge19_Node000013_Node000007" class="edge">
<title>Node13&#45;&gt;Node7</title>
<g id="a_edge19_Node000013_Node000007"><a xlink:title=" ">
<path fill="none" stroke="#63b8ff" d="M382.97,-110.25C382.97,-93 382.97,-54.58 382.97,-30.81"/>
<polygon fill="#63b8ff" stroke="#63b8ff" points="386.47,-31.14 382.97,-21.14 379.47,-31.14 386.47,-31.14"/>
</a>
</g>
</g>
<!-- Node13&#45;&gt;Node9 -->
<g id="edge22_Node000013_Node000009" class="edge">
<title>Node13&#45;&gt;Node9</title>
<g id="a_edge22_Node000013_Node000009"><a xlink:title=" ">
<path fill="none" stroke="#63b8ff" d="M356.51,-110.09C329.65,-100.92 288.03,-86.72 259.25,-76.89"/>
<polygon fill="#63b8ff" stroke="#63b8ff" points="260.56,-73.64 249.97,-73.72 258.3,-80.27 260.56,-73.64"/>
</a>
</g>
</g>
<!-- Node13&#45;&gt;Node10 -->
<g id="edge21_Node000013_Node000010" class="edge">
<title>Node13&#45;&gt;Node10</title>
<g id="a_edge21_Node000013_Node000010"><a xlink:title=" ">
<path fill="none" stroke="#63b8ff" d="M367.54,-110.09C353.81,-102.06 333.48,-90.16 317.36,-80.73"/>
<polygon fill="#63b8ff" stroke="#63b8ff" points="319.19,-77.75 308.79,-75.72 315.66,-83.79 319.19,-77.75"/>
</a>
</g>
</g>
<!-- Node14 -->
<g id="Node000014" class="node">
<title>Node14</title>
<g id="a_Node000014"><a xlink:title=" ">
<polygon fill="#e0e0e0" stroke="#999999" points="584.47,-74.5 481.47,-74.5 481.47,-55.25 584.47,-55.25 584.47,-74.5"/>
<text text-anchor="middle" x="532.97" y="-61" font-family="Helvetica,sans-Serif" font-size="10.00">QAbstractListModel</text>
</a>
</g>
</g>
<!-- Node13&#45;&gt;Node14 -->
<g id="edge17_Node000013_Node000014" class="edge">
<title>Node13&#45;&gt;Node14</title>
<g id="a_edge17_Node000013_Node000014"><a xlink:title=" ">
<path fill="none" stroke="#63b8ff" d="M408.42,-110.09C432.66,-101.49 469.41,-88.44 496.71,-78.75"/>
<polygon fill="#63b8ff" stroke="#63b8ff" points="497.72,-82.1 505.98,-75.46 495.38,-75.51 497.72,-82.1"/>
</a>
</g>
</g>
<!-- Node15 -->
<g id="Node000015" class="node">
<title>Node15</title>
<g id="a_Node000015"><a xlink:title=" ">
<polygon fill="#e0e0e0" stroke="#999999" points="462.97,-74.5 410.97,-74.5 410.97,-55.25 462.97,-55.25 462.97,-74.5"/>
<text text-anchor="middle" x="436.97" y="-61" font-family="Helvetica,sans-Serif" font-size="10.00">QObject</text>
</a>
</g>
</g>
<!-- Node13&#45;&gt;Node15 -->
<g id="edge18_Node000013_Node000015" class="edge">
<title>Node13&#45;&gt;Node15</title>
<g id="a_edge18_Node000013_Node000015"><a xlink:title=" ">
<path fill="none" stroke="#63b8ff" d="M391.89,-110.33C399.43,-102.9 410.44,-92.04 419.7,-82.91"/>
<polygon fill="#63b8ff" stroke="#63b8ff" points="422.12,-85.44 426.79,-75.92 417.21,-80.45 422.12,-85.44"/>
</a>
</g>
</g>
</g>
</svg>
