<?xml version="1.0" encoding="UTF-8" standalone="no"?>
<!DOCTYPE svg PUBLIC "-//W3C//DTD SVG 1.1//EN"
 "http://www.w3.org/Graphics/SVG/1.1/DTD/svg11.dtd">
<!-- Generated by graphviz version 9.0.0 (20230911.1827)
 -->
<!-- Title: Utility API Pages: 1 -->
<svg width="156pt" height="212pt"
 viewBox="0.00 0.00 156.25 212.25" xmlns="http://www.w3.org/2000/svg" xmlns:xlink="http://www.w3.org/1999/xlink">
<g id="graph0" class="graph" transform="scale(1 1) rotate(0) translate(4 208.25)">
<title>Utility API</title>
<!-- Node1 -->
<g id="Node000001" class="node">
<title>Node1</title>
<g id="a_Node000001"><a xlink:title="Utility classes and helper functions.">
<polygon fill="#999999" stroke="#666666" points="59.5,-111.25 0,-111.25 0,-92 59.5,-92 59.5,-111.25"/>
<text text-anchor="middle" x="29.75" y="-97.75" font-family="Helvetica,sans-Serif" font-size="10.00">Utility API</text>
</a>
</g>
</g>
<!-- Node4 -->
<g id="Node000004" class="node">
<title>Node4</title>
<g id="a_Node000004"><a xlink:href="group__util__icon.html" target="_top" xlink:title="Utility for icon factories.">
<polygon fill="white" stroke="#666666" points="139.25,-204.25 104.5,-204.25 104.5,-185 139.25,-185 139.25,-204.25"/>
<text text-anchor="middle" x="121.88" y="-190.75" font-family="Helvetica,sans-Serif" font-size="10.00">Icon</text>
</a>
</g>
</g>
<!-- Node1&#45;&gt;Node4 -->
<g id="edge3" class="edge">
<title>Node1&#45;&gt;Node4</title>
<path fill="none" stroke="black" d="M44.86,-120.4C57.28,-136.28 76.32,-159.19 95.5,-176.62 98.54,-179.39 102.01,-182.09 105.39,-184.54"/>
<polygon fill="black" stroke="black" points="47.84,-118.52 38.97,-112.72 42.28,-122.79 47.84,-118.52"/>
</g>
<!-- Node5 -->
<g id="Node000005" class="node">
<title>Node5</title>
<g id="a_Node000005"><a xlink:href="group__util__net.html" target="_top" xlink:title="Network utility.">
<polygon fill="white" stroke="#666666" points="148.25,-167.25 95.5,-167.25 95.5,-148 148.25,-148 148.25,-167.25"/>
<text text-anchor="middle" x="121.88" y="-153.75" font-family="Helvetica,sans-Serif" font-size="10.00">Network</text>
</a>
</g>
</g>
<!-- Node1&#45;&gt;Node5 -->
<g id="edge4" class="edge">
<title>Node1&#45;&gt;Node5</title>
<path fill="none" stroke="black" d="M56.4,-117.56C71.89,-127.19 91.18,-139.17 104.6,-147.51"/>
<polygon fill="black" stroke="black" points="58.49,-114.74 48.15,-112.44 54.79,-120.69 58.49,-114.74"/>
</g>
<!-- Node2 -->
<g id="Node000002" class="node">
<title>Node2</title>
<g id="a_Node000002"><a xlink:href="group__util__plugin.html" target="_top" xlink:title="Utility for plugins.">
<polygon fill="white" stroke="#666666" points="143.38,-130.25 100.38,-130.25 100.38,-111 143.38,-111 143.38,-130.25"/>
<text text-anchor="middle" x="121.88" y="-116.75" font-family="Helvetica,sans-Serif" font-size="10.00">Plugin</text>
</a>
</g>
</g>
<!-- Node1&#45;&gt;Node2 -->
<g id="edge1" class="edge">
<title>Node1&#45;&gt;Node2</title>
<path fill="none" stroke="black" d="M70.84,-110.08C80.87,-112.19 91.24,-114.38 99.92,-116.21"/>
<polygon fill="black" stroke="black" points="71.75,-106.69 61.24,-108.05 70.31,-113.54 71.75,-106.69"/>
</g>
<!-- Node3 -->
<g id="Node000003" class="node">
<title>Node3</title>
<g id="a_Node000003"><a xlink:href="group__util__query.html" target="_top" xlink:title="Utility for indexing and query handling.">
<polygon fill="white" stroke="#666666" points="142.62,-93.25 101.12,-93.25 101.12,-74 142.62,-74 142.62,-93.25"/>
<text text-anchor="middle" x="121.88" y="-79.75" font-family="Helvetica,sans-Serif" font-size="10.00">Query</text>
</a>
</g>
</g>
<!-- Node1&#45;&gt;Node3 -->
<g id="edge2" class="edge">
<title>Node1&#45;&gt;Node3</title>
<path fill="none" stroke="black" d="M70.78,-93.63C81.16,-91.56 91.9,-89.41 100.76,-87.64"/>
<polygon fill="black" stroke="black" points="70.37,-90.14 61.25,-95.53 71.74,-97.01 70.37,-90.14"/>
</g>
<!-- Node6 -->
<g id="Node000006" class="node">
<title>Node6</title>
<g id="a_Node000006"><a xlink:href="group__util__system.html" target="_top" xlink:title="System/Desktop utility.">
<polygon fill="white" stroke="#666666" points="146.38,-56.25 97.38,-56.25 97.38,-37 146.38,-37 146.38,-56.25"/>
<text text-anchor="middle" x="121.88" y="-42.75" font-family="Helvetica,sans-Serif" font-size="10.00">System</text>
</a>
</g>
</g>
<!-- Node1&#45;&gt;Node6 -->
<g id="edge5" class="edge">
<title>Node1&#45;&gt;Node6</title>
<path fill="none" stroke="black" d="M56.76,-85.75C72.14,-76.37 91.14,-64.77 104.45,-56.65"/>
<polygon fill="black" stroke="black" points="55.29,-82.55 48.57,-90.75 58.93,-88.53 55.29,-82.55"/>
</g>
<!-- Node7 -->
<g id="Node000007" class="node">
<title>Node7</title>
<g id="a_Node000007"><a xlink:href="group__util__ui.html" target="_top" xlink:title="UI utility.">
<polygon fill="white" stroke="#666666" points="136.28,-19.25 107.47,-19.25 107.47,0 136.28,0 136.28,-19.25"/>
<text text-anchor="middle" x="121.88" y="-5.75" font-family="Helvetica,sans-Serif" font-size="10.00">UI</text>
</a>
</g>
</g>
<!-- Node1&#45;&gt;Node7 -->
<g id="edge6" class="edge">
<title>Node1&#45;&gt;Node7</title>
<path fill="none" stroke="black" d="M44.91,-83.12C57.35,-67.46 76.4,-44.87 95.5,-27.62 99.03,-24.44 103.13,-21.32 106.99,-18.59"/>
<polygon fill="black" stroke="black" points="42.4,-80.64 39,-90.68 47.92,-84.95 42.4,-80.64"/>
</g>
</g>
</svg>
