<?xml version="1.0" encoding="UTF-8" standalone="no"?>
<!DOCTYPE svg PUBLIC "-//W3C//DTD SVG 1.1//EN"
 "http://www.w3.org/Graphics/SVG/1.1/DTD/svg11.dtd">
<!-- Generated by graphviz version 9.0.0 (20230911.1827)
 -->
<!-- Title: Core API Pages: 1 -->
<svg width="179pt" height="101pt"
 viewBox="0.00 0.00 178.75 101.25" xmlns="http://www.w3.org/2000/svg" xmlns:xlink="http://www.w3.org/1999/xlink">
<g id="graph0" class="graph" transform="scale(1 1) rotate(0) translate(4 97.25)">
<title>Core API</title>
<!-- Node1 -->
<g id="Node000001" class="node">
<title>Node1</title>
<g id="a_Node000001"><a xlink:title="Core classes and functions.">
<polygon fill="#999999" stroke="#666666" points="55,-56.25 0,-56.25 0,-37 55,-37 55,-56.25"/>
<text text-anchor="middle" x="27.5" y="-42.75" font-family="Helvetica,sans-Serif" font-size="10.00">Core API</text>
</a>
</g>
</g>
<!-- Node2 -->
<g id="Node000002" class="node">
<title>Node2</title>
<g id="a_Node000002"><a xlink:href="group__core__extension.html" target="_top" xlink:title="Extension system and built&#45;in extension interfaces classes.">
<polygon fill="white" stroke="#666666" points="159.88,-93.25 101.88,-93.25 101.88,-74 159.88,-74 159.88,-93.25"/>
<text text-anchor="middle" x="130.88" y="-79.75" font-family="Helvetica,sans-Serif" font-size="10.00">Extension</text>
</a>
</g>
</g>
<!-- Node1&#45;&gt;Node2 -->
<g id="edge1" class="edge">
<title>Node1&#45;&gt;Node2</title>
<path fill="none" stroke="black" d="M66.01,-60.32C77.98,-64.68 91,-69.44 102.14,-73.5"/>
<polygon fill="black" stroke="black" points="67.42,-57.1 56.82,-56.96 65.02,-63.68 67.42,-57.1"/>
</g>
<!-- Node3 -->
<g id="Node000003" class="node">
<title>Node3</title>
<g id="a_Node000003"><a xlink:href="group__core__plugin.html" target="_top" xlink:title="Classes and functions of the plugin system.">
<polygon fill="white" stroke="#666666" points="169.25,-56.25 92.5,-56.25 92.5,-37 169.25,-37 169.25,-56.25"/>
<text text-anchor="middle" x="130.88" y="-42.75" font-family="Helvetica,sans-Serif" font-size="10.00">Plugin system</text>
</a>
</g>
</g>
<!-- Node1&#45;&gt;Node3 -->
<g id="edge2" class="edge">
<title>Node1&#45;&gt;Node3</title>
<path fill="none" stroke="black" d="M66.74,-46.62C75.07,-46.62 83.86,-46.62 92.16,-46.62"/>
<polygon fill="black" stroke="black" points="66.91,-43.13 56.91,-46.63 66.91,-50.13 66.91,-43.13"/>
</g>
<!-- Node4 -->
<g id="Node000004" class="node">
<title>Node4</title>
<g id="a_Node000004"><a xlink:href="group__core__query.html" target="_top" xlink:title="Classes and functions of the query system.">
<polygon fill="white" stroke="#666666" points="170.75,-19.25 91,-19.25 91,0 170.75,0 170.75,-19.25"/>
<text text-anchor="middle" x="130.88" y="-5.75" font-family="Helvetica,sans-Serif" font-size="10.00">Query handling</text>
</a>
</g>
</g>
<!-- Node1&#45;&gt;Node4 -->
<g id="edge3" class="edge">
<title>Node1&#45;&gt;Node4</title>
<path fill="none" stroke="black" d="M66.01,-32.93C77.98,-28.57 91,-23.81 102.14,-19.75"/>
<polygon fill="black" stroke="black" points="65.02,-29.57 56.82,-36.29 67.42,-36.15 65.02,-29.57"/>
</g>
</g>
</svg>
