<?xml version="1.0" encoding="UTF-8" standalone="no"?>
<!DOCTYPE svg PUBLIC "-//W3C//DTD SVG 1.1//EN"
 "http://www.w3.org/Graphics/SVG/1.1/DTD/svg11.dtd">
<!-- Generated by graphviz version 9.0.0 (20230911.1827)
 -->
<!-- Title: workspace/albert/include/albert/iconutil.h Pages: 1 -->
<svg width="287pt" height="149pt"
 viewBox="0.00 0.00 286.88 149.00" xmlns="http://www.w3.org/2000/svg" xmlns:xlink="http://www.w3.org/1999/xlink">
<g id="graph0" class="graph" transform="scale(1 1) rotate(0) translate(4 145)">
<title>workspace/albert/include/albert/iconutil.h</title>
<!-- Node1 -->
<g id="Node000001" class="node">
<title>Node1</title>
<g id="a_Node000001"><a xlink:title=" ">
<polygon fill="#999999" stroke="#666666" points="203.38,-141 79.38,-141 79.38,-110.5 203.38,-110.5 203.38,-141"/>
<text text-anchor="start" x="87.38" y="-127.5" font-family="Helvetica,sans-Serif" font-size="10.00">workspace/albert/include</text>
<text text-anchor="middle" x="141.38" y="-116.25" font-family="Helvetica,sans-Serif" font-size="10.00">/albert/iconutil.h</text>
</a>
</g>
</g>
<!-- Node2 -->
<g id="Node000002" class="node">
<title>Node2</title>
<g id="a_Node000002"><a xlink:title=" ">
<polygon fill="#e0e0e0" stroke="#999999" points="76.75,-19.25 0,-19.25 0,0 76.75,0 76.75,-19.25"/>
<text text-anchor="middle" x="38.38" y="-5.75" font-family="Helvetica,sans-Serif" font-size="10.00">albert/export.h</text>
</a>
</g>
</g>
<!-- Node1&#45;&gt;Node2 -->
<g id="edge1_Node000001_Node000002" class="edge">
<title>Node1&#45;&gt;Node2</title>
<g id="a_edge1_Node000001_Node000002"><a xlink:title=" ">
<path fill="none" stroke="#63b8ff" d="M104.34,-110.07C87.85,-101.84 69.47,-90.07 57.38,-74.5 47.49,-61.77 42.73,-43.97 40.45,-30.4"/>
<polygon fill="#63b8ff" stroke="#63b8ff" points="43.98,-30.33 39.18,-20.88 37.04,-31.26 43.98,-30.33"/>
</a>
</g>
</g>
<!-- Node3 -->
<g id="Node000003" class="node">
<title>Node3</title>
<g id="a_Node000003"><a xlink:href="icon_8h.html" target="_top" xlink:title=" ">
<polygon fill="white" stroke="#666666" points="134.62,-74.5 66.12,-74.5 66.12,-55.25 134.62,-55.25 134.62,-74.5"/>
<text text-anchor="middle" x="100.38" y="-61" font-family="Helvetica,sans-Serif" font-size="10.00">albert/icon.h</text>
</a>
</g>
</g>
<!-- Node1&#45;&gt;Node3 -->
<g id="edge2_Node000001_Node000003" class="edge">
<title>Node1&#45;&gt;Node3</title>
<g id="a_edge2_Node000001_Node000003"><a xlink:title=" ">
<path fill="none" stroke="#63b8ff" d="M131.24,-110.2C125.78,-102.35 118.98,-92.6 113.16,-84.24"/>
<polygon fill="#63b8ff" stroke="#63b8ff" points="116.15,-82.4 107.56,-76.19 110.4,-86.4 116.15,-82.4"/>
</a>
</g>
</g>
<!-- Node5 -->
<g id="Node000005" class="node">
<title>Node5</title>
<g id="a_Node000005"><a xlink:title=" ">
<polygon fill="#e0e0e0" stroke="#999999" points="212.12,-74.5 152.62,-74.5 152.62,-55.25 212.12,-55.25 212.12,-74.5"/>
<text text-anchor="middle" x="182.38" y="-61" font-family="Helvetica,sans-Serif" font-size="10.00">filesystem</text>
</a>
</g>
</g>
<!-- Node1&#45;&gt;Node5 -->
<g id="edge5_Node000001_Node000005" class="edge">
<title>Node1&#45;&gt;Node5</title>
<g id="a_edge5_Node000001_Node000005"><a xlink:title=" ">
<path fill="none" stroke="#63b8ff" d="M151.51,-110.2C156.97,-102.35 163.77,-92.6 169.59,-84.24"/>
<polygon fill="#63b8ff" stroke="#63b8ff" points="172.35,-86.4 175.19,-76.19 166.6,-82.4 172.35,-86.4"/>
</a>
</g>
</g>
<!-- Node6 -->
<g id="Node000006" class="node">
<title>Node6</title>
<g id="a_Node000006"><a xlink:title=" ">
<polygon fill="#e0e0e0" stroke="#999999" points="278.88,-74.5 229.88,-74.5 229.88,-55.25 278.88,-55.25 278.88,-74.5"/>
<text text-anchor="middle" x="254.38" y="-61" font-family="Helvetica,sans-Serif" font-size="10.00">QString</text>
</a>
</g>
</g>
<!-- Node1&#45;&gt;Node6 -->
<g id="edge6_Node000001_Node000006" class="edge">
<title>Node1&#45;&gt;Node6</title>
<g id="a_edge6_Node000001_Node000006"><a xlink:title=" ">
<path fill="none" stroke="#63b8ff" d="M169.6,-110.05C187.14,-100.91 209.58,-89.22 226.96,-80.16"/>
<polygon fill="#63b8ff" stroke="#63b8ff" points="228.45,-83.33 235.7,-75.6 225.22,-77.12 228.45,-83.33"/>
</a>
</g>
</g>
<!-- Node3&#45;&gt;Node2 -->
<g id="edge3_Node000003_Node000002" class="edge">
<title>Node3&#45;&gt;Node2</title>
<g id="a_edge3_Node000003_Node000002"><a xlink:title=" ">
<path fill="none" stroke="#63b8ff" d="M89.86,-54.84C80.99,-47.22 68.06,-36.12 57.39,-26.95"/>
<polygon fill="#63b8ff" stroke="#63b8ff" points="59.75,-24.37 49.89,-20.51 55.19,-29.68 59.75,-24.37"/>
</a>
</g>
</g>
<!-- Node4 -->
<g id="Node000004" class="node">
<title>Node4</title>
<g id="a_Node000004"><a xlink:title=" ">
<polygon fill="#e0e0e0" stroke="#999999" points="145.62,-19.25 95.12,-19.25 95.12,0 145.62,0 145.62,-19.25"/>
<text text-anchor="middle" x="120.38" y="-5.75" font-family="Helvetica,sans-Serif" font-size="10.00">memory</text>
</a>
</g>
</g>
<!-- Node3&#45;&gt;Node4 -->
<g id="edge4_Node000003_Node000004" class="edge">
<title>Node3&#45;&gt;Node4</title>
<g id="a_edge4_Node000003_Node000004"><a xlink:title=" ">
<path fill="none" stroke="#63b8ff" d="M103.68,-55.08C106.21,-48.34 109.8,-38.77 113.01,-30.24"/>
<polygon fill="#63b8ff" stroke="#63b8ff" points="116.23,-31.62 116.47,-21.03 109.68,-29.16 116.23,-31.62"/>
</a>
</g>
</g>
</g>
</svg>
