<?xml version="1.0" encoding="UTF-8" standalone="no"?>
<!DOCTYPE svg PUBLIC "-//W3C//DTD SVG 1.1//EN"
 "http://www.w3.org/Graphics/SVG/1.1/DTD/svg11.dtd">
<!-- Generated by graphviz version 9.0.0 (20230911.1827)
 -->
<!-- Title: workspace/albert/include/albert/iconprovider.h Pages: 1 -->
<svg width="363pt" height="94pt"
 viewBox="0.00 0.00 362.50 93.75" xmlns="http://www.w3.org/2000/svg" xmlns:xlink="http://www.w3.org/1999/xlink">
<g id="graph0" class="graph" transform="scale(1 1) rotate(0) translate(4 89.75)">
<title>workspace/albert/include/albert/iconprovider.h</title>
<!-- Node1 -->
<g id="Node000001" class="node">
<title>Node1</title>
<g id="a_Node000001"><a xlink:title=" ">
<polygon fill="#999999" stroke="#666666" points="217.12,-85.75 93.12,-85.75 93.12,-55.25 217.12,-55.25 217.12,-85.75"/>
<text text-anchor="start" x="101.12" y="-72.25" font-family="Helvetica,sans-Serif" font-size="10.00">workspace/albert/include</text>
<text text-anchor="middle" x="155.12" y="-61" font-family="Helvetica,sans-Serif" font-size="10.00">/albert/iconprovider.h</text>
</a>
</g>
</g>
<!-- Node2 -->
<g id="Node000002" class="node">
<title>Node2</title>
<g id="a_Node000002"><a xlink:title=" ">
<polygon fill="#e0e0e0" stroke="#999999" points="42.25,-19.25 0,-19.25 0,0 42.25,0 42.25,-19.25"/>
<text text-anchor="middle" x="21.12" y="-5.75" font-family="Helvetica,sans-Serif" font-size="10.00">QIcon</text>
</a>
</g>
</g>
<!-- Node1&#45;&gt;Node2 -->
<g id="edge1_Node000001_Node000002" class="edge">
<title>Node1&#45;&gt;Node2</title>
<g id="a_edge1_Node000001_Node000002"><a xlink:title=" ">
<path fill="none" stroke="#63b8ff" d="M121.66,-54.8C100.37,-45.44 72.99,-33.41 52.18,-24.27"/>
<polygon fill="#63b8ff" stroke="#63b8ff" points="53.62,-21.08 43.06,-20.26 50.81,-27.49 53.62,-21.08"/>
</a>
</g>
</g>
<!-- Node3 -->
<g id="Node000003" class="node">
<title>Node3</title>
<g id="a_Node000003"><a xlink:title=" ">
<polygon fill="#e0e0e0" stroke="#999999" points="116,-19.25 60.25,-19.25 60.25,0 116,0 116,-19.25"/>
<text text-anchor="middle" x="88.12" y="-5.75" font-family="Helvetica,sans-Serif" font-size="10.00">QPixmap</text>
</a>
</g>
</g>
<!-- Node1&#45;&gt;Node3 -->
<g id="edge2_Node000001_Node000003" class="edge">
<title>Node1&#45;&gt;Node3</title>
<g id="a_edge2_Node000001_Node000003"><a xlink:title=" ">
<path fill="none" stroke="#63b8ff" d="M138.56,-54.95C128.95,-46.5 116.81,-35.83 106.85,-27.08"/>
<polygon fill="#63b8ff" stroke="#63b8ff" points="109.41,-24.67 99.59,-20.7 104.79,-29.93 109.41,-24.67"/>
</a>
</g>
</g>
<!-- Node4 -->
<g id="Node000004" class="node">
<title>Node4</title>
<g id="a_Node000004"><a xlink:title=" ">
<polygon fill="#e0e0e0" stroke="#999999" points="176.25,-19.25 134,-19.25 134,0 176.25,0 176.25,-19.25"/>
<text text-anchor="middle" x="155.12" y="-5.75" font-family="Helvetica,sans-Serif" font-size="10.00">QSize</text>
</a>
</g>
</g>
<!-- Node1&#45;&gt;Node4 -->
<g id="edge3_Node000001_Node000004" class="edge">
<title>Node1&#45;&gt;Node4</title>
<g id="a_edge3_Node000001_Node000004"><a xlink:title=" ">
<path fill="none" stroke="#63b8ff" d="M155.12,-54.95C155.12,-47.71 155.12,-38.84 155.12,-30.94"/>
<polygon fill="#63b8ff" stroke="#63b8ff" points="158.63,-31.21 155.13,-21.21 151.63,-31.21 158.63,-31.21"/>
</a>
</g>
</g>
<!-- Node5 -->
<g id="Node000005" class="node">
<title>Node5</title>
<g id="a_Node000005"><a xlink:title=" ">
<polygon fill="#e0e0e0" stroke="#999999" points="259.88,-19.25 194.38,-19.25 194.38,0 259.88,0 259.88,-19.25"/>
<text text-anchor="middle" x="227.12" y="-5.75" font-family="Helvetica,sans-Serif" font-size="10.00">QStringList</text>
</a>
</g>
</g>
<!-- Node1&#45;&gt;Node5 -->
<g id="edge4_Node000001_Node000005" class="edge">
<title>Node1&#45;&gt;Node5</title>
<g id="a_edge4_Node000001_Node000005"><a xlink:title=" ">
<path fill="none" stroke="#63b8ff" d="M172.92,-54.95C183.36,-46.41 196.56,-35.62 207.33,-26.81"/>
<polygon fill="#63b8ff" stroke="#63b8ff" points="209.33,-29.7 214.85,-20.66 204.9,-24.28 209.33,-29.7"/>
</a>
</g>
</g>
<!-- Node6 -->
<g id="Node000006" class="node">
<title>Node6</title>
<g id="a_Node000006"><a xlink:title=" ">
<polygon fill="#e0e0e0" stroke="#999999" points="354.5,-19.25 277.75,-19.25 277.75,0 354.5,0 354.5,-19.25"/>
<text text-anchor="middle" x="316.12" y="-5.75" font-family="Helvetica,sans-Serif" font-size="10.00">albert/export.h</text>
</a>
</g>
</g>
<!-- Node1&#45;&gt;Node6 -->
<g id="edge5_Node000001_Node000006" class="edge">
<title>Node1&#45;&gt;Node6</title>
<g id="a_edge5_Node000001_Node000006"><a xlink:title=" ">
<path fill="none" stroke="#63b8ff" d="M195.34,-54.8C221.62,-45.18 255.63,-32.75 280.86,-23.52"/>
<polygon fill="#63b8ff" stroke="#63b8ff" points="281.82,-26.9 290.01,-20.17 279.42,-20.32 281.82,-26.9"/>
</a>
</g>
</g>
</g>
</svg>
