<?xml version="1.0" encoding="UTF-8" standalone="no"?>
<!DOCTYPE svg PUBLIC "-//W3C//DTD SVG 1.1//EN"
 "http://www.w3.org/Graphics/SVG/1.1/DTD/svg11.dtd">
<!-- Generated by graphviz version 9.0.0 (20230911.1827)
 -->
<!-- Title: workspace/albert/include/albert/indexqueryhandler.h Pages: 1 -->
<svg width="807pt" height="315pt"
 viewBox="0.00 0.00 807.41 314.75" xmlns="http://www.w3.org/2000/svg" xmlns:xlink="http://www.w3.org/1999/xlink">
<g id="graph0" class="graph" transform="scale(1 1) rotate(0) translate(4 310.75)">
<title>workspace/albert/include/albert/indexqueryhandler.h</title>
<!-- Node1 -->
<g id="Node000001" class="node">
<title>Node1</title>
<g id="a_Node000001"><a xlink:title=" ">
<polygon fill="#999999" stroke="#666666" points="602.78,-306.75 472.03,-306.75 472.03,-276.25 602.78,-276.25 602.78,-306.75"/>
<text text-anchor="start" x="480.03" y="-293.25" font-family="Helvetica,sans-Serif" font-size="10.00">workspace/albert/include</text>
<text text-anchor="middle" x="537.41" y="-282" font-family="Helvetica,sans-Serif" font-size="10.00">/albert/indexqueryhandler.h</text>
</a>
</g>
</g>
<!-- Node2 -->
<g id="Node000002" class="node">
<title>Node2</title>
<g id="a_Node000002"><a xlink:title=" ">
<polygon fill="#e0e0e0" stroke="#999999" points="711.91,-19.25 662.91,-19.25 662.91,0 711.91,0 711.91,-19.25"/>
<text text-anchor="middle" x="687.41" y="-5.75" font-family="Helvetica,sans-Serif" font-size="10.00">QString</text>
</a>
</g>
</g>
<!-- Node1&#45;&gt;Node2 -->
<g id="edge1_Node000001_Node000002" class="edge">
<title>Node1&#45;&gt;Node2</title>
<g id="a_edge1_Node000001_Node000002"><a xlink:title=" ">
<path fill="none" stroke="#63b8ff" d="M603.18,-289.29C680.79,-283.96 799.41,-261.84 799.41,-176.38 799.41,-176.38 799.41,-176.38 799.41,-119.12 799.41,-74.18 752.3,-41.89 719.19,-24.75"/>
<polygon fill="#63b8ff" stroke="#63b8ff" points="720.88,-21.69 710.36,-20.39 717.78,-27.96 720.88,-21.69"/>
</a>
</g>
</g>
<!-- Node3 -->
<g id="Node000003" class="node">
<title>Node3</title>
<g id="a_Node000003"><a xlink:href="globalqueryhandler_8h.html" target="_top" xlink:title=" ">
<polygon fill="white" stroke="#666666" points="385.78,-240.25 255.03,-240.25 255.03,-221 385.78,-221 385.78,-240.25"/>
<text text-anchor="middle" x="320.41" y="-226.75" font-family="Helvetica,sans-Serif" font-size="10.00">albert/globalqueryhandler.h</text>
</a>
</g>
</g>
<!-- Node1&#45;&gt;Node3 -->
<g id="edge2_Node000001_Node000003" class="edge">
<title>Node1&#45;&gt;Node3</title>
<g id="a_edge2_Node000001_Node000003"><a xlink:title=" ">
<path fill="none" stroke="#63b8ff" d="M483.21,-275.8C446.78,-265.91 399.35,-253.04 365.09,-243.75"/>
<polygon fill="#63b8ff" stroke="#63b8ff" points="366.04,-240.38 355.47,-241.14 364.2,-247.13 366.04,-240.38"/>
</a>
</g>
</g>
<!-- Node10 -->
<g id="Node000010" class="node">
<title>Node10</title>
<g id="a_Node000010"><a xlink:title=" ">
<polygon fill="#e0e0e0" stroke="#999999" points="248.91,-74.5 205.91,-74.5 205.91,-55.25 248.91,-55.25 248.91,-74.5"/>
<text text-anchor="middle" x="227.41" y="-61" font-family="Helvetica,sans-Serif" font-size="10.00">vector</text>
</a>
</g>
</g>
<!-- Node1&#45;&gt;Node10 -->
<g id="edge33_Node000001_Node000010" class="edge">
<title>Node1&#45;&gt;Node10</title>
<g id="a_edge33_Node000001_Node000010"><a xlink:title=" ">
<path fill="none" stroke="#63b8ff" d="M471.73,-288.09C395.48,-283.82 276.33,-272.11 246.41,-240.25 206.68,-197.96 215.57,-122.03 222.71,-85.96"/>
<polygon fill="#63b8ff" stroke="#63b8ff" points="226.07,-86.97 224.76,-76.46 219.23,-85.49 226.07,-86.97"/>
</a>
</g>
</g>
<!-- Node11 -->
<g id="Node000011" class="node">
<title>Node11</title>
<g id="a_Node000011"><a xlink:title=" ">
<polygon fill="#e0e0e0" stroke="#999999" points="585.66,-74.5 535.16,-74.5 535.16,-55.25 585.66,-55.25 585.66,-74.5"/>
<text text-anchor="middle" x="560.41" y="-61" font-family="Helvetica,sans-Serif" font-size="10.00">memory</text>
</a>
</g>
</g>
<!-- Node1&#45;&gt;Node11 -->
<g id="edge32_Node000001_Node000011" class="edge">
<title>Node1&#45;&gt;Node11</title>
<g id="a_edge32_Node000001_Node000011"><a xlink:title=" ">
<path fill="none" stroke="#63b8ff" d="M547.86,-276.04C561.26,-256.52 583.81,-220.11 592.41,-185 601.12,-149.43 583.92,-108.22 571.53,-84.78"/>
<polygon fill="#63b8ff" stroke="#63b8ff" points="574.63,-83.16 566.71,-76.13 568.52,-86.57 574.63,-83.16"/>
</a>
</g>
</g>
<!-- Node17 -->
<g id="Node000017" class="node">
<title>Node17</title>
<g id="a_Node000017"><a xlink:href="indexitem_8h.html" target="_top" xlink:title=" ">
<polygon fill="white" stroke="#666666" points="583.28,-185 491.53,-185 491.53,-165.75 583.28,-165.75 583.28,-185"/>
<text text-anchor="middle" x="537.41" y="-171.5" font-family="Helvetica,sans-Serif" font-size="10.00">albert/indexitem.h</text>
</a>
</g>
</g>
<!-- Node1&#45;&gt;Node17 -->
<g id="edge27_Node000001_Node000017" class="edge">
<title>Node1&#45;&gt;Node17</title>
<g id="a_edge27_Node000001_Node000017"><a xlink:title=" ">
<path fill="none" stroke="#63b8ff" d="M537.41,-276.05C537.41,-256 537.41,-219.65 537.41,-196.82"/>
<polygon fill="#63b8ff" stroke="#63b8ff" points="540.91,-196.96 537.41,-186.96 533.91,-196.96 540.91,-196.96"/>
</a>
</g>
</g>
<!-- Node4 -->
<g id="Node000004" class="node">
<title>Node4</title>
<g id="a_Node000004"><a xlink:href="rankitem_8h.html" target="_top" xlink:title=" ">
<polygon fill="white" stroke="#666666" points="199.41,-185 111.41,-185 111.41,-165.75 199.41,-165.75 199.41,-185"/>
<text text-anchor="middle" x="155.41" y="-171.5" font-family="Helvetica,sans-Serif" font-size="10.00">albert/rankitem.h</text>
</a>
</g>
</g>
<!-- Node3&#45;&gt;Node4 -->
<g id="edge3_Node000003_Node000004" class="edge">
<title>Node3&#45;&gt;Node4</title>
<g id="a_edge3_Node000003_Node000004"><a xlink:title=" ">
<path fill="none" stroke="#63b8ff" d="M292.42,-220.59C265.4,-211.87 224.25,-198.59 194.1,-188.86"/>
<polygon fill="#63b8ff" stroke="#63b8ff" points="195.57,-185.66 184.98,-185.92 193.42,-192.32 195.57,-185.66"/>
</a>
</g>
</g>
<!-- Node3&#45;&gt;Node10 -->
<g id="edge26_Node000003_Node000010" class="edge">
<title>Node3&#45;&gt;Node10</title>
<g id="a_edge26_Node000003_Node000010"><a xlink:title=" ">
<path fill="none" stroke="#63b8ff" d="M315.41,-220.82C300.84,-195.17 258.18,-120.05 238.1,-84.69"/>
<polygon fill="#63b8ff" stroke="#63b8ff" points="241.16,-83.01 233.18,-76.04 235.08,-86.46 241.16,-83.01"/>
</a>
</g>
</g>
<!-- Node3&#45;&gt;Node11 -->
<g id="edge25_Node000003_Node000011" class="edge">
<title>Node3&#45;&gt;Node11</title>
<g id="a_edge25_Node000003_Node000011"><a xlink:title=" ">
<path fill="none" stroke="#63b8ff" d="M319.53,-220.65C318.72,-207.14 319.22,-181.49 332.41,-165.75 361.4,-131.13 385.91,-147.54 427.41,-129.75 464.45,-113.87 506.19,-93.39 532.87,-79.95"/>
<polygon fill="#63b8ff" stroke="#63b8ff" points="534.3,-83.15 541.64,-75.52 531.13,-76.91 534.3,-83.15"/>
</a>
</g>
</g>
<!-- Node12 -->
<g id="Node000012" class="node">
<title>Node12</title>
<g id="a_Node000012"><a xlink:href="triggerqueryhandler_8h.html" target="_top" xlink:title=" ">
<polygon fill="white" stroke="#666666" points="473.53,-185 341.28,-185 341.28,-165.75 473.53,-165.75 473.53,-185"/>
<text text-anchor="middle" x="407.41" y="-171.5" font-family="Helvetica,sans-Serif" font-size="10.00">albert/triggerqueryhandler.h</text>
</a>
</g>
</g>
<!-- Node3&#45;&gt;Node12 -->
<g id="edge14_Node000003_Node000012" class="edge">
<title>Node3&#45;&gt;Node12</title>
<g id="a_edge14_Node000003_Node000012"><a xlink:title=" ">
<path fill="none" stroke="#63b8ff" d="M335.17,-220.59C348.29,-212.56 367.73,-200.66 383.14,-191.23"/>
<polygon fill="#63b8ff" stroke="#63b8ff" points="384.59,-194.45 391.29,-186.24 380.93,-188.48 384.59,-194.45"/>
</a>
</g>
</g>
<!-- Node5 -->
<g id="Node000005" class="node">
<title>Node5</title>
<g id="a_Node000005"><a xlink:title=" ">
<polygon fill="#e0e0e0" stroke="#999999" points="252.78,-19.25 176.03,-19.25 176.03,0 252.78,0 252.78,-19.25"/>
<text text-anchor="middle" x="214.41" y="-5.75" font-family="Helvetica,sans-Serif" font-size="10.00">albert/export.h</text>
</a>
</g>
</g>
<!-- Node4&#45;&gt;Node5 -->
<g id="edge4_Node000004_Node000005" class="edge">
<title>Node4&#45;&gt;Node5</title>
<g id="a_edge4_Node000004_Node000005"><a xlink:title=" ">
<path fill="none" stroke="#63b8ff" d="M126.45,-165.35C73.43,-147.38 -30.31,-104.54 9.41,-55.25 28.56,-31.48 110.48,-19.71 164.79,-14.41"/>
<polygon fill="#63b8ff" stroke="#63b8ff" points="164.79,-17.93 174.42,-13.52 164.14,-10.96 164.79,-17.93"/>
</a>
</g>
</g>
<!-- Node6 -->
<g id="Node000006" class="node">
<title>Node6</title>
<g id="a_Node000006"><a xlink:href="item_8h.html" target="_top" xlink:title=" ">
<polygon fill="white" stroke="#666666" points="190.03,-129.75 120.78,-129.75 120.78,-110.5 190.03,-110.5 190.03,-129.75"/>
<text text-anchor="middle" x="155.41" y="-116.25" font-family="Helvetica,sans-Serif" font-size="10.00">albert/item.h</text>
</a>
</g>
</g>
<!-- Node4&#45;&gt;Node6 -->
<g id="edge5_Node000004_Node000006" class="edge">
<title>Node4&#45;&gt;Node6</title>
<g id="a_edge5_Node000004_Node000006"><a xlink:title=" ">
<path fill="none" stroke="#63b8ff" d="M155.41,-165.58C155.41,-159.07 155.41,-149.92 155.41,-141.62"/>
<polygon fill="#63b8ff" stroke="#63b8ff" points="158.91,-141.62 155.41,-131.62 151.91,-141.62 158.91,-141.62"/>
</a>
</g>
</g>
<!-- Node4&#45;&gt;Node11 -->
<g id="edge13_Node000004_Node000011" class="edge">
<title>Node4&#45;&gt;Node11</title>
<g id="a_edge13_Node000004_Node000011"><a xlink:title=" ">
<path fill="none" stroke="#63b8ff" d="M199.85,-169.18C248.05,-162.81 326.88,-150.27 392.41,-129.75 412.39,-123.49 415.98,-118.3 435.41,-110.5 464.89,-98.66 498.88,-86.63 523.96,-78.05"/>
<polygon fill="#63b8ff" stroke="#63b8ff" points="525.04,-81.38 533.38,-74.85 522.79,-74.75 525.04,-81.38"/>
</a>
</g>
</g>
<!-- Node6&#45;&gt;Node5 -->
<g id="edge11_Node000006_Node000005" class="edge">
<title>Node6&#45;&gt;Node5</title>
<g id="a_edge11_Node000006_Node000005"><a xlink:title=" ">
<path fill="none" stroke="#63b8ff" d="M120.47,-115.51C71.04,-109 -10.18,-92.38 19.41,-55.25 37.22,-32.9 112.7,-20.85 164.36,-15.09"/>
<polygon fill="#63b8ff" stroke="#63b8ff" points="164.56,-18.58 174.13,-14.04 163.81,-11.62 164.56,-18.58"/>
</a>
</g>
</g>
<!-- Node7 -->
<g id="Node000007" class="node">
<title>Node7</title>
<g id="a_Node000007"><a xlink:title=" ">
<polygon fill="#e0e0e0" stroke="#999999" points="188.16,-74.5 122.66,-74.5 122.66,-55.25 188.16,-55.25 188.16,-74.5"/>
<text text-anchor="middle" x="155.41" y="-61" font-family="Helvetica,sans-Serif" font-size="10.00">QStringList</text>
</a>
</g>
</g>
<!-- Node6&#45;&gt;Node7 -->
<g id="edge6_Node000006_Node000007" class="edge">
<title>Node6&#45;&gt;Node7</title>
<g id="a_edge6_Node000006_Node000007"><a xlink:title=" ">
<path fill="none" stroke="#63b8ff" d="M155.41,-110.33C155.41,-103.82 155.41,-94.67 155.41,-86.37"/>
<polygon fill="#63b8ff" stroke="#63b8ff" points="158.91,-86.37 155.41,-76.37 151.91,-86.37 158.91,-86.37"/>
</a>
</g>
</g>
<!-- Node8 -->
<g id="Node000008" class="node">
<title>Node8</title>
<g id="a_Node000008"><a xlink:href="action_8h.html" target="_top" xlink:title=" ">
<polygon fill="white" stroke="#666666" points="104.78,-74.5 28.03,-74.5 28.03,-55.25 104.78,-55.25 104.78,-74.5"/>
<text text-anchor="middle" x="66.41" y="-61" font-family="Helvetica,sans-Serif" font-size="10.00">albert/action.h</text>
</a>
</g>
</g>
<!-- Node6&#45;&gt;Node8 -->
<g id="edge7_Node000006_Node000008" class="edge">
<title>Node6&#45;&gt;Node8</title>
<g id="a_edge7_Node000006_Node000008"><a xlink:title=" ">
<path fill="none" stroke="#63b8ff" d="M140.31,-110.09C126.89,-102.06 107,-90.16 91.24,-80.73"/>
<polygon fill="#63b8ff" stroke="#63b8ff" points="93.26,-77.86 82.88,-75.73 89.66,-83.87 93.26,-77.86"/>
</a>
</g>
</g>
<!-- Node6&#45;&gt;Node10 -->
<g id="edge12_Node000006_Node000010" class="edge">
<title>Node6&#45;&gt;Node10</title>
<g id="a_edge12_Node000006_Node000010"><a xlink:title=" ">
<path fill="none" stroke="#63b8ff" d="M167.62,-110.09C178.24,-102.24 193.85,-90.7 206.45,-81.37"/>
<polygon fill="#63b8ff" stroke="#63b8ff" points="208.2,-84.44 214.16,-75.67 204.04,-78.81 208.2,-84.44"/>
</a>
</g>
</g>
<!-- Node8&#45;&gt;Node2 -->
<g id="edge8_Node000008_Node000002" class="edge">
<title>Node8&#45;&gt;Node2</title>
<g id="a_edge8_Node000008_Node000002"><a xlink:title=" ">
<path fill="none" stroke="#63b8ff" d="M105.09,-56.45C107.9,-56.01 110.69,-55.6 113.41,-55.25 315.69,-28.9 560.26,-16.2 651.13,-12.14"/>
<polygon fill="#63b8ff" stroke="#63b8ff" points="651.07,-15.64 660.91,-11.71 650.76,-8.65 651.07,-15.64"/>
</a>
</g>
</g>
<!-- Node8&#45;&gt;Node5 -->
<g id="edge9_Node000008_Node000005" class="edge">
<title>Node8&#45;&gt;Node5</title>
<g id="a_edge9_Node000008_Node000005"><a xlink:title=" ">
<path fill="none" stroke="#63b8ff" d="M91.52,-54.84C115.44,-46.24 151.69,-33.19 178.63,-23.5"/>
<polygon fill="#63b8ff" stroke="#63b8ff" points="179.53,-26.89 187.76,-20.21 177.16,-20.31 179.53,-26.89"/>
</a>
</g>
</g>
<!-- Node9 -->
<g id="Node000009" class="node">
<title>Node9</title>
<g id="a_Node000009"><a xlink:title=" ">
<polygon fill="#e0e0e0" stroke="#999999" points="95.41,-19.25 37.41,-19.25 37.41,0 95.41,0 95.41,-19.25"/>
<text text-anchor="middle" x="66.41" y="-5.75" font-family="Helvetica,sans-Serif" font-size="10.00">functional</text>
</a>
</g>
</g>
<!-- Node8&#45;&gt;Node9 -->
<g id="edge10_Node000008_Node000009" class="edge">
<title>Node8&#45;&gt;Node9</title>
<g id="a_edge10_Node000008_Node000009"><a xlink:title=" ">
<path fill="none" stroke="#63b8ff" d="M66.41,-55.08C66.41,-48.57 66.41,-39.42 66.41,-31.12"/>
<polygon fill="#63b8ff" stroke="#63b8ff" points="69.91,-31.12 66.41,-21.12 62.91,-31.12 69.91,-31.12"/>
</a>
</g>
</g>
<!-- Node13 -->
<g id="Node000013" class="node">
<title>Node13</title>
<g id="a_Node000013"><a xlink:href="extension_8h.html" target="_top" xlink:title=" ">
<polygon fill="white" stroke="#666666" points="733.28,-74.5 641.53,-74.5 641.53,-55.25 733.28,-55.25 733.28,-74.5"/>
<text text-anchor="middle" x="687.41" y="-61" font-family="Helvetica,sans-Serif" font-size="10.00">albert/extension.h</text>
</a>
</g>
</g>
<!-- Node12&#45;&gt;Node13 -->
<g id="edge15_Node000012_Node000013" class="edge">
<title>Node12&#45;&gt;Node13</title>
<g id="a_edge15_Node000012_Node000013"><a xlink:title=" ">
<path fill="none" stroke="#63b8ff" d="M430.8,-165.31C480.31,-146.12 595.89,-101.34 653.5,-79.01"/>
<polygon fill="#63b8ff" stroke="#63b8ff" points="654.42,-82.41 662.48,-75.54 651.89,-75.89 654.42,-82.41"/>
</a>
</g>
</g>
<!-- Node14 -->
<g id="Node000014" class="node">
<title>Node14</title>
<g id="a_Node000014"><a xlink:href="query_8h.html" target="_top" xlink:title=" ">
<polygon fill="white" stroke="#666666" points="383.28,-129.75 309.53,-129.75 309.53,-110.5 383.28,-110.5 383.28,-129.75"/>
<text text-anchor="middle" x="346.41" y="-116.25" font-family="Helvetica,sans-Serif" font-size="10.00">albert/query.h</text>
</a>
</g>
</g>
<!-- Node12&#45;&gt;Node14 -->
<g id="edge18_Node000012_Node000014" class="edge">
<title>Node12&#45;&gt;Node14</title>
<g id="a_edge18_Node000012_Node000014"><a xlink:title=" ">
<path fill="none" stroke="#63b8ff" d="M397.06,-165.34C388.33,-157.72 375.62,-146.62 365.11,-137.45"/>
<polygon fill="#63b8ff" stroke="#63b8ff" points="367.58,-134.96 357.74,-131.02 362.98,-140.23 367.58,-134.96"/>
</a>
</g>
</g>
<!-- Node13&#45;&gt;Node2 -->
<g id="edge16_Node000013_Node000002" class="edge">
<title>Node13&#45;&gt;Node2</title>
<g id="a_edge16_Node000013_Node000002"><a xlink:title=" ">
<path fill="none" stroke="#63b8ff" d="M687.41,-55.08C687.41,-48.57 687.41,-39.42 687.41,-31.12"/>
<polygon fill="#63b8ff" stroke="#63b8ff" points="690.91,-31.12 687.41,-21.12 683.91,-31.12 690.91,-31.12"/>
</a>
</g>
</g>
<!-- Node13&#45;&gt;Node5 -->
<g id="edge17_Node000013_Node000005" class="edge">
<title>Node13&#45;&gt;Node5</title>
<g id="a_edge17_Node000013_Node000005"><a xlink:title=" ">
<path fill="none" stroke="#63b8ff" d="M641.24,-57.07C636.57,-56.43 631.9,-55.82 627.41,-55.25 496.73,-38.8 342.32,-23.11 264.54,-15.47"/>
<polygon fill="#63b8ff" stroke="#63b8ff" points="264.98,-11.99 254.69,-14.5 264.3,-18.96 264.98,-11.99"/>
</a>
</g>
</g>
<!-- Node14&#45;&gt;Node2 -->
<g id="edge21_Node000014_Node000002" class="edge">
<title>Node14&#45;&gt;Node2</title>
<g id="a_edge21_Node000014_Node000002"><a xlink:title=" ">
<path fill="none" stroke="#63b8ff" d="M380.82,-110.03C409.93,-101.93 452.51,-89.12 488.41,-74.5 505.94,-67.36 508.76,-62.09 526.41,-55.25 568.39,-38.99 618.64,-26.04 651.71,-18.37"/>
<polygon fill="#63b8ff" stroke="#63b8ff" points="652.2,-21.85 661.17,-16.21 650.64,-15.02 652.2,-21.85"/>
</a>
</g>
</g>
<!-- Node14&#45;&gt;Node5 -->
<g id="edge22_Node000014_Node000005" class="edge">
<title>Node14&#45;&gt;Node5</title>
<g id="a_edge22_Node000014_Node000005"><a xlink:title=" ">
<path fill="none" stroke="#63b8ff" d="M335.61,-110.25C313.37,-91.97 262.2,-49.9 233.98,-26.71"/>
<polygon fill="#63b8ff" stroke="#63b8ff" points="236.48,-24.23 226.53,-20.59 232.03,-29.64 236.48,-24.23"/>
</a>
</g>
</g>
<!-- Node14&#45;&gt;Node10 -->
<g id="edge24_Node000014_Node000010" class="edge">
<title>Node14&#45;&gt;Node10</title>
<g id="a_edge24_Node000014_Node000010"><a xlink:title=" ">
<path fill="none" stroke="#63b8ff" d="M326.22,-110.09C307.5,-101.72 279.39,-89.13 257.92,-79.53"/>
<polygon fill="#63b8ff" stroke="#63b8ff" points="259.63,-76.46 249.08,-75.57 256.77,-82.85 259.63,-76.46"/>
</a>
</g>
</g>
<!-- Node14&#45;&gt;Node11 -->
<g id="edge23_Node000014_Node000011" class="edge">
<title>Node14&#45;&gt;Node11</title>
<g id="a_edge23_Node000014_Node000011"><a xlink:title=" ">
<path fill="none" stroke="#63b8ff" d="M382.71,-110.09C422,-100.32 484.31,-84.81 523.74,-75"/>
<polygon fill="#63b8ff" stroke="#63b8ff" points="524.38,-78.45 533.24,-72.64 522.69,-71.65 524.38,-78.45"/>
</a>
</g>
</g>
<!-- Node15 -->
<g id="Node000015" class="node">
<title>Node15</title>
<g id="a_Node000015"><a xlink:title=" ">
<polygon fill="#e0e0e0" stroke="#999999" points="408.91,-74.5 305.91,-74.5 305.91,-55.25 408.91,-55.25 408.91,-74.5"/>
<text text-anchor="middle" x="357.41" y="-61" font-family="Helvetica,sans-Serif" font-size="10.00">QAbstractListModel</text>
</a>
</g>
</g>
<!-- Node14&#45;&gt;Node15 -->
<g id="edge19_Node000014_Node000015" class="edge">
<title>Node14&#45;&gt;Node15</title>
<g id="a_edge19_Node000014_Node000015"><a xlink:title=" ">
<path fill="none" stroke="#63b8ff" d="M348.23,-110.33C349.59,-103.74 351.51,-94.46 353.24,-86.07"/>
<polygon fill="#63b8ff" stroke="#63b8ff" points="356.65,-86.84 355.25,-76.34 349.8,-85.43 356.65,-86.84"/>
</a>
</g>
</g>
<!-- Node16 -->
<g id="Node000016" class="node">
<title>Node16</title>
<g id="a_Node000016"><a xlink:title=" ">
<polygon fill="#e0e0e0" stroke="#999999" points="479.41,-74.5 427.41,-74.5 427.41,-55.25 479.41,-55.25 479.41,-74.5"/>
<text text-anchor="middle" x="453.41" y="-61" font-family="Helvetica,sans-Serif" font-size="10.00">QObject</text>
</a>
</g>
</g>
<!-- Node14&#45;&gt;Node16 -->
<g id="edge20_Node000014_Node000016" class="edge">
<title>Node14&#45;&gt;Node16</title>
<g id="a_edge20_Node000014_Node000016"><a xlink:title=" ">
<path fill="none" stroke="#63b8ff" d="M364.56,-110.09C381.09,-101.87 405.75,-89.59 424.91,-80.06"/>
<polygon fill="#63b8ff" stroke="#63b8ff" points="426.42,-83.22 433.81,-75.63 423.3,-76.95 426.42,-83.22"/>
</a>
</g>
</g>
<!-- Node17&#45;&gt;Node2 -->
<g id="edge28_Node000017_Node000002" class="edge">
<title>Node17&#45;&gt;Node2</title>
<g id="a_edge28_Node000017_Node000002"><a xlink:title=" ">
<path fill="none" stroke="#63b8ff" d="M583.58,-166.48C632.63,-155.37 707.78,-129.89 742.41,-74.5 753.84,-56.22 733.9,-37.83 714.91,-25.5"/>
<polygon fill="#63b8ff" stroke="#63b8ff" points="716.9,-22.62 706.53,-20.43 713.27,-28.6 716.9,-22.62"/>
</a>
</g>
</g>
<!-- Node17&#45;&gt;Node5 -->
<g id="edge29_Node000017_Node000005" class="edge">
<title>Node17&#45;&gt;Node5</title>
<g id="a_edge29_Node000017_Node000005"><a xlink:title=" ">
<path fill="none" stroke="#63b8ff" d="M548.06,-165.33C571.9,-144.02 625.19,-89.86 594.41,-55.25 572.83,-30.99 362.49,-17.75 264.36,-12.86"/>
<polygon fill="#63b8ff" stroke="#63b8ff" points="264.64,-9.37 254.48,-12.37 264.29,-16.36 264.64,-9.37"/>
</a>
</g>
</g>
<!-- Node17&#45;&gt;Node6 -->
<g id="edge30_Node000017_Node000006" class="edge">
<title>Node17&#45;&gt;Node6</title>
<g id="a_edge30_Node000017_Node000006"><a xlink:title=" ">
<path fill="none" stroke="#63b8ff" d="M491.21,-167.06C488.23,-166.61 485.28,-166.17 482.41,-165.75 382.34,-151.08 264.81,-135.42 201.47,-127.12"/>
<polygon fill="#63b8ff" stroke="#63b8ff" points="202.16,-123.68 191.79,-125.85 201.25,-130.62 202.16,-123.68"/>
</a>
</g>
</g>
<!-- Node17&#45;&gt;Node11 -->
<g id="edge31_Node000017_Node000011" class="edge">
<title>Node17&#45;&gt;Node11</title>
<g id="a_edge31_Node000017_Node000011"><a xlink:title=" ">
<path fill="none" stroke="#63b8ff" d="M539.29,-165.5C542.95,-148.25 551.09,-109.83 556.13,-86.06"/>
<polygon fill="#63b8ff" stroke="#63b8ff" points="559.54,-86.87 558.19,-76.36 552.69,-85.41 559.54,-86.87"/>
</a>
</g>
</g>
</g>
</svg>
