<?xml version="1.0" encoding="UTF-8" standalone="no"?>
<!DOCTYPE svg PUBLIC "-//W3C//DTD SVG 1.1//EN"
 "http://www.w3.org/Graphics/SVG/1.1/DTD/svg11.dtd">
<!-- Generated by graphviz version 9.0.0 (20230911.1827)
 -->
<!-- Title: workspace/albert/include/albert/indexqueryhandler.h Pages: 1 -->
<svg width="652pt" height="260pt"
 viewBox="0.00 0.00 652.00 259.50" xmlns="http://www.w3.org/2000/svg" xmlns:xlink="http://www.w3.org/1999/xlink">
<g id="graph0" class="graph" transform="scale(1 1) rotate(0) translate(4 255.5)">
<title>workspace/albert/include/albert/indexqueryhandler.h</title>
<!-- Node1 -->
<g id="Node000001" class="node">
<title>Node1</title>
<g id="a_Node000001"><a xlink:title=" ">
<polygon fill="#999999" stroke="#666666" points="219.88,-251.5 89.12,-251.5 89.12,-221 219.88,-221 219.88,-251.5"/>
<text text-anchor="start" x="97.12" y="-238" font-family="Helvetica,sans-Serif" font-size="10.00">workspace/albert/include</text>
<text text-anchor="middle" x="154.5" y="-226.75" font-family="Helvetica,sans-Serif" font-size="10.00">/albert/indexqueryhandler.h</text>
</a>
</g>
</g>
<!-- Node2 -->
<g id="Node000002" class="node">
<title>Node2</title>
<g id="a_Node000002"><a xlink:title=" ">
<polygon fill="#e0e0e0" stroke="#999999" points="49,-19.25 0,-19.25 0,0 49,0 49,-19.25"/>
<text text-anchor="middle" x="24.5" y="-5.75" font-family="Helvetica,sans-Serif" font-size="10.00">QString</text>
</a>
</g>
</g>
<!-- Node1&#45;&gt;Node2 -->
<g id="edge1_Node000001_Node000002" class="edge">
<title>Node1&#45;&gt;Node2</title>
<g id="a_edge1_Node000001_Node000002"><a xlink:title=" ">
<path fill="none" stroke="#63b8ff" d="M134.73,-220.67C123.28,-211.44 109.25,-198.7 99.5,-185 63.6,-134.54 39.99,-64.2 29.97,-30.36"/>
<polygon fill="#63b8ff" stroke="#63b8ff" points="33.44,-29.74 27.32,-21.1 26.71,-31.67 33.44,-29.74"/>
</a>
</g>
</g>
<!-- Node3 -->
<g id="Node000003" class="node">
<title>Node3</title>
<g id="a_Node000003"><a xlink:href="globalqueryhandler_8h.html" target="_top" xlink:title=" ">
<polygon fill="white" stroke="#666666" points="354.88,-185 224.12,-185 224.12,-165.75 354.88,-165.75 354.88,-185"/>
<text text-anchor="middle" x="289.5" y="-171.5" font-family="Helvetica,sans-Serif" font-size="10.00">albert/globalqueryhandler.h</text>
</a>
</g>
</g>
<!-- Node1&#45;&gt;Node3 -->
<g id="edge2_Node000001_Node000003" class="edge">
<title>Node1&#45;&gt;Node3</title>
<g id="a_edge2_Node000001_Node000003"><a xlink:title=" ">
<path fill="none" stroke="#63b8ff" d="M188.22,-220.55C209.77,-211.15 237.5,-199.05 258.5,-189.89"/>
<polygon fill="#63b8ff" stroke="#63b8ff" points="259.64,-193.21 267.41,-186.01 256.84,-186.8 259.64,-193.21"/>
</a>
</g>
</g>
<!-- Node9 -->
<g id="Node000009" class="node">
<title>Node9</title>
<g id="a_Node000009"><a xlink:title=" ">
<polygon fill="#e0e0e0" stroke="#999999" points="644,-19.25 601,-19.25 601,0 644,0 644,-19.25"/>
<text text-anchor="middle" x="622.5" y="-5.75" font-family="Helvetica,sans-Serif" font-size="10.00">vector</text>
</a>
</g>
</g>
<!-- Node1&#45;&gt;Node9 -->
<g id="edge30_Node000001_Node000009" class="edge">
<title>Node1&#45;&gt;Node9</title>
<g id="a_edge30_Node000001_Node000009"><a xlink:title=" ">
<path fill="none" stroke="#63b8ff" d="M220.08,-223.93C292.72,-209.5 411.68,-180.18 503.5,-129.75 540.1,-109.65 550.51,-104.56 579.5,-74.5 592.55,-60.97 604.24,-43.03 612.12,-29.61"/>
<polygon fill="#63b8ff" stroke="#63b8ff" points="615.17,-31.33 617.05,-20.91 609.08,-27.88 615.17,-31.33"/>
</a>
</g>
</g>
<!-- Node10 -->
<g id="Node000010" class="node">
<title>Node10</title>
<g id="a_Node000010"><a xlink:title=" ">
<polygon fill="#e0e0e0" stroke="#999999" points="136.75,-19.25 86.25,-19.25 86.25,0 136.75,0 136.75,-19.25"/>
<text text-anchor="middle" x="111.5" y="-5.75" font-family="Helvetica,sans-Serif" font-size="10.00">memory</text>
</a>
</g>
</g>
<!-- Node1&#45;&gt;Node10 -->
<g id="edge29_Node000001_Node000010" class="edge">
<title>Node1&#45;&gt;Node10</title>
<g id="a_edge29_Node000001_Node000010"><a xlink:title=" ">
<path fill="none" stroke="#63b8ff" d="M141.15,-220.55C124.67,-201.32 97.47,-165.82 86.5,-129.75 76.86,-98.07 76.87,-87.22 85.5,-55.25 88.01,-45.97 92.98,-36.63 97.91,-28.91"/>
<polygon fill="#63b8ff" stroke="#63b8ff" points="100.71,-31.02 103.51,-20.8 94.95,-27.04 100.71,-31.02"/>
</a>
</g>
</g>
<!-- Node16 -->
<g id="Node000016" class="node">
<title>Node16</title>
<g id="a_Node000016"><a xlink:href="indexitem_8h.html" target="_top" xlink:title=" ">
<polygon fill="white" stroke="#666666" points="200.38,-129.75 108.62,-129.75 108.62,-110.5 200.38,-110.5 200.38,-129.75"/>
<text text-anchor="middle" x="154.5" y="-116.25" font-family="Helvetica,sans-Serif" font-size="10.00">albert/indexitem.h</text>
</a>
</g>
</g>
<!-- Node1&#45;&gt;Node16 -->
<g id="edge24_Node000001_Node000016" class="edge">
<title>Node1&#45;&gt;Node16</title>
<g id="a_edge24_Node000001_Node000016"><a xlink:title=" ">
<path fill="none" stroke="#63b8ff" d="M154.5,-220.8C154.5,-200.75 154.5,-164.4 154.5,-141.57"/>
<polygon fill="#63b8ff" stroke="#63b8ff" points="158,-141.71 154.5,-131.71 151,-141.71 158,-141.71"/>
</a>
</g>
</g>
<!-- Node4 -->
<g id="Node000004" class="node">
<title>Node4</title>
<g id="a_Node000004"><a xlink:href="rankitem_8h.html" target="_top" xlink:title=" ">
<polygon fill="white" stroke="#666666" points="464.5,-129.75 376.5,-129.75 376.5,-110.5 464.5,-110.5 464.5,-129.75"/>
<text text-anchor="middle" x="420.5" y="-116.25" font-family="Helvetica,sans-Serif" font-size="10.00">albert/rankitem.h</text>
</a>
</g>
</g>
<!-- Node3&#45;&gt;Node4 -->
<g id="edge3_Node000003_Node000004" class="edge">
<title>Node3&#45;&gt;Node4</title>
<g id="a_edge3_Node000003_Node000004"><a xlink:title=" ">
<path fill="none" stroke="#63b8ff" d="M311.72,-165.34C332.52,-156.89 363.85,-144.15 387.55,-134.52"/>
<polygon fill="#63b8ff" stroke="#63b8ff" points="388.82,-137.78 396.77,-130.77 386.18,-131.3 388.82,-137.78"/>
</a>
</g>
</g>
<!-- Node3&#45;&gt;Node9 -->
<g id="edge23_Node000003_Node000009" class="edge">
<title>Node3&#45;&gt;Node9</title>
<g id="a_edge23_Node000003_Node000009"><a xlink:title=" ">
<path fill="none" stroke="#63b8ff" d="M355.32,-165.58C391.52,-159 436.47,-147.92 473.5,-129.75 527.76,-103.13 580.37,-53.93 606.12,-27.87"/>
<polygon fill="#63b8ff" stroke="#63b8ff" points="608.55,-30.39 613.01,-20.78 603.53,-25.51 608.55,-30.39"/>
</a>
</g>
</g>
<!-- Node3&#45;&gt;Node10 -->
<g id="edge22_Node000003_Node000010" class="edge">
<title>Node3&#45;&gt;Node10</title>
<g id="a_edge22_Node000003_Node000010"><a xlink:title=" ">
<path fill="none" stroke="#63b8ff" d="M223.91,-167.61C175.32,-161.09 114.97,-149.27 99.5,-129.75 76.78,-101.07 90.98,-55.5 102.07,-29.84"/>
<polygon fill="#63b8ff" stroke="#63b8ff" points="105.16,-31.5 106.17,-20.95 98.8,-28.57 105.16,-31.5"/>
</a>
</g>
</g>
<!-- Node11 -->
<g id="Node000011" class="node">
<title>Node11</title>
<g id="a_Node000011"><a xlink:href="triggerqueryhandler_8h.html" target="_top" xlink:title=" ">
<polygon fill="white" stroke="#666666" points="355.62,-129.75 223.38,-129.75 223.38,-110.5 355.62,-110.5 355.62,-129.75"/>
<text text-anchor="middle" x="289.5" y="-116.25" font-family="Helvetica,sans-Serif" font-size="10.00">albert/triggerqueryhandler.h</text>
</a>
</g>
</g>
<!-- Node3&#45;&gt;Node11 -->
<g id="edge11_Node000003_Node000011" class="edge">
<title>Node3&#45;&gt;Node11</title>
<g id="a_edge11_Node000003_Node000011"><a xlink:title=" ">
<path fill="none" stroke="#63b8ff" d="M289.5,-165.58C289.5,-159.07 289.5,-149.92 289.5,-141.62"/>
<polygon fill="#63b8ff" stroke="#63b8ff" points="293,-141.62 289.5,-131.62 286,-141.62 293,-141.62"/>
</a>
</g>
</g>
<!-- Node5 -->
<g id="Node000005" class="node">
<title>Node5</title>
<g id="a_Node000005"><a xlink:title=" ">
<polygon fill="#e0e0e0" stroke="#999999" points="422.88,-19.25 346.12,-19.25 346.12,0 422.88,0 422.88,-19.25"/>
<text text-anchor="middle" x="384.5" y="-5.75" font-family="Helvetica,sans-Serif" font-size="10.00">albert/export.h</text>
</a>
</g>
</g>
<!-- Node4&#45;&gt;Node5 -->
<g id="edge4_Node000004_Node000005" class="edge">
<title>Node4&#45;&gt;Node5</title>
<g id="a_edge4_Node000004_Node000005"><a xlink:title=" ">
<path fill="none" stroke="#63b8ff" d="M419.48,-110.24C417.86,-97.71 414.19,-74.25 407.5,-55.25 404.39,-46.42 399.85,-37.15 395.61,-29.35"/>
<polygon fill="#63b8ff" stroke="#63b8ff" points="398.76,-27.8 390.77,-20.84 392.67,-31.26 398.76,-27.8"/>
</a>
</g>
</g>
<!-- Node6 -->
<g id="Node000006" class="node">
<title>Node6</title>
<g id="a_Node000006"><a xlink:href="item_8h.html" target="_top" xlink:title=" ">
<polygon fill="white" stroke="#666666" points="529.12,-74.5 459.88,-74.5 459.88,-55.25 529.12,-55.25 529.12,-74.5"/>
<text text-anchor="middle" x="494.5" y="-61" font-family="Helvetica,sans-Serif" font-size="10.00">albert/item.h</text>
</a>
</g>
</g>
<!-- Node4&#45;&gt;Node6 -->
<g id="edge5_Node000004_Node000006" class="edge">
<title>Node4&#45;&gt;Node6</title>
<g id="a_edge5_Node000004_Node000006"><a xlink:title=" ">
<path fill="none" stroke="#63b8ff" d="M433.05,-110.09C443.96,-102.24 460,-90.7 472.96,-81.37"/>
<polygon fill="#63b8ff" stroke="#63b8ff" points="474.83,-84.34 480.9,-75.66 470.74,-78.66 474.83,-84.34"/>
</a>
</g>
</g>
<!-- Node4&#45;&gt;Node10 -->
<g id="edge10_Node000004_Node000010" class="edge">
<title>Node4&#45;&gt;Node10</title>
<g id="a_edge10_Node000004_Node000010"><a xlink:title=" ">
<path fill="none" stroke="#63b8ff" d="M387.64,-110.07C359.35,-101.91 317.65,-88.98 282.5,-74.5 265,-67.29 261.96,-62.56 244.5,-55.25 212.55,-41.88 175.07,-29.6 148.05,-21.32"/>
<polygon fill="#63b8ff" stroke="#63b8ff" points="149.19,-18.01 138.6,-18.46 147.16,-24.71 149.19,-18.01"/>
</a>
</g>
</g>
<!-- Node6&#45;&gt;Node5 -->
<g id="edge7_Node000006_Node000005" class="edge">
<title>Node6&#45;&gt;Node5</title>
<g id="a_edge7_Node000006_Node000005"><a xlink:title=" ">
<path fill="none" stroke="#63b8ff" d="M475.84,-54.84C458.77,-46.58 433.26,-34.23 413.53,-24.68"/>
<polygon fill="#63b8ff" stroke="#63b8ff" points="415.14,-21.57 404.61,-20.36 412.09,-27.87 415.14,-21.57"/>
</a>
</g>
</g>
<!-- Node7 -->
<g id="Node000007" class="node">
<title>Node7</title>
<g id="a_Node000007"><a xlink:title=" ">
<polygon fill="#e0e0e0" stroke="#999999" points="506.25,-19.25 440.75,-19.25 440.75,0 506.25,0 506.25,-19.25"/>
<text text-anchor="middle" x="473.5" y="-5.75" font-family="Helvetica,sans-Serif" font-size="10.00">QStringList</text>
</a>
</g>
</g>
<!-- Node6&#45;&gt;Node7 -->
<g id="edge6_Node000006_Node000007" class="edge">
<title>Node6&#45;&gt;Node7</title>
<g id="a_edge6_Node000006_Node000007"><a xlink:title=" ">
<path fill="none" stroke="#63b8ff" d="M491.03,-55.08C488.37,-48.34 484.6,-38.77 481.24,-30.24"/>
<polygon fill="#63b8ff" stroke="#63b8ff" points="484.52,-29.04 477.6,-21.02 478.01,-31.6 484.52,-29.04"/>
</a>
</g>
</g>
<!-- Node8 -->
<g id="Node000008" class="node">
<title>Node8</title>
<g id="a_Node000008"><a xlink:title=" ">
<polygon fill="#e0e0e0" stroke="#999999" points="582.5,-19.25 524.5,-19.25 524.5,0 582.5,0 582.5,-19.25"/>
<text text-anchor="middle" x="553.5" y="-5.75" font-family="Helvetica,sans-Serif" font-size="10.00">functional</text>
</a>
</g>
</g>
<!-- Node6&#45;&gt;Node8 -->
<g id="edge8_Node000006_Node000008" class="edge">
<title>Node6&#45;&gt;Node8</title>
<g id="a_edge8_Node000006_Node000008"><a xlink:title=" ">
<path fill="none" stroke="#63b8ff" d="M504.51,-54.84C512.87,-47.3 525,-36.35 535.1,-27.23"/>
<polygon fill="#63b8ff" stroke="#63b8ff" points="537.44,-29.84 542.52,-20.54 532.75,-24.64 537.44,-29.84"/>
</a>
</g>
</g>
<!-- Node6&#45;&gt;Node9 -->
<g id="edge9_Node000006_Node000009" class="edge">
<title>Node6&#45;&gt;Node9</title>
<g id="a_edge9_Node000006_Node000009"><a xlink:title=" ">
<path fill="none" stroke="#63b8ff" d="M516.21,-54.84C536.53,-46.39 567.15,-33.65 590.31,-24.02"/>
<polygon fill="#63b8ff" stroke="#63b8ff" points="591.39,-27.36 599.28,-20.28 588.71,-20.89 591.39,-27.36"/>
</a>
</g>
</g>
<!-- Node12 -->
<g id="Node000012" class="node">
<title>Node12</title>
<g id="a_Node000012"><a xlink:href="extension_8h.html" target="_top" xlink:title=" ">
<polygon fill="white" stroke="#666666" points="235.38,-74.5 143.62,-74.5 143.62,-55.25 235.38,-55.25 235.38,-74.5"/>
<text text-anchor="middle" x="189.5" y="-61" font-family="Helvetica,sans-Serif" font-size="10.00">albert/extension.h</text>
</a>
</g>
</g>
<!-- Node11&#45;&gt;Node12 -->
<g id="edge12_Node000011_Node000012" class="edge">
<title>Node11&#45;&gt;Node12</title>
<g id="a_edge12_Node000011_Node000012"><a xlink:title=" ">
<path fill="none" stroke="#63b8ff" d="M272.54,-110.09C257.24,-101.94 234.47,-89.82 216.64,-80.33"/>
<polygon fill="#63b8ff" stroke="#63b8ff" points="218.35,-77.27 207.88,-75.66 215.06,-83.45 218.35,-77.27"/>
</a>
</g>
</g>
<!-- Node13 -->
<g id="Node000013" class="node">
<title>Node13</title>
<g id="a_Node000013"><a xlink:href="query_8h.html" target="_top" xlink:title=" ">
<polygon fill="white" stroke="#666666" points="365.38,-74.5 291.62,-74.5 291.62,-55.25 365.38,-55.25 365.38,-74.5"/>
<text text-anchor="middle" x="328.5" y="-61" font-family="Helvetica,sans-Serif" font-size="10.00">albert/query.h</text>
</a>
</g>
</g>
<!-- Node11&#45;&gt;Node13 -->
<g id="edge15_Node000011_Node000013" class="edge">
<title>Node11&#45;&gt;Node13</title>
<g id="a_edge15_Node000011_Node000013"><a xlink:title=" ">
<path fill="none" stroke="#63b8ff" d="M295.94,-110.33C301.16,-103.21 308.69,-92.93 315.19,-84.05"/>
<polygon fill="#63b8ff" stroke="#63b8ff" points="317.94,-86.22 321.03,-76.08 312.29,-82.08 317.94,-86.22"/>
</a>
</g>
</g>
<!-- Node12&#45;&gt;Node2 -->
<g id="edge13_Node000012_Node000002" class="edge">
<title>Node12&#45;&gt;Node2</title>
<g id="a_edge13_Node000012_Node000002"><a xlink:title=" ">
<path fill="none" stroke="#63b8ff" d="M161.51,-54.84C133.5,-45.8 90.33,-31.87 59.95,-22.06"/>
<polygon fill="#63b8ff" stroke="#63b8ff" points="61.42,-18.86 50.82,-19.12 59.27,-25.52 61.42,-18.86"/>
</a>
</g>
</g>
<!-- Node12&#45;&gt;Node5 -->
<g id="edge14_Node000012_Node000005" class="edge">
<title>Node12&#45;&gt;Node5</title>
<g id="a_edge14_Node000012_Node000005"><a xlink:title=" ">
<path fill="none" stroke="#63b8ff" d="M222.58,-54.84C254.94,-46.01 304.42,-32.49 340.17,-22.73"/>
<polygon fill="#63b8ff" stroke="#63b8ff" points="341.07,-26.11 349.8,-20.1 339.23,-19.36 341.07,-26.11"/>
</a>
</g>
</g>
<!-- Node13&#45;&gt;Node2 -->
<g id="edge18_Node000013_Node000002" class="edge">
<title>Node13&#45;&gt;Node2</title>
<g id="a_edge18_Node000013_Node000002"><a xlink:title=" ">
<path fill="none" stroke="#63b8ff" d="M291.22,-57.35C232.34,-47.03 118.53,-27.1 60.47,-16.93"/>
<polygon fill="#63b8ff" stroke="#63b8ff" points="61.24,-13.51 50.79,-15.23 60.03,-20.4 61.24,-13.51"/>
</a>
</g>
</g>
<!-- Node13&#45;&gt;Node5 -->
<g id="edge19_Node000013_Node000005" class="edge">
<title>Node13&#45;&gt;Node5</title>
<g id="a_edge19_Node000013_Node000005"><a xlink:title=" ">
<path fill="none" stroke="#63b8ff" d="M338,-54.84C345.93,-47.3 357.45,-36.35 367.04,-27.23"/>
<polygon fill="#63b8ff" stroke="#63b8ff" points="369.21,-29.99 374.04,-20.57 364.39,-24.92 369.21,-29.99"/>
</a>
</g>
</g>
<!-- Node13&#45;&gt;Node9 -->
<g id="edge21_Node000013_Node000009" class="edge">
<title>Node13&#45;&gt;Node9</title>
<g id="a_edge21_Node000013_Node000009"><a xlink:title=" ">
<path fill="none" stroke="#63b8ff" d="M365.76,-58.79C414.79,-51.83 503.84,-38.27 589.34,-19.53"/>
<polygon fill="#63b8ff" stroke="#63b8ff" points="590.08,-22.95 599.08,-17.36 588.56,-16.11 590.08,-22.95"/>
</a>
</g>
</g>
<!-- Node13&#45;&gt;Node10 -->
<g id="edge20_Node000013_Node000010" class="edge">
<title>Node13&#45;&gt;Node10</title>
<g id="a_edge20_Node000013_Node000010"><a xlink:title=" ">
<path fill="none" stroke="#63b8ff" d="M291.32,-54.92C256.64,-46.54 203.17,-33.55 148.14,-19.89"/>
<polygon fill="#63b8ff" stroke="#63b8ff" points="149.13,-16.53 138.58,-17.51 147.44,-23.32 149.13,-16.53"/>
</a>
</g>
</g>
<!-- Node14 -->
<g id="Node000014" class="node">
<title>Node14</title>
<g id="a_Node000014"><a xlink:title=" ">
<polygon fill="#e0e0e0" stroke="#999999" points="258,-19.25 155,-19.25 155,0 258,0 258,-19.25"/>
<text text-anchor="middle" x="206.5" y="-5.75" font-family="Helvetica,sans-Serif" font-size="10.00">QAbstractListModel</text>
</a>
</g>
</g>
<!-- Node13&#45;&gt;Node14 -->
<g id="edge16_Node000013_Node000014" class="edge">
<title>Node13&#45;&gt;Node14</title>
<g id="a_edge16_Node000013_Node000014"><a xlink:title=" ">
<path fill="none" stroke="#63b8ff" d="M307.8,-54.84C288.61,-46.47 259.79,-33.88 237.78,-24.28"/>
<polygon fill="#63b8ff" stroke="#63b8ff" points="239.25,-21.1 228.68,-20.31 236.45,-27.52 239.25,-21.1"/>
</a>
</g>
</g>
<!-- Node15 -->
<g id="Node000015" class="node">
<title>Node15</title>
<g id="a_Node000015"><a xlink:title=" ">
<polygon fill="#e0e0e0" stroke="#999999" points="328.5,-19.25 276.5,-19.25 276.5,0 328.5,0 328.5,-19.25"/>
<text text-anchor="middle" x="302.5" y="-5.75" font-family="Helvetica,sans-Serif" font-size="10.00">QObject</text>
</a>
</g>
</g>
<!-- Node13&#45;&gt;Node15 -->
<g id="edge17_Node000013_Node000015" class="edge">
<title>Node13&#45;&gt;Node15</title>
<g id="a_edge17_Node000013_Node000015"><a xlink:title=" ">
<path fill="none" stroke="#63b8ff" d="M324.21,-55.08C320.88,-48.26 316.14,-38.56 311.94,-29.95"/>
<polygon fill="#63b8ff" stroke="#63b8ff" points="315.08,-28.42 307.55,-20.97 308.79,-31.49 315.08,-28.42"/>
</a>
</g>
</g>
<!-- Node16&#45;&gt;Node2 -->
<g id="edge25_Node000016_Node000002" class="edge">
<title>Node16&#45;&gt;Node2</title>
<g id="a_edge25_Node000016_Node000002"><a xlink:title=" ">
<path fill="none" stroke="#63b8ff" d="M143.86,-110.25C121.96,-91.97 71.56,-49.9 43.77,-26.71"/>
<polygon fill="#63b8ff" stroke="#63b8ff" points="46.37,-24.32 36.45,-20.6 41.88,-29.69 46.37,-24.32"/>
</a>
</g>
</g>
<!-- Node16&#45;&gt;Node5 -->
<g id="edge26_Node000016_Node000005" class="edge">
<title>Node16&#45;&gt;Node5</title>
<g id="a_edge26_Node000016_Node000005"><a xlink:title=" ">
<path fill="none" stroke="#63b8ff" d="M200.86,-111.11C263.61,-100.06 368.48,-80.79 374.5,-74.5 385.43,-63.07 387.36,-44.88 386.88,-30.83"/>
<polygon fill="#63b8ff" stroke="#63b8ff" points="390.37,-30.59 386.08,-20.91 383.4,-31.16 390.37,-30.59"/>
</a>
</g>
</g>
<!-- Node16&#45;&gt;Node6 -->
<g id="edge27_Node000016_Node000006" class="edge">
<title>Node16&#45;&gt;Node6</title>
<g id="a_edge27_Node000016_Node000006"><a xlink:title=" ">
<path fill="none" stroke="#63b8ff" d="M200.71,-111.89C265.8,-101.69 383.76,-83.22 448.65,-73.06"/>
<polygon fill="#63b8ff" stroke="#63b8ff" points="448.91,-76.56 458.25,-71.55 447.83,-69.64 448.91,-76.56"/>
</a>
</g>
</g>
<!-- Node16&#45;&gt;Node10 -->
<g id="edge28_Node000016_Node000010" class="edge">
<title>Node16&#45;&gt;Node10</title>
<g id="a_edge28_Node000016_Node000010"><a xlink:title=" ">
<path fill="none" stroke="#63b8ff" d="M150.32,-110.32C146.12,-101.38 139.58,-87.1 134.5,-74.5 128.55,-59.76 122.49,-42.82 118.08,-30.09"/>
<polygon fill="#63b8ff" stroke="#63b8ff" points="121.46,-29.14 114.91,-20.81 114.83,-31.41 121.46,-29.14"/>
</a>
</g>
</g>
</g>
</svg>
