<?xml version="1.0" encoding="UTF-8" standalone="no"?>
<!DOCTYPE svg PUBLIC "-//W3C//DTD SVG 1.1//EN"
 "http://www.w3.org/Graphics/SVG/1.1/DTD/svg11.dtd">
<!-- Generated by graphviz version 9.0.0 (20230911.1827)
 -->
<!-- Title: workspace/albert/include/albert/indexitem.h Pages: 1 -->
<svg width="319pt" height="149pt"
 viewBox="0.00 0.00 319.00 149.00" xmlns="http://www.w3.org/2000/svg" xmlns:xlink="http://www.w3.org/1999/xlink">
<g id="graph0" class="graph" transform="scale(1 1) rotate(0) translate(4 145)">
<title>workspace/albert/include/albert/indexitem.h</title>
<!-- Node1 -->
<g id="Node000001" class="node">
<title>Node1</title>
<g id="a_Node000001"><a xlink:title=" ">
<polygon fill="#999999" stroke="#666666" points="170.5,-141 46.5,-141 46.5,-110.5 170.5,-110.5 170.5,-141"/>
<text text-anchor="start" x="54.5" y="-127.5" font-family="Helvetica,sans-Serif" font-size="10.00">workspace/albert/include</text>
<text text-anchor="middle" x="108.5" y="-116.25" font-family="Helvetica,sans-Serif" font-size="10.00">/albert/indexitem.h</text>
</a>
</g>
</g>
<!-- Node2 -->
<g id="Node000002" class="node">
<title>Node2</title>
<g id="a_Node000002"><a xlink:title=" ">
<polygon fill="#e0e0e0" stroke="#999999" points="49,-74.5 0,-74.5 0,-55.25 49,-55.25 49,-74.5"/>
<text text-anchor="middle" x="24.5" y="-61" font-family="Helvetica,sans-Serif" font-size="10.00">QString</text>
</a>
</g>
</g>
<!-- Node1&#45;&gt;Node2 -->
<g id="edge1_Node000001_Node000002" class="edge">
<title>Node1&#45;&gt;Node2</title>
<g id="a_edge1_Node000001_Node000002"><a xlink:title=" ">
<path fill="none" stroke="#63b8ff" d="M87.74,-110.2C75.32,-101.49 59.53,-90.43 46.84,-81.53"/>
<polygon fill="#63b8ff" stroke="#63b8ff" points="48.89,-78.69 38.69,-75.82 44.87,-84.43 48.89,-78.69"/>
</a>
</g>
</g>
<!-- Node3 -->
<g id="Node000003" class="node">
<title>Node3</title>
<g id="a_Node000003"><a xlink:title=" ">
<polygon fill="#e0e0e0" stroke="#999999" points="89.88,-19.25 13.12,-19.25 13.12,0 89.88,0 89.88,-19.25"/>
<text text-anchor="middle" x="51.5" y="-5.75" font-family="Helvetica,sans-Serif" font-size="10.00">albert/export.h</text>
</a>
</g>
</g>
<!-- Node1&#45;&gt;Node3 -->
<g id="edge2_Node000001_Node000003" class="edge">
<title>Node1&#45;&gt;Node3</title>
<g id="a_edge2_Node000001_Node000003"><a xlink:title=" ">
<path fill="none" stroke="#63b8ff" d="M101.28,-110.3C91.08,-89.87 72.43,-52.54 61.08,-29.81"/>
<polygon fill="#63b8ff" stroke="#63b8ff" points="64.31,-28.43 56.71,-21.05 58.04,-31.56 64.31,-28.43"/>
</a>
</g>
</g>
<!-- Node4 -->
<g id="Node000004" class="node">
<title>Node4</title>
<g id="a_Node000004"><a xlink:href="item_8h.html" target="_top" xlink:title=" ">
<polygon fill="white" stroke="#666666" points="175.12,-74.5 105.88,-74.5 105.88,-55.25 175.12,-55.25 175.12,-74.5"/>
<text text-anchor="middle" x="140.5" y="-61" font-family="Helvetica,sans-Serif" font-size="10.00">albert/item.h</text>
</a>
</g>
</g>
<!-- Node1&#45;&gt;Node4 -->
<g id="edge3_Node000001_Node000004" class="edge">
<title>Node1&#45;&gt;Node4</title>
<g id="a_edge3_Node000001_Node000004"><a xlink:title=" ">
<path fill="none" stroke="#63b8ff" d="M116.41,-110.2C120.53,-102.61 125.63,-93.24 130.07,-85.07"/>
<polygon fill="#63b8ff" stroke="#63b8ff" points="133.14,-86.74 134.84,-76.28 126.99,-83.4 133.14,-86.74"/>
</a>
</g>
</g>
<!-- Node8 -->
<g id="Node000008" class="node">
<title>Node8</title>
<g id="a_Node000008"><a xlink:title=" ">
<polygon fill="#e0e0e0" stroke="#999999" points="243.75,-74.5 193.25,-74.5 193.25,-55.25 243.75,-55.25 243.75,-74.5"/>
<text text-anchor="middle" x="218.5" y="-61" font-family="Helvetica,sans-Serif" font-size="10.00">memory</text>
</a>
</g>
</g>
<!-- Node1&#45;&gt;Node8 -->
<g id="edge8_Node000001_Node000008" class="edge">
<title>Node1&#45;&gt;Node8</title>
<g id="a_edge8_Node000001_Node000008"><a xlink:title=" ">
<path fill="none" stroke="#63b8ff" d="M135.97,-110.05C153.05,-100.91 174.89,-89.22 191.81,-80.16"/>
<polygon fill="#63b8ff" stroke="#63b8ff" points="193.13,-83.42 200.3,-75.62 189.83,-77.25 193.13,-83.42"/>
</a>
</g>
</g>
<!-- Node4&#45;&gt;Node3 -->
<g id="edge5_Node000004_Node000003" class="edge">
<title>Node4&#45;&gt;Node3</title>
<g id="a_edge5_Node000004_Node000003"><a xlink:title=" ">
<path fill="none" stroke="#63b8ff" d="M125.4,-54.84C111.98,-46.81 92.09,-34.91 76.33,-25.48"/>
<polygon fill="#63b8ff" stroke="#63b8ff" points="78.35,-22.61 67.97,-20.48 74.75,-28.62 78.35,-22.61"/>
</a>
</g>
</g>
<!-- Node5 -->
<g id="Node000005" class="node">
<title>Node5</title>
<g id="a_Node000005"><a xlink:title=" ">
<polygon fill="#e0e0e0" stroke="#999999" points="173.25,-19.25 107.75,-19.25 107.75,0 173.25,0 173.25,-19.25"/>
<text text-anchor="middle" x="140.5" y="-5.75" font-family="Helvetica,sans-Serif" font-size="10.00">QStringList</text>
</a>
</g>
</g>
<!-- Node4&#45;&gt;Node5 -->
<g id="edge4_Node000004_Node000005" class="edge">
<title>Node4&#45;&gt;Node5</title>
<g id="a_edge4_Node000004_Node000005"><a xlink:title=" ">
<path fill="none" stroke="#63b8ff" d="M140.5,-55.08C140.5,-48.57 140.5,-39.42 140.5,-31.12"/>
<polygon fill="#63b8ff" stroke="#63b8ff" points="144,-31.12 140.5,-21.12 137,-31.12 144,-31.12"/>
</a>
</g>
</g>
<!-- Node6 -->
<g id="Node000006" class="node">
<title>Node6</title>
<g id="a_Node000006"><a xlink:title=" ">
<polygon fill="#e0e0e0" stroke="#999999" points="249.5,-19.25 191.5,-19.25 191.5,0 249.5,0 249.5,-19.25"/>
<text text-anchor="middle" x="220.5" y="-5.75" font-family="Helvetica,sans-Serif" font-size="10.00">functional</text>
</a>
</g>
</g>
<!-- Node4&#45;&gt;Node6 -->
<g id="edge6_Node000004_Node000006" class="edge">
<title>Node4&#45;&gt;Node6</title>
<g id="a_edge6_Node000004_Node000006"><a xlink:title=" ">
<path fill="none" stroke="#63b8ff" d="M154.07,-54.84C165.91,-46.96 183.34,-35.36 197.37,-26.02"/>
<polygon fill="#63b8ff" stroke="#63b8ff" points="199.22,-29 205.6,-20.54 195.34,-23.17 199.22,-29"/>
</a>
</g>
</g>
<!-- Node7 -->
<g id="Node000007" class="node">
<title>Node7</title>
<g id="a_Node000007"><a xlink:title=" ">
<polygon fill="#e0e0e0" stroke="#999999" points="311,-19.25 268,-19.25 268,0 311,0 311,-19.25"/>
<text text-anchor="middle" x="289.5" y="-5.75" font-family="Helvetica,sans-Serif" font-size="10.00">vector</text>
</a>
</g>
</g>
<!-- Node4&#45;&gt;Node7 -->
<g id="edge7_Node000004_Node000007" class="edge">
<title>Node4&#45;&gt;Node7</title>
<g id="a_edge7_Node000004_Node000007"><a xlink:title=" ">
<path fill="none" stroke="#63b8ff" d="M165.78,-54.84C190.88,-45.87 229.48,-32.08 256.88,-22.28"/>
<polygon fill="#63b8ff" stroke="#63b8ff" points="257.84,-25.66 266.08,-19 255.48,-19.06 257.84,-25.66"/>
</a>
</g>
</g>
</g>
</svg>
