<?xml version="1.0" encoding="UTF-8" standalone="no"?>
<!DOCTYPE svg PUBLIC "-//W3C//DTD SVG 1.1//EN"
 "http://www.w3.org/Graphics/SVG/1.1/DTD/svg11.dtd">
<!-- Generated by graphviz version 9.0.0 (20230911.1827)
 -->
<!-- Title: workspace/albert/include/albert/indexqueryhandler.h Pages: 1 -->
<svg width="759pt" height="370pt"
 viewBox="0.00 0.00 759.00 370.00" xmlns="http://www.w3.org/2000/svg" xmlns:xlink="http://www.w3.org/1999/xlink">
<g id="graph0" class="graph" transform="scale(1 1) rotate(0) translate(4 366)">
<title>workspace/albert/include/albert/indexqueryhandler.h</title>
<!-- Node1 -->
<g id="Node000001" class="node">
<title>Node1</title>
<g id="a_Node000001"><a xlink:title=" ">
<polygon fill="#999999" stroke="#666666" points="396.38,-362 265.62,-362 265.62,-331.5 396.38,-331.5 396.38,-362"/>
<text text-anchor="start" x="273.62" y="-348.5" font-family="Helvetica,sans-Serif" font-size="10.00">workspace/albert/include</text>
<text text-anchor="middle" x="331" y="-337.25" font-family="Helvetica,sans-Serif" font-size="10.00">/albert/indexqueryhandler.h</text>
</a>
</g>
</g>
<!-- Node2 -->
<g id="Node000002" class="node">
<title>Node2</title>
<g id="a_Node000002"><a xlink:title=" ">
<polygon fill="#e0e0e0" stroke="#999999" points="124.5,-19.25 75.5,-19.25 75.5,0 124.5,0 124.5,-19.25"/>
<text text-anchor="middle" x="100" y="-5.75" font-family="Helvetica,sans-Serif" font-size="10.00">QString</text>
</a>
</g>
</g>
<!-- Node1&#45;&gt;Node2 -->
<g id="edge1_Node000001_Node000002" class="edge">
<title>Node1&#45;&gt;Node2</title>
<g id="a_edge1_Node000001_Node000002"><a xlink:title=" ">
<path fill="none" stroke="#63b8ff" d="M265.33,-341.69C212.33,-336.36 136.98,-324.02 77,-295.5 36.84,-276.4 0,-276.09 0,-231.62 0,-231.62 0,-231.62 0,-119.12 0,-89.51 0.42,-78.31 19,-55.25 30.7,-40.72 48.47,-30.19 64.38,-23.02"/>
<polygon fill="#63b8ff" stroke="#63b8ff" points="65.73,-26.25 73.61,-19.17 63.03,-19.79 65.73,-26.25"/>
</a>
</g>
</g>
<!-- Node3 -->
<g id="Node000003" class="node">
<title>Node3</title>
<g id="a_Node000003"><a xlink:href="globalqueryhandler_8h.html" target="_top" xlink:title=" ">
<polygon fill="white" stroke="#666666" points="396.38,-295.5 265.62,-295.5 265.62,-276.25 396.38,-276.25 396.38,-295.5"/>
<text text-anchor="middle" x="331" y="-282" font-family="Helvetica,sans-Serif" font-size="10.00">albert/globalqueryhandler.h</text>
</a>
</g>
</g>
<!-- Node1&#45;&gt;Node3 -->
<g id="edge2_Node000001_Node000003" class="edge">
<title>Node1&#45;&gt;Node3</title>
<g id="a_edge2_Node000001_Node000003"><a xlink:title=" ">
<path fill="none" stroke="#63b8ff" d="M331,-331.2C331,-323.96 331,-315.09 331,-307.19"/>
<polygon fill="#63b8ff" stroke="#63b8ff" points="334.5,-307.46 331,-297.46 327.5,-307.46 334.5,-307.46"/>
</a>
</g>
</g>
<!-- Node10 -->
<g id="Node000010" class="node">
<title>Node10</title>
<g id="a_Node000010"><a xlink:title=" ">
<polygon fill="#e0e0e0" stroke="#999999" points="685.25,-74.5 634.75,-74.5 634.75,-55.25 685.25,-55.25 685.25,-74.5"/>
<text text-anchor="middle" x="660" y="-61" font-family="Helvetica,sans-Serif" font-size="10.00">memory</text>
</a>
</g>
</g>
<!-- Node1&#45;&gt;Node10 -->
<g id="edge32_Node000001_Node000010" class="edge">
<title>Node1&#45;&gt;Node10</title>
<g id="a_edge32_Node000001_Node000010"><a xlink:title=" ">
<path fill="none" stroke="#63b8ff" d="M396.62,-341.52C514.75,-332.09 751,-304.16 751,-231.62 751,-231.62 751,-231.62 751,-174.38 751,-133.21 712.07,-99.48 685.14,-81.07"/>
<polygon fill="#63b8ff" stroke="#63b8ff" points="687.4,-78.37 677.12,-75.82 683.57,-84.22 687.4,-78.37"/>
</a>
</g>
</g>
<!-- Node11 -->
<g id="Node000011" class="node">
<title>Node11</title>
<g id="a_Node000011"><a xlink:title=" ">
<polygon fill="#e0e0e0" stroke="#999999" points="71.5,-74.5 28.5,-74.5 28.5,-55.25 71.5,-55.25 71.5,-74.5"/>
<text text-anchor="middle" x="50" y="-61" font-family="Helvetica,sans-Serif" font-size="10.00">vector</text>
</a>
</g>
</g>
<!-- Node1&#45;&gt;Node11 -->
<g id="edge33_Node000001_Node000011" class="edge">
<title>Node1&#45;&gt;Node11</title>
<g id="a_edge33_Node000001_Node000011"><a xlink:title=" ">
<path fill="none" stroke="#63b8ff" d="M265.25,-333.8C178.86,-316.2 38,-280.07 38,-231.62 38,-231.62 38,-231.62 38,-174.38 38,-143.47 42.87,-107.91 46.4,-86.17"/>
<polygon fill="#63b8ff" stroke="#63b8ff" points="49.85,-86.78 48.08,-76.33 42.95,-85.6 49.85,-86.78"/>
</a>
</g>
</g>
<!-- Node16 -->
<g id="Node000016" class="node">
<title>Node16</title>
<g id="a_Node000016"><a xlink:href="indexitem_8h.html" target="_top" xlink:title=" ">
<polygon fill="white" stroke="#666666" points="721.88,-185 630.12,-185 630.12,-165.75 721.88,-165.75 721.88,-185"/>
<text text-anchor="middle" x="676" y="-171.5" font-family="Helvetica,sans-Serif" font-size="10.00">albert/indexitem.h</text>
</a>
</g>
</g>
<!-- Node1&#45;&gt;Node16 -->
<g id="edge27_Node000001_Node000016" class="edge">
<title>Node1&#45;&gt;Node16</title>
<g id="a_edge27_Node000001_Node000016"><a xlink:title=" ">
<path fill="none" stroke="#63b8ff" d="M395.51,-331.01C456,-315.15 547.19,-285.89 616,-240.25 634.75,-227.82 651.86,-208.43 662.97,-194.28"/>
<polygon fill="#63b8ff" stroke="#63b8ff" points="665.48,-196.76 668.73,-186.67 659.9,-192.53 665.48,-196.76"/>
</a>
</g>
</g>
<!-- Node4 -->
<g id="Node000004" class="node">
<title>Node4</title>
<g id="a_Node000004"><a xlink:href="rankedqueryhandler_8h.html" target="_top" xlink:title=" ">
<polygon fill="white" stroke="#666666" points="341.25,-240.25 206.75,-240.25 206.75,-221 341.25,-221 341.25,-240.25"/>
<text text-anchor="middle" x="274" y="-226.75" font-family="Helvetica,sans-Serif" font-size="10.00">albert/rankedqueryhandler.h</text>
</a>
</g>
</g>
<!-- Node3&#45;&gt;Node4 -->
<g id="edge3_Node000003_Node000004" class="edge">
<title>Node3&#45;&gt;Node4</title>
<g id="a_edge3_Node000003_Node000004"><a xlink:title=" ">
<path fill="none" stroke="#63b8ff" d="M321.33,-275.84C313.26,-268.3 301.53,-257.35 291.78,-248.23"/>
<polygon fill="#63b8ff" stroke="#63b8ff" points="294.33,-245.83 284.63,-241.56 289.55,-250.94 294.33,-245.83"/>
</a>
</g>
</g>
<!-- Node3&#45;&gt;Node10 -->
<g id="edge25_Node000003_Node000010" class="edge">
<title>Node3&#45;&gt;Node10</title>
<g id="a_edge25_Node000003_Node000010"><a xlink:title=" ">
<path fill="none" stroke="#63b8ff" d="M352.47,-275.81C400.8,-254.79 520.51,-199.13 605,-129.75 621.56,-116.15 637.18,-97.2 647.5,-83.48"/>
<polygon fill="#63b8ff" stroke="#63b8ff" points="650.06,-85.92 653.14,-75.79 644.41,-81.79 650.06,-85.92"/>
</a>
</g>
</g>
<!-- Node3&#45;&gt;Node11 -->
<g id="edge26_Node000003_Node000011" class="edge">
<title>Node3&#45;&gt;Node11</title>
<g id="a_edge26_Node000003_Node000011"><a xlink:title=" ">
<path fill="none" stroke="#63b8ff" d="M287.4,-275.79C260.27,-268.84 225.44,-257.46 198,-240.25 132.77,-199.33 81.43,-120.33 60.38,-84.44"/>
<polygon fill="#63b8ff" stroke="#63b8ff" points="63.6,-83.02 55.58,-76.08 57.52,-86.5 63.6,-83.02"/>
</a>
</g>
</g>
<!-- Node12 -->
<g id="Node000012" class="node">
<title>Node12</title>
<g id="a_Node000012"><a xlink:href="rankitem_8h.html" target="_top" xlink:title=" ">
<polygon fill="white" stroke="#666666" points="443,-185 355,-185 355,-165.75 443,-165.75 443,-185"/>
<text text-anchor="middle" x="399" y="-171.5" font-family="Helvetica,sans-Serif" font-size="10.00">albert/rankitem.h</text>
</a>
</g>
</g>
<!-- Node3&#45;&gt;Node12 -->
<g id="edge24_Node000003_Node000012" class="edge">
<title>Node3&#45;&gt;Node12</title>
<g id="a_edge24_Node000003_Node000012"><a xlink:title=" ">
<path fill="none" stroke="#63b8ff" d="M336.56,-276C347.62,-258.35 372.57,-218.55 387.36,-194.95"/>
<polygon fill="#63b8ff" stroke="#63b8ff" points="390.21,-196.99 392.55,-186.66 384.28,-193.27 390.21,-196.99"/>
</a>
</g>
</g>
<!-- Node5 -->
<g id="Node000005" class="node">
<title>Node5</title>
<g id="a_Node000005"><a xlink:href="generatorqueryhandler_8h.html" target="_top" xlink:title=" ">
<polygon fill="white" stroke="#666666" points="336.88,-185 191.12,-185 191.12,-165.75 336.88,-165.75 336.88,-185"/>
<text text-anchor="middle" x="264" y="-171.5" font-family="Helvetica,sans-Serif" font-size="10.00">albert/generatorqueryhandler.h</text>
</a>
</g>
</g>
<!-- Node4&#45;&gt;Node5 -->
<g id="edge4_Node000004_Node000005" class="edge">
<title>Node4&#45;&gt;Node5</title>
<g id="a_edge4_Node000004_Node000005"><a xlink:title=" ">
<path fill="none" stroke="#63b8ff" d="M272.35,-220.83C271.11,-214.24 269.37,-204.96 267.79,-196.57"/>
<polygon fill="#63b8ff" stroke="#63b8ff" points="271.25,-196.03 265.97,-186.85 264.37,-197.32 271.25,-196.03"/>
</a>
</g>
</g>
<!-- Node4&#45;&gt;Node11 -->
<g id="edge23_Node000004_Node000011" class="edge">
<title>Node4&#45;&gt;Node11</title>
<g id="a_edge23_Node000004_Node000011"><a xlink:title=" ">
<path fill="none" stroke="#63b8ff" d="M250.72,-220.5C231.5,-212.47 203.94,-199.78 182,-185 135.94,-153.97 89.43,-107.72 65.85,-82.97"/>
<polygon fill="#63b8ff" stroke="#63b8ff" points="68.68,-80.87 59.28,-75.99 63.58,-85.67 68.68,-80.87"/>
</a>
</g>
</g>
<!-- Node4&#45;&gt;Node12 -->
<g id="edge15_Node000004_Node000012" class="edge">
<title>Node4&#45;&gt;Node12</title>
<g id="a_edge15_Node000004_Node000012"><a xlink:title=" ">
<path fill="none" stroke="#63b8ff" d="M295.2,-220.59C314.96,-212.18 344.67,-199.52 367.25,-189.9"/>
<polygon fill="#63b8ff" stroke="#63b8ff" points="368.47,-193.18 376.3,-186.05 365.73,-186.74 368.47,-193.18"/>
</a>
</g>
</g>
<!-- Node6 -->
<g id="Node000006" class="node">
<title>Node6</title>
<g id="a_Node000006"><a xlink:href="queryhandler_8h.html" target="_top" xlink:title=" ">
<polygon fill="white" stroke="#666666" points="532.62,-129.75 427.38,-129.75 427.38,-110.5 532.62,-110.5 532.62,-129.75"/>
<text text-anchor="middle" x="480" y="-116.25" font-family="Helvetica,sans-Serif" font-size="10.00">albert/queryhandler.h</text>
</a>
</g>
</g>
<!-- Node5&#45;&gt;Node6 -->
<g id="edge5_Node000005_Node000006" class="edge">
<title>Node5&#45;&gt;Node6</title>
<g id="a_edge5_Node000005_Node000006"><a xlink:title=" ">
<path fill="none" stroke="#63b8ff" d="M300.64,-165.34C336.87,-156.41 392.49,-142.7 432.18,-132.91"/>
<polygon fill="#63b8ff" stroke="#63b8ff" points="432.84,-136.36 441.71,-130.56 431.16,-129.56 432.84,-136.36"/>
</a>
</g>
</g>
<!-- Node5&#45;&gt;Node10 -->
<g id="edge13_Node000005_Node000010" class="edge">
<title>Node5&#45;&gt;Node10</title>
<g id="a_edge13_Node000005_Node000010"><a xlink:title=" ">
<path fill="none" stroke="#63b8ff" d="M337.08,-165.73C406.41,-156.97 505.3,-142.88 542,-129.75 557.99,-124.03 560.15,-118.73 575,-110.5 593.9,-100.03 615.45,-88.73 632.12,-80.11"/>
<polygon fill="#63b8ff" stroke="#63b8ff" points="633.66,-83.26 640.95,-75.57 630.46,-77.03 633.66,-83.26"/>
</a>
</g>
</g>
<!-- Node5&#45;&gt;Node11 -->
<g id="edge14_Node000005_Node000011" class="edge">
<title>Node5&#45;&gt;Node11</title>
<g id="a_edge14_Node000005_Node000011"><a xlink:title=" ">
<path fill="none" stroke="#63b8ff" d="M246.12,-165.31C208.91,-146.44 122.87,-102.82 78.15,-80.15"/>
<polygon fill="#63b8ff" stroke="#63b8ff" points="79.83,-77.07 69.33,-75.67 76.66,-83.32 79.83,-77.07"/>
</a>
</g>
</g>
<!-- Node7 -->
<g id="Node000007" class="node">
<title>Node7</title>
<g id="a_Node000007"><a xlink:title=" ">
<polygon fill="#e0e0e0" stroke="#999999" points="516.38,-19.25 439.62,-19.25 439.62,0 516.38,0 516.38,-19.25"/>
<text text-anchor="middle" x="478" y="-5.75" font-family="Helvetica,sans-Serif" font-size="10.00">albert/export.h</text>
</a>
</g>
</g>
<!-- Node6&#45;&gt;Node7 -->
<g id="edge6_Node000006_Node000007" class="edge">
<title>Node6&#45;&gt;Node7</title>
<g id="a_edge6_Node000006_Node000007"><a xlink:title=" ">
<path fill="none" stroke="#63b8ff" d="M479.84,-110.25C479.52,-93 478.81,-54.58 478.37,-30.81"/>
<polygon fill="#63b8ff" stroke="#63b8ff" points="481.88,-31.07 478.19,-21.14 474.88,-31.2 481.88,-31.07"/>
</a>
</g>
</g>
<!-- Node8 -->
<g id="Node000008" class="node">
<title>Node8</title>
<g id="a_Node000008"><a xlink:href="extension_8h.html" target="_top" xlink:title=" ">
<polygon fill="white" stroke="#666666" points="616.88,-74.5 525.12,-74.5 525.12,-55.25 616.88,-55.25 616.88,-74.5"/>
<text text-anchor="middle" x="571" y="-61" font-family="Helvetica,sans-Serif" font-size="10.00">albert/extension.h</text>
</a>
</g>
</g>
<!-- Node6&#45;&gt;Node8 -->
<g id="edge7_Node000006_Node000008" class="edge">
<title>Node6&#45;&gt;Node8</title>
<g id="a_edge7_Node000006_Node000008"><a xlink:title=" ">
<path fill="none" stroke="#63b8ff" d="M495.44,-110.09C509.16,-102.06 529.5,-90.16 545.62,-80.73"/>
<polygon fill="#63b8ff" stroke="#63b8ff" points="547.32,-83.79 554.18,-75.72 543.78,-77.75 547.32,-83.79"/>
</a>
</g>
</g>
<!-- Node9 -->
<g id="Node000009" class="node">
<title>Node9</title>
<g id="a_Node000009"><a xlink:href="querycontext_8h.html" target="_top" xlink:title=" ">
<polygon fill="white" stroke="#666666" points="392.62,-74.5 287.38,-74.5 287.38,-55.25 392.62,-55.25 392.62,-74.5"/>
<text text-anchor="middle" x="340" y="-61" font-family="Helvetica,sans-Serif" font-size="10.00">albert/querycontext.h</text>
</a>
</g>
</g>
<!-- Node6&#45;&gt;Node9 -->
<g id="edge9_Node000006_Node000009" class="edge">
<title>Node6&#45;&gt;Node9</title>
<g id="a_edge9_Node000006_Node000009"><a xlink:title=" ">
<path fill="none" stroke="#63b8ff" d="M456.25,-110.09C433.83,-101.56 399.94,-88.67 374.53,-79.01"/>
<polygon fill="#63b8ff" stroke="#63b8ff" points="375.87,-75.77 365.28,-75.49 373.38,-82.32 375.87,-75.77"/>
</a>
</g>
</g>
<!-- Node6&#45;&gt;Node10 -->
<g id="edge12_Node000006_Node000010" class="edge">
<title>Node6&#45;&gt;Node10</title>
<g id="a_edge12_Node000006_Node000010"><a xlink:title=" ">
<path fill="none" stroke="#63b8ff" d="M510.53,-110.09C541.8,-100.84 590.41,-86.46 623.65,-76.63"/>
<polygon fill="#63b8ff" stroke="#63b8ff" points="624.23,-80.11 632.83,-73.91 622.25,-73.39 624.23,-80.11"/>
</a>
</g>
</g>
<!-- Node8&#45;&gt;Node7 -->
<g id="edge8_Node000008_Node000007" class="edge">
<title>Node8&#45;&gt;Node7</title>
<g id="a_edge8_Node000008_Node000007"><a xlink:title=" ">
<path fill="none" stroke="#63b8ff" d="M555.22,-54.84C541.06,-46.73 520.02,-34.68 503.47,-25.21"/>
<polygon fill="#63b8ff" stroke="#63b8ff" points="505.58,-22.39 495.17,-20.45 502.11,-28.46 505.58,-22.39"/>
</a>
</g>
</g>
<!-- Node9&#45;&gt;Node2 -->
<g id="edge10_Node000009_Node000002" class="edge">
<title>Node9&#45;&gt;Node2</title>
<g id="a_edge10_Node000009_Node000002"><a xlink:title=" ">
<path fill="none" stroke="#63b8ff" d="M299.02,-54.78C253.27,-44.63 179.95,-28.36 136.23,-18.66"/>
<polygon fill="#63b8ff" stroke="#63b8ff" points="137,-15.25 126.48,-16.5 135.48,-22.08 137,-15.25"/>
</a>
</g>
</g>
<!-- Node9&#45;&gt;Node7 -->
<g id="edge11_Node000009_Node000007" class="edge">
<title>Node9&#45;&gt;Node7</title>
<g id="a_edge11_Node000009_Node000007"><a xlink:title=" ">
<path fill="none" stroke="#63b8ff" d="M363.41,-54.84C385.52,-46.31 418.92,-33.42 443.97,-23.76"/>
<polygon fill="#63b8ff" stroke="#63b8ff" points="444.99,-27.11 453.06,-20.25 442.47,-20.58 444.99,-27.11"/>
</a>
</g>
</g>
<!-- Node12&#45;&gt;Node7 -->
<g id="edge16_Node000012_Node000007" class="edge">
<title>Node12&#45;&gt;Node7</title>
<g id="a_edge16_Node000012_Node000007"><a xlink:title=" ">
<path fill="none" stroke="#63b8ff" d="M400.9,-165.45C403.75,-152.86 409.7,-129.35 418,-110.5 431.21,-80.51 451.73,-48.48 465.02,-29"/>
<polygon fill="#63b8ff" stroke="#63b8ff" points="467.88,-31.02 470.7,-20.81 462.12,-27.03 467.88,-31.02"/>
</a>
</g>
</g>
<!-- Node12&#45;&gt;Node10 -->
<g id="edge22_Node000012_Node000010" class="edge">
<title>Node12&#45;&gt;Node10</title>
<g id="a_edge22_Node000012_Node000010"><a xlink:title=" ">
<path fill="none" stroke="#63b8ff" d="M443.33,-168.13C479.96,-161.82 532.63,-150.03 575,-129.75 600.61,-117.49 626.13,-96.91 642.42,-82.42"/>
<polygon fill="#63b8ff" stroke="#63b8ff" points="644.73,-85.06 649.76,-75.73 640.02,-79.88 644.73,-85.06"/>
</a>
</g>
</g>
<!-- Node13 -->
<g id="Node000013" class="node">
<title>Node13</title>
<g id="a_Node000013"><a xlink:href="item_8h.html" target="_top" xlink:title=" ">
<polygon fill="white" stroke="#666666" points="329.62,-129.75 260.38,-129.75 260.38,-110.5 329.62,-110.5 329.62,-129.75"/>
<text text-anchor="middle" x="295" y="-116.25" font-family="Helvetica,sans-Serif" font-size="10.00">albert/item.h</text>
</a>
</g>
</g>
<!-- Node12&#45;&gt;Node13 -->
<g id="edge17_Node000012_Node000013" class="edge">
<title>Node12&#45;&gt;Node13</title>
<g id="a_edge17_Node000012_Node000013"><a xlink:title=" ">
<path fill="none" stroke="#63b8ff" d="M381.36,-165.34C365.37,-157.16 341.54,-144.96 322.96,-135.44"/>
<polygon fill="#63b8ff" stroke="#63b8ff" points="324.57,-132.33 314.08,-130.89 321.38,-138.57 324.57,-132.33"/>
</a>
</g>
</g>
<!-- Node13&#45;&gt;Node7 -->
<g id="edge19_Node000013_Node000007" class="edge">
<title>Node13&#45;&gt;Node7</title>
<g id="a_edge19_Node000013_Node000007"><a xlink:title=" ">
<path fill="none" stroke="#63b8ff" d="M322.93,-110.11C345.2,-102.32 376.73,-89.89 402,-74.5 424.19,-60.99 446.59,-41.25 461.27,-27.29"/>
<polygon fill="#63b8ff" stroke="#63b8ff" points="463.51,-29.99 468.25,-20.52 458.64,-24.97 463.51,-29.99"/>
</a>
</g>
</g>
<!-- Node13&#45;&gt;Node11 -->
<g id="edge21_Node000013_Node000011" class="edge">
<title>Node13&#45;&gt;Node11</title>
<g id="a_edge21_Node000013_Node000011"><a xlink:title=" ">
<path fill="none" stroke="#63b8ff" d="M259.9,-111.5C212.67,-101.23 129.28,-83.11 83.1,-73.07"/>
<polygon fill="#63b8ff" stroke="#63b8ff" points="83.93,-69.67 73.42,-70.96 82.44,-76.51 83.93,-69.67"/>
</a>
</g>
</g>
<!-- Node14 -->
<g id="Node000014" class="node">
<title>Node14</title>
<g id="a_Node000014"><a xlink:title=" ">
<polygon fill="#e0e0e0" stroke="#999999" points="269.75,-74.5 204.25,-74.5 204.25,-55.25 269.75,-55.25 269.75,-74.5"/>
<text text-anchor="middle" x="237" y="-61" font-family="Helvetica,sans-Serif" font-size="10.00">QStringList</text>
</a>
</g>
</g>
<!-- Node13&#45;&gt;Node14 -->
<g id="edge18_Node000013_Node000014" class="edge">
<title>Node13&#45;&gt;Node14</title>
<g id="a_edge18_Node000013_Node000014"><a xlink:title=" ">
<path fill="none" stroke="#63b8ff" d="M285.16,-110.09C276.95,-102.55 265.02,-91.6 255.09,-82.48"/>
<polygon fill="#63b8ff" stroke="#63b8ff" points="257.54,-79.98 247.81,-75.8 252.81,-85.14 257.54,-79.98"/>
</a>
</g>
</g>
<!-- Node15 -->
<g id="Node000015" class="node">
<title>Node15</title>
<g id="a_Node000015"><a xlink:title=" ">
<polygon fill="#e0e0e0" stroke="#999999" points="186,-74.5 128,-74.5 128,-55.25 186,-55.25 186,-74.5"/>
<text text-anchor="middle" x="157" y="-61" font-family="Helvetica,sans-Serif" font-size="10.00">functional</text>
</a>
</g>
</g>
<!-- Node13&#45;&gt;Node15 -->
<g id="edge20_Node000013_Node000015" class="edge">
<title>Node13&#45;&gt;Node15</title>
<g id="a_edge20_Node000013_Node000015"><a xlink:title=" ">
<path fill="none" stroke="#63b8ff" d="M271.59,-110.09C249.48,-101.56 216.08,-88.67 191.03,-79.01"/>
<polygon fill="#63b8ff" stroke="#63b8ff" points="192.53,-75.83 181.94,-75.5 190.01,-82.36 192.53,-75.83"/>
</a>
</g>
</g>
<!-- Node16&#45;&gt;Node2 -->
<g id="edge28_Node000016_Node000002" class="edge">
<title>Node16&#45;&gt;Node2</title>
<g id="a_edge28_Node000016_Node000002"><a xlink:title=" ">
<path fill="none" stroke="#63b8ff" d="M629.63,-173.9C550.67,-172.12 385.59,-164.19 251,-129.75 220.19,-121.87 140.25,-98.16 119,-74.5 108.23,-62.51 103.55,-44.64 101.53,-30.86"/>
<polygon fill="#63b8ff" stroke="#63b8ff" points="105.03,-30.7 100.48,-21.13 98.07,-31.45 105.03,-30.7"/>
</a>
</g>
</g>
<!-- Node16&#45;&gt;Node7 -->
<g id="edge29_Node000016_Node000007" class="edge">
<title>Node16&#45;&gt;Node7</title>
<g id="a_edge29_Node000016_Node000007"><a xlink:title=" ">
<path fill="none" stroke="#63b8ff" d="M681.44,-165.4C693.78,-143.79 720.81,-88.17 694,-55.25 673.47,-30.04 585.14,-18.64 527.99,-13.82"/>
<polygon fill="#63b8ff" stroke="#63b8ff" points="528.41,-10.35 518.17,-13.04 527.85,-17.32 528.41,-10.35"/>
</a>
</g>
</g>
<!-- Node16&#45;&gt;Node10 -->
<g id="edge31_Node000016_Node000010" class="edge">
<title>Node16&#45;&gt;Node10</title>
<g id="a_edge31_Node000016_Node000010"><a xlink:title=" ">
<path fill="none" stroke="#63b8ff" d="M674.69,-165.5C672.15,-148.25 666.48,-109.83 662.98,-86.06"/>
<polygon fill="#63b8ff" stroke="#63b8ff" points="666.47,-85.76 661.55,-76.37 659.54,-86.78 666.47,-85.76"/>
</a>
</g>
</g>
<!-- Node16&#45;&gt;Node13 -->
<g id="edge30_Node000016_Node000013" class="edge">
<title>Node16&#45;&gt;Node13</title>
<g id="a_edge30_Node000016_Node000013"><a xlink:title=" ">
<path fill="none" stroke="#63b8ff" d="M629.66,-167.9C556.34,-157.65 414.4,-137.81 341.18,-127.58"/>
<polygon fill="#63b8ff" stroke="#63b8ff" points="341.93,-124.15 331.54,-126.23 340.96,-131.08 341.93,-124.15"/>
</a>
</g>
</g>
</g>
</svg>
