<?xml version="1.0" encoding="UTF-8" standalone="no"?>
<!DOCTYPE svg PUBLIC "-//W3C//DTD SVG 1.1//EN"
 "http://www.w3.org/Graphics/SVG/1.1/DTD/svg11.dtd">
<!-- Generated by graphviz version 9.0.0 (20230911.1827)
 -->
<!-- Title: workspace/albert/include/albert/indexitem.h Pages: 1 -->
<svg width="426pt" height="204pt"
 viewBox="0.00 0.00 425.75 204.25" xmlns="http://www.w3.org/2000/svg" xmlns:xlink="http://www.w3.org/1999/xlink">
<g id="graph0" class="graph" transform="scale(1 1) rotate(0) translate(4 200.25)">
<title>workspace/albert/include/albert/indexitem.h</title>
<!-- Node1 -->
<g id="Node000001" class="node">
<title>Node1</title>
<g id="a_Node000001"><a xlink:title=" ">
<polygon fill="#999999" stroke="#666666" points="357.5,-196.25 233.5,-196.25 233.5,-165.75 357.5,-165.75 357.5,-196.25"/>
<text text-anchor="start" x="241.5" y="-182.75" font-family="Helvetica,sans-Serif" font-size="10.00">workspace/albert/include</text>
<text text-anchor="middle" x="295.5" y="-171.5" font-family="Helvetica,sans-Serif" font-size="10.00">/albert/indexitem.h</text>
</a>
</g>
</g>
<!-- Node2 -->
<g id="Node000002" class="node">
<title>Node2</title>
<g id="a_Node000002"><a xlink:title=" ">
<polygon fill="#e0e0e0" stroke="#999999" points="49,-19.25 0,-19.25 0,0 49,0 49,-19.25"/>
<text text-anchor="middle" x="24.5" y="-5.75" font-family="Helvetica,sans-Serif" font-size="10.00">QString</text>
</a>
</g>
</g>
<!-- Node1&#45;&gt;Node2 -->
<g id="edge1_Node000001_Node000002" class="edge">
<title>Node1&#45;&gt;Node2</title>
<g id="a_edge1_Node000001_Node000002"><a xlink:title=" ">
<path fill="none" stroke="#63b8ff" d="M233.09,-169.54C175.96,-156.77 93.02,-129.64 43.5,-74.5 32.73,-62.51 28.05,-44.64 26.03,-30.86"/>
<polygon fill="#63b8ff" stroke="#63b8ff" points="29.53,-30.7 24.98,-21.13 22.57,-31.45 29.53,-30.7"/>
</a>
</g>
</g>
<!-- Node3 -->
<g id="Node000003" class="node">
<title>Node3</title>
<g id="a_Node000003"><a xlink:title=" ">
<polygon fill="#e0e0e0" stroke="#999999" points="339.88,-19.25 263.12,-19.25 263.12,0 339.88,0 339.88,-19.25"/>
<text text-anchor="middle" x="301.5" y="-5.75" font-family="Helvetica,sans-Serif" font-size="10.00">albert/export.h</text>
</a>
</g>
</g>
<!-- Node1&#45;&gt;Node3 -->
<g id="edge2_Node000001_Node000003" class="edge">
<title>Node1&#45;&gt;Node3</title>
<g id="a_edge2_Node000001_Node000003"><a xlink:title=" ">
<path fill="none" stroke="#63b8ff" d="M296.09,-165.32C296.9,-144.94 298.38,-106.92 299.5,-74.5 300,-60.02 300.51,-43.68 300.89,-31.16"/>
<polygon fill="#63b8ff" stroke="#63b8ff" points="304.39,-31.34 301.19,-21.24 297.39,-31.13 304.39,-31.34"/>
</a>
</g>
</g>
<!-- Node4 -->
<g id="Node000004" class="node">
<title>Node4</title>
<g id="a_Node000004"><a xlink:href="item_8h.html" target="_top" xlink:title=" ">
<polygon fill="white" stroke="#666666" points="286.12,-129.75 216.88,-129.75 216.88,-110.5 286.12,-110.5 286.12,-129.75"/>
<text text-anchor="middle" x="251.5" y="-116.25" font-family="Helvetica,sans-Serif" font-size="10.00">albert/item.h</text>
</a>
</g>
</g>
<!-- Node1&#45;&gt;Node4 -->
<g id="edge3_Node000001_Node000004" class="edge">
<title>Node1&#45;&gt;Node4</title>
<g id="a_edge3_Node000001_Node000004"><a xlink:title=" ">
<path fill="none" stroke="#63b8ff" d="M284.62,-165.45C278.7,-157.52 271.31,-147.63 265.02,-139.21"/>
<polygon fill="#63b8ff" stroke="#63b8ff" points="267.98,-137.33 259.19,-131.41 262.37,-141.52 267.98,-137.33"/>
</a>
</g>
</g>
<!-- Node9 -->
<g id="Node000009" class="node">
<title>Node9</title>
<g id="a_Node000009"><a xlink:title=" ">
<polygon fill="#e0e0e0" stroke="#999999" points="417.75,-129.75 367.25,-129.75 367.25,-110.5 417.75,-110.5 417.75,-129.75"/>
<text text-anchor="middle" x="392.5" y="-116.25" font-family="Helvetica,sans-Serif" font-size="10.00">memory</text>
</a>
</g>
</g>
<!-- Node1&#45;&gt;Node9 -->
<g id="edge11_Node000001_Node000009" class="edge">
<title>Node1&#45;&gt;Node9</title>
<g id="a_edge11_Node000001_Node000009"><a xlink:title=" ">
<path fill="none" stroke="#63b8ff" d="M319.48,-165.45C334.25,-156.48 353.13,-145.02 368,-136"/>
<polygon fill="#63b8ff" stroke="#63b8ff" points="369.52,-139.17 376.25,-130.99 365.89,-133.18 369.52,-139.17"/>
</a>
</g>
</g>
<!-- Node4&#45;&gt;Node3 -->
<g id="edge9_Node000004_Node000003" class="edge">
<title>Node4&#45;&gt;Node3</title>
<g id="a_edge9_Node000004_Node000003"><a xlink:title=" ">
<path fill="none" stroke="#63b8ff" d="M259.08,-110.09C266.01,-101.43 276.12,-87.76 282.5,-74.5 289.26,-60.43 294.17,-43.46 297.31,-30.54"/>
<polygon fill="#63b8ff" stroke="#63b8ff" points="300.65,-31.63 299.44,-21.11 293.82,-30.09 300.65,-31.63"/>
</a>
</g>
</g>
<!-- Node5 -->
<g id="Node000005" class="node">
<title>Node5</title>
<g id="a_Node000005"><a xlink:title=" ">
<polygon fill="#e0e0e0" stroke="#999999" points="212.25,-74.5 146.75,-74.5 146.75,-55.25 212.25,-55.25 212.25,-74.5"/>
<text text-anchor="middle" x="179.5" y="-61" font-family="Helvetica,sans-Serif" font-size="10.00">QStringList</text>
</a>
</g>
</g>
<!-- Node4&#45;&gt;Node5 -->
<g id="edge4_Node000004_Node000005" class="edge">
<title>Node4&#45;&gt;Node5</title>
<g id="a_edge4_Node000004_Node000005"><a xlink:title=" ">
<path fill="none" stroke="#63b8ff" d="M239.29,-110.09C228.67,-102.24 213.06,-90.7 200.46,-81.37"/>
<polygon fill="#63b8ff" stroke="#63b8ff" points="202.87,-78.81 192.75,-75.67 198.71,-84.44 202.87,-78.81"/>
</a>
</g>
</g>
<!-- Node6 -->
<g id="Node000006" class="node">
<title>Node6</title>
<g id="a_Node000006"><a xlink:href="action_8h.html" target="_top" xlink:title=" ">
<polygon fill="white" stroke="#666666" points="128.88,-74.5 52.12,-74.5 52.12,-55.25 128.88,-55.25 128.88,-74.5"/>
<text text-anchor="middle" x="90.5" y="-61" font-family="Helvetica,sans-Serif" font-size="10.00">albert/action.h</text>
</a>
</g>
</g>
<!-- Node4&#45;&gt;Node6 -->
<g id="edge5_Node000004_Node000006" class="edge">
<title>Node4&#45;&gt;Node6</title>
<g id="a_edge5_Node000004_Node000006"><a xlink:title=" ">
<path fill="none" stroke="#63b8ff" d="M224.19,-110.09C197.94,-101.41 158.02,-88.21 128.64,-78.49"/>
<polygon fill="#63b8ff" stroke="#63b8ff" points="129.98,-75.24 119.38,-75.43 127.78,-81.89 129.98,-75.24"/>
</a>
</g>
</g>
<!-- Node8 -->
<g id="Node000008" class="node">
<title>Node8</title>
<g id="a_Node000008"><a xlink:title=" ">
<polygon fill="#e0e0e0" stroke="#999999" points="273,-74.5 230,-74.5 230,-55.25 273,-55.25 273,-74.5"/>
<text text-anchor="middle" x="251.5" y="-61" font-family="Helvetica,sans-Serif" font-size="10.00">vector</text>
</a>
</g>
</g>
<!-- Node4&#45;&gt;Node8 -->
<g id="edge10_Node000004_Node000008" class="edge">
<title>Node4&#45;&gt;Node8</title>
<g id="a_edge10_Node000004_Node000008"><a xlink:title=" ">
<path fill="none" stroke="#63b8ff" d="M251.5,-110.33C251.5,-103.82 251.5,-94.67 251.5,-86.37"/>
<polygon fill="#63b8ff" stroke="#63b8ff" points="255,-86.37 251.5,-76.37 248,-86.37 255,-86.37"/>
</a>
</g>
</g>
<!-- Node6&#45;&gt;Node2 -->
<g id="edge6_Node000006_Node000002" class="edge">
<title>Node6&#45;&gt;Node2</title>
<g id="a_edge6_Node000006_Node000002"><a xlink:title=" ">
<path fill="none" stroke="#63b8ff" d="M79.3,-54.84C69.76,-47.15 55.83,-35.9 44.39,-26.68"/>
<polygon fill="#63b8ff" stroke="#63b8ff" points="46.69,-24.03 36.71,-20.48 42.29,-29.48 46.69,-24.03"/>
</a>
</g>
</g>
<!-- Node6&#45;&gt;Node3 -->
<g id="edge7_Node000006_Node000003" class="edge">
<title>Node6&#45;&gt;Node3</title>
<g id="a_edge7_Node000006_Node000003"><a xlink:title=" ">
<path fill="none" stroke="#63b8ff" d="M126.29,-54.84C161.61,-45.93 215.78,-32.26 254.54,-22.48"/>
<polygon fill="#63b8ff" stroke="#63b8ff" points="255.22,-25.91 264.06,-20.07 253.51,-19.13 255.22,-25.91"/>
</a>
</g>
</g>
<!-- Node7 -->
<g id="Node000007" class="node">
<title>Node7</title>
<g id="a_Node000007"><a xlink:title=" ">
<polygon fill="#e0e0e0" stroke="#999999" points="125.5,-19.25 67.5,-19.25 67.5,0 125.5,0 125.5,-19.25"/>
<text text-anchor="middle" x="96.5" y="-5.75" font-family="Helvetica,sans-Serif" font-size="10.00">functional</text>
</a>
</g>
</g>
<!-- Node6&#45;&gt;Node7 -->
<g id="edge8_Node000006_Node000007" class="edge">
<title>Node6&#45;&gt;Node7</title>
<g id="a_edge8_Node000006_Node000007"><a xlink:title=" ">
<path fill="none" stroke="#63b8ff" d="M91.49,-55.08C92.23,-48.49 93.28,-39.21 94.22,-30.82"/>
<polygon fill="#63b8ff" stroke="#63b8ff" points="97.68,-31.44 95.32,-21.11 90.72,-30.66 97.68,-31.44"/>
</a>
</g>
</g>
</g>
</svg>
