<?xml version="1.0" encoding="UTF-8" standalone="no"?>
<!DOCTYPE svg PUBLIC "-//W3C//DTD SVG 1.1//EN"
 "http://www.w3.org/Graphics/SVG/1.1/DTD/svg11.dtd">
<!-- Generated by graphviz version 9.0.0 (20230911.1827)
 -->
<!-- Title: Graphical Class Hierarchy Pages: 1 -->
<svg width="617pt" height="360pt"
 viewBox="0.00 0.00 617.25 360.25" xmlns="http://www.w3.org/2000/svg" xmlns:xlink="http://www.w3.org/1999/xlink">
<g id="graph0" class="graph" transform="scale(1 1) rotate(0) translate(4 356.25)">
<title>Graphical Class Hierarchy</title>
<!-- Node0 -->
<g id="Node000000" class="node">
<title>Node0</title>
<g id="a_Node000000"><a xlink:href="classalbert_1_1Extension.html" target="_top" xlink:title="Abstract extension class.">
<polygon fill="white" stroke="#666666" points="97.75,-93.25 11.25,-93.25 11.25,-74 97.75,-74 97.75,-93.25"/>
<text text-anchor="middle" x="54.5" y="-79.75" font-family="Helvetica,sans-Serif" font-size="10.00">albert::Extension</text>
</a>
</g>
</g>
<!-- Node1 -->
<g id="Node000001" class="node">
<title>Node1</title>
<g id="a_Node000001"><a xlink:href="classalbert_1_1ExtensionPlugin.html" target="_top" xlink:title="Convenience base class for extension plugins.">
<polygon fill="white" stroke="#666666" points="268.62,-167.25 155.12,-167.25 155.12,-148 268.62,-148 268.62,-167.25"/>
<text text-anchor="middle" x="211.88" y="-153.75" font-family="Helvetica,sans-Serif" font-size="10.00">albert::ExtensionPlugin</text>
</a>
</g>
</g>
<!-- Node0&#45;&gt;Node1 -->
<g id="edge3_Node000000_Node000001" class="edge">
<title>Node0&#45;&gt;Node1</title>
<g id="a_edge3_Node000000_Node000001"><a xlink:title=" ">
<path fill="none" stroke="#63b8ff" d="M78.1,-100.38C95.6,-112.69 120.86,-129.05 145,-139.62 151.95,-142.67 159.54,-145.32 167.02,-147.58"/>
<polygon fill="#63b8ff" stroke="#63b8ff" points="80.15,-97.54 69.99,-94.55 76.07,-103.23 80.15,-97.54"/>
</a>
</g>
</g>
<!-- Node9 -->
<g id="Node000009" class="node">
<title>Node9</title>
<g id="a_Node000009"><a xlink:href="classalbert_1_1FallbackHandler.html" target="_top" xlink:title="Abstract fallback provider.">
<polygon fill="white" stroke="#666666" points="269.38,-56.25 154.38,-56.25 154.38,-37 269.38,-37 269.38,-56.25"/>
<text text-anchor="middle" x="211.88" y="-42.75" font-family="Helvetica,sans-Serif" font-size="10.00">albert::FallbackHandler</text>
</a>
</g>
</g>
<!-- Node0&#45;&gt;Node9 -->
<g id="edge4_Node000000_Node000009" class="edge">
<title>Node0&#45;&gt;Node9</title>
<g id="a_edge4_Node000000_Node000009"><a xlink:title=" ">
<path fill="none" stroke="#63b8ff" d="M109.09,-70.86C128.5,-66.24 150.15,-61.09 168.47,-56.72"/>
<polygon fill="#63b8ff" stroke="#63b8ff" points="108.35,-67.44 99.43,-73.16 109.97,-74.25 108.35,-67.44"/>
</a>
</g>
</g>
<!-- Node10 -->
<g id="Node000010" class="node">
<title>Node10</title>
<g id="a_Node000010"><a xlink:href="classalbert_1_1PluginProvider.html" target="_top" xlink:title="Plugin provider interface class.">
<polygon fill="white" stroke="#666666" points="265.62,-19.25 158.12,-19.25 158.12,0 265.62,0 265.62,-19.25"/>
<text text-anchor="middle" x="211.88" y="-5.75" font-family="Helvetica,sans-Serif" font-size="10.00">albert::PluginProvider</text>
</a>
</g>
</g>
<!-- Node0&#45;&gt;Node10 -->
<g id="edge5_Node000000_Node000010" class="edge">
<title>Node0&#45;&gt;Node10</title>
<g id="a_edge5_Node000000_Node000010"><a xlink:title=" ">
<path fill="none" stroke="#63b8ff" d="M78.1,-66.87C95.6,-54.56 120.86,-38.2 145,-27.62 151.95,-24.58 159.54,-21.93 167.02,-19.67"/>
<polygon fill="#63b8ff" stroke="#63b8ff" points="76.07,-64.02 69.99,-72.7 80.15,-69.71 76.07,-64.02"/>
</a>
</g>
</g>
<!-- Node11 -->
<g id="Node000011" class="node">
<title>Node11</title>
<g id="a_Node000011"><a xlink:href="classalbert_1_1TelemetryProvider.html" target="_top" xlink:title=" ">
<polygon fill="white" stroke="#666666" points="273.5,-130.25 150.25,-130.25 150.25,-111 273.5,-111 273.5,-130.25"/>
<text text-anchor="middle" x="211.88" y="-116.75" font-family="Helvetica,sans-Serif" font-size="10.00">albert::TelemetryProvider</text>
</a>
</g>
</g>
<!-- Node0&#45;&gt;Node11 -->
<g id="edge6_Node000000_Node000011" class="edge">
<title>Node0&#45;&gt;Node11</title>
<g id="a_edge6_Node000000_Node000011"><a xlink:title=" ">
<path fill="none" stroke="#63b8ff" d="M109.09,-96.39C128.5,-101.01 150.15,-106.16 168.47,-110.53"/>
<polygon fill="#63b8ff" stroke="#63b8ff" points="109.97,-93 99.43,-94.09 108.35,-99.81 109.97,-93"/>
</a>
</g>
</g>
<!-- Node12 -->
<g id="Node000012" class="node">
<title>Node12</title>
<g id="a_Node000012"><a xlink:href="classalbert_1_1TriggerQueryHandler.html" target="_top" xlink:title="Abstract trigger query handler.">
<polygon fill="white" stroke="#666666" points="278.75,-93.25 145,-93.25 145,-74 278.75,-74 278.75,-93.25"/>
<text text-anchor="middle" x="211.88" y="-79.75" font-family="Helvetica,sans-Serif" font-size="10.00">albert::TriggerQueryHandler</text>
</a>
</g>
</g>
<!-- Node0&#45;&gt;Node12 -->
<g id="edge7_Node000000_Node000012" class="edge">
<title>Node0&#45;&gt;Node12</title>
<g id="a_edge7_Node000000_Node000012"><a xlink:title=" ">
<path fill="none" stroke="#63b8ff" d="M109.44,-83.62C120.76,-83.62 132.82,-83.62 144.53,-83.62"/>
<polygon fill="#63b8ff" stroke="#63b8ff" points="109.47,-80.13 99.47,-83.63 109.47,-87.13 109.47,-80.13"/>
</a>
</g>
</g>
<!-- Node13 -->
<g id="Node000013" class="node">
<title>Node13</title>
<g id="a_Node000013"><a xlink:href="classalbert_1_1GlobalQueryHandler.html" target="_top" xlink:title="Abstract global query handler.">
<polygon fill="white" stroke="#666666" points="446.25,-93.25 314.75,-93.25 314.75,-74 446.25,-74 446.25,-93.25"/>
<text text-anchor="middle" x="380.5" y="-79.75" font-family="Helvetica,sans-Serif" font-size="10.00">albert::GlobalQueryHandler</text>
</a>
</g>
</g>
<!-- Node12&#45;&gt;Node13 -->
<g id="edge8_Node000012_Node000013" class="edge">
<title>Node12&#45;&gt;Node13</title>
<g id="a_edge8_Node000012_Node000013"><a xlink:title=" ">
<path fill="none" stroke="#63b8ff" d="M290.48,-83.62C298.51,-83.62 306.61,-83.62 314.48,-83.62"/>
<polygon fill="#63b8ff" stroke="#63b8ff" points="290.72,-80.13 280.72,-83.63 290.72,-87.13 290.72,-80.13"/>
</a>
</g>
</g>
<!-- Node14 -->
<g id="Node000014" class="node">
<title>Node14</title>
<g id="a_Node000014"><a xlink:href="classalbert_1_1IndexQueryHandler.html" target="_top" xlink:title="Index query handler class.">
<polygon fill="white" stroke="#666666" points="609.25,-93.25 482.25,-93.25 482.25,-74 609.25,-74 609.25,-93.25"/>
<text text-anchor="middle" x="545.75" y="-79.75" font-family="Helvetica,sans-Serif" font-size="10.00">albert::IndexQueryHandler</text>
</a>
</g>
</g>
<!-- Node13&#45;&gt;Node14 -->
<g id="edge9_Node000013_Node000014" class="edge">
<title>Node13&#45;&gt;Node14</title>
<g id="a_edge9_Node000013_Node000014"><a xlink:title=" ">
<path fill="none" stroke="#63b8ff" d="M457.8,-83.62C465.85,-83.62 473.97,-83.62 481.85,-83.62"/>
<polygon fill="#63b8ff" stroke="#63b8ff" points="458,-80.13 448,-83.63 458,-87.13 458,-80.13"/>
</a>
</g>
</g>
<!-- Node2 -->
<g id="Node000002" class="node">
<title>Node2</title>
<g id="a_Node000002"><a xlink:href="classalbert_1_1PluginInstance.html" target="_top" xlink:title="Abstract plugin instance class.">
<polygon fill="white" stroke="#666666" points="109,-167.25 0,-167.25 0,-148 109,-148 109,-167.25"/>
<text text-anchor="middle" x="54.5" y="-153.75" font-family="Helvetica,sans-Serif" font-size="10.00">albert::PluginInstance</text>
</a>
</g>
</g>
<!-- Node2&#45;&gt;Node1 -->
<g id="edge10_Node000002_Node000001" class="edge">
<title>Node2&#45;&gt;Node1</title>
<g id="a_edge10_Node000002_Node000001"><a xlink:title=" ">
<path fill="none" stroke="#63b8ff" d="M120.58,-157.62C131.92,-157.62 143.62,-157.62 154.69,-157.62"/>
<polygon fill="#63b8ff" stroke="#63b8ff" points="120.92,-154.13 110.92,-157.63 120.92,-161.13 120.92,-154.13"/>
</a>
</g>
</g>
<!-- Node3 -->
<g id="Node000003" class="node">
<title>Node3</title>
<g id="a_Node000003"><a xlink:title=" ">
<polygon fill="#e0e0e0" stroke="#999999" points="80.5,-259.25 28.5,-259.25 28.5,-240 80.5,-240 80.5,-259.25"/>
<text text-anchor="middle" x="54.5" y="-245.75" font-family="Helvetica,sans-Serif" font-size="10.00">QObject</text>
</a>
</g>
</g>
<!-- Node3&#45;&gt;Node1 -->
<g id="edge11_Node000003_Node000001" class="edge">
<title>Node3&#45;&gt;Node1</title>
<g id="a_edge11_Node000003_Node000001"><a xlink:title=" ">
<path fill="none" stroke="#63b8ff" d="M72.52,-231.7C89.42,-214.91 116.81,-190.26 145,-175.62 151,-172.51 157.59,-169.89 164.22,-167.7"/>
<polygon fill="#63b8ff" stroke="#63b8ff" points="70.27,-229 65.76,-238.59 75.26,-233.91 70.27,-229"/>
</a>
</g>
</g>
<!-- Node4 -->
<g id="Node000004" class="node">
<title>Node4</title>
<g id="a_Node000004"><a xlink:href="classalbert_1_1ExtensionRegistry.html" target="_top" xlink:title="The common extension pool.">
<polygon fill="white" stroke="#666666" points="272.75,-204.25 151,-204.25 151,-185 272.75,-185 272.75,-204.25"/>
<text text-anchor="middle" x="211.88" y="-190.75" font-family="Helvetica,sans-Serif" font-size="10.00">albert::ExtensionRegistry</text>
</a>
</g>
</g>
<!-- Node3&#45;&gt;Node4 -->
<g id="edge12_Node000003_Node000004" class="edge">
<title>Node3&#45;&gt;Node4</title>
<g id="a_edge12_Node000003_Node000004"><a xlink:title=" ">
<path fill="none" stroke="#63b8ff" d="M88.03,-235.02C104.85,-227.77 125.81,-219.18 145,-212.62 153.3,-209.79 162.31,-207.09 170.92,-204.68"/>
<polygon fill="#63b8ff" stroke="#63b8ff" points="86.79,-231.75 79.03,-238.96 89.59,-238.16 86.79,-231.75"/>
</a>
</g>
</g>
<!-- Node5 -->
<g id="Node000005" class="node">
<title>Node5</title>
<g id="a_Node000005"><a xlink:href="classalbert_1_1Frontend.html" target="_top" xlink:title="The interface for albert frontends.">
<polygon fill="white" stroke="#666666" points="253.25,-352.25 170.5,-352.25 170.5,-333 253.25,-333 253.25,-352.25"/>
<text text-anchor="middle" x="211.88" y="-338.75" font-family="Helvetica,sans-Serif" font-size="10.00">albert::Frontend</text>
</a>
</g>
</g>
<!-- Node3&#45;&gt;Node5 -->
<g id="edge13_Node000003_Node000005" class="edge">
<title>Node3&#45;&gt;Node5</title>
<g id="a_edge13_Node000003_Node000005"><a xlink:title=" ">
<path fill="none" stroke="#63b8ff" d="M72.48,-267.8C89.34,-284.83 116.7,-309.82 145,-324.62 152.77,-328.69 161.56,-331.91 170.12,-334.44"/>
<polygon fill="#63b8ff" stroke="#63b8ff" points="75.18,-265.57 65.72,-260.81 70.15,-270.43 75.18,-265.57"/>
</a>
</g>
</g>
<!-- Node6 -->
<g id="Node000006" class="node">
<title>Node6</title>
<g id="a_Node000006"><a xlink:href="classalbert_1_1InputHistory.html" target="_top" xlink:title="Input history class.">
<polygon fill="white" stroke="#666666" points="260.38,-315.25 163.38,-315.25 163.38,-296 260.38,-296 260.38,-315.25"/>
<text text-anchor="middle" x="211.88" y="-301.75" font-family="Helvetica,sans-Serif" font-size="10.00">albert::InputHistory</text>
</a>
</g>
</g>
<!-- Node3&#45;&gt;Node6 -->
<g id="edge14_Node000003_Node000006" class="edge">
<title>Node3&#45;&gt;Node6</title>
<g id="a_edge14_Node000003_Node000006"><a xlink:title=" ">
<path fill="none" stroke="#63b8ff" d="M87.31,-264.37C104.23,-271.89 125.51,-280.86 145,-287.62 153.18,-290.46 162.05,-293.15 170.55,-295.53"/>
<polygon fill="#63b8ff" stroke="#63b8ff" points="88.82,-261.21 78.26,-260.29 85.94,-267.59 88.82,-261.21"/>
</a>
</g>
</g>
<!-- Node7 -->
<g id="Node000007" class="node">
<title>Node7</title>
<g id="a_Node000007"><a xlink:href="classalbert_1_1Notification.html" target="_top" xlink:title="The notification class.">
<polygon fill="white" stroke="#666666" points="258.5,-278.25 165.25,-278.25 165.25,-259 258.5,-259 258.5,-278.25"/>
<text text-anchor="middle" x="211.88" y="-264.75" font-family="Helvetica,sans-Serif" font-size="10.00">albert::Notification</text>
</a>
</g>
</g>
<!-- Node3&#45;&gt;Node7 -->
<g id="edge15_Node000003_Node000007" class="edge">
<title>Node3&#45;&gt;Node7</title>
<g id="a_edge15_Node000003_Node000007"><a xlink:title=" ">
<path fill="none" stroke="#63b8ff" d="M92.2,-254.11C113.94,-256.77 141.68,-260.16 164.87,-263"/>
<polygon fill="#63b8ff" stroke="#63b8ff" points="92.66,-250.64 82.31,-252.9 91.81,-257.59 92.66,-250.64"/>
</a>
</g>
</g>
<!-- Node8 -->
<g id="Node000008" class="node">
<title>Node8</title>
<g id="a_Node000008"><a xlink:href="classalbert_1_1Query.html" target="_top" xlink:title="Common query object.">
<polygon fill="white" stroke="#666666" points="246.88,-241.25 176.88,-241.25 176.88,-222 246.88,-222 246.88,-241.25"/>
<text text-anchor="middle" x="211.88" y="-227.75" font-family="Helvetica,sans-Serif" font-size="10.00">albert::Query</text>
</a>
</g>
</g>
<!-- Node3&#45;&gt;Node8 -->
<g id="edge16_Node000003_Node000008" class="edge">
<title>Node3&#45;&gt;Node8</title>
<g id="a_edge16_Node000003_Node000008"><a xlink:title=" ">
<path fill="none" stroke="#63b8ff" d="M91.91,-245.41C117.49,-242.44 151.48,-238.51 176.58,-235.6"/>
<polygon fill="#63b8ff" stroke="#63b8ff" points="91.84,-241.89 82.31,-246.52 92.65,-248.84 91.84,-241.89"/>
</a>
</g>
</g>
</g>
</svg>
