<?xml version="1.0" encoding="UTF-8" standalone="no"?>
<!DOCTYPE svg PUBLIC "-//W3C//DTD SVG 1.1//EN"
 "http://www.w3.org/Graphics/SVG/1.1/DTD/svg11.dtd">
<!-- Generated by graphviz version 9.0.0 (20230911.1827)
 -->
<!-- Title: Graphical Class Hierarchy Pages: 1 -->
<svg width="1101pt" height="378pt"
 viewBox="0.00 0.00 1101.00 378.25" xmlns="http://www.w3.org/2000/svg" xmlns:xlink="http://www.w3.org/1999/xlink">
<g id="graph0" class="graph" transform="scale(1 1) rotate(0) translate(4 374.25)">
<title>Graphical Class Hierarchy</title>
<!-- Node0 -->
<g id="Node000000" class="node">
<title>Node0</title>
<g id="a_Node000000"><a xlink:href="classalbert_1_1Extension.html" target="_top" xlink:title="Abstract extension class.">
<polygon fill="white" stroke="#666666" points="243.5,-315.25 157,-315.25 157,-296 243.5,-296 243.5,-315.25"/>
<text text-anchor="middle" x="200.25" y="-301.75" font-family="Helvetica,sans-Serif" font-size="10.00">albert::Extension</text>
</a>
</g>
</g>
<!-- Node1 -->
<g id="Node000001" class="node">
<title>Node1</title>
<g id="a_Node000001"><a xlink:href="classalbert_1_1ExtensionPlugin.html" target="_top" xlink:title="Extension plugin base class.">
<polygon fill="white" stroke="#666666" points="406.5,-167.25 293,-167.25 293,-148 406.5,-148 406.5,-167.25"/>
<text text-anchor="middle" x="349.75" y="-153.75" font-family="Helvetica,sans-Serif" font-size="10.00">albert::ExtensionPlugin</text>
</a>
</g>
</g>
<!-- Node0&#45;&gt;Node1 -->
<g id="edge3_Node000000_Node000001" class="edge">
<title>Node0&#45;&gt;Node1</title>
<g id="a_edge3_Node000000_Node000001"><a xlink:title=" ">
<path fill="none" stroke="#63b8ff" d="M252.71,-290.16C253.93,-289.35 255.11,-288.51 256.25,-287.62 279.89,-269.21 275.06,-255.17 292.25,-230.62 308.62,-207.26 329.54,-181.09 340.77,-167.32"/>
<polygon fill="#63b8ff" stroke="#63b8ff" points="251.24,-286.97 244.13,-294.82 254.58,-293.12 251.24,-286.97"/>
</a>
</g>
</g>
<!-- Node12 -->
<g id="Node000012" class="node">
<title>Node12</title>
<g id="a_Node000012"><a xlink:href="classalbert_1_1FallbackHandler.html" target="_top" xlink:title="Abstract fallback item provider.">
<polygon fill="white" stroke="#666666" points="407.25,-370.25 292.25,-370.25 292.25,-351 407.25,-351 407.25,-370.25"/>
<text text-anchor="middle" x="349.75" y="-356.75" font-family="Helvetica,sans-Serif" font-size="10.00">albert::FallbackHandler</text>
</a>
</g>
</g>
<!-- Node0&#45;&gt;Node12 -->
<g id="edge4_Node000000_Node000012" class="edge">
<title>Node0&#45;&gt;Node12</title>
<g id="a_edge4_Node000000_Node000012"><a xlink:title=" ">
<path fill="none" stroke="#63b8ff" d="M235.17,-320.15C252.18,-327.24 273.18,-335.72 292.25,-342.62 299.8,-345.36 308,-348.1 315.74,-350.58"/>
<polygon fill="#63b8ff" stroke="#63b8ff" points="236.59,-316.95 226.02,-316.3 233.88,-323.4 236.59,-316.95"/>
</a>
</g>
</g>
<!-- Node13 -->
<g id="Node000013" class="node">
<title>Node13</title>
<g id="a_Node000013"><a xlink:href="classalbert_1_1PluginProvider.html" target="_top" xlink:title="Plugin provider interface class.">
<polygon fill="white" stroke="#666666" points="403.5,-333.25 296,-333.25 296,-314 403.5,-314 403.5,-333.25"/>
<text text-anchor="middle" x="349.75" y="-319.75" font-family="Helvetica,sans-Serif" font-size="10.00">albert::PluginProvider</text>
</a>
</g>
</g>
<!-- Node0&#45;&gt;Node13 -->
<g id="edge5_Node000000_Node000013" class="edge">
<title>Node0&#45;&gt;Node13</title>
<g id="a_edge5_Node000000_Node000013"><a xlink:title=" ">
<path fill="none" stroke="#63b8ff" d="M255.23,-312.21C268.43,-313.82 282.54,-315.54 295.69,-317.15"/>
<polygon fill="#63b8ff" stroke="#63b8ff" points="255.77,-308.75 245.42,-311.01 254.92,-315.7 255.77,-308.75"/>
</a>
</g>
</g>
<!-- Node14 -->
<g id="Node000014" class="node">
<title>Node14</title>
<g id="a_Node000014"><a xlink:href="classalbert_1_1QueryHandler.html" target="_top" xlink:title="Base query handler interface for triggered queries.">
<polygon fill="white" stroke="#666666" points="401.62,-296.25 297.88,-296.25 297.88,-277 401.62,-277 401.62,-296.25"/>
<text text-anchor="middle" x="349.75" y="-282.75" font-family="Helvetica,sans-Serif" font-size="10.00">albert::QueryHandler</text>
</a>
</g>
</g>
<!-- Node0&#45;&gt;Node14 -->
<g id="edge6_Node000000_Node000014" class="edge">
<title>Node0&#45;&gt;Node14</title>
<g id="a_edge6_Node000000_Node000014"><a xlink:title=" ">
<path fill="none" stroke="#63b8ff" d="M255.24,-298.67C269.06,-296.89 283.89,-294.98 297.56,-293.22"/>
<polygon fill="#63b8ff" stroke="#63b8ff" points="254.89,-295.19 245.41,-299.94 255.78,-302.13 254.89,-295.19"/>
</a>
</g>
</g>
<!-- Node20 -->
<g id="Node000020" class="node">
<title>Node20</title>
<g id="a_Node000020"><a xlink:href="classalbert_1_1UrlHandler.html" target="_top" xlink:title="Albert scheme URL handler interface.">
<polygon fill="white" stroke="#666666" points="395.25,-259.25 304.25,-259.25 304.25,-240 395.25,-240 395.25,-259.25"/>
<text text-anchor="middle" x="349.75" y="-245.75" font-family="Helvetica,sans-Serif" font-size="10.00">albert::UrlHandler</text>
</a>
</g>
</g>
<!-- Node0&#45;&gt;Node20 -->
<g id="edge12_Node000000_Node000020" class="edge">
<title>Node0&#45;&gt;Node20</title>
<g id="a_edge12_Node000000_Node000020"><a xlink:title=" ">
<path fill="none" stroke="#63b8ff" d="M245.95,-291.8C249.47,-290.47 252.94,-289.07 256.25,-287.62 273.02,-280.3 275.45,-274.88 292.25,-267.62 298.96,-264.73 306.29,-262.05 313.39,-259.7"/>
<polygon fill="#63b8ff" stroke="#63b8ff" points="245.03,-288.41 236.8,-295.07 247.39,-295 245.03,-288.41"/>
</a>
</g>
</g>
<!-- Node15 -->
<g id="Node000015" class="node">
<title>Node15</title>
<g id="a_Node000015"><a xlink:href="classalbert_1_1AsyncGeneratorQueryHandler.html" target="_top" xlink:title="Coroutine&#45;based asynchronous generator query handler.">
<polygon fill="white" stroke="#666666" points="586.38,-322.88 446.62,-322.88 446.62,-292.38 586.38,-292.38 586.38,-322.88"/>
<text text-anchor="start" x="454.62" y="-309.38" font-family="Helvetica,sans-Serif" font-size="10.00">albert::AsyncGeneratorQuery</text>
<text text-anchor="middle" x="516.5" y="-298.12" font-family="Helvetica,sans-Serif" font-size="10.00">Handler</text>
</a>
</g>
</g>
<!-- Node14&#45;&gt;Node15 -->
<g id="edge7_Node000014_Node000015" class="edge">
<title>Node14&#45;&gt;Node15</title>
<g id="a_edge7_Node000014_Node000015"><a xlink:title=" ">
<path fill="none" stroke="#63b8ff" d="M413.38,-294.61C424.09,-295.97 435.27,-297.4 446.15,-298.78"/>
<polygon fill="#63b8ff" stroke="#63b8ff" points="413.84,-291.14 403.48,-293.35 412.95,-298.08 413.84,-291.14"/>
</a>
</g>
</g>
<!-- Node16 -->
<g id="Node000016" class="node">
<title>Node16</title>
<g id="a_Node000016"><a xlink:href="classalbert_1_1GeneratorQueryHandler.html" target="_top" xlink:title="Coroutine&#45;based synchronous generator query handler.">
<polygon fill="white" stroke="#666666" points="589.75,-274.25 443.25,-274.25 443.25,-255 589.75,-255 589.75,-274.25"/>
<text text-anchor="middle" x="516.5" y="-260.75" font-family="Helvetica,sans-Serif" font-size="10.00">albert::GeneratorQueryHandler</text>
</a>
</g>
</g>
<!-- Node14&#45;&gt;Node16 -->
<g id="edge8_Node000014_Node000016" class="edge">
<title>Node14&#45;&gt;Node16</title>
<g id="a_edge8_Node000014_Node000016"><a xlink:title=" ">
<path fill="none" stroke="#63b8ff" d="M413.14,-278.29C422.84,-277 432.93,-275.65 442.84,-274.33"/>
<polygon fill="#63b8ff" stroke="#63b8ff" points="412.92,-274.79 403.48,-279.58 413.85,-281.73 412.92,-274.79"/>
</a>
</g>
</g>
<!-- Node17 -->
<g id="Node000017" class="node">
<title>Node17</title>
<g id="a_Node000017"><a xlink:href="classalbert_1_1RankedQueryHandler.html" target="_top" xlink:title="Usage&#45;ranked query handler.">
<polygon fill="white" stroke="#666666" points="762.5,-274.25 625.75,-274.25 625.75,-255 762.5,-255 762.5,-274.25"/>
<text text-anchor="middle" x="694.12" y="-260.75" font-family="Helvetica,sans-Serif" font-size="10.00">albert::RankedQueryHandler</text>
</a>
</g>
</g>
<!-- Node16&#45;&gt;Node17 -->
<g id="edge9_Node000016_Node000017" class="edge">
<title>Node16&#45;&gt;Node17</title>
<g id="a_edge9_Node000016_Node000017"><a xlink:title=" ">
<path fill="none" stroke="#63b8ff" d="M601.71,-264.62C609.61,-264.62 617.55,-264.62 625.27,-264.62"/>
<polygon fill="#63b8ff" stroke="#63b8ff" points="601.71,-261.13 591.71,-264.63 601.71,-268.13 601.71,-261.13"/>
</a>
</g>
</g>
<!-- Node18 -->
<g id="Node000018" class="node">
<title>Node18</title>
<g id="a_Node000018"><a xlink:href="classalbert_1_1GlobalQueryHandler.html" target="_top" xlink:title="Query handler participating in the global search.">
<polygon fill="white" stroke="#666666" points="930,-274.25 798.5,-274.25 798.5,-255 930,-255 930,-274.25"/>
<text text-anchor="middle" x="864.25" y="-260.75" font-family="Helvetica,sans-Serif" font-size="10.00">albert::GlobalQueryHandler</text>
</a>
</g>
</g>
<!-- Node17&#45;&gt;Node18 -->
<g id="edge10_Node000017_Node000018" class="edge">
<title>Node17&#45;&gt;Node18</title>
<g id="a_edge10_Node000017_Node000018"><a xlink:title=" ">
<path fill="none" stroke="#63b8ff" d="M773.88,-264.62C781.96,-264.62 790.1,-264.62 798.01,-264.62"/>
<polygon fill="#63b8ff" stroke="#63b8ff" points="774.05,-261.13 764.05,-264.63 774.05,-268.13 774.05,-261.13"/>
</a>
</g>
</g>
<!-- Node19 -->
<g id="Node000019" class="node">
<title>Node19</title>
<g id="a_Node000019"><a xlink:href="classalbert_1_1IndexQueryHandler.html" target="_top" xlink:title="Index&#45;based global query handler.">
<polygon fill="white" stroke="#666666" points="1093,-274.25 966,-274.25 966,-255 1093,-255 1093,-274.25"/>
<text text-anchor="middle" x="1029.5" y="-260.75" font-family="Helvetica,sans-Serif" font-size="10.00">albert::IndexQueryHandler</text>
</a>
</g>
</g>
<!-- Node18&#45;&gt;Node19 -->
<g id="edge11_Node000018_Node000019" class="edge">
<title>Node18&#45;&gt;Node19</title>
<g id="a_edge11_Node000018_Node000019"><a xlink:title=" ">
<path fill="none" stroke="#63b8ff" d="M941.55,-264.62C949.6,-264.62 957.72,-264.62 965.6,-264.62"/>
<polygon fill="#63b8ff" stroke="#63b8ff" points="941.75,-261.13 931.75,-264.63 941.75,-268.13 941.75,-261.13"/>
</a>
</g>
</g>
<!-- Node11 -->
<g id="Node000011" class="node">
<title>Node11</title>
<g id="a_Node000011"><a xlink:href="classalbert_1_1Item_1_1Observer.html" target="_top" xlink:title="Interface class for item observers.">
<polygon fill="white" stroke="#666666" points="108.25,-278.25 0,-278.25 0,-259 108.25,-259 108.25,-278.25"/>
<text text-anchor="middle" x="54.12" y="-264.75" font-family="Helvetica,sans-Serif" font-size="10.00">albert::Item::Observer</text>
</a>
</g>
</g>
<!-- Node10 -->
<g id="Node000010" class="node">
<title>Node10</title>
<g id="a_Node000010"><a xlink:href="classalbert_1_1QueryResults.html" target="_top" xlink:title="Query results container.">
<polygon fill="white" stroke="#666666" points="251.75,-278.25 148.75,-278.25 148.75,-259 251.75,-259 251.75,-278.25"/>
<text text-anchor="middle" x="200.25" y="-264.75" font-family="Helvetica,sans-Serif" font-size="10.00">albert::QueryResults</text>
</a>
</g>
</g>
<!-- Node11&#45;&gt;Node10 -->
<g id="edge13_Node000011_Node000010" class="edge">
<title>Node11&#45;&gt;Node10</title>
<g id="a_edge13_Node000011_Node000010"><a xlink:title=" ">
<path fill="none" stroke="#8b1a1a" d="M119.65,-268.62C129.35,-268.62 139.24,-268.62 148.6,-268.62"/>
<polygon fill="#8b1a1a" stroke="#8b1a1a" points="119.9,-265.13 109.9,-268.63 119.9,-272.13 119.9,-265.13"/>
</a>
</g>
</g>
<!-- Node3 -->
<g id="Node000003" class="node">
<title>Node3</title>
<g id="a_Node000003"><a xlink:title=" ">
<polygon fill="#e0e0e0" stroke="#999999" points="80.12,-149.25 28.12,-149.25 28.12,-130 80.12,-130 80.12,-149.25"/>
<text text-anchor="middle" x="54.12" y="-135.75" font-family="Helvetica,sans-Serif" font-size="10.00">QObject</text>
</a>
</g>
</g>
<!-- Node3&#45;&gt;Node10 -->
<g id="edge22_Node000003_Node000010" class="edge">
<title>Node3&#45;&gt;Node10</title>
<g id="a_edge22_Node000003_Node000010"><a xlink:title=" ">
<path fill="none" stroke="#63b8ff" d="M65.98,-159.24C80.64,-183.99 109.02,-226.25 144.25,-250.62 148.79,-253.77 153.92,-256.39 159.18,-258.58"/>
<polygon fill="#63b8ff" stroke="#63b8ff" points="69.17,-157.76 61.15,-150.83 63.1,-161.25 69.17,-157.76"/>
</a>
</g>
</g>
<!-- Node4 -->
<g id="Node000004" class="node">
<title>Node4</title>
<g id="a_Node000004"><a xlink:href="classalbert_1_1App.html" target="_top" xlink:title="The public app instance interface.">
<polygon fill="white" stroke="#666666" points="231.12,-241.25 169.38,-241.25 169.38,-222 231.12,-222 231.12,-241.25"/>
<text text-anchor="middle" x="200.25" y="-227.75" font-family="Helvetica,sans-Serif" font-size="10.00">albert::App</text>
</a>
</g>
</g>
<!-- Node3&#45;&gt;Node4 -->
<g id="edge14_Node000003_Node000004" class="edge">
<title>Node3&#45;&gt;Node4</title>
<g id="a_edge14_Node000003_Node000004"><a xlink:title=" ">
<path fill="none" stroke="#63b8ff" d="M72.5,-157.52C89.46,-174.08 116.67,-198.39 144.25,-213.62 151.9,-217.85 160.7,-221.28 168.99,-223.97"/>
<polygon fill="#63b8ff" stroke="#63b8ff" points="75.24,-155.31 65.69,-150.72 70.3,-160.26 75.24,-155.31"/>
</a>
</g>
</g>
<!-- Node5 -->
<g id="Node000005" class="node">
<title>Node5</title>
<g id="a_Node000005"><a xlink:href="classalbert_1_1Download.html" target="_top" xlink:title="Downloads a file from the given URL to the given path.">
<polygon fill="white" stroke="#666666" points="243.88,-204.25 156.62,-204.25 156.62,-185 243.88,-185 243.88,-204.25"/>
<text text-anchor="middle" x="200.25" y="-190.75" font-family="Helvetica,sans-Serif" font-size="10.00">albert::Download</text>
</a>
</g>
</g>
<!-- Node3&#45;&gt;Node5 -->
<g id="edge15_Node000003_Node000005" class="edge">
<title>Node3&#45;&gt;Node5</title>
<g id="a_edge15_Node000003_Node000005"><a xlink:title=" ">
<path fill="none" stroke="#63b8ff" d="M88.34,-154.13C105,-161.22 125.56,-169.7 144.25,-176.62 151.6,-179.35 159.57,-182.08 167.11,-184.57"/>
<polygon fill="#63b8ff" stroke="#63b8ff" points="89.98,-151.02 79.41,-150.3 87.22,-157.46 89.98,-151.02"/>
</a>
</g>
</g>
<!-- Node6 -->
<g id="Node000006" class="node">
<title>Node6</title>
<g id="a_Node000006"><a xlink:href="classalbert_1_1Notification.html" target="_top" xlink:title="The notification class.">
<polygon fill="white" stroke="#666666" points="246.88,-167.25 153.62,-167.25 153.62,-148 246.88,-148 246.88,-167.25"/>
<text text-anchor="middle" x="200.25" y="-153.75" font-family="Helvetica,sans-Serif" font-size="10.00">albert::Notification</text>
</a>
</g>
</g>
<!-- Node3&#45;&gt;Node6 -->
<g id="edge16_Node000003_Node000006" class="edge">
<title>Node3&#45;&gt;Node6</title>
<g id="a_edge16_Node000003_Node000006"><a xlink:title=" ">
<path fill="none" stroke="#63b8ff" d="M91.89,-144.22C110.6,-146.55 133.54,-149.42 153.4,-151.9"/>
<polygon fill="#63b8ff" stroke="#63b8ff" points="92.42,-140.76 82.06,-142.99 91.55,-147.7 92.42,-140.76"/>
</a>
</g>
</g>
<!-- Node7 -->
<g id="Node000007" class="node">
<title>Node7</title>
<g id="a_Node000007"><a xlink:href="classalbert_1_1OAuth2.html" target="_top" xlink:title="Provides OAuth2 authentication with support for the Authorization Code Flow with PKCE and refresh tok...">
<polygon fill="white" stroke="#666666" points="239,-130.25 161.5,-130.25 161.5,-111 239,-111 239,-130.25"/>
<text text-anchor="middle" x="200.25" y="-116.75" font-family="Helvetica,sans-Serif" font-size="10.00">albert::OAuth2</text>
</a>
</g>
</g>
<!-- Node3&#45;&gt;Node7 -->
<g id="edge17_Node000003_Node000007" class="edge">
<title>Node3&#45;&gt;Node7</title>
<g id="a_edge17_Node000003_Node000007"><a xlink:title=" ">
<path fill="none" stroke="#63b8ff" d="M91.71,-134.8C112.92,-132.01 139.59,-128.49 161.06,-125.66"/>
<polygon fill="#63b8ff" stroke="#63b8ff" points="91.52,-131.3 82.06,-136.07 92.43,-138.24 91.52,-131.3"/>
</a>
</g>
</g>
<!-- Node2 -->
<g id="Node000002" class="node">
<title>Node2</title>
<g id="a_Node000002"><a xlink:href="classalbert_1_1PluginInstance.html" target="_top" xlink:title="Abstract plugin instance class.">
<polygon fill="white" stroke="#666666" points="254.75,-93.25 145.75,-93.25 145.75,-74 254.75,-74 254.75,-93.25"/>
<text text-anchor="middle" x="200.25" y="-79.75" font-family="Helvetica,sans-Serif" font-size="10.00">albert::PluginInstance</text>
</a>
</g>
</g>
<!-- Node3&#45;&gt;Node2 -->
<g id="edge18_Node000003_Node000002" class="edge">
<title>Node3&#45;&gt;Node2</title>
<g id="a_edge18_Node000003_Node000002"><a xlink:title=" ">
<path fill="none" stroke="#63b8ff" d="M87.62,-124.97C104.39,-117.61 125.26,-108.76 144.25,-101.62 151.49,-98.9 159.35,-96.19 166.8,-93.73"/>
<polygon fill="#63b8ff" stroke="#63b8ff" points="86.36,-121.7 78.63,-128.94 89.2,-128.1 86.36,-121.7"/>
</a>
</g>
</g>
<!-- Node8 -->
<g id="Node000008" class="node">
<title>Node8</title>
<g id="a_Node000008"><a xlink:href="classalbert_1_1PluginLoader.html" target="_top" xlink:title="Asynchronous plugin loader.">
<polygon fill="white" stroke="#666666" points="251,-56.25 149.5,-56.25 149.5,-37 251,-37 251,-56.25"/>
<text text-anchor="middle" x="200.25" y="-42.75" font-family="Helvetica,sans-Serif" font-size="10.00">albert::PluginLoader</text>
</a>
</g>
</g>
<!-- Node3&#45;&gt;Node8 -->
<g id="edge20_Node000003_Node000008" class="edge">
<title>Node3&#45;&gt;Node8</title>
<g id="a_edge20_Node000003_Node000008"><a xlink:title=" ">
<path fill="none" stroke="#63b8ff" d="M72.18,-121.75C89.09,-104.95 116.41,-80.12 144.25,-64.62 149.69,-61.6 155.73,-58.98 161.74,-56.75"/>
<polygon fill="#63b8ff" stroke="#63b8ff" points="69.93,-119.05 65.41,-128.64 74.92,-123.96 69.93,-119.05"/>
</a>
</g>
</g>
<!-- Node9 -->
<g id="Node000009" class="node">
<title>Node9</title>
<g id="a_Node000009"><a xlink:href="classalbert_1_1QueryExecution.html" target="_top" xlink:title="Abstract asynchronous query execution interface.">
<polygon fill="white" stroke="#666666" points="256.25,-19.25 144.25,-19.25 144.25,0 256.25,0 256.25,-19.25"/>
<text text-anchor="middle" x="200.25" y="-5.75" font-family="Helvetica,sans-Serif" font-size="10.00">albert::QueryExecution</text>
</a>
</g>
</g>
<!-- Node3&#45;&gt;Node9 -->
<g id="edge21_Node000003_Node000009" class="edge">
<title>Node3&#45;&gt;Node9</title>
<g id="a_edge21_Node000003_Node000009"><a xlink:title=" ">
<path fill="none" stroke="#63b8ff" d="M65.94,-119.83C80.55,-94.86 108.88,-52.21 144.25,-27.62 148.79,-24.47 153.91,-21.84 159.17,-19.66"/>
<polygon fill="#63b8ff" stroke="#63b8ff" points="63.01,-117.9 61.12,-128.32 69.1,-121.35 63.01,-117.9"/>
</a>
</g>
</g>
<!-- Node2&#45;&gt;Node1 -->
<g id="edge19_Node000002_Node000001" class="edge">
<title>Node2&#45;&gt;Node1</title>
<g id="a_edge19_Node000002_Node000001"><a xlink:title=" ">
<path fill="none" stroke="#63b8ff" d="M246.62,-97.55C249.91,-98.84 253.15,-100.2 256.25,-101.62 285.42,-115.02 316.9,-135.5 334.58,-147.63"/>
<polygon fill="#63b8ff" stroke="#63b8ff" points="248.05,-94.35 237.46,-94.2 245.65,-100.92 248.05,-94.35"/>
</a>
</g>
</g>
</g>
</svg>
