<?xml version="1.0" encoding="UTF-8" standalone="no"?>
<!DOCTYPE svg PUBLIC "-//W3C//DTD SVG 1.1//EN"
 "http://www.w3.org/Graphics/SVG/1.1/DTD/svg11.dtd">
<!-- Generated by graphviz version 9.0.0 (20230911.1827)
 -->
<!-- Title: Graphical Class Hierarchy Pages: 1 -->
<svg width="348pt" height="64pt"
 viewBox="0.00 0.00 347.50 64.25" xmlns="http://www.w3.org/2000/svg" xmlns:xlink="http://www.w3.org/1999/xlink">
<g id="graph0" class="graph" transform="scale(1 1) rotate(0) translate(4 60.25)">
<title>Graphical Class Hierarchy</title>
<!-- Node0 -->
<g id="Node000000" class="node">
<title>Node0</title>
<g id="a_Node000000"><a xlink:href="classalbert_1_1util_1_1Dependency.html" target="_top" xlink:title=" ">
<polygon fill="white" stroke="#666666" points="137.5,-37.25 0,-37.25 0,-18 137.5,-18 137.5,-37.25"/>
<text text-anchor="middle" x="68.75" y="-23.75" font-family="Helvetica,sans-Serif" font-size="10.00">albert::util::Dependency&lt; T &gt;</text>
</a>
</g>
</g>
<!-- Node1 -->
<g id="Node000001" class="node">
<title>Node1</title>
<g id="a_Node000001"><a xlink:href="classalbert_1_1util_1_1StrongDependency.html" target="_top" xlink:title="Convenience holder class for plugin hard dependencies.">
<polygon fill="white" stroke="#666666" points="339.5,-56.25 173.5,-56.25 173.5,-37 339.5,-37 339.5,-56.25"/>
<text text-anchor="middle" x="256.5" y="-42.75" font-family="Helvetica,sans-Serif" font-size="10.00">albert::util::StrongDependency&lt; T &gt;</text>
</a>
</g>
</g>
<!-- Node0&#45;&gt;Node1 -->
<g id="edge21_Node000000_Node000001" class="edge">
<title>Node0&#45;&gt;Node1</title>
<g id="a_edge21_Node000000_Node000001"><a xlink:title=" ">
<path fill="none" stroke="#63b8ff" d="M149.05,-35.74C157.04,-36.55 165.18,-37.39 173.2,-38.21"/>
<polygon fill="#63b8ff" stroke="#63b8ff" points="149.67,-32.28 139.37,-34.75 148.96,-39.25 149.67,-32.28"/>
</a>
</g>
</g>
<!-- Node2 -->
<g id="Node000002" class="node">
<title>Node2</title>
<g id="a_Node000002"><a xlink:href="classalbert_1_1util_1_1WeakDependency.html" target="_top" xlink:title="Convenience holder class for plugin soft dependencies.">
<polygon fill="white" stroke="#666666" points="337.62,-19.25 175.38,-19.25 175.38,0 337.62,0 337.62,-19.25"/>
<text text-anchor="middle" x="256.5" y="-5.75" font-family="Helvetica,sans-Serif" font-size="10.00">albert::util::WeakDependency&lt; T &gt;</text>
</a>
</g>
</g>
<!-- Node0&#45;&gt;Node2 -->
<g id="edge22_Node000000_Node000002" class="edge">
<title>Node0&#45;&gt;Node2</title>
<g id="a_edge22_Node000000_Node000002"><a xlink:title=" ">
<path fill="none" stroke="#63b8ff" d="M149.08,-19.94C157.7,-19.1 166.48,-18.25 175.11,-17.41"/>
<polygon fill="#63b8ff" stroke="#63b8ff" points="148.98,-16.43 139.37,-20.88 149.66,-23.4 148.98,-16.43"/>
</a>
</g>
</g>
</g>
</svg>
