<?xml version="1.0" encoding="UTF-8" standalone="no"?>
<!DOCTYPE svg PUBLIC "-//W3C//DTD SVG 1.1//EN"
 "http://www.w3.org/Graphics/SVG/1.1/DTD/svg11.dtd">
<!-- Generated by graphviz version 9.0.0 (20230911.1827)
 -->
<!-- Title: Graphical Class Hierarchy Pages: 1 -->
<svg width="313pt" height="64pt"
 viewBox="0.00 0.00 313.00 64.25" xmlns="http://www.w3.org/2000/svg" xmlns:xlink="http://www.w3.org/1999/xlink">
<g id="graph0" class="graph" transform="scale(1 1) rotate(0) translate(4 60.25)">
<title>Graphical Class Hierarchy</title>
<!-- Node0 -->
<g id="Node000000" class="node">
<title>Node0</title>
<g id="a_Node000000"><a xlink:href="classalbert_1_1_dependency.html" target="_top" xlink:title="Base class for StrongDependency and WeakDependency.">
<polygon fill="white" stroke="#666666" points="120.25,-37.25 0,-37.25 0,-18 120.25,-18 120.25,-37.25"/>
<text text-anchor="middle" x="60.12" y="-23.75" font-family="Helvetica,sans-Serif" font-size="10.00">albert::Dependency&lt; T &gt;</text>
</a>
</g>
</g>
<!-- Node1 -->
<g id="Node000001" class="node">
<title>Node1</title>
<g id="a_Node000001"><a xlink:href="classalbert_1_1_strong_dependency.html" target="_top" xlink:title="Convenience holder class for plugin hard dependencies.">
<polygon fill="white" stroke="#666666" points="305,-56.25 156.25,-56.25 156.25,-37 305,-37 305,-56.25"/>
<text text-anchor="middle" x="230.62" y="-42.75" font-family="Helvetica,sans-Serif" font-size="10.00">albert::StrongDependency&lt; T &gt;</text>
</a>
</g>
</g>
<!-- Node0&#45;&gt;Node1 -->
<g id="edge1_Node000000_Node000001" class="edge">
<title>Node0&#45;&gt;Node1</title>
<g id="a_edge1_Node000000_Node000001"><a xlink:title=" ">
<path fill="none" stroke="#63b8ff" d="M131.72,-35.59C139.74,-36.49 147.93,-37.41 155.99,-38.32"/>
<polygon fill="#63b8ff" stroke="#63b8ff" points="132.37,-32.14 122.04,-34.49 131.58,-39.09 132.37,-32.14"/>
</a>
</g>
</g>
<!-- Node2 -->
<g id="Node000002" class="node">
<title>Node2</title>
<g id="a_Node000002"><a xlink:href="classalbert_1_1_weak_dependency.html" target="_top" xlink:title="Convenience holder class for plugin soft dependencies.">
<polygon fill="white" stroke="#666666" points="303.12,-19.25 158.12,-19.25 158.12,0 303.12,0 303.12,-19.25"/>
<text text-anchor="middle" x="230.62" y="-5.75" font-family="Helvetica,sans-Serif" font-size="10.00">albert::WeakDependency&lt; T &gt;</text>
</a>
</g>
</g>
<!-- Node0&#45;&gt;Node2 -->
<g id="edge2_Node000000_Node000002" class="edge">
<title>Node0&#45;&gt;Node2</title>
<g id="a_edge2_Node000000_Node000002"><a xlink:title=" ">
<path fill="none" stroke="#63b8ff" d="M131.71,-20.09C140.32,-19.17 149.12,-18.22 157.75,-17.3"/>
<polygon fill="#63b8ff" stroke="#63b8ff" points="131.61,-16.58 122.04,-21.12 132.35,-23.54 131.61,-16.58"/>
</a>
</g>
</g>
</g>
</svg>
