<?xml version="1.0" encoding="UTF-8" standalone="no"?>
<!DOCTYPE svg PUBLIC "-//W3C//DTD SVG 1.1//EN"
 "http://www.w3.org/Graphics/SVG/1.1/DTD/svg11.dtd">
<!-- Generated by graphviz version 9.0.0 (20230911.1827)
 -->
<!-- Title: Graphical Class Hierarchy Pages: 1 -->
<svg width="601pt" height="471pt"
 viewBox="0.00 0.00 600.75 471.25" xmlns="http://www.w3.org/2000/svg" xmlns:xlink="http://www.w3.org/1999/xlink">
<g id="graph0" class="graph" transform="scale(1 1) rotate(0) translate(4 467.25)">
<title>Graphical Class Hierarchy</title>
<!-- Node0 -->
<g id="Node000000" class="node">
<title>Node0</title>
<g id="a_Node000000"><a xlink:href="classalbert_1_1Extension.html" target="_top" xlink:title="Abstract extension class.">
<polygon fill="white" stroke="#666666" points="97.75,-111.25 11.25,-111.25 11.25,-92 97.75,-92 97.75,-111.25"/>
<text text-anchor="middle" x="54.5" y="-97.75" font-family="Helvetica,sans-Serif" font-size="10.00">albert::Extension</text>
</a>
</g>
</g>
<!-- Node1 -->
<g id="Node000001" class="node">
<title>Node1</title>
<g id="a_Node000001"><a xlink:href="classalbert_1_1ExtensionPlugin.html" target="_top" xlink:title="Convenience base class for extension plugins.">
<polygon fill="white" stroke="#666666" points="268.62,-204.25 155.12,-204.25 155.12,-185 268.62,-185 268.62,-204.25"/>
<text text-anchor="middle" x="211.88" y="-190.75" font-family="Helvetica,sans-Serif" font-size="10.00">albert::ExtensionPlugin</text>
</a>
</g>
</g>
<!-- Node0&#45;&gt;Node1 -->
<g id="edge3_Node000000_Node000001" class="edge">
<title>Node0&#45;&gt;Node1</title>
<g id="a_edge3_Node000000_Node000001"><a xlink:title=" ">
<path fill="none" stroke="#63b8ff" d="M72.48,-119.8C89.34,-136.83 116.7,-161.82 145,-176.62 150.99,-179.76 157.57,-182.39 164.2,-184.58"/>
<polygon fill="#63b8ff" stroke="#63b8ff" points="75.18,-117.57 65.72,-112.81 70.15,-122.43 75.18,-117.57"/>
</a>
</g>
</g>
<!-- Node11 -->
<g id="Node000011" class="node">
<title>Node11</title>
<g id="a_Node000011"><a xlink:href="classalbert_1_1FallbackHandler.html" target="_top" xlink:title="Abstract fallback provider.">
<polygon fill="white" stroke="#666666" points="269.38,-56.25 154.38,-56.25 154.38,-37 269.38,-37 269.38,-56.25"/>
<text text-anchor="middle" x="211.88" y="-42.75" font-family="Helvetica,sans-Serif" font-size="10.00">albert::FallbackHandler</text>
</a>
</g>
</g>
<!-- Node0&#45;&gt;Node11 -->
<g id="edge4_Node000000_Node000011" class="edge">
<title>Node0&#45;&gt;Node11</title>
<g id="a_edge4_Node000000_Node000011"><a xlink:title=" ">
<path fill="none" stroke="#63b8ff" d="M88.03,-87.02C104.85,-79.77 125.81,-71.18 145,-64.62 153.3,-61.79 162.31,-59.09 170.92,-56.68"/>
<polygon fill="#63b8ff" stroke="#63b8ff" points="86.79,-83.75 79.03,-90.96 89.59,-90.16 86.79,-83.75"/>
</a>
</g>
</g>
<!-- Node12 -->
<g id="Node000012" class="node">
<title>Node12</title>
<g id="a_Node000012"><a xlink:href="classalbert_1_1PluginProvider.html" target="_top" xlink:title="Plugin provider interface class.">
<polygon fill="white" stroke="#666666" points="265.62,-19.25 158.12,-19.25 158.12,0 265.62,0 265.62,-19.25"/>
<text text-anchor="middle" x="211.88" y="-5.75" font-family="Helvetica,sans-Serif" font-size="10.00">albert::PluginProvider</text>
</a>
</g>
</g>
<!-- Node0&#45;&gt;Node12 -->
<g id="edge5_Node000000_Node000012" class="edge">
<title>Node0&#45;&gt;Node12</title>
<g id="a_edge5_Node000000_Node000012"><a xlink:title=" ">
<path fill="none" stroke="#63b8ff" d="M72.52,-83.7C89.42,-66.91 116.81,-42.26 145,-27.62 151,-24.51 157.59,-21.89 164.22,-19.7"/>
<polygon fill="#63b8ff" stroke="#63b8ff" points="70.27,-81 65.76,-90.59 75.26,-85.91 70.27,-81"/>
</a>
</g>
</g>
<!-- Node13 -->
<g id="Node000013" class="node">
<title>Node13</title>
<g id="a_Node000013"><a xlink:href="classalbert_1_1TelemetryProvider.html" target="_top" xlink:title=" ">
<polygon fill="white" stroke="#666666" points="273.5,-167.25 150.25,-167.25 150.25,-148 273.5,-148 273.5,-167.25"/>
<text text-anchor="middle" x="211.88" y="-153.75" font-family="Helvetica,sans-Serif" font-size="10.00">albert::TelemetryProvider</text>
</a>
</g>
</g>
<!-- Node0&#45;&gt;Node13 -->
<g id="edge6_Node000000_Node000013" class="edge">
<title>Node0&#45;&gt;Node13</title>
<g id="a_edge6_Node000000_Node000013"><a xlink:title=" ">
<path fill="none" stroke="#63b8ff" d="M87.31,-116.37C104.23,-123.89 125.51,-132.86 145,-139.62 153.18,-142.46 162.05,-145.15 170.55,-147.53"/>
<polygon fill="#63b8ff" stroke="#63b8ff" points="88.82,-113.21 78.26,-112.29 85.94,-119.59 88.82,-113.21"/>
</a>
</g>
</g>
<!-- Node14 -->
<g id="Node000014" class="node">
<title>Node14</title>
<g id="a_Node000014"><a xlink:href="classalbert_1_1TriggerQueryHandler.html" target="_top" xlink:title="Abstract trigger query handler.">
<polygon fill="white" stroke="#666666" points="278.75,-130.25 145,-130.25 145,-111 278.75,-111 278.75,-130.25"/>
<text text-anchor="middle" x="211.88" y="-116.75" font-family="Helvetica,sans-Serif" font-size="10.00">albert::TriggerQueryHandler</text>
</a>
</g>
</g>
<!-- Node0&#45;&gt;Node14 -->
<g id="edge7_Node000000_Node000014" class="edge">
<title>Node0&#45;&gt;Node14</title>
<g id="a_edge7_Node000000_Node000014"><a xlink:title=" ">
<path fill="none" stroke="#63b8ff" d="M109.08,-108.18C120.5,-109.57 132.7,-111.06 144.53,-112.51"/>
<polygon fill="#63b8ff" stroke="#63b8ff" points="109.81,-104.74 99.46,-107 108.96,-111.69 109.81,-104.74"/>
</a>
</g>
</g>
<!-- Node17 -->
<g id="Node000017" class="node">
<title>Node17</title>
<g id="a_Node000017"><a xlink:href="classalbert_1_1UrlHandler.html" target="_top" xlink:title="Albert scheme URL handler interface.">
<polygon fill="white" stroke="#666666" points="257.38,-93.25 166.38,-93.25 166.38,-74 257.38,-74 257.38,-93.25"/>
<text text-anchor="middle" x="211.88" y="-79.75" font-family="Helvetica,sans-Serif" font-size="10.00">albert::UrlHandler</text>
</a>
</g>
</g>
<!-- Node0&#45;&gt;Node17 -->
<g id="edge10_Node000000_Node000017" class="edge">
<title>Node0&#45;&gt;Node17</title>
<g id="a_edge10_Node000000_Node000017"><a xlink:title=" ">
<path fill="none" stroke="#63b8ff" d="M109.19,-95.4C127.72,-93.26 148.28,-90.88 166.03,-88.82"/>
<polygon fill="#63b8ff" stroke="#63b8ff" points="108.99,-91.9 99.46,-96.53 109.8,-98.86 108.99,-91.9"/>
</a>
</g>
</g>
<!-- Node15 -->
<g id="Node000015" class="node">
<title>Node15</title>
<g id="a_Node000015"><a xlink:href="classalbert_1_1GlobalQueryHandler.html" target="_top" xlink:title="Abstract global query handler.">
<polygon fill="white" stroke="#666666" points="446.25,-130.25 314.75,-130.25 314.75,-111 446.25,-111 446.25,-130.25"/>
<text text-anchor="middle" x="380.5" y="-116.75" font-family="Helvetica,sans-Serif" font-size="10.00">albert::GlobalQueryHandler</text>
</a>
</g>
</g>
<!-- Node14&#45;&gt;Node15 -->
<g id="edge8_Node000014_Node000015" class="edge">
<title>Node14&#45;&gt;Node15</title>
<g id="a_edge8_Node000014_Node000015"><a xlink:title=" ">
<path fill="none" stroke="#63b8ff" d="M290.48,-120.62C298.51,-120.62 306.61,-120.62 314.48,-120.62"/>
<polygon fill="#63b8ff" stroke="#63b8ff" points="290.72,-117.13 280.72,-120.63 290.72,-124.13 290.72,-117.13"/>
</a>
</g>
</g>
<!-- Node16 -->
<g id="Node000016" class="node">
<title>Node16</title>
<g id="a_Node000016"><a xlink:href="classalbert_1_1util_1_1IndexQueryHandler.html" target="_top" xlink:title="Index query handler class.">
<polygon fill="white" stroke="#666666" points="592.75,-135.88 482.25,-135.88 482.25,-105.38 592.75,-105.38 592.75,-135.88"/>
<text text-anchor="start" x="490.25" y="-122.38" font-family="Helvetica,sans-Serif" font-size="10.00">albert::util::IndexQuery</text>
<text text-anchor="middle" x="537.5" y="-111.12" font-family="Helvetica,sans-Serif" font-size="10.00">Handler</text>
</a>
</g>
</g>
<!-- Node15&#45;&gt;Node16 -->
<g id="edge9_Node000015_Node000016" class="edge">
<title>Node15&#45;&gt;Node16</title>
<g id="a_edge9_Node000015_Node000016"><a xlink:title=" ">
<path fill="none" stroke="#63b8ff" d="M457.74,-120.62C465.84,-120.62 473.97,-120.62 481.75,-120.62"/>
<polygon fill="#63b8ff" stroke="#63b8ff" points="457.85,-117.13 447.85,-120.63 457.85,-124.13 457.85,-117.13"/>
</a>
</g>
</g>
<!-- Node2 -->
<g id="Node000002" class="node">
<title>Node2</title>
<g id="a_Node000002"><a xlink:href="classalbert_1_1PluginInstance.html" target="_top" xlink:title="Abstract plugin instance class.">
<polygon fill="white" stroke="#666666" points="109,-204.25 0,-204.25 0,-185 109,-185 109,-204.25"/>
<text text-anchor="middle" x="54.5" y="-190.75" font-family="Helvetica,sans-Serif" font-size="10.00">albert::PluginInstance</text>
</a>
</g>
</g>
<!-- Node2&#45;&gt;Node1 -->
<g id="edge11_Node000002_Node000001" class="edge">
<title>Node2&#45;&gt;Node1</title>
<g id="a_edge11_Node000002_Node000001"><a xlink:title=" ">
<path fill="none" stroke="#63b8ff" d="M120.58,-194.62C131.92,-194.62 143.62,-194.62 154.69,-194.62"/>
<polygon fill="#63b8ff" stroke="#63b8ff" points="120.92,-191.13 110.92,-194.63 120.92,-198.13 120.92,-191.13"/>
</a>
</g>
</g>
<!-- Node3 -->
<g id="Node000003" class="node">
<title>Node3</title>
<g id="a_Node000003"><a xlink:title=" ">
<polygon fill="#e0e0e0" stroke="#999999" points="80.5,-333.25 28.5,-333.25 28.5,-314 80.5,-314 80.5,-333.25"/>
<text text-anchor="middle" x="54.5" y="-319.75" font-family="Helvetica,sans-Serif" font-size="10.00">QObject</text>
</a>
</g>
</g>
<!-- Node3&#45;&gt;Node1 -->
<g id="edge12_Node000003_Node000001" class="edge">
<title>Node3&#45;&gt;Node1</title>
<g id="a_edge12_Node000003_Node000001"><a xlink:title=" ">
<path fill="none" stroke="#63b8ff" d="M66.24,-303.73C80.78,-278.69 109.09,-236.12 145,-212.62 149.86,-209.44 155.27,-206.82 160.85,-204.66"/>
<polygon fill="#63b8ff" stroke="#63b8ff" points="63.29,-301.83 61.45,-312.26 69.4,-305.25 63.29,-301.83"/>
</a>
</g>
</g>
<!-- Node4 -->
<g id="Node000004" class="node">
<title>Node4</title>
<g id="a_Node000004"><a xlink:href="classalbert_1_1ExtensionRegistry.html" target="_top" xlink:title="The common extension pool.">
<polygon fill="white" stroke="#666666" points="272.75,-278.25 151,-278.25 151,-259 272.75,-259 272.75,-278.25"/>
<text text-anchor="middle" x="211.88" y="-264.75" font-family="Helvetica,sans-Serif" font-size="10.00">albert::ExtensionRegistry</text>
</a>
</g>
</g>
<!-- Node3&#45;&gt;Node4 -->
<g id="edge13_Node000003_Node000004" class="edge">
<title>Node3&#45;&gt;Node4</title>
<g id="a_edge13_Node000003_Node000004"><a xlink:title=" ">
<path fill="none" stroke="#63b8ff" d="M88.03,-309.02C104.85,-301.77 125.81,-293.18 145,-286.62 153.3,-283.79 162.31,-281.09 170.92,-278.68"/>
<polygon fill="#63b8ff" stroke="#63b8ff" points="86.79,-305.75 79.03,-312.96 89.59,-312.16 86.79,-305.75"/>
</a>
</g>
</g>
<!-- Node5 -->
<g id="Node000005" class="node">
<title>Node5</title>
<g id="a_Node000005"><a xlink:href="classalbert_1_1Frontend.html" target="_top" xlink:title="The interface for albert frontends.">
<polygon fill="white" stroke="#666666" points="253.25,-241.25 170.5,-241.25 170.5,-222 253.25,-222 253.25,-241.25"/>
<text text-anchor="middle" x="211.88" y="-227.75" font-family="Helvetica,sans-Serif" font-size="10.00">albert::Frontend</text>
</a>
</g>
</g>
<!-- Node3&#45;&gt;Node5 -->
<g id="edge14_Node000003_Node000005" class="edge">
<title>Node3&#45;&gt;Node5</title>
<g id="a_edge14_Node000003_Node000005"><a xlink:title=" ">
<path fill="none" stroke="#63b8ff" d="M72.52,-305.7C89.42,-288.91 116.81,-264.26 145,-249.62 152.79,-245.58 161.58,-242.37 170.14,-239.85"/>
<polygon fill="#63b8ff" stroke="#63b8ff" points="70.27,-303 65.76,-312.59 75.26,-307.91 70.27,-303"/>
</a>
</g>
</g>
<!-- Node6 -->
<g id="Node000006" class="node">
<title>Node6</title>
<g id="a_Node000006"><a xlink:href="classalbert_1_1Query.html" target="_top" xlink:title="Common query object.">
<polygon fill="white" stroke="#666666" points="246.88,-463.25 176.88,-463.25 176.88,-444 246.88,-444 246.88,-463.25"/>
<text text-anchor="middle" x="211.88" y="-449.75" font-family="Helvetica,sans-Serif" font-size="10.00">albert::Query</text>
</a>
</g>
</g>
<!-- Node3&#45;&gt;Node6 -->
<g id="edge15_Node000003_Node000006" class="edge">
<title>Node3&#45;&gt;Node6</title>
<g id="a_edge15_Node000003_Node000006"><a xlink:title=" ">
<path fill="none" stroke="#63b8ff" d="M65.97,-343.32C80.4,-368.53 108.77,-411.8 145,-435.62 154.41,-441.81 165.91,-445.89 176.65,-448.56"/>
<polygon fill="#63b8ff" stroke="#63b8ff" points="69.14,-341.81 61.24,-334.76 63.01,-345.2 69.14,-341.81"/>
</a>
</g>
</g>
<!-- Node7 -->
<g id="Node000007" class="node">
<title>Node7</title>
<g id="a_Node000007"><a xlink:href="classalbert_1_1util_1_1FileDownloader.html" target="_top" xlink:title=" ">
<polygon fill="white" stroke="#666666" points="276.12,-426.25 147.62,-426.25 147.62,-407 276.12,-407 276.12,-426.25"/>
<text text-anchor="middle" x="211.88" y="-412.75" font-family="Helvetica,sans-Serif" font-size="10.00">albert::util::FileDownloader</text>
</a>
</g>
</g>
<!-- Node3&#45;&gt;Node7 -->
<g id="edge16_Node000003_Node000007" class="edge">
<title>Node3&#45;&gt;Node7</title>
<g id="a_edge16_Node000003_Node000007"><a xlink:title=" ">
<path fill="none" stroke="#63b8ff" d="M72.48,-341.8C89.34,-358.83 116.7,-383.82 145,-398.62 150.99,-401.76 157.57,-404.39 164.2,-406.58"/>
<polygon fill="#63b8ff" stroke="#63b8ff" points="75.18,-339.57 65.72,-334.81 70.15,-344.43 75.18,-339.57"/>
</a>
</g>
</g>
<!-- Node8 -->
<g id="Node000008" class="node">
<title>Node8</title>
<g id="a_Node000008"><a xlink:href="classalbert_1_1util_1_1InputHistory.html" target="_top" xlink:title="Input history class.">
<polygon fill="white" stroke="#666666" points="269,-389.25 154.75,-389.25 154.75,-370 269,-370 269,-389.25"/>
<text text-anchor="middle" x="211.88" y="-375.75" font-family="Helvetica,sans-Serif" font-size="10.00">albert::util::InputHistory</text>
</a>
</g>
</g>
<!-- Node3&#45;&gt;Node8 -->
<g id="edge17_Node000003_Node000008" class="edge">
<title>Node3&#45;&gt;Node8</title>
<g id="a_edge17_Node000003_Node000008"><a xlink:title=" ">
<path fill="none" stroke="#63b8ff" d="M87.31,-338.37C104.23,-345.89 125.51,-354.86 145,-361.62 153.18,-364.46 162.05,-367.15 170.55,-369.53"/>
<polygon fill="#63b8ff" stroke="#63b8ff" points="88.82,-335.21 78.26,-334.29 85.94,-341.59 88.82,-335.21"/>
</a>
</g>
</g>
<!-- Node9 -->
<g id="Node000009" class="node">
<title>Node9</title>
<g id="a_Node000009"><a xlink:href="classalbert_1_1util_1_1Notification.html" target="_top" xlink:title="The notification class.">
<polygon fill="white" stroke="#666666" points="267.12,-352.25 156.62,-352.25 156.62,-333 267.12,-333 267.12,-352.25"/>
<text text-anchor="middle" x="211.88" y="-338.75" font-family="Helvetica,sans-Serif" font-size="10.00">albert::util::Notification</text>
</a>
</g>
</g>
<!-- Node3&#45;&gt;Node9 -->
<g id="edge18_Node000003_Node000009" class="edge">
<title>Node3&#45;&gt;Node9</title>
<g id="a_edge18_Node000003_Node000009"><a xlink:title=" ">
<path fill="none" stroke="#63b8ff" d="M92.05,-328.09C111.18,-330.43 134.98,-333.34 156.25,-335.95"/>
<polygon fill="#63b8ff" stroke="#63b8ff" points="92.66,-324.64 82.31,-326.9 91.81,-331.59 92.66,-324.64"/>
</a>
</g>
</g>
<!-- Node10 -->
<g id="Node000010" class="node">
<title>Node10</title>
<g id="a_Node000010"><a xlink:href="classalbert_1_1util_1_1OAuth2.html" target="_top" xlink:title="Provides OAuth2 authentication with support for the Authorization Code Flow with PKCE and refresh tok...">
<polygon fill="white" stroke="#666666" points="259.25,-315.25 164.5,-315.25 164.5,-296 259.25,-296 259.25,-315.25"/>
<text text-anchor="middle" x="211.88" y="-301.75" font-family="Helvetica,sans-Serif" font-size="10.00">albert::util::OAuth2</text>
</a>
</g>
</g>
<!-- Node3&#45;&gt;Node10 -->
<g id="edge19_Node000003_Node000010" class="edge">
<title>Node3&#45;&gt;Node10</title>
<g id="a_edge19_Node000003_Node000010"><a xlink:title=" ">
<path fill="none" stroke="#63b8ff" d="M92.11,-319.38C113.67,-316.89 141.15,-313.7 164.24,-311.03"/>
<polygon fill="#63b8ff" stroke="#63b8ff" points="91.84,-315.89 82.31,-320.52 92.65,-322.84 91.84,-315.89"/>
</a>
</g>
</g>
</g>
</svg>
