<?xml version="1.0" encoding="UTF-8" standalone="no"?>
<!DOCTYPE svg PUBLIC "-//W3C//DTD SVG 1.1//EN"
 "http://www.w3.org/Graphics/SVG/1.1/DTD/svg11.dtd">
<!-- Generated by graphviz version 9.0.0 (20230911.1827)
 -->
<!-- Title: Graphical Class Hierarchy Pages: 1 -->
<svg width="1111pt" height="378pt"
 viewBox="0.00 0.00 1110.75 378.25" xmlns="http://www.w3.org/2000/svg" xmlns:xlink="http://www.w3.org/1999/xlink">
<g id="graph0" class="graph" transform="scale(1 1) rotate(0) translate(4 374.25)">
<title>Graphical Class Hierarchy</title>
<!-- Node0 -->
<g id="Node000000" class="node">
<title>Node0</title>
<g id="a_Node000000"><a xlink:href="classalbert_1_1Extension.html" target="_top" xlink:title="Abstract extension class.">
<polygon fill="white" stroke="#666666" points="248.38,-315.25 161.88,-315.25 161.88,-296 248.38,-296 248.38,-315.25"/>
<text text-anchor="middle" x="205.12" y="-301.75" font-family="Helvetica,sans-Serif" font-size="10.00">albert::Extension</text>
</a>
</g>
</g>
<!-- Node1 -->
<g id="Node000001" class="node">
<title>Node1</title>
<g id="a_Node000001"><a xlink:href="classalbert_1_1ExtensionPlugin.html" target="_top" xlink:title="Extension plugin base class.">
<polygon fill="white" stroke="#666666" points="416.25,-167.25 302.75,-167.25 302.75,-148 416.25,-148 416.25,-167.25"/>
<text text-anchor="middle" x="359.5" y="-153.75" font-family="Helvetica,sans-Serif" font-size="10.00">albert::ExtensionPlugin</text>
</a>
</g>
</g>
<!-- Node0&#45;&gt;Node1 -->
<g id="edge3_Node000000_Node000001" class="edge">
<title>Node0&#45;&gt;Node1</title>
<g id="a_edge3_Node000000_Node000001"><a xlink:title=" ">
<path fill="none" stroke="#63b8ff" d="M259.15,-292.1C261.55,-290.75 263.85,-289.26 266,-287.62 289.86,-269.5 284.81,-255.17 302,-230.62 318.37,-207.26 339.29,-181.09 350.52,-167.32"/>
<polygon fill="#63b8ff" stroke="#63b8ff" points="257.8,-288.87 250.24,-296.29 260.77,-295.2 257.8,-288.87"/>
</a>
</g>
</g>
<!-- Node12 -->
<g id="Node000012" class="node">
<title>Node12</title>
<g id="a_Node000012"><a xlink:href="classalbert_1_1FallbackHandler.html" target="_top" xlink:title="Abstract fallback item provider.">
<polygon fill="white" stroke="#666666" points="417,-370.25 302,-370.25 302,-351 417,-351 417,-370.25"/>
<text text-anchor="middle" x="359.5" y="-356.75" font-family="Helvetica,sans-Serif" font-size="10.00">albert::FallbackHandler</text>
</a>
</g>
</g>
<!-- Node0&#45;&gt;Node12 -->
<g id="edge4_Node000000_Node000012" class="edge">
<title>Node0&#45;&gt;Node12</title>
<g id="a_edge4_Node000000_Node000012"><a xlink:title=" ">
<path fill="none" stroke="#63b8ff" d="M241.42,-319.83C259.45,-326.93 281.79,-335.51 302,-342.62 309.67,-345.32 317.99,-348.07 325.82,-350.58"/>
<polygon fill="#63b8ff" stroke="#63b8ff" points="242.8,-316.61 232.21,-316.18 240.22,-323.12 242.8,-316.61"/>
</a>
</g>
</g>
<!-- Node13 -->
<g id="Node000013" class="node">
<title>Node13</title>
<g id="a_Node000013"><a xlink:href="classalbert_1_1PluginProvider.html" target="_top" xlink:title="Plugin provider interface class.">
<polygon fill="white" stroke="#666666" points="413.25,-333.25 305.75,-333.25 305.75,-314 413.25,-314 413.25,-333.25"/>
<text text-anchor="middle" x="359.5" y="-319.75" font-family="Helvetica,sans-Serif" font-size="10.00">albert::PluginProvider</text>
</a>
</g>
</g>
<!-- Node0&#45;&gt;Node13 -->
<g id="edge5_Node000000_Node000013" class="edge">
<title>Node0&#45;&gt;Node13</title>
<g id="a_edge5_Node000000_Node000013"><a xlink:title=" ">
<path fill="none" stroke="#63b8ff" d="M259.63,-311.95C274.48,-313.7 290.59,-315.6 305.41,-317.35"/>
<polygon fill="#63b8ff" stroke="#63b8ff" points="260.41,-308.51 250.07,-310.82 259.59,-315.47 260.41,-308.51"/>
</a>
</g>
</g>
<!-- Node14 -->
<g id="Node000014" class="node">
<title>Node14</title>
<g id="a_Node000014"><a xlink:href="classalbert_1_1QueryHandler.html" target="_top" xlink:title="Base query handler interface for triggered queries.">
<polygon fill="white" stroke="#666666" points="411.38,-296.25 307.62,-296.25 307.62,-277 411.38,-277 411.38,-296.25"/>
<text text-anchor="middle" x="359.5" y="-282.75" font-family="Helvetica,sans-Serif" font-size="10.00">albert::QueryHandler</text>
</a>
</g>
</g>
<!-- Node0&#45;&gt;Node14 -->
<g id="edge6_Node000000_Node000014" class="edge">
<title>Node0&#45;&gt;Node14</title>
<g id="a_edge6_Node000000_Node000014"><a xlink:title=" ">
<path fill="none" stroke="#63b8ff" d="M259.58,-298.96C275.09,-297.03 291.99,-294.92 307.35,-293"/>
<polygon fill="#63b8ff" stroke="#63b8ff" points="259.56,-295.43 250.07,-300.15 260.43,-302.38 259.56,-295.43"/>
</a>
</g>
</g>
<!-- Node20 -->
<g id="Node000020" class="node">
<title>Node20</title>
<g id="a_Node000020"><a xlink:href="classalbert_1_1UrlHandler.html" target="_top" xlink:title="Albert scheme URL handler interface.">
<polygon fill="white" stroke="#666666" points="405,-259.25 314,-259.25 314,-240 405,-240 405,-259.25"/>
<text text-anchor="middle" x="359.5" y="-245.75" font-family="Helvetica,sans-Serif" font-size="10.00">albert::UrlHandler</text>
</a>
</g>
</g>
<!-- Node0&#45;&gt;Node20 -->
<g id="edge12_Node000000_Node000020" class="edge">
<title>Node0&#45;&gt;Node20</title>
<g id="a_edge12_Node000000_Node000020"><a xlink:title=" ">
<path fill="none" stroke="#63b8ff" d="M254.94,-291.91C258.72,-290.56 262.44,-289.13 266,-287.62 282.86,-280.5 285.2,-274.88 302,-267.62 308.71,-264.73 316.04,-262.05 323.14,-259.7"/>
<polygon fill="#63b8ff" stroke="#63b8ff" points="254.05,-288.52 245.69,-295.02 256.28,-295.15 254.05,-288.52"/>
</a>
</g>
</g>
<!-- Node15 -->
<g id="Node000015" class="node">
<title>Node15</title>
<g id="a_Node000015"><a xlink:href="classalbert_1_1AsyncGeneratorQueryHandler.html" target="_top" xlink:title="Coroutine&#45;based asynchronous generator query handler.">
<polygon fill="white" stroke="#666666" points="596.12,-322.88 456.38,-322.88 456.38,-292.38 596.12,-292.38 596.12,-322.88"/>
<text text-anchor="start" x="464.38" y="-309.38" font-family="Helvetica,sans-Serif" font-size="10.00">albert::AsyncGeneratorQuery</text>
<text text-anchor="middle" x="526.25" y="-298.12" font-family="Helvetica,sans-Serif" font-size="10.00">Handler</text>
</a>
</g>
</g>
<!-- Node14&#45;&gt;Node15 -->
<g id="edge7_Node000014_Node000015" class="edge">
<title>Node14&#45;&gt;Node15</title>
<g id="a_edge7_Node000014_Node000015"><a xlink:title=" ">
<path fill="none" stroke="#63b8ff" d="M423.13,-294.61C433.84,-295.97 445.02,-297.4 455.9,-298.78"/>
<polygon fill="#63b8ff" stroke="#63b8ff" points="423.59,-291.14 413.23,-293.35 422.7,-298.08 423.59,-291.14"/>
</a>
</g>
</g>
<!-- Node16 -->
<g id="Node000016" class="node">
<title>Node16</title>
<g id="a_Node000016"><a xlink:href="classalbert_1_1GeneratorQueryHandler.html" target="_top" xlink:title="Coroutine&#45;based synchronous generator query handler.">
<polygon fill="white" stroke="#666666" points="599.5,-274.25 453,-274.25 453,-255 599.5,-255 599.5,-274.25"/>
<text text-anchor="middle" x="526.25" y="-260.75" font-family="Helvetica,sans-Serif" font-size="10.00">albert::GeneratorQueryHandler</text>
</a>
</g>
</g>
<!-- Node14&#45;&gt;Node16 -->
<g id="edge8_Node000014_Node000016" class="edge">
<title>Node14&#45;&gt;Node16</title>
<g id="a_edge8_Node000014_Node000016"><a xlink:title=" ">
<path fill="none" stroke="#63b8ff" d="M422.89,-278.29C432.59,-277 442.68,-275.65 452.59,-274.33"/>
<polygon fill="#63b8ff" stroke="#63b8ff" points="422.67,-274.79 413.23,-279.58 423.6,-281.73 422.67,-274.79"/>
</a>
</g>
</g>
<!-- Node17 -->
<g id="Node000017" class="node">
<title>Node17</title>
<g id="a_Node000017"><a xlink:href="classalbert_1_1RankedQueryHandler.html" target="_top" xlink:title="Usage&#45;ranked query handler.">
<polygon fill="white" stroke="#666666" points="772.25,-274.25 635.5,-274.25 635.5,-255 772.25,-255 772.25,-274.25"/>
<text text-anchor="middle" x="703.88" y="-260.75" font-family="Helvetica,sans-Serif" font-size="10.00">albert::RankedQueryHandler</text>
</a>
</g>
</g>
<!-- Node16&#45;&gt;Node17 -->
<g id="edge9_Node000016_Node000017" class="edge">
<title>Node16&#45;&gt;Node17</title>
<g id="a_edge9_Node000016_Node000017"><a xlink:title=" ">
<path fill="none" stroke="#63b8ff" d="M611.46,-264.62C619.36,-264.62 627.3,-264.62 635.02,-264.62"/>
<polygon fill="#63b8ff" stroke="#63b8ff" points="611.46,-261.13 601.46,-264.63 611.46,-268.13 611.46,-261.13"/>
</a>
</g>
</g>
<!-- Node18 -->
<g id="Node000018" class="node">
<title>Node18</title>
<g id="a_Node000018"><a xlink:href="classalbert_1_1GlobalQueryHandler.html" target="_top" xlink:title="Query handler participating in the global search.">
<polygon fill="white" stroke="#666666" points="939.75,-274.25 808.25,-274.25 808.25,-255 939.75,-255 939.75,-274.25"/>
<text text-anchor="middle" x="874" y="-260.75" font-family="Helvetica,sans-Serif" font-size="10.00">albert::GlobalQueryHandler</text>
</a>
</g>
</g>
<!-- Node17&#45;&gt;Node18 -->
<g id="edge10_Node000017_Node000018" class="edge">
<title>Node17&#45;&gt;Node18</title>
<g id="a_edge10_Node000017_Node000018"><a xlink:title=" ">
<path fill="none" stroke="#63b8ff" d="M783.63,-264.62C791.71,-264.62 799.85,-264.62 807.76,-264.62"/>
<polygon fill="#63b8ff" stroke="#63b8ff" points="783.8,-261.13 773.8,-264.63 783.8,-268.13 783.8,-261.13"/>
</a>
</g>
</g>
<!-- Node19 -->
<g id="Node000019" class="node">
<title>Node19</title>
<g id="a_Node000019"><a xlink:href="classalbert_1_1IndexQueryHandler.html" target="_top" xlink:title="Index&#45;based global query handler.">
<polygon fill="white" stroke="#666666" points="1102.75,-274.25 975.75,-274.25 975.75,-255 1102.75,-255 1102.75,-274.25"/>
<text text-anchor="middle" x="1039.25" y="-260.75" font-family="Helvetica,sans-Serif" font-size="10.00">albert::IndexQueryHandler</text>
</a>
</g>
</g>
<!-- Node18&#45;&gt;Node19 -->
<g id="edge11_Node000018_Node000019" class="edge">
<title>Node18&#45;&gt;Node19</title>
<g id="a_edge11_Node000018_Node000019"><a xlink:title=" ">
<path fill="none" stroke="#63b8ff" d="M951.3,-264.62C959.35,-264.62 967.47,-264.62 975.35,-264.62"/>
<polygon fill="#63b8ff" stroke="#63b8ff" points="951.5,-261.13 941.5,-264.63 951.5,-268.13 951.5,-261.13"/>
</a>
</g>
</g>
<!-- Node11 -->
<g id="Node000011" class="node">
<title>Node11</title>
<g id="a_Node000011"><a xlink:href="classalbert_1_1Item_1_1Observer.html" target="_top" xlink:title="Interface class for item observers.">
<polygon fill="white" stroke="#666666" points="108.25,-278.25 0,-278.25 0,-259 108.25,-259 108.25,-278.25"/>
<text text-anchor="middle" x="54.12" y="-264.75" font-family="Helvetica,sans-Serif" font-size="10.00">albert::Item::Observer</text>
</a>
</g>
</g>
<!-- Node10 -->
<g id="Node000010" class="node">
<title>Node10</title>
<g id="a_Node000010"><a xlink:href="classalbert_1_1QueryResults.html" target="_top" xlink:title="Query results container.">
<polygon fill="white" stroke="#666666" points="256.62,-278.25 153.62,-278.25 153.62,-259 256.62,-259 256.62,-278.25"/>
<text text-anchor="middle" x="205.12" y="-264.75" font-family="Helvetica,sans-Serif" font-size="10.00">albert::QueryResults</text>
</a>
</g>
</g>
<!-- Node11&#45;&gt;Node10 -->
<g id="edge13_Node000011_Node000010" class="edge">
<title>Node11&#45;&gt;Node10</title>
<g id="a_edge13_Node000011_Node000010"><a xlink:title=" ">
<path fill="none" stroke="#8b1a1a" d="M119.7,-268.62C131.05,-268.62 142.72,-268.62 153.62,-268.62"/>
<polygon fill="#8b1a1a" stroke="#8b1a1a" points="120.01,-265.13 110.01,-268.63 120.01,-272.13 120.01,-265.13"/>
</a>
</g>
</g>
<!-- Node3 -->
<g id="Node000003" class="node">
<title>Node3</title>
<g id="a_Node000003"><a xlink:title=" ">
<polygon fill="#e0e0e0" stroke="#999999" points="80.12,-149.25 28.12,-149.25 28.12,-130 80.12,-130 80.12,-149.25"/>
<text text-anchor="middle" x="54.12" y="-135.75" font-family="Helvetica,sans-Serif" font-size="10.00">QObject</text>
</a>
</g>
</g>
<!-- Node3&#45;&gt;Node10 -->
<g id="edge22_Node000003_Node000010" class="edge">
<title>Node3&#45;&gt;Node10</title>
<g id="a_edge22_Node000003_Node000010"><a xlink:title=" ">
<path fill="none" stroke="#63b8ff" d="M65.89,-159.38C80.45,-184.27 108.73,-226.68 144.25,-250.62 148.93,-253.78 154.18,-256.4 159.57,-258.56"/>
<polygon fill="#63b8ff" stroke="#63b8ff" points="69.07,-157.89 61.09,-150.91 62.98,-161.34 69.07,-157.89"/>
</a>
</g>
</g>
<!-- Node4 -->
<g id="Node000004" class="node">
<title>Node4</title>
<g id="a_Node000004"><a xlink:href="classalbert_1_1Download.html" target="_top" xlink:title="Downloads a file from the given URL to the given path.">
<polygon fill="white" stroke="#666666" points="248.75,-241.25 161.5,-241.25 161.5,-222 248.75,-222 248.75,-241.25"/>
<text text-anchor="middle" x="205.12" y="-227.75" font-family="Helvetica,sans-Serif" font-size="10.00">albert::Download</text>
</a>
</g>
</g>
<!-- Node3&#45;&gt;Node4 -->
<g id="edge14_Node000003_Node000004" class="edge">
<title>Node3&#45;&gt;Node4</title>
<g id="a_edge14_Node000003_Node000004"><a xlink:title=" ">
<path fill="none" stroke="#63b8ff" d="M72.42,-157.67C89.32,-174.34 116.48,-198.73 144.25,-213.62 149.99,-216.7 156.33,-219.33 162.67,-221.54"/>
<polygon fill="#63b8ff" stroke="#63b8ff" points="75.16,-155.46 65.64,-150.82 70.19,-160.38 75.16,-155.46"/>
</a>
</g>
</g>
<!-- Node5 -->
<g id="Node000005" class="node">
<title>Node5</title>
<g id="a_Node000005"><a xlink:href="classalbert_1_1ExtensionRegistry.html" target="_top" xlink:title="The common extension pool.">
<polygon fill="white" stroke="#666666" points="266,-204.25 144.25,-204.25 144.25,-185 266,-185 266,-204.25"/>
<text text-anchor="middle" x="205.12" y="-190.75" font-family="Helvetica,sans-Serif" font-size="10.00">albert::ExtensionRegistry</text>
</a>
</g>
</g>
<!-- Node3&#45;&gt;Node5 -->
<g id="edge15_Node000003_Node000005" class="edge">
<title>Node3&#45;&gt;Node5</title>
<g id="a_edge15_Node000003_Node000005"><a xlink:title=" ">
<path fill="none" stroke="#63b8ff" d="M87.93,-154.18C104.63,-161.35 125.35,-169.88 144.25,-176.62 152.02,-179.4 160.45,-182.11 168.47,-184.55"/>
<polygon fill="#63b8ff" stroke="#63b8ff" points="89.54,-151.07 78.98,-150.3 86.76,-157.49 89.54,-151.07"/>
</a>
</g>
</g>
<!-- Node6 -->
<g id="Node000006" class="node">
<title>Node6</title>
<g id="a_Node000006"><a xlink:href="classalbert_1_1Notification.html" target="_top" xlink:title="The notification class.">
<polygon fill="white" stroke="#666666" points="251.75,-167.25 158.5,-167.25 158.5,-148 251.75,-148 251.75,-167.25"/>
<text text-anchor="middle" x="205.12" y="-153.75" font-family="Helvetica,sans-Serif" font-size="10.00">albert::Notification</text>
</a>
</g>
</g>
<!-- Node3&#45;&gt;Node6 -->
<g id="edge16_Node000003_Node000006" class="edge">
<title>Node3&#45;&gt;Node6</title>
<g id="a_edge16_Node000003_Node000006"><a xlink:title=" ">
<path fill="none" stroke="#63b8ff" d="M91.58,-144.03C111.66,-146.45 136.79,-149.49 158.2,-152.08"/>
<polygon fill="#63b8ff" stroke="#63b8ff" points="92.25,-140.58 81.9,-142.86 91.41,-147.53 92.25,-140.58"/>
</a>
</g>
</g>
<!-- Node7 -->
<g id="Node000007" class="node">
<title>Node7</title>
<g id="a_Node000007"><a xlink:href="classalbert_1_1OAuth2.html" target="_top" xlink:title="Provides OAuth2 authentication with support for the Authorization Code Flow with PKCE and refresh tok...">
<polygon fill="white" stroke="#666666" points="243.88,-130.25 166.38,-130.25 166.38,-111 243.88,-111 243.88,-130.25"/>
<text text-anchor="middle" x="205.12" y="-116.75" font-family="Helvetica,sans-Serif" font-size="10.00">albert::OAuth2</text>
</a>
</g>
</g>
<!-- Node3&#45;&gt;Node7 -->
<g id="edge17_Node000003_Node000007" class="edge">
<title>Node3&#45;&gt;Node7</title>
<g id="a_edge17_Node000003_Node000007"><a xlink:title=" ">
<path fill="none" stroke="#63b8ff" d="M91.58,-134.98C114.2,-132.09 143.21,-128.39 166.11,-125.47"/>
<polygon fill="#63b8ff" stroke="#63b8ff" points="91.38,-131.47 81.9,-136.21 92.26,-138.42 91.38,-131.47"/>
</a>
</g>
</g>
<!-- Node2 -->
<g id="Node000002" class="node">
<title>Node2</title>
<g id="a_Node000002"><a xlink:href="classalbert_1_1PluginInstance.html" target="_top" xlink:title="Abstract plugin instance class.">
<polygon fill="white" stroke="#666666" points="259.62,-93.25 150.62,-93.25 150.62,-74 259.62,-74 259.62,-93.25"/>
<text text-anchor="middle" x="205.12" y="-79.75" font-family="Helvetica,sans-Serif" font-size="10.00">albert::PluginInstance</text>
</a>
</g>
</g>
<!-- Node3&#45;&gt;Node2 -->
<g id="edge18_Node000003_Node000002" class="edge">
<title>Node3&#45;&gt;Node2</title>
<g id="a_edge18_Node000003_Node000002"><a xlink:title=" ">
<path fill="none" stroke="#63b8ff" d="M87.21,-124.93C104.02,-117.48 125.05,-108.58 144.25,-101.62 151.9,-98.85 160.21,-96.16 168.14,-93.74"/>
<polygon fill="#63b8ff" stroke="#63b8ff" points="85.91,-121.67 78.21,-128.95 88.77,-128.06 85.91,-121.67"/>
</a>
</g>
</g>
<!-- Node8 -->
<g id="Node000008" class="node">
<title>Node8</title>
<g id="a_Node000008"><a xlink:href="classalbert_1_1PluginLoader.html" target="_top" xlink:title="Asynchronous plugin loader.">
<polygon fill="white" stroke="#666666" points="255.88,-56.25 154.38,-56.25 154.38,-37 255.88,-37 255.88,-56.25"/>
<text text-anchor="middle" x="205.12" y="-42.75" font-family="Helvetica,sans-Serif" font-size="10.00">albert::PluginLoader</text>
</a>
</g>
</g>
<!-- Node3&#45;&gt;Node8 -->
<g id="edge20_Node000003_Node000008" class="edge">
<title>Node3&#45;&gt;Node8</title>
<g id="a_edge20_Node000003_Node000008"><a xlink:title=" ">
<path fill="none" stroke="#63b8ff" d="M72.1,-121.6C88.94,-104.69 116.23,-79.78 144.25,-64.62 149.98,-61.53 156.31,-58.89 162.65,-56.67"/>
<polygon fill="#63b8ff" stroke="#63b8ff" points="69.81,-118.93 65.35,-128.54 74.83,-123.81 69.81,-118.93"/>
</a>
</g>
</g>
<!-- Node9 -->
<g id="Node000009" class="node">
<title>Node9</title>
<g id="a_Node000009"><a xlink:href="classalbert_1_1QueryExecution.html" target="_top" xlink:title="Abstract asynchronous query execution interface.">
<polygon fill="white" stroke="#666666" points="261.12,-19.25 149.12,-19.25 149.12,0 261.12,0 261.12,-19.25"/>
<text text-anchor="middle" x="205.12" y="-5.75" font-family="Helvetica,sans-Serif" font-size="10.00">albert::QueryExecution</text>
</a>
</g>
</g>
<!-- Node3&#45;&gt;Node9 -->
<g id="edge21_Node000003_Node000009" class="edge">
<title>Node3&#45;&gt;Node9</title>
<g id="a_edge21_Node000003_Node000009"><a xlink:title=" ">
<path fill="none" stroke="#63b8ff" d="M65.84,-119.69C80.35,-94.58 108.58,-51.78 144.25,-27.62 148.92,-24.46 154.17,-21.84 159.56,-19.67"/>
<polygon fill="#63b8ff" stroke="#63b8ff" points="62.89,-117.81 61.06,-128.24 69,-121.22 62.89,-117.81"/>
</a>
</g>
</g>
<!-- Node2&#45;&gt;Node1 -->
<g id="edge19_Node000002_Node000001" class="edge">
<title>Node2&#45;&gt;Node1</title>
<g id="a_edge19_Node000002_Node000001"><a xlink:title=" ">
<path fill="none" stroke="#63b8ff" d="M255.66,-97.43C259.2,-98.75 262.68,-100.15 266,-101.62 295.33,-114.66 326.75,-135.27 344.38,-147.52"/>
<polygon fill="#63b8ff" stroke="#63b8ff" points="257,-94.19 246.41,-94.24 254.72,-100.81 257,-94.19"/>
</a>
</g>
</g>
</g>
</svg>
