<?xml version="1.0" encoding="UTF-8" standalone="no"?>
<!DOCTYPE svg PUBLIC "-//W3C//DTD SVG 1.1//EN"
 "http://www.w3.org/Graphics/SVG/1.1/DTD/svg11.dtd">
<!-- Generated by graphviz version 9.0.0 (20230911.1827)
 -->
<!-- Title: Graphical Class Hierarchy Pages: 1 -->
<svg width="705pt" height="465pt"
 viewBox="0.00 0.00 704.50 465.25" xmlns="http://www.w3.org/2000/svg" xmlns:xlink="http://www.w3.org/1999/xlink">
<g id="graph0" class="graph" transform="scale(1 1) rotate(0) translate(4 461.25)">
<title>Graphical Class Hierarchy</title>
<!-- Node0 -->
<g id="Node000000" class="node">
<title>Node0</title>
<g id="a_Node000000"><a xlink:href="classalbert_1_1Extension.html" target="_top" xlink:title="Abstract extension class.">
<polygon fill="white" stroke="#666666" points="193.62,-364.25 107.12,-364.25 107.12,-345 193.62,-345 193.62,-364.25"/>
<text text-anchor="middle" x="150.38" y="-350.75" font-family="Helvetica,sans-Serif" font-size="10.00">albert::Extension</text>
</a>
</g>
</g>
<!-- Node1 -->
<g id="Node000001" class="node">
<title>Node1</title>
<g id="a_Node000001"><a xlink:href="classalbert_1_1FallbackHandler.html" target="_top" xlink:title="Abstract fallback provider.">
<polygon fill="white" stroke="#666666" points="373.12,-457.25 258.12,-457.25 258.12,-438 373.12,-438 373.12,-457.25"/>
<text text-anchor="middle" x="315.62" y="-443.75" font-family="Helvetica,sans-Serif" font-size="10.00">albert::FallbackHandler</text>
</a>
</g>
</g>
<!-- Node0&#45;&gt;Node1 -->
<g id="edge1_Node000000_Node000001" class="edge">
<title>Node0&#45;&gt;Node1</title>
<g id="a_edge1_Node000000_Node000001"><a xlink:title=" ">
<path fill="none" stroke="#63b8ff" d="M169.9,-372.5C188.45,-389.48 218.51,-414.59 248.75,-429.62 255.01,-432.74 261.89,-435.38 268.76,-437.59"/>
<polygon fill="#63b8ff" stroke="#63b8ff" points="172.33,-369.99 162.64,-365.71 167.55,-375.1 172.33,-369.99"/>
</a>
</g>
</g>
<!-- Node2 -->
<g id="Node000002" class="node">
<title>Node2</title>
<g id="a_Node000002"><a xlink:href="classalbert_1_1PluginProvider.html" target="_top" xlink:title="Plugin provider interface class.">
<polygon fill="white" stroke="#666666" points="369.38,-420.25 261.88,-420.25 261.88,-401 369.38,-401 369.38,-420.25"/>
<text text-anchor="middle" x="315.62" y="-406.75" font-family="Helvetica,sans-Serif" font-size="10.00">albert::PluginProvider</text>
</a>
</g>
</g>
<!-- Node0&#45;&gt;Node2 -->
<g id="edge2_Node000000_Node000002" class="edge">
<title>Node0&#45;&gt;Node2</title>
<g id="a_edge2_Node000000_Node000002"><a xlink:title=" ">
<path fill="none" stroke="#63b8ff" d="M185.69,-369.04C204.2,-376.55 227.53,-385.61 248.75,-392.62 257.19,-395.42 266.34,-398.12 275.06,-400.54"/>
<polygon fill="#63b8ff" stroke="#63b8ff" points="187.11,-365.84 176.53,-365.28 184.45,-372.31 187.11,-365.84"/>
</a>
</g>
</g>
<!-- Node3 -->
<g id="Node000003" class="node">
<title>Node3</title>
<g id="a_Node000003"><a xlink:href="classalbert_1_1TriggerQueryHandler.html" target="_top" xlink:title="Abstract trigger query handler.">
<polygon fill="white" stroke="#666666" points="382.5,-383.25 248.75,-383.25 248.75,-364 382.5,-364 382.5,-383.25"/>
<text text-anchor="middle" x="315.62" y="-369.75" font-family="Helvetica,sans-Serif" font-size="10.00">albert::TriggerQueryHandler</text>
</a>
</g>
</g>
<!-- Node0&#45;&gt;Node3 -->
<g id="edge3_Node000000_Node000003" class="edge">
<title>Node0&#45;&gt;Node3</title>
<g id="a_edge3_Node000000_Node000003"><a xlink:title=" ">
<path fill="none" stroke="#63b8ff" d="M205.12,-360.88C218.93,-362.49 233.96,-364.24 248.33,-365.91"/>
<polygon fill="#63b8ff" stroke="#63b8ff" points="205.68,-357.42 195.34,-359.74 204.87,-364.38 205.68,-357.42"/>
</a>
</g>
</g>
<!-- Node6 -->
<g id="Node000006" class="node">
<title>Node6</title>
<g id="a_Node000006"><a xlink:href="classalbert_1_1UrlHandler.html" target="_top" xlink:title="Albert scheme URL handler interface.">
<polygon fill="white" stroke="#666666" points="361.12,-346.25 270.12,-346.25 270.12,-327 361.12,-327 361.12,-346.25"/>
<text text-anchor="middle" x="315.62" y="-332.75" font-family="Helvetica,sans-Serif" font-size="10.00">albert::UrlHandler</text>
</a>
</g>
</g>
<!-- Node0&#45;&gt;Node6 -->
<g id="edge6_Node000000_Node000006" class="edge">
<title>Node0&#45;&gt;Node6</title>
<g id="a_edge6_Node000000_Node000006"><a xlink:title=" ">
<path fill="none" stroke="#63b8ff" d="M205.15,-348.7C226.09,-346.39 249.81,-343.77 269.8,-341.57"/>
<polygon fill="#63b8ff" stroke="#63b8ff" points="204.9,-345.2 195.35,-349.78 205.67,-352.16 204.9,-345.2"/>
</a>
</g>
</g>
<!-- Node7 -->
<g id="Node000007" class="node">
<title>Node7</title>
<g id="a_Node000007"><a xlink:href="classalbert_1_1detail_1_1TelemetryProvider.html" target="_top" xlink:title=" ">
<polygon fill="white" stroke="#666666" points="373.12,-308.88 258.12,-308.88 258.12,-278.38 373.12,-278.38 373.12,-308.88"/>
<text text-anchor="start" x="266.12" y="-295.38" font-family="Helvetica,sans-Serif" font-size="10.00">albert::detail::Telemetry</text>
<text text-anchor="middle" x="315.62" y="-284.12" font-family="Helvetica,sans-Serif" font-size="10.00">Provider</text>
</a>
</g>
</g>
<!-- Node0&#45;&gt;Node7 -->
<g id="edge7_Node000000_Node000007" class="edge">
<title>Node0&#45;&gt;Node7</title>
<g id="a_edge7_Node000000_Node000007"><a xlink:title=" ">
<path fill="none" stroke="#63b8ff" d="M188.13,-340.52C206.34,-333.57 228.68,-325.09 248.75,-317.62 256.05,-314.91 263.82,-312.05 271.36,-309.29"/>
<polygon fill="#63b8ff" stroke="#63b8ff" points="186.88,-337.25 178.79,-344.09 189.38,-343.79 186.88,-337.25"/>
</a>
</g>
</g>
<!-- Node8 -->
<g id="Node000008" class="node">
<title>Node8</title>
<g id="a_Node000008"><a xlink:href="classalbert_1_1util_1_1ExtensionPlugin.html" target="_top" xlink:title="Convenience base class for extension plugins.">
<polygon fill="white" stroke="#666666" points="381,-260.25 250.25,-260.25 250.25,-241 381,-241 381,-260.25"/>
<text text-anchor="middle" x="315.62" y="-246.75" font-family="Helvetica,sans-Serif" font-size="10.00">albert::util::ExtensionPlugin</text>
</a>
</g>
</g>
<!-- Node0&#45;&gt;Node8 -->
<g id="edge8_Node000000_Node000008" class="edge">
<title>Node0&#45;&gt;Node8</title>
<g id="a_edge8_Node000000_Node000008"><a xlink:title=" ">
<path fill="none" stroke="#63b8ff" d="M167.54,-336.42C185.56,-317.18 216.44,-287.25 248.75,-269.62 255.23,-266.09 262.43,-263.16 269.63,-260.73"/>
<polygon fill="#63b8ff" stroke="#63b8ff" points="165.18,-333.8 161.01,-343.54 170.35,-338.53 165.18,-333.8"/>
</a>
</g>
</g>
<!-- Node4 -->
<g id="Node000004" class="node">
<title>Node4</title>
<g id="a_Node000004"><a xlink:href="classalbert_1_1GlobalQueryHandler.html" target="_top" xlink:title="Abstract global query handler.">
<polygon fill="white" stroke="#666666" points="550,-383.25 418.5,-383.25 418.5,-364 550,-364 550,-383.25"/>
<text text-anchor="middle" x="484.25" y="-369.75" font-family="Helvetica,sans-Serif" font-size="10.00">albert::GlobalQueryHandler</text>
</a>
</g>
</g>
<!-- Node3&#45;&gt;Node4 -->
<g id="edge4_Node000003_Node000004" class="edge">
<title>Node3&#45;&gt;Node4</title>
<g id="a_edge4_Node000003_Node000004"><a xlink:title=" ">
<path fill="none" stroke="#63b8ff" d="M394.23,-373.62C402.26,-373.62 410.36,-373.62 418.23,-373.62"/>
<polygon fill="#63b8ff" stroke="#63b8ff" points="394.47,-370.13 384.47,-373.63 394.47,-377.13 394.47,-370.13"/>
</a>
</g>
</g>
<!-- Node5 -->
<g id="Node000005" class="node">
<title>Node5</title>
<g id="a_Node000005"><a xlink:href="classalbert_1_1util_1_1IndexQueryHandler.html" target="_top" xlink:title="Index query handler class.">
<polygon fill="white" stroke="#666666" points="696.5,-388.88 586,-388.88 586,-358.38 696.5,-358.38 696.5,-388.88"/>
<text text-anchor="start" x="594" y="-375.38" font-family="Helvetica,sans-Serif" font-size="10.00">albert::util::IndexQuery</text>
<text text-anchor="middle" x="641.25" y="-364.12" font-family="Helvetica,sans-Serif" font-size="10.00">Handler</text>
</a>
</g>
</g>
<!-- Node4&#45;&gt;Node5 -->
<g id="edge5_Node000004_Node000005" class="edge">
<title>Node4&#45;&gt;Node5</title>
<g id="a_edge5_Node000004_Node000005"><a xlink:title=" ">
<path fill="none" stroke="#63b8ff" d="M561.49,-373.62C569.59,-373.62 577.72,-373.62 585.5,-373.62"/>
<polygon fill="#63b8ff" stroke="#63b8ff" points="561.6,-370.13 551.6,-373.63 561.6,-377.13 561.6,-370.13"/>
</a>
</g>
</g>
<!-- Node11 -->
<g id="Node000011" class="node">
<title>Node11</title>
<g id="a_Node000011"><a xlink:title=" ">
<polygon fill="#e0e0e0" stroke="#999999" points="52,-148.25 0,-148.25 0,-129 52,-129 52,-148.25"/>
<text text-anchor="middle" x="26" y="-134.75" font-family="Helvetica,sans-Serif" font-size="10.00">QObject</text>
</a>
</g>
</g>
<!-- Node12 -->
<g id="Node000012" class="node">
<title>Node12</title>
<g id="a_Node000012"><a xlink:href="classalbert_1_1ExtensionRegistry.html" target="_top" xlink:title="The common extension pool.">
<polygon fill="white" stroke="#666666" points="211.25,-278.25 89.5,-278.25 89.5,-259 211.25,-259 211.25,-278.25"/>
<text text-anchor="middle" x="150.38" y="-264.75" font-family="Helvetica,sans-Serif" font-size="10.00">albert::ExtensionRegistry</text>
</a>
</g>
</g>
<!-- Node11&#45;&gt;Node12 -->
<g id="edge9_Node000011_Node000012" class="edge">
<title>Node11&#45;&gt;Node12</title>
<g id="a_edge9_Node000011_Node000012"><a xlink:title=" ">
<path fill="none" stroke="#63b8ff" d="M32.96,-159.6C41.21,-184.86 58.53,-226.85 88,-250.62 91.98,-253.83 96.5,-256.47 101.26,-258.63"/>
<polygon fill="#63b8ff" stroke="#63b8ff" points="36.34,-158.68 30.07,-150.14 29.65,-160.73 36.34,-158.68"/>
</a>
</g>
</g>
<!-- Node9 -->
<g id="Node000009" class="node">
<title>Node9</title>
<g id="a_Node000009"><a xlink:href="classalbert_1_1PluginInstance.html" target="_top" xlink:title="Abstract plugin instance class.">
<polygon fill="white" stroke="#666666" points="204.88,-241.25 95.88,-241.25 95.88,-222 204.88,-222 204.88,-241.25"/>
<text text-anchor="middle" x="150.38" y="-227.75" font-family="Helvetica,sans-Serif" font-size="10.00">albert::PluginInstance</text>
</a>
</g>
</g>
<!-- Node11&#45;&gt;Node9 -->
<g id="edge10_Node000011_Node000009" class="edge">
<title>Node11&#45;&gt;Node9</title>
<g id="a_edge10_Node000011_Node000009"><a xlink:title=" ">
<path fill="none" stroke="#63b8ff" d="M38.08,-158.03C48.76,-175.07 66.47,-199.31 88,-213.62 92.72,-216.76 97.99,-219.36 103.41,-221.51"/>
<polygon fill="#63b8ff" stroke="#63b8ff" points="41.28,-156.57 33.14,-149.8 35.28,-160.18 41.28,-156.57"/>
</a>
</g>
</g>
<!-- Node13 -->
<g id="Node000013" class="node">
<title>Node13</title>
<g id="a_Node000013"><a xlink:href="classalbert_1_1PluginLoader.html" target="_top" xlink:title="Asynchronous plugin loader turning a physical plugin into a logical PluginInstance.">
<polygon fill="white" stroke="#666666" points="201.12,-204.25 99.62,-204.25 99.62,-185 201.12,-185 201.12,-204.25"/>
<text text-anchor="middle" x="150.38" y="-190.75" font-family="Helvetica,sans-Serif" font-size="10.00">albert::PluginLoader</text>
</a>
</g>
</g>
<!-- Node11&#45;&gt;Node13 -->
<g id="edge13_Node000011_Node000013" class="edge">
<title>Node11&#45;&gt;Node13</title>
<g id="a_edge13_Node000011_Node000013"><a xlink:title=" ">
<path fill="none" stroke="#63b8ff" d="M49.82,-154.91C60.94,-162.3 74.75,-170.69 88,-176.62 94.69,-179.62 102.01,-182.27 109.19,-184.55"/>
<polygon fill="#63b8ff" stroke="#63b8ff" points="51.93,-152.11 41.7,-149.36 47.98,-157.89 51.93,-152.11"/>
</a>
</g>
</g>
<!-- Node14 -->
<g id="Node000014" class="node">
<title>Node14</title>
<g id="a_Node000014"><a xlink:href="classalbert_1_1Query.html" target="_top" xlink:title="Common query object.">
<polygon fill="white" stroke="#666666" points="185.38,-167.25 115.38,-167.25 115.38,-148 185.38,-148 185.38,-167.25"/>
<text text-anchor="middle" x="150.38" y="-153.75" font-family="Helvetica,sans-Serif" font-size="10.00">albert::Query</text>
</a>
</g>
</g>
<!-- Node11&#45;&gt;Node14 -->
<g id="edge14_Node000011_Node000014" class="edge">
<title>Node11&#45;&gt;Node14</title>
<g id="a_edge14_Node000011_Node000014"><a xlink:title=" ">
<path fill="none" stroke="#63b8ff" d="M63.68,-144.32C80.04,-146.86 99.19,-149.83 115.23,-152.32"/>
<polygon fill="#63b8ff" stroke="#63b8ff" points="64.27,-140.87 53.85,-142.79 63.2,-147.79 64.27,-140.87"/>
</a>
</g>
</g>
<!-- Node15 -->
<g id="Node000015" class="node">
<title>Node15</title>
<g id="a_Node000015"><a xlink:href="classalbert_1_1detail_1_1InputHistory.html" target="_top" xlink:title="Input history class.">
<polygon fill="white" stroke="#666666" points="212.75,-130.25 88,-130.25 88,-111 212.75,-111 212.75,-130.25"/>
<text text-anchor="middle" x="150.38" y="-116.75" font-family="Helvetica,sans-Serif" font-size="10.00">albert::detail::InputHistory</text>
</a>
</g>
</g>
<!-- Node11&#45;&gt;Node15 -->
<g id="edge15_Node000011_Node000015" class="edge">
<title>Node11&#45;&gt;Node15</title>
<g id="a_edge15_Node000011_Node000015"><a xlink:title=" ">
<path fill="none" stroke="#63b8ff" d="M63.71,-133.23C71.3,-132.11 79.49,-130.9 87.7,-129.7"/>
<polygon fill="#63b8ff" stroke="#63b8ff" points="63.24,-129.76 53.85,-134.68 64.26,-136.68 63.24,-129.76"/>
</a>
</g>
</g>
<!-- Node16 -->
<g id="Node000016" class="node">
<title>Node16</title>
<g id="a_Node000016"><a xlink:href="classalbert_1_1util_1_1Download.html" target="_top" xlink:title="Downloads a file from the given URL to the given path.">
<polygon fill="white" stroke="#666666" points="202.62,-93.25 98.12,-93.25 98.12,-74 202.62,-74 202.62,-93.25"/>
<text text-anchor="middle" x="150.38" y="-79.75" font-family="Helvetica,sans-Serif" font-size="10.00">albert::util::Download</text>
</a>
</g>
</g>
<!-- Node11&#45;&gt;Node16 -->
<g id="edge16_Node000011_Node000016" class="edge">
<title>Node11&#45;&gt;Node16</title>
<g id="a_edge16_Node000011_Node000016"><a xlink:title=" ">
<path fill="none" stroke="#63b8ff" d="M50.31,-122.52C61.37,-115.4 74.98,-107.36 88,-101.62 94.81,-98.62 102.26,-95.96 109.54,-93.66"/>
<polygon fill="#63b8ff" stroke="#63b8ff" points="48.64,-119.43 42.23,-127.87 52.5,-125.27 48.64,-119.43"/>
</a>
</g>
</g>
<!-- Node17 -->
<g id="Node000017" class="node">
<title>Node17</title>
<g id="a_Node000017"><a xlink:href="classalbert_1_1util_1_1Notification.html" target="_top" xlink:title="The notification class.">
<polygon fill="white" stroke="#666666" points="205.62,-56.25 95.12,-56.25 95.12,-37 205.62,-37 205.62,-56.25"/>
<text text-anchor="middle" x="150.38" y="-42.75" font-family="Helvetica,sans-Serif" font-size="10.00">albert::util::Notification</text>
</a>
</g>
</g>
<!-- Node11&#45;&gt;Node17 -->
<g id="edge17_Node000011_Node000017" class="edge">
<title>Node11&#45;&gt;Node17</title>
<g id="a_edge17_Node000011_Node000017"><a xlink:title=" ">
<path fill="none" stroke="#63b8ff" d="M38.31,-119.21C49.06,-102.41 66.71,-78.67 88,-64.62 92.82,-61.44 98.21,-58.81 103.75,-56.64"/>
<polygon fill="#63b8ff" stroke="#63b8ff" points="35.57,-116.98 33.33,-127.33 41.54,-120.63 35.57,-116.98"/>
</a>
</g>
</g>
<!-- Node18 -->
<g id="Node000018" class="node">
<title>Node18</title>
<g id="a_Node000018"><a xlink:href="classalbert_1_1util_1_1OAuth2.html" target="_top" xlink:title="Provides OAuth2 authentication with support for the Authorization Code Flow with PKCE and refresh tok...">
<polygon fill="white" stroke="#666666" points="197.75,-19.25 103,-19.25 103,0 197.75,0 197.75,-19.25"/>
<text text-anchor="middle" x="150.38" y="-5.75" font-family="Helvetica,sans-Serif" font-size="10.00">albert::util::OAuth2</text>
</a>
</g>
</g>
<!-- Node11&#45;&gt;Node18 -->
<g id="edge18_Node000011_Node000018" class="edge">
<title>Node11&#45;&gt;Node18</title>
<g id="a_edge18_Node000011_Node000018"><a xlink:title=" ">
<path fill="none" stroke="#63b8ff" d="M33.01,-117.84C41.31,-92.8 58.68,-51.18 88,-27.62 92.33,-24.15 97.31,-21.34 102.52,-19.08"/>
<polygon fill="#63b8ff" stroke="#63b8ff" points="29.73,-116.61 30.1,-127.2 36.41,-118.69 29.73,-116.61"/>
</a>
</g>
</g>
<!-- Node9&#45;&gt;Node8 -->
<g id="edge12_Node000009_Node000008" class="edge">
<title>Node9&#45;&gt;Node8</title>
<g id="a_edge12_Node000009_Node000008"><a xlink:title=" ">
<path fill="none" stroke="#63b8ff" d="M216.57,-239.21C227.57,-240.49 238.99,-241.82 249.99,-243.1"/>
<polygon fill="#63b8ff" stroke="#63b8ff" points="217.12,-235.75 206.78,-238.07 216.31,-242.71 217.12,-235.75"/>
</a>
</g>
</g>
<!-- Node10 -->
<g id="Node000010" class="node">
<title>Node10</title>
<g id="a_Node000010"><a xlink:href="classalbert_1_1detail_1_1Frontend.html" target="_top" xlink:title="The interface for albert frontends.">
<polygon fill="white" stroke="#666666" points="370.88,-223.25 260.38,-223.25 260.38,-204 370.88,-204 370.88,-223.25"/>
<text text-anchor="middle" x="315.62" y="-209.75" font-family="Helvetica,sans-Serif" font-size="10.00">albert::detail::Frontend</text>
</a>
</g>
</g>
<!-- Node9&#45;&gt;Node10 -->
<g id="edge11_Node000009_Node000010" class="edge">
<title>Node9&#45;&gt;Node10</title>
<g id="a_edge11_Node000009_Node000010"><a xlink:title=" ">
<path fill="none" stroke="#63b8ff" d="M216.61,-224.43C230.97,-222.85 246.04,-221.19 259.94,-219.65"/>
<polygon fill="#63b8ff" stroke="#63b8ff" points="216.34,-220.94 206.79,-225.52 217.11,-227.9 216.34,-220.94"/>
</a>
</g>
</g>
</g>
</svg>
