<?xml version="1.0" encoding="UTF-8" standalone="no"?>
<!DOCTYPE svg PUBLIC "-//W3C//DTD SVG 1.1//EN"
 "http://www.w3.org/Graphics/SVG/1.1/DTD/svg11.dtd">
<!-- Generated by graphviz version 9.0.0 (20230911.1827)
 -->
<!-- Title: Graphical Class Hierarchy Pages: 1 -->
<svg width="601pt" height="397pt"
 viewBox="0.00 0.00 600.75 397.25" xmlns="http://www.w3.org/2000/svg" xmlns:xlink="http://www.w3.org/1999/xlink">
<g id="graph0" class="graph" transform="scale(1 1) rotate(0) translate(4 393.25)">
<title>Graphical Class Hierarchy</title>
<!-- Node0 -->
<g id="Node000000" class="node">
<title>Node0</title>
<g id="a_Node000000"><a xlink:href="classalbert_1_1Extension.html" target="_top" xlink:title="Abstract extension class.">
<polygon fill="white" stroke="#666666" points="97.75,-315.25 11.25,-315.25 11.25,-296 97.75,-296 97.75,-315.25"/>
<text text-anchor="middle" x="54.5" y="-301.75" font-family="Helvetica,sans-Serif" font-size="10.00">albert::Extension</text>
</a>
</g>
</g>
<!-- Node1 -->
<g id="Node000001" class="node">
<title>Node1</title>
<g id="a_Node000001"><a xlink:href="classalbert_1_1FallbackHandler.html" target="_top" xlink:title="Abstract fallback provider.">
<polygon fill="white" stroke="#666666" points="269.38,-389.25 154.38,-389.25 154.38,-370 269.38,-370 269.38,-389.25"/>
<text text-anchor="middle" x="211.88" y="-375.75" font-family="Helvetica,sans-Serif" font-size="10.00">albert::FallbackHandler</text>
</a>
</g>
</g>
<!-- Node0&#45;&gt;Node1 -->
<g id="edge1_Node000000_Node000001" class="edge">
<title>Node0&#45;&gt;Node1</title>
<g id="a_edge1_Node000000_Node000001"><a xlink:title=" ">
<path fill="none" stroke="#63b8ff" d="M78.1,-322.38C95.6,-334.69 120.86,-351.05 145,-361.62 151.95,-364.67 159.54,-367.32 167.02,-369.58"/>
<polygon fill="#63b8ff" stroke="#63b8ff" points="80.15,-319.54 69.99,-316.55 76.07,-325.23 80.15,-319.54"/>
</a>
</g>
</g>
<!-- Node2 -->
<g id="Node000002" class="node">
<title>Node2</title>
<g id="a_Node000002"><a xlink:href="classalbert_1_1PluginProvider.html" target="_top" xlink:title="Plugin provider interface class.">
<polygon fill="white" stroke="#666666" points="265.62,-352.25 158.12,-352.25 158.12,-333 265.62,-333 265.62,-352.25"/>
<text text-anchor="middle" x="211.88" y="-338.75" font-family="Helvetica,sans-Serif" font-size="10.00">albert::PluginProvider</text>
</a>
</g>
</g>
<!-- Node0&#45;&gt;Node2 -->
<g id="edge2_Node000000_Node000002" class="edge">
<title>Node0&#45;&gt;Node2</title>
<g id="a_edge2_Node000000_Node000002"><a xlink:title=" ">
<path fill="none" stroke="#63b8ff" d="M109.09,-318.39C128.5,-323.01 150.15,-328.16 168.47,-332.53"/>
<polygon fill="#63b8ff" stroke="#63b8ff" points="109.97,-315 99.43,-316.09 108.35,-321.81 109.97,-315"/>
</a>
</g>
</g>
<!-- Node3 -->
<g id="Node000003" class="node">
<title>Node3</title>
<g id="a_Node000003"><a xlink:href="classalbert_1_1TriggerQueryHandler.html" target="_top" xlink:title="Abstract trigger query handler.">
<polygon fill="white" stroke="#666666" points="278.75,-315.25 145,-315.25 145,-296 278.75,-296 278.75,-315.25"/>
<text text-anchor="middle" x="211.88" y="-301.75" font-family="Helvetica,sans-Serif" font-size="10.00">albert::TriggerQueryHandler</text>
</a>
</g>
</g>
<!-- Node0&#45;&gt;Node3 -->
<g id="edge3_Node000000_Node000003" class="edge">
<title>Node0&#45;&gt;Node3</title>
<g id="a_edge3_Node000000_Node000003"><a xlink:title=" ">
<path fill="none" stroke="#63b8ff" d="M109.44,-305.62C120.76,-305.62 132.82,-305.62 144.53,-305.62"/>
<polygon fill="#63b8ff" stroke="#63b8ff" points="109.47,-302.13 99.47,-305.63 109.47,-309.13 109.47,-302.13"/>
</a>
</g>
</g>
<!-- Node6 -->
<g id="Node000006" class="node">
<title>Node6</title>
<g id="a_Node000006"><a xlink:href="classalbert_1_1UrlHandler.html" target="_top" xlink:title="Albert scheme URL handler interface.">
<polygon fill="white" stroke="#666666" points="257.38,-278.25 166.38,-278.25 166.38,-259 257.38,-259 257.38,-278.25"/>
<text text-anchor="middle" x="211.88" y="-264.75" font-family="Helvetica,sans-Serif" font-size="10.00">albert::UrlHandler</text>
</a>
</g>
</g>
<!-- Node0&#45;&gt;Node6 -->
<g id="edge6_Node000000_Node000006" class="edge">
<title>Node0&#45;&gt;Node6</title>
<g id="a_edge6_Node000000_Node000006"><a xlink:title=" ">
<path fill="none" stroke="#63b8ff" d="M109.09,-292.86C128.5,-288.24 150.15,-283.09 168.47,-278.72"/>
<polygon fill="#63b8ff" stroke="#63b8ff" points="108.35,-289.44 99.43,-295.16 109.97,-296.25 108.35,-289.44"/>
</a>
</g>
</g>
<!-- Node7 -->
<g id="Node000007" class="node">
<title>Node7</title>
<g id="a_Node000007"><a xlink:href="classalbert_1_1util_1_1ExtensionPlugin.html" target="_top" xlink:title="Convenience base class for extension plugins.">
<polygon fill="white" stroke="#666666" points="277.25,-241.25 146.5,-241.25 146.5,-222 277.25,-222 277.25,-241.25"/>
<text text-anchor="middle" x="211.88" y="-227.75" font-family="Helvetica,sans-Serif" font-size="10.00">albert::util::ExtensionPlugin</text>
</a>
</g>
</g>
<!-- Node0&#45;&gt;Node7 -->
<g id="edge7_Node000000_Node000007" class="edge">
<title>Node0&#45;&gt;Node7</title>
<g id="a_edge7_Node000000_Node000007"><a xlink:title=" ">
<path fill="none" stroke="#63b8ff" d="M78.1,-288.87C95.6,-276.56 120.86,-260.2 145,-249.62 151.95,-246.58 159.54,-243.93 167.02,-241.67"/>
<polygon fill="#63b8ff" stroke="#63b8ff" points="76.07,-286.02 69.99,-294.7 80.15,-291.71 76.07,-286.02"/>
</a>
</g>
</g>
<!-- Node4 -->
<g id="Node000004" class="node">
<title>Node4</title>
<g id="a_Node000004"><a xlink:href="classalbert_1_1GlobalQueryHandler.html" target="_top" xlink:title="Abstract global query handler.">
<polygon fill="white" stroke="#666666" points="446.25,-315.25 314.75,-315.25 314.75,-296 446.25,-296 446.25,-315.25"/>
<text text-anchor="middle" x="380.5" y="-301.75" font-family="Helvetica,sans-Serif" font-size="10.00">albert::GlobalQueryHandler</text>
</a>
</g>
</g>
<!-- Node3&#45;&gt;Node4 -->
<g id="edge4_Node000003_Node000004" class="edge">
<title>Node3&#45;&gt;Node4</title>
<g id="a_edge4_Node000003_Node000004"><a xlink:title=" ">
<path fill="none" stroke="#63b8ff" d="M290.48,-305.62C298.51,-305.62 306.61,-305.62 314.48,-305.62"/>
<polygon fill="#63b8ff" stroke="#63b8ff" points="290.72,-302.13 280.72,-305.63 290.72,-309.13 290.72,-302.13"/>
</a>
</g>
</g>
<!-- Node5 -->
<g id="Node000005" class="node">
<title>Node5</title>
<g id="a_Node000005"><a xlink:href="classalbert_1_1util_1_1IndexQueryHandler.html" target="_top" xlink:title="Index query handler class.">
<polygon fill="white" stroke="#666666" points="592.75,-320.88 482.25,-320.88 482.25,-290.38 592.75,-290.38 592.75,-320.88"/>
<text text-anchor="start" x="490.25" y="-307.38" font-family="Helvetica,sans-Serif" font-size="10.00">albert::util::IndexQuery</text>
<text text-anchor="middle" x="537.5" y="-296.12" font-family="Helvetica,sans-Serif" font-size="10.00">Handler</text>
</a>
</g>
</g>
<!-- Node4&#45;&gt;Node5 -->
<g id="edge5_Node000004_Node000005" class="edge">
<title>Node4&#45;&gt;Node5</title>
<g id="a_edge5_Node000004_Node000005"><a xlink:title=" ">
<path fill="none" stroke="#63b8ff" d="M457.74,-305.62C465.84,-305.62 473.97,-305.62 481.75,-305.62"/>
<polygon fill="#63b8ff" stroke="#63b8ff" points="457.85,-302.13 447.85,-305.63 457.85,-309.13 457.85,-302.13"/>
</a>
</g>
</g>
<!-- Node8 -->
<g id="Node000008" class="node">
<title>Node8</title>
<g id="a_Node000008"><a xlink:href="classalbert_1_1PluginInstance.html" target="_top" xlink:title="Abstract plugin instance class.">
<polygon fill="white" stroke="#666666" points="109,-241.25 0,-241.25 0,-222 109,-222 109,-241.25"/>
<text text-anchor="middle" x="54.5" y="-227.75" font-family="Helvetica,sans-Serif" font-size="10.00">albert::PluginInstance</text>
</a>
</g>
</g>
<!-- Node8&#45;&gt;Node7 -->
<g id="edge8_Node000008_Node000007" class="edge">
<title>Node8&#45;&gt;Node7</title>
<g id="a_edge8_Node000008_Node000007"><a xlink:title=" ">
<path fill="none" stroke="#63b8ff" d="M120.7,-231.62C129.1,-231.62 137.7,-231.62 146.1,-231.62"/>
<polygon fill="#63b8ff" stroke="#63b8ff" points="120.92,-228.13 110.92,-231.63 120.92,-235.13 120.92,-228.13"/>
</a>
</g>
</g>
<!-- Node9 -->
<g id="Node000009" class="node">
<title>Node9</title>
<g id="a_Node000009"><a xlink:title=" ">
<polygon fill="#e0e0e0" stroke="#999999" points="80.5,-130.25 28.5,-130.25 28.5,-111 80.5,-111 80.5,-130.25"/>
<text text-anchor="middle" x="54.5" y="-116.75" font-family="Helvetica,sans-Serif" font-size="10.00">QObject</text>
</a>
</g>
</g>
<!-- Node9&#45;&gt;Node7 -->
<g id="edge13_Node000009_Node000007" class="edge">
<title>Node9&#45;&gt;Node7</title>
<g id="a_edge13_Node000009_Node000007"><a xlink:title=" ">
<path fill="none" stroke="#63b8ff" d="M69.09,-140.04C84.92,-161.23 113.04,-194.66 145,-213.62 150.3,-216.77 156.17,-219.38 162.15,-221.55"/>
<polygon fill="#63b8ff" stroke="#63b8ff" points="71.93,-138 63.23,-131.96 66.27,-142.11 71.93,-138"/>
</a>
</g>
</g>
<!-- Node10 -->
<g id="Node000010" class="node">
<title>Node10</title>
<g id="a_Node000010"><a xlink:href="classalbert_1_1ExtensionRegistry.html" target="_top" xlink:title="The common extension pool.">
<polygon fill="white" stroke="#666666" points="272.75,-204.25 151,-204.25 151,-185 272.75,-185 272.75,-204.25"/>
<text text-anchor="middle" x="211.88" y="-190.75" font-family="Helvetica,sans-Serif" font-size="10.00">albert::ExtensionRegistry</text>
</a>
</g>
</g>
<!-- Node9&#45;&gt;Node10 -->
<g id="edge9_Node000009_Node000010" class="edge">
<title>Node9&#45;&gt;Node10</title>
<g id="a_edge9_Node000009_Node000010"><a xlink:title=" ">
<path fill="none" stroke="#63b8ff" d="M78.1,-137.38C95.6,-149.69 120.86,-166.05 145,-176.62 151.95,-179.67 159.54,-182.32 167.02,-184.58"/>
<polygon fill="#63b8ff" stroke="#63b8ff" points="80.15,-134.54 69.99,-131.55 76.07,-140.23 80.15,-134.54"/>
</a>
</g>
</g>
<!-- Node11 -->
<g id="Node000011" class="node">
<title>Node11</title>
<g id="a_Node000011"><a xlink:href="classalbert_1_1PluginLoader.html" target="_top" xlink:title="Asynchronous plugin loader turning a physical plugin into a logical PluginInstance.">
<polygon fill="white" stroke="#666666" points="262.62,-167.25 161.12,-167.25 161.12,-148 262.62,-148 262.62,-167.25"/>
<text text-anchor="middle" x="211.88" y="-153.75" font-family="Helvetica,sans-Serif" font-size="10.00">albert::PluginLoader</text>
</a>
</g>
</g>
<!-- Node9&#45;&gt;Node11 -->
<g id="edge10_Node000009_Node000011" class="edge">
<title>Node9&#45;&gt;Node11</title>
<g id="a_edge10_Node000009_Node000011"><a xlink:title=" ">
<path fill="none" stroke="#63b8ff" d="M91.8,-129.27C114.77,-134.74 144.54,-141.83 168.58,-147.55"/>
<polygon fill="#63b8ff" stroke="#63b8ff" points="92.82,-125.91 82.28,-127 91.2,-132.72 92.82,-125.91"/>
</a>
</g>
</g>
<!-- Node12 -->
<g id="Node000012" class="node">
<title>Node12</title>
<g id="a_Node000012"><a xlink:href="classalbert_1_1Query.html" target="_top" xlink:title="Common query object.">
<polygon fill="white" stroke="#666666" points="246.88,-130.25 176.88,-130.25 176.88,-111 246.88,-111 246.88,-130.25"/>
<text text-anchor="middle" x="211.88" y="-116.75" font-family="Helvetica,sans-Serif" font-size="10.00">albert::Query</text>
</a>
</g>
</g>
<!-- Node9&#45;&gt;Node12 -->
<g id="edge11_Node000009_Node000012" class="edge">
<title>Node9&#45;&gt;Node12</title>
<g id="a_edge11_Node000009_Node000012"><a xlink:title=" ">
<path fill="none" stroke="#63b8ff" d="M92.25,-120.62C117.79,-120.62 151.59,-120.62 176.58,-120.62"/>
<polygon fill="#63b8ff" stroke="#63b8ff" points="92.32,-117.13 82.32,-120.63 92.32,-124.13 92.32,-117.13"/>
</a>
</g>
</g>
<!-- Node13 -->
<g id="Node000013" class="node">
<title>Node13</title>
<g id="a_Node000013"><a xlink:href="classalbert_1_1util_1_1Download.html" target="_top" xlink:title="Downloads a file from the given URL to the given path.">
<polygon fill="white" stroke="#666666" points="264.12,-93.25 159.62,-93.25 159.62,-74 264.12,-74 264.12,-93.25"/>
<text text-anchor="middle" x="211.88" y="-79.75" font-family="Helvetica,sans-Serif" font-size="10.00">albert::util::Download</text>
</a>
</g>
</g>
<!-- Node9&#45;&gt;Node13 -->
<g id="edge12_Node000009_Node000013" class="edge">
<title>Node9&#45;&gt;Node13</title>
<g id="a_edge12_Node000009_Node000013"><a xlink:title=" ">
<path fill="none" stroke="#63b8ff" d="M91.8,-111.98C114.77,-106.51 144.54,-99.42 168.58,-93.7"/>
<polygon fill="#63b8ff" stroke="#63b8ff" points="91.2,-108.53 82.28,-114.25 92.82,-115.34 91.2,-108.53"/>
</a>
</g>
</g>
<!-- Node14 -->
<g id="Node000014" class="node">
<title>Node14</title>
<g id="a_Node000014"><a xlink:href="classalbert_1_1util_1_1Notification.html" target="_top" xlink:title="The notification class.">
<polygon fill="white" stroke="#666666" points="267.12,-56.25 156.62,-56.25 156.62,-37 267.12,-37 267.12,-56.25"/>
<text text-anchor="middle" x="211.88" y="-42.75" font-family="Helvetica,sans-Serif" font-size="10.00">albert::util::Notification</text>
</a>
</g>
</g>
<!-- Node9&#45;&gt;Node14 -->
<g id="edge14_Node000009_Node000014" class="edge">
<title>Node9&#45;&gt;Node14</title>
<g id="a_edge14_Node000009_Node000014"><a xlink:title=" ">
<path fill="none" stroke="#63b8ff" d="M78.1,-103.87C95.6,-91.56 120.86,-75.2 145,-64.62 151.95,-61.58 159.54,-58.93 167.02,-56.67"/>
<polygon fill="#63b8ff" stroke="#63b8ff" points="76.07,-101.02 69.99,-109.7 80.15,-106.71 76.07,-101.02"/>
</a>
</g>
</g>
<!-- Node15 -->
<g id="Node000015" class="node">
<title>Node15</title>
<g id="a_Node000015"><a xlink:href="classalbert_1_1util_1_1OAuth2.html" target="_top" xlink:title="Provides OAuth2 authentication with support for the Authorization Code Flow with PKCE and refresh tok...">
<polygon fill="white" stroke="#666666" points="259.25,-19.25 164.5,-19.25 164.5,0 259.25,0 259.25,-19.25"/>
<text text-anchor="middle" x="211.88" y="-5.75" font-family="Helvetica,sans-Serif" font-size="10.00">albert::util::OAuth2</text>
</a>
</g>
</g>
<!-- Node9&#45;&gt;Node15 -->
<g id="edge15_Node000009_Node000015" class="edge">
<title>Node9&#45;&gt;Node15</title>
<g id="a_edge15_Node000009_Node000015"><a xlink:title=" ">
<path fill="none" stroke="#63b8ff" d="M69.09,-101.21C84.92,-80.02 113.04,-46.59 145,-27.62 150.91,-24.12 157.53,-21.27 164.22,-18.97"/>
<polygon fill="#63b8ff" stroke="#63b8ff" points="66.27,-99.14 63.23,-109.29 71.93,-103.25 66.27,-99.14"/>
</a>
</g>
</g>
</g>
</svg>
