<?xml version="1.0" encoding="UTF-8" standalone="no"?>
<!DOCTYPE svg PUBLIC "-//W3C//DTD SVG 1.1//EN"
 "http://www.w3.org/Graphics/SVG/1.1/DTD/svg11.dtd">
<!-- Generated by graphviz version 9.0.0 (20230911.1827)
 -->
<!-- Title: Graphical Class Hierarchy Pages: 1 -->
<svg width="1114pt" height="508pt"
 viewBox="0.00 0.00 1113.75 508.25" xmlns="http://www.w3.org/2000/svg" xmlns:xlink="http://www.w3.org/1999/xlink">
<g id="graph0" class="graph" transform="scale(1 1) rotate(0) translate(4 504.25)">
<title>Graphical Class Hierarchy</title>
<!-- Node0 -->
<g id="Node000000" class="node">
<title>Node0</title>
<g id="a_Node000000"><a xlink:href="classalbert_1_1Extension.html" target="_top" xlink:title="Abstract extension class.">
<polygon fill="white" stroke="#666666" points="249.88,-426.25 163.38,-426.25 163.38,-407 249.88,-407 249.88,-426.25"/>
<text text-anchor="middle" x="206.62" y="-412.75" font-family="Helvetica,sans-Serif" font-size="10.00">albert::Extension</text>
</a>
</g>
</g>
<!-- Node1 -->
<g id="Node000001" class="node">
<title>Node1</title>
<g id="a_Node000001"><a xlink:href="classalbert_1_1ExtensionPlugin.html" target="_top" xlink:title="Extension plugin base class.">
<polygon fill="white" stroke="#666666" points="419.25,-272.25 305.75,-272.25 305.75,-253 419.25,-253 419.25,-272.25"/>
<text text-anchor="middle" x="362.5" y="-258.75" font-family="Helvetica,sans-Serif" font-size="10.00">albert::ExtensionPlugin</text>
</a>
</g>
</g>
<!-- Node0&#45;&gt;Node1 -->
<g id="edge3_Node000000_Node000001" class="edge">
<title>Node0&#45;&gt;Node1</title>
<g id="a_edge3_Node000000_Node000001"><a xlink:title=" ">
<path fill="none" stroke="#63b8ff" d="M260.43,-404.75C263.5,-402.99 266.39,-400.96 269,-398.62 299.88,-371 280.88,-346.32 305,-312.62 316.59,-296.44 334.34,-281.85 346.84,-272.66"/>
<polygon fill="#63b8ff" stroke="#63b8ff" points="259.11,-401.51 251.53,-408.91 262.07,-407.85 259.11,-401.51"/>
</a>
</g>
</g>
<!-- Node16 -->
<g id="Node000016" class="node">
<title>Node16</title>
<g id="a_Node000016"><a xlink:href="classalbert_1_1FallbackHandler.html" target="_top" xlink:title="Abstract fallback item provider.">
<polygon fill="white" stroke="#666666" points="420,-500.25 305,-500.25 305,-481 420,-481 420,-500.25"/>
<text text-anchor="middle" x="362.5" y="-486.75" font-family="Helvetica,sans-Serif" font-size="10.00">albert::FallbackHandler</text>
</a>
</g>
</g>
<!-- Node0&#45;&gt;Node16 -->
<g id="edge4_Node000000_Node000016" class="edge">
<title>Node0&#45;&gt;Node16</title>
<g id="a_edge4_Node000000_Node000016"><a xlink:title=" ">
<path fill="none" stroke="#63b8ff" d="M232.1,-432.66C251.34,-444.78 279.13,-461.22 305,-472.62 311.59,-475.53 318.81,-478.19 325.81,-480.53"/>
<polygon fill="#63b8ff" stroke="#63b8ff" points="234.2,-429.85 223.88,-427.41 230.43,-435.75 234.2,-429.85"/>
</a>
</g>
</g>
<!-- Node17 -->
<g id="Node000017" class="node">
<title>Node17</title>
<g id="a_Node000017"><a xlink:href="classalbert_1_1PluginProvider.html" target="_top" xlink:title="Plugin provider interface class.">
<polygon fill="white" stroke="#666666" points="416.25,-463.25 308.75,-463.25 308.75,-444 416.25,-444 416.25,-463.25"/>
<text text-anchor="middle" x="362.5" y="-449.75" font-family="Helvetica,sans-Serif" font-size="10.00">albert::PluginProvider</text>
</a>
</g>
</g>
<!-- Node0&#45;&gt;Node17 -->
<g id="edge5_Node000000_Node000017" class="edge">
<title>Node0&#45;&gt;Node17</title>
<g id="a_edge5_Node000000_Node000017"><a xlink:title=" ">
<path fill="none" stroke="#63b8ff" d="M260.7,-429.39C279.92,-434.01 301.36,-439.16 319.5,-443.53"/>
<polygon fill="#63b8ff" stroke="#63b8ff" points="261.68,-426.02 251.14,-427.09 260.05,-432.83 261.68,-426.02"/>
</a>
</g>
</g>
<!-- Node18 -->
<g id="Node000018" class="node">
<title>Node18</title>
<g id="a_Node000018"><a xlink:href="classalbert_1_1QueryHandler.html" target="_top" xlink:title="Base query handler interface for triggered queries.">
<polygon fill="white" stroke="#666666" points="414.38,-426.25 310.62,-426.25 310.62,-407 414.38,-407 414.38,-426.25"/>
<text text-anchor="middle" x="362.5" y="-412.75" font-family="Helvetica,sans-Serif" font-size="10.00">albert::QueryHandler</text>
</a>
</g>
</g>
<!-- Node0&#45;&gt;Node18 -->
<g id="edge6_Node000000_Node000018" class="edge">
<title>Node0&#45;&gt;Node18</title>
<g id="a_edge6_Node000000_Node000018"><a xlink:title=" ">
<path fill="none" stroke="#63b8ff" d="M261.32,-416.62C277.16,-416.62 294.46,-416.62 310.15,-416.62"/>
<polygon fill="#63b8ff" stroke="#63b8ff" points="261.59,-413.13 251.59,-416.63 261.59,-420.13 261.59,-413.13"/>
</a>
</g>
</g>
<!-- Node24 -->
<g id="Node000024" class="node">
<title>Node24</title>
<g id="a_Node000024"><a xlink:href="classalbert_1_1UrlHandler.html" target="_top" xlink:title="Albert scheme URL handler interface.">
<polygon fill="white" stroke="#666666" points="408,-389.25 317,-389.25 317,-370 408,-370 408,-389.25"/>
<text text-anchor="middle" x="362.5" y="-375.75" font-family="Helvetica,sans-Serif" font-size="10.00">albert::UrlHandler</text>
</a>
</g>
</g>
<!-- Node0&#45;&gt;Node24 -->
<g id="edge12_Node000000_Node000024" class="edge">
<title>Node0&#45;&gt;Node24</title>
<g id="a_edge12_Node000000_Node000024"><a xlink:title=" ">
<path fill="none" stroke="#63b8ff" d="M260.7,-403.86C279.92,-399.24 301.36,-394.09 319.5,-389.72"/>
<polygon fill="#63b8ff" stroke="#63b8ff" points="260.05,-400.42 251.14,-406.16 261.68,-407.23 260.05,-400.42"/>
</a>
</g>
</g>
<!-- Node25 -->
<g id="Node000025" class="node">
<title>Node25</title>
<g id="a_Node000025"><a xlink:href="classalbert_1_1detail_1_1TelemetryProvider.html" target="_top" xlink:title=" ">
<polygon fill="white" stroke="#666666" points="420,-351.88 305,-351.88 305,-321.38 420,-321.38 420,-351.88"/>
<text text-anchor="start" x="313" y="-338.38" font-family="Helvetica,sans-Serif" font-size="10.00">albert::detail::Telemetry</text>
<text text-anchor="middle" x="362.5" y="-327.12" font-family="Helvetica,sans-Serif" font-size="10.00">Provider</text>
</a>
</g>
</g>
<!-- Node0&#45;&gt;Node25 -->
<g id="edge13_Node000000_Node000025" class="edge">
<title>Node0&#45;&gt;Node25</title>
<g id="a_edge13_Node000000_Node000025"><a xlink:title=" ">
<path fill="none" stroke="#63b8ff" d="M260.76,-403.03C263.61,-401.69 266.38,-400.23 269,-398.62 288.85,-386.49 285.89,-373.9 305,-360.62 309.38,-357.59 314.2,-354.82 319.13,-352.33"/>
<polygon fill="#63b8ff" stroke="#63b8ff" points="259.49,-399.77 251.55,-406.78 262.13,-406.25 259.49,-399.77"/>
</a>
</g>
</g>
<!-- Node19 -->
<g id="Node000019" class="node">
<title>Node19</title>
<g id="a_Node000019"><a xlink:href="classalbert_1_1AsyncGeneratorQueryHandler.html" target="_top" xlink:title="Coroutine&#45;based asynchronous generator query handler.">
<polygon fill="white" stroke="#666666" points="599.12,-452.88 459.38,-452.88 459.38,-422.38 599.12,-422.38 599.12,-452.88"/>
<text text-anchor="start" x="467.38" y="-439.38" font-family="Helvetica,sans-Serif" font-size="10.00">albert::AsyncGeneratorQuery</text>
<text text-anchor="middle" x="529.25" y="-428.12" font-family="Helvetica,sans-Serif" font-size="10.00">Handler</text>
</a>
</g>
</g>
<!-- Node18&#45;&gt;Node19 -->
<g id="edge7_Node000018_Node000019" class="edge">
<title>Node18&#45;&gt;Node19</title>
<g id="a_edge7_Node000018_Node000019"><a xlink:title=" ">
<path fill="none" stroke="#63b8ff" d="M426.13,-424.61C436.84,-425.97 448.02,-427.4 458.9,-428.78"/>
<polygon fill="#63b8ff" stroke="#63b8ff" points="426.59,-421.14 416.23,-423.35 425.7,-428.08 426.59,-421.14"/>
</a>
</g>
</g>
<!-- Node20 -->
<g id="Node000020" class="node">
<title>Node20</title>
<g id="a_Node000020"><a xlink:href="classalbert_1_1GeneratorQueryHandler.html" target="_top" xlink:title="Coroutine&#45;based synchronous generator query handler.">
<polygon fill="white" stroke="#666666" points="602.5,-404.25 456,-404.25 456,-385 602.5,-385 602.5,-404.25"/>
<text text-anchor="middle" x="529.25" y="-390.75" font-family="Helvetica,sans-Serif" font-size="10.00">albert::GeneratorQueryHandler</text>
</a>
</g>
</g>
<!-- Node18&#45;&gt;Node20 -->
<g id="edge8_Node000018_Node000020" class="edge">
<title>Node18&#45;&gt;Node20</title>
<g id="a_edge8_Node000018_Node000020"><a xlink:title=" ">
<path fill="none" stroke="#63b8ff" d="M425.89,-408.29C435.59,-407 445.68,-405.65 455.59,-404.33"/>
<polygon fill="#63b8ff" stroke="#63b8ff" points="425.67,-404.79 416.23,-409.58 426.6,-411.73 425.67,-404.79"/>
</a>
</g>
</g>
<!-- Node21 -->
<g id="Node000021" class="node">
<title>Node21</title>
<g id="a_Node000021"><a xlink:href="classalbert_1_1RankedQueryHandler.html" target="_top" xlink:title="Usage&#45;ranked query handler.">
<polygon fill="white" stroke="#666666" points="775.25,-404.25 638.5,-404.25 638.5,-385 775.25,-385 775.25,-404.25"/>
<text text-anchor="middle" x="706.88" y="-390.75" font-family="Helvetica,sans-Serif" font-size="10.00">albert::RankedQueryHandler</text>
</a>
</g>
</g>
<!-- Node20&#45;&gt;Node21 -->
<g id="edge9_Node000020_Node000021" class="edge">
<title>Node20&#45;&gt;Node21</title>
<g id="a_edge9_Node000020_Node000021"><a xlink:title=" ">
<path fill="none" stroke="#63b8ff" d="M614.46,-394.62C622.36,-394.62 630.3,-394.62 638.02,-394.62"/>
<polygon fill="#63b8ff" stroke="#63b8ff" points="614.46,-391.13 604.46,-394.63 614.46,-398.13 614.46,-391.13"/>
</a>
</g>
</g>
<!-- Node22 -->
<g id="Node000022" class="node">
<title>Node22</title>
<g id="a_Node000022"><a xlink:href="classalbert_1_1GlobalQueryHandler.html" target="_top" xlink:title="Query handler participating in the global search.">
<polygon fill="white" stroke="#666666" points="942.75,-404.25 811.25,-404.25 811.25,-385 942.75,-385 942.75,-404.25"/>
<text text-anchor="middle" x="877" y="-390.75" font-family="Helvetica,sans-Serif" font-size="10.00">albert::GlobalQueryHandler</text>
</a>
</g>
</g>
<!-- Node21&#45;&gt;Node22 -->
<g id="edge10_Node000021_Node000022" class="edge">
<title>Node21&#45;&gt;Node22</title>
<g id="a_edge10_Node000021_Node000022"><a xlink:title=" ">
<path fill="none" stroke="#63b8ff" d="M786.63,-394.62C794.71,-394.62 802.85,-394.62 810.76,-394.62"/>
<polygon fill="#63b8ff" stroke="#63b8ff" points="786.8,-391.13 776.8,-394.63 786.8,-398.13 786.8,-391.13"/>
</a>
</g>
</g>
<!-- Node23 -->
<g id="Node000023" class="node">
<title>Node23</title>
<g id="a_Node000023"><a xlink:href="classalbert_1_1IndexQueryHandler.html" target="_top" xlink:title="Index&#45;based global query handler.">
<polygon fill="white" stroke="#666666" points="1105.75,-404.25 978.75,-404.25 978.75,-385 1105.75,-385 1105.75,-404.25"/>
<text text-anchor="middle" x="1042.25" y="-390.75" font-family="Helvetica,sans-Serif" font-size="10.00">albert::IndexQueryHandler</text>
</a>
</g>
</g>
<!-- Node22&#45;&gt;Node23 -->
<g id="edge11_Node000022_Node000023" class="edge">
<title>Node22&#45;&gt;Node23</title>
<g id="a_edge11_Node000022_Node000023"><a xlink:title=" ">
<path fill="none" stroke="#63b8ff" d="M954.3,-394.62C962.35,-394.62 970.47,-394.62 978.35,-394.62"/>
<polygon fill="#63b8ff" stroke="#63b8ff" points="954.5,-391.13 944.5,-394.63 954.5,-398.13 954.5,-391.13"/>
</a>
</g>
</g>
<!-- Node12 -->
<g id="Node000012" class="node">
<title>Node12</title>
<g id="a_Node000012"><a xlink:href="classalbert_1_1Item_1_1Observer.html" target="_top" xlink:title="Interface class for item observers.">
<polygon fill="white" stroke="#666666" points="108.25,-389.25 0,-389.25 0,-370 108.25,-370 108.25,-389.25"/>
<text text-anchor="middle" x="54.12" y="-375.75" font-family="Helvetica,sans-Serif" font-size="10.00">albert::Item::Observer</text>
</a>
</g>
</g>
<!-- Node11 -->
<g id="Node000011" class="node">
<title>Node11</title>
<g id="a_Node000011"><a xlink:href="classalbert_1_1QueryResults.html" target="_top" xlink:title="Query results container.">
<polygon fill="white" stroke="#666666" points="258.12,-389.25 155.12,-389.25 155.12,-370 258.12,-370 258.12,-389.25"/>
<text text-anchor="middle" x="206.62" y="-375.75" font-family="Helvetica,sans-Serif" font-size="10.00">albert::QueryResults</text>
</a>
</g>
</g>
<!-- Node12&#45;&gt;Node11 -->
<g id="edge14_Node000012_Node000011" class="edge">
<title>Node12&#45;&gt;Node11</title>
<g id="a_edge14_Node000012_Node000011"><a xlink:title=" ">
<path fill="none" stroke="#8b1a1a" d="M120.08,-379.62C131.71,-379.62 143.68,-379.62 154.83,-379.62"/>
<polygon fill="#8b1a1a" stroke="#8b1a1a" points="120.12,-376.13 110.12,-379.63 120.12,-383.13 120.12,-376.13"/>
</a>
</g>
</g>
<!-- Node4 -->
<g id="Node000004" class="node">
<title>Node4</title>
<g id="a_Node000004"><a xlink:title=" ">
<polygon fill="#e0e0e0" stroke="#999999" points="80.12,-204.25 28.12,-204.25 28.12,-185 80.12,-185 80.12,-204.25"/>
<text text-anchor="middle" x="54.12" y="-190.75" font-family="Helvetica,sans-Serif" font-size="10.00">QObject</text>
</a>
</g>
</g>
<!-- Node4&#45;&gt;Node11 -->
<g id="edge24_Node000004_Node000011" class="edge">
<title>Node4&#45;&gt;Node11</title>
<g id="a_edge24_Node000004_Node000011"><a xlink:title=" ">
<path fill="none" stroke="#63b8ff" d="M60.53,-215.55C70.76,-250.96 96.36,-322.67 144.25,-361.62 148.13,-364.78 152.54,-367.38 157.17,-369.52"/>
<polygon fill="#63b8ff" stroke="#63b8ff" points="63.96,-214.82 57.94,-206.1 57.21,-216.67 63.96,-214.82"/>
</a>
</g>
</g>
<!-- Node5 -->
<g id="Node000005" class="node">
<title>Node5</title>
<g id="a_Node000005"><a xlink:href="classalbert_1_1Download.html" target="_top" xlink:title="Downloads a file from the given URL to the given path.">
<polygon fill="white" stroke="#666666" points="250.25,-352.25 163,-352.25 163,-333 250.25,-333 250.25,-352.25"/>
<text text-anchor="middle" x="206.62" y="-338.75" font-family="Helvetica,sans-Serif" font-size="10.00">albert::Download</text>
</a>
</g>
</g>
<!-- Node4&#45;&gt;Node5 -->
<g id="edge15_Node000004_Node000005" class="edge">
<title>Node4&#45;&gt;Node5</title>
<g id="a_edge15_Node000004_Node000005"><a xlink:title=" ">
<path fill="none" stroke="#63b8ff" d="M63.64,-214.88C76.73,-243.59 104.53,-295.82 144.25,-324.62 149.73,-328.6 156.09,-331.71 162.59,-334.13"/>
<polygon fill="#63b8ff" stroke="#63b8ff" points="66.9,-213.62 59.68,-205.87 60.49,-216.43 66.9,-213.62"/>
</a>
</g>
</g>
<!-- Node6 -->
<g id="Node000006" class="node">
<title>Node6</title>
<g id="a_Node000006"><a xlink:href="classalbert_1_1ExtensionRegistry.html" target="_top" xlink:title="The common extension pool.">
<polygon fill="white" stroke="#666666" points="267.5,-315.25 145.75,-315.25 145.75,-296 267.5,-296 267.5,-315.25"/>
<text text-anchor="middle" x="206.62" y="-301.75" font-family="Helvetica,sans-Serif" font-size="10.00">albert::ExtensionRegistry</text>
</a>
</g>
</g>
<!-- Node4&#45;&gt;Node6 -->
<g id="edge16_Node000004_Node000006" class="edge">
<title>Node4&#45;&gt;Node6</title>
<g id="a_edge16_Node000004_Node000006"><a xlink:title=" ">
<path fill="none" stroke="#63b8ff" d="M68.7,-213.93C84.52,-235.02 112.55,-268.37 144.25,-287.62 149.37,-290.74 155.07,-293.34 160.86,-295.51"/>
<polygon fill="#63b8ff" stroke="#63b8ff" points="71.57,-211.92 62.85,-205.9 65.91,-216.04 71.57,-211.92"/>
</a>
</g>
</g>
<!-- Node7 -->
<g id="Node000007" class="node">
<title>Node7</title>
<g id="a_Node000007"><a xlink:href="classalbert_1_1Notification.html" target="_top" xlink:title="The notification class.">
<polygon fill="white" stroke="#666666" points="253.25,-278.25 160,-278.25 160,-259 253.25,-259 253.25,-278.25"/>
<text text-anchor="middle" x="206.62" y="-264.75" font-family="Helvetica,sans-Serif" font-size="10.00">albert::Notification</text>
</a>
</g>
</g>
<!-- Node4&#45;&gt;Node7 -->
<g id="edge17_Node000004_Node000007" class="edge">
<title>Node4&#45;&gt;Node7</title>
<g id="a_edge17_Node000004_Node000007"><a xlink:title=" ">
<path fill="none" stroke="#63b8ff" d="M77.68,-211.25C95.13,-223.5 120.29,-239.84 144.25,-250.62 150.93,-253.63 158.25,-256.29 165.43,-258.57"/>
<polygon fill="#63b8ff" stroke="#63b8ff" points="79.76,-208.44 69.59,-205.47 75.69,-214.13 79.76,-208.44"/>
</a>
</g>
</g>
<!-- Node8 -->
<g id="Node000008" class="node">
<title>Node8</title>
<g id="a_Node000008"><a xlink:href="classalbert_1_1OAuth2.html" target="_top" xlink:title="Provides OAuth2 authentication with support for the Authorization Code Flow with PKCE and refresh tok...">
<polygon fill="white" stroke="#666666" points="245.38,-241.25 167.88,-241.25 167.88,-222 245.38,-222 245.38,-241.25"/>
<text text-anchor="middle" x="206.62" y="-227.75" font-family="Helvetica,sans-Serif" font-size="10.00">albert::OAuth2</text>
</a>
</g>
</g>
<!-- Node4&#45;&gt;Node8 -->
<g id="edge18_Node000004_Node000008" class="edge">
<title>Node4&#45;&gt;Node8</title>
<g id="a_edge18_Node000004_Node000008"><a xlink:title=" ">
<path fill="none" stroke="#63b8ff" d="M91.36,-203.53C114.42,-209.2 144.24,-216.53 167.63,-222.29"/>
<polygon fill="#63b8ff" stroke="#63b8ff" points="92.33,-200.17 81.79,-201.18 90.66,-206.97 92.33,-200.17"/>
</a>
</g>
</g>
<!-- Node2 -->
<g id="Node000002" class="node">
<title>Node2</title>
<g id="a_Node000002"><a xlink:href="classalbert_1_1PluginInstance.html" target="_top" xlink:title="Abstract plugin instance class.">
<polygon fill="white" stroke="#666666" points="261.12,-204.25 152.12,-204.25 152.12,-185 261.12,-185 261.12,-204.25"/>
<text text-anchor="middle" x="206.62" y="-190.75" font-family="Helvetica,sans-Serif" font-size="10.00">albert::PluginInstance</text>
</a>
</g>
</g>
<!-- Node4&#45;&gt;Node2 -->
<g id="edge19_Node000004_Node000002" class="edge">
<title>Node4&#45;&gt;Node2</title>
<g id="a_edge19_Node000004_Node000002"><a xlink:title=" ">
<path fill="none" stroke="#63b8ff" d="M91.81,-194.62C109.87,-194.62 132,-194.62 151.92,-194.62"/>
<polygon fill="#63b8ff" stroke="#63b8ff" points="91.83,-191.13 81.83,-194.63 91.83,-198.13 91.83,-191.13"/>
</a>
</g>
</g>
<!-- Node9 -->
<g id="Node000009" class="node">
<title>Node9</title>
<g id="a_Node000009"><a xlink:href="classalbert_1_1PluginLoader.html" target="_top" xlink:title="Asynchronous plugin loader turning a physical plugin into a logical plugin instance.">
<polygon fill="white" stroke="#666666" points="257.38,-167.25 155.88,-167.25 155.88,-148 257.38,-148 257.38,-167.25"/>
<text text-anchor="middle" x="206.62" y="-153.75" font-family="Helvetica,sans-Serif" font-size="10.00">albert::PluginLoader</text>
</a>
</g>
</g>
<!-- Node4&#45;&gt;Node9 -->
<g id="edge22_Node000004_Node000009" class="edge">
<title>Node4&#45;&gt;Node9</title>
<g id="a_edge22_Node000004_Node000009"><a xlink:title=" ">
<path fill="none" stroke="#63b8ff" d="M91.26,-185.74C113.39,-180.3 141.77,-173.32 164.72,-167.68"/>
<polygon fill="#63b8ff" stroke="#63b8ff" points="90.66,-182.28 81.79,-188.07 92.33,-189.08 90.66,-182.28"/>
</a>
</g>
</g>
<!-- Node10 -->
<g id="Node000010" class="node">
<title>Node10</title>
<g id="a_Node000010"><a xlink:href="classalbert_1_1QueryExecution.html" target="_top" xlink:title="Abstract asynchronous query execution interface.">
<polygon fill="white" stroke="#666666" points="262.62,-130.25 150.62,-130.25 150.62,-111 262.62,-111 262.62,-130.25"/>
<text text-anchor="middle" x="206.62" y="-116.75" font-family="Helvetica,sans-Serif" font-size="10.00">albert::QueryExecution</text>
</a>
</g>
</g>
<!-- Node4&#45;&gt;Node10 -->
<g id="edge23_Node000004_Node000010" class="edge">
<title>Node4&#45;&gt;Node10</title>
<g id="a_edge23_Node000004_Node000010"><a xlink:title=" ">
<path fill="none" stroke="#63b8ff" d="M77.68,-178C95.13,-165.75 120.29,-149.41 144.25,-138.62 150.93,-135.62 158.25,-132.96 165.43,-130.68"/>
<polygon fill="#63b8ff" stroke="#63b8ff" points="75.69,-175.12 69.59,-183.78 79.76,-180.81 75.69,-175.12"/>
</a>
</g>
</g>
<!-- Node13 -->
<g id="Node000013" class="node">
<title>Node13</title>
<g id="a_Node000013"><a xlink:href="classalbert_1_1detail_1_1Acquire.html" target="_top" xlink:title=" ">
<polygon fill="white" stroke="#666666" points="259.25,-93.25 154,-93.25 154,-74 259.25,-74 259.25,-93.25"/>
<text text-anchor="middle" x="206.62" y="-79.75" font-family="Helvetica,sans-Serif" font-size="10.00">albert::detail::Acquire</text>
</a>
</g>
</g>
<!-- Node4&#45;&gt;Node13 -->
<g id="edge25_Node000004_Node000013" class="edge">
<title>Node4&#45;&gt;Node13</title>
<g id="a_edge25_Node000004_Node000013"><a xlink:title=" ">
<path fill="none" stroke="#63b8ff" d="M68.7,-175.32C84.52,-154.23 112.55,-120.88 144.25,-101.62 149.37,-98.51 155.07,-95.91 160.86,-93.74"/>
<polygon fill="#63b8ff" stroke="#63b8ff" points="65.91,-173.21 62.85,-183.35 71.57,-177.33 65.91,-173.21"/>
</a>
</g>
</g>
<!-- Node14 -->
<g id="Node000014" class="node">
<title>Node14</title>
<g id="a_Node000014"><a xlink:href="classalbert_1_1detail_1_1InputHistory.html" target="_top" xlink:title="Input history class.">
<polygon fill="white" stroke="#666666" points="269,-56.25 144.25,-56.25 144.25,-37 269,-37 269,-56.25"/>
<text text-anchor="middle" x="206.62" y="-42.75" font-family="Helvetica,sans-Serif" font-size="10.00">albert::detail::InputHistory</text>
</a>
</g>
</g>
<!-- Node4&#45;&gt;Node14 -->
<g id="edge26_Node000004_Node000014" class="edge">
<title>Node4&#45;&gt;Node14</title>
<g id="a_edge26_Node000004_Node000014"><a xlink:title=" ">
<path fill="none" stroke="#63b8ff" d="M63.64,-174.37C76.73,-145.66 104.53,-93.43 144.25,-64.62 148.65,-61.43 153.62,-58.8 158.77,-56.63"/>
<polygon fill="#63b8ff" stroke="#63b8ff" points="60.49,-172.82 59.68,-183.38 66.9,-175.63 60.49,-172.82"/>
</a>
</g>
</g>
<!-- Node15 -->
<g id="Node000015" class="node">
<title>Node15</title>
<g id="a_Node000015"><a xlink:href="classalbert_1_1detail_1_1RateLimiter.html" target="_top" xlink:title=" ">
<polygon fill="white" stroke="#666666" points="267.88,-19.25 145.38,-19.25 145.38,0 267.88,0 267.88,-19.25"/>
<text text-anchor="middle" x="206.62" y="-5.75" font-family="Helvetica,sans-Serif" font-size="10.00">albert::detail::RateLimiter</text>
</a>
</g>
</g>
<!-- Node4&#45;&gt;Node15 -->
<g id="edge27_Node000004_Node000015" class="edge">
<title>Node4&#45;&gt;Node15</title>
<g id="a_edge27_Node000004_Node000015"><a xlink:title=" ">
<path fill="none" stroke="#63b8ff" d="M60.53,-173.7C70.76,-138.29 96.36,-66.58 144.25,-27.62 148.13,-24.47 152.54,-21.87 157.17,-19.73"/>
<polygon fill="#63b8ff" stroke="#63b8ff" points="57.21,-172.58 57.94,-183.15 63.96,-174.43 57.21,-172.58"/>
</a>
</g>
</g>
<!-- Node2&#45;&gt;Node1 -->
<g id="edge20_Node000002_Node000001" class="edge">
<title>Node2&#45;&gt;Node1</title>
<g id="a_edge20_Node000002_Node000001"><a xlink:title=" ">
<path fill="none" stroke="#63b8ff" d="M257.3,-208.21C261.29,-209.6 265.24,-211.08 269,-212.62 296.85,-224.09 327.23,-241.55 345.3,-252.51"/>
<polygon fill="#63b8ff" stroke="#63b8ff" points="258.72,-204.99 248.12,-205.21 256.54,-211.65 258.72,-204.99"/>
</a>
</g>
</g>
<!-- Node3 -->
<g id="Node000003" class="node">
<title>Node3</title>
<g id="a_Node000003"><a xlink:href="classalbert_1_1detail_1_1Frontend.html" target="_top" xlink:title="The interface for albert frontends.">
<polygon fill="white" stroke="#666666" points="417.75,-204.25 307.25,-204.25 307.25,-185 417.75,-185 417.75,-204.25"/>
<text text-anchor="middle" x="362.5" y="-190.75" font-family="Helvetica,sans-Serif" font-size="10.00">albert::detail::Frontend</text>
</a>
</g>
</g>
<!-- Node2&#45;&gt;Node3 -->
<g id="edge21_Node000002_Node000003" class="edge">
<title>Node2&#45;&gt;Node3</title>
<g id="a_edge21_Node000002_Node000003"><a xlink:title=" ">
<path fill="none" stroke="#63b8ff" d="M272.69,-194.62C284.09,-194.62 295.85,-194.62 306.93,-194.62"/>
<polygon fill="#63b8ff" stroke="#63b8ff" points="272.96,-191.13 262.96,-194.63 272.96,-198.13 272.96,-191.13"/>
</a>
</g>
</g>
</g>
</svg>
