<?xml version="1.0" encoding="UTF-8" standalone="no"?>
<!DOCTYPE svg PUBLIC "-//W3C//DTD SVG 1.1//EN"
 "http://www.w3.org/Graphics/SVG/1.1/DTD/svg11.dtd">
<!-- Generated by graphviz version 9.0.0 (20230911.1827)
 -->
<!-- Title: Graphical Class Hierarchy Pages: 1 -->
<svg width="237pt" height="64pt"
 viewBox="0.00 0.00 237.25 64.25" xmlns="http://www.w3.org/2000/svg" xmlns:xlink="http://www.w3.org/1999/xlink">
<g id="graph0" class="graph" transform="scale(1 1) rotate(0) translate(4 60.25)">
<title>Graphical Class Hierarchy</title>
<!-- Node0 -->
<g id="Node000000" class="node">
<title>Node0</title>
<g id="a_Node000000"><a xlink:href="classalbert_1_1Item.html" target="_top" xlink:title="Result items displayed in the query results list.">
<polygon fill="white" stroke="#666666" points="64,-37.25 0,-37.25 0,-18 64,-18 64,-37.25"/>
<text text-anchor="middle" x="32" y="-23.75" font-family="Helvetica,sans-Serif" font-size="10.00">albert::Item</text>
</a>
</g>
</g>
<!-- Node1 -->
<g id="Node000001" class="node">
<title>Node1</title>
<g id="a_Node000001"><a xlink:href="classalbert_1_1detail_1_1DynamicItem.html" target="_top" xlink:title=" ">
<polygon fill="white" stroke="#666666" points="229.25,-56.25 100,-56.25 100,-37 229.25,-37 229.25,-56.25"/>
<text text-anchor="middle" x="164.62" y="-42.75" font-family="Helvetica,sans-Serif" font-size="10.00">albert::detail::DynamicItem</text>
</a>
</g>
</g>
<!-- Node0&#45;&gt;Node1 -->
<g id="edge19_Node000000_Node000001" class="edge">
<title>Node0&#45;&gt;Node1</title>
<g id="a_edge19_Node000000_Node000001"><a xlink:title=" ">
<path fill="none" stroke="#63b8ff" d="M75.51,-33.81C83.2,-34.93 91.36,-36.11 99.5,-37.3"/>
<polygon fill="#63b8ff" stroke="#63b8ff" points="76.19,-30.37 65.79,-32.39 75.18,-37.3 76.19,-30.37"/>
</a>
</g>
</g>
<!-- Node2 -->
<g id="Node000002" class="node">
<title>Node2</title>
<g id="a_Node000002"><a xlink:href="classalbert_1_1util_1_1StandardItem.html" target="_top" xlink:title="General purpose Item implementation.">
<polygon fill="white" stroke="#666666" points="224.75,-19.25 104.5,-19.25 104.5,0 224.75,0 224.75,-19.25"/>
<text text-anchor="middle" x="164.62" y="-5.75" font-family="Helvetica,sans-Serif" font-size="10.00">albert::util::StandardItem</text>
</a>
</g>
</g>
<!-- Node0&#45;&gt;Node2 -->
<g id="edge20_Node000000_Node000002" class="edge">
<title>Node0&#45;&gt;Node2</title>
<g id="a_edge20_Node000000_Node000002"><a xlink:title=" ">
<path fill="none" stroke="#63b8ff" d="M75.47,-21.77C84.65,-20.51 94.51,-19.15 104.19,-17.81"/>
<polygon fill="#63b8ff" stroke="#63b8ff" points="75.22,-18.27 65.79,-23.11 76.17,-25.21 75.22,-18.27"/>
</a>
</g>
</g>
</g>
</svg>
