<?xml version="1.0" encoding="UTF-8" standalone="no"?>
<!DOCTYPE svg PUBLIC "-//W3C//DTD SVG 1.1//EN"
 "http://www.w3.org/Graphics/SVG/1.1/DTD/svg11.dtd">
<!-- Generated by graphviz version 9.0.0 (20230911.1827)
 -->
<!-- Title: Graphical Class Hierarchy Pages: 1 -->
<svg width="954pt" height="175pt"
 viewBox="0.00 0.00 953.75 175.25" xmlns="http://www.w3.org/2000/svg" xmlns:xlink="http://www.w3.org/1999/xlink">
<g id="graph0" class="graph" transform="scale(1 1) rotate(0) translate(4 171.25)">
<title>Graphical Class Hierarchy</title>
<!-- Node0 -->
<g id="Node000000" class="node">
<title>Node0</title>
<g id="a_Node000000"><a xlink:href="classalbert_1_1Extension.html" target="_top" xlink:title="Abstract extension class.">
<polygon fill="white" stroke="#666666" points="97.75,-93.25 11.25,-93.25 11.25,-74 97.75,-74 97.75,-93.25"/>
<text text-anchor="middle" x="54.5" y="-79.75" font-family="Helvetica,sans-Serif" font-size="10.00">albert::Extension</text>
</a>
</g>
</g>
<!-- Node1 -->
<g id="Node000001" class="node">
<title>Node1</title>
<g id="a_Node000001"><a xlink:href="classalbert_1_1ExtensionPlugin.html" target="_top" xlink:title="Extension plugin base class.">
<polygon fill="white" stroke="#666666" points="259.25,-167.25 145.75,-167.25 145.75,-148 259.25,-148 259.25,-167.25"/>
<text text-anchor="middle" x="202.5" y="-153.75" font-family="Helvetica,sans-Serif" font-size="10.00">albert::ExtensionPlugin</text>
</a>
</g>
</g>
<!-- Node0&#45;&gt;Node1 -->
<g id="edge1_Node000000_Node000001" class="edge">
<title>Node0&#45;&gt;Node1</title>
<g id="a_edge1_Node000000_Node000001"><a xlink:title=" ">
<path fill="none" stroke="#63b8ff" d="M78.54,-100.3C96.1,-112.44 121.23,-128.61 145,-139.62 151.35,-142.57 158.32,-145.22 165.12,-147.52"/>
<polygon fill="#63b8ff" stroke="#63b8ff" points="80.57,-97.45 70.38,-94.56 76.54,-103.18 80.57,-97.45"/>
</a>
</g>
</g>
<!-- Node3 -->
<g id="Node000003" class="node">
<title>Node3</title>
<g id="a_Node000003"><a xlink:href="classalbert_1_1FallbackHandler.html" target="_top" xlink:title="Abstract fallback item provider.">
<polygon fill="white" stroke="#666666" points="260,-130.25 145,-130.25 145,-111 260,-111 260,-130.25"/>
<text text-anchor="middle" x="202.5" y="-116.75" font-family="Helvetica,sans-Serif" font-size="10.00">albert::FallbackHandler</text>
</a>
</g>
</g>
<!-- Node0&#45;&gt;Node3 -->
<g id="edge2_Node000000_Node000003" class="edge">
<title>Node0&#45;&gt;Node3</title>
<g id="a_edge2_Node000000_Node000003"><a xlink:title=" ">
<path fill="none" stroke="#63b8ff" d="M106.37,-96.52C124.48,-101.11 144.6,-106.2 161.65,-110.53"/>
<polygon fill="#63b8ff" stroke="#63b8ff" points="107.42,-93.17 96.86,-94.11 105.7,-99.96 107.42,-93.17"/>
</a>
</g>
</g>
<!-- Node4 -->
<g id="Node000004" class="node">
<title>Node4</title>
<g id="a_Node000004"><a xlink:href="classalbert_1_1PluginProvider.html" target="_top" xlink:title="Plugin provider interface class.">
<polygon fill="white" stroke="#666666" points="256.25,-93.25 148.75,-93.25 148.75,-74 256.25,-74 256.25,-93.25"/>
<text text-anchor="middle" x="202.5" y="-79.75" font-family="Helvetica,sans-Serif" font-size="10.00">albert::PluginProvider</text>
</a>
</g>
</g>
<!-- Node0&#45;&gt;Node4 -->
<g id="edge3_Node000000_Node000004" class="edge">
<title>Node0&#45;&gt;Node4</title>
<g id="a_edge3_Node000000_Node000004"><a xlink:title=" ">
<path fill="none" stroke="#63b8ff" d="M109.52,-83.62C122.23,-83.62 135.77,-83.62 148.44,-83.62"/>
<polygon fill="#63b8ff" stroke="#63b8ff" points="109.64,-80.13 99.64,-83.63 109.64,-87.13 109.64,-80.13"/>
</a>
</g>
</g>
<!-- Node5 -->
<g id="Node000005" class="node">
<title>Node5</title>
<g id="a_Node000005"><a xlink:href="classalbert_1_1QueryHandler.html" target="_top" xlink:title="Base query handler interface for triggered queries.">
<polygon fill="white" stroke="#666666" points="254.38,-56.25 150.62,-56.25 150.62,-37 254.38,-37 254.38,-56.25"/>
<text text-anchor="middle" x="202.5" y="-42.75" font-family="Helvetica,sans-Serif" font-size="10.00">albert::QueryHandler</text>
</a>
</g>
</g>
<!-- Node0&#45;&gt;Node5 -->
<g id="edge4_Node000000_Node000005" class="edge">
<title>Node0&#45;&gt;Node5</title>
<g id="a_edge4_Node000000_Node000005"><a xlink:title=" ">
<path fill="none" stroke="#63b8ff" d="M106.37,-70.73C124.48,-66.14 144.6,-61.05 161.65,-56.72"/>
<polygon fill="#63b8ff" stroke="#63b8ff" points="105.7,-67.29 96.86,-73.14 107.42,-74.08 105.7,-67.29"/>
</a>
</g>
</g>
<!-- Node11 -->
<g id="Node000011" class="node">
<title>Node11</title>
<g id="a_Node000011"><a xlink:href="classalbert_1_1UrlHandler.html" target="_top" xlink:title="Albert scheme URL handler interface.">
<polygon fill="white" stroke="#666666" points="248,-19.25 157,-19.25 157,0 248,0 248,-19.25"/>
<text text-anchor="middle" x="202.5" y="-5.75" font-family="Helvetica,sans-Serif" font-size="10.00">albert::UrlHandler</text>
</a>
</g>
</g>
<!-- Node0&#45;&gt;Node11 -->
<g id="edge10_Node000000_Node000011" class="edge">
<title>Node0&#45;&gt;Node11</title>
<g id="a_edge10_Node000000_Node000011"><a xlink:title=" ">
<path fill="none" stroke="#63b8ff" d="M78.54,-66.95C96.1,-54.81 121.23,-38.64 145,-27.62 151.35,-24.68 158.32,-22.03 165.12,-19.73"/>
<polygon fill="#63b8ff" stroke="#63b8ff" points="76.54,-64.07 70.38,-72.69 80.57,-69.8 76.54,-64.07"/>
</a>
</g>
</g>
<!-- Node6 -->
<g id="Node000006" class="node">
<title>Node6</title>
<g id="a_Node000006"><a xlink:href="classalbert_1_1AsyncGeneratorQueryHandler.html" target="_top" xlink:title="Coroutine&#45;based asynchronous generator query handler.">
<polygon fill="white" stroke="#666666" points="439.12,-83.88 299.38,-83.88 299.38,-53.38 439.12,-53.38 439.12,-83.88"/>
<text text-anchor="start" x="307.38" y="-70.38" font-family="Helvetica,sans-Serif" font-size="10.00">albert::AsyncGeneratorQuery</text>
<text text-anchor="middle" x="369.25" y="-59.12" font-family="Helvetica,sans-Serif" font-size="10.00">Handler</text>
</a>
</g>
</g>
<!-- Node5&#45;&gt;Node6 -->
<g id="edge5_Node000005_Node000006" class="edge">
<title>Node5&#45;&gt;Node6</title>
<g id="a_edge5_Node000005_Node000006"><a xlink:title=" ">
<path fill="none" stroke="#63b8ff" d="M266.13,-54.99C276.84,-56.42 288.02,-57.91 298.9,-59.36"/>
<polygon fill="#63b8ff" stroke="#63b8ff" points="266.6,-51.52 256.23,-53.67 265.67,-58.46 266.6,-51.52"/>
</a>
</g>
</g>
<!-- Node7 -->
<g id="Node000007" class="node">
<title>Node7</title>
<g id="a_Node000007"><a xlink:href="classalbert_1_1GeneratorQueryHandler.html" target="_top" xlink:title="Coroutine&#45;based synchronous generator query handler.">
<polygon fill="white" stroke="#666666" points="442.5,-35.25 296,-35.25 296,-16 442.5,-16 442.5,-35.25"/>
<text text-anchor="middle" x="369.25" y="-21.75" font-family="Helvetica,sans-Serif" font-size="10.00">albert::GeneratorQueryHandler</text>
</a>
</g>
</g>
<!-- Node5&#45;&gt;Node7 -->
<g id="edge6_Node000005_Node000007" class="edge">
<title>Node5&#45;&gt;Node7</title>
<g id="a_edge6_Node000005_Node000007"><a xlink:title=" ">
<path fill="none" stroke="#63b8ff" d="M265.89,-38.67C275.59,-37.44 285.68,-36.15 295.59,-34.89"/>
<polygon fill="#63b8ff" stroke="#63b8ff" points="265.7,-35.17 256.23,-39.9 266.59,-42.11 265.7,-35.17"/>
</a>
</g>
</g>
<!-- Node8 -->
<g id="Node000008" class="node">
<title>Node8</title>
<g id="a_Node000008"><a xlink:href="classalbert_1_1RankedQueryHandler.html" target="_top" xlink:title="Usage&#45;ranked query handler.">
<polygon fill="white" stroke="#666666" points="615.25,-35.25 478.5,-35.25 478.5,-16 615.25,-16 615.25,-35.25"/>
<text text-anchor="middle" x="546.88" y="-21.75" font-family="Helvetica,sans-Serif" font-size="10.00">albert::RankedQueryHandler</text>
</a>
</g>
</g>
<!-- Node7&#45;&gt;Node8 -->
<g id="edge7_Node000007_Node000008" class="edge">
<title>Node7&#45;&gt;Node8</title>
<g id="a_edge7_Node000007_Node000008"><a xlink:title=" ">
<path fill="none" stroke="#63b8ff" d="M454.46,-25.62C462.36,-25.62 470.3,-25.62 478.02,-25.62"/>
<polygon fill="#63b8ff" stroke="#63b8ff" points="454.46,-22.13 444.46,-25.63 454.46,-29.13 454.46,-22.13"/>
</a>
</g>
</g>
<!-- Node9 -->
<g id="Node000009" class="node">
<title>Node9</title>
<g id="a_Node000009"><a xlink:href="classalbert_1_1GlobalQueryHandler.html" target="_top" xlink:title="Query handler participating in the global search.">
<polygon fill="white" stroke="#666666" points="782.75,-35.25 651.25,-35.25 651.25,-16 782.75,-16 782.75,-35.25"/>
<text text-anchor="middle" x="717" y="-21.75" font-family="Helvetica,sans-Serif" font-size="10.00">albert::GlobalQueryHandler</text>
</a>
</g>
</g>
<!-- Node8&#45;&gt;Node9 -->
<g id="edge8_Node000008_Node000009" class="edge">
<title>Node8&#45;&gt;Node9</title>
<g id="a_edge8_Node000008_Node000009"><a xlink:title=" ">
<path fill="none" stroke="#63b8ff" d="M626.63,-25.62C634.71,-25.62 642.85,-25.62 650.76,-25.62"/>
<polygon fill="#63b8ff" stroke="#63b8ff" points="626.8,-22.13 616.8,-25.63 626.8,-29.13 626.8,-22.13"/>
</a>
</g>
</g>
<!-- Node10 -->
<g id="Node000010" class="node">
<title>Node10</title>
<g id="a_Node000010"><a xlink:href="classalbert_1_1IndexQueryHandler.html" target="_top" xlink:title="Index&#45;based global query handler.">
<polygon fill="white" stroke="#666666" points="945.75,-35.25 818.75,-35.25 818.75,-16 945.75,-16 945.75,-35.25"/>
<text text-anchor="middle" x="882.25" y="-21.75" font-family="Helvetica,sans-Serif" font-size="10.00">albert::IndexQueryHandler</text>
</a>
</g>
</g>
<!-- Node9&#45;&gt;Node10 -->
<g id="edge9_Node000009_Node000010" class="edge">
<title>Node9&#45;&gt;Node10</title>
<g id="a_edge9_Node000009_Node000010"><a xlink:title=" ">
<path fill="none" stroke="#63b8ff" d="M794.3,-25.62C802.35,-25.62 810.47,-25.62 818.35,-25.62"/>
<polygon fill="#63b8ff" stroke="#63b8ff" points="794.5,-22.13 784.5,-25.63 794.5,-29.13 794.5,-22.13"/>
</a>
</g>
</g>
<!-- Node2 -->
<g id="Node000002" class="node">
<title>Node2</title>
<g id="a_Node000002"><a xlink:href="classalbert_1_1PluginInstance.html" target="_top" xlink:title="Abstract plugin instance class.">
<polygon fill="white" stroke="#666666" points="109,-167.25 0,-167.25 0,-148 109,-148 109,-167.25"/>
<text text-anchor="middle" x="54.5" y="-153.75" font-family="Helvetica,sans-Serif" font-size="10.00">albert::PluginInstance</text>
</a>
</g>
</g>
<!-- Node2&#45;&gt;Node1 -->
<g id="edge11_Node000002_Node000001" class="edge">
<title>Node2&#45;&gt;Node1</title>
<g id="a_edge11_Node000002_Node000001"><a xlink:title=" ">
<path fill="none" stroke="#63b8ff" d="M120.86,-157.62C129.03,-157.62 137.32,-157.62 145.33,-157.62"/>
<polygon fill="#63b8ff" stroke="#63b8ff" points="120.96,-154.13 110.96,-157.63 120.96,-161.13 120.96,-154.13"/>
</a>
</g>
</g>
</g>
</svg>
