<?xml version="1.0" encoding="UTF-8" standalone="no"?>
<!DOCTYPE svg PUBLIC "-//W3C//DTD SVG 1.1//EN"
 "http://www.w3.org/Graphics/SVG/1.1/DTD/svg11.dtd">
<!-- Generated by graphviz version 9.0.0 (20230911.1827)
 -->
<!-- Title: Graphical Class Hierarchy Pages: 1 -->
<svg width="601pt" height="434pt"
 viewBox="0.00 0.00 600.75 434.25" xmlns="http://www.w3.org/2000/svg" xmlns:xlink="http://www.w3.org/1999/xlink">
<g id="graph0" class="graph" transform="scale(1 1) rotate(0) translate(4 430.25)">
<title>Graphical Class Hierarchy</title>
<!-- Node0 -->
<g id="Node000000" class="node">
<title>Node0</title>
<g id="a_Node000000"><a xlink:href="classalbert_1_1Extension.html" target="_top" xlink:title="Abstract extension class.">
<polygon fill="white" stroke="#666666" points="97.75,-352.25 11.25,-352.25 11.25,-333 97.75,-333 97.75,-352.25"/>
<text text-anchor="middle" x="54.5" y="-338.75" font-family="Helvetica,sans-Serif" font-size="10.00">albert::Extension</text>
</a>
</g>
</g>
<!-- Node1 -->
<g id="Node000001" class="node">
<title>Node1</title>
<g id="a_Node000001"><a xlink:href="classalbert_1_1FallbackHandler.html" target="_top" xlink:title="Abstract fallback provider.">
<polygon fill="white" stroke="#666666" points="269.38,-426.25 154.38,-426.25 154.38,-407 269.38,-407 269.38,-426.25"/>
<text text-anchor="middle" x="211.88" y="-412.75" font-family="Helvetica,sans-Serif" font-size="10.00">albert::FallbackHandler</text>
</a>
</g>
</g>
<!-- Node0&#45;&gt;Node1 -->
<g id="edge1_Node000000_Node000001" class="edge">
<title>Node0&#45;&gt;Node1</title>
<g id="a_edge1_Node000000_Node000001"><a xlink:title=" ">
<path fill="none" stroke="#63b8ff" d="M78.1,-359.38C95.6,-371.69 120.86,-388.05 145,-398.62 151.95,-401.67 159.54,-404.32 167.02,-406.58"/>
<polygon fill="#63b8ff" stroke="#63b8ff" points="80.15,-356.54 69.99,-353.55 76.07,-362.23 80.15,-356.54"/>
</a>
</g>
</g>
<!-- Node2 -->
<g id="Node000002" class="node">
<title>Node2</title>
<g id="a_Node000002"><a xlink:href="classalbert_1_1PluginProvider.html" target="_top" xlink:title="Plugin provider interface class.">
<polygon fill="white" stroke="#666666" points="265.62,-389.25 158.12,-389.25 158.12,-370 265.62,-370 265.62,-389.25"/>
<text text-anchor="middle" x="211.88" y="-375.75" font-family="Helvetica,sans-Serif" font-size="10.00">albert::PluginProvider</text>
</a>
</g>
</g>
<!-- Node0&#45;&gt;Node2 -->
<g id="edge2_Node000000_Node000002" class="edge">
<title>Node0&#45;&gt;Node2</title>
<g id="a_edge2_Node000000_Node000002"><a xlink:title=" ">
<path fill="none" stroke="#63b8ff" d="M109.09,-355.39C128.5,-360.01 150.15,-365.16 168.47,-369.53"/>
<polygon fill="#63b8ff" stroke="#63b8ff" points="109.97,-352 99.43,-353.09 108.35,-358.81 109.97,-352"/>
</a>
</g>
</g>
<!-- Node3 -->
<g id="Node000003" class="node">
<title>Node3</title>
<g id="a_Node000003"><a xlink:href="classalbert_1_1TriggerQueryHandler.html" target="_top" xlink:title="Abstract trigger query handler.">
<polygon fill="white" stroke="#666666" points="278.75,-352.25 145,-352.25 145,-333 278.75,-333 278.75,-352.25"/>
<text text-anchor="middle" x="211.88" y="-338.75" font-family="Helvetica,sans-Serif" font-size="10.00">albert::TriggerQueryHandler</text>
</a>
</g>
</g>
<!-- Node0&#45;&gt;Node3 -->
<g id="edge3_Node000000_Node000003" class="edge">
<title>Node0&#45;&gt;Node3</title>
<g id="a_edge3_Node000000_Node000003"><a xlink:title=" ">
<path fill="none" stroke="#63b8ff" d="M109.44,-342.62C120.76,-342.62 132.82,-342.62 144.53,-342.62"/>
<polygon fill="#63b8ff" stroke="#63b8ff" points="109.47,-339.13 99.47,-342.63 109.47,-346.13 109.47,-339.13"/>
</a>
</g>
</g>
<!-- Node6 -->
<g id="Node000006" class="node">
<title>Node6</title>
<g id="a_Node000006"><a xlink:href="classalbert_1_1UrlHandler.html" target="_top" xlink:title="Albert scheme URL handler interface.">
<polygon fill="white" stroke="#666666" points="257.38,-315.25 166.38,-315.25 166.38,-296 257.38,-296 257.38,-315.25"/>
<text text-anchor="middle" x="211.88" y="-301.75" font-family="Helvetica,sans-Serif" font-size="10.00">albert::UrlHandler</text>
</a>
</g>
</g>
<!-- Node0&#45;&gt;Node6 -->
<g id="edge6_Node000000_Node000006" class="edge">
<title>Node0&#45;&gt;Node6</title>
<g id="a_edge6_Node000000_Node000006"><a xlink:title=" ">
<path fill="none" stroke="#63b8ff" d="M109.09,-329.86C128.5,-325.24 150.15,-320.09 168.47,-315.72"/>
<polygon fill="#63b8ff" stroke="#63b8ff" points="108.35,-326.44 99.43,-332.16 109.97,-333.25 108.35,-326.44"/>
</a>
</g>
</g>
<!-- Node7 -->
<g id="Node000007" class="node">
<title>Node7</title>
<g id="a_Node000007"><a xlink:href="classalbert_1_1util_1_1ExtensionPlugin.html" target="_top" xlink:title="Convenience base class for extension plugins.">
<polygon fill="white" stroke="#666666" points="277.25,-278.25 146.5,-278.25 146.5,-259 277.25,-259 277.25,-278.25"/>
<text text-anchor="middle" x="211.88" y="-264.75" font-family="Helvetica,sans-Serif" font-size="10.00">albert::util::ExtensionPlugin</text>
</a>
</g>
</g>
<!-- Node0&#45;&gt;Node7 -->
<g id="edge7_Node000000_Node000007" class="edge">
<title>Node0&#45;&gt;Node7</title>
<g id="a_edge7_Node000000_Node000007"><a xlink:title=" ">
<path fill="none" stroke="#63b8ff" d="M78.1,-325.87C95.6,-313.56 120.86,-297.2 145,-286.62 151.95,-283.58 159.54,-280.93 167.02,-278.67"/>
<polygon fill="#63b8ff" stroke="#63b8ff" points="76.07,-323.02 69.99,-331.7 80.15,-328.71 76.07,-323.02"/>
</a>
</g>
</g>
<!-- Node4 -->
<g id="Node000004" class="node">
<title>Node4</title>
<g id="a_Node000004"><a xlink:href="classalbert_1_1GlobalQueryHandler.html" target="_top" xlink:title="Abstract global query handler.">
<polygon fill="white" stroke="#666666" points="446.25,-352.25 314.75,-352.25 314.75,-333 446.25,-333 446.25,-352.25"/>
<text text-anchor="middle" x="380.5" y="-338.75" font-family="Helvetica,sans-Serif" font-size="10.00">albert::GlobalQueryHandler</text>
</a>
</g>
</g>
<!-- Node3&#45;&gt;Node4 -->
<g id="edge4_Node000003_Node000004" class="edge">
<title>Node3&#45;&gt;Node4</title>
<g id="a_edge4_Node000003_Node000004"><a xlink:title=" ">
<path fill="none" stroke="#63b8ff" d="M290.48,-342.62C298.51,-342.62 306.61,-342.62 314.48,-342.62"/>
<polygon fill="#63b8ff" stroke="#63b8ff" points="290.72,-339.13 280.72,-342.63 290.72,-346.13 290.72,-339.13"/>
</a>
</g>
</g>
<!-- Node5 -->
<g id="Node000005" class="node">
<title>Node5</title>
<g id="a_Node000005"><a xlink:href="classalbert_1_1util_1_1IndexQueryHandler.html" target="_top" xlink:title="Index query handler class.">
<polygon fill="white" stroke="#666666" points="592.75,-357.88 482.25,-357.88 482.25,-327.38 592.75,-327.38 592.75,-357.88"/>
<text text-anchor="start" x="490.25" y="-344.38" font-family="Helvetica,sans-Serif" font-size="10.00">albert::util::IndexQuery</text>
<text text-anchor="middle" x="537.5" y="-333.12" font-family="Helvetica,sans-Serif" font-size="10.00">Handler</text>
</a>
</g>
</g>
<!-- Node4&#45;&gt;Node5 -->
<g id="edge5_Node000004_Node000005" class="edge">
<title>Node4&#45;&gt;Node5</title>
<g id="a_edge5_Node000004_Node000005"><a xlink:title=" ">
<path fill="none" stroke="#63b8ff" d="M457.74,-342.62C465.84,-342.62 473.97,-342.62 481.75,-342.62"/>
<polygon fill="#63b8ff" stroke="#63b8ff" points="457.85,-339.13 447.85,-342.63 457.85,-346.13 457.85,-339.13"/>
</a>
</g>
</g>
<!-- Node8 -->
<g id="Node000008" class="node">
<title>Node8</title>
<g id="a_Node000008"><a xlink:href="classalbert_1_1PluginInstance.html" target="_top" xlink:title="Abstract plugin instance class.">
<polygon fill="white" stroke="#666666" points="109,-278.25 0,-278.25 0,-259 109,-259 109,-278.25"/>
<text text-anchor="middle" x="54.5" y="-264.75" font-family="Helvetica,sans-Serif" font-size="10.00">albert::PluginInstance</text>
</a>
</g>
</g>
<!-- Node8&#45;&gt;Node7 -->
<g id="edge8_Node000008_Node000007" class="edge">
<title>Node8&#45;&gt;Node7</title>
<g id="a_edge8_Node000008_Node000007"><a xlink:title=" ">
<path fill="none" stroke="#63b8ff" d="M120.7,-268.62C129.1,-268.62 137.7,-268.62 146.1,-268.62"/>
<polygon fill="#63b8ff" stroke="#63b8ff" points="120.92,-265.13 110.92,-268.63 120.92,-272.13 120.92,-265.13"/>
</a>
</g>
</g>
<!-- Node9 -->
<g id="Node000009" class="node">
<title>Node9</title>
<g id="a_Node000009"><a xlink:title=" ">
<polygon fill="#e0e0e0" stroke="#999999" points="80.5,-149.25 28.5,-149.25 28.5,-130 80.5,-130 80.5,-149.25"/>
<text text-anchor="middle" x="54.5" y="-135.75" font-family="Helvetica,sans-Serif" font-size="10.00">QObject</text>
</a>
</g>
</g>
<!-- Node9&#45;&gt;Node7 -->
<g id="edge13_Node000009_Node000007" class="edge">
<title>Node9&#45;&gt;Node7</title>
<g id="a_edge13_Node000009_Node000007"><a xlink:title=" ">
<path fill="none" stroke="#63b8ff" d="M66.24,-159.52C80.78,-184.56 109.09,-227.13 145,-250.62 149.86,-253.81 155.27,-256.43 160.85,-258.59"/>
<polygon fill="#63b8ff" stroke="#63b8ff" points="69.4,-158 61.45,-150.99 63.29,-161.42 69.4,-158"/>
</a>
</g>
</g>
<!-- Node10 -->
<g id="Node000010" class="node">
<title>Node10</title>
<g id="a_Node000010"><a xlink:href="classalbert_1_1ExtensionRegistry.html" target="_top" xlink:title="The common extension pool.">
<polygon fill="white" stroke="#666666" points="272.75,-241.25 151,-241.25 151,-222 272.75,-222 272.75,-241.25"/>
<text text-anchor="middle" x="211.88" y="-227.75" font-family="Helvetica,sans-Serif" font-size="10.00">albert::ExtensionRegistry</text>
</a>
</g>
</g>
<!-- Node9&#45;&gt;Node10 -->
<g id="edge9_Node000009_Node000010" class="edge">
<title>Node9&#45;&gt;Node10</title>
<g id="a_edge9_Node000009_Node000010"><a xlink:title=" ">
<path fill="none" stroke="#63b8ff" d="M72.52,-157.55C89.42,-174.34 116.81,-198.99 145,-213.62 151,-216.74 157.59,-219.36 164.22,-221.55"/>
<polygon fill="#63b8ff" stroke="#63b8ff" points="75.26,-155.34 65.76,-150.66 70.27,-160.25 75.26,-155.34"/>
</a>
</g>
</g>
<!-- Node11 -->
<g id="Node000011" class="node">
<title>Node11</title>
<g id="a_Node000011"><a xlink:href="classalbert_1_1PluginLoader.html" target="_top" xlink:title="Asynchronous plugin loader turning a physical plugin into a logical PluginInstance.">
<polygon fill="white" stroke="#666666" points="262.62,-204.25 161.12,-204.25 161.12,-185 262.62,-185 262.62,-204.25"/>
<text text-anchor="middle" x="211.88" y="-190.75" font-family="Helvetica,sans-Serif" font-size="10.00">albert::PluginLoader</text>
</a>
</g>
</g>
<!-- Node9&#45;&gt;Node11 -->
<g id="edge10_Node000009_Node000011" class="edge">
<title>Node9&#45;&gt;Node11</title>
<g id="a_edge10_Node000009_Node000011"><a xlink:title=" ">
<path fill="none" stroke="#63b8ff" d="M88.03,-154.23C104.85,-161.48 125.81,-170.07 145,-176.62 153.3,-179.46 162.31,-182.16 170.92,-184.57"/>
<polygon fill="#63b8ff" stroke="#63b8ff" points="89.59,-151.09 79.03,-150.29 86.79,-157.5 89.59,-151.09"/>
</a>
</g>
</g>
<!-- Node12 -->
<g id="Node000012" class="node">
<title>Node12</title>
<g id="a_Node000012"><a xlink:href="classalbert_1_1Query.html" target="_top" xlink:title="Common query object.">
<polygon fill="white" stroke="#666666" points="246.88,-167.25 176.88,-167.25 176.88,-148 246.88,-148 246.88,-167.25"/>
<text text-anchor="middle" x="211.88" y="-153.75" font-family="Helvetica,sans-Serif" font-size="10.00">albert::Query</text>
</a>
</g>
</g>
<!-- Node9&#45;&gt;Node12 -->
<g id="edge11_Node000009_Node000012" class="edge">
<title>Node9&#45;&gt;Node12</title>
<g id="a_edge11_Node000009_Node000012"><a xlink:title=" ">
<path fill="none" stroke="#63b8ff" d="M91.91,-143.84C117.49,-146.81 151.48,-150.74 176.58,-153.65"/>
<polygon fill="#63b8ff" stroke="#63b8ff" points="92.65,-140.41 82.31,-142.73 91.84,-147.36 92.65,-140.41"/>
</a>
</g>
</g>
<!-- Node13 -->
<g id="Node000013" class="node">
<title>Node13</title>
<g id="a_Node000013"><a xlink:href="classalbert_1_1util_1_1Download.html" target="_top" xlink:title="Downloads a file from the given URL to the given path.">
<polygon fill="white" stroke="#666666" points="264.12,-130.25 159.62,-130.25 159.62,-111 264.12,-111 264.12,-130.25"/>
<text text-anchor="middle" x="211.88" y="-116.75" font-family="Helvetica,sans-Serif" font-size="10.00">albert::util::Download</text>
</a>
</g>
</g>
<!-- Node9&#45;&gt;Node13 -->
<g id="edge12_Node000009_Node000013" class="edge">
<title>Node9&#45;&gt;Node13</title>
<g id="a_edge12_Node000009_Node000013"><a xlink:title=" ">
<path fill="none" stroke="#63b8ff" d="M92.22,-135.13C112.2,-132.69 137.24,-129.63 159.16,-126.95"/>
<polygon fill="#63b8ff" stroke="#63b8ff" points="91.81,-131.66 82.31,-136.35 92.66,-138.61 91.81,-131.66"/>
</a>
</g>
</g>
<!-- Node14 -->
<g id="Node000014" class="node">
<title>Node14</title>
<g id="a_Node000014"><a xlink:href="classalbert_1_1util_1_1InputHistory.html" target="_top" xlink:title="Input history class.">
<polygon fill="white" stroke="#666666" points="269,-93.25 154.75,-93.25 154.75,-74 269,-74 269,-93.25"/>
<text text-anchor="middle" x="211.88" y="-79.75" font-family="Helvetica,sans-Serif" font-size="10.00">albert::util::InputHistory</text>
</a>
</g>
</g>
<!-- Node9&#45;&gt;Node14 -->
<g id="edge14_Node000009_Node000014" class="edge">
<title>Node9&#45;&gt;Node14</title>
<g id="a_edge14_Node000009_Node000014"><a xlink:title=" ">
<path fill="none" stroke="#63b8ff" d="M87.31,-124.88C104.23,-117.36 125.51,-108.39 145,-101.62 153.18,-98.79 162.05,-96.1 170.55,-93.72"/>
<polygon fill="#63b8ff" stroke="#63b8ff" points="85.94,-121.66 78.26,-128.96 88.82,-128.04 85.94,-121.66"/>
</a>
</g>
</g>
<!-- Node15 -->
<g id="Node000015" class="node">
<title>Node15</title>
<g id="a_Node000015"><a xlink:href="classalbert_1_1util_1_1Notification.html" target="_top" xlink:title="The notification class.">
<polygon fill="white" stroke="#666666" points="267.12,-56.25 156.62,-56.25 156.62,-37 267.12,-37 267.12,-56.25"/>
<text text-anchor="middle" x="211.88" y="-42.75" font-family="Helvetica,sans-Serif" font-size="10.00">albert::util::Notification</text>
</a>
</g>
</g>
<!-- Node9&#45;&gt;Node15 -->
<g id="edge15_Node000009_Node000015" class="edge">
<title>Node9&#45;&gt;Node15</title>
<g id="a_edge15_Node000009_Node000015"><a xlink:title=" ">
<path fill="none" stroke="#63b8ff" d="M72.48,-121.45C89.34,-104.42 116.7,-79.43 145,-64.62 150.99,-61.49 157.57,-58.86 164.2,-56.67"/>
<polygon fill="#63b8ff" stroke="#63b8ff" points="70.15,-118.82 65.72,-128.44 75.18,-123.68 70.15,-118.82"/>
</a>
</g>
</g>
<!-- Node16 -->
<g id="Node000016" class="node">
<title>Node16</title>
<g id="a_Node000016"><a xlink:href="classalbert_1_1util_1_1OAuth2.html" target="_top" xlink:title="Provides OAuth2 authentication with support for the Authorization Code Flow with PKCE and refresh tok...">
<polygon fill="white" stroke="#666666" points="259.25,-19.25 164.5,-19.25 164.5,0 259.25,0 259.25,-19.25"/>
<text text-anchor="middle" x="211.88" y="-5.75" font-family="Helvetica,sans-Serif" font-size="10.00">albert::util::OAuth2</text>
</a>
</g>
</g>
<!-- Node9&#45;&gt;Node16 -->
<g id="edge16_Node000009_Node000016" class="edge">
<title>Node9&#45;&gt;Node16</title>
<g id="a_edge16_Node000009_Node000016"><a xlink:title=" ">
<path fill="none" stroke="#63b8ff" d="M65.97,-119.93C80.4,-94.72 108.77,-51.45 145,-27.62 150.84,-23.78 157.49,-20.75 164.27,-18.37"/>
<polygon fill="#63b8ff" stroke="#63b8ff" points="63.01,-118.05 61.24,-128.49 69.14,-121.44 63.01,-118.05"/>
</a>
</g>
</g>
</g>
</svg>
