<?xml version="1.0" encoding="UTF-8" standalone="no"?>
<!DOCTYPE svg PUBLIC "-//W3C//DTD SVG 1.1//EN"
 "http://www.w3.org/Graphics/SVG/1.1/DTD/svg11.dtd">
<!-- Generated by graphviz version 9.0.0 (20230911.1827)
 -->
<!-- Title: Graphical Class Hierarchy Pages: 1 -->
<svg width="601pt" height="520pt"
 viewBox="0.00 0.00 600.75 520.25" xmlns="http://www.w3.org/2000/svg" xmlns:xlink="http://www.w3.org/1999/xlink">
<g id="graph0" class="graph" transform="scale(1 1) rotate(0) translate(4 516.25)">
<title>Graphical Class Hierarchy</title>
<!-- Node0 -->
<g id="Node000000" class="node">
<title>Node0</title>
<g id="a_Node000000"><a xlink:href="classalbert_1_1Extension.html" target="_top" xlink:title="Abstract extension class.">
<polygon fill="white" stroke="#666666" points="97.75,-419.25 11.25,-419.25 11.25,-400 97.75,-400 97.75,-419.25"/>
<text text-anchor="middle" x="54.5" y="-405.75" font-family="Helvetica,sans-Serif" font-size="10.00">albert::Extension</text>
</a>
</g>
</g>
<!-- Node1 -->
<g id="Node000001" class="node">
<title>Node1</title>
<g id="a_Node000001"><a xlink:href="classalbert_1_1FallbackHandler.html" target="_top" xlink:title="Abstract fallback provider.">
<polygon fill="white" stroke="#666666" points="269.38,-512.25 154.38,-512.25 154.38,-493 269.38,-493 269.38,-512.25"/>
<text text-anchor="middle" x="211.88" y="-498.75" font-family="Helvetica,sans-Serif" font-size="10.00">albert::FallbackHandler</text>
</a>
</g>
</g>
<!-- Node0&#45;&gt;Node1 -->
<g id="edge1_Node000000_Node000001" class="edge">
<title>Node0&#45;&gt;Node1</title>
<g id="a_edge1_Node000000_Node000001"><a xlink:title=" ">
<path fill="none" stroke="#63b8ff" d="M72.48,-427.8C89.34,-444.83 116.7,-469.82 145,-484.62 150.99,-487.76 157.57,-490.39 164.2,-492.58"/>
<polygon fill="#63b8ff" stroke="#63b8ff" points="75.18,-425.57 65.72,-420.81 70.15,-430.43 75.18,-425.57"/>
</a>
</g>
</g>
<!-- Node2 -->
<g id="Node000002" class="node">
<title>Node2</title>
<g id="a_Node000002"><a xlink:href="classalbert_1_1PluginProvider.html" target="_top" xlink:title="Plugin provider interface class.">
<polygon fill="white" stroke="#666666" points="265.62,-475.25 158.12,-475.25 158.12,-456 265.62,-456 265.62,-475.25"/>
<text text-anchor="middle" x="211.88" y="-461.75" font-family="Helvetica,sans-Serif" font-size="10.00">albert::PluginProvider</text>
</a>
</g>
</g>
<!-- Node0&#45;&gt;Node2 -->
<g id="edge2_Node000000_Node000002" class="edge">
<title>Node0&#45;&gt;Node2</title>
<g id="a_edge2_Node000000_Node000002"><a xlink:title=" ">
<path fill="none" stroke="#63b8ff" d="M87.31,-424.37C104.23,-431.89 125.51,-440.86 145,-447.62 153.18,-450.46 162.05,-453.15 170.55,-455.53"/>
<polygon fill="#63b8ff" stroke="#63b8ff" points="88.82,-421.21 78.26,-420.29 85.94,-427.59 88.82,-421.21"/>
</a>
</g>
</g>
<!-- Node3 -->
<g id="Node000003" class="node">
<title>Node3</title>
<g id="a_Node000003"><a xlink:href="classalbert_1_1TriggerQueryHandler.html" target="_top" xlink:title="Abstract trigger query handler.">
<polygon fill="white" stroke="#666666" points="278.75,-438.25 145,-438.25 145,-419 278.75,-419 278.75,-438.25"/>
<text text-anchor="middle" x="211.88" y="-424.75" font-family="Helvetica,sans-Serif" font-size="10.00">albert::TriggerQueryHandler</text>
</a>
</g>
</g>
<!-- Node0&#45;&gt;Node3 -->
<g id="edge3_Node000000_Node000003" class="edge">
<title>Node0&#45;&gt;Node3</title>
<g id="a_edge3_Node000000_Node000003"><a xlink:title=" ">
<path fill="none" stroke="#63b8ff" d="M109.08,-416.18C120.5,-417.57 132.7,-419.06 144.53,-420.51"/>
<polygon fill="#63b8ff" stroke="#63b8ff" points="109.81,-412.74 99.46,-415 108.96,-419.69 109.81,-412.74"/>
</a>
</g>
</g>
<!-- Node6 -->
<g id="Node000006" class="node">
<title>Node6</title>
<g id="a_Node000006"><a xlink:href="classalbert_1_1UrlHandler.html" target="_top" xlink:title="Albert scheme URL handler interface.">
<polygon fill="white" stroke="#666666" points="257.38,-401.25 166.38,-401.25 166.38,-382 257.38,-382 257.38,-401.25"/>
<text text-anchor="middle" x="211.88" y="-387.75" font-family="Helvetica,sans-Serif" font-size="10.00">albert::UrlHandler</text>
</a>
</g>
</g>
<!-- Node0&#45;&gt;Node6 -->
<g id="edge6_Node000000_Node000006" class="edge">
<title>Node0&#45;&gt;Node6</title>
<g id="a_edge6_Node000000_Node000006"><a xlink:title=" ">
<path fill="none" stroke="#63b8ff" d="M109.19,-403.4C127.72,-401.26 148.28,-398.88 166.03,-396.82"/>
<polygon fill="#63b8ff" stroke="#63b8ff" points="108.99,-399.9 99.46,-404.53 109.8,-406.86 108.99,-399.9"/>
</a>
</g>
</g>
<!-- Node7 -->
<g id="Node000007" class="node">
<title>Node7</title>
<g id="a_Node000007"><a xlink:href="classalbert_1_1detail_1_1TelemetryProvider.html" target="_top" xlink:title=" ">
<polygon fill="white" stroke="#666666" points="269.38,-363.88 154.38,-363.88 154.38,-333.38 269.38,-333.38 269.38,-363.88"/>
<text text-anchor="start" x="162.38" y="-350.38" font-family="Helvetica,sans-Serif" font-size="10.00">albert::detail::Telemetry</text>
<text text-anchor="middle" x="211.88" y="-339.12" font-family="Helvetica,sans-Serif" font-size="10.00">Provider</text>
</a>
</g>
</g>
<!-- Node0&#45;&gt;Node7 -->
<g id="edge7_Node000000_Node000007" class="edge">
<title>Node0&#45;&gt;Node7</title>
<g id="a_edge7_Node000000_Node000007"><a xlink:title=" ">
<path fill="none" stroke="#63b8ff" d="M89.31,-395.25C106,-388.25 126.49,-379.82 145,-372.62 152.03,-369.89 159.52,-367.07 166.84,-364.37"/>
<polygon fill="#63b8ff" stroke="#63b8ff" points="88.2,-391.92 80.34,-399.02 90.91,-398.37 88.2,-391.92"/>
</a>
</g>
</g>
<!-- Node8 -->
<g id="Node000008" class="node">
<title>Node8</title>
<g id="a_Node000008"><a xlink:href="classalbert_1_1util_1_1ExtensionPlugin.html" target="_top" xlink:title="Convenience base class for extension plugins.">
<polygon fill="white" stroke="#666666" points="277.25,-315.25 146.5,-315.25 146.5,-296 277.25,-296 277.25,-315.25"/>
<text text-anchor="middle" x="211.88" y="-301.75" font-family="Helvetica,sans-Serif" font-size="10.00">albert::util::ExtensionPlugin</text>
</a>
</g>
</g>
<!-- Node0&#45;&gt;Node8 -->
<g id="edge8_Node000000_Node000008" class="edge">
<title>Node0&#45;&gt;Node8</title>
<g id="a_edge8_Node000000_Node000008"><a xlink:title=" ">
<path fill="none" stroke="#63b8ff" d="M70.49,-390.83C86.85,-371.53 114.78,-341.94 145,-324.62 151.2,-321.08 158.11,-318.15 165.06,-315.74"/>
<polygon fill="#63b8ff" stroke="#63b8ff" points="67.86,-388.52 64.2,-398.46 73.26,-392.97 67.86,-388.52"/>
</a>
</g>
</g>
<!-- Node4 -->
<g id="Node000004" class="node">
<title>Node4</title>
<g id="a_Node000004"><a xlink:href="classalbert_1_1GlobalQueryHandler.html" target="_top" xlink:title="Abstract global query handler.">
<polygon fill="white" stroke="#666666" points="446.25,-438.25 314.75,-438.25 314.75,-419 446.25,-419 446.25,-438.25"/>
<text text-anchor="middle" x="380.5" y="-424.75" font-family="Helvetica,sans-Serif" font-size="10.00">albert::GlobalQueryHandler</text>
</a>
</g>
</g>
<!-- Node3&#45;&gt;Node4 -->
<g id="edge4_Node000003_Node000004" class="edge">
<title>Node3&#45;&gt;Node4</title>
<g id="a_edge4_Node000003_Node000004"><a xlink:title=" ">
<path fill="none" stroke="#63b8ff" d="M290.48,-428.62C298.51,-428.62 306.61,-428.62 314.48,-428.62"/>
<polygon fill="#63b8ff" stroke="#63b8ff" points="290.72,-425.13 280.72,-428.63 290.72,-432.13 290.72,-425.13"/>
</a>
</g>
</g>
<!-- Node5 -->
<g id="Node000005" class="node">
<title>Node5</title>
<g id="a_Node000005"><a xlink:href="classalbert_1_1util_1_1IndexQueryHandler.html" target="_top" xlink:title="Index query handler class.">
<polygon fill="white" stroke="#666666" points="592.75,-443.88 482.25,-443.88 482.25,-413.38 592.75,-413.38 592.75,-443.88"/>
<text text-anchor="start" x="490.25" y="-430.38" font-family="Helvetica,sans-Serif" font-size="10.00">albert::util::IndexQuery</text>
<text text-anchor="middle" x="537.5" y="-419.12" font-family="Helvetica,sans-Serif" font-size="10.00">Handler</text>
</a>
</g>
</g>
<!-- Node4&#45;&gt;Node5 -->
<g id="edge5_Node000004_Node000005" class="edge">
<title>Node4&#45;&gt;Node5</title>
<g id="a_edge5_Node000004_Node000005"><a xlink:title=" ">
<path fill="none" stroke="#63b8ff" d="M457.74,-428.62C465.84,-428.62 473.97,-428.62 481.75,-428.62"/>
<polygon fill="#63b8ff" stroke="#63b8ff" points="457.85,-425.13 447.85,-428.63 457.85,-432.13 457.85,-425.13"/>
</a>
</g>
</g>
<!-- Node9 -->
<g id="Node000009" class="node">
<title>Node9</title>
<g id="a_Node000009"><a xlink:href="classalbert_1_1PluginInstance.html" target="_top" xlink:title="Abstract plugin instance class.">
<polygon fill="white" stroke="#666666" points="109,-315.25 0,-315.25 0,-296 109,-296 109,-315.25"/>
<text text-anchor="middle" x="54.5" y="-301.75" font-family="Helvetica,sans-Serif" font-size="10.00">albert::PluginInstance</text>
</a>
</g>
</g>
<!-- Node9&#45;&gt;Node8 -->
<g id="edge9_Node000009_Node000008" class="edge">
<title>Node9&#45;&gt;Node8</title>
<g id="a_edge9_Node000009_Node000008"><a xlink:title=" ">
<path fill="none" stroke="#63b8ff" d="M120.7,-305.62C129.1,-305.62 137.7,-305.62 146.1,-305.62"/>
<polygon fill="#63b8ff" stroke="#63b8ff" points="120.92,-302.13 110.92,-305.63 120.92,-309.13 120.92,-302.13"/>
</a>
</g>
</g>
<!-- Node10 -->
<g id="Node000010" class="node">
<title>Node10</title>
<g id="a_Node000010"><a xlink:title=" ">
<polygon fill="#e0e0e0" stroke="#999999" points="80.5,-167.25 28.5,-167.25 28.5,-148 80.5,-148 80.5,-167.25"/>
<text text-anchor="middle" x="54.5" y="-153.75" font-family="Helvetica,sans-Serif" font-size="10.00">QObject</text>
</a>
</g>
</g>
<!-- Node10&#45;&gt;Node8 -->
<g id="edge15_Node000010_Node000008" class="edge">
<title>Node10&#45;&gt;Node8</title>
<g id="a_edge15_Node000010_Node000008"><a xlink:title=" ">
<path fill="none" stroke="#63b8ff" d="M64,-177.98C77.09,-206.82 104.94,-259.19 145,-287.62 149.45,-290.78 154.42,-293.39 159.59,-295.53"/>
<polygon fill="#63b8ff" stroke="#63b8ff" points="67.25,-176.68 60.04,-168.92 60.84,-179.48 67.25,-176.68"/>
</a>
</g>
</g>
<!-- Node11 -->
<g id="Node000011" class="node">
<title>Node11</title>
<g id="a_Node000011"><a xlink:href="classalbert_1_1ExtensionRegistry.html" target="_top" xlink:title="The common extension pool.">
<polygon fill="white" stroke="#666666" points="272.75,-278.25 151,-278.25 151,-259 272.75,-259 272.75,-278.25"/>
<text text-anchor="middle" x="211.88" y="-264.75" font-family="Helvetica,sans-Serif" font-size="10.00">albert::ExtensionRegistry</text>
</a>
</g>
</g>
<!-- Node10&#45;&gt;Node11 -->
<g id="edge10_Node000010_Node000011" class="edge">
<title>Node10&#45;&gt;Node11</title>
<g id="a_edge10_Node000010_Node000011"><a xlink:title=" ">
<path fill="none" stroke="#63b8ff" d="M69.09,-177.04C84.92,-198.23 113.04,-231.66 145,-250.62 150.3,-253.77 156.17,-256.38 162.15,-258.55"/>
<polygon fill="#63b8ff" stroke="#63b8ff" points="71.93,-175 63.23,-168.96 66.27,-179.11 71.93,-175"/>
</a>
</g>
</g>
<!-- Node12 -->
<g id="Node000012" class="node">
<title>Node12</title>
<g id="a_Node000012"><a xlink:href="classalbert_1_1PluginLoader.html" target="_top" xlink:title="Asynchronous plugin loader turning a physical plugin into a logical PluginInstance.">
<polygon fill="white" stroke="#666666" points="262.62,-241.25 161.12,-241.25 161.12,-222 262.62,-222 262.62,-241.25"/>
<text text-anchor="middle" x="211.88" y="-227.75" font-family="Helvetica,sans-Serif" font-size="10.00">albert::PluginLoader</text>
</a>
</g>
</g>
<!-- Node10&#45;&gt;Node12 -->
<g id="edge11_Node000010_Node000012" class="edge">
<title>Node10&#45;&gt;Node12</title>
<g id="a_edge11_Node000010_Node000012"><a xlink:title=" ">
<path fill="none" stroke="#63b8ff" d="M78.1,-174.38C95.6,-186.69 120.86,-203.05 145,-213.62 151.95,-216.67 159.54,-219.32 167.02,-221.58"/>
<polygon fill="#63b8ff" stroke="#63b8ff" points="80.15,-171.54 69.99,-168.55 76.07,-177.23 80.15,-171.54"/>
</a>
</g>
</g>
<!-- Node13 -->
<g id="Node000013" class="node">
<title>Node13</title>
<g id="a_Node000013"><a xlink:href="classalbert_1_1Query.html" target="_top" xlink:title="Common query object.">
<polygon fill="white" stroke="#666666" points="246.88,-204.25 176.88,-204.25 176.88,-185 246.88,-185 246.88,-204.25"/>
<text text-anchor="middle" x="211.88" y="-190.75" font-family="Helvetica,sans-Serif" font-size="10.00">albert::Query</text>
</a>
</g>
</g>
<!-- Node10&#45;&gt;Node13 -->
<g id="edge12_Node000010_Node000013" class="edge">
<title>Node10&#45;&gt;Node13</title>
<g id="a_edge12_Node000010_Node000013"><a xlink:title=" ">
<path fill="none" stroke="#63b8ff" d="M91.91,-166.29C117.49,-172.39 151.48,-180.48 176.58,-186.46"/>
<polygon fill="#63b8ff" stroke="#63b8ff" points="92.82,-162.91 82.28,-164 91.2,-169.72 92.82,-162.91"/>
</a>
</g>
</g>
<!-- Node14 -->
<g id="Node000014" class="node">
<title>Node14</title>
<g id="a_Node000014"><a xlink:href="classalbert_1_1detail_1_1Frontend.html" target="_top" xlink:title="The interface for albert frontends.">
<polygon fill="white" stroke="#666666" points="267.12,-167.25 156.62,-167.25 156.62,-148 267.12,-148 267.12,-167.25"/>
<text text-anchor="middle" x="211.88" y="-153.75" font-family="Helvetica,sans-Serif" font-size="10.00">albert::detail::Frontend</text>
</a>
</g>
</g>
<!-- Node10&#45;&gt;Node14 -->
<g id="edge13_Node000010_Node000014" class="edge">
<title>Node10&#45;&gt;Node14</title>
<g id="a_edge13_Node000010_Node000014"><a xlink:title=" ">
<path fill="none" stroke="#63b8ff" d="M92.32,-157.62C111.4,-157.62 135.09,-157.62 156.25,-157.62"/>
<polygon fill="#63b8ff" stroke="#63b8ff" points="92.32,-154.13 82.32,-157.63 92.32,-161.13 92.32,-154.13"/>
</a>
</g>
</g>
<!-- Node15 -->
<g id="Node000015" class="node">
<title>Node15</title>
<g id="a_Node000015"><a xlink:href="classalbert_1_1util_1_1Download.html" target="_top" xlink:title="Downloads a file from the given URL to the given path.">
<polygon fill="white" stroke="#666666" points="264.12,-130.25 159.62,-130.25 159.62,-111 264.12,-111 264.12,-130.25"/>
<text text-anchor="middle" x="211.88" y="-116.75" font-family="Helvetica,sans-Serif" font-size="10.00">albert::util::Download</text>
</a>
</g>
</g>
<!-- Node10&#45;&gt;Node15 -->
<g id="edge14_Node000010_Node000015" class="edge">
<title>Node10&#45;&gt;Node15</title>
<g id="a_edge14_Node000010_Node000015"><a xlink:title=" ">
<path fill="none" stroke="#63b8ff" d="M91.8,-148.98C114.77,-143.51 144.54,-136.42 168.58,-130.7"/>
<polygon fill="#63b8ff" stroke="#63b8ff" points="91.2,-145.53 82.28,-151.25 92.82,-152.34 91.2,-145.53"/>
</a>
</g>
</g>
<!-- Node16 -->
<g id="Node000016" class="node">
<title>Node16</title>
<g id="a_Node000016"><a xlink:href="classalbert_1_1util_1_1InputHistory.html" target="_top" xlink:title="Input history class.">
<polygon fill="white" stroke="#666666" points="269,-93.25 154.75,-93.25 154.75,-74 269,-74 269,-93.25"/>
<text text-anchor="middle" x="211.88" y="-79.75" font-family="Helvetica,sans-Serif" font-size="10.00">albert::util::InputHistory</text>
</a>
</g>
</g>
<!-- Node10&#45;&gt;Node16 -->
<g id="edge16_Node000010_Node000016" class="edge">
<title>Node10&#45;&gt;Node16</title>
<g id="a_edge16_Node000010_Node000016"><a xlink:title=" ">
<path fill="none" stroke="#63b8ff" d="M78.1,-140.87C95.6,-128.56 120.86,-112.2 145,-101.62 151.95,-98.58 159.54,-95.93 167.02,-93.67"/>
<polygon fill="#63b8ff" stroke="#63b8ff" points="76.07,-138.02 69.99,-146.7 80.15,-143.71 76.07,-138.02"/>
</a>
</g>
</g>
<!-- Node17 -->
<g id="Node000017" class="node">
<title>Node17</title>
<g id="a_Node000017"><a xlink:href="classalbert_1_1util_1_1Notification.html" target="_top" xlink:title="The notification class.">
<polygon fill="white" stroke="#666666" points="267.12,-56.25 156.62,-56.25 156.62,-37 267.12,-37 267.12,-56.25"/>
<text text-anchor="middle" x="211.88" y="-42.75" font-family="Helvetica,sans-Serif" font-size="10.00">albert::util::Notification</text>
</a>
</g>
</g>
<!-- Node10&#45;&gt;Node17 -->
<g id="edge17_Node000010_Node000017" class="edge">
<title>Node10&#45;&gt;Node17</title>
<g id="a_edge17_Node000010_Node000017"><a xlink:title=" ">
<path fill="none" stroke="#63b8ff" d="M69.09,-138.21C84.92,-117.02 113.04,-83.59 145,-64.62 150.3,-61.48 156.17,-58.87 162.15,-56.7"/>
<polygon fill="#63b8ff" stroke="#63b8ff" points="66.27,-136.14 63.23,-146.29 71.93,-140.25 66.27,-136.14"/>
</a>
</g>
</g>
<!-- Node18 -->
<g id="Node000018" class="node">
<title>Node18</title>
<g id="a_Node000018"><a xlink:href="classalbert_1_1util_1_1OAuth2.html" target="_top" xlink:title="Provides OAuth2 authentication with support for the Authorization Code Flow with PKCE and refresh tok...">
<polygon fill="white" stroke="#666666" points="259.25,-19.25 164.5,-19.25 164.5,0 259.25,0 259.25,-19.25"/>
<text text-anchor="middle" x="211.88" y="-5.75" font-family="Helvetica,sans-Serif" font-size="10.00">albert::util::OAuth2</text>
</a>
</g>
</g>
<!-- Node10&#45;&gt;Node18 -->
<g id="edge18_Node000010_Node000018" class="edge">
<title>Node10&#45;&gt;Node18</title>
<g id="a_edge18_Node000010_Node000018"><a xlink:title=" ">
<path fill="none" stroke="#63b8ff" d="M64,-137.27C77.09,-108.43 104.94,-56.06 145,-27.62 150.7,-23.58 157.28,-20.44 164.02,-18"/>
<polygon fill="#63b8ff" stroke="#63b8ff" points="60.84,-135.77 60.04,-146.33 67.25,-138.57 60.84,-135.77"/>
</a>
</g>
</g>
</g>
</svg>
