<?xml version="1.0" encoding="UTF-8" standalone="no"?>
<!DOCTYPE svg PUBLIC "-//W3C//DTD SVG 1.1//EN"
 "http://www.w3.org/Graphics/SVG/1.1/DTD/svg11.dtd">
<!-- Generated by graphviz version 9.0.0 (20230911.1827)
 -->
<!-- Title: Graphical Class Hierarchy Pages: 1 -->
<svg width="1111pt" height="415pt"
 viewBox="0.00 0.00 1110.75 415.25" xmlns="http://www.w3.org/2000/svg" xmlns:xlink="http://www.w3.org/1999/xlink">
<g id="graph0" class="graph" transform="scale(1 1) rotate(0) translate(4 411.25)">
<title>Graphical Class Hierarchy</title>
<!-- Node0 -->
<g id="Node000000" class="node">
<title>Node0</title>
<g id="a_Node000000"><a xlink:href="classalbert_1_1Extension.html" target="_top" xlink:title="Abstract extension class.">
<polygon fill="white" stroke="#666666" points="248.38,-352.25 161.88,-352.25 161.88,-333 248.38,-333 248.38,-352.25"/>
<text text-anchor="middle" x="205.12" y="-338.75" font-family="Helvetica,sans-Serif" font-size="10.00">albert::Extension</text>
</a>
</g>
</g>
<!-- Node1 -->
<g id="Node000001" class="node">
<title>Node1</title>
<g id="a_Node000001"><a xlink:href="classalbert_1_1ExtensionPlugin.html" target="_top" xlink:title="Extension plugin base class.">
<polygon fill="white" stroke="#666666" points="416.25,-185.25 302.75,-185.25 302.75,-166 416.25,-166 416.25,-185.25"/>
<text text-anchor="middle" x="359.5" y="-171.75" font-family="Helvetica,sans-Serif" font-size="10.00">albert::ExtensionPlugin</text>
</a>
</g>
</g>
<!-- Node0&#45;&gt;Node1 -->
<g id="edge3_Node000000_Node000001" class="edge">
<title>Node0&#45;&gt;Node1</title>
<g id="a_edge3_Node000000_Node000001"><a xlink:title=" ">
<path fill="none" stroke="#63b8ff" d="M258.77,-329.34C261.31,-327.92 263.74,-326.36 266,-324.62 267.63,-323.38 332.36,-218.16 352.55,-185.31"/>
<polygon fill="#63b8ff" stroke="#63b8ff" points="257.54,-326.05 249.95,-333.45 260.5,-332.4 257.54,-326.05"/>
</a>
</g>
</g>
<!-- Node13 -->
<g id="Node000013" class="node">
<title>Node13</title>
<g id="a_Node000013"><a xlink:href="classalbert_1_1FallbackHandler.html" target="_top" xlink:title="Abstract fallback item provider.">
<polygon fill="white" stroke="#666666" points="417,-407.25 302,-407.25 302,-388 417,-388 417,-407.25"/>
<text text-anchor="middle" x="359.5" y="-393.75" font-family="Helvetica,sans-Serif" font-size="10.00">albert::FallbackHandler</text>
</a>
</g>
</g>
<!-- Node0&#45;&gt;Node13 -->
<g id="edge4_Node000000_Node000013" class="edge">
<title>Node0&#45;&gt;Node13</title>
<g id="a_edge4_Node000000_Node000013"><a xlink:title=" ">
<path fill="none" stroke="#63b8ff" d="M241.42,-356.83C259.45,-363.93 281.79,-372.51 302,-379.62 309.67,-382.32 317.99,-385.07 325.82,-387.58"/>
<polygon fill="#63b8ff" stroke="#63b8ff" points="242.8,-353.61 232.21,-353.18 240.22,-360.12 242.8,-353.61"/>
</a>
</g>
</g>
<!-- Node14 -->
<g id="Node000014" class="node">
<title>Node14</title>
<g id="a_Node000014"><a xlink:href="classalbert_1_1PluginProvider.html" target="_top" xlink:title="Plugin provider interface class.">
<polygon fill="white" stroke="#666666" points="413.25,-370.25 305.75,-370.25 305.75,-351 413.25,-351 413.25,-370.25"/>
<text text-anchor="middle" x="359.5" y="-356.75" font-family="Helvetica,sans-Serif" font-size="10.00">albert::PluginProvider</text>
</a>
</g>
</g>
<!-- Node0&#45;&gt;Node14 -->
<g id="edge5_Node000000_Node000014" class="edge">
<title>Node0&#45;&gt;Node14</title>
<g id="a_edge5_Node000000_Node000014"><a xlink:title=" ">
<path fill="none" stroke="#63b8ff" d="M259.63,-348.95C274.48,-350.7 290.59,-352.6 305.41,-354.35"/>
<polygon fill="#63b8ff" stroke="#63b8ff" points="260.41,-345.51 250.07,-347.82 259.59,-352.47 260.41,-345.51"/>
</a>
</g>
</g>
<!-- Node15 -->
<g id="Node000015" class="node">
<title>Node15</title>
<g id="a_Node000015"><a xlink:href="classalbert_1_1QueryHandler.html" target="_top" xlink:title="Base query handler interface for triggered queries.">
<polygon fill="white" stroke="#666666" points="411.38,-333.25 307.62,-333.25 307.62,-314 411.38,-314 411.38,-333.25"/>
<text text-anchor="middle" x="359.5" y="-319.75" font-family="Helvetica,sans-Serif" font-size="10.00">albert::QueryHandler</text>
</a>
</g>
</g>
<!-- Node0&#45;&gt;Node15 -->
<g id="edge6_Node000000_Node000015" class="edge">
<title>Node0&#45;&gt;Node15</title>
<g id="a_edge6_Node000000_Node000015"><a xlink:title=" ">
<path fill="none" stroke="#63b8ff" d="M259.58,-335.96C275.09,-334.03 291.99,-331.92 307.35,-330"/>
<polygon fill="#63b8ff" stroke="#63b8ff" points="259.56,-332.43 250.07,-337.15 260.43,-339.38 259.56,-332.43"/>
</a>
</g>
</g>
<!-- Node21 -->
<g id="Node000021" class="node">
<title>Node21</title>
<g id="a_Node000021"><a xlink:href="classalbert_1_1UrlHandler.html" target="_top" xlink:title="Albert scheme URL handler interface.">
<polygon fill="white" stroke="#666666" points="405,-296.25 314,-296.25 314,-277 405,-277 405,-296.25"/>
<text text-anchor="middle" x="359.5" y="-282.75" font-family="Helvetica,sans-Serif" font-size="10.00">albert::UrlHandler</text>
</a>
</g>
</g>
<!-- Node0&#45;&gt;Node21 -->
<g id="edge12_Node000000_Node000021" class="edge">
<title>Node0&#45;&gt;Node21</title>
<g id="a_edge12_Node000000_Node000021"><a xlink:title=" ">
<path fill="none" stroke="#63b8ff" d="M254.94,-328.91C258.72,-327.56 262.44,-326.13 266,-324.62 282.86,-317.5 285.2,-311.88 302,-304.62 308.71,-301.73 316.04,-299.05 323.14,-296.7"/>
<polygon fill="#63b8ff" stroke="#63b8ff" points="254.05,-325.52 245.69,-332.02 256.28,-332.15 254.05,-325.52"/>
</a>
</g>
</g>
<!-- Node16 -->
<g id="Node000016" class="node">
<title>Node16</title>
<g id="a_Node000016"><a xlink:href="classalbert_1_1AsyncGeneratorQueryHandler.html" target="_top" xlink:title="Coroutine&#45;based asynchronous generator query handler.">
<polygon fill="white" stroke="#666666" points="596.12,-359.88 456.38,-359.88 456.38,-329.38 596.12,-329.38 596.12,-359.88"/>
<text text-anchor="start" x="464.38" y="-346.38" font-family="Helvetica,sans-Serif" font-size="10.00">albert::AsyncGeneratorQuery</text>
<text text-anchor="middle" x="526.25" y="-335.12" font-family="Helvetica,sans-Serif" font-size="10.00">Handler</text>
</a>
</g>
</g>
<!-- Node15&#45;&gt;Node16 -->
<g id="edge7_Node000015_Node000016" class="edge">
<title>Node15&#45;&gt;Node16</title>
<g id="a_edge7_Node000015_Node000016"><a xlink:title=" ">
<path fill="none" stroke="#63b8ff" d="M423.13,-331.61C433.84,-332.97 445.02,-334.4 455.9,-335.78"/>
<polygon fill="#63b8ff" stroke="#63b8ff" points="423.59,-328.14 413.23,-330.35 422.7,-335.08 423.59,-328.14"/>
</a>
</g>
</g>
<!-- Node17 -->
<g id="Node000017" class="node">
<title>Node17</title>
<g id="a_Node000017"><a xlink:href="classalbert_1_1GeneratorQueryHandler.html" target="_top" xlink:title="Coroutine&#45;based synchronous generator query handler.">
<polygon fill="white" stroke="#666666" points="599.5,-311.25 453,-311.25 453,-292 599.5,-292 599.5,-311.25"/>
<text text-anchor="middle" x="526.25" y="-297.75" font-family="Helvetica,sans-Serif" font-size="10.00">albert::GeneratorQueryHandler</text>
</a>
</g>
</g>
<!-- Node15&#45;&gt;Node17 -->
<g id="edge8_Node000015_Node000017" class="edge">
<title>Node15&#45;&gt;Node17</title>
<g id="a_edge8_Node000015_Node000017"><a xlink:title=" ">
<path fill="none" stroke="#63b8ff" d="M422.89,-315.29C432.59,-314 442.68,-312.65 452.59,-311.33"/>
<polygon fill="#63b8ff" stroke="#63b8ff" points="422.67,-311.79 413.23,-316.58 423.6,-318.73 422.67,-311.79"/>
</a>
</g>
</g>
<!-- Node18 -->
<g id="Node000018" class="node">
<title>Node18</title>
<g id="a_Node000018"><a xlink:href="classalbert_1_1RankedQueryHandler.html" target="_top" xlink:title="Usage&#45;ranked query handler.">
<polygon fill="white" stroke="#666666" points="772.25,-311.25 635.5,-311.25 635.5,-292 772.25,-292 772.25,-311.25"/>
<text text-anchor="middle" x="703.88" y="-297.75" font-family="Helvetica,sans-Serif" font-size="10.00">albert::RankedQueryHandler</text>
</a>
</g>
</g>
<!-- Node17&#45;&gt;Node18 -->
<g id="edge9_Node000017_Node000018" class="edge">
<title>Node17&#45;&gt;Node18</title>
<g id="a_edge9_Node000017_Node000018"><a xlink:title=" ">
<path fill="none" stroke="#63b8ff" d="M611.46,-301.62C619.36,-301.62 627.3,-301.62 635.02,-301.62"/>
<polygon fill="#63b8ff" stroke="#63b8ff" points="611.46,-298.13 601.46,-301.63 611.46,-305.13 611.46,-298.13"/>
</a>
</g>
</g>
<!-- Node19 -->
<g id="Node000019" class="node">
<title>Node19</title>
<g id="a_Node000019"><a xlink:href="classalbert_1_1GlobalQueryHandler.html" target="_top" xlink:title="Query handler participating in the global search.">
<polygon fill="white" stroke="#666666" points="939.75,-311.25 808.25,-311.25 808.25,-292 939.75,-292 939.75,-311.25"/>
<text text-anchor="middle" x="874" y="-297.75" font-family="Helvetica,sans-Serif" font-size="10.00">albert::GlobalQueryHandler</text>
</a>
</g>
</g>
<!-- Node18&#45;&gt;Node19 -->
<g id="edge10_Node000018_Node000019" class="edge">
<title>Node18&#45;&gt;Node19</title>
<g id="a_edge10_Node000018_Node000019"><a xlink:title=" ">
<path fill="none" stroke="#63b8ff" d="M783.63,-301.62C791.71,-301.62 799.85,-301.62 807.76,-301.62"/>
<polygon fill="#63b8ff" stroke="#63b8ff" points="783.8,-298.13 773.8,-301.63 783.8,-305.13 783.8,-298.13"/>
</a>
</g>
</g>
<!-- Node20 -->
<g id="Node000020" class="node">
<title>Node20</title>
<g id="a_Node000020"><a xlink:href="classalbert_1_1IndexQueryHandler.html" target="_top" xlink:title="Index&#45;based global query handler.">
<polygon fill="white" stroke="#666666" points="1102.75,-311.25 975.75,-311.25 975.75,-292 1102.75,-292 1102.75,-311.25"/>
<text text-anchor="middle" x="1039.25" y="-297.75" font-family="Helvetica,sans-Serif" font-size="10.00">albert::IndexQueryHandler</text>
</a>
</g>
</g>
<!-- Node19&#45;&gt;Node20 -->
<g id="edge11_Node000019_Node000020" class="edge">
<title>Node19&#45;&gt;Node20</title>
<g id="a_edge11_Node000019_Node000020"><a xlink:title=" ">
<path fill="none" stroke="#63b8ff" d="M951.3,-301.62C959.35,-301.62 967.47,-301.62 975.35,-301.62"/>
<polygon fill="#63b8ff" stroke="#63b8ff" points="951.5,-298.13 941.5,-301.63 951.5,-305.13 951.5,-298.13"/>
</a>
</g>
</g>
<!-- Node12 -->
<g id="Node000012" class="node">
<title>Node12</title>
<g id="a_Node000012"><a xlink:href="classalbert_1_1Item_1_1Observer.html" target="_top" xlink:title="Interface class for item observers.">
<polygon fill="white" stroke="#666666" points="108.25,-315.25 0,-315.25 0,-296 108.25,-296 108.25,-315.25"/>
<text text-anchor="middle" x="54.12" y="-301.75" font-family="Helvetica,sans-Serif" font-size="10.00">albert::Item::Observer</text>
</a>
</g>
</g>
<!-- Node11 -->
<g id="Node000011" class="node">
<title>Node11</title>
<g id="a_Node000011"><a xlink:href="classalbert_1_1QueryResults.html" target="_top" xlink:title="Query results container.">
<polygon fill="white" stroke="#666666" points="256.62,-315.25 153.62,-315.25 153.62,-296 256.62,-296 256.62,-315.25"/>
<text text-anchor="middle" x="205.12" y="-301.75" font-family="Helvetica,sans-Serif" font-size="10.00">albert::QueryResults</text>
</a>
</g>
</g>
<!-- Node12&#45;&gt;Node11 -->
<g id="edge13_Node000012_Node000011" class="edge">
<title>Node12&#45;&gt;Node11</title>
<g id="a_edge13_Node000012_Node000011"><a xlink:title=" ">
<path fill="none" stroke="#8b1a1a" d="M119.7,-305.62C131.05,-305.62 142.72,-305.62 153.62,-305.62"/>
<polygon fill="#8b1a1a" stroke="#8b1a1a" points="120.01,-302.13 110.01,-305.63 120.01,-309.13 120.01,-302.13"/>
</a>
</g>
</g>
<!-- Node3 -->
<g id="Node000003" class="node">
<title>Node3</title>
<g id="a_Node000003"><a xlink:title=" ">
<polygon fill="#e0e0e0" stroke="#999999" points="80.12,-167.25 28.12,-167.25 28.12,-148 80.12,-148 80.12,-167.25"/>
<text text-anchor="middle" x="54.12" y="-153.75" font-family="Helvetica,sans-Serif" font-size="10.00">QObject</text>
</a>
</g>
</g>
<!-- Node3&#45;&gt;Node11 -->
<g id="edge23_Node000003_Node000011" class="edge">
<title>Node3&#45;&gt;Node11</title>
<g id="a_edge23_Node000003_Node000011"><a xlink:title=" ">
<path fill="none" stroke="#63b8ff" d="M63.66,-177.85C76.79,-206.51 104.63,-258.68 144.25,-287.62 148.54,-290.76 153.39,-293.36 158.42,-295.5"/>
<polygon fill="#63b8ff" stroke="#63b8ff" points="66.93,-176.58 59.69,-168.85 60.53,-179.41 66.93,-176.58"/>
</a>
</g>
</g>
<!-- Node4 -->
<g id="Node000004" class="node">
<title>Node4</title>
<g id="a_Node000004"><a xlink:href="classalbert_1_1App.html" target="_top" xlink:title="The public app instance interface.">
<polygon fill="white" stroke="#666666" points="236,-278.25 174.25,-278.25 174.25,-259 236,-259 236,-278.25"/>
<text text-anchor="middle" x="205.12" y="-264.75" font-family="Helvetica,sans-Serif" font-size="10.00">albert::App</text>
</a>
</g>
</g>
<!-- Node3&#45;&gt;Node4 -->
<g id="edge14_Node000003_Node000004" class="edge">
<title>Node3&#45;&gt;Node4</title>
<g id="a_edge14_Node000003_Node000004"><a xlink:title=" ">
<path fill="none" stroke="#63b8ff" d="M68.73,-176.89C84.56,-197.95 112.62,-231.26 144.25,-250.62 153.23,-256.12 164,-260.04 173.92,-262.78"/>
<polygon fill="#63b8ff" stroke="#63b8ff" points="71.59,-174.88 62.87,-168.88 65.94,-179.02 71.59,-174.88"/>
</a>
</g>
</g>
<!-- Node5 -->
<g id="Node000005" class="node">
<title>Node5</title>
<g id="a_Node000005"><a xlink:href="classalbert_1_1Download.html" target="_top" xlink:title="Downloads a file from the given URL to the given path.">
<polygon fill="white" stroke="#666666" points="248.75,-241.25 161.5,-241.25 161.5,-222 248.75,-222 248.75,-241.25"/>
<text text-anchor="middle" x="205.12" y="-227.75" font-family="Helvetica,sans-Serif" font-size="10.00">albert::Download</text>
</a>
</g>
</g>
<!-- Node3&#45;&gt;Node5 -->
<g id="edge15_Node000003_Node000005" class="edge">
<title>Node3&#45;&gt;Node5</title>
<g id="a_edge15_Node000003_Node000005"><a xlink:title=" ">
<path fill="none" stroke="#63b8ff" d="M77.7,-174.21C95.16,-186.43 120.33,-202.76 144.25,-213.62 150.87,-216.63 158.13,-219.3 165.23,-221.6"/>
<polygon fill="#63b8ff" stroke="#63b8ff" points="79.78,-171.39 69.6,-168.44 75.71,-177.09 79.78,-171.39"/>
</a>
</g>
</g>
<!-- Node6 -->
<g id="Node000006" class="node">
<title>Node6</title>
<g id="a_Node000006"><a xlink:href="classalbert_1_1ExtensionRegistry.html" target="_top" xlink:title="The common extension pool.">
<polygon fill="white" stroke="#666666" points="266,-204.25 144.25,-204.25 144.25,-185 266,-185 266,-204.25"/>
<text text-anchor="middle" x="205.12" y="-190.75" font-family="Helvetica,sans-Serif" font-size="10.00">albert::ExtensionRegistry</text>
</a>
</g>
</g>
<!-- Node3&#45;&gt;Node6 -->
<g id="edge16_Node000003_Node000006" class="edge">
<title>Node3&#45;&gt;Node6</title>
<g id="a_edge16_Node000003_Node000006"><a xlink:title=" ">
<path fill="none" stroke="#63b8ff" d="M91.5,-166.66C113.29,-172.07 141.03,-178.96 163.52,-184.54"/>
<polygon fill="#63b8ff" stroke="#63b8ff" points="92.42,-163.28 81.87,-164.27 90.73,-170.07 92.42,-163.28"/>
</a>
</g>
</g>
<!-- Node7 -->
<g id="Node000007" class="node">
<title>Node7</title>
<g id="a_Node000007"><a xlink:href="classalbert_1_1Notification.html" target="_top" xlink:title="The notification class.">
<polygon fill="white" stroke="#666666" points="251.75,-167.25 158.5,-167.25 158.5,-148 251.75,-148 251.75,-167.25"/>
<text text-anchor="middle" x="205.12" y="-153.75" font-family="Helvetica,sans-Serif" font-size="10.00">albert::Notification</text>
</a>
</g>
</g>
<!-- Node3&#45;&gt;Node7 -->
<g id="edge17_Node000003_Node000007" class="edge">
<title>Node3&#45;&gt;Node7</title>
<g id="a_edge17_Node000003_Node000007"><a xlink:title=" ">
<path fill="none" stroke="#63b8ff" d="M91.86,-157.62C111.9,-157.62 136.89,-157.62 158.2,-157.62"/>
<polygon fill="#63b8ff" stroke="#63b8ff" points="91.91,-154.13 81.91,-157.63 91.91,-161.13 91.91,-154.13"/>
</a>
</g>
</g>
<!-- Node8 -->
<g id="Node000008" class="node">
<title>Node8</title>
<g id="a_Node000008"><a xlink:href="classalbert_1_1OAuth2.html" target="_top" xlink:title="Provides OAuth2 authentication with support for the Authorization Code Flow with PKCE and refresh tok...">
<polygon fill="white" stroke="#666666" points="243.88,-130.25 166.38,-130.25 166.38,-111 243.88,-111 243.88,-130.25"/>
<text text-anchor="middle" x="205.12" y="-116.75" font-family="Helvetica,sans-Serif" font-size="10.00">albert::OAuth2</text>
</a>
</g>
</g>
<!-- Node3&#45;&gt;Node8 -->
<g id="edge18_Node000003_Node000008" class="edge">
<title>Node3&#45;&gt;Node8</title>
<g id="a_edge18_Node000003_Node000008"><a xlink:title=" ">
<path fill="none" stroke="#63b8ff" d="M91.27,-148.65C113.93,-143.02 143.11,-135.78 166.11,-130.06"/>
<polygon fill="#63b8ff" stroke="#63b8ff" points="90.73,-145.18 81.87,-150.98 92.42,-151.97 90.73,-145.18"/>
</a>
</g>
</g>
<!-- Node2 -->
<g id="Node000002" class="node">
<title>Node2</title>
<g id="a_Node000002"><a xlink:href="classalbert_1_1PluginInstance.html" target="_top" xlink:title="Abstract plugin instance class.">
<polygon fill="white" stroke="#666666" points="259.62,-93.25 150.62,-93.25 150.62,-74 259.62,-74 259.62,-93.25"/>
<text text-anchor="middle" x="205.12" y="-79.75" font-family="Helvetica,sans-Serif" font-size="10.00">albert::PluginInstance</text>
</a>
</g>
</g>
<!-- Node3&#45;&gt;Node2 -->
<g id="edge19_Node000003_Node000002" class="edge">
<title>Node3&#45;&gt;Node2</title>
<g id="a_edge19_Node000003_Node000002"><a xlink:title=" ">
<path fill="none" stroke="#63b8ff" d="M77.7,-141.04C95.16,-128.82 120.33,-112.49 144.25,-101.62 150.87,-98.62 158.13,-95.95 165.23,-93.65"/>
<polygon fill="#63b8ff" stroke="#63b8ff" points="75.71,-138.16 69.6,-146.81 79.78,-143.86 75.71,-138.16"/>
</a>
</g>
</g>
<!-- Node9 -->
<g id="Node000009" class="node">
<title>Node9</title>
<g id="a_Node000009"><a xlink:href="classalbert_1_1PluginLoader.html" target="_top" xlink:title="Asynchronous plugin loader.">
<polygon fill="white" stroke="#666666" points="255.88,-56.25 154.38,-56.25 154.38,-37 255.88,-37 255.88,-56.25"/>
<text text-anchor="middle" x="205.12" y="-42.75" font-family="Helvetica,sans-Serif" font-size="10.00">albert::PluginLoader</text>
</a>
</g>
</g>
<!-- Node3&#45;&gt;Node9 -->
<g id="edge21_Node000003_Node000009" class="edge">
<title>Node3&#45;&gt;Node9</title>
<g id="a_edge21_Node000003_Node000009"><a xlink:title=" ">
<path fill="none" stroke="#63b8ff" d="M68.73,-138.36C84.56,-117.3 112.62,-83.99 144.25,-64.62 149.34,-61.51 155.01,-58.9 160.77,-56.72"/>
<polygon fill="#63b8ff" stroke="#63b8ff" points="65.94,-136.23 62.87,-146.37 71.59,-140.37 65.94,-136.23"/>
</a>
</g>
</g>
<!-- Node10 -->
<g id="Node000010" class="node">
<title>Node10</title>
<g id="a_Node000010"><a xlink:href="classalbert_1_1QueryExecution.html" target="_top" xlink:title="Abstract asynchronous query execution interface.">
<polygon fill="white" stroke="#666666" points="261.12,-19.25 149.12,-19.25 149.12,0 261.12,0 261.12,-19.25"/>
<text text-anchor="middle" x="205.12" y="-5.75" font-family="Helvetica,sans-Serif" font-size="10.00">albert::QueryExecution</text>
</a>
</g>
</g>
<!-- Node3&#45;&gt;Node10 -->
<g id="edge22_Node000003_Node000010" class="edge">
<title>Node3&#45;&gt;Node10</title>
<g id="a_edge22_Node000003_Node000010"><a xlink:title=" ">
<path fill="none" stroke="#63b8ff" d="M63.66,-137.4C76.79,-108.74 104.63,-56.57 144.25,-27.62 148.54,-24.49 153.39,-21.89 158.42,-19.75"/>
<polygon fill="#63b8ff" stroke="#63b8ff" points="60.53,-135.84 59.69,-146.4 66.93,-138.67 60.53,-135.84"/>
</a>
</g>
</g>
<!-- Node2&#45;&gt;Node1 -->
<g id="edge20_Node000002_Node000001" class="edge">
<title>Node2&#45;&gt;Node1</title>
<g id="a_edge20_Node000002_Node000001"><a xlink:title=" ">
<path fill="none" stroke="#63b8ff" d="M257.72,-97.71C260.56,-98.93 263.34,-100.23 266,-101.62 299.51,-119.21 332.63,-149.75 348.62,-165.53"/>
<polygon fill="#63b8ff" stroke="#63b8ff" points="259.22,-94.54 248.63,-94.23 256.72,-101.08 259.22,-94.54"/>
</a>
</g>
</g>
</g>
</svg>
