<?xml version="1.0" encoding="UTF-8" standalone="no"?>
<!DOCTYPE svg PUBLIC "-//W3C//DTD SVG 1.1//EN"
 "http://www.w3.org/Graphics/SVG/1.1/DTD/svg11.dtd">
<!-- Generated by graphviz version 9.0.0 (20230911.1827)
 -->
<!-- Title: workspace/albert/include/albert/item.h Pages: 1 -->
<svg width="267pt" height="149pt"
 viewBox="0.00 0.00 267.25 149.00" xmlns="http://www.w3.org/2000/svg" xmlns:xlink="http://www.w3.org/1999/xlink">
<g id="graph0" class="graph" transform="scale(1 1) rotate(0) translate(4 145)">
<title>workspace/albert/include/albert/item.h</title>
<!-- Node1 -->
<g id="Node000001" class="node">
<title>Node1</title>
<g id="a_Node000001"><a xlink:title=" ">
<polygon fill="#999999" stroke="#666666" points="216.75,-141 92.75,-141 92.75,-110.5 216.75,-110.5 216.75,-141"/>
<text text-anchor="start" x="100.75" y="-127.5" font-family="Helvetica,sans-Serif" font-size="10.00">workspace/albert/include</text>
<text text-anchor="middle" x="154.75" y="-116.25" font-family="Helvetica,sans-Serif" font-size="10.00">/albert/item.h</text>
</a>
</g>
</g>
<!-- Node2 -->
<g id="Node000002" class="node">
<title>Node2</title>
<g id="a_Node000002"><a xlink:title=" ">
<polygon fill="#e0e0e0" stroke="#999999" points="65.5,-74.5 0,-74.5 0,-55.25 65.5,-55.25 65.5,-74.5"/>
<text text-anchor="middle" x="32.75" y="-61" font-family="Helvetica,sans-Serif" font-size="10.00">QStringList</text>
</a>
</g>
</g>
<!-- Node1&#45;&gt;Node2 -->
<g id="edge1_Node000001_Node000002" class="edge">
<title>Node1&#45;&gt;Node2</title>
<g id="a_edge1_Node000001_Node000002"><a xlink:title=" ">
<path fill="none" stroke="#63b8ff" d="M124.28,-110.05C105.16,-100.82 80.66,-89 61.82,-79.9"/>
<polygon fill="#63b8ff" stroke="#63b8ff" points="63.35,-76.76 52.82,-75.56 60.31,-83.06 63.35,-76.76"/>
</a>
</g>
</g>
<!-- Node3 -->
<g id="Node000003" class="node">
<title>Node3</title>
<g id="a_Node000003"><a xlink:href="action_8h.html" target="_top" xlink:title=" ">
<polygon fill="white" stroke="#666666" points="160.12,-74.5 83.38,-74.5 83.38,-55.25 160.12,-55.25 160.12,-74.5"/>
<text text-anchor="middle" x="121.75" y="-61" font-family="Helvetica,sans-Serif" font-size="10.00">albert/action.h</text>
</a>
</g>
</g>
<!-- Node1&#45;&gt;Node3 -->
<g id="edge2_Node000001_Node000003" class="edge">
<title>Node1&#45;&gt;Node3</title>
<g id="a_edge2_Node000001_Node000003"><a xlink:title=" ">
<path fill="none" stroke="#63b8ff" d="M146.59,-110.2C142.29,-102.53 136.97,-93.02 132.35,-84.79"/>
<polygon fill="#63b8ff" stroke="#63b8ff" points="135.52,-83.28 127.58,-76.27 129.41,-86.71 135.52,-83.28"/>
</a>
</g>
</g>
<!-- Node5 -->
<g id="Node000005" class="node">
<title>Node5</title>
<g id="a_Node000005"><a xlink:title=" ">
<polygon fill="#e0e0e0" stroke="#999999" points="235.12,-19.25 158.38,-19.25 158.38,0 235.12,0 235.12,-19.25"/>
<text text-anchor="middle" x="196.75" y="-5.75" font-family="Helvetica,sans-Serif" font-size="10.00">albert/export.h</text>
</a>
</g>
</g>
<!-- Node1&#45;&gt;Node5 -->
<g id="edge6_Node000001_Node000005" class="edge">
<title>Node1&#45;&gt;Node5</title>
<g id="a_edge6_Node000001_Node000005"><a xlink:title=" ">
<path fill="none" stroke="#63b8ff" d="M160.07,-110.3C167.52,-90.06 181.08,-53.22 189.46,-30.44"/>
<polygon fill="#63b8ff" stroke="#63b8ff" points="192.72,-31.71 192.89,-21.12 186.15,-29.29 192.72,-31.71"/>
</a>
</g>
</g>
<!-- Node7 -->
<g id="Node000007" class="node">
<title>Node7</title>
<g id="a_Node000007"><a xlink:title=" ">
<polygon fill="#e0e0e0" stroke="#999999" points="259.25,-74.5 216.25,-74.5 216.25,-55.25 259.25,-55.25 259.25,-74.5"/>
<text text-anchor="middle" x="237.75" y="-61" font-family="Helvetica,sans-Serif" font-size="10.00">vector</text>
</a>
</g>
</g>
<!-- Node1&#45;&gt;Node7 -->
<g id="edge7_Node000001_Node000007" class="edge">
<title>Node1&#45;&gt;Node7</title>
<g id="a_edge7_Node000001_Node000007"><a xlink:title=" ">
<path fill="none" stroke="#63b8ff" d="M175.27,-110.2C187.54,-101.49 203.14,-90.43 215.67,-81.53"/>
<polygon fill="#63b8ff" stroke="#63b8ff" points="217.59,-84.47 223.72,-75.83 213.54,-78.76 217.59,-84.47"/>
</a>
</g>
</g>
<!-- Node4 -->
<g id="Node000004" class="node">
<title>Node4</title>
<g id="a_Node000004"><a xlink:title=" ">
<polygon fill="#e0e0e0" stroke="#999999" points="64.25,-19.25 15.25,-19.25 15.25,0 64.25,0 64.25,-19.25"/>
<text text-anchor="middle" x="39.75" y="-5.75" font-family="Helvetica,sans-Serif" font-size="10.00">QString</text>
</a>
</g>
</g>
<!-- Node3&#45;&gt;Node4 -->
<g id="edge3_Node000003_Node000004" class="edge">
<title>Node3&#45;&gt;Node4</title>
<g id="a_edge3_Node000003_Node000004"><a xlink:title=" ">
<path fill="none" stroke="#63b8ff" d="M107.84,-54.84C95.59,-46.89 77.5,-35.14 63.04,-25.75"/>
<polygon fill="#63b8ff" stroke="#63b8ff" points="65.29,-23.04 55,-20.53 61.48,-28.91 65.29,-23.04"/>
</a>
</g>
</g>
<!-- Node3&#45;&gt;Node5 -->
<g id="edge4_Node000003_Node000005" class="edge">
<title>Node3&#45;&gt;Node5</title>
<g id="a_edge4_Node000003_Node000005"><a xlink:title=" ">
<path fill="none" stroke="#63b8ff" d="M134.47,-54.84C145.46,-47.04 161.59,-35.59 174.68,-26.29"/>
<polygon fill="#63b8ff" stroke="#63b8ff" points="176.6,-29.22 182.73,-20.58 172.55,-23.51 176.6,-29.22"/>
</a>
</g>
</g>
<!-- Node6 -->
<g id="Node000006" class="node">
<title>Node6</title>
<g id="a_Node000006"><a xlink:title=" ">
<polygon fill="#e0e0e0" stroke="#999999" points="140.75,-19.25 82.75,-19.25 82.75,0 140.75,0 140.75,-19.25"/>
<text text-anchor="middle" x="111.75" y="-5.75" font-family="Helvetica,sans-Serif" font-size="10.00">functional</text>
</a>
</g>
</g>
<!-- Node3&#45;&gt;Node6 -->
<g id="edge5_Node000003_Node000006" class="edge">
<title>Node3&#45;&gt;Node6</title>
<g id="a_edge5_Node000003_Node000006"><a xlink:title=" ">
<path fill="none" stroke="#63b8ff" d="M120.1,-55.08C118.86,-48.49 117.12,-39.21 115.54,-30.82"/>
<polygon fill="#63b8ff" stroke="#63b8ff" points="119,-30.28 113.72,-21.1 112.12,-31.57 119,-30.28"/>
</a>
</g>
</g>
</g>
</svg>
