<?xml version="1.0" encoding="UTF-8" standalone="no"?>
<!DOCTYPE svg PUBLIC "-//W3C//DTD SVG 1.1//EN"
 "http://www.w3.org/Graphics/SVG/1.1/DTD/svg11.dtd">
<!-- Generated by graphviz version 9.0.0 (20230911.1827)
 -->
<!-- Title: workspace/albert/include/albert/item.h Pages: 1 -->
<svg width="305pt" height="94pt"
 viewBox="0.00 0.00 305.25 93.75" xmlns="http://www.w3.org/2000/svg" xmlns:xlink="http://www.w3.org/1999/xlink">
<g id="graph0" class="graph" transform="scale(1 1) rotate(0) translate(4 89.75)">
<title>workspace/albert/include/albert/item.h</title>
<!-- Node1 -->
<g id="Node000001" class="node">
<title>Node1</title>
<g id="a_Node000001"><a xlink:title=" ">
<polygon fill="#999999" stroke="#666666" points="225.75,-85.75 101.75,-85.75 101.75,-55.25 225.75,-55.25 225.75,-85.75"/>
<text text-anchor="start" x="109.75" y="-72.25" font-family="Helvetica,sans-Serif" font-size="10.00">workspace/albert/include</text>
<text text-anchor="middle" x="163.75" y="-61" font-family="Helvetica,sans-Serif" font-size="10.00">/albert/item.h</text>
</a>
</g>
</g>
<!-- Node2 -->
<g id="Node000002" class="node">
<title>Node2</title>
<g id="a_Node000002"><a xlink:title=" ">
<polygon fill="#e0e0e0" stroke="#999999" points="65.5,-19.25 0,-19.25 0,0 65.5,0 65.5,-19.25"/>
<text text-anchor="middle" x="32.75" y="-5.75" font-family="Helvetica,sans-Serif" font-size="10.00">QStringList</text>
</a>
</g>
</g>
<!-- Node1&#45;&gt;Node2 -->
<g id="edge1_Node000001_Node000002" class="edge">
<title>Node1&#45;&gt;Node2</title>
<g id="a_edge1_Node000001_Node000002"><a xlink:title=" ">
<path fill="none" stroke="#63b8ff" d="M131.03,-54.8C110.22,-45.44 83.45,-33.41 63.11,-24.27"/>
<polygon fill="#63b8ff" stroke="#63b8ff" points="64.78,-21.18 54.22,-20.27 61.91,-27.57 64.78,-21.18"/>
</a>
</g>
</g>
<!-- Node3 -->
<g id="Node000003" class="node">
<title>Node3</title>
<g id="a_Node000003"><a xlink:title=" ">
<polygon fill="#e0e0e0" stroke="#999999" points="160.12,-19.25 83.38,-19.25 83.38,0 160.12,0 160.12,-19.25"/>
<text text-anchor="middle" x="121.75" y="-5.75" font-family="Helvetica,sans-Serif" font-size="10.00">albert/export.h</text>
</a>
</g>
</g>
<!-- Node1&#45;&gt;Node3 -->
<g id="edge2_Node000001_Node000003" class="edge">
<title>Node1&#45;&gt;Node3</title>
<g id="a_edge2_Node000001_Node000003"><a xlink:title=" ">
<path fill="none" stroke="#63b8ff" d="M153.37,-54.95C147.77,-47.1 140.81,-37.35 134.85,-28.99"/>
<polygon fill="#63b8ff" stroke="#63b8ff" points="137.76,-27.04 129.1,-20.93 132.06,-31.11 137.76,-27.04"/>
</a>
</g>
</g>
<!-- Node4 -->
<g id="Node000004" class="node">
<title>Node4</title>
<g id="a_Node000004"><a xlink:title=" ">
<polygon fill="#e0e0e0" stroke="#999999" points="235.75,-19.25 177.75,-19.25 177.75,0 235.75,0 235.75,-19.25"/>
<text text-anchor="middle" x="206.75" y="-5.75" font-family="Helvetica,sans-Serif" font-size="10.00">functional</text>
</a>
</g>
</g>
<!-- Node1&#45;&gt;Node4 -->
<g id="edge3_Node000001_Node000004" class="edge">
<title>Node1&#45;&gt;Node4</title>
<g id="a_edge3_Node000001_Node000004"><a xlink:title=" ">
<path fill="none" stroke="#63b8ff" d="M174.38,-54.95C180.11,-47.1 187.23,-37.35 193.34,-28.99"/>
<polygon fill="#63b8ff" stroke="#63b8ff" points="196.16,-31.06 199.23,-20.92 190.5,-26.93 196.16,-31.06"/>
</a>
</g>
</g>
<!-- Node5 -->
<g id="Node000005" class="node">
<title>Node5</title>
<g id="a_Node000005"><a xlink:title=" ">
<polygon fill="#e0e0e0" stroke="#999999" points="297.25,-19.25 254.25,-19.25 254.25,0 297.25,0 297.25,-19.25"/>
<text text-anchor="middle" x="275.75" y="-5.75" font-family="Helvetica,sans-Serif" font-size="10.00">vector</text>
</a>
</g>
</g>
<!-- Node1&#45;&gt;Node5 -->
<g id="edge4_Node000001_Node000005" class="edge">
<title>Node1&#45;&gt;Node5</title>
<g id="a_edge4_Node000001_Node000005"><a xlink:title=" ">
<path fill="none" stroke="#63b8ff" d="M191.72,-54.8C209.11,-45.66 231.35,-33.97 248.58,-24.91"/>
<polygon fill="#63b8ff" stroke="#63b8ff" points="250.01,-28.11 257.23,-20.36 246.75,-21.91 250.01,-28.11"/>
</a>
</g>
</g>
</g>
</svg>
