<?xml version="1.0" encoding="UTF-8" standalone="no"?>
<!DOCTYPE svg PUBLIC "-//W3C//DTD SVG 1.1//EN"
 "http://www.w3.org/Graphics/SVG/1.1/DTD/svg11.dtd">
<!-- Generated by graphviz version 9.0.0 (20230911.1827)
 -->
<!-- Title: workspace/albert/include/albert/item.h Pages: 1 -->
<svg width="596pt" height="305pt"
 viewBox="0.00 0.00 596.00 304.50" xmlns="http://www.w3.org/2000/svg" xmlns:xlink="http://www.w3.org/1999/xlink">
<g id="graph0" class="graph" transform="scale(1 1) rotate(0) translate(4 300.5)">
<title>workspace/albert/include/albert/item.h</title>
<!-- Node1 -->
<g id="Node000001" class="node">
<title>Node1</title>
<g id="a_Node000001"><a xlink:title=" ">
<polygon fill="#999999" stroke="#666666" points="304,-296.5 180,-296.5 180,-266 304,-266 304,-296.5"/>
<text text-anchor="start" x="188" y="-283" font-family="Helvetica,sans-Serif" font-size="10.00">workspace/albert/include</text>
<text text-anchor="middle" x="242" y="-271.75" font-family="Helvetica,sans-Serif" font-size="10.00">/albert/item.h</text>
</a>
</g>
</g>
<!-- Node2 -->
<g id="Node000002" class="node">
<title>Node2</title>
<g id="a_Node000002"><a xlink:href="fallbackhandler_8h.html" target="_top" xlink:title=" ">
<polygon fill="white" stroke="#666666" points="124,-230 0,-230 0,-199.5 124,-199.5 124,-230"/>
<text text-anchor="start" x="8" y="-216.5" font-family="Helvetica,sans-Serif" font-size="10.00">workspace/albert/include</text>
<text text-anchor="middle" x="62" y="-205.25" font-family="Helvetica,sans-Serif" font-size="10.00">/albert/fallbackhandler.h</text>
</a>
</g>
</g>
<!-- Node1&#45;&gt;Node2 -->
<g id="edge1_Node000001_Node000002" class="edge">
<title>Node1&#45;&gt;Node2</title>
<g id="a_edge1_Node000001_Node000002"><a xlink:title=" ">
<path fill="none" stroke="#63b8ff" d="M190.45,-261.78C162.7,-251.83 128.94,-239.74 102.99,-230.44"/>
<polygon fill="#63b8ff" stroke="#63b8ff" points="189.14,-265.02 199.73,-265.1 191.5,-258.44 189.14,-265.02"/>
</a>
</g>
</g>
<!-- Node3 -->
<g id="Node000003" class="node">
<title>Node3</title>
<g id="a_Node000003"><a xlink:href="indexitem_8h.html" target="_top" xlink:title=" ">
<polygon fill="white" stroke="#666666" points="231,-97 107,-97 107,-66.5 231,-66.5 231,-97"/>
<text text-anchor="start" x="115" y="-83.5" font-family="Helvetica,sans-Serif" font-size="10.00">workspace/albert/include</text>
<text text-anchor="middle" x="169" y="-72.25" font-family="Helvetica,sans-Serif" font-size="10.00">/albert/indexitem.h</text>
</a>
</g>
</g>
<!-- Node1&#45;&gt;Node3 -->
<g id="edge2_Node000001_Node000003" class="edge">
<title>Node1&#45;&gt;Node3</title>
<g id="a_edge2_Node000001_Node000003"><a xlink:title=" ">
<path fill="none" stroke="#63b8ff" d="M199.37,-259.6C188.13,-251.95 177.37,-242.11 171,-230 148.03,-186.33 158.56,-124.81 165.13,-97.18"/>
<polygon fill="#63b8ff" stroke="#63b8ff" points="197.22,-262.38 207.56,-264.71 200.93,-256.44 197.22,-262.38"/>
</a>
</g>
</g>
<!-- Node5 -->
<g id="Node000005" class="node">
<title>Node5</title>
<g id="a_Node000005"><a xlink:href="queryresults_8h.html" target="_top" xlink:title=" ">
<polygon fill="white" stroke="#666666" points="304,-230 180,-230 180,-199.5 304,-199.5 304,-230"/>
<text text-anchor="start" x="188" y="-216.5" font-family="Helvetica,sans-Serif" font-size="10.00">workspace/albert/include</text>
<text text-anchor="middle" x="242" y="-205.25" font-family="Helvetica,sans-Serif" font-size="10.00">/albert/queryresults.h</text>
</a>
</g>
</g>
<!-- Node1&#45;&gt;Node5 -->
<g id="edge4_Node000001_Node000005" class="edge">
<title>Node1&#45;&gt;Node5</title>
<g id="a_edge4_Node000001_Node000005"><a xlink:title=" ">
<path fill="none" stroke="#63b8ff" d="M242,-254.31C242,-246.14 242,-237.41 242,-230.33"/>
<polygon fill="#63b8ff" stroke="#63b8ff" points="238.5,-254.1 242,-264.1 245.5,-254.1 238.5,-254.1"/>
</a>
</g>
</g>
<!-- Node7 -->
<g id="Node000007" class="node">
<title>Node7</title>
<g id="a_Node000007"><a xlink:href="rankitem_8h.html" target="_top" xlink:title=" ">
<polygon fill="white" stroke="#666666" points="446,-230 322,-230 322,-199.5 446,-199.5 446,-230"/>
<text text-anchor="start" x="330" y="-216.5" font-family="Helvetica,sans-Serif" font-size="10.00">workspace/albert/include</text>
<text text-anchor="middle" x="384" y="-205.25" font-family="Helvetica,sans-Serif" font-size="10.00">/albert/rankitem.h</text>
</a>
</g>
</g>
<!-- Node1&#45;&gt;Node7 -->
<g id="edge6_Node000001_Node000007" class="edge">
<title>Node1&#45;&gt;Node7</title>
<g id="a_edge6_Node000001_Node000007"><a xlink:title=" ">
<path fill="none" stroke="#63b8ff" d="M284.46,-260.97C306.09,-251.14 331.96,-239.39 351.91,-230.33"/>
<polygon fill="#63b8ff" stroke="#63b8ff" points="283.26,-257.67 275.6,-264.99 286.15,-264.04 283.26,-257.67"/>
</a>
</g>
</g>
<!-- Node10 -->
<g id="Node000010" class="node">
<title>Node10</title>
<g id="a_Node000010"><a xlink:href="standarditem_8h.html" target="_top" xlink:title=" ">
<polygon fill="white" stroke="#666666" points="588,-230 464,-230 464,-199.5 588,-199.5 588,-230"/>
<text text-anchor="start" x="472" y="-216.5" font-family="Helvetica,sans-Serif" font-size="10.00">workspace/albert/include</text>
<text text-anchor="middle" x="526" y="-205.25" font-family="Helvetica,sans-Serif" font-size="10.00">/albert/standarditem.h</text>
</a>
</g>
</g>
<!-- Node1&#45;&gt;Node10 -->
<g id="edge11_Node000001_Node000010" class="edge">
<title>Node1&#45;&gt;Node10</title>
<g id="a_edge11_Node000001_Node000010"><a xlink:title=" ">
<path fill="none" stroke="#63b8ff" d="M315.43,-263.57C361.45,-253.12 420.11,-239.8 463.82,-229.87"/>
<polygon fill="#63b8ff" stroke="#63b8ff" points="314.78,-260.13 305.8,-265.76 316.33,-266.96 314.78,-260.13"/>
</a>
</g>
</g>
<!-- Node4 -->
<g id="Node000004" class="node">
<title>Node4</title>
<g id="a_Node000004"><a xlink:href="indexqueryhandler_8h.html" target="_top" xlink:title=" ">
<polygon fill="white" stroke="#666666" points="307.38,-30.5 176.62,-30.5 176.62,0 307.38,0 307.38,-30.5"/>
<text text-anchor="start" x="184.62" y="-17" font-family="Helvetica,sans-Serif" font-size="10.00">workspace/albert/include</text>
<text text-anchor="middle" x="242" y="-5.75" font-family="Helvetica,sans-Serif" font-size="10.00">/albert/indexqueryhandler.h</text>
</a>
</g>
</g>
<!-- Node3&#45;&gt;Node4 -->
<g id="edge3_Node000003_Node000004" class="edge">
<title>Node3&#45;&gt;Node4</title>
<g id="a_edge3_Node000003_Node000004"><a xlink:title=" ">
<path fill="none" stroke="#63b8ff" d="M193.91,-58.74C204.34,-49.53 216.18,-39.06 225.5,-30.83"/>
<polygon fill="#63b8ff" stroke="#63b8ff" points="191.88,-55.87 186.7,-65.11 196.51,-61.11 191.88,-55.87"/>
</a>
</g>
</g>
<!-- Node6 -->
<g id="Node000006" class="node">
<title>Node6</title>
<g id="a_Node000006"><a xlink:href="queryexecution_8h.html" target="_top" xlink:title=" ">
<polygon fill="white" stroke="#666666" points="304,-163.5 180,-163.5 180,-133 304,-133 304,-163.5"/>
<text text-anchor="start" x="188" y="-150" font-family="Helvetica,sans-Serif" font-size="10.00">workspace/albert/include</text>
<text text-anchor="middle" x="242" y="-138.75" font-family="Helvetica,sans-Serif" font-size="10.00">/albert/queryexecution.h</text>
</a>
</g>
</g>
<!-- Node5&#45;&gt;Node6 -->
<g id="edge5_Node000005_Node000006" class="edge">
<title>Node5&#45;&gt;Node6</title>
<g id="a_edge5_Node000005_Node000006"><a xlink:title=" ">
<path fill="none" stroke="#63b8ff" d="M242,-187.81C242,-179.64 242,-170.91 242,-163.83"/>
<polygon fill="#63b8ff" stroke="#63b8ff" points="238.5,-187.6 242,-197.6 245.5,-187.6 238.5,-187.6"/>
</a>
</g>
</g>
<!-- Node8 -->
<g id="Node000008" class="node">
<title>Node8</title>
<g id="a_Node000008"><a xlink:href="globalqueryhandler_8h.html" target="_top" xlink:title=" ">
<polygon fill="white" stroke="#666666" points="398.88,-97 265.12,-97 265.12,-66.5 398.88,-66.5 398.88,-97"/>
<text text-anchor="start" x="273.12" y="-83.5" font-family="Helvetica,sans-Serif" font-size="10.00">workspace/albert/include</text>
<text text-anchor="middle" x="332" y="-72.25" font-family="Helvetica,sans-Serif" font-size="10.00">/albert/globalqueryhandler.h</text>
</a>
</g>
</g>
<!-- Node7&#45;&gt;Node8 -->
<g id="edge7_Node000007_Node000008" class="edge">
<title>Node7&#45;&gt;Node8</title>
<g id="a_edge7_Node000007_Node000008"><a xlink:title=" ">
<path fill="none" stroke="#63b8ff" d="M365.95,-190C360.5,-181.93 354.93,-172.63 351,-163.5 341.5,-141.4 336.31,-113.77 333.85,-97.23"/>
<polygon fill="#63b8ff" stroke="#63b8ff" points="362.92,-191.77 371.55,-197.91 368.63,-187.72 362.92,-191.77"/>
</a>
</g>
</g>
<!-- Node9 -->
<g id="Node000009" class="node">
<title>Node9</title>
<g id="a_Node000009"><a xlink:href="rankedqueryhandler_8h.html" target="_top" xlink:title=" ">
<polygon fill="white" stroke="#666666" points="497.75,-163.5 360.25,-163.5 360.25,-133 497.75,-133 497.75,-163.5"/>
<text text-anchor="start" x="368.25" y="-150" font-family="Helvetica,sans-Serif" font-size="10.00">workspace/albert/include</text>
<text text-anchor="middle" x="429" y="-138.75" font-family="Helvetica,sans-Serif" font-size="10.00">/albert/rankedqueryhandler.h</text>
</a>
</g>
</g>
<!-- Node7&#45;&gt;Node9 -->
<g id="edge9_Node000007_Node000009" class="edge">
<title>Node7&#45;&gt;Node9</title>
<g id="a_edge9_Node000007_Node000009"><a xlink:title=" ">
<path fill="none" stroke="#63b8ff" d="M400.72,-189.79C406.8,-181.07 413.49,-171.49 418.83,-163.83"/>
<polygon fill="#63b8ff" stroke="#63b8ff" points="397.93,-187.67 395.08,-197.87 403.67,-191.67 397.93,-187.67"/>
</a>
</g>
</g>
<!-- Node8&#45;&gt;Node4 -->
<g id="edge8_Node000008_Node000004" class="edge">
<title>Node8&#45;&gt;Node4</title>
<g id="a_edge8_Node000008_Node000004"><a xlink:title=" ">
<path fill="none" stroke="#63b8ff" d="M302.44,-59.57C289.31,-50.16 274.18,-39.31 262.34,-30.83"/>
<polygon fill="#63b8ff" stroke="#63b8ff" points="300.18,-62.25 310.35,-65.23 304.26,-56.56 300.18,-62.25"/>
</a>
</g>
</g>
<!-- Node9&#45;&gt;Node8 -->
<g id="edge10_Node000009_Node000008" class="edge">
<title>Node9&#45;&gt;Node8</title>
<g id="a_edge10_Node000009_Node000008"><a xlink:title=" ">
<path fill="none" stroke="#63b8ff" d="M397.56,-126.34C383.31,-116.87 366.81,-105.89 353.92,-97.33"/>
<polygon fill="#63b8ff" stroke="#63b8ff" points="395.46,-129.15 405.73,-131.78 399.34,-123.32 395.46,-129.15"/>
</a>
</g>
</g>
</g>
</svg>
