<?xml version="1.0" encoding="UTF-8" standalone="no"?>
<!DOCTYPE svg PUBLIC "-//W3C//DTD SVG 1.1//EN"
 "http://www.w3.org/Graphics/SVG/1.1/DTD/svg11.dtd">
<!-- Generated by graphviz version 9.0.0 (20230911.1827)
 -->
<!-- Title: workspace/albert/include/albert/logging.h Pages: 1 -->
<svg width="280pt" height="105pt"
 viewBox="0.00 0.00 280.38 105.00" xmlns="http://www.w3.org/2000/svg" xmlns:xlink="http://www.w3.org/1999/xlink">
<g id="graph0" class="graph" transform="scale(1 1) rotate(0) translate(4 101)">
<title>workspace/albert/include/albert/logging.h</title>
<!-- Node1 -->
<g id="Node000001" class="node">
<title>Node1</title>
<g id="a_Node000001"><a xlink:title=" ">
<polygon fill="#999999" stroke="#666666" points="199.38,-97 75.38,-97 75.38,-66.5 199.38,-66.5 199.38,-97"/>
<text text-anchor="start" x="83.38" y="-83.5" font-family="Helvetica,sans-Serif" font-size="10.00">workspace/albert/include</text>
<text text-anchor="middle" x="137.38" y="-72.25" font-family="Helvetica,sans-Serif" font-size="10.00">/albert/logging.h</text>
</a>
</g>
</g>
<!-- Node2 -->
<g id="Node000002" class="node">
<title>Node2</title>
<g id="a_Node000002"><a xlink:href="plugindependency_8h.html" target="_top" xlink:title=" ">
<polygon fill="white" stroke="#666666" points="130.75,-30.5 0,-30.5 0,0 130.75,0 130.75,-30.5"/>
<text text-anchor="start" x="8" y="-17" font-family="Helvetica,sans-Serif" font-size="10.00">workspace/albert/include</text>
<text text-anchor="middle" x="65.38" y="-5.75" font-family="Helvetica,sans-Serif" font-size="10.00">/albert/plugindependency.h</text>
</a>
</g>
</g>
<!-- Node1&#45;&gt;Node2 -->
<g id="edge1_Node000001_Node000002" class="edge">
<title>Node1&#45;&gt;Node2</title>
<g id="a_edge1_Node000001_Node000002"><a xlink:title=" ">
<path fill="none" stroke="#63b8ff" d="M112.5,-58.46C102.29,-49.32 90.75,-38.98 81.65,-30.83"/>
<polygon fill="#63b8ff" stroke="#63b8ff" points="110.13,-61.04 119.91,-65.1 114.8,-55.82 110.13,-61.04"/>
</a>
</g>
</g>
<!-- Node3 -->
<g id="Node000003" class="node">
<title>Node3</title>
<g id="a_Node000003"><a xlink:href="timeit_8h.html" target="_top" xlink:title=" ">
<polygon fill="white" stroke="#666666" points="272.38,-30.5 148.38,-30.5 148.38,0 272.38,0 272.38,-30.5"/>
<text text-anchor="start" x="156.38" y="-17" font-family="Helvetica,sans-Serif" font-size="10.00">workspace/albert/include</text>
<text text-anchor="middle" x="210.38" y="-5.75" font-family="Helvetica,sans-Serif" font-size="10.00">/albert/timeit.h</text>
</a>
</g>
</g>
<!-- Node1&#45;&gt;Node3 -->
<g id="edge2_Node000001_Node000003" class="edge">
<title>Node1&#45;&gt;Node3</title>
<g id="a_edge2_Node000001_Node000003"><a xlink:title=" ">
<path fill="none" stroke="#63b8ff" d="M162.28,-58.74C172.71,-49.53 184.55,-39.06 193.88,-30.83"/>
<polygon fill="#63b8ff" stroke="#63b8ff" points="160.25,-55.87 155.07,-65.11 164.89,-61.11 160.25,-55.87"/>
</a>
</g>
</g>
</g>
</svg>
