<?xml version="1.0" encoding="UTF-8" standalone="no"?>
<!DOCTYPE svg PUBLIC "-//W3C//DTD SVG 1.1//EN"
 "http://www.w3.org/Graphics/SVG/1.1/DTD/svg11.dtd">
<!-- Generated by graphviz version 9.0.0 (20230911.1827)
 -->
<!-- Title: workspace/albert/include/albert/logging.h Pages: 1 -->
<svg width="439pt" height="105pt"
 viewBox="0.00 0.00 439.25 105.00" xmlns="http://www.w3.org/2000/svg" xmlns:xlink="http://www.w3.org/1999/xlink">
<g id="graph0" class="graph" transform="scale(1 1) rotate(0) translate(4 101)">
<title>workspace/albert/include/albert/logging.h</title>
<!-- Node1 -->
<g id="Node000001" class="node">
<title>Node1</title>
<g id="a_Node000001"><a xlink:title=" ">
<polygon fill="#999999" stroke="#666666" points="286.25,-97 162.25,-97 162.25,-66.5 286.25,-66.5 286.25,-97"/>
<text text-anchor="start" x="170.25" y="-83.5" font-family="Helvetica,sans-Serif" font-size="10.00">workspace/albert/include</text>
<text text-anchor="middle" x="224.25" y="-72.25" font-family="Helvetica,sans-Serif" font-size="10.00">/albert/logging.h</text>
</a>
</g>
</g>
<!-- Node2 -->
<g id="Node000002" class="node">
<title>Node2</title>
<g id="a_Node000002"><a xlink:href="backgroundexecutor_8h.html" target="_top" xlink:title=" ">
<polygon fill="white" stroke="#666666" points="140.5,-30.5 0,-30.5 0,0 140.5,0 140.5,-30.5"/>
<text text-anchor="start" x="8" y="-17" font-family="Helvetica,sans-Serif" font-size="10.00">workspace/albert/include</text>
<text text-anchor="middle" x="70.25" y="-5.75" font-family="Helvetica,sans-Serif" font-size="10.00">/albert/backgroundexecutor.h</text>
</a>
</g>
</g>
<!-- Node1&#45;&gt;Node2 -->
<g id="edge1_Node000001_Node000002" class="edge">
<title>Node1&#45;&gt;Node2</title>
<g id="a_edge1_Node000001_Node000002"><a xlink:title=" ">
<path fill="none" stroke="#63b8ff" d="M178.88,-61.75C155.38,-51.91 127.13,-40.07 105.32,-30.94"/>
<polygon fill="#63b8ff" stroke="#63b8ff" points="177.33,-64.89 187.91,-65.53 180.04,-58.44 177.33,-64.89"/>
</a>
</g>
</g>
<!-- Node3 -->
<g id="Node000003" class="node">
<title>Node3</title>
<g id="a_Node000003"><a xlink:href="plugindependency_8h.html" target="_top" xlink:title=" ">
<polygon fill="white" stroke="#666666" points="289.62,-30.5 158.88,-30.5 158.88,0 289.62,0 289.62,-30.5"/>
<text text-anchor="start" x="166.88" y="-17" font-family="Helvetica,sans-Serif" font-size="10.00">workspace/albert/include</text>
<text text-anchor="middle" x="224.25" y="-5.75" font-family="Helvetica,sans-Serif" font-size="10.00">/albert/plugindependency.h</text>
</a>
</g>
</g>
<!-- Node1&#45;&gt;Node3 -->
<g id="edge2_Node000001_Node000003" class="edge">
<title>Node1&#45;&gt;Node3</title>
<g id="a_edge2_Node000001_Node000003"><a xlink:title=" ">
<path fill="none" stroke="#63b8ff" d="M224.25,-54.81C224.25,-46.64 224.25,-37.91 224.25,-30.83"/>
<polygon fill="#63b8ff" stroke="#63b8ff" points="220.75,-54.6 224.25,-64.6 227.75,-54.6 220.75,-54.6"/>
</a>
</g>
</g>
<!-- Node4 -->
<g id="Node000004" class="node">
<title>Node4</title>
<g id="a_Node000004"><a xlink:href="timeit_8h.html" target="_top" xlink:title=" ">
<polygon fill="white" stroke="#666666" points="431.25,-30.5 307.25,-30.5 307.25,0 431.25,0 431.25,-30.5"/>
<text text-anchor="start" x="315.25" y="-17" font-family="Helvetica,sans-Serif" font-size="10.00">workspace/albert/include</text>
<text text-anchor="middle" x="369.25" y="-5.75" font-family="Helvetica,sans-Serif" font-size="10.00">/albert/timeit.h</text>
</a>
</g>
</g>
<!-- Node1&#45;&gt;Node4 -->
<g id="edge3_Node000001_Node000004" class="edge">
<title>Node1&#45;&gt;Node4</title>
<g id="a_edge3_Node000001_Node000004"><a xlink:title=" ">
<path fill="none" stroke="#63b8ff" d="M267.56,-61.48C289.57,-51.69 315.88,-39.99 336.23,-30.94"/>
<polygon fill="#63b8ff" stroke="#63b8ff" points="266.25,-58.24 258.54,-65.5 269.09,-64.63 266.25,-58.24"/>
</a>
</g>
</g>
</g>
</svg>
