<?xml version="1.0" encoding="UTF-8" standalone="no"?>
<!DOCTYPE svg PUBLIC "-//W3C//DTD SVG 1.1//EN"
 "http://www.w3.org/Graphics/SVG/1.1/DTD/svg11.dtd">
<!-- Generated by graphviz version 9.0.0 (20230911.1827)
 -->
<!-- Title: workspace/albert/include/albert/matcher.h Pages: 1 -->
<svg width="402pt" height="149pt"
 viewBox="0.00 0.00 401.50 149.00" xmlns="http://www.w3.org/2000/svg" xmlns:xlink="http://www.w3.org/1999/xlink">
<g id="graph0" class="graph" transform="scale(1 1) rotate(0) translate(4 145)">
<title>workspace/albert/include/albert/matcher.h</title>
<!-- Node1 -->
<g id="Node000001" class="node">
<title>Node1</title>
<g id="a_Node000001"><a xlink:title=" ">
<polygon fill="#999999" stroke="#666666" points="260.88,-141 136.88,-141 136.88,-110.5 260.88,-110.5 260.88,-141"/>
<text text-anchor="start" x="144.88" y="-127.5" font-family="Helvetica,sans-Serif" font-size="10.00">workspace/albert/include</text>
<text text-anchor="middle" x="198.88" y="-116.25" font-family="Helvetica,sans-Serif" font-size="10.00">/albert/matcher.h</text>
</a>
</g>
</g>
<!-- Node2 -->
<g id="Node000002" class="node">
<title>Node2</title>
<g id="a_Node000002"><a xlink:title=" ">
<polygon fill="#e0e0e0" stroke="#999999" points="103.75,-74.5 0,-74.5 0,-55.25 103.75,-55.25 103.75,-74.5"/>
<text text-anchor="middle" x="51.88" y="-61" font-family="Helvetica,sans-Serif" font-size="10.00">QRegularExpression</text>
</a>
</g>
</g>
<!-- Node1&#45;&gt;Node2 -->
<g id="edge1_Node000001_Node000002" class="edge">
<title>Node1&#45;&gt;Node2</title>
<g id="a_edge1_Node000001_Node000002"><a xlink:title=" ">
<path fill="none" stroke="#63b8ff" d="M162.16,-110.05C138.48,-100.56 107.94,-88.33 85,-79.14"/>
<polygon fill="#63b8ff" stroke="#63b8ff" points="86.41,-75.94 75.82,-75.47 83.81,-82.43 86.41,-75.94"/>
</a>
</g>
</g>
<!-- Node3 -->
<g id="Node000003" class="node">
<title>Node3</title>
<g id="a_Node000003"><a xlink:title=" ">
<polygon fill="#e0e0e0" stroke="#999999" points="170.38,-74.5 121.38,-74.5 121.38,-55.25 170.38,-55.25 170.38,-74.5"/>
<text text-anchor="middle" x="145.88" y="-61" font-family="Helvetica,sans-Serif" font-size="10.00">QString</text>
</a>
</g>
</g>
<!-- Node1&#45;&gt;Node3 -->
<g id="edge2_Node000001_Node000003" class="edge">
<title>Node1&#45;&gt;Node3</title>
<g id="a_edge2_Node000001_Node000003"><a xlink:title=" ">
<path fill="none" stroke="#63b8ff" d="M185.77,-110.2C178.48,-102.09 169.35,-91.95 161.66,-83.41"/>
<polygon fill="#63b8ff" stroke="#63b8ff" points="164.35,-81.17 155.06,-76.08 159.15,-85.85 164.35,-81.17"/>
</a>
</g>
</g>
<!-- Node4 -->
<g id="Node000004" class="node">
<title>Node4</title>
<g id="a_Node000004"><a xlink:title=" ">
<polygon fill="#e0e0e0" stroke="#999999" points="277.25,-19.25 200.5,-19.25 200.5,0 277.25,0 277.25,-19.25"/>
<text text-anchor="middle" x="238.88" y="-5.75" font-family="Helvetica,sans-Serif" font-size="10.00">albert/export.h</text>
</a>
</g>
</g>
<!-- Node1&#45;&gt;Node4 -->
<g id="edge3_Node000001_Node000004" class="edge">
<title>Node1&#45;&gt;Node4</title>
<g id="a_edge3_Node000001_Node000004"><a xlink:title=" ">
<path fill="none" stroke="#63b8ff" d="M202.43,-110.18C206.04,-95.99 212.06,-73.88 218.88,-55.25 221.97,-46.79 225.94,-37.67 229.52,-29.89"/>
<polygon fill="#63b8ff" stroke="#63b8ff" points="232.59,-31.6 233.7,-21.07 226.26,-28.61 232.59,-31.6"/>
</a>
</g>
</g>
<!-- Node5 -->
<g id="Node000005" class="node">
<title>Node5</title>
<g id="a_Node000005"><a xlink:href="matchconfig_8h.html" target="_top" xlink:title=" ">
<polygon fill="white" stroke="#666666" points="330.38,-74.5 227.38,-74.5 227.38,-55.25 330.38,-55.25 330.38,-74.5"/>
<text text-anchor="middle" x="278.88" y="-61" font-family="Helvetica,sans-Serif" font-size="10.00">albert/matchconfig.h</text>
</a>
</g>
</g>
<!-- Node1&#45;&gt;Node5 -->
<g id="edge4_Node000001_Node000005" class="edge">
<title>Node1&#45;&gt;Node5</title>
<g id="a_edge4_Node000001_Node000005"><a xlink:title=" ">
<path fill="none" stroke="#63b8ff" d="M218.65,-110.2C230.48,-101.49 245.51,-90.43 257.6,-81.53"/>
<polygon fill="#63b8ff" stroke="#63b8ff" points="259.34,-84.59 265.32,-75.85 255.19,-78.96 259.34,-84.59"/>
</a>
</g>
</g>
<!-- Node6 -->
<g id="Node000006" class="node">
<title>Node6</title>
<g id="a_Node000006"><a xlink:title=" ">
<polygon fill="#e0e0e0" stroke="#999999" points="393.5,-74.5 348.25,-74.5 348.25,-55.25 393.5,-55.25 393.5,-74.5"/>
<text text-anchor="middle" x="370.88" y="-61" font-family="Helvetica,sans-Serif" font-size="10.00">ranges</text>
</a>
</g>
</g>
<!-- Node1&#45;&gt;Node6 -->
<g id="edge6_Node000001_Node000006" class="edge">
<title>Node1&#45;&gt;Node6</title>
<g id="a_edge6_Node000001_Node000006"><a xlink:title=" ">
<path fill="none" stroke="#63b8ff" d="M241.83,-110.05C271.39,-99.93 310.09,-86.68 337.37,-77.34"/>
<polygon fill="#63b8ff" stroke="#63b8ff" points="338.19,-80.76 346.52,-74.21 335.92,-74.14 338.19,-80.76"/>
</a>
</g>
</g>
<!-- Node5&#45;&gt;Node4 -->
<g id="edge5_Node000005_Node000004" class="edge">
<title>Node5&#45;&gt;Node4</title>
<g id="a_edge5_Node000005_Node000004"><a xlink:title=" ">
<path fill="none" stroke="#63b8ff" d="M272.27,-55.08C266.92,-47.96 259.2,-37.68 252.53,-28.8"/>
<polygon fill="#63b8ff" stroke="#63b8ff" points="255.34,-26.71 246.53,-20.82 249.74,-30.92 255.34,-26.71"/>
</a>
</g>
</g>
</g>
</svg>
