<?xml version="1.0" encoding="UTF-8" standalone="no"?>
<!DOCTYPE svg PUBLIC "-//W3C//DTD SVG 1.1//EN"
 "http://www.w3.org/Graphics/SVG/1.1/DTD/svg11.dtd">
<!-- Generated by graphviz version 9.0.0 (20230911.1827)
 -->
<!-- Title: workspace/albert/include/albert/matcher.h Pages: 1 -->
<svg width="301pt" height="149pt"
 viewBox="0.00 0.00 300.50 149.00" xmlns="http://www.w3.org/2000/svg" xmlns:xlink="http://www.w3.org/1999/xlink">
<g id="graph0" class="graph" transform="scale(1 1) rotate(0) translate(4 145)">
<title>workspace/albert/include/albert/matcher.h</title>
<!-- Node1 -->
<g id="Node000001" class="node">
<title>Node1</title>
<g id="a_Node000001"><a xlink:title=" ">
<polygon fill="#999999" stroke="#666666" points="200.88,-141 76.88,-141 76.88,-110.5 200.88,-110.5 200.88,-141"/>
<text text-anchor="start" x="84.88" y="-127.5" font-family="Helvetica,sans-Serif" font-size="10.00">workspace/albert/include</text>
<text text-anchor="middle" x="138.88" y="-116.25" font-family="Helvetica,sans-Serif" font-size="10.00">/albert/matcher.h</text>
</a>
</g>
</g>
<!-- Node2 -->
<g id="Node000002" class="node">
<title>Node2</title>
<g id="a_Node000002"><a xlink:title=" ">
<polygon fill="#e0e0e0" stroke="#999999" points="103.75,-19.25 0,-19.25 0,0 103.75,0 103.75,-19.25"/>
<text text-anchor="middle" x="51.88" y="-5.75" font-family="Helvetica,sans-Serif" font-size="10.00">QRegularExpression</text>
</a>
</g>
</g>
<!-- Node1&#45;&gt;Node2 -->
<g id="edge1_Node000001_Node000002" class="edge">
<title>Node1&#45;&gt;Node2</title>
<g id="a_edge1_Node000001_Node000002"><a xlink:title=" ">
<path fill="none" stroke="#63b8ff" d="M76.57,-115.72C51.85,-108.75 25.8,-96.4 10.88,-74.5 -0.11,-58.39 15.3,-39.56 30.26,-26.54"/>
<polygon fill="#63b8ff" stroke="#63b8ff" points="32.08,-29.58 37.64,-20.57 27.67,-24.14 32.08,-29.58"/>
</a>
</g>
</g>
<!-- Node3 -->
<g id="Node000003" class="node">
<title>Node3</title>
<g id="a_Node000003"><a xlink:title=" ">
<polygon fill="#e0e0e0" stroke="#999999" points="69.38,-74.5 20.38,-74.5 20.38,-55.25 69.38,-55.25 69.38,-74.5"/>
<text text-anchor="middle" x="44.88" y="-61" font-family="Helvetica,sans-Serif" font-size="10.00">QString</text>
</a>
</g>
</g>
<!-- Node1&#45;&gt;Node3 -->
<g id="edge2_Node000001_Node000003" class="edge">
<title>Node1&#45;&gt;Node3</title>
<g id="a_edge2_Node000001_Node000003"><a xlink:title=" ">
<path fill="none" stroke="#63b8ff" d="M115.64,-110.2C101.46,-101.32 83.38,-89.99 69.04,-81.01"/>
<polygon fill="#63b8ff" stroke="#63b8ff" points="70.98,-78.1 60.65,-75.75 67.27,-84.03 70.98,-78.1"/>
</a>
</g>
</g>
<!-- Node4 -->
<g id="Node000004" class="node">
<title>Node4</title>
<g id="a_Node000004"><a xlink:title=" ">
<polygon fill="#e0e0e0" stroke="#999999" points="217.25,-19.25 140.5,-19.25 140.5,0 217.25,0 217.25,-19.25"/>
<text text-anchor="middle" x="178.88" y="-5.75" font-family="Helvetica,sans-Serif" font-size="10.00">albert/export.h</text>
</a>
</g>
</g>
<!-- Node1&#45;&gt;Node4 -->
<g id="edge3_Node000001_Node000004" class="edge">
<title>Node1&#45;&gt;Node4</title>
<g id="a_edge3_Node000001_Node000004"><a xlink:title=" ">
<path fill="none" stroke="#63b8ff" d="M165.96,-110.09C178.78,-101.56 192.79,-89.51 199.88,-74.5 206.87,-59.67 199.87,-41.89 192.12,-28.85"/>
<polygon fill="#63b8ff" stroke="#63b8ff" points="195.26,-27.26 186.84,-20.83 189.42,-31.11 195.26,-27.26"/>
</a>
</g>
</g>
<!-- Node5 -->
<g id="Node000005" class="node">
<title>Node5</title>
<g id="a_Node000005"><a xlink:href="matchconfig_8h.html" target="_top" xlink:title=" ">
<polygon fill="white" stroke="#666666" points="190.38,-74.5 87.38,-74.5 87.38,-55.25 190.38,-55.25 190.38,-74.5"/>
<text text-anchor="middle" x="138.88" y="-61" font-family="Helvetica,sans-Serif" font-size="10.00">albert/matchconfig.h</text>
</a>
</g>
</g>
<!-- Node1&#45;&gt;Node5 -->
<g id="edge4_Node000001_Node000005" class="edge">
<title>Node1&#45;&gt;Node5</title>
<g id="a_edge4_Node000001_Node000005"><a xlink:title=" ">
<path fill="none" stroke="#63b8ff" d="M138.88,-110.2C138.88,-102.96 138.88,-94.09 138.88,-86.19"/>
<polygon fill="#63b8ff" stroke="#63b8ff" points="142.38,-86.46 138.88,-76.46 135.38,-86.46 142.38,-86.46"/>
</a>
</g>
</g>
<!-- Node6 -->
<g id="Node000006" class="node">
<title>Node6</title>
<g id="a_Node000006"><a xlink:title=" ">
<polygon fill="#e0e0e0" stroke="#999999" points="292.5,-74.5 247.25,-74.5 247.25,-55.25 292.5,-55.25 292.5,-74.5"/>
<text text-anchor="middle" x="269.88" y="-61" font-family="Helvetica,sans-Serif" font-size="10.00">ranges</text>
</a>
</g>
</g>
<!-- Node1&#45;&gt;Node6 -->
<g id="edge7_Node000001_Node000006" class="edge">
<title>Node1&#45;&gt;Node6</title>
<g id="a_edge7_Node000001_Node000006"><a xlink:title=" ">
<path fill="none" stroke="#63b8ff" d="M171.59,-110.05C192.41,-100.69 219.17,-88.66 239.51,-79.52"/>
<polygon fill="#63b8ff" stroke="#63b8ff" points="240.72,-82.82 248.4,-75.52 237.85,-76.43 240.72,-82.82"/>
</a>
</g>
</g>
<!-- Node5&#45;&gt;Node2 -->
<g id="edge6_Node000005_Node000002" class="edge">
<title>Node5&#45;&gt;Node2</title>
<g id="a_edge6_Node000005_Node000002"><a xlink:title=" ">
<path fill="none" stroke="#63b8ff" d="M124.12,-54.84C110.99,-46.81 91.55,-34.91 76.14,-25.48"/>
<polygon fill="#63b8ff" stroke="#63b8ff" points="78.35,-22.73 68,-20.49 74.7,-28.7 78.35,-22.73"/>
</a>
</g>
</g>
<!-- Node5&#45;&gt;Node4 -->
<g id="edge5_Node000005_Node000004" class="edge">
<title>Node5&#45;&gt;Node4</title>
<g id="a_edge5_Node000005_Node000004"><a xlink:title=" ">
<path fill="none" stroke="#63b8ff" d="M145.48,-55.08C150.83,-47.96 158.55,-37.68 165.22,-28.8"/>
<polygon fill="#63b8ff" stroke="#63b8ff" points="168.01,-30.92 171.22,-20.82 162.41,-26.71 168.01,-30.92"/>
</a>
</g>
</g>
</g>
</svg>
