<?xml version="1.0" encoding="UTF-8" standalone="no"?>
<!DOCTYPE svg PUBLIC "-//W3C//DTD SVG 1.1//EN"
 "http://www.w3.org/Graphics/SVG/1.1/DTD/svg11.dtd">
<!-- Generated by graphviz version 9.0.0 (20230911.1827)
 -->
<!-- Title: workspace/albert/include/albert/matcher.h Pages: 1 -->
<svg width="225pt" height="149pt"
 viewBox="0.00 0.00 225.25 149.00" xmlns="http://www.w3.org/2000/svg" xmlns:xlink="http://www.w3.org/1999/xlink">
<g id="graph0" class="graph" transform="scale(1 1) rotate(0) translate(4 145)">
<title>workspace/albert/include/albert/matcher.h</title>
<!-- Node1 -->
<g id="Node000001" class="node">
<title>Node1</title>
<g id="a_Node000001"><a xlink:title=" ">
<polygon fill="#999999" stroke="#666666" points="153.88,-141 29.88,-141 29.88,-110.5 153.88,-110.5 153.88,-141"/>
<text text-anchor="start" x="37.88" y="-127.5" font-family="Helvetica,sans-Serif" font-size="10.00">workspace/albert/include</text>
<text text-anchor="middle" x="91.88" y="-116.25" font-family="Helvetica,sans-Serif" font-size="10.00">/albert/matcher.h</text>
</a>
</g>
</g>
<!-- Node2 -->
<g id="Node000002" class="node">
<title>Node2</title>
<g id="a_Node000002"><a xlink:title=" ">
<polygon fill="#e0e0e0" stroke="#999999" points="103.75,-19.25 0,-19.25 0,0 103.75,0 103.75,-19.25"/>
<text text-anchor="middle" x="51.88" y="-5.75" font-family="Helvetica,sans-Serif" font-size="10.00">QRegularExpression</text>
</a>
</g>
</g>
<!-- Node1&#45;&gt;Node2 -->
<g id="edge1_Node000001_Node000002" class="edge">
<title>Node1&#45;&gt;Node2</title>
<g id="a_edge1_Node000001_Node000002"><a xlink:title=" ">
<path fill="none" stroke="#63b8ff" d="M51.95,-110.1C36.22,-102.13 19.81,-90.55 10.88,-74.5 1.59,-57.81 15.96,-39.55 30.17,-26.84"/>
<polygon fill="#63b8ff" stroke="#63b8ff" points="32.15,-29.75 37.62,-20.68 27.69,-24.35 32.15,-29.75"/>
</a>
</g>
</g>
<!-- Node3 -->
<g id="Node000003" class="node">
<title>Node3</title>
<g id="a_Node000003"><a xlink:title=" ">
<polygon fill="#e0e0e0" stroke="#999999" points="69.38,-74.5 20.38,-74.5 20.38,-55.25 69.38,-55.25 69.38,-74.5"/>
<text text-anchor="middle" x="44.88" y="-61" font-family="Helvetica,sans-Serif" font-size="10.00">QString</text>
</a>
</g>
</g>
<!-- Node1&#45;&gt;Node3 -->
<g id="edge2_Node000001_Node000003" class="edge">
<title>Node1&#45;&gt;Node3</title>
<g id="a_edge2_Node000001_Node000003"><a xlink:title=" ">
<path fill="none" stroke="#63b8ff" d="M80.26,-110.2C73.86,-102.18 65.86,-92.17 59.09,-83.69"/>
<polygon fill="#63b8ff" stroke="#63b8ff" points="62.04,-81.77 53.06,-76.13 56.57,-86.13 62.04,-81.77"/>
</a>
</g>
</g>
<!-- Node4 -->
<g id="Node000004" class="node">
<title>Node4</title>
<g id="a_Node000004"><a xlink:title=" ">
<polygon fill="#e0e0e0" stroke="#999999" points="217.25,-19.25 140.5,-19.25 140.5,0 217.25,0 217.25,-19.25"/>
<text text-anchor="middle" x="178.88" y="-5.75" font-family="Helvetica,sans-Serif" font-size="10.00">albert/export.h</text>
</a>
</g>
</g>
<!-- Node1&#45;&gt;Node4 -->
<g id="edge3_Node000001_Node000004" class="edge">
<title>Node1&#45;&gt;Node4</title>
<g id="a_edge3_Node000001_Node000004"><a xlink:title=" ">
<path fill="none" stroke="#63b8ff" d="M153.19,-110.02C171.34,-102.49 189.2,-91.24 199.88,-74.5 208.88,-60.38 201.2,-42.03 192.71,-28.62"/>
<polygon fill="#63b8ff" stroke="#63b8ff" points="195.78,-26.92 187.18,-20.73 190.05,-30.93 195.78,-26.92"/>
</a>
</g>
</g>
<!-- Node5 -->
<g id="Node000005" class="node">
<title>Node5</title>
<g id="a_Node000005"><a xlink:href="matchconfig_8h.html" target="_top" xlink:title=" ">
<polygon fill="white" stroke="#666666" points="190.38,-74.5 87.38,-74.5 87.38,-55.25 190.38,-55.25 190.38,-74.5"/>
<text text-anchor="middle" x="138.88" y="-61" font-family="Helvetica,sans-Serif" font-size="10.00">albert/matchconfig.h</text>
</a>
</g>
</g>
<!-- Node1&#45;&gt;Node5 -->
<g id="edge4_Node000001_Node000005" class="edge">
<title>Node1&#45;&gt;Node5</title>
<g id="a_edge4_Node000001_Node000005"><a xlink:title=" ">
<path fill="none" stroke="#63b8ff" d="M103.49,-110.2C109.89,-102.18 117.89,-92.17 124.66,-83.69"/>
<polygon fill="#63b8ff" stroke="#63b8ff" points="127.18,-86.13 130.69,-76.13 121.71,-81.77 127.18,-86.13"/>
</a>
</g>
</g>
<!-- Node5&#45;&gt;Node2 -->
<g id="edge6_Node000005_Node000002" class="edge">
<title>Node5&#45;&gt;Node2</title>
<g id="a_edge6_Node000005_Node000002"><a xlink:title=" ">
<path fill="none" stroke="#63b8ff" d="M124.12,-54.84C110.99,-46.81 91.55,-34.91 76.14,-25.48"/>
<polygon fill="#63b8ff" stroke="#63b8ff" points="78.35,-22.73 68,-20.49 74.7,-28.7 78.35,-22.73"/>
</a>
</g>
</g>
<!-- Node5&#45;&gt;Node4 -->
<g id="edge5_Node000005_Node000004" class="edge">
<title>Node5&#45;&gt;Node4</title>
<g id="a_edge5_Node000005_Node000004"><a xlink:title=" ">
<path fill="none" stroke="#63b8ff" d="M145.48,-55.08C150.83,-47.96 158.55,-37.68 165.22,-28.8"/>
<polygon fill="#63b8ff" stroke="#63b8ff" points="168.01,-30.92 171.22,-20.82 162.41,-26.71 168.01,-30.92"/>
</a>
</g>
</g>
</g>
</svg>
