<?xml version="1.0" encoding="UTF-8" standalone="no"?>
<!DOCTYPE svg PUBLIC "-//W3C//DTD SVG 1.1//EN"
 "http://www.w3.org/Graphics/SVG/1.1/DTD/svg11.dtd">
<!-- Generated by graphviz version 9.0.0 (20230911.1827)
 -->
<!-- Title: workspace/albert/include/albert/messagebox.h Pages: 1 -->
<svg width="182pt" height="94pt"
 viewBox="0.00 0.00 182.25 93.75" xmlns="http://www.w3.org/2000/svg" xmlns:xlink="http://www.w3.org/1999/xlink">
<g id="graph0" class="graph" transform="scale(1 1) rotate(0) translate(4 89.75)">
<title>workspace/albert/include/albert/messagebox.h</title>
<!-- Node1 -->
<g id="Node000001" class="node">
<title>Node1</title>
<g id="a_Node000001"><a xlink:title=" ">
<polygon fill="#999999" stroke="#666666" points="149.88,-85.75 25.88,-85.75 25.88,-55.25 149.88,-55.25 149.88,-85.75"/>
<text text-anchor="start" x="33.88" y="-72.25" font-family="Helvetica,sans-Serif" font-size="10.00">workspace/albert/include</text>
<text text-anchor="middle" x="87.88" y="-61" font-family="Helvetica,sans-Serif" font-size="10.00">/albert/messagebox.h</text>
</a>
</g>
</g>
<!-- Node2 -->
<g id="Node000002" class="node">
<title>Node2</title>
<g id="a_Node000002"><a xlink:title=" ">
<polygon fill="#e0e0e0" stroke="#999999" points="79.75,-19.25 0,-19.25 0,0 79.75,0 79.75,-19.25"/>
<text text-anchor="middle" x="39.88" y="-5.75" font-family="Helvetica,sans-Serif" font-size="10.00">QMessageBox</text>
</a>
</g>
</g>
<!-- Node1&#45;&gt;Node2 -->
<g id="edge1_Node000001_Node000002" class="edge">
<title>Node1&#45;&gt;Node2</title>
<g id="a_edge1_Node000001_Node000002"><a xlink:title=" ">
<path fill="none" stroke="#63b8ff" d="M76.01,-54.95C69.47,-46.93 61.31,-36.92 54.4,-28.44"/>
<polygon fill="#63b8ff" stroke="#63b8ff" points="57.26,-26.41 48.23,-20.87 51.84,-30.84 57.26,-26.41"/>
</a>
</g>
</g>
<!-- Node3 -->
<g id="Node000003" class="node">
<title>Node3</title>
<g id="a_Node000003"><a xlink:title=" ">
<polygon fill="#e0e0e0" stroke="#999999" points="174.25,-19.25 97.5,-19.25 97.5,0 174.25,0 174.25,-19.25"/>
<text text-anchor="middle" x="135.88" y="-5.75" font-family="Helvetica,sans-Serif" font-size="10.00">albert/export.h</text>
</a>
</g>
</g>
<!-- Node1&#45;&gt;Node3 -->
<g id="edge2_Node000001_Node000003" class="edge">
<title>Node1&#45;&gt;Node3</title>
<g id="a_edge2_Node000001_Node000003"><a xlink:title=" ">
<path fill="none" stroke="#63b8ff" d="M99.74,-54.95C106.28,-46.93 114.44,-36.92 121.35,-28.44"/>
<polygon fill="#63b8ff" stroke="#63b8ff" points="123.91,-30.84 127.52,-20.87 118.49,-26.41 123.91,-30.84"/>
</a>
</g>
</g>
</g>
</svg>
