<?xml version="1.0" encoding="UTF-8" standalone="no"?>
<!DOCTYPE svg PUBLIC "-//W3C//DTD SVG 1.1//EN"
 "http://www.w3.org/Graphics/SVG/1.1/DTD/svg11.dtd">
<!-- Generated by graphviz version 9.0.0 (20230911.1827)
 -->
<!-- Title: workspace/albert/include/albert/plugininstance.h Pages: 1 -->
<svg width="368pt" height="94pt"
 viewBox="0.00 0.00 368.00 93.75" xmlns="http://www.w3.org/2000/svg" xmlns:xlink="http://www.w3.org/1999/xlink">
<g id="graph0" class="graph" transform="scale(1 1) rotate(0) translate(4 89.75)">
<title>workspace/albert/include/albert/plugininstance.h</title>
<!-- Node1 -->
<g id="Node000001" class="node">
<title>Node1</title>
<g id="a_Node000001"><a xlink:title=" ">
<polygon fill="#999999" stroke="#666666" points="220.75,-85.75 96.75,-85.75 96.75,-55.25 220.75,-55.25 220.75,-85.75"/>
<text text-anchor="start" x="104.75" y="-72.25" font-family="Helvetica,sans-Serif" font-size="10.00">workspace/albert/include</text>
<text text-anchor="middle" x="158.75" y="-61" font-family="Helvetica,sans-Serif" font-size="10.00">/albert/plugininstance.h</text>
</a>
</g>
</g>
<!-- Node2 -->
<g id="Node000002" class="node">
<title>Node2</title>
<g id="a_Node000002"><a xlink:title=" ">
<polygon fill="#e0e0e0" stroke="#999999" points="35.5,-19.25 0,-19.25 0,0 35.5,0 35.5,-19.25"/>
<text text-anchor="middle" x="17.75" y="-5.75" font-family="Helvetica,sans-Serif" font-size="10.00">QDir</text>
</a>
</g>
</g>
<!-- Node1&#45;&gt;Node2 -->
<g id="edge1_Node000001_Node000002" class="edge">
<title>Node1&#45;&gt;Node2</title>
<g id="a_edge1_Node000001_Node000002"><a xlink:title=" ">
<path fill="none" stroke="#63b8ff" d="M123.53,-54.8C99.67,-44.83 68.54,-31.83 46.24,-22.52"/>
<polygon fill="#63b8ff" stroke="#63b8ff" points="47.74,-19.35 37.16,-18.73 45.04,-25.81 47.74,-19.35"/>
</a>
</g>
</g>
<!-- Node3 -->
<g id="Node000003" class="node">
<title>Node3</title>
<g id="a_Node000003"><a xlink:title=" ">
<polygon fill="#e0e0e0" stroke="#999999" points="102.25,-19.25 53.25,-19.25 53.25,0 102.25,0 102.25,-19.25"/>
<text text-anchor="middle" x="77.75" y="-5.75" font-family="Helvetica,sans-Serif" font-size="10.00">QString</text>
</a>
</g>
</g>
<!-- Node1&#45;&gt;Node3 -->
<g id="edge2_Node000001_Node000003" class="edge">
<title>Node1&#45;&gt;Node3</title>
<g id="a_edge2_Node000001_Node000003"><a xlink:title=" ">
<path fill="none" stroke="#63b8ff" d="M138.73,-54.95C126.75,-46.24 111.53,-35.18 99.29,-26.28"/>
<polygon fill="#63b8ff" stroke="#63b8ff" points="101.61,-23.64 91.46,-20.59 97.49,-29.3 101.61,-23.64"/>
</a>
</g>
</g>
<!-- Node4 -->
<g id="Node000004" class="node">
<title>Node4</title>
<g id="a_Node000004"><a xlink:title=" ">
<polygon fill="#e0e0e0" stroke="#999999" points="196.75,-19.25 120.75,-19.25 120.75,0 196.75,0 196.75,-19.25"/>
<text text-anchor="middle" x="158.75" y="-5.75" font-family="Helvetica,sans-Serif" font-size="10.00">albert/config.h</text>
</a>
</g>
</g>
<!-- Node1&#45;&gt;Node4 -->
<g id="edge3_Node000001_Node000004" class="edge">
<title>Node1&#45;&gt;Node4</title>
<g id="a_edge3_Node000001_Node000004"><a xlink:title=" ">
<path fill="none" stroke="#63b8ff" d="M158.75,-54.95C158.75,-47.71 158.75,-38.84 158.75,-30.94"/>
<polygon fill="#63b8ff" stroke="#63b8ff" points="162.25,-31.21 158.75,-21.21 155.25,-31.21 162.25,-31.21"/>
</a>
</g>
</g>
<!-- Node5 -->
<g id="Node000005" class="node">
<title>Node5</title>
<g id="a_Node000005"><a xlink:title=" ">
<polygon fill="#e0e0e0" stroke="#999999" points="291.12,-19.25 214.38,-19.25 214.38,0 291.12,0 291.12,-19.25"/>
<text text-anchor="middle" x="252.75" y="-5.75" font-family="Helvetica,sans-Serif" font-size="10.00">albert/export.h</text>
</a>
</g>
</g>
<!-- Node1&#45;&gt;Node5 -->
<g id="edge4_Node000001_Node000005" class="edge">
<title>Node1&#45;&gt;Node5</title>
<g id="a_edge4_Node000001_Node000005"><a xlink:title=" ">
<path fill="none" stroke="#63b8ff" d="M181.99,-54.95C196.16,-46.07 214.25,-34.74 228.59,-25.76"/>
<polygon fill="#63b8ff" stroke="#63b8ff" points="230.36,-28.78 236.98,-20.5 226.64,-22.85 230.36,-28.78"/>
</a>
</g>
</g>
<!-- Node6 -->
<g id="Node000006" class="node">
<title>Node6</title>
<g id="a_Node000006"><a xlink:title=" ">
<polygon fill="#e0e0e0" stroke="#999999" points="360,-19.25 309.5,-19.25 309.5,0 360,0 360,-19.25"/>
<text text-anchor="middle" x="334.75" y="-5.75" font-family="Helvetica,sans-Serif" font-size="10.00">memory</text>
</a>
</g>
</g>
<!-- Node1&#45;&gt;Node6 -->
<g id="edge5_Node000001_Node000006" class="edge">
<title>Node1&#45;&gt;Node6</title>
<g id="a_edge5_Node000001_Node000006"><a xlink:title=" ">
<path fill="none" stroke="#63b8ff" d="M202.71,-54.8C232.15,-44.95 270.45,-32.13 298.22,-22.85"/>
<polygon fill="#63b8ff" stroke="#63b8ff" points="299.23,-26.2 307.61,-19.71 297.01,-19.56 299.23,-26.2"/>
</a>
</g>
</g>
</g>
</svg>
