<?xml version="1.0" encoding="UTF-8" standalone="no"?>
<!DOCTYPE svg PUBLIC "-//W3C//DTD SVG 1.1//EN"
 "http://www.w3.org/Graphics/SVG/1.1/DTD/svg11.dtd">
<!-- Generated by graphviz version 9.0.0 (20230911.1827)
 -->
<!-- Title: workspace/albert/include/albert/plugindependency.h Pages: 1 -->
<svg width="504pt" height="204pt"
 viewBox="0.00 0.00 504.38 204.25" xmlns="http://www.w3.org/2000/svg" xmlns:xlink="http://www.w3.org/1999/xlink">
<g id="graph0" class="graph" transform="scale(1 1) rotate(0) translate(4 200.25)">
<title>workspace/albert/include/albert/plugindependency.h</title>
<!-- Node1 -->
<g id="Node000001" class="node">
<title>Node1</title>
<g id="a_Node000001"><a xlink:title=" ">
<polygon fill="#999999" stroke="#666666" points="347.62,-196.25 216.88,-196.25 216.88,-165.75 347.62,-165.75 347.62,-196.25"/>
<text text-anchor="start" x="224.88" y="-182.75" font-family="Helvetica,sans-Serif" font-size="10.00">workspace/albert/include</text>
<text text-anchor="middle" x="282.25" y="-171.5" font-family="Helvetica,sans-Serif" font-size="10.00">/albert/plugindependency.h</text>
</a>
</g>
</g>
<!-- Node2 -->
<g id="Node000002" class="node">
<title>Node2</title>
<g id="a_Node000002"><a xlink:title=" ">
<polygon fill="#e0e0e0" stroke="#999999" points="164.12,-129.75 72.38,-129.75 72.38,-110.5 164.12,-110.5 164.12,-129.75"/>
<text text-anchor="middle" x="118.25" y="-116.25" font-family="Helvetica,sans-Serif" font-size="10.00">QCoreApplication</text>
</a>
</g>
</g>
<!-- Node1&#45;&gt;Node2 -->
<g id="edge1_Node000001_Node000002" class="edge">
<title>Node1&#45;&gt;Node2</title>
<g id="a_edge1_Node000001_Node000002"><a xlink:title=" ">
<path fill="none" stroke="#63b8ff" d="M241.29,-165.3C214.51,-155.68 179.87,-143.25 154.17,-134.02"/>
<polygon fill="#63b8ff" stroke="#63b8ff" points="155.42,-130.75 144.83,-130.67 153.05,-137.34 155.42,-130.75"/>
</a>
</g>
</g>
<!-- Node3 -->
<g id="Node000003" class="node">
<title>Node3</title>
<g id="a_Node000003"><a xlink:href="albert_8h.html" target="_top" xlink:title=" ">
<polygon fill="white" stroke="#666666" points="74.5,-74.5 0,-74.5 0,-55.25 74.5,-55.25 74.5,-74.5"/>
<text text-anchor="middle" x="37.25" y="-61" font-family="Helvetica,sans-Serif" font-size="10.00">albert/albert.h</text>
</a>
</g>
</g>
<!-- Node1&#45;&gt;Node3 -->
<g id="edge2_Node000001_Node000003" class="edge">
<title>Node1&#45;&gt;Node3</title>
<g id="a_edge2_Node000001_Node000003"><a xlink:title=" ">
<path fill="none" stroke="#63b8ff" d="M262.64,-165.35C241.46,-150.05 206.31,-126.16 173.25,-110.5 144.66,-96.96 110.87,-85.85 84.12,-78.1"/>
<polygon fill="#63b8ff" stroke="#63b8ff" points="85.16,-74.76 74.58,-75.4 83.25,-81.49 85.16,-74.76"/>
</a>
</g>
</g>
<!-- Node5 -->
<g id="Node000005" class="node">
<title>Node5</title>
<g id="a_Node000005"><a xlink:title=" ">
<polygon fill="#e0e0e0" stroke="#999999" points="291.62,-19.25 214.88,-19.25 214.88,0 291.62,0 291.62,-19.25"/>
<text text-anchor="middle" x="253.25" y="-5.75" font-family="Helvetica,sans-Serif" font-size="10.00">albert/export.h</text>
</a>
</g>
</g>
<!-- Node1&#45;&gt;Node5 -->
<g id="edge6_Node000001_Node000005" class="edge">
<title>Node1&#45;&gt;Node5</title>
<g id="a_edge6_Node000001_Node000005"><a xlink:title=" ">
<path fill="none" stroke="#63b8ff" d="M315.51,-165.31C329.87,-157.08 345.2,-145.31 353.25,-129.75 357.18,-122.15 354.93,-118.89 353.25,-110.5 348.04,-84.42 347.79,-75.25 330.25,-55.25 318.69,-42.07 302.25,-31.81 287.53,-24.47"/>
<polygon fill="#63b8ff" stroke="#63b8ff" points="289.12,-21.34 278.58,-20.28 286.15,-27.68 289.12,-21.34"/>
</a>
</g>
</g>
<!-- Node7 -->
<g id="Node000007" class="node">
<title>Node7</title>
<g id="a_Node000007"><a xlink:href="extensionregistry_8h.html" target="_top" xlink:title=" ">
<polygon fill="white" stroke="#666666" points="343.88,-129.75 220.62,-129.75 220.62,-110.5 343.88,-110.5 343.88,-129.75"/>
<text text-anchor="middle" x="282.25" y="-116.25" font-family="Helvetica,sans-Serif" font-size="10.00">albert/extensionregistry.h</text>
</a>
</g>
</g>
<!-- Node1&#45;&gt;Node7 -->
<g id="edge7_Node000001_Node000007" class="edge">
<title>Node1&#45;&gt;Node7</title>
<g id="a_edge7_Node000001_Node000007"><a xlink:title=" ">
<path fill="none" stroke="#63b8ff" d="M282.25,-165.45C282.25,-158.21 282.25,-149.34 282.25,-141.44"/>
<polygon fill="#63b8ff" stroke="#63b8ff" points="285.75,-141.71 282.25,-131.71 278.75,-141.71 285.75,-141.71"/>
</a>
</g>
</g>
<!-- Node11 -->
<g id="Node000011" class="node">
<title>Node11</title>
<g id="a_Node000011"><a xlink:href="logging_8h.html" target="_top" xlink:title=" ">
<polygon fill="white" stroke="#666666" points="484.88,-129.75 403.62,-129.75 403.62,-110.5 484.88,-110.5 484.88,-129.75"/>
<text text-anchor="middle" x="444.25" y="-116.25" font-family="Helvetica,sans-Serif" font-size="10.00">albert/logging.h</text>
</a>
</g>
</g>
<!-- Node1&#45;&gt;Node11 -->
<g id="edge14_Node000001_Node000011" class="edge">
<title>Node1&#45;&gt;Node11</title>
<g id="a_edge14_Node000001_Node000011"><a xlink:title=" ">
<path fill="none" stroke="#63b8ff" d="M322.71,-165.3C349.16,-155.68 383.38,-143.25 408.77,-134.02"/>
<polygon fill="#63b8ff" stroke="#63b8ff" points="409.78,-137.38 417.98,-130.67 407.39,-130.8 409.78,-137.38"/>
</a>
</g>
</g>
<!-- Node4 -->
<g id="Node000004" class="node">
<title>Node4</title>
<g id="a_Node000004"><a xlink:title=" ">
<polygon fill="#e0e0e0" stroke="#999999" points="187.75,-19.25 138.75,-19.25 138.75,0 187.75,0 187.75,-19.25"/>
<text text-anchor="middle" x="163.25" y="-5.75" font-family="Helvetica,sans-Serif" font-size="10.00">QString</text>
</a>
</g>
</g>
<!-- Node3&#45;&gt;Node4 -->
<g id="edge3_Node000003_Node000004" class="edge">
<title>Node3&#45;&gt;Node4</title>
<g id="a_edge3_Node000003_Node000004"><a xlink:title=" ">
<path fill="none" stroke="#63b8ff" d="M58.62,-54.84C78.54,-46.43 108.49,-33.77 131.25,-24.15"/>
<polygon fill="#63b8ff" stroke="#63b8ff" points="132.53,-27.41 140.38,-20.29 129.8,-20.96 132.53,-27.41"/>
</a>
</g>
</g>
<!-- Node3&#45;&gt;Node5 -->
<g id="edge4_Node000003_Node000005" class="edge">
<title>Node3&#45;&gt;Node5</title>
<g id="a_edge4_Node000003_Node000005"><a xlink:title=" ">
<path fill="none" stroke="#63b8ff" d="M73.89,-54.84C110.12,-45.91 165.74,-32.2 205.43,-22.41"/>
<polygon fill="#63b8ff" stroke="#63b8ff" points="206.09,-25.86 214.96,-20.06 204.41,-19.06 206.09,-25.86"/>
</a>
</g>
</g>
<!-- Node6 -->
<g id="Node000006" class="node">
<title>Node6</title>
<g id="a_Node000006"><a xlink:title=" ">
<polygon fill="#e0e0e0" stroke="#999999" points="67,-19.25 7.5,-19.25 7.5,0 67,0 67,-19.25"/>
<text text-anchor="middle" x="37.25" y="-5.75" font-family="Helvetica,sans-Serif" font-size="10.00">filesystem</text>
</a>
</g>
</g>
<!-- Node3&#45;&gt;Node6 -->
<g id="edge5_Node000003_Node000006" class="edge">
<title>Node3&#45;&gt;Node6</title>
<g id="a_edge5_Node000003_Node000006"><a xlink:title=" ">
<path fill="none" stroke="#63b8ff" d="M37.25,-55.08C37.25,-48.57 37.25,-39.42 37.25,-31.12"/>
<polygon fill="#63b8ff" stroke="#63b8ff" points="40.75,-31.12 37.25,-21.12 33.75,-31.12 40.75,-31.12"/>
</a>
</g>
</g>
<!-- Node7&#45;&gt;Node5 -->
<g id="edge9_Node000007_Node000005" class="edge">
<title>Node7&#45;&gt;Node5</title>
<g id="a_edge9_Node000007_Node000005"><a xlink:title=" ">
<path fill="none" stroke="#63b8ff" d="M292.84,-110.04C305.91,-97.66 325.27,-74.8 315.25,-55.25 308.64,-42.34 296.36,-32.32 284.46,-25.07"/>
<polygon fill="#63b8ff" stroke="#63b8ff" points="286.45,-22.17 276.01,-20.37 283.05,-28.29 286.45,-22.17"/>
</a>
</g>
</g>
<!-- Node8 -->
<g id="Node000008" class="node">
<title>Node8</title>
<g id="a_Node000008"><a xlink:title=" ">
<polygon fill="#e0e0e0" stroke="#999999" points="144.25,-74.5 92.25,-74.5 92.25,-55.25 144.25,-55.25 144.25,-74.5"/>
<text text-anchor="middle" x="118.25" y="-61" font-family="Helvetica,sans-Serif" font-size="10.00">QObject</text>
</a>
</g>
</g>
<!-- Node7&#45;&gt;Node8 -->
<g id="edge8_Node000007_Node000008" class="edge">
<title>Node7&#45;&gt;Node8</title>
<g id="a_edge8_Node000007_Node000008"><a xlink:title=" ">
<path fill="none" stroke="#63b8ff" d="M254.43,-110.09C227.2,-101.25 185.55,-87.73 155.48,-77.96"/>
<polygon fill="#63b8ff" stroke="#63b8ff" points="156.61,-74.65 146.02,-74.89 154.45,-81.31 156.61,-74.65"/>
</a>
</g>
</g>
<!-- Node9 -->
<g id="Node000009" class="node">
<title>Node9</title>
<g id="a_Node000009"><a xlink:href="extension_8h.html" target="_top" xlink:title=" ">
<polygon fill="white" stroke="#666666" points="254.12,-74.5 162.38,-74.5 162.38,-55.25 254.12,-55.25 254.12,-74.5"/>
<text text-anchor="middle" x="208.25" y="-61" font-family="Helvetica,sans-Serif" font-size="10.00">albert/extension.h</text>
</a>
</g>
</g>
<!-- Node7&#45;&gt;Node9 -->
<g id="edge10_Node000007_Node000009" class="edge">
<title>Node7&#45;&gt;Node9</title>
<g id="a_edge10_Node000007_Node000009"><a xlink:title=" ">
<path fill="none" stroke="#63b8ff" d="M269.7,-110.09C258.79,-102.24 242.75,-90.7 229.79,-81.37"/>
<polygon fill="#63b8ff" stroke="#63b8ff" points="232.01,-78.66 221.85,-75.66 227.92,-84.34 232.01,-78.66"/>
</a>
</g>
</g>
<!-- Node10 -->
<g id="Node000010" class="node">
<title>Node10</title>
<g id="a_Node000010"><a xlink:title=" ">
<polygon fill="#e0e0e0" stroke="#999999" points="306.62,-74.5 271.88,-74.5 271.88,-55.25 306.62,-55.25 306.62,-74.5"/>
<text text-anchor="middle" x="289.25" y="-61" font-family="Helvetica,sans-Serif" font-size="10.00">map</text>
</a>
</g>
</g>
<!-- Node7&#45;&gt;Node10 -->
<g id="edge13_Node000007_Node000010" class="edge">
<title>Node7&#45;&gt;Node10</title>
<g id="a_edge13_Node000007_Node000010"><a xlink:title=" ">
<path fill="none" stroke="#63b8ff" d="M283.41,-110.33C284.27,-103.74 285.49,-94.46 286.59,-86.07"/>
<polygon fill="#63b8ff" stroke="#63b8ff" points="290.04,-86.73 287.87,-76.36 283.1,-85.82 290.04,-86.73"/>
</a>
</g>
</g>
<!-- Node9&#45;&gt;Node4 -->
<g id="edge11_Node000009_Node000004" class="edge">
<title>Node9&#45;&gt;Node4</title>
<g id="a_edge11_Node000009_Node000004"><a xlink:title=" ">
<path fill="none" stroke="#63b8ff" d="M200.82,-55.08C194.67,-47.8 185.74,-37.23 178.12,-28.23"/>
<polygon fill="#63b8ff" stroke="#63b8ff" points="180.95,-26.14 171.82,-20.77 175.6,-30.66 180.95,-26.14"/>
</a>
</g>
</g>
<!-- Node9&#45;&gt;Node5 -->
<g id="edge12_Node000009_Node000005" class="edge">
<title>Node9&#45;&gt;Node5</title>
<g id="a_edge12_Node000009_Node000005"><a xlink:title=" ">
<path fill="none" stroke="#63b8ff" d="M215.68,-55.08C221.83,-47.8 230.76,-37.23 238.38,-28.23"/>
<polygon fill="#63b8ff" stroke="#63b8ff" points="240.9,-30.66 244.68,-20.77 235.55,-26.14 240.9,-30.66"/>
</a>
</g>
</g>
<!-- Node12 -->
<g id="Node000012" class="node">
<title>Node12</title>
<g id="a_Node000012"><a xlink:title=" ">
<polygon fill="#e0e0e0" stroke="#999999" points="496.38,-74.5 400.12,-74.5 400.12,-55.25 496.38,-55.25 496.38,-74.5"/>
<text text-anchor="middle" x="448.25" y="-61" font-family="Helvetica,sans-Serif" font-size="10.00">QLoggingCategory</text>
</a>
</g>
</g>
<!-- Node11&#45;&gt;Node12 -->
<g id="edge15_Node000011_Node000012" class="edge">
<title>Node11&#45;&gt;Node12</title>
<g id="a_edge15_Node000011_Node000012"><a xlink:title=" ">
<path fill="none" stroke="#63b8ff" d="M444.91,-110.33C445.41,-103.74 446.1,-94.46 446.73,-86.07"/>
<polygon fill="#63b8ff" stroke="#63b8ff" points="450.2,-86.6 447.46,-76.37 443.22,-86.08 450.2,-86.6"/>
</a>
</g>
</g>
</g>
</svg>
