<?xml version="1.0" encoding="UTF-8" standalone="no"?>
<!DOCTYPE svg PUBLIC "-//W3C//DTD SVG 1.1//EN"
 "http://www.w3.org/Graphics/SVG/1.1/DTD/svg11.dtd">
<!-- Generated by graphviz version 9.0.0 (20230911.1827)
 -->
<!-- Title: workspace/albert/include/albert/plugininstance.h Pages: 1 -->
<svg width="453pt" height="94pt"
 viewBox="0.00 0.00 453.00 93.75" xmlns="http://www.w3.org/2000/svg" xmlns:xlink="http://www.w3.org/1999/xlink">
<g id="graph0" class="graph" transform="scale(1 1) rotate(0) translate(4 89.75)">
<title>workspace/albert/include/albert/plugininstance.h</title>
<!-- Node1 -->
<g id="Node000001" class="node">
<title>Node1</title>
<g id="a_Node000001"><a xlink:title=" ">
<polygon fill="#999999" stroke="#666666" points="304.5,-85.75 180.5,-85.75 180.5,-55.25 304.5,-55.25 304.5,-85.75"/>
<text text-anchor="start" x="188.5" y="-72.25" font-family="Helvetica,sans-Serif" font-size="10.00">workspace/albert/include</text>
<text text-anchor="middle" x="242.5" y="-61" font-family="Helvetica,sans-Serif" font-size="10.00">/albert/plugininstance.h</text>
</a>
</g>
</g>
<!-- Node2 -->
<g id="Node000002" class="node">
<title>Node2</title>
<g id="a_Node000002"><a xlink:title=" ">
<polygon fill="#e0e0e0" stroke="#999999" points="49,-19.25 0,-19.25 0,0 49,0 49,-19.25"/>
<text text-anchor="middle" x="24.5" y="-5.75" font-family="Helvetica,sans-Serif" font-size="10.00">QString</text>
</a>
</g>
</g>
<!-- Node1&#45;&gt;Node2 -->
<g id="edge1_Node000001_Node000002" class="edge">
<title>Node1&#45;&gt;Node2</title>
<g id="a_edge1_Node000001_Node000002"><a xlink:title=" ">
<path fill="none" stroke="#63b8ff" d="M188.05,-54.8C148.17,-44.02 95.16,-29.71 60.45,-20.33"/>
<polygon fill="#63b8ff" stroke="#63b8ff" points="61.46,-16.98 50.89,-17.75 59.63,-23.74 61.46,-16.98"/>
</a>
</g>
</g>
<!-- Node3 -->
<g id="Node000003" class="node">
<title>Node3</title>
<g id="a_Node000003"><a xlink:title=" ">
<polygon fill="#e0e0e0" stroke="#999999" points="143.5,-19.25 67.5,-19.25 67.5,0 143.5,0 143.5,-19.25"/>
<text text-anchor="middle" x="105.5" y="-5.75" font-family="Helvetica,sans-Serif" font-size="10.00">albert/config.h</text>
</a>
</g>
</g>
<!-- Node1&#45;&gt;Node3 -->
<g id="edge2_Node000001_Node000003" class="edge">
<title>Node1&#45;&gt;Node3</title>
<g id="a_edge2_Node000001_Node000003"><a xlink:title=" ">
<path fill="none" stroke="#63b8ff" d="M208.28,-54.8C186.42,-45.4 158.27,-33.3 136.96,-24.14"/>
<polygon fill="#63b8ff" stroke="#63b8ff" points="138.47,-20.98 127.9,-20.25 135.71,-27.42 138.47,-20.98"/>
</a>
</g>
</g>
<!-- Node4 -->
<g id="Node000004" class="node">
<title>Node4</title>
<g id="a_Node000004"><a xlink:title=" ">
<polygon fill="#e0e0e0" stroke="#999999" points="237.88,-19.25 161.12,-19.25 161.12,0 237.88,0 237.88,-19.25"/>
<text text-anchor="middle" x="199.5" y="-5.75" font-family="Helvetica,sans-Serif" font-size="10.00">albert/export.h</text>
</a>
</g>
</g>
<!-- Node1&#45;&gt;Node4 -->
<g id="edge3_Node000001_Node000004" class="edge">
<title>Node1&#45;&gt;Node4</title>
<g id="a_edge3_Node000001_Node000004"><a xlink:title=" ">
<path fill="none" stroke="#63b8ff" d="M231.87,-54.95C226.14,-47.1 219.02,-37.35 212.91,-28.99"/>
<polygon fill="#63b8ff" stroke="#63b8ff" points="215.75,-26.93 207.02,-20.92 210.09,-31.06 215.75,-26.93"/>
</a>
</g>
</g>
<!-- Node5 -->
<g id="Node000005" class="node">
<title>Node5</title>
<g id="a_Node000005"><a xlink:title=" ">
<polygon fill="#e0e0e0" stroke="#999999" points="315.25,-19.25 255.75,-19.25 255.75,0 315.25,0 315.25,-19.25"/>
<text text-anchor="middle" x="285.5" y="-5.75" font-family="Helvetica,sans-Serif" font-size="10.00">filesystem</text>
</a>
</g>
</g>
<!-- Node1&#45;&gt;Node5 -->
<g id="edge4_Node000001_Node000005" class="edge">
<title>Node1&#45;&gt;Node5</title>
<g id="a_edge4_Node000001_Node000005"><a xlink:title=" ">
<path fill="none" stroke="#63b8ff" d="M253.13,-54.95C258.86,-47.1 265.98,-37.35 272.09,-28.99"/>
<polygon fill="#63b8ff" stroke="#63b8ff" points="274.91,-31.06 277.98,-20.92 269.25,-26.93 274.91,-31.06"/>
</a>
</g>
</g>
<!-- Node6 -->
<g id="Node000006" class="node">
<title>Node6</title>
<g id="a_Node000006"><a xlink:title=" ">
<polygon fill="#e0e0e0" stroke="#999999" points="383.75,-19.25 333.25,-19.25 333.25,0 383.75,0 383.75,-19.25"/>
<text text-anchor="middle" x="358.5" y="-5.75" font-family="Helvetica,sans-Serif" font-size="10.00">memory</text>
</a>
</g>
</g>
<!-- Node1&#45;&gt;Node6 -->
<g id="edge5_Node000001_Node000006" class="edge">
<title>Node1&#45;&gt;Node6</title>
<g id="a_edge5_Node000001_Node000006"><a xlink:title=" ">
<path fill="none" stroke="#63b8ff" d="M271.47,-54.8C289.56,-45.61 312.73,-33.86 330.61,-24.78"/>
<polygon fill="#63b8ff" stroke="#63b8ff" points="332.03,-27.99 339.36,-20.34 328.86,-21.74 332.03,-27.99"/>
</a>
</g>
</g>
<!-- Node7 -->
<g id="Node000007" class="node">
<title>Node7</title>
<g id="a_Node000007"><a xlink:title=" ">
<polygon fill="#e0e0e0" stroke="#999999" points="445,-19.25 402,-19.25 402,0 445,0 445,-19.25"/>
<text text-anchor="middle" x="423.5" y="-5.75" font-family="Helvetica,sans-Serif" font-size="10.00">vector</text>
</a>
</g>
</g>
<!-- Node1&#45;&gt;Node7 -->
<g id="edge6_Node000001_Node000007" class="edge">
<title>Node1&#45;&gt;Node7</title>
<g id="a_edge6_Node000001_Node000007"><a xlink:title=" ">
<path fill="none" stroke="#63b8ff" d="M287.71,-54.8C319.88,-44.33 362.33,-30.52 391.15,-21.15"/>
<polygon fill="#63b8ff" stroke="#63b8ff" points="391.98,-24.56 400.4,-18.14 389.81,-17.9 391.98,-24.56"/>
</a>
</g>
</g>
</g>
</svg>
