<?xml version="1.0" encoding="UTF-8" standalone="no"?>
<!DOCTYPE svg PUBLIC "-//W3C//DTD SVG 1.1//EN"
 "http://www.w3.org/Graphics/SVG/1.1/DTD/svg11.dtd">
<!-- Generated by graphviz version 9.0.0 (20230911.1827)
 -->
<!-- Title: workspace/albert/include/albert/plugininstance.h Pages: 1 -->
<svg width="524pt" height="94pt"
 viewBox="0.00 0.00 523.50 93.75" xmlns="http://www.w3.org/2000/svg" xmlns:xlink="http://www.w3.org/1999/xlink">
<g id="graph0" class="graph" transform="scale(1 1) rotate(0) translate(4 89.75)">
<title>workspace/albert/include/albert/plugininstance.h</title>
<!-- Node1 -->
<g id="Node000001" class="node">
<title>Node1</title>
<g id="a_Node000001"><a xlink:title=" ">
<polygon fill="#999999" stroke="#666666" points="332,-85.75 208,-85.75 208,-55.25 332,-55.25 332,-85.75"/>
<text text-anchor="start" x="216" y="-72.25" font-family="Helvetica,sans-Serif" font-size="10.00">workspace/albert/include</text>
<text text-anchor="middle" x="270" y="-61" font-family="Helvetica,sans-Serif" font-size="10.00">/albert/plugininstance.h</text>
</a>
</g>
</g>
<!-- Node2 -->
<g id="Node000002" class="node">
<title>Node2</title>
<g id="a_Node000002"><a xlink:title=" ">
<polygon fill="#e0e0e0" stroke="#999999" points="52,-19.25 0,-19.25 0,0 52,0 52,-19.25"/>
<text text-anchor="middle" x="26" y="-5.75" font-family="Helvetica,sans-Serif" font-size="10.00">QObject</text>
</a>
</g>
</g>
<!-- Node1&#45;&gt;Node2 -->
<g id="edge1_Node000001_Node000002" class="edge">
<title>Node1&#45;&gt;Node2</title>
<g id="a_edge1_Node000001_Node000002"><a xlink:title=" ">
<path fill="none" stroke="#63b8ff" d="M208.25,-54.75C169.23,-45.41 117.45,-32.97 63.24,-19.79"/>
<polygon fill="#63b8ff" stroke="#63b8ff" points="64.38,-16.46 53.84,-17.5 62.73,-23.26 64.38,-16.46"/>
</a>
</g>
</g>
<!-- Node3 -->
<g id="Node000003" class="node">
<title>Node3</title>
<g id="a_Node000003"><a xlink:title=" ">
<polygon fill="#e0e0e0" stroke="#999999" points="119.5,-19.25 70.5,-19.25 70.5,0 119.5,0 119.5,-19.25"/>
<text text-anchor="middle" x="95" y="-5.75" font-family="Helvetica,sans-Serif" font-size="10.00">QString</text>
</a>
</g>
</g>
<!-- Node1&#45;&gt;Node3 -->
<g id="edge2_Node000001_Node000003" class="edge">
<title>Node1&#45;&gt;Node3</title>
<g id="a_edge2_Node000001_Node000003"><a xlink:title=" ">
<path fill="none" stroke="#63b8ff" d="M226.29,-54.8C196.75,-44.86 158.24,-31.9 130.57,-22.59"/>
<polygon fill="#63b8ff" stroke="#63b8ff" points="131.84,-19.33 121.24,-19.45 129.61,-25.96 131.84,-19.33"/>
</a>
</g>
</g>
<!-- Node4 -->
<g id="Node000004" class="node">
<title>Node4</title>
<g id="a_Node000004"><a xlink:title=" ">
<polygon fill="#e0e0e0" stroke="#999999" points="214.38,-19.25 137.62,-19.25 137.62,0 214.38,0 214.38,-19.25"/>
<text text-anchor="middle" x="176" y="-5.75" font-family="Helvetica,sans-Serif" font-size="10.00">albert/export.h</text>
</a>
</g>
</g>
<!-- Node1&#45;&gt;Node4 -->
<g id="edge3_Node000001_Node000004" class="edge">
<title>Node1&#45;&gt;Node4</title>
<g id="a_edge3_Node000001_Node000004"><a xlink:title=" ">
<path fill="none" stroke="#63b8ff" d="M246.76,-54.95C232.59,-46.07 214.5,-34.74 200.16,-25.76"/>
<polygon fill="#63b8ff" stroke="#63b8ff" points="202.11,-22.85 191.77,-20.5 198.39,-28.78 202.11,-22.85"/>
</a>
</g>
</g>
<!-- Node5 -->
<g id="Node000005" class="node">
<title>Node5</title>
<g id="a_Node000005"><a xlink:title=" ">
<polygon fill="#e0e0e0" stroke="#999999" points="308,-19.25 232,-19.25 232,0 308,0 308,-19.25"/>
<text text-anchor="middle" x="270" y="-5.75" font-family="Helvetica,sans-Serif" font-size="10.00">albert/plugin.h</text>
</a>
</g>
</g>
<!-- Node1&#45;&gt;Node5 -->
<g id="edge4_Node000001_Node000005" class="edge">
<title>Node1&#45;&gt;Node5</title>
<g id="a_edge4_Node000001_Node000005"><a xlink:title=" ">
<path fill="none" stroke="#63b8ff" d="M270,-54.95C270,-47.71 270,-38.84 270,-30.94"/>
<polygon fill="#63b8ff" stroke="#63b8ff" points="273.5,-31.21 270,-21.21 266.5,-31.21 273.5,-31.21"/>
</a>
</g>
</g>
<!-- Node6 -->
<g id="Node000006" class="node">
<title>Node6</title>
<g id="a_Node000006"><a xlink:title=" ">
<polygon fill="#e0e0e0" stroke="#999999" points="385.75,-19.25 326.25,-19.25 326.25,0 385.75,0 385.75,-19.25"/>
<text text-anchor="middle" x="356" y="-5.75" font-family="Helvetica,sans-Serif" font-size="10.00">filesystem</text>
</a>
</g>
</g>
<!-- Node1&#45;&gt;Node6 -->
<g id="edge5_Node000001_Node000006" class="edge">
<title>Node1&#45;&gt;Node6</title>
<g id="a_edge5_Node000001_Node000006"><a xlink:title=" ">
<path fill="none" stroke="#63b8ff" d="M291.26,-54.95C304.1,-46.15 320.45,-34.96 333.51,-26.02"/>
<polygon fill="#63b8ff" stroke="#63b8ff" points="335.22,-29.09 341.49,-20.56 331.26,-23.32 335.22,-29.09"/>
</a>
</g>
</g>
<!-- Node7 -->
<g id="Node000007" class="node">
<title>Node7</title>
<g id="a_Node000007"><a xlink:title=" ">
<polygon fill="#e0e0e0" stroke="#999999" points="454.25,-19.25 403.75,-19.25 403.75,0 454.25,0 454.25,-19.25"/>
<text text-anchor="middle" x="429" y="-5.75" font-family="Helvetica,sans-Serif" font-size="10.00">memory</text>
</a>
</g>
</g>
<!-- Node1&#45;&gt;Node7 -->
<g id="edge6_Node000001_Node000007" class="edge">
<title>Node1&#45;&gt;Node7</title>
<g id="a_edge6_Node000001_Node000007"><a xlink:title=" ">
<path fill="none" stroke="#63b8ff" d="M309.71,-54.8C335.56,-45.23 368.96,-32.86 393.84,-23.64"/>
<polygon fill="#63b8ff" stroke="#63b8ff" points="395.03,-26.93 403.2,-20.18 392.6,-20.37 395.03,-26.93"/>
</a>
</g>
</g>
<!-- Node8 -->
<g id="Node000008" class="node">
<title>Node8</title>
<g id="a_Node000008"><a xlink:title=" ">
<polygon fill="#e0e0e0" stroke="#999999" points="515.5,-19.25 472.5,-19.25 472.5,0 515.5,0 515.5,-19.25"/>
<text text-anchor="middle" x="494" y="-5.75" font-family="Helvetica,sans-Serif" font-size="10.00">vector</text>
</a>
</g>
</g>
<!-- Node1&#45;&gt;Node8 -->
<g id="edge7_Node000001_Node000008" class="edge">
<title>Node1&#45;&gt;Node8</title>
<g id="a_edge7_Node000001_Node000008"><a xlink:title=" ">
<path fill="none" stroke="#63b8ff" d="M327.49,-54.8C363.35,-45.57 410.73,-33.26 461.46,-19.63"/>
<polygon fill="#63b8ff" stroke="#63b8ff" points="462.12,-23.08 470.87,-17.1 460.3,-16.32 462.12,-23.08"/>
</a>
</g>
</g>
</g>
</svg>
