<?xml version="1.0" encoding="UTF-8" standalone="no"?>
<!DOCTYPE svg PUBLIC "-//W3C//DTD SVG 1.1//EN"
 "http://www.w3.org/Graphics/SVG/1.1/DTD/svg11.dtd">
<!-- Generated by graphviz version 9.0.0 (20230911.1827)
 -->
<!-- Title: workspace/albert/include/albert/pluginloader.h Pages: 1 -->
<svg width="152pt" height="94pt"
 viewBox="0.00 0.00 151.88 93.75" xmlns="http://www.w3.org/2000/svg" xmlns:xlink="http://www.w3.org/1999/xlink">
<g id="graph0" class="graph" transform="scale(1 1) rotate(0) translate(4 89.75)">
<title>workspace/albert/include/albert/pluginloader.h</title>
<!-- Node1 -->
<g id="Node000001" class="node">
<title>Node1</title>
<g id="a_Node000001"><a xlink:title=" ">
<polygon fill="#999999" stroke="#666666" points="126.5,-85.75 2.5,-85.75 2.5,-55.25 126.5,-55.25 126.5,-85.75"/>
<text text-anchor="start" x="10.5" y="-72.25" font-family="Helvetica,sans-Serif" font-size="10.00">workspace/albert/include</text>
<text text-anchor="middle" x="64.5" y="-61" font-family="Helvetica,sans-Serif" font-size="10.00">/albert/pluginloader.h</text>
</a>
</g>
</g>
<!-- Node2 -->
<g id="Node000002" class="node">
<title>Node2</title>
<g id="a_Node000002"><a xlink:title=" ">
<polygon fill="#e0e0e0" stroke="#999999" points="49,-19.25 0,-19.25 0,0 49,0 49,-19.25"/>
<text text-anchor="middle" x="24.5" y="-5.75" font-family="Helvetica,sans-Serif" font-size="10.00">QString</text>
</a>
</g>
</g>
<!-- Node1&#45;&gt;Node2 -->
<g id="edge1_Node000001_Node000002" class="edge">
<title>Node1&#45;&gt;Node2</title>
<g id="a_edge1_Node000001_Node000002"><a xlink:title=" ">
<path fill="none" stroke="#63b8ff" d="M54.61,-54.95C49.28,-47.1 42.65,-37.35 36.97,-28.99"/>
<polygon fill="#63b8ff" stroke="#63b8ff" points="40.03,-27.26 31.52,-20.95 34.24,-31.19 40.03,-27.26"/>
</a>
</g>
</g>
<!-- Node3 -->
<g id="Node000003" class="node">
<title>Node3</title>
<g id="a_Node000003"><a xlink:title=" ">
<polygon fill="#e0e0e0" stroke="#999999" points="143.88,-19.25 67.12,-19.25 67.12,0 143.88,0 143.88,-19.25"/>
<text text-anchor="middle" x="105.5" y="-5.75" font-family="Helvetica,sans-Serif" font-size="10.00">albert/export.h</text>
</a>
</g>
</g>
<!-- Node1&#45;&gt;Node3 -->
<g id="edge2_Node000001_Node000003" class="edge">
<title>Node1&#45;&gt;Node3</title>
<g id="a_edge2_Node000001_Node000003"><a xlink:title=" ">
<path fill="none" stroke="#63b8ff" d="M74.63,-54.95C80.1,-47.1 86.89,-37.35 92.71,-28.99"/>
<polygon fill="#63b8ff" stroke="#63b8ff" points="95.47,-31.15 98.31,-20.94 89.73,-27.15 95.47,-31.15"/>
</a>
</g>
</g>
</g>
</svg>
