<?xml version="1.0" encoding="UTF-8" standalone="no"?>
<!DOCTYPE svg PUBLIC "-//W3C//DTD SVG 1.1//EN"
 "http://www.w3.org/Graphics/SVG/1.1/DTD/svg11.dtd">
<!-- Generated by graphviz version 9.0.0 (20230911.1827)
 -->
<!-- Title: workspace/albert/include/albert/pluginprovider.h Pages: 1 -->
<svg width="179pt" height="149pt"
 viewBox="0.00 0.00 179.00 149.00" xmlns="http://www.w3.org/2000/svg" xmlns:xlink="http://www.w3.org/1999/xlink">
<g id="graph0" class="graph" transform="scale(1 1) rotate(0) translate(4 145)">
<title>workspace/albert/include/albert/pluginprovider.h</title>
<!-- Node1 -->
<g id="Node000001" class="node">
<title>Node1</title>
<g id="a_Node000001"><a xlink:title=" ">
<polygon fill="#999999" stroke="#666666" points="168.5,-141 44.5,-141 44.5,-110.5 168.5,-110.5 168.5,-141"/>
<text text-anchor="start" x="52.5" y="-127.5" font-family="Helvetica,sans-Serif" font-size="10.00">workspace/albert/include</text>
<text text-anchor="middle" x="106.5" y="-116.25" font-family="Helvetica,sans-Serif" font-size="10.00">/albert/pluginprovider.h</text>
</a>
</g>
</g>
<!-- Node2 -->
<g id="Node000002" class="node">
<title>Node2</title>
<g id="a_Node000002"><a xlink:href="extension_8h.html" target="_top" xlink:title=" ">
<polygon fill="white" stroke="#666666" points="110.38,-74.5 18.62,-74.5 18.62,-55.25 110.38,-55.25 110.38,-74.5"/>
<text text-anchor="middle" x="64.5" y="-61" font-family="Helvetica,sans-Serif" font-size="10.00">albert/extension.h</text>
</a>
</g>
</g>
<!-- Node1&#45;&gt;Node2 -->
<g id="edge1_Node000001_Node000002" class="edge">
<title>Node1&#45;&gt;Node2</title>
<g id="a_edge1_Node000001_Node000002"><a xlink:title=" ">
<path fill="none" stroke="#63b8ff" d="M96.12,-110.2C90.52,-102.35 83.56,-92.6 77.6,-84.24"/>
<polygon fill="#63b8ff" stroke="#63b8ff" points="80.51,-82.29 71.85,-76.18 74.81,-86.36 80.51,-82.29"/>
</a>
</g>
</g>
<!-- Node5 -->
<g id="Node000005" class="node">
<title>Node5</title>
<g id="a_Node000005"><a xlink:title=" ">
<polygon fill="#e0e0e0" stroke="#999999" points="171,-74.5 128,-74.5 128,-55.25 171,-55.25 171,-74.5"/>
<text text-anchor="middle" x="149.5" y="-61" font-family="Helvetica,sans-Serif" font-size="10.00">vector</text>
</a>
</g>
</g>
<!-- Node1&#45;&gt;Node5 -->
<g id="edge4_Node000001_Node000005" class="edge">
<title>Node1&#45;&gt;Node5</title>
<g id="a_edge4_Node000001_Node000005"><a xlink:title=" ">
<path fill="none" stroke="#63b8ff" d="M117.13,-110.2C122.86,-102.35 129.98,-92.6 136.09,-84.24"/>
<polygon fill="#63b8ff" stroke="#63b8ff" points="138.91,-86.31 141.98,-76.17 133.25,-82.18 138.91,-86.31"/>
</a>
</g>
</g>
<!-- Node3 -->
<g id="Node000003" class="node">
<title>Node3</title>
<g id="a_Node000003"><a xlink:title=" ">
<polygon fill="#e0e0e0" stroke="#999999" points="49,-19.25 0,-19.25 0,0 49,0 49,-19.25"/>
<text text-anchor="middle" x="24.5" y="-5.75" font-family="Helvetica,sans-Serif" font-size="10.00">QString</text>
</a>
</g>
</g>
<!-- Node2&#45;&gt;Node3 -->
<g id="edge2_Node000002_Node000003" class="edge">
<title>Node2&#45;&gt;Node3</title>
<g id="a_edge2_Node000002_Node000003"><a xlink:title=" ">
<path fill="none" stroke="#63b8ff" d="M57.89,-55.08C52.54,-47.96 44.82,-37.68 38.15,-28.8"/>
<polygon fill="#63b8ff" stroke="#63b8ff" points="40.96,-26.71 32.16,-20.82 35.37,-30.92 40.96,-26.71"/>
</a>
</g>
</g>
<!-- Node4 -->
<g id="Node000004" class="node">
<title>Node4</title>
<g id="a_Node000004"><a xlink:title=" ">
<polygon fill="#e0e0e0" stroke="#999999" points="143.88,-19.25 67.12,-19.25 67.12,0 143.88,0 143.88,-19.25"/>
<text text-anchor="middle" x="105.5" y="-5.75" font-family="Helvetica,sans-Serif" font-size="10.00">albert/export.h</text>
</a>
</g>
</g>
<!-- Node2&#45;&gt;Node4 -->
<g id="edge3_Node000002_Node000004" class="edge">
<title>Node2&#45;&gt;Node4</title>
<g id="a_edge3_Node000002_Node000004"><a xlink:title=" ">
<path fill="none" stroke="#63b8ff" d="M71.27,-55.08C76.82,-47.88 84.84,-37.46 91.73,-28.51"/>
<polygon fill="#63b8ff" stroke="#63b8ff" points="94.33,-30.87 97.66,-20.81 88.79,-26.6 94.33,-30.87"/>
</a>
</g>
</g>
</g>
</svg>
