<?xml version="1.0" encoding="UTF-8" standalone="no"?>
<!DOCTYPE svg PUBLIC "-//W3C//DTD SVG 1.1//EN"
 "http://www.w3.org/Graphics/SVG/1.1/DTD/svg11.dtd">
<!-- Generated by graphviz version 9.0.0 (20230911.1827)
 -->
<!-- Title: workspace/albert/include/albert/plugindependency.h Pages: 1 -->
<svg width="523pt" height="204pt"
 viewBox="0.00 0.00 523.00 204.25" xmlns="http://www.w3.org/2000/svg" xmlns:xlink="http://www.w3.org/1999/xlink">
<g id="graph0" class="graph" transform="scale(1 1) rotate(0) translate(4 200.25)">
<title>workspace/albert/include/albert/plugindependency.h</title>
<!-- Node1 -->
<g id="Node000001" class="node">
<title>Node1</title>
<g id="a_Node000001"><a xlink:title=" ">
<polygon fill="#999999" stroke="#666666" points="231.25,-196.25 100.5,-196.25 100.5,-165.75 231.25,-165.75 231.25,-196.25"/>
<text text-anchor="start" x="108.5" y="-182.75" font-family="Helvetica,sans-Serif" font-size="10.00">workspace/albert/include</text>
<text text-anchor="middle" x="165.88" y="-171.5" font-family="Helvetica,sans-Serif" font-size="10.00">/albert/plugindependency.h</text>
</a>
</g>
</g>
<!-- Node2 -->
<g id="Node000002" class="node">
<title>Node2</title>
<g id="a_Node000002"><a xlink:title=" ">
<polygon fill="#e0e0e0" stroke="#999999" points="91.75,-129.75 0,-129.75 0,-110.5 91.75,-110.5 91.75,-129.75"/>
<text text-anchor="middle" x="45.88" y="-116.25" font-family="Helvetica,sans-Serif" font-size="10.00">QCoreApplication</text>
</a>
</g>
</g>
<!-- Node1&#45;&gt;Node2 -->
<g id="edge1_Node000001_Node000002" class="edge">
<title>Node1&#45;&gt;Node2</title>
<g id="a_edge1_Node000001_Node000002"><a xlink:title=" ">
<path fill="none" stroke="#63b8ff" d="M135.9,-165.3C117.1,-156.07 93,-144.25 74.46,-135.15"/>
<polygon fill="#63b8ff" stroke="#63b8ff" points="76.16,-132.08 65.64,-130.82 73.07,-138.37 76.16,-132.08"/>
</a>
</g>
</g>
<!-- Node3 -->
<g id="Node000003" class="node">
<title>Node3</title>
<g id="a_Node000003"><a xlink:title=" ">
<polygon fill="#e0e0e0" stroke="#999999" points="196.25,-19.25 119.5,-19.25 119.5,0 196.25,0 196.25,-19.25"/>
<text text-anchor="middle" x="157.88" y="-5.75" font-family="Helvetica,sans-Serif" font-size="10.00">albert/export.h</text>
</a>
</g>
</g>
<!-- Node1&#45;&gt;Node3 -->
<g id="edge2_Node000001_Node000003" class="edge">
<title>Node1&#45;&gt;Node3</title>
<g id="a_edge2_Node000001_Node000003"><a xlink:title=" ">
<path fill="none" stroke="#63b8ff" d="M156.29,-165.3C150.57,-155.63 143.86,-142.46 140.88,-129.75 132.78,-95.29 142.85,-54.25 150.58,-30.45"/>
<polygon fill="#63b8ff" stroke="#63b8ff" points="153.85,-31.72 153.81,-21.12 147.23,-29.43 153.85,-31.72"/>
</a>
</g>
</g>
<!-- Node4 -->
<g id="Node000004" class="node">
<title>Node4</title>
<g id="a_Node000004"><a xlink:href="extensionregistry_8h.html" target="_top" xlink:title=" ">
<polygon fill="white" stroke="#666666" points="273.5,-129.75 150.25,-129.75 150.25,-110.5 273.5,-110.5 273.5,-129.75"/>
<text text-anchor="middle" x="211.88" y="-116.25" font-family="Helvetica,sans-Serif" font-size="10.00">albert/extensionregistry.h</text>
</a>
</g>
</g>
<!-- Node1&#45;&gt;Node4 -->
<g id="edge3_Node000001_Node000004" class="edge">
<title>Node1&#45;&gt;Node4</title>
<g id="a_edge3_Node000001_Node000004"><a xlink:title=" ">
<path fill="none" stroke="#63b8ff" d="M177.25,-165.45C183.44,-157.52 191.17,-147.63 197.74,-139.21"/>
<polygon fill="#63b8ff" stroke="#63b8ff" points="200.45,-141.43 203.85,-131.39 194.94,-137.12 200.45,-141.43"/>
</a>
</g>
</g>
<!-- Node9 -->
<g id="Node000009" class="node">
<title>Node9</title>
<g id="a_Node000009"><a xlink:href="logging_8h.html" target="_top" xlink:title=" ">
<polygon fill="white" stroke="#666666" points="440.5,-129.75 359.25,-129.75 359.25,-110.5 440.5,-110.5 440.5,-129.75"/>
<text text-anchor="middle" x="399.88" y="-116.25" font-family="Helvetica,sans-Serif" font-size="10.00">albert/logging.h</text>
</a>
</g>
</g>
<!-- Node1&#45;&gt;Node9 -->
<g id="edge10_Node000001_Node000009" class="edge">
<title>Node1&#45;&gt;Node9</title>
<g id="a_edge10_Node000001_Node000009"><a xlink:title=" ">
<path fill="none" stroke="#63b8ff" d="M224.32,-165.3C263.94,-155.33 315.64,-142.32 352.66,-133"/>
<polygon fill="#63b8ff" stroke="#63b8ff" points="353.33,-136.44 362.18,-130.61 351.62,-129.66 353.33,-136.44"/>
</a>
</g>
</g>
<!-- Node4&#45;&gt;Node3 -->
<g id="edge5_Node000004_Node000003" class="edge">
<title>Node4&#45;&gt;Node3</title>
<g id="a_edge5_Node000004_Node000003"><a xlink:title=" ">
<path fill="none" stroke="#63b8ff" d="M203.25,-110.26C195.38,-101.73 183.93,-88.14 176.88,-74.5 169.71,-60.64 164.82,-43.65 161.8,-30.68"/>
<polygon fill="#63b8ff" stroke="#63b8ff" points="165.28,-30.24 159.77,-21.19 158.44,-31.7 165.28,-30.24"/>
</a>
</g>
</g>
<!-- Node5 -->
<g id="Node000005" class="node">
<title>Node5</title>
<g id="a_Node000005"><a xlink:title=" ">
<polygon fill="#e0e0e0" stroke="#999999" points="237.88,-74.5 185.88,-74.5 185.88,-55.25 237.88,-55.25 237.88,-74.5"/>
<text text-anchor="middle" x="211.88" y="-61" font-family="Helvetica,sans-Serif" font-size="10.00">QObject</text>
</a>
</g>
</g>
<!-- Node4&#45;&gt;Node5 -->
<g id="edge4_Node000004_Node000005" class="edge">
<title>Node4&#45;&gt;Node5</title>
<g id="a_edge4_Node000004_Node000005"><a xlink:title=" ">
<path fill="none" stroke="#63b8ff" d="M211.88,-110.33C211.88,-103.82 211.88,-94.67 211.88,-86.37"/>
<polygon fill="#63b8ff" stroke="#63b8ff" points="215.38,-86.37 211.88,-76.37 208.38,-86.37 215.38,-86.37"/>
</a>
</g>
</g>
<!-- Node6 -->
<g id="Node000006" class="node">
<title>Node6</title>
<g id="a_Node000006"><a xlink:href="extension_8h.html" target="_top" xlink:title=" ">
<polygon fill="white" stroke="#666666" points="347.75,-74.5 256,-74.5 256,-55.25 347.75,-55.25 347.75,-74.5"/>
<text text-anchor="middle" x="301.88" y="-61" font-family="Helvetica,sans-Serif" font-size="10.00">albert/extension.h</text>
</a>
</g>
</g>
<!-- Node4&#45;&gt;Node6 -->
<g id="edge6_Node000004_Node000006" class="edge">
<title>Node4&#45;&gt;Node6</title>
<g id="a_edge6_Node000004_Node000006"><a xlink:title=" ">
<path fill="none" stroke="#63b8ff" d="M227.14,-110.09C240.72,-102.06 260.83,-90.16 276.77,-80.73"/>
<polygon fill="#63b8ff" stroke="#63b8ff" points="278.41,-83.83 285.23,-75.72 274.84,-77.8 278.41,-83.83"/>
</a>
</g>
</g>
<!-- Node8 -->
<g id="Node000008" class="node">
<title>Node8</title>
<g id="a_Node000008"><a xlink:title=" ">
<polygon fill="#e0e0e0" stroke="#999999" points="400.25,-74.5 365.5,-74.5 365.5,-55.25 400.25,-55.25 400.25,-74.5"/>
<text text-anchor="middle" x="382.88" y="-61" font-family="Helvetica,sans-Serif" font-size="10.00">map</text>
</a>
</g>
</g>
<!-- Node4&#45;&gt;Node8 -->
<g id="edge9_Node000004_Node000008" class="edge">
<title>Node4&#45;&gt;Node8</title>
<g id="a_edge9_Node000004_Node000008"><a xlink:title=" ">
<path fill="none" stroke="#63b8ff" d="M241.93,-110.08C269.06,-101.88 310.33,-89.28 354.34,-75.27"/>
<polygon fill="#63b8ff" stroke="#63b8ff" points="355.37,-78.61 363.83,-72.23 353.24,-71.94 355.37,-78.61"/>
</a>
</g>
</g>
<!-- Node6&#45;&gt;Node3 -->
<g id="edge8_Node000006_Node000003" class="edge">
<title>Node6&#45;&gt;Node3</title>
<g id="a_edge8_Node000006_Node000003"><a xlink:title=" ">
<path fill="none" stroke="#63b8ff" d="M277.45,-54.84C254.28,-46.27 219.21,-33.31 193.04,-23.63"/>
<polygon fill="#63b8ff" stroke="#63b8ff" points="194.44,-20.41 183.84,-20.23 192.01,-26.98 194.44,-20.41"/>
</a>
</g>
</g>
<!-- Node7 -->
<g id="Node000007" class="node">
<title>Node7</title>
<g id="a_Node000007"><a xlink:title=" ">
<polygon fill="#e0e0e0" stroke="#999999" points="326.38,-19.25 277.38,-19.25 277.38,0 326.38,0 326.38,-19.25"/>
<text text-anchor="middle" x="301.88" y="-5.75" font-family="Helvetica,sans-Serif" font-size="10.00">QString</text>
</a>
</g>
</g>
<!-- Node6&#45;&gt;Node7 -->
<g id="edge7_Node000006_Node000007" class="edge">
<title>Node6&#45;&gt;Node7</title>
<g id="a_edge7_Node000006_Node000007"><a xlink:title=" ">
<path fill="none" stroke="#63b8ff" d="M301.88,-55.08C301.88,-48.57 301.88,-39.42 301.88,-31.12"/>
<polygon fill="#63b8ff" stroke="#63b8ff" points="305.38,-31.12 301.88,-21.12 298.38,-31.12 305.38,-31.12"/>
</a>
</g>
</g>
<!-- Node10 -->
<g id="Node000010" class="node">
<title>Node10</title>
<g id="a_Node000010"><a xlink:title=" ">
<polygon fill="#e0e0e0" stroke="#999999" points="515,-74.5 418.75,-74.5 418.75,-55.25 515,-55.25 515,-74.5"/>
<text text-anchor="middle" x="466.88" y="-61" font-family="Helvetica,sans-Serif" font-size="10.00">QLoggingCategory</text>
</a>
</g>
</g>
<!-- Node9&#45;&gt;Node10 -->
<g id="edge11_Node000009_Node000010" class="edge">
<title>Node9&#45;&gt;Node10</title>
<g id="a_edge11_Node000009_Node000010"><a xlink:title=" ">
<path fill="none" stroke="#63b8ff" d="M411.24,-110.09C420.92,-102.4 435.07,-91.15 446.68,-81.93"/>
<polygon fill="#63b8ff" stroke="#63b8ff" points="448.84,-84.68 454.49,-75.72 444.49,-79.2 448.84,-84.68"/>
</a>
</g>
</g>
</g>
</svg>
