<?xml version="1.0" encoding="UTF-8" standalone="no"?>
<!DOCTYPE svg PUBLIC "-//W3C//DTD SVG 1.1//EN"
 "http://www.w3.org/Graphics/SVG/1.1/DTD/svg11.dtd">
<!-- Generated by graphviz version 9.0.0 (20230911.1827)
 -->
<!-- Title: workspace/albert/include/albert/plugindependency.h Pages: 1 -->
<svg width="665pt" height="204pt"
 viewBox="0.00 0.00 664.62 204.25" xmlns="http://www.w3.org/2000/svg" xmlns:xlink="http://www.w3.org/1999/xlink">
<g id="graph0" class="graph" transform="scale(1 1) rotate(0) translate(4 200.25)">
<title>workspace/albert/include/albert/plugindependency.h</title>
<!-- Node1 -->
<g id="Node000001" class="node">
<title>Node1</title>
<g id="a_Node000001"><a xlink:title=" ">
<polygon fill="#999999" stroke="#666666" points="326.88,-196.25 196.12,-196.25 196.12,-165.75 326.88,-165.75 326.88,-196.25"/>
<text text-anchor="start" x="204.12" y="-182.75" font-family="Helvetica,sans-Serif" font-size="10.00">workspace/albert/include</text>
<text text-anchor="middle" x="261.5" y="-171.5" font-family="Helvetica,sans-Serif" font-size="10.00">/albert/plugindependency.h</text>
</a>
</g>
</g>
<!-- Node2 -->
<g id="Node000002" class="node">
<title>Node2</title>
<g id="a_Node000002"><a xlink:title=" ">
<polygon fill="#e0e0e0" stroke="#999999" points="117.38,-129.75 25.62,-129.75 25.62,-110.5 117.38,-110.5 117.38,-129.75"/>
<text text-anchor="middle" x="71.5" y="-116.25" font-family="Helvetica,sans-Serif" font-size="10.00">QCoreApplication</text>
</a>
</g>
</g>
<!-- Node1&#45;&gt;Node2 -->
<g id="edge1_Node000001_Node000002" class="edge">
<title>Node1&#45;&gt;Node2</title>
<g id="a_edge1_Node000001_Node000002"><a xlink:title=" ">
<path fill="none" stroke="#63b8ff" d="M214.05,-165.3C182.56,-155.54 141.7,-142.88 111.8,-133.61"/>
<polygon fill="#63b8ff" stroke="#63b8ff" points="112.95,-130.31 102.36,-130.69 110.88,-136.99 112.95,-130.31"/>
</a>
</g>
</g>
<!-- Node3 -->
<g id="Node000003" class="node">
<title>Node3</title>
<g id="a_Node000003"><a xlink:href="app_8h.html" target="_top" xlink:title=" ">
<polygon fill="white" stroke="#666666" points="201.62,-129.75 135.38,-129.75 135.38,-110.5 201.62,-110.5 201.62,-129.75"/>
<text text-anchor="middle" x="168.5" y="-116.25" font-family="Helvetica,sans-Serif" font-size="10.00">albert/app.h</text>
</a>
</g>
</g>
<!-- Node1&#45;&gt;Node3 -->
<g id="edge2_Node000001_Node000003" class="edge">
<title>Node1&#45;&gt;Node3</title>
<g id="a_edge2_Node000001_Node000003"><a xlink:title=" ">
<path fill="none" stroke="#63b8ff" d="M238.51,-165.45C224.49,-156.57 206.59,-145.24 192.4,-136.26"/>
<polygon fill="#63b8ff" stroke="#63b8ff" points="194.44,-133.4 184.12,-131.01 190.69,-139.32 194.44,-133.4"/>
</a>
</g>
</g>
<!-- Node5 -->
<g id="Node000005" class="node">
<title>Node5</title>
<g id="a_Node000005"><a xlink:title=" ">
<polygon fill="#e0e0e0" stroke="#999999" points="318.88,-19.25 242.12,-19.25 242.12,0 318.88,0 318.88,-19.25"/>
<text text-anchor="middle" x="280.5" y="-5.75" font-family="Helvetica,sans-Serif" font-size="10.00">albert/export.h</text>
</a>
</g>
</g>
<!-- Node1&#45;&gt;Node5 -->
<g id="edge7_Node000001_Node000005" class="edge">
<title>Node1&#45;&gt;Node5</title>
<g id="a_edge7_Node000001_Node000005"><a xlink:title=" ">
<path fill="none" stroke="#63b8ff" d="M263.15,-165.27C266.55,-135.01 274.31,-65.8 278.2,-31.16"/>
<polygon fill="#63b8ff" stroke="#63b8ff" points="281.67,-31.57 279.31,-21.24 274.72,-30.79 281.67,-31.57"/>
</a>
</g>
</g>
<!-- Node8 -->
<g id="Node000008" class="node">
<title>Node8</title>
<g id="a_Node000008"><a xlink:href="extensionregistry_8h.html" target="_top" xlink:title=" ">
<polygon fill="white" stroke="#666666" points="415.12,-129.75 291.88,-129.75 291.88,-110.5 415.12,-110.5 415.12,-129.75"/>
<text text-anchor="middle" x="353.5" y="-116.25" font-family="Helvetica,sans-Serif" font-size="10.00">albert/extensionregistry.h</text>
</a>
</g>
</g>
<!-- Node1&#45;&gt;Node8 -->
<g id="edge8_Node000001_Node000008" class="edge">
<title>Node1&#45;&gt;Node8</title>
<g id="a_edge8_Node000001_Node000008"><a xlink:title=" ">
<path fill="none" stroke="#63b8ff" d="M284.24,-165.45C298.11,-156.57 315.82,-145.24 329.85,-136.26"/>
<polygon fill="#63b8ff" stroke="#63b8ff" points="331.51,-139.36 338.04,-131.02 327.73,-133.46 331.51,-139.36"/>
</a>
</g>
</g>
<!-- Node12 -->
<g id="Node000012" class="node">
<title>Node12</title>
<g id="a_Node000012"><a xlink:href="logging_8h.html" target="_top" xlink:title=" ">
<polygon fill="white" stroke="#666666" points="581.12,-129.75 499.88,-129.75 499.88,-110.5 581.12,-110.5 581.12,-129.75"/>
<text text-anchor="middle" x="540.5" y="-116.25" font-family="Helvetica,sans-Serif" font-size="10.00">albert/logging.h</text>
</a>
</g>
</g>
<!-- Node1&#45;&gt;Node12 -->
<g id="edge14_Node000001_Node000012" class="edge">
<title>Node1&#45;&gt;Node12</title>
<g id="a_edge14_Node000001_Node000012"><a xlink:title=" ">
<path fill="none" stroke="#63b8ff" d="M327.27,-166.12C376.42,-155.75 442.73,-141.76 488.28,-132.15"/>
<polygon fill="#63b8ff" stroke="#63b8ff" points="488.85,-135.6 497.91,-130.11 487.4,-128.75 488.85,-135.6"/>
</a>
</g>
</g>
<!-- Node4 -->
<g id="Node000004" class="node">
<title>Node4</title>
<g id="a_Node000004"><a xlink:title=" ">
<polygon fill="#e0e0e0" stroke="#999999" points="49,-74.5 0,-74.5 0,-55.25 49,-55.25 49,-74.5"/>
<text text-anchor="middle" x="24.5" y="-61" font-family="Helvetica,sans-Serif" font-size="10.00">QString</text>
</a>
</g>
</g>
<!-- Node3&#45;&gt;Node4 -->
<g id="edge3_Node000003_Node000004" class="edge">
<title>Node3&#45;&gt;Node4</title>
<g id="a_edge3_Node000003_Node000004"><a xlink:title=" ">
<path fill="none" stroke="#63b8ff" d="M144.07,-110.09C120.9,-101.52 85.84,-88.56 59.66,-78.88"/>
<polygon fill="#63b8ff" stroke="#63b8ff" points="61.06,-75.66 50.47,-75.48 58.63,-82.23 61.06,-75.66"/>
</a>
</g>
</g>
<!-- Node3&#45;&gt;Node5 -->
<g id="edge4_Node000003_Node000005" class="edge">
<title>Node3&#45;&gt;Node5</title>
<g id="a_edge4_Node000003_Node000005"><a xlink:title=" ">
<path fill="none" stroke="#63b8ff" d="M144.12,-110.1C116.9,-98.66 78.84,-77.71 96.5,-55.25 112.91,-34.38 181.88,-22.08 230.54,-15.84"/>
<polygon fill="#63b8ff" stroke="#63b8ff" points="230.82,-19.34 240.32,-14.64 229.96,-12.39 230.82,-19.34"/>
</a>
</g>
</g>
<!-- Node6 -->
<g id="Node000006" class="node">
<title>Node6</title>
<g id="a_Node000006"><a xlink:title=" ">
<polygon fill="#e0e0e0" stroke="#999999" points="165.25,-74.5 105.75,-74.5 105.75,-55.25 165.25,-55.25 165.25,-74.5"/>
<text text-anchor="middle" x="135.5" y="-61" font-family="Helvetica,sans-Serif" font-size="10.00">filesystem</text>
</a>
</g>
</g>
<!-- Node3&#45;&gt;Node6 -->
<g id="edge5_Node000003_Node000006" class="edge">
<title>Node3&#45;&gt;Node6</title>
<g id="a_edge5_Node000003_Node000006"><a xlink:title=" ">
<path fill="none" stroke="#63b8ff" d="M163.05,-110.33C158.73,-103.36 152.54,-93.37 147.12,-84.62"/>
<polygon fill="#63b8ff" stroke="#63b8ff" points="150.11,-82.8 141.86,-76.15 144.16,-86.49 150.11,-82.8"/>
</a>
</g>
</g>
<!-- Node7 -->
<g id="Node000007" class="node">
<title>Node7</title>
<g id="a_Node000007"><a xlink:title=" ">
<polygon fill="#e0e0e0" stroke="#999999" points="233.75,-74.5 183.25,-74.5 183.25,-55.25 233.75,-55.25 233.75,-74.5"/>
<text text-anchor="middle" x="208.5" y="-61" font-family="Helvetica,sans-Serif" font-size="10.00">memory</text>
</a>
</g>
</g>
<!-- Node3&#45;&gt;Node7 -->
<g id="edge6_Node000003_Node000007" class="edge">
<title>Node3&#45;&gt;Node7</title>
<g id="a_edge6_Node000003_Node000007"><a xlink:title=" ">
<path fill="none" stroke="#63b8ff" d="M175.11,-110.33C180.46,-103.21 188.18,-92.93 194.85,-84.05"/>
<polygon fill="#63b8ff" stroke="#63b8ff" points="197.63,-86.17 200.84,-76.07 192.04,-81.96 197.63,-86.17"/>
</a>
</g>
</g>
<!-- Node8&#45;&gt;Node5 -->
<g id="edge10_Node000008_Node000005" class="edge">
<title>Node8&#45;&gt;Node5</title>
<g id="a_edge10_Node000008_Node000005"><a xlink:title=" ">
<path fill="none" stroke="#63b8ff" d="M345.91,-110.15C338.57,-101.32 327.3,-87.33 318.5,-74.5 308.46,-59.85 298.23,-42.48 290.91,-29.56"/>
<polygon fill="#63b8ff" stroke="#63b8ff" points="293.98,-27.87 286.05,-20.85 287.87,-31.28 293.98,-27.87"/>
</a>
</g>
</g>
<!-- Node9 -->
<g id="Node000009" class="node">
<title>Node9</title>
<g id="a_Node000009"><a xlink:title=" ">
<polygon fill="#e0e0e0" stroke="#999999" points="379.5,-74.5 327.5,-74.5 327.5,-55.25 379.5,-55.25 379.5,-74.5"/>
<text text-anchor="middle" x="353.5" y="-61" font-family="Helvetica,sans-Serif" font-size="10.00">QObject</text>
</a>
</g>
</g>
<!-- Node8&#45;&gt;Node9 -->
<g id="edge9_Node000008_Node000009" class="edge">
<title>Node8&#45;&gt;Node9</title>
<g id="a_edge9_Node000008_Node000009"><a xlink:title=" ">
<path fill="none" stroke="#63b8ff" d="M353.5,-110.33C353.5,-103.82 353.5,-94.67 353.5,-86.37"/>
<polygon fill="#63b8ff" stroke="#63b8ff" points="357,-86.37 353.5,-76.37 350,-86.37 357,-86.37"/>
</a>
</g>
</g>
<!-- Node10 -->
<g id="Node000010" class="node">
<title>Node10</title>
<g id="a_Node000010"><a xlink:href="extension_8h.html" target="_top" xlink:title=" ">
<polygon fill="white" stroke="#666666" points="489.38,-74.5 397.62,-74.5 397.62,-55.25 489.38,-55.25 489.38,-74.5"/>
<text text-anchor="middle" x="443.5" y="-61" font-family="Helvetica,sans-Serif" font-size="10.00">albert/extension.h</text>
</a>
</g>
</g>
<!-- Node8&#45;&gt;Node10 -->
<g id="edge11_Node000008_Node000010" class="edge">
<title>Node8&#45;&gt;Node10</title>
<g id="a_edge11_Node000008_Node000010"><a xlink:title=" ">
<path fill="none" stroke="#63b8ff" d="M368.77,-110.09C382.34,-102.06 402.45,-90.16 418.4,-80.73"/>
<polygon fill="#63b8ff" stroke="#63b8ff" points="420.03,-83.83 426.86,-75.72 416.47,-77.8 420.03,-83.83"/>
</a>
</g>
</g>
<!-- Node11 -->
<g id="Node000011" class="node">
<title>Node11</title>
<g id="a_Node000011"><a xlink:title=" ">
<polygon fill="#e0e0e0" stroke="#999999" points="541.88,-74.5 507.12,-74.5 507.12,-55.25 541.88,-55.25 541.88,-74.5"/>
<text text-anchor="middle" x="524.5" y="-61" font-family="Helvetica,sans-Serif" font-size="10.00">map</text>
</a>
</g>
</g>
<!-- Node8&#45;&gt;Node11 -->
<g id="edge13_Node000008_Node000011" class="edge">
<title>Node8&#45;&gt;Node11</title>
<g id="a_edge13_Node000008_Node000011"><a xlink:title=" ">
<path fill="none" stroke="#63b8ff" d="M383.55,-110.08C410.68,-101.88 451.96,-89.28 495.96,-75.27"/>
<polygon fill="#63b8ff" stroke="#63b8ff" points="496.99,-78.61 505.45,-72.23 494.86,-71.94 496.99,-78.61"/>
</a>
</g>
</g>
<!-- Node10&#45;&gt;Node5 -->
<g id="edge12_Node000010_Node000005" class="edge">
<title>Node10&#45;&gt;Node5</title>
<g id="a_edge12_Node000010_Node000005"><a xlink:title=" ">
<path fill="none" stroke="#63b8ff" d="M415.85,-54.84C389.27,-46.16 348.86,-32.96 319.11,-23.24"/>
<polygon fill="#63b8ff" stroke="#63b8ff" points="320.32,-19.95 309.73,-20.17 318.14,-26.6 320.32,-19.95"/>
</a>
</g>
</g>
<!-- Node13 -->
<g id="Node000013" class="node">
<title>Node13</title>
<g id="a_Node000013"><a xlink:title=" ">
<polygon fill="#e0e0e0" stroke="#999999" points="656.62,-74.5 560.38,-74.5 560.38,-55.25 656.62,-55.25 656.62,-74.5"/>
<text text-anchor="middle" x="608.5" y="-61" font-family="Helvetica,sans-Serif" font-size="10.00">QLoggingCategory</text>
</a>
</g>
</g>
<!-- Node12&#45;&gt;Node13 -->
<g id="edge15_Node000012_Node000013" class="edge">
<title>Node12&#45;&gt;Node13</title>
<g id="a_edge15_Node000012_Node000013"><a xlink:title=" ">
<path fill="none" stroke="#63b8ff" d="M552.04,-110.09C561.96,-102.32 576.51,-90.92 588.36,-81.65"/>
<polygon fill="#63b8ff" stroke="#63b8ff" points="590.23,-84.63 595.94,-75.71 585.91,-79.12 590.23,-84.63"/>
</a>
</g>
</g>
</g>
</svg>
