<?xml version="1.0" encoding="UTF-8" standalone="no"?>
<!DOCTYPE svg PUBLIC "-//W3C//DTD SVG 1.1//EN"
 "http://www.w3.org/Graphics/SVG/1.1/DTD/svg11.dtd">
<!-- Generated by graphviz version 9.0.0 (20230911.1827)
 -->
<!-- Title: workspace/albert/include/albert/query.h Pages: 1 -->
<svg width="152pt" height="149pt"
 viewBox="0.00 0.00 151.88 149.00" xmlns="http://www.w3.org/2000/svg" xmlns:xlink="http://www.w3.org/1999/xlink">
<g id="graph0" class="graph" transform="scale(1 1) rotate(0) translate(4 145)">
<title>workspace/albert/include/albert/query.h</title>
<!-- Node1 -->
<g id="Node000001" class="node">
<title>Node1</title>
<g id="a_Node000001"><a xlink:title=" ">
<polygon fill="#999999" stroke="#666666" points="127.5,-141 3.5,-141 3.5,-110.5 127.5,-110.5 127.5,-141"/>
<text text-anchor="start" x="11.5" y="-127.5" font-family="Helvetica,sans-Serif" font-size="10.00">workspace/albert/include</text>
<text text-anchor="middle" x="65.5" y="-116.25" font-family="Helvetica,sans-Serif" font-size="10.00">/albert/query.h</text>
</a>
</g>
</g>
<!-- Node2 -->
<g id="Node000002" class="node">
<title>Node2</title>
<g id="a_Node000002"><a xlink:title=" ">
<polygon fill="#e0e0e0" stroke="#999999" points="49,-19.25 0,-19.25 0,0 49,0 49,-19.25"/>
<text text-anchor="middle" x="24.5" y="-5.75" font-family="Helvetica,sans-Serif" font-size="10.00">QString</text>
</a>
</g>
</g>
<!-- Node1&#45;&gt;Node2 -->
<g id="edge1_Node000001_Node000002" class="edge">
<title>Node1&#45;&gt;Node2</title>
<g id="a_edge1_Node000001_Node000002"><a xlink:title=" ">
<path fill="none" stroke="#63b8ff" d="M37.98,-110.19C24.96,-101.69 10.71,-89.63 3.5,-74.5 -3.56,-59.7 3.45,-41.91 11.22,-28.87"/>
<polygon fill="#63b8ff" stroke="#63b8ff" points="13.93,-31.11 16.52,-20.84 8.09,-27.26 13.93,-31.11"/>
</a>
</g>
</g>
<!-- Node3 -->
<g id="Node000003" class="node">
<title>Node3</title>
<g id="a_Node000003"><a xlink:title=" ">
<polygon fill="#e0e0e0" stroke="#999999" points="143.88,-19.25 67.12,-19.25 67.12,0 143.88,0 143.88,-19.25"/>
<text text-anchor="middle" x="105.5" y="-5.75" font-family="Helvetica,sans-Serif" font-size="10.00">albert/export.h</text>
</a>
</g>
</g>
<!-- Node1&#45;&gt;Node3 -->
<g id="edge2_Node000001_Node000003" class="edge">
<title>Node1&#45;&gt;Node3</title>
<g id="a_edge2_Node000001_Node000003"><a xlink:title=" ">
<path fill="none" stroke="#63b8ff" d="M93.02,-110.19C106.04,-101.69 120.29,-89.63 127.5,-74.5 134.59,-59.63 127.28,-41.85 119.23,-28.83"/>
<polygon fill="#63b8ff" stroke="#63b8ff" points="122.28,-27.08 113.74,-20.8 116.5,-31.03 122.28,-27.08"/>
</a>
</g>
</g>
<!-- Node4 -->
<g id="Node000004" class="node">
<title>Node4</title>
<g id="a_Node000004"><a xlink:href="querycontext_8h.html" target="_top" xlink:title=" ">
<polygon fill="white" stroke="#666666" points="118.12,-74.5 12.88,-74.5 12.88,-55.25 118.12,-55.25 118.12,-74.5"/>
<text text-anchor="middle" x="65.5" y="-61" font-family="Helvetica,sans-Serif" font-size="10.00">albert/querycontext.h</text>
</a>
</g>
</g>
<!-- Node1&#45;&gt;Node4 -->
<g id="edge3_Node000001_Node000004" class="edge">
<title>Node1&#45;&gt;Node4</title>
<g id="a_edge3_Node000001_Node000004"><a xlink:title=" ">
<path fill="none" stroke="#63b8ff" d="M65.5,-110.2C65.5,-102.96 65.5,-94.09 65.5,-86.19"/>
<polygon fill="#63b8ff" stroke="#63b8ff" points="69,-86.46 65.5,-76.46 62,-86.46 69,-86.46"/>
</a>
</g>
</g>
<!-- Node4&#45;&gt;Node2 -->
<g id="edge4_Node000004_Node000002" class="edge">
<title>Node4&#45;&gt;Node2</title>
<g id="a_edge4_Node000004_Node000002"><a xlink:title=" ">
<path fill="none" stroke="#63b8ff" d="M58.73,-55.08C53.18,-47.88 45.16,-37.46 38.27,-28.51"/>
<polygon fill="#63b8ff" stroke="#63b8ff" points="41.21,-26.6 32.34,-20.81 35.67,-30.87 41.21,-26.6"/>
</a>
</g>
</g>
<!-- Node4&#45;&gt;Node3 -->
<g id="edge5_Node000004_Node000003" class="edge">
<title>Node4&#45;&gt;Node3</title>
<g id="a_edge5_Node000004_Node000003"><a xlink:title=" ">
<path fill="none" stroke="#63b8ff" d="M72.11,-55.08C77.46,-47.96 85.18,-37.68 91.85,-28.8"/>
<polygon fill="#63b8ff" stroke="#63b8ff" points="94.63,-30.92 97.84,-20.82 89.04,-26.71 94.63,-30.92"/>
</a>
</g>
</g>
</g>
</svg>
