<?xml version="1.0" encoding="UTF-8" standalone="no"?>
<!DOCTYPE svg PUBLIC "-//W3C//DTD SVG 1.1//EN"
 "http://www.w3.org/Graphics/SVG/1.1/DTD/svg11.dtd">
<!-- Generated by graphviz version 9.0.0 (20230911.1827)
 -->
<!-- Title: workspace/albert/include/albert/queryhandler.h Pages: 1 -->
<svg width="350pt" height="305pt"
 viewBox="0.00 0.00 349.50 304.50" xmlns="http://www.w3.org/2000/svg" xmlns:xlink="http://www.w3.org/1999/xlink">
<g id="graph0" class="graph" transform="scale(1 1) rotate(0) translate(4 300.5)">
<title>workspace/albert/include/albert/queryhandler.h</title>
<!-- Node1 -->
<g id="Node000001" class="node">
<title>Node1</title>
<g id="a_Node000001"><a xlink:title=" ">
<polygon fill="#999999" stroke="#666666" points="239.12,-296.5 115.12,-296.5 115.12,-266 239.12,-266 239.12,-296.5"/>
<text text-anchor="start" x="123.12" y="-283" font-family="Helvetica,sans-Serif" font-size="10.00">workspace/albert/include</text>
<text text-anchor="middle" x="177.12" y="-271.75" font-family="Helvetica,sans-Serif" font-size="10.00">/albert/queryhandler.h</text>
</a>
</g>
</g>
<!-- Node2 -->
<g id="Node000002" class="node">
<title>Node2</title>
<g id="a_Node000002"><a xlink:href="asyncgeneratorqueryhandler_8h.html" target="_top" xlink:title=" ">
<polygon fill="white" stroke="#666666" points="174.25,-230 0,-230 0,-199.5 174.25,-199.5 174.25,-230"/>
<text text-anchor="start" x="8" y="-216.5" font-family="Helvetica,sans-Serif" font-size="10.00">workspace/albert/include</text>
<text text-anchor="middle" x="87.12" y="-205.25" font-family="Helvetica,sans-Serif" font-size="10.00">/albert/asyncgeneratorqueryhandler.h</text>
</a>
</g>
</g>
<!-- Node1&#45;&gt;Node2 -->
<g id="edge1_Node000001_Node000002" class="edge">
<title>Node1&#45;&gt;Node2</title>
<g id="a_edge1_Node000001_Node000002"><a xlink:title=" ">
<path fill="none" stroke="#63b8ff" d="M147.57,-259.07C134.43,-249.66 119.3,-238.81 107.47,-230.33"/>
<polygon fill="#63b8ff" stroke="#63b8ff" points="145.31,-261.75 155.47,-264.73 149.38,-256.06 145.31,-261.75"/>
</a>
</g>
</g>
<!-- Node3 -->
<g id="Node000003" class="node">
<title>Node3</title>
<g id="a_Node000003"><a xlink:href="generatorqueryhandler_8h.html" target="_top" xlink:title=" ">
<polygon fill="white" stroke="#666666" points="341.5,-230 192.75,-230 192.75,-199.5 341.5,-199.5 341.5,-230"/>
<text text-anchor="start" x="200.75" y="-216.5" font-family="Helvetica,sans-Serif" font-size="10.00">workspace/albert/include</text>
<text text-anchor="middle" x="267.12" y="-205.25" font-family="Helvetica,sans-Serif" font-size="10.00">/albert/generatorqueryhandler.h</text>
</a>
</g>
</g>
<!-- Node1&#45;&gt;Node3 -->
<g id="edge2_Node000001_Node000003" class="edge">
<title>Node1&#45;&gt;Node3</title>
<g id="a_edge2_Node000001_Node000003"><a xlink:title=" ">
<path fill="none" stroke="#63b8ff" d="M206.68,-259.07C219.82,-249.66 234.95,-238.81 246.78,-230.33"/>
<polygon fill="#63b8ff" stroke="#63b8ff" points="204.87,-256.06 198.78,-264.73 208.94,-261.75 204.87,-256.06"/>
</a>
</g>
</g>
<!-- Node4 -->
<g id="Node000004" class="node">
<title>Node4</title>
<g id="a_Node000004"><a xlink:href="rankedqueryhandler_8h.html" target="_top" xlink:title=" ">
<polygon fill="white" stroke="#666666" points="335.88,-163.5 198.38,-163.5 198.38,-133 335.88,-133 335.88,-163.5"/>
<text text-anchor="start" x="206.38" y="-150" font-family="Helvetica,sans-Serif" font-size="10.00">workspace/albert/include</text>
<text text-anchor="middle" x="267.12" y="-138.75" font-family="Helvetica,sans-Serif" font-size="10.00">/albert/rankedqueryhandler.h</text>
</a>
</g>
</g>
<!-- Node3&#45;&gt;Node4 -->
<g id="edge3_Node000003_Node000004" class="edge">
<title>Node3&#45;&gt;Node4</title>
<g id="a_edge3_Node000003_Node000004"><a xlink:title=" ">
<path fill="none" stroke="#63b8ff" d="M267.12,-187.81C267.12,-179.64 267.12,-170.91 267.12,-163.83"/>
<polygon fill="#63b8ff" stroke="#63b8ff" points="263.63,-187.6 267.13,-197.6 270.63,-187.6 263.63,-187.6"/>
</a>
</g>
</g>
<!-- Node5 -->
<g id="Node000005" class="node">
<title>Node5</title>
<g id="a_Node000005"><a xlink:href="globalqueryhandler_8h.html" target="_top" xlink:title=" ">
<polygon fill="white" stroke="#666666" points="334,-97 200.25,-97 200.25,-66.5 334,-66.5 334,-97"/>
<text text-anchor="start" x="208.25" y="-83.5" font-family="Helvetica,sans-Serif" font-size="10.00">workspace/albert/include</text>
<text text-anchor="middle" x="267.12" y="-72.25" font-family="Helvetica,sans-Serif" font-size="10.00">/albert/globalqueryhandler.h</text>
</a>
</g>
</g>
<!-- Node4&#45;&gt;Node5 -->
<g id="edge4_Node000004_Node000005" class="edge">
<title>Node4&#45;&gt;Node5</title>
<g id="a_edge4_Node000004_Node000005"><a xlink:title=" ">
<path fill="none" stroke="#63b8ff" d="M267.12,-121.31C267.12,-113.14 267.12,-104.41 267.12,-97.33"/>
<polygon fill="#63b8ff" stroke="#63b8ff" points="263.63,-121.1 267.13,-131.1 270.63,-121.1 263.63,-121.1"/>
</a>
</g>
</g>
<!-- Node6 -->
<g id="Node000006" class="node">
<title>Node6</title>
<g id="a_Node000006"><a xlink:href="indexqueryhandler_8h.html" target="_top" xlink:title=" ">
<polygon fill="white" stroke="#666666" points="332.5,-30.5 201.75,-30.5 201.75,0 332.5,0 332.5,-30.5"/>
<text text-anchor="start" x="209.75" y="-17" font-family="Helvetica,sans-Serif" font-size="10.00">workspace/albert/include</text>
<text text-anchor="middle" x="267.12" y="-5.75" font-family="Helvetica,sans-Serif" font-size="10.00">/albert/indexqueryhandler.h</text>
</a>
</g>
</g>
<!-- Node5&#45;&gt;Node6 -->
<g id="edge5_Node000005_Node000006" class="edge">
<title>Node5&#45;&gt;Node6</title>
<g id="a_edge5_Node000005_Node000006"><a xlink:title=" ">
<path fill="none" stroke="#63b8ff" d="M267.12,-54.81C267.12,-46.64 267.12,-37.91 267.12,-30.83"/>
<polygon fill="#63b8ff" stroke="#63b8ff" points="263.63,-54.6 267.13,-64.6 270.63,-54.6 263.63,-54.6"/>
</a>
</g>
</g>
</g>
</svg>
