<?xml version="1.0" encoding="UTF-8" standalone="no"?>
<!DOCTYPE svg PUBLIC "-//W3C//DTD SVG 1.1//EN"
 "http://www.w3.org/Graphics/SVG/1.1/DTD/svg11.dtd">
<!-- Generated by graphviz version 9.0.0 (20230911.1827)
 -->
<!-- Title: workspace/albert/include/albert/queryhandler.h Pages: 1 -->
<svg width="305pt" height="149pt"
 viewBox="0.00 0.00 305.14 149.00" xmlns="http://www.w3.org/2000/svg" xmlns:xlink="http://www.w3.org/1999/xlink">
<g id="graph0" class="graph" transform="scale(1 1) rotate(0) translate(4 145)">
<title>workspace/albert/include/albert/queryhandler.h</title>
<!-- Node1 -->
<g id="Node000001" class="node">
<title>Node1</title>
<g id="a_Node000001"><a xlink:title=" ">
<polygon fill="#999999" stroke="#666666" points="178.89,-141 54.89,-141 54.89,-110.5 178.89,-110.5 178.89,-141"/>
<text text-anchor="start" x="62.89" y="-127.5" font-family="Helvetica,sans-Serif" font-size="10.00">workspace/albert/include</text>
<text text-anchor="middle" x="116.89" y="-116.25" font-family="Helvetica,sans-Serif" font-size="10.00">/albert/queryhandler.h</text>
</a>
</g>
</g>
<!-- Node2 -->
<g id="Node000002" class="node">
<title>Node2</title>
<g id="a_Node000002"><a xlink:title=" ">
<polygon fill="#e0e0e0" stroke="#999999" points="97.26,-19.25 20.51,-19.25 20.51,0 97.26,0 97.26,-19.25"/>
<text text-anchor="middle" x="58.89" y="-5.75" font-family="Helvetica,sans-Serif" font-size="10.00">albert/export.h</text>
</a>
</g>
</g>
<!-- Node1&#45;&gt;Node2 -->
<g id="edge1_Node000001_Node000002" class="edge">
<title>Node1&#45;&gt;Node2</title>
<g id="a_edge1_Node000001_Node000002"><a xlink:title=" ">
<path fill="none" stroke="#63b8ff" d="M54.58,-111.34C34.99,-103.88 15.47,-92.32 3.89,-74.5 -7.86,-56.42 12.13,-38 31.22,-25.61"/>
<polygon fill="#63b8ff" stroke="#63b8ff" points="32.91,-28.68 39.65,-20.5 29.28,-22.69 32.91,-28.68"/>
</a>
</g>
</g>
<!-- Node3 -->
<g id="Node000003" class="node">
<title>Node3</title>
<g id="a_Node000003"><a xlink:href="extension_8h.html" target="_top" xlink:title=" ">
<polygon fill="white" stroke="#666666" points="104.76,-74.5 13.01,-74.5 13.01,-55.25 104.76,-55.25 104.76,-74.5"/>
<text text-anchor="middle" x="58.89" y="-61" font-family="Helvetica,sans-Serif" font-size="10.00">albert/extension.h</text>
</a>
</g>
</g>
<!-- Node1&#45;&gt;Node3 -->
<g id="edge2_Node000001_Node000003" class="edge">
<title>Node1&#45;&gt;Node3</title>
<g id="a_edge2_Node000001_Node000003"><a xlink:title=" ">
<path fill="none" stroke="#63b8ff" d="M102.55,-110.2C94.49,-102.01 84.36,-91.73 75.9,-83.14"/>
<polygon fill="#63b8ff" stroke="#63b8ff" points="78.4,-80.7 68.89,-76.03 73.42,-85.61 78.4,-80.7"/>
</a>
</g>
</g>
<!-- Node4 -->
<g id="Node000004" class="node">
<title>Node4</title>
<g id="a_Node000004"><a xlink:href="querycontext_8h.html" target="_top" xlink:title=" ">
<polygon fill="white" stroke="#666666" points="228.51,-74.5 123.26,-74.5 123.26,-55.25 228.51,-55.25 228.51,-74.5"/>
<text text-anchor="middle" x="175.89" y="-61" font-family="Helvetica,sans-Serif" font-size="10.00">albert/querycontext.h</text>
</a>
</g>
</g>
<!-- Node1&#45;&gt;Node4 -->
<g id="edge4_Node000001_Node000004" class="edge">
<title>Node1&#45;&gt;Node4</title>
<g id="a_edge4_Node000001_Node000004"><a xlink:title=" ">
<path fill="none" stroke="#63b8ff" d="M131.47,-110.2C139.77,-101.92 150.19,-91.52 158.86,-82.87"/>
<polygon fill="#63b8ff" stroke="#63b8ff" points="161.12,-85.56 165.72,-76.02 156.17,-80.61 161.12,-85.56"/>
</a>
</g>
</g>
<!-- Node6 -->
<g id="Node000006" class="node">
<title>Node6</title>
<g id="a_Node000006"><a xlink:title=" ">
<polygon fill="#e0e0e0" stroke="#999999" points="297.14,-74.5 246.64,-74.5 246.64,-55.25 297.14,-55.25 297.14,-74.5"/>
<text text-anchor="middle" x="271.89" y="-61" font-family="Helvetica,sans-Serif" font-size="10.00">memory</text>
</a>
</g>
</g>
<!-- Node1&#45;&gt;Node6 -->
<g id="edge7_Node000001_Node000006" class="edge">
<title>Node1&#45;&gt;Node6</title>
<g id="a_edge7_Node000001_Node000006"><a xlink:title=" ">
<path fill="none" stroke="#63b8ff" d="M155.6,-110.05C180.8,-100.48 213.36,-88.11 237.61,-78.89"/>
<polygon fill="#63b8ff" stroke="#63b8ff" points="238.6,-82.26 246.7,-75.44 236.11,-75.72 238.6,-82.26"/>
</a>
</g>
</g>
<!-- Node3&#45;&gt;Node2 -->
<g id="edge3_Node000003_Node000002" class="edge">
<title>Node3&#45;&gt;Node2</title>
<g id="a_edge3_Node000003_Node000002"><a xlink:title=" ">
<path fill="none" stroke="#63b8ff" d="M58.89,-55.08C58.89,-48.57 58.89,-39.42 58.89,-31.12"/>
<polygon fill="#63b8ff" stroke="#63b8ff" points="62.39,-31.12 58.89,-21.12 55.39,-31.12 62.39,-31.12"/>
</a>
</g>
</g>
<!-- Node4&#45;&gt;Node2 -->
<g id="edge6_Node000004_Node000002" class="edge">
<title>Node4&#45;&gt;Node2</title>
<g id="a_edge6_Node000004_Node000002"><a xlink:title=" ">
<path fill="none" stroke="#63b8ff" d="M156.04,-54.84C137.72,-46.5 110.24,-34 89.18,-24.41"/>
<polygon fill="#63b8ff" stroke="#63b8ff" points="90.76,-21.29 80.21,-20.33 87.86,-27.66 90.76,-21.29"/>
</a>
</g>
</g>
<!-- Node5 -->
<g id="Node000005" class="node">
<title>Node5</title>
<g id="a_Node000005"><a xlink:title=" ">
<polygon fill="#e0e0e0" stroke="#999999" points="200.39,-19.25 151.39,-19.25 151.39,0 200.39,0 200.39,-19.25"/>
<text text-anchor="middle" x="175.89" y="-5.75" font-family="Helvetica,sans-Serif" font-size="10.00">QString</text>
</a>
</g>
</g>
<!-- Node4&#45;&gt;Node5 -->
<g id="edge5_Node000004_Node000005" class="edge">
<title>Node4&#45;&gt;Node5</title>
<g id="a_edge5_Node000004_Node000005"><a xlink:title=" ">
<path fill="none" stroke="#63b8ff" d="M175.89,-55.08C175.89,-48.57 175.89,-39.42 175.89,-31.12"/>
<polygon fill="#63b8ff" stroke="#63b8ff" points="179.39,-31.12 175.89,-21.12 172.39,-31.12 179.39,-31.12"/>
</a>
</g>
</g>
</g>
</svg>
