<?xml version="1.0" encoding="UTF-8" standalone="no"?>
<!DOCTYPE svg PUBLIC "-//W3C//DTD SVG 1.1//EN"
 "http://www.w3.org/Graphics/SVG/1.1/DTD/svg11.dtd">
<!-- Generated by graphviz version 9.0.0 (20230911.1827)
 -->
<!-- Title: workspace/albert/include/albert/queryresults.h Pages: 1 -->
<svg width="513pt" height="149pt"
 viewBox="0.00 0.00 513.38 149.00" xmlns="http://www.w3.org/2000/svg" xmlns:xlink="http://www.w3.org/1999/xlink">
<g id="graph0" class="graph" transform="scale(1 1) rotate(0) translate(4 145)">
<title>workspace/albert/include/albert/queryresults.h</title>
<!-- Node1 -->
<g id="Node000001" class="node">
<title>Node1</title>
<g id="a_Node000001"><a xlink:title=" ">
<polygon fill="#999999" stroke="#666666" points="301.75,-141 177.75,-141 177.75,-110.5 301.75,-110.5 301.75,-141"/>
<text text-anchor="start" x="185.75" y="-127.5" font-family="Helvetica,sans-Serif" font-size="10.00">workspace/albert/include</text>
<text text-anchor="middle" x="239.75" y="-116.25" font-family="Helvetica,sans-Serif" font-size="10.00">/albert/queryresults.h</text>
</a>
</g>
</g>
<!-- Node2 -->
<g id="Node000002" class="node">
<title>Node2</title>
<g id="a_Node000002"><a xlink:title=" ">
<polygon fill="#e0e0e0" stroke="#999999" points="85.75,-74.5 33.75,-74.5 33.75,-55.25 85.75,-55.25 85.75,-74.5"/>
<text text-anchor="middle" x="59.75" y="-61" font-family="Helvetica,sans-Serif" font-size="10.00">QObject</text>
</a>
</g>
</g>
<!-- Node1&#45;&gt;Node2 -->
<g id="edge1_Node000001_Node000002" class="edge">
<title>Node1&#45;&gt;Node2</title>
<g id="a_edge1_Node000001_Node000002"><a xlink:title=" ">
<path fill="none" stroke="#63b8ff" d="M194.79,-110.05C164.55,-100.15 125.16,-87.27 96.74,-77.97"/>
<polygon fill="#63b8ff" stroke="#63b8ff" points="98.07,-74.73 87.48,-74.95 95.9,-81.38 98.07,-74.73"/>
</a>
</g>
</g>
<!-- Node3 -->
<g id="Node000003" class="node">
<title>Node3</title>
<g id="a_Node000003"><a xlink:title=" ">
<polygon fill="#e0e0e0" stroke="#999999" points="298.12,-19.25 221.38,-19.25 221.38,0 298.12,0 298.12,-19.25"/>
<text text-anchor="middle" x="259.75" y="-5.75" font-family="Helvetica,sans-Serif" font-size="10.00">albert/export.h</text>
</a>
</g>
</g>
<!-- Node1&#45;&gt;Node3 -->
<g id="edge2_Node000001_Node000003" class="edge">
<title>Node1&#45;&gt;Node3</title>
<g id="a_edge2_Node000001_Node000003"><a xlink:title=" ">
<path fill="none" stroke="#63b8ff" d="M242.28,-110.3C245.81,-90.15 252.23,-53.56 256.22,-30.75"/>
<polygon fill="#63b8ff" stroke="#63b8ff" points="259.62,-31.64 257.9,-21.19 252.73,-30.43 259.62,-31.64"/>
</a>
</g>
</g>
<!-- Node4 -->
<g id="Node000004" class="node">
<title>Node4</title>
<g id="a_Node000004"><a xlink:href="item_8h.html" target="_top" xlink:title=" ">
<polygon fill="white" stroke="#666666" points="173.38,-74.5 104.12,-74.5 104.12,-55.25 173.38,-55.25 173.38,-74.5"/>
<text text-anchor="middle" x="138.75" y="-61" font-family="Helvetica,sans-Serif" font-size="10.00">albert/item.h</text>
</a>
</g>
</g>
<!-- Node1&#45;&gt;Node4 -->
<g id="edge3_Node000001_Node000004" class="edge">
<title>Node1&#45;&gt;Node4</title>
<g id="a_edge3_Node000001_Node000004"><a xlink:title=" ">
<path fill="none" stroke="#63b8ff" d="M214.52,-110.05C199.14,-101.08 179.55,-89.66 164.14,-80.67"/>
<polygon fill="#63b8ff" stroke="#63b8ff" points="165.95,-77.68 155.55,-75.67 162.42,-83.73 165.95,-77.68"/>
</a>
</g>
</g>
<!-- Node7 -->
<g id="Node000007" class="node">
<title>Node7</title>
<g id="a_Node000007"><a xlink:title=" ">
<polygon fill="#e0e0e0" stroke="#999999" points="203.25,-19.25 160.25,-19.25 160.25,0 203.25,0 203.25,-19.25"/>
<text text-anchor="middle" x="181.75" y="-5.75" font-family="Helvetica,sans-Serif" font-size="10.00">vector</text>
</a>
</g>
</g>
<!-- Node1&#45;&gt;Node7 -->
<g id="edge13_Node000001_Node000007" class="edge">
<title>Node1&#45;&gt;Node7</title>
<g id="a_edge13_Node000001_Node000007"><a xlink:title=" ">
<path fill="none" stroke="#63b8ff" d="M232.4,-110.3C222.03,-89.87 203.05,-52.54 191.5,-29.81"/>
<polygon fill="#63b8ff" stroke="#63b8ff" points="194.7,-28.38 187.05,-21.05 188.46,-31.55 194.7,-28.38"/>
</a>
</g>
</g>
<!-- Node8 -->
<g id="Node000008" class="node">
<title>Node8</title>
<g id="a_Node000008"><a xlink:href="querycontext_8h.html" target="_top" xlink:title=" ">
<polygon fill="white" stroke="#666666" points="373.38,-74.5 268.12,-74.5 268.12,-55.25 373.38,-55.25 373.38,-74.5"/>
<text text-anchor="middle" x="320.75" y="-61" font-family="Helvetica,sans-Serif" font-size="10.00">albert/querycontext.h</text>
</a>
</g>
</g>
<!-- Node1&#45;&gt;Node8 -->
<g id="edge8_Node000001_Node000008" class="edge">
<title>Node1&#45;&gt;Node8</title>
<g id="a_edge8_Node000001_Node000008"><a xlink:title=" ">
<path fill="none" stroke="#63b8ff" d="M259.77,-110.2C271.75,-101.49 286.97,-90.43 299.21,-81.53"/>
<polygon fill="#63b8ff" stroke="#63b8ff" points="301.01,-84.55 307.04,-75.84 296.89,-78.89 301.01,-84.55"/>
</a>
</g>
</g>
<!-- Node10 -->
<g id="Node000010" class="node">
<title>Node10</title>
<g id="a_Node000010"><a xlink:title=" ">
<polygon fill="#e0e0e0" stroke="#999999" points="442,-74.5 391.5,-74.5 391.5,-55.25 442,-55.25 442,-74.5"/>
<text text-anchor="middle" x="416.75" y="-61" font-family="Helvetica,sans-Serif" font-size="10.00">memory</text>
</a>
</g>
</g>
<!-- Node1&#45;&gt;Node10 -->
<g id="edge11_Node000001_Node000010" class="edge">
<title>Node1&#45;&gt;Node10</title>
<g id="a_edge11_Node000001_Node000010"><a xlink:title=" ">
<path fill="none" stroke="#63b8ff" d="M283.96,-110.05C313.66,-100.17 352.32,-87.31 380.26,-78.01"/>
<polygon fill="#63b8ff" stroke="#63b8ff" points="381.33,-81.35 389.71,-74.87 379.12,-74.7 381.33,-81.35"/>
</a>
</g>
</g>
<!-- Node11 -->
<g id="Node000011" class="node">
<title>Node11</title>
<g id="a_Node000011"><a xlink:title=" ">
<polygon fill="#e0e0e0" stroke="#999999" points="505.38,-74.5 460.12,-74.5 460.12,-55.25 505.38,-55.25 505.38,-74.5"/>
<text text-anchor="middle" x="482.75" y="-61" font-family="Helvetica,sans-Serif" font-size="10.00">ranges</text>
</a>
</g>
</g>
<!-- Node1&#45;&gt;Node11 -->
<g id="edge12_Node000001_Node000011" class="edge">
<title>Node1&#45;&gt;Node11</title>
<g id="a_edge12_Node000001_Node000011"><a xlink:title=" ">
<path fill="none" stroke="#63b8ff" d="M302.19,-110.39C341.62,-101.2 393.9,-88.81 448.71,-74.96"/>
<polygon fill="#63b8ff" stroke="#63b8ff" points="449.4,-78.4 458.23,-72.55 447.68,-71.61 449.4,-78.4"/>
</a>
</g>
</g>
<!-- Node4&#45;&gt;Node3 -->
<g id="edge5_Node000004_Node000003" class="edge">
<title>Node4&#45;&gt;Node3</title>
<g id="a_edge5_Node000004_Node000003"><a xlink:title=" ">
<path fill="none" stroke="#63b8ff" d="M159.28,-54.84C178.31,-46.47 206.9,-33.88 228.72,-24.28"/>
<polygon fill="#63b8ff" stroke="#63b8ff" points="229.99,-27.54 237.74,-20.31 227.18,-21.14 229.99,-27.54"/>
</a>
</g>
</g>
<!-- Node5 -->
<g id="Node000005" class="node">
<title>Node5</title>
<g id="a_Node000005"><a xlink:title=" ">
<polygon fill="#e0e0e0" stroke="#999999" points="65.5,-19.25 0,-19.25 0,0 65.5,0 65.5,-19.25"/>
<text text-anchor="middle" x="32.75" y="-5.75" font-family="Helvetica,sans-Serif" font-size="10.00">QStringList</text>
</a>
</g>
</g>
<!-- Node4&#45;&gt;Node5 -->
<g id="edge4_Node000004_Node000005" class="edge">
<title>Node4&#45;&gt;Node5</title>
<g id="a_edge4_Node000004_Node000005"><a xlink:title=" ">
<path fill="none" stroke="#63b8ff" d="M120.77,-54.84C104.4,-46.62 79.96,-34.34 60.99,-24.81"/>
<polygon fill="#63b8ff" stroke="#63b8ff" points="62.68,-21.74 52.17,-20.38 59.54,-28 62.68,-21.74"/>
</a>
</g>
</g>
<!-- Node6 -->
<g id="Node000006" class="node">
<title>Node6</title>
<g id="a_Node000006"><a xlink:title=" ">
<polygon fill="#e0e0e0" stroke="#999999" points="141.75,-19.25 83.75,-19.25 83.75,0 141.75,0 141.75,-19.25"/>
<text text-anchor="middle" x="112.75" y="-5.75" font-family="Helvetica,sans-Serif" font-size="10.00">functional</text>
</a>
</g>
</g>
<!-- Node4&#45;&gt;Node6 -->
<g id="edge6_Node000004_Node000006" class="edge">
<title>Node4&#45;&gt;Node6</title>
<g id="a_edge6_Node000004_Node000006"><a xlink:title=" ">
<path fill="none" stroke="#63b8ff" d="M134.46,-55.08C131.13,-48.26 126.39,-38.56 122.19,-29.95"/>
<polygon fill="#63b8ff" stroke="#63b8ff" points="125.33,-28.42 117.8,-20.97 119.04,-31.49 125.33,-28.42"/>
</a>
</g>
</g>
<!-- Node4&#45;&gt;Node7 -->
<g id="edge7_Node000004_Node000007" class="edge">
<title>Node4&#45;&gt;Node7</title>
<g id="a_edge7_Node000004_Node000007"><a xlink:title=" ">
<path fill="none" stroke="#63b8ff" d="M145.85,-55.08C151.67,-47.88 160.08,-37.46 167.31,-28.51"/>
<polygon fill="#63b8ff" stroke="#63b8ff" points="169.98,-30.77 173.54,-20.79 164.54,-26.37 169.98,-30.77"/>
</a>
</g>
</g>
<!-- Node8&#45;&gt;Node3 -->
<g id="edge10_Node000008_Node000003" class="edge">
<title>Node8&#45;&gt;Node3</title>
<g id="a_edge10_Node000008_Node000003"><a xlink:title=" ">
<path fill="none" stroke="#63b8ff" d="M310.4,-54.84C301.67,-47.22 288.96,-36.12 278.45,-26.95"/>
<polygon fill="#63b8ff" stroke="#63b8ff" points="280.92,-24.46 271.09,-20.52 276.32,-29.73 280.92,-24.46"/>
</a>
</g>
</g>
<!-- Node9 -->
<g id="Node000009" class="node">
<title>Node9</title>
<g id="a_Node000009"><a xlink:title=" ">
<polygon fill="#e0e0e0" stroke="#999999" points="365.25,-19.25 316.25,-19.25 316.25,0 365.25,0 365.25,-19.25"/>
<text text-anchor="middle" x="340.75" y="-5.75" font-family="Helvetica,sans-Serif" font-size="10.00">QString</text>
</a>
</g>
</g>
<!-- Node8&#45;&gt;Node9 -->
<g id="edge9_Node000008_Node000009" class="edge">
<title>Node8&#45;&gt;Node9</title>
<g id="a_edge9_Node000008_Node000009"><a xlink:title=" ">
<path fill="none" stroke="#63b8ff" d="M324.05,-55.08C326.58,-48.34 330.18,-38.77 333.38,-30.24"/>
<polygon fill="#63b8ff" stroke="#63b8ff" points="336.6,-31.62 336.84,-21.03 330.05,-29.16 336.6,-31.62"/>
</a>
</g>
</g>
</g>
</svg>
