<?xml version="1.0" encoding="UTF-8" standalone="no"?>
<!DOCTYPE svg PUBLIC "-//W3C//DTD SVG 1.1//EN"
 "http://www.w3.org/Graphics/SVG/1.1/DTD/svg11.dtd">
<!-- Generated by graphviz version 9.0.0 (20230911.1827)
 -->
<!-- Title: workspace/albert/include/albert/queryexecution.h Pages: 1 -->
<svg width="492pt" height="204pt"
 viewBox="0.00 0.00 491.66 204.25" xmlns="http://www.w3.org/2000/svg" xmlns:xlink="http://www.w3.org/1999/xlink">
<g id="graph0" class="graph" transform="scale(1 1) rotate(0) translate(4 200.25)">
<title>workspace/albert/include/albert/queryexecution.h</title>
<!-- Node1 -->
<g id="Node000001" class="node">
<title>Node1</title>
<g id="a_Node000001"><a xlink:title=" ">
<polygon fill="#999999" stroke="#666666" points="261,-196.25 137,-196.25 137,-165.75 261,-165.75 261,-196.25"/>
<text text-anchor="start" x="145" y="-182.75" font-family="Helvetica,sans-Serif" font-size="10.00">workspace/albert/include</text>
<text text-anchor="middle" x="199" y="-171.5" font-family="Helvetica,sans-Serif" font-size="10.00">/albert/queryexecution.h</text>
</a>
</g>
</g>
<!-- Node2 -->
<g id="Node000002" class="node">
<title>Node2</title>
<g id="a_Node000002"><a xlink:title=" ">
<polygon fill="#e0e0e0" stroke="#999999" points="52,-74.5 0,-74.5 0,-55.25 52,-55.25 52,-74.5"/>
<text text-anchor="middle" x="26" y="-61" font-family="Helvetica,sans-Serif" font-size="10.00">QObject</text>
</a>
</g>
</g>
<!-- Node1&#45;&gt;Node2 -->
<g id="edge1_Node000001_Node000002" class="edge">
<title>Node1&#45;&gt;Node2</title>
<g id="a_edge1_Node000001_Node000002"><a xlink:title=" ">
<path fill="none" stroke="#63b8ff" d="M176.74,-165.31C143.82,-143.6 82.47,-103.13 49.09,-81.11"/>
<polygon fill="#63b8ff" stroke="#63b8ff" points="51.23,-78.32 40.95,-75.74 47.37,-84.17 51.23,-78.32"/>
</a>
</g>
</g>
<!-- Node3 -->
<g id="Node000003" class="node">
<title>Node3</title>
<g id="a_Node000003"><a xlink:title=" ">
<polygon fill="#e0e0e0" stroke="#999999" points="397.38,-19.25 320.62,-19.25 320.62,0 397.38,0 397.38,-19.25"/>
<text text-anchor="middle" x="359" y="-5.75" font-family="Helvetica,sans-Serif" font-size="10.00">albert/export.h</text>
</a>
</g>
</g>
<!-- Node1&#45;&gt;Node3 -->
<g id="edge2_Node000001_Node000003" class="edge">
<title>Node1&#45;&gt;Node3</title>
<g id="a_edge2_Node000001_Node000003"><a xlink:title=" ">
<path fill="none" stroke="#63b8ff" d="M261.41,-176.31C328.15,-168.65 430.97,-145.29 480,-74.5 484.87,-67.47 484.89,-62.27 480,-55.25 471.34,-42.83 438.07,-31.08 408.6,-22.76"/>
<polygon fill="#63b8ff" stroke="#63b8ff" points="409.58,-19.4 399.01,-20.14 407.74,-26.15 409.58,-19.4"/>
</a>
</g>
</g>
<!-- Node4 -->
<g id="Node000004" class="node">
<title>Node4</title>
<g id="a_Node000004"><a xlink:href="queryresults_8h.html" target="_top" xlink:title=" ">
<polygon fill="white" stroke="#666666" points="250.5,-129.75 147.5,-129.75 147.5,-110.5 250.5,-110.5 250.5,-129.75"/>
<text text-anchor="middle" x="199" y="-116.25" font-family="Helvetica,sans-Serif" font-size="10.00">albert/queryresults.h</text>
</a>
</g>
</g>
<!-- Node1&#45;&gt;Node4 -->
<g id="edge3_Node000001_Node000004" class="edge">
<title>Node1&#45;&gt;Node4</title>
<g id="a_edge3_Node000001_Node000004"><a xlink:title=" ">
<path fill="none" stroke="#63b8ff" d="M199,-165.45C199,-158.21 199,-149.34 199,-141.44"/>
<polygon fill="#63b8ff" stroke="#63b8ff" points="202.5,-141.71 199,-131.71 195.5,-141.71 202.5,-141.71"/>
</a>
</g>
</g>
<!-- Node4&#45;&gt;Node2 -->
<g id="edge4_Node000004_Node000002" class="edge">
<title>Node4&#45;&gt;Node2</title>
<g id="a_edge4_Node000004_Node000002"><a xlink:title=" ">
<path fill="none" stroke="#63b8ff" d="M169.65,-110.09C140.25,-101.04 94.89,-87.08 63.03,-77.27"/>
<polygon fill="#63b8ff" stroke="#63b8ff" points="64.4,-74.03 53.81,-74.44 62.34,-80.72 64.4,-74.03"/>
</a>
</g>
</g>
<!-- Node4&#45;&gt;Node3 -->
<g id="edge5_Node000004_Node000003" class="edge">
<title>Node4&#45;&gt;Node3</title>
<g id="a_edge5_Node000004_Node000003"><a xlink:title=" ">
<path fill="none" stroke="#63b8ff" d="M242.31,-110.04C266.51,-103.32 296.12,-92.18 318,-74.5 332.88,-62.48 344.07,-43.55 350.97,-29.41"/>
<polygon fill="#63b8ff" stroke="#63b8ff" points="353.98,-31.25 354.94,-20.7 347.61,-28.35 353.98,-31.25"/>
</a>
</g>
</g>
<!-- Node5 -->
<g id="Node000005" class="node">
<title>Node5</title>
<g id="a_Node000005"><a xlink:href="item_8h.html" target="_top" xlink:title=" ">
<polygon fill="white" stroke="#666666" points="308.62,-74.5 239.38,-74.5 239.38,-55.25 308.62,-55.25 308.62,-74.5"/>
<text text-anchor="middle" x="274" y="-61" font-family="Helvetica,sans-Serif" font-size="10.00">albert/item.h</text>
</a>
</g>
</g>
<!-- Node4&#45;&gt;Node5 -->
<g id="edge6_Node000004_Node000005" class="edge">
<title>Node4&#45;&gt;Node5</title>
<g id="a_edge6_Node000004_Node000005"><a xlink:title=" ">
<path fill="none" stroke="#63b8ff" d="M211.72,-110.09C222.71,-102.29 238.84,-90.84 251.93,-81.54"/>
<polygon fill="#63b8ff" stroke="#63b8ff" points="253.85,-84.47 259.98,-75.83 249.8,-78.76 253.85,-84.47"/>
</a>
</g>
</g>
<!-- Node8 -->
<g id="Node000008" class="node">
<title>Node8</title>
<g id="a_Node000008"><a xlink:title=" ">
<polygon fill="#e0e0e0" stroke="#999999" points="122.5,-19.25 79.5,-19.25 79.5,0 122.5,0 122.5,-19.25"/>
<text text-anchor="middle" x="101" y="-5.75" font-family="Helvetica,sans-Serif" font-size="10.00">vector</text>
</a>
</g>
</g>
<!-- Node4&#45;&gt;Node8 -->
<g id="edge16_Node000004_Node000008" class="edge">
<title>Node4&#45;&gt;Node8</title>
<g id="a_edge16_Node000004_Node000008"><a xlink:title=" ">
<path fill="none" stroke="#63b8ff" d="M151.98,-110.03C132.1,-103.61 110.85,-92.76 99,-74.5 90.68,-61.67 91.9,-44.15 94.79,-30.7"/>
<polygon fill="#63b8ff" stroke="#63b8ff" points="98.13,-31.77 97.31,-21.2 91.36,-29.97 98.13,-31.77"/>
</a>
</g>
</g>
<!-- Node9 -->
<g id="Node000009" class="node">
<title>Node9</title>
<g id="a_Node000009"><a xlink:href="querycontext_8h.html" target="_top" xlink:title=" ">
<polygon fill="white" stroke="#666666" points="470.62,-74.5 365.38,-74.5 365.38,-55.25 470.62,-55.25 470.62,-74.5"/>
<text text-anchor="middle" x="418" y="-61" font-family="Helvetica,sans-Serif" font-size="10.00">albert/querycontext.h</text>
</a>
</g>
</g>
<!-- Node4&#45;&gt;Node9 -->
<g id="edge11_Node000004_Node000009" class="edge">
<title>Node4&#45;&gt;Node9</title>
<g id="a_edge11_Node000004_Node000009"><a xlink:title=" ">
<path fill="none" stroke="#63b8ff" d="M236.15,-110.09C272.88,-101.16 329.27,-87.45 369.52,-77.66"/>
<polygon fill="#63b8ff" stroke="#63b8ff" points="370.31,-81.07 379.2,-75.31 368.65,-74.27 370.31,-81.07"/>
</a>
</g>
</g>
<!-- Node11 -->
<g id="Node000011" class="node">
<title>Node11</title>
<g id="a_Node000011"><a xlink:title=" ">
<polygon fill="#e0e0e0" stroke="#999999" points="158.25,-74.5 107.75,-74.5 107.75,-55.25 158.25,-55.25 158.25,-74.5"/>
<text text-anchor="middle" x="133" y="-61" font-family="Helvetica,sans-Serif" font-size="10.00">memory</text>
</a>
</g>
</g>
<!-- Node4&#45;&gt;Node11 -->
<g id="edge14_Node000004_Node000011" class="edge">
<title>Node4&#45;&gt;Node11</title>
<g id="a_edge14_Node000004_Node000011"><a xlink:title=" ">
<path fill="none" stroke="#63b8ff" d="M187.8,-110.09C178.26,-102.4 164.33,-91.15 152.89,-81.93"/>
<polygon fill="#63b8ff" stroke="#63b8ff" points="155.19,-79.28 145.21,-75.73 150.79,-84.73 155.19,-79.28"/>
</a>
</g>
</g>
<!-- Node12 -->
<g id="Node000012" class="node">
<title>Node12</title>
<g id="a_Node000012"><a xlink:title=" ">
<polygon fill="#e0e0e0" stroke="#999999" points="221.62,-74.5 176.38,-74.5 176.38,-55.25 221.62,-55.25 221.62,-74.5"/>
<text text-anchor="middle" x="199" y="-61" font-family="Helvetica,sans-Serif" font-size="10.00">ranges</text>
</a>
</g>
</g>
<!-- Node4&#45;&gt;Node12 -->
<g id="edge15_Node000004_Node000012" class="edge">
<title>Node4&#45;&gt;Node12</title>
<g id="a_edge15_Node000004_Node000012"><a xlink:title=" ">
<path fill="none" stroke="#63b8ff" d="M199,-110.33C199,-103.82 199,-94.67 199,-86.37"/>
<polygon fill="#63b8ff" stroke="#63b8ff" points="202.5,-86.37 199,-76.37 195.5,-86.37 202.5,-86.37"/>
</a>
</g>
</g>
<!-- Node5&#45;&gt;Node3 -->
<g id="edge8_Node000005_Node000003" class="edge">
<title>Node5&#45;&gt;Node3</title>
<g id="a_edge8_Node000005_Node000003"><a xlink:title=" ">
<path fill="none" stroke="#63b8ff" d="M288.42,-54.84C301.12,-46.89 319.87,-35.14 334.86,-25.75"/>
<polygon fill="#63b8ff" stroke="#63b8ff" points="336.61,-28.78 343.23,-20.51 332.9,-22.85 336.61,-28.78"/>
</a>
</g>
</g>
<!-- Node6 -->
<g id="Node000006" class="node">
<title>Node6</title>
<g id="a_Node000006"><a xlink:title=" ">
<polygon fill="#e0e0e0" stroke="#999999" points="226.75,-19.25 161.25,-19.25 161.25,0 226.75,0 226.75,-19.25"/>
<text text-anchor="middle" x="194" y="-5.75" font-family="Helvetica,sans-Serif" font-size="10.00">QStringList</text>
</a>
</g>
</g>
<!-- Node5&#45;&gt;Node6 -->
<g id="edge7_Node000005_Node000006" class="edge">
<title>Node5&#45;&gt;Node6</title>
<g id="a_edge7_Node000005_Node000006"><a xlink:title=" ">
<path fill="none" stroke="#63b8ff" d="M260.43,-54.84C248.59,-46.96 231.16,-35.36 217.13,-26.02"/>
<polygon fill="#63b8ff" stroke="#63b8ff" points="219.16,-23.17 208.9,-20.54 215.28,-29 219.16,-23.17"/>
</a>
</g>
</g>
<!-- Node7 -->
<g id="Node000007" class="node">
<title>Node7</title>
<g id="a_Node000007"><a xlink:title=" ">
<polygon fill="#e0e0e0" stroke="#999999" points="303,-19.25 245,-19.25 245,0 303,0 303,-19.25"/>
<text text-anchor="middle" x="274" y="-5.75" font-family="Helvetica,sans-Serif" font-size="10.00">functional</text>
</a>
</g>
</g>
<!-- Node5&#45;&gt;Node7 -->
<g id="edge9_Node000005_Node000007" class="edge">
<title>Node5&#45;&gt;Node7</title>
<g id="a_edge9_Node000005_Node000007"><a xlink:title=" ">
<path fill="none" stroke="#63b8ff" d="M274,-55.08C274,-48.57 274,-39.42 274,-31.12"/>
<polygon fill="#63b8ff" stroke="#63b8ff" points="277.5,-31.12 274,-21.12 270.5,-31.12 277.5,-31.12"/>
</a>
</g>
</g>
<!-- Node5&#45;&gt;Node8 -->
<g id="edge10_Node000005_Node000008" class="edge">
<title>Node5&#45;&gt;Node8</title>
<g id="a_edge10_Node000005_Node000008"><a xlink:title=" ">
<path fill="none" stroke="#63b8ff" d="M244.65,-54.84C213.92,-45.38 165.75,-30.56 133.79,-20.72"/>
<polygon fill="#63b8ff" stroke="#63b8ff" points="134.84,-17.38 124.25,-17.78 132.78,-24.07 134.84,-17.38"/>
</a>
</g>
</g>
<!-- Node9&#45;&gt;Node3 -->
<g id="edge13_Node000009_Node000003" class="edge">
<title>Node9&#45;&gt;Node3</title>
<g id="a_edge13_Node000009_Node000003"><a xlink:title=" ">
<path fill="none" stroke="#63b8ff" d="M407.99,-54.84C399.63,-47.3 387.5,-36.35 377.4,-27.23"/>
<polygon fill="#63b8ff" stroke="#63b8ff" points="379.75,-24.64 369.98,-20.54 375.06,-29.84 379.75,-24.64"/>
</a>
</g>
</g>
<!-- Node10 -->
<g id="Node000010" class="node">
<title>Node10</title>
<g id="a_Node000010"><a xlink:title=" ">
<polygon fill="#e0e0e0" stroke="#999999" points="464.5,-19.25 415.5,-19.25 415.5,0 464.5,0 464.5,-19.25"/>
<text text-anchor="middle" x="440" y="-5.75" font-family="Helvetica,sans-Serif" font-size="10.00">QString</text>
</a>
</g>
</g>
<!-- Node9&#45;&gt;Node10 -->
<g id="edge12_Node000009_Node000010" class="edge">
<title>Node9&#45;&gt;Node10</title>
<g id="a_edge12_Node000009_Node000010"><a xlink:title=" ">
<path fill="none" stroke="#63b8ff" d="M421.63,-55.08C424.42,-48.34 428.37,-38.77 431.9,-30.24"/>
<polygon fill="#63b8ff" stroke="#63b8ff" points="435.13,-31.59 435.71,-21.01 428.66,-28.91 435.13,-31.59"/>
</a>
</g>
</g>
</g>
</svg>
