<?xml version="1.0" encoding="UTF-8" standalone="no"?>
<!DOCTYPE svg PUBLIC "-//W3C//DTD SVG 1.1//EN"
 "http://www.w3.org/Graphics/SVG/1.1/DTD/svg11.dtd">
<!-- Generated by graphviz version 9.0.0 (20230911.1827)
 -->
<!-- Title: workspace/albert/include/albert/query.h Pages: 1 -->
<svg width="143pt" height="238pt"
 viewBox="0.00 0.00 143.25 238.00" xmlns="http://www.w3.org/2000/svg" xmlns:xlink="http://www.w3.org/1999/xlink">
<g id="graph0" class="graph" transform="scale(1 1) rotate(0) translate(4 234)">
<title>workspace/albert/include/albert/query.h</title>
<!-- Node1 -->
<g id="Node000001" class="node">
<title>Node1</title>
<g id="a_Node000001"><a xlink:title=" ">
<polygon fill="#999999" stroke="#666666" points="129.62,-230 5.62,-230 5.62,-199.5 129.62,-199.5 129.62,-230"/>
<text text-anchor="start" x="13.62" y="-216.5" font-family="Helvetica,sans-Serif" font-size="10.00">workspace/albert/include</text>
<text text-anchor="middle" x="67.62" y="-205.25" font-family="Helvetica,sans-Serif" font-size="10.00">/albert/query.h</text>
</a>
</g>
</g>
<!-- Node2 -->
<g id="Node000002" class="node">
<title>Node2</title>
<g id="a_Node000002"><a xlink:href="triggerqueryhandler_8h.html" target="_top" xlink:title=" ">
<polygon fill="white" stroke="#666666" points="135.25,-163.5 0,-163.5 0,-133 135.25,-133 135.25,-163.5"/>
<text text-anchor="start" x="8" y="-150" font-family="Helvetica,sans-Serif" font-size="10.00">workspace/albert/include</text>
<text text-anchor="middle" x="67.62" y="-138.75" font-family="Helvetica,sans-Serif" font-size="10.00">/albert/triggerqueryhandler.h</text>
</a>
</g>
</g>
<!-- Node1&#45;&gt;Node2 -->
<g id="edge1_Node000001_Node000002" class="edge">
<title>Node1&#45;&gt;Node2</title>
<g id="a_edge1_Node000001_Node000002"><a xlink:title=" ">
<path fill="none" stroke="#63b8ff" d="M67.62,-187.81C67.62,-179.64 67.62,-170.91 67.62,-163.83"/>
<polygon fill="#63b8ff" stroke="#63b8ff" points="64.13,-187.6 67.63,-197.6 71.13,-187.6 64.13,-187.6"/>
</a>
</g>
</g>
<!-- Node3 -->
<g id="Node000003" class="node">
<title>Node3</title>
<g id="a_Node000003"><a xlink:href="globalqueryhandler_8h.html" target="_top" xlink:title=" ">
<polygon fill="white" stroke="#666666" points="134.5,-97 0.75,-97 0.75,-66.5 134.5,-66.5 134.5,-97"/>
<text text-anchor="start" x="8.75" y="-83.5" font-family="Helvetica,sans-Serif" font-size="10.00">workspace/albert/include</text>
<text text-anchor="middle" x="67.62" y="-72.25" font-family="Helvetica,sans-Serif" font-size="10.00">/albert/globalqueryhandler.h</text>
</a>
</g>
</g>
<!-- Node2&#45;&gt;Node3 -->
<g id="edge2_Node000002_Node000003" class="edge">
<title>Node2&#45;&gt;Node3</title>
<g id="a_edge2_Node000002_Node000003"><a xlink:title=" ">
<path fill="none" stroke="#63b8ff" d="M67.62,-121.31C67.62,-113.14 67.62,-104.41 67.62,-97.33"/>
<polygon fill="#63b8ff" stroke="#63b8ff" points="64.13,-121.1 67.63,-131.1 71.13,-121.1 64.13,-121.1"/>
</a>
</g>
</g>
<!-- Node4 -->
<g id="Node000004" class="node">
<title>Node4</title>
<g id="a_Node000004"><a xlink:href="indexqueryhandler_8h.html" target="_top" xlink:title=" ">
<polygon fill="white" stroke="#666666" points="133,-30.5 2.25,-30.5 2.25,0 133,0 133,-30.5"/>
<text text-anchor="start" x="10.25" y="-17" font-family="Helvetica,sans-Serif" font-size="10.00">workspace/albert/include</text>
<text text-anchor="middle" x="67.62" y="-5.75" font-family="Helvetica,sans-Serif" font-size="10.00">/albert/indexqueryhandler.h</text>
</a>
</g>
</g>
<!-- Node3&#45;&gt;Node4 -->
<g id="edge3_Node000003_Node000004" class="edge">
<title>Node3&#45;&gt;Node4</title>
<g id="a_edge3_Node000003_Node000004"><a xlink:title=" ">
<path fill="none" stroke="#63b8ff" d="M67.62,-54.81C67.62,-46.64 67.62,-37.91 67.62,-30.83"/>
<polygon fill="#63b8ff" stroke="#63b8ff" points="64.13,-54.6 67.63,-64.6 71.13,-54.6 64.13,-54.6"/>
</a>
</g>
</g>
</g>
</svg>
