<?xml version="1.0" encoding="UTF-8" standalone="no"?>
<!DOCTYPE svg PUBLIC "-//W3C//DTD SVG 1.1//EN"
 "http://www.w3.org/Graphics/SVG/1.1/DTD/svg11.dtd">
<!-- Generated by graphviz version 9.0.0 (20230911.1827)
 -->
<!-- Title: workspace/albert/include/albert/query.h Pages: 1 -->
<svg width="474pt" height="94pt"
 viewBox="0.00 0.00 474.00 93.75" xmlns="http://www.w3.org/2000/svg" xmlns:xlink="http://www.w3.org/1999/xlink">
<g id="graph0" class="graph" transform="scale(1 1) rotate(0) translate(4 89.75)">
<title>workspace/albert/include/albert/query.h</title>
<!-- Node1 -->
<g id="Node000001" class="node">
<title>Node1</title>
<g id="a_Node000001"><a xlink:title=" ">
<polygon fill="#999999" stroke="#666666" points="318.5,-85.75 194.5,-85.75 194.5,-55.25 318.5,-55.25 318.5,-85.75"/>
<text text-anchor="start" x="202.5" y="-72.25" font-family="Helvetica,sans-Serif" font-size="10.00">workspace/albert/include</text>
<text text-anchor="middle" x="256.5" y="-61" font-family="Helvetica,sans-Serif" font-size="10.00">/albert/query.h</text>
</a>
</g>
</g>
<!-- Node2 -->
<g id="Node000002" class="node">
<title>Node2</title>
<g id="a_Node000002"><a xlink:title=" ">
<polygon fill="#e0e0e0" stroke="#999999" points="103,-19.25 0,-19.25 0,0 103,0 103,-19.25"/>
<text text-anchor="middle" x="51.5" y="-5.75" font-family="Helvetica,sans-Serif" font-size="10.00">QAbstractListModel</text>
</a>
</g>
</g>
<!-- Node1&#45;&gt;Node2 -->
<g id="edge1_Node000001_Node000002" class="edge">
<title>Node1&#45;&gt;Node2</title>
<g id="a_edge1_Node000001_Node000002"><a xlink:title=" ">
<path fill="none" stroke="#63b8ff" d="M205.3,-54.8C171.03,-44.95 126.46,-32.15 94.13,-22.87"/>
<polygon fill="#63b8ff" stroke="#63b8ff" points="95.27,-19.55 84.7,-20.16 93.34,-26.28 95.27,-19.55"/>
</a>
</g>
</g>
<!-- Node3 -->
<g id="Node000003" class="node">
<title>Node3</title>
<g id="a_Node000003"><a xlink:title=" ">
<polygon fill="#e0e0e0" stroke="#999999" points="173.5,-19.25 121.5,-19.25 121.5,0 173.5,0 173.5,-19.25"/>
<text text-anchor="middle" x="147.5" y="-5.75" font-family="Helvetica,sans-Serif" font-size="10.00">QObject</text>
</a>
</g>
</g>
<!-- Node1&#45;&gt;Node3 -->
<g id="edge2_Node000001_Node000003" class="edge">
<title>Node1&#45;&gt;Node3</title>
<g id="a_edge2_Node000001_Node000003"><a xlink:title=" ">
<path fill="none" stroke="#63b8ff" d="M229.28,-54.8C212.36,-45.66 190.71,-33.97 173.94,-24.91"/>
<polygon fill="#63b8ff" stroke="#63b8ff" points="176.01,-22.05 165.55,-20.37 172.68,-28.21 176.01,-22.05"/>
</a>
</g>
</g>
<!-- Node4 -->
<g id="Node000004" class="node">
<title>Node4</title>
<g id="a_Node000004"><a xlink:title=" ">
<polygon fill="#e0e0e0" stroke="#999999" points="241,-19.25 192,-19.25 192,0 241,0 241,-19.25"/>
<text text-anchor="middle" x="216.5" y="-5.75" font-family="Helvetica,sans-Serif" font-size="10.00">QString</text>
</a>
</g>
</g>
<!-- Node1&#45;&gt;Node4 -->
<g id="edge3_Node000001_Node000004" class="edge">
<title>Node1&#45;&gt;Node4</title>
<g id="a_edge3_Node000001_Node000004"><a xlink:title=" ">
<path fill="none" stroke="#63b8ff" d="M246.61,-54.95C241.28,-47.1 234.65,-37.35 228.97,-28.99"/>
<polygon fill="#63b8ff" stroke="#63b8ff" points="232.03,-27.26 223.52,-20.95 226.24,-31.19 232.03,-27.26"/>
</a>
</g>
</g>
<!-- Node5 -->
<g id="Node000005" class="node">
<title>Node5</title>
<g id="a_Node000005"><a xlink:title=" ">
<polygon fill="#e0e0e0" stroke="#999999" points="335.88,-19.25 259.12,-19.25 259.12,0 335.88,0 335.88,-19.25"/>
<text text-anchor="middle" x="297.5" y="-5.75" font-family="Helvetica,sans-Serif" font-size="10.00">albert/export.h</text>
</a>
</g>
</g>
<!-- Node1&#45;&gt;Node5 -->
<g id="edge4_Node000001_Node000005" class="edge">
<title>Node1&#45;&gt;Node5</title>
<g id="a_edge4_Node000001_Node000005"><a xlink:title=" ">
<path fill="none" stroke="#63b8ff" d="M266.63,-54.95C272.1,-47.1 278.89,-37.35 284.71,-28.99"/>
<polygon fill="#63b8ff" stroke="#63b8ff" points="287.47,-31.15 290.31,-20.94 281.73,-27.15 287.47,-31.15"/>
</a>
</g>
</g>
<!-- Node6 -->
<g id="Node000006" class="node">
<title>Node6</title>
<g id="a_Node000006"><a xlink:title=" ">
<polygon fill="#e0e0e0" stroke="#999999" points="404.75,-19.25 354.25,-19.25 354.25,0 404.75,0 404.75,-19.25"/>
<text text-anchor="middle" x="379.5" y="-5.75" font-family="Helvetica,sans-Serif" font-size="10.00">memory</text>
</a>
</g>
</g>
<!-- Node1&#45;&gt;Node6 -->
<g id="edge5_Node000001_Node000006" class="edge">
<title>Node1&#45;&gt;Node6</title>
<g id="a_edge5_Node000001_Node000006"><a xlink:title=" ">
<path fill="none" stroke="#63b8ff" d="M287.22,-54.8C306.58,-45.53 331.43,-33.63 350.46,-24.52"/>
<polygon fill="#63b8ff" stroke="#63b8ff" points="351.76,-27.78 359.27,-20.31 348.74,-21.47 351.76,-27.78"/>
</a>
</g>
</g>
<!-- Node7 -->
<g id="Node000007" class="node">
<title>Node7</title>
<g id="a_Node000007"><a xlink:title=" ">
<polygon fill="#e0e0e0" stroke="#999999" points="466,-19.25 423,-19.25 423,0 466,0 466,-19.25"/>
<text text-anchor="middle" x="444.5" y="-5.75" font-family="Helvetica,sans-Serif" font-size="10.00">vector</text>
</a>
</g>
</g>
<!-- Node1&#45;&gt;Node7 -->
<g id="edge6_Node000001_Node000007" class="edge">
<title>Node1&#45;&gt;Node7</title>
<g id="a_edge6_Node000001_Node000007"><a xlink:title=" ">
<path fill="none" stroke="#63b8ff" d="M303.46,-54.8C337.21,-44.22 381.87,-30.24 411.81,-20.86"/>
<polygon fill="#63b8ff" stroke="#63b8ff" points="412.57,-24.29 421.06,-17.96 410.47,-17.61 412.57,-24.29"/>
</a>
</g>
</g>
</g>
</svg>
