<?xml version="1.0" encoding="UTF-8" standalone="no"?>
<!DOCTYPE svg PUBLIC "-//W3C//DTD SVG 1.1//EN"
 "http://www.w3.org/Graphics/SVG/1.1/DTD/svg11.dtd">
<!-- Generated by graphviz version 9.0.0 (20230911.1827)
 -->
<!-- Title: workspace/albert/include/albert/querycontext.h Pages: 1 -->
<svg width="491pt" height="371pt"
 viewBox="0.00 0.00 491.12 371.00" xmlns="http://www.w3.org/2000/svg" xmlns:xlink="http://www.w3.org/1999/xlink">
<g id="graph0" class="graph" transform="scale(1 1) rotate(0) translate(4 367)">
<title>workspace/albert/include/albert/querycontext.h</title>
<!-- Node1 -->
<g id="Node000001" class="node">
<title>Node1</title>
<g id="a_Node000001"><a xlink:title=" ">
<polygon fill="#999999" stroke="#666666" points="329.12,-363 205.12,-363 205.12,-332.5 329.12,-332.5 329.12,-363"/>
<text text-anchor="start" x="213.12" y="-349.5" font-family="Helvetica,sans-Serif" font-size="10.00">workspace/albert/include</text>
<text text-anchor="middle" x="267.12" y="-338.25" font-family="Helvetica,sans-Serif" font-size="10.00">/albert/querycontext.h</text>
</a>
</g>
</g>
<!-- Node2 -->
<g id="Node000002" class="node">
<title>Node2</title>
<g id="a_Node000002"><a xlink:href="query_8h.html" target="_top" xlink:title=" ">
<polygon fill="white" stroke="#666666" points="187.12,-296.5 63.12,-296.5 63.12,-266 187.12,-266 187.12,-296.5"/>
<text text-anchor="start" x="71.12" y="-283" font-family="Helvetica,sans-Serif" font-size="10.00">workspace/albert/include</text>
<text text-anchor="middle" x="125.12" y="-271.75" font-family="Helvetica,sans-Serif" font-size="10.00">/albert/query.h</text>
</a>
</g>
</g>
<!-- Node1&#45;&gt;Node2 -->
<g id="edge1_Node000001_Node000002" class="edge">
<title>Node1&#45;&gt;Node2</title>
<g id="a_edge1_Node000001_Node000002"><a xlink:title=" ">
<path fill="none" stroke="#63b8ff" d="M224.67,-327.47C203.04,-317.64 177.17,-305.89 157.22,-296.83"/>
<polygon fill="#63b8ff" stroke="#63b8ff" points="222.97,-330.54 233.52,-331.49 225.87,-324.17 222.97,-330.54"/>
</a>
</g>
</g>
<!-- Node3 -->
<g id="Node000003" class="node">
<title>Node3</title>
<g id="a_Node000003"><a xlink:href="queryhandler_8h.html" target="_top" xlink:title=" ">
<polygon fill="white" stroke="#666666" points="329.12,-296.5 205.12,-296.5 205.12,-266 329.12,-266 329.12,-296.5"/>
<text text-anchor="start" x="213.12" y="-283" font-family="Helvetica,sans-Serif" font-size="10.00">workspace/albert/include</text>
<text text-anchor="middle" x="267.12" y="-271.75" font-family="Helvetica,sans-Serif" font-size="10.00">/albert/queryhandler.h</text>
</a>
</g>
</g>
<!-- Node1&#45;&gt;Node3 -->
<g id="edge2_Node000001_Node000003" class="edge">
<title>Node1&#45;&gt;Node3</title>
<g id="a_edge2_Node000001_Node000003"><a xlink:title=" ">
<path fill="none" stroke="#63b8ff" d="M267.12,-320.81C267.12,-312.64 267.12,-303.91 267.12,-296.83"/>
<polygon fill="#63b8ff" stroke="#63b8ff" points="263.63,-320.6 267.13,-330.6 270.63,-320.6 263.63,-320.6"/>
</a>
</g>
</g>
<!-- Node9 -->
<g id="Node000009" class="node">
<title>Node9</title>
<g id="a_Node000009"><a xlink:href="queryresults_8h.html" target="_top" xlink:title=" ">
<polygon fill="white" stroke="#666666" points="477.12,-296.5 353.12,-296.5 353.12,-266 477.12,-266 477.12,-296.5"/>
<text text-anchor="start" x="361.12" y="-283" font-family="Helvetica,sans-Serif" font-size="10.00">workspace/albert/include</text>
<text text-anchor="middle" x="415.12" y="-271.75" font-family="Helvetica,sans-Serif" font-size="10.00">/albert/queryresults.h</text>
</a>
</g>
</g>
<!-- Node1&#45;&gt;Node9 -->
<g id="edge8_Node000001_Node000009" class="edge">
<title>Node1&#45;&gt;Node9</title>
<g id="a_edge8_Node000001_Node000009"><a xlink:title=" ">
<path fill="none" stroke="#63b8ff" d="M311.03,-327.62C333.55,-317.8 360.56,-306.03 381.42,-296.94"/>
<polygon fill="#63b8ff" stroke="#63b8ff" points="309.86,-324.31 302.1,-331.51 312.66,-330.72 309.86,-324.31"/>
</a>
</g>
</g>
<!-- Node4 -->
<g id="Node000004" class="node">
<title>Node4</title>
<g id="a_Node000004"><a xlink:href="asyncgeneratorqueryhandler_8h.html" target="_top" xlink:title=" ">
<polygon fill="white" stroke="#666666" points="174.25,-230 0,-230 0,-199.5 174.25,-199.5 174.25,-230"/>
<text text-anchor="start" x="8" y="-216.5" font-family="Helvetica,sans-Serif" font-size="10.00">workspace/albert/include</text>
<text text-anchor="middle" x="87.12" y="-205.25" font-family="Helvetica,sans-Serif" font-size="10.00">/albert/asyncgeneratorqueryhandler.h</text>
</a>
</g>
</g>
<!-- Node3&#45;&gt;Node4 -->
<g id="edge3_Node000003_Node000004" class="edge">
<title>Node3&#45;&gt;Node4</title>
<g id="a_edge3_Node000003_Node000004"><a xlink:title=" ">
<path fill="none" stroke="#63b8ff" d="M215.58,-261.78C187.82,-251.83 154.06,-239.74 128.12,-230.44"/>
<polygon fill="#63b8ff" stroke="#63b8ff" points="214.26,-265.02 224.86,-265.1 216.62,-258.44 214.26,-265.02"/>
</a>
</g>
</g>
<!-- Node5 -->
<g id="Node000005" class="node">
<title>Node5</title>
<g id="a_Node000005"><a xlink:href="generatorqueryhandler_8h.html" target="_top" xlink:title=" ">
<polygon fill="white" stroke="#666666" points="341.5,-230 192.75,-230 192.75,-199.5 341.5,-199.5 341.5,-230"/>
<text text-anchor="start" x="200.75" y="-216.5" font-family="Helvetica,sans-Serif" font-size="10.00">workspace/albert/include</text>
<text text-anchor="middle" x="267.12" y="-205.25" font-family="Helvetica,sans-Serif" font-size="10.00">/albert/generatorqueryhandler.h</text>
</a>
</g>
</g>
<!-- Node3&#45;&gt;Node5 -->
<g id="edge4_Node000003_Node000005" class="edge">
<title>Node3&#45;&gt;Node5</title>
<g id="a_edge4_Node000003_Node000005"><a xlink:title=" ">
<path fill="none" stroke="#63b8ff" d="M267.12,-254.31C267.12,-246.14 267.12,-237.41 267.12,-230.33"/>
<polygon fill="#63b8ff" stroke="#63b8ff" points="263.63,-254.1 267.13,-264.1 270.63,-254.1 263.63,-254.1"/>
</a>
</g>
</g>
<!-- Node6 -->
<g id="Node000006" class="node">
<title>Node6</title>
<g id="a_Node000006"><a xlink:href="rankedqueryhandler_8h.html" target="_top" xlink:title=" ">
<polygon fill="white" stroke="#666666" points="335.88,-163.5 198.38,-163.5 198.38,-133 335.88,-133 335.88,-163.5"/>
<text text-anchor="start" x="206.38" y="-150" font-family="Helvetica,sans-Serif" font-size="10.00">workspace/albert/include</text>
<text text-anchor="middle" x="267.12" y="-138.75" font-family="Helvetica,sans-Serif" font-size="10.00">/albert/rankedqueryhandler.h</text>
</a>
</g>
</g>
<!-- Node5&#45;&gt;Node6 -->
<g id="edge5_Node000005_Node000006" class="edge">
<title>Node5&#45;&gt;Node6</title>
<g id="a_edge5_Node000005_Node000006"><a xlink:title=" ">
<path fill="none" stroke="#63b8ff" d="M267.12,-187.81C267.12,-179.64 267.12,-170.91 267.12,-163.83"/>
<polygon fill="#63b8ff" stroke="#63b8ff" points="263.63,-187.6 267.13,-197.6 270.63,-187.6 263.63,-187.6"/>
</a>
</g>
</g>
<!-- Node7 -->
<g id="Node000007" class="node">
<title>Node7</title>
<g id="a_Node000007"><a xlink:href="globalqueryhandler_8h.html" target="_top" xlink:title=" ">
<polygon fill="white" stroke="#666666" points="334,-97 200.25,-97 200.25,-66.5 334,-66.5 334,-97"/>
<text text-anchor="start" x="208.25" y="-83.5" font-family="Helvetica,sans-Serif" font-size="10.00">workspace/albert/include</text>
<text text-anchor="middle" x="267.12" y="-72.25" font-family="Helvetica,sans-Serif" font-size="10.00">/albert/globalqueryhandler.h</text>
</a>
</g>
</g>
<!-- Node6&#45;&gt;Node7 -->
<g id="edge6_Node000006_Node000007" class="edge">
<title>Node6&#45;&gt;Node7</title>
<g id="a_edge6_Node000006_Node000007"><a xlink:title=" ">
<path fill="none" stroke="#63b8ff" d="M267.12,-121.31C267.12,-113.14 267.12,-104.41 267.12,-97.33"/>
<polygon fill="#63b8ff" stroke="#63b8ff" points="263.63,-121.1 267.13,-131.1 270.63,-121.1 263.63,-121.1"/>
</a>
</g>
</g>
<!-- Node8 -->
<g id="Node000008" class="node">
<title>Node8</title>
<g id="a_Node000008"><a xlink:href="indexqueryhandler_8h.html" target="_top" xlink:title=" ">
<polygon fill="white" stroke="#666666" points="332.5,-30.5 201.75,-30.5 201.75,0 332.5,0 332.5,-30.5"/>
<text text-anchor="start" x="209.75" y="-17" font-family="Helvetica,sans-Serif" font-size="10.00">workspace/albert/include</text>
<text text-anchor="middle" x="267.12" y="-5.75" font-family="Helvetica,sans-Serif" font-size="10.00">/albert/indexqueryhandler.h</text>
</a>
</g>
</g>
<!-- Node7&#45;&gt;Node8 -->
<g id="edge7_Node000007_Node000008" class="edge">
<title>Node7&#45;&gt;Node8</title>
<g id="a_edge7_Node000007_Node000008"><a xlink:title=" ">
<path fill="none" stroke="#63b8ff" d="M267.12,-54.81C267.12,-46.64 267.12,-37.91 267.12,-30.83"/>
<polygon fill="#63b8ff" stroke="#63b8ff" points="263.63,-54.6 267.13,-64.6 270.63,-54.6 263.63,-54.6"/>
</a>
</g>
</g>
<!-- Node10 -->
<g id="Node000010" class="node">
<title>Node10</title>
<g id="a_Node000010"><a xlink:href="queryexecution_8h.html" target="_top" xlink:title=" ">
<polygon fill="white" stroke="#666666" points="483.12,-230 359.12,-230 359.12,-199.5 483.12,-199.5 483.12,-230"/>
<text text-anchor="start" x="367.12" y="-216.5" font-family="Helvetica,sans-Serif" font-size="10.00">workspace/albert/include</text>
<text text-anchor="middle" x="421.12" y="-205.25" font-family="Helvetica,sans-Serif" font-size="10.00">/albert/queryexecution.h</text>
</a>
</g>
</g>
<!-- Node9&#45;&gt;Node10 -->
<g id="edge9_Node000009_Node000010" class="edge">
<title>Node9&#45;&gt;Node10</title>
<g id="a_edge9_Node000009_Node000010"><a xlink:title=" ">
<path fill="none" stroke="#63b8ff" d="M417.54,-254.31C418.3,-246.14 419.11,-237.41 419.77,-230.33"/>
<polygon fill="#63b8ff" stroke="#63b8ff" points="414.07,-253.83 416.63,-264.11 421.04,-254.47 414.07,-253.83"/>
</a>
</g>
</g>
</g>
</svg>
