<?xml version="1.0" encoding="UTF-8" standalone="no"?>
<!DOCTYPE svg PUBLIC "-//W3C//DTD SVG 1.1//EN"
 "http://www.w3.org/Graphics/SVG/1.1/DTD/svg11.dtd">
<!-- Generated by graphviz version 9.0.0 (20230911.1827)
 -->
<!-- Title: workspace/albert/include/albert/rankedqueryhandler.h Pages: 1 -->
<svg width="627pt" height="260pt"
 viewBox="0.00 0.00 627.12 259.50" xmlns="http://www.w3.org/2000/svg" xmlns:xlink="http://www.w3.org/1999/xlink">
<g id="graph0" class="graph" transform="scale(1 1) rotate(0) translate(4 255.5)">
<title>workspace/albert/include/albert/rankedqueryhandler.h</title>
<!-- Node1 -->
<g id="Node000001" class="node">
<title>Node1</title>
<g id="a_Node000001"><a xlink:title=" ">
<polygon fill="#999999" stroke="#666666" points="477.38,-251.5 339.88,-251.5 339.88,-221 477.38,-221 477.38,-251.5"/>
<text text-anchor="start" x="347.88" y="-238" font-family="Helvetica,sans-Serif" font-size="10.00">workspace/albert/include</text>
<text text-anchor="middle" x="408.62" y="-226.75" font-family="Helvetica,sans-Serif" font-size="10.00">/albert/rankedqueryhandler.h</text>
</a>
</g>
</g>
<!-- Node2 -->
<g id="Node000002" class="node">
<title>Node2</title>
<g id="a_Node000002"><a xlink:href="generatorqueryhandler_8h.html" target="_top" xlink:title=" ">
<polygon fill="white" stroke="#666666" points="346.5,-185 200.75,-185 200.75,-165.75 346.5,-165.75 346.5,-185"/>
<text text-anchor="middle" x="273.62" y="-171.5" font-family="Helvetica,sans-Serif" font-size="10.00">albert/generatorqueryhandler.h</text>
</a>
</g>
</g>
<!-- Node1&#45;&gt;Node2 -->
<g id="edge1_Node000001_Node000002" class="edge">
<title>Node1&#45;&gt;Node2</title>
<g id="a_edge1_Node000001_Node000002"><a xlink:title=" ">
<path fill="none" stroke="#63b8ff" d="M374.91,-220.55C353.36,-211.15 325.62,-199.05 304.63,-189.89"/>
<polygon fill="#63b8ff" stroke="#63b8ff" points="306.28,-186.8 295.72,-186.01 303.48,-193.21 306.28,-186.8"/>
</a>
</g>
</g>
<!-- Node9 -->
<g id="Node000009" class="node">
<title>Node9</title>
<g id="a_Node000009"><a xlink:title=" ">
<polygon fill="#e0e0e0" stroke="#999999" points="619.12,-74.5 576.12,-74.5 576.12,-55.25 619.12,-55.25 619.12,-74.5"/>
<text text-anchor="middle" x="597.62" y="-61" font-family="Helvetica,sans-Serif" font-size="10.00">vector</text>
</a>
</g>
</g>
<!-- Node1&#45;&gt;Node9 -->
<g id="edge20_Node000001_Node000009" class="edge">
<title>Node1&#45;&gt;Node9</title>
<g id="a_edge20_Node000001_Node000009"><a xlink:title=" ">
<path fill="none" stroke="#63b8ff" d="M425.07,-220.52C460.17,-189.06 542.25,-115.5 579.12,-82.46"/>
<polygon fill="#63b8ff" stroke="#63b8ff" points="581.22,-85.28 586.33,-76 576.55,-80.06 581.22,-85.28"/>
</a>
</g>
</g>
<!-- Node10 -->
<g id="Node000010" class="node">
<title>Node10</title>
<g id="a_Node000010"><a xlink:href="rankitem_8h.html" target="_top" xlink:title=" ">
<polygon fill="white" stroke="#666666" points="452.62,-185 364.62,-185 364.62,-165.75 452.62,-165.75 452.62,-185"/>
<text text-anchor="middle" x="408.62" y="-171.5" font-family="Helvetica,sans-Serif" font-size="10.00">albert/rankitem.h</text>
</a>
</g>
</g>
<!-- Node1&#45;&gt;Node10 -->
<g id="edge12_Node000001_Node000010" class="edge">
<title>Node1&#45;&gt;Node10</title>
<g id="a_edge12_Node000001_Node000010"><a xlink:title=" ">
<path fill="none" stroke="#63b8ff" d="M408.62,-220.7C408.62,-213.46 408.62,-204.59 408.62,-196.69"/>
<polygon fill="#63b8ff" stroke="#63b8ff" points="412.13,-196.96 408.63,-186.96 405.13,-196.96 412.13,-196.96"/>
</a>
</g>
</g>
<!-- Node3 -->
<g id="Node000003" class="node">
<title>Node3</title>
<g id="a_Node000003"><a xlink:href="queryhandler_8h.html" target="_top" xlink:title=" ">
<polygon fill="white" stroke="#666666" points="245.25,-129.75 140,-129.75 140,-110.5 245.25,-110.5 245.25,-129.75"/>
<text text-anchor="middle" x="192.62" y="-116.25" font-family="Helvetica,sans-Serif" font-size="10.00">albert/queryhandler.h</text>
</a>
</g>
</g>
<!-- Node2&#45;&gt;Node3 -->
<g id="edge2_Node000002_Node000003" class="edge">
<title>Node2&#45;&gt;Node3</title>
<g id="a_edge2_Node000002_Node000003"><a xlink:title=" ">
<path fill="none" stroke="#63b8ff" d="M259.88,-165.34C247.9,-157.46 230.25,-145.86 216.04,-136.52"/>
<polygon fill="#63b8ff" stroke="#63b8ff" points="217.98,-133.6 207.7,-131.03 214.13,-139.45 217.98,-133.6"/>
</a>
</g>
</g>
<!-- Node8 -->
<g id="Node000008" class="node">
<title>Node8</title>
<g id="a_Node000008"><a xlink:title=" ">
<polygon fill="#e0e0e0" stroke="#999999" points="321.88,-74.5 271.38,-74.5 271.38,-55.25 321.88,-55.25 321.88,-74.5"/>
<text text-anchor="middle" x="296.62" y="-61" font-family="Helvetica,sans-Serif" font-size="10.00">memory</text>
</a>
</g>
</g>
<!-- Node2&#45;&gt;Node8 -->
<g id="edge10_Node000002_Node000008" class="edge">
<title>Node2&#45;&gt;Node8</title>
<g id="a_edge10_Node000002_Node000008"><a xlink:title=" ">
<path fill="none" stroke="#63b8ff" d="M275.51,-165.5C279.16,-148.25 287.31,-109.83 292.35,-86.06"/>
<polygon fill="#63b8ff" stroke="#63b8ff" points="295.75,-86.87 294.4,-76.36 288.91,-85.41 295.75,-86.87"/>
</a>
</g>
</g>
<!-- Node2&#45;&gt;Node9 -->
<g id="edge11_Node000002_Node000009" class="edge">
<title>Node2&#45;&gt;Node9</title>
<g id="a_edge11_Node000002_Node000009"><a xlink:title=" ">
<path fill="none" stroke="#63b8ff" d="M346.93,-165.89C390.35,-159.3 445.85,-148.1 492.62,-129.75 523.89,-117.49 556.41,-96.16 576.81,-81.54"/>
<polygon fill="#63b8ff" stroke="#63b8ff" points="578.82,-84.41 584.83,-75.68 574.69,-78.76 578.82,-84.41"/>
</a>
</g>
</g>
<!-- Node4 -->
<g id="Node000004" class="node">
<title>Node4</title>
<g id="a_Node000004"><a xlink:title=" ">
<polygon fill="#e0e0e0" stroke="#999999" points="246,-19.25 169.25,-19.25 169.25,0 246,0 246,-19.25"/>
<text text-anchor="middle" x="207.62" y="-5.75" font-family="Helvetica,sans-Serif" font-size="10.00">albert/export.h</text>
</a>
</g>
</g>
<!-- Node3&#45;&gt;Node4 -->
<g id="edge3_Node000003_Node000004" class="edge">
<title>Node3&#45;&gt;Node4</title>
<g id="a_edge3_Node000003_Node000004"><a xlink:title=" ">
<path fill="none" stroke="#63b8ff" d="M180.19,-110.2C165.09,-98.18 142.78,-75.92 152.62,-55.25 158.46,-43.01 169.46,-33.04 180.11,-25.65"/>
<polygon fill="#63b8ff" stroke="#63b8ff" points="181.79,-28.73 188.35,-20.41 178.03,-22.82 181.79,-28.73"/>
</a>
</g>
</g>
<!-- Node5 -->
<g id="Node000005" class="node">
<title>Node5</title>
<g id="a_Node000005"><a xlink:href="extension_8h.html" target="_top" xlink:title=" ">
<polygon fill="white" stroke="#666666" points="253.5,-74.5 161.75,-74.5 161.75,-55.25 253.5,-55.25 253.5,-74.5"/>
<text text-anchor="middle" x="207.62" y="-61" font-family="Helvetica,sans-Serif" font-size="10.00">albert/extension.h</text>
</a>
</g>
</g>
<!-- Node3&#45;&gt;Node5 -->
<g id="edge4_Node000003_Node000005" class="edge">
<title>Node3&#45;&gt;Node5</title>
<g id="a_edge4_Node000003_Node000005"><a xlink:title=" ">
<path fill="none" stroke="#63b8ff" d="M195.1,-110.33C196.98,-103.67 199.63,-94.24 202.02,-85.78"/>
<polygon fill="#63b8ff" stroke="#63b8ff" points="205.34,-86.89 204.68,-76.32 198.6,-84.99 205.34,-86.89"/>
</a>
</g>
</g>
<!-- Node6 -->
<g id="Node000006" class="node">
<title>Node6</title>
<g id="a_Node000006"><a xlink:href="querycontext_8h.html" target="_top" xlink:title=" ">
<polygon fill="white" stroke="#666666" points="105.25,-74.5 0,-74.5 0,-55.25 105.25,-55.25 105.25,-74.5"/>
<text text-anchor="middle" x="52.62" y="-61" font-family="Helvetica,sans-Serif" font-size="10.00">albert/querycontext.h</text>
</a>
</g>
</g>
<!-- Node3&#45;&gt;Node6 -->
<g id="edge6_Node000003_Node000006" class="edge">
<title>Node3&#45;&gt;Node6</title>
<g id="a_edge6_Node000003_Node000006"><a xlink:title=" ">
<path fill="none" stroke="#63b8ff" d="M168.88,-110.09C146.45,-101.56 112.56,-88.67 87.15,-79.01"/>
<polygon fill="#63b8ff" stroke="#63b8ff" points="88.5,-75.77 77.91,-75.49 86.01,-82.32 88.5,-75.77"/>
</a>
</g>
</g>
<!-- Node3&#45;&gt;Node8 -->
<g id="edge9_Node000003_Node000008" class="edge">
<title>Node3&#45;&gt;Node8</title>
<g id="a_edge9_Node000003_Node000008"><a xlink:title=" ">
<path fill="none" stroke="#63b8ff" d="M210.27,-110.09C226.25,-101.91 250.08,-89.71 268.66,-80.19"/>
<polygon fill="#63b8ff" stroke="#63b8ff" points="270.24,-83.32 277.55,-75.64 267.05,-77.08 270.24,-83.32"/>
</a>
</g>
</g>
<!-- Node5&#45;&gt;Node4 -->
<g id="edge5_Node000005_Node000004" class="edge">
<title>Node5&#45;&gt;Node4</title>
<g id="a_edge5_Node000005_Node000004"><a xlink:title=" ">
<path fill="none" stroke="#63b8ff" d="M207.62,-55.08C207.62,-48.57 207.62,-39.42 207.62,-31.12"/>
<polygon fill="#63b8ff" stroke="#63b8ff" points="211.13,-31.12 207.63,-21.12 204.13,-31.12 211.13,-31.12"/>
</a>
</g>
</g>
<!-- Node6&#45;&gt;Node4 -->
<g id="edge8_Node000006_Node000004" class="edge">
<title>Node6&#45;&gt;Node4</title>
<g id="a_edge8_Node000006_Node000004"><a xlink:title=" ">
<path fill="none" stroke="#63b8ff" d="M78.92,-54.84C104.08,-46.2 142.28,-33.07 170.53,-23.37"/>
<polygon fill="#63b8ff" stroke="#63b8ff" points="171.45,-26.75 179.77,-20.19 169.18,-20.13 171.45,-26.75"/>
</a>
</g>
</g>
<!-- Node7 -->
<g id="Node000007" class="node">
<title>Node7</title>
<g id="a_Node000007"><a xlink:title=" ">
<polygon fill="#e0e0e0" stroke="#999999" points="77.12,-19.25 28.12,-19.25 28.12,0 77.12,0 77.12,-19.25"/>
<text text-anchor="middle" x="52.62" y="-5.75" font-family="Helvetica,sans-Serif" font-size="10.00">QString</text>
</a>
</g>
</g>
<!-- Node6&#45;&gt;Node7 -->
<g id="edge7_Node000006_Node000007" class="edge">
<title>Node6&#45;&gt;Node7</title>
<g id="a_edge7_Node000006_Node000007"><a xlink:title=" ">
<path fill="none" stroke="#63b8ff" d="M52.62,-55.08C52.62,-48.57 52.62,-39.42 52.62,-31.12"/>
<polygon fill="#63b8ff" stroke="#63b8ff" points="56.13,-31.12 52.63,-21.12 49.13,-31.12 56.13,-31.12"/>
</a>
</g>
</g>
<!-- Node10&#45;&gt;Node4 -->
<g id="edge13_Node000010_Node000004" class="edge">
<title>Node10&#45;&gt;Node4</title>
<g id="a_edge13_Node000010_Node000004"><a xlink:title=" ">
<path fill="none" stroke="#63b8ff" d="M405.17,-165.5C396.22,-143.61 370.17,-86.55 330.62,-55.25 309.41,-38.45 281.3,-27.63 257.31,-20.85"/>
<polygon fill="#63b8ff" stroke="#63b8ff" points="258.29,-17.49 247.73,-18.31 256.5,-24.26 258.29,-17.49"/>
</a>
</g>
</g>
<!-- Node10&#45;&gt;Node8 -->
<g id="edge19_Node000010_Node000008" class="edge">
<title>Node10&#45;&gt;Node8</title>
<g id="a_edge19_Node000010_Node000008"><a xlink:title=" ">
<path fill="none" stroke="#63b8ff" d="M388.59,-165.39C372.84,-157.62 351.06,-145.19 335.62,-129.75 322.57,-116.68 311.98,-98.43 305.15,-84.78"/>
<polygon fill="#63b8ff" stroke="#63b8ff" points="308.43,-83.51 300.98,-75.98 302.1,-86.51 308.43,-83.51"/>
</a>
</g>
</g>
<!-- Node11 -->
<g id="Node000011" class="node">
<title>Node11</title>
<g id="a_Node000011"><a xlink:href="item_8h.html" target="_top" xlink:title=" ">
<polygon fill="white" stroke="#666666" points="483.25,-129.75 414,-129.75 414,-110.5 483.25,-110.5 483.25,-129.75"/>
<text text-anchor="middle" x="448.62" y="-116.25" font-family="Helvetica,sans-Serif" font-size="10.00">albert/item.h</text>
</a>
</g>
</g>
<!-- Node10&#45;&gt;Node11 -->
<g id="edge14_Node000010_Node000011" class="edge">
<title>Node10&#45;&gt;Node11</title>
<g id="a_edge14_Node000010_Node000011"><a xlink:title=" ">
<path fill="none" stroke="#63b8ff" d="M415.23,-165.58C420.58,-158.46 428.3,-148.18 434.97,-139.3"/>
<polygon fill="#63b8ff" stroke="#63b8ff" points="437.76,-141.42 440.97,-131.32 432.16,-137.21 437.76,-141.42"/>
</a>
</g>
</g>
<!-- Node11&#45;&gt;Node4 -->
<g id="edge16_Node000011_Node000004" class="edge">
<title>Node11&#45;&gt;Node4</title>
<g id="a_edge16_Node000011_Node000004"><a xlink:title=" ">
<path fill="none" stroke="#63b8ff" d="M439.45,-110.4C424.64,-96.76 394.04,-70.38 363.62,-55.25 329.93,-38.49 288.92,-27.07 257.4,-19.98"/>
<polygon fill="#63b8ff" stroke="#63b8ff" points="258.25,-16.58 247.73,-17.88 256.76,-23.42 258.25,-16.58"/>
</a>
</g>
</g>
<!-- Node11&#45;&gt;Node9 -->
<g id="edge18_Node000011_Node000009" class="edge">
<title>Node11&#45;&gt;Node9</title>
<g id="a_edge18_Node000011_Node000009"><a xlink:title=" ">
<path fill="none" stroke="#63b8ff" d="M473.9,-110.09C499,-101.12 537.6,-87.33 565.01,-77.53"/>
<polygon fill="#63b8ff" stroke="#63b8ff" points="565.97,-80.91 574.2,-74.25 563.61,-74.31 565.97,-80.91"/>
</a>
</g>
</g>
<!-- Node12 -->
<g id="Node000012" class="node">
<title>Node12</title>
<g id="a_Node000012"><a xlink:title=" ">
<polygon fill="#e0e0e0" stroke="#999999" points="481.38,-74.5 415.88,-74.5 415.88,-55.25 481.38,-55.25 481.38,-74.5"/>
<text text-anchor="middle" x="448.62" y="-61" font-family="Helvetica,sans-Serif" font-size="10.00">QStringList</text>
</a>
</g>
</g>
<!-- Node11&#45;&gt;Node12 -->
<g id="edge15_Node000011_Node000012" class="edge">
<title>Node11&#45;&gt;Node12</title>
<g id="a_edge15_Node000011_Node000012"><a xlink:title=" ">
<path fill="none" stroke="#63b8ff" d="M448.62,-110.33C448.62,-103.82 448.62,-94.67 448.62,-86.37"/>
<polygon fill="#63b8ff" stroke="#63b8ff" points="452.13,-86.37 448.63,-76.37 445.13,-86.37 452.13,-86.37"/>
</a>
</g>
</g>
<!-- Node13 -->
<g id="Node000013" class="node">
<title>Node13</title>
<g id="a_Node000013"><a xlink:title=" ">
<polygon fill="#e0e0e0" stroke="#999999" points="557.62,-74.5 499.62,-74.5 499.62,-55.25 557.62,-55.25 557.62,-74.5"/>
<text text-anchor="middle" x="528.62" y="-61" font-family="Helvetica,sans-Serif" font-size="10.00">functional</text>
</a>
</g>
</g>
<!-- Node11&#45;&gt;Node13 -->
<g id="edge17_Node000011_Node000013" class="edge">
<title>Node11&#45;&gt;Node13</title>
<g id="a_edge17_Node000011_Node000013"><a xlink:title=" ">
<path fill="none" stroke="#63b8ff" d="M462.2,-110.09C474.03,-102.21 491.46,-90.61 505.5,-81.27"/>
<polygon fill="#63b8ff" stroke="#63b8ff" points="507.34,-84.25 513.73,-75.79 503.46,-78.42 507.34,-84.25"/>
</a>
</g>
</g>
</g>
</svg>
