<?xml version="1.0" encoding="UTF-8" standalone="no"?>
<!DOCTYPE svg PUBLIC "-//W3C//DTD SVG 1.1//EN"
 "http://www.w3.org/Graphics/SVG/1.1/DTD/svg11.dtd">
<!-- Generated by graphviz version 9.0.0 (20230911.1827)
 -->
<!-- Title: workspace/albert/include/albert/rankitem.h Pages: 1 -->
<svg width="306pt" height="149pt"
 viewBox="0.00 0.00 305.88 149.00" xmlns="http://www.w3.org/2000/svg" xmlns:xlink="http://www.w3.org/1999/xlink">
<g id="graph0" class="graph" transform="scale(1 1) rotate(0) translate(4 145)">
<title>workspace/albert/include/albert/rankitem.h</title>
<!-- Node1 -->
<g id="Node000001" class="node">
<title>Node1</title>
<g id="a_Node000001"><a xlink:title=" ">
<polygon fill="#999999" stroke="#666666" points="189.38,-141 65.38,-141 65.38,-110.5 189.38,-110.5 189.38,-141"/>
<text text-anchor="start" x="73.38" y="-127.5" font-family="Helvetica,sans-Serif" font-size="10.00">workspace/albert/include</text>
<text text-anchor="middle" x="127.38" y="-116.25" font-family="Helvetica,sans-Serif" font-size="10.00">/albert/rankitem.h</text>
</a>
</g>
</g>
<!-- Node2 -->
<g id="Node000002" class="node">
<title>Node2</title>
<g id="a_Node000002"><a xlink:title=" ">
<polygon fill="#e0e0e0" stroke="#999999" points="76.75,-19.25 0,-19.25 0,0 76.75,0 76.75,-19.25"/>
<text text-anchor="middle" x="38.38" y="-5.75" font-family="Helvetica,sans-Serif" font-size="10.00">albert/export.h</text>
</a>
</g>
</g>
<!-- Node1&#45;&gt;Node2 -->
<g id="edge1_Node000001_Node000002" class="edge">
<title>Node1&#45;&gt;Node2</title>
<g id="a_edge1_Node000001_Node000002"><a xlink:title=" ">
<path fill="none" stroke="#63b8ff" d="M113.86,-110.15C104.93,-100.3 93.12,-86.9 83.38,-74.5 71.6,-59.52 59.2,-41.75 50.4,-28.76"/>
<polygon fill="#63b8ff" stroke="#63b8ff" points="53.52,-27.13 45.05,-20.77 47.71,-31.03 53.52,-27.13"/>
</a>
</g>
</g>
<!-- Node3 -->
<g id="Node000003" class="node">
<title>Node3</title>
<g id="a_Node000003"><a xlink:href="item_8h.html" target="_top" xlink:title=" ">
<polygon fill="white" stroke="#666666" points="162,-74.5 92.75,-74.5 92.75,-55.25 162,-55.25 162,-74.5"/>
<text text-anchor="middle" x="127.38" y="-61" font-family="Helvetica,sans-Serif" font-size="10.00">albert/item.h</text>
</a>
</g>
</g>
<!-- Node1&#45;&gt;Node3 -->
<g id="edge2_Node000001_Node000003" class="edge">
<title>Node1&#45;&gt;Node3</title>
<g id="a_edge2_Node000001_Node000003"><a xlink:title=" ">
<path fill="none" stroke="#63b8ff" d="M127.38,-110.2C127.38,-102.96 127.38,-94.09 127.38,-86.19"/>
<polygon fill="#63b8ff" stroke="#63b8ff" points="130.88,-86.46 127.38,-76.46 123.88,-86.46 130.88,-86.46"/>
</a>
</g>
</g>
<!-- Node7 -->
<g id="Node000007" class="node">
<title>Node7</title>
<g id="a_Node000007"><a xlink:title=" ">
<polygon fill="#e0e0e0" stroke="#999999" points="230.62,-74.5 180.12,-74.5 180.12,-55.25 230.62,-55.25 230.62,-74.5"/>
<text text-anchor="middle" x="205.38" y="-61" font-family="Helvetica,sans-Serif" font-size="10.00">memory</text>
</a>
</g>
</g>
<!-- Node1&#45;&gt;Node7 -->
<g id="edge7_Node000001_Node000007" class="edge">
<title>Node1&#45;&gt;Node7</title>
<g id="a_edge7_Node000001_Node000007"><a xlink:title=" ">
<path fill="none" stroke="#63b8ff" d="M146.66,-110.2C158.08,-101.58 172.56,-90.65 184.28,-81.8"/>
<polygon fill="#63b8ff" stroke="#63b8ff" points="186.27,-84.68 192.14,-75.86 182.05,-79.09 186.27,-84.68"/>
</a>
</g>
</g>
<!-- Node3&#45;&gt;Node2 -->
<g id="edge4_Node000003_Node000002" class="edge">
<title>Node3&#45;&gt;Node2</title>
<g id="a_edge4_Node000003_Node000002"><a xlink:title=" ">
<path fill="none" stroke="#63b8ff" d="M112.28,-54.84C98.85,-46.81 78.96,-34.91 63.2,-25.48"/>
<polygon fill="#63b8ff" stroke="#63b8ff" points="65.22,-22.61 54.85,-20.48 61.63,-28.62 65.22,-22.61"/>
</a>
</g>
</g>
<!-- Node4 -->
<g id="Node000004" class="node">
<title>Node4</title>
<g id="a_Node000004"><a xlink:title=" ">
<polygon fill="#e0e0e0" stroke="#999999" points="160.12,-19.25 94.62,-19.25 94.62,0 160.12,0 160.12,-19.25"/>
<text text-anchor="middle" x="127.38" y="-5.75" font-family="Helvetica,sans-Serif" font-size="10.00">QStringList</text>
</a>
</g>
</g>
<!-- Node3&#45;&gt;Node4 -->
<g id="edge3_Node000003_Node000004" class="edge">
<title>Node3&#45;&gt;Node4</title>
<g id="a_edge3_Node000003_Node000004"><a xlink:title=" ">
<path fill="none" stroke="#63b8ff" d="M127.38,-55.08C127.38,-48.57 127.38,-39.42 127.38,-31.12"/>
<polygon fill="#63b8ff" stroke="#63b8ff" points="130.88,-31.12 127.38,-21.12 123.88,-31.12 130.88,-31.12"/>
</a>
</g>
</g>
<!-- Node5 -->
<g id="Node000005" class="node">
<title>Node5</title>
<g id="a_Node000005"><a xlink:title=" ">
<polygon fill="#e0e0e0" stroke="#999999" points="236.38,-19.25 178.38,-19.25 178.38,0 236.38,0 236.38,-19.25"/>
<text text-anchor="middle" x="207.38" y="-5.75" font-family="Helvetica,sans-Serif" font-size="10.00">functional</text>
</a>
</g>
</g>
<!-- Node3&#45;&gt;Node5 -->
<g id="edge5_Node000003_Node000005" class="edge">
<title>Node3&#45;&gt;Node5</title>
<g id="a_edge5_Node000003_Node000005"><a xlink:title=" ">
<path fill="none" stroke="#63b8ff" d="M140.95,-54.84C152.78,-46.96 170.21,-35.36 184.25,-26.02"/>
<polygon fill="#63b8ff" stroke="#63b8ff" points="186.09,-29 192.48,-20.54 182.21,-23.17 186.09,-29"/>
</a>
</g>
</g>
<!-- Node6 -->
<g id="Node000006" class="node">
<title>Node6</title>
<g id="a_Node000006"><a xlink:title=" ">
<polygon fill="#e0e0e0" stroke="#999999" points="297.88,-19.25 254.88,-19.25 254.88,0 297.88,0 297.88,-19.25"/>
<text text-anchor="middle" x="276.38" y="-5.75" font-family="Helvetica,sans-Serif" font-size="10.00">vector</text>
</a>
</g>
</g>
<!-- Node3&#45;&gt;Node6 -->
<g id="edge6_Node000003_Node000006" class="edge">
<title>Node3&#45;&gt;Node6</title>
<g id="a_edge6_Node000003_Node000006"><a xlink:title=" ">
<path fill="none" stroke="#63b8ff" d="M152.65,-54.84C177.75,-45.87 216.35,-32.08 243.76,-22.28"/>
<polygon fill="#63b8ff" stroke="#63b8ff" points="244.72,-25.66 252.95,-19 242.36,-19.06 244.72,-25.66"/>
</a>
</g>
</g>
</g>
</svg>
