<?xml version="1.0" encoding="UTF-8" standalone="no"?>
<!DOCTYPE svg PUBLIC "-//W3C//DTD SVG 1.1//EN"
 "http://www.w3.org/Graphics/SVG/1.1/DTD/svg11.dtd">
<!-- Generated by graphviz version 9.0.0 (20230911.1827)
 -->
<!-- Title: workspace/albert/include/albert/rankitem.h Pages: 1 -->
<svg width="296pt" height="204pt"
 viewBox="0.00 0.00 295.88 204.25" xmlns="http://www.w3.org/2000/svg" xmlns:xlink="http://www.w3.org/1999/xlink">
<g id="graph0" class="graph" transform="scale(1 1) rotate(0) translate(4 200.25)">
<title>workspace/albert/include/albert/rankitem.h</title>
<!-- Node1 -->
<g id="Node000001" class="node">
<title>Node1</title>
<g id="a_Node000001"><a xlink:title=" ">
<polygon fill="#999999" stroke="#666666" points="161.38,-196.25 37.38,-196.25 37.38,-165.75 161.38,-165.75 161.38,-196.25"/>
<text text-anchor="start" x="45.38" y="-182.75" font-family="Helvetica,sans-Serif" font-size="10.00">workspace/albert/include</text>
<text text-anchor="middle" x="99.38" y="-171.5" font-family="Helvetica,sans-Serif" font-size="10.00">/albert/rankitem.h</text>
</a>
</g>
</g>
<!-- Node2 -->
<g id="Node000002" class="node">
<title>Node2</title>
<g id="a_Node000002"><a xlink:title=" ">
<polygon fill="#e0e0e0" stroke="#999999" points="76.75,-19.25 0,-19.25 0,0 76.75,0 76.75,-19.25"/>
<text text-anchor="middle" x="38.38" y="-5.75" font-family="Helvetica,sans-Serif" font-size="10.00">albert/export.h</text>
</a>
</g>
</g>
<!-- Node1&#45;&gt;Node2 -->
<g id="edge1_Node000001_Node000002" class="edge">
<title>Node1&#45;&gt;Node2</title>
<g id="a_edge1_Node000001_Node000002"><a xlink:title=" ">
<path fill="none" stroke="#63b8ff" d="M82.65,-165.33C73.16,-156.08 61.92,-143.33 55.38,-129.75 39.92,-97.69 37.51,-55.54 37.62,-30.93"/>
<polygon fill="#63b8ff" stroke="#63b8ff" points="41.12,-31.11 37.83,-21.03 34.12,-30.96 41.12,-31.11"/>
</a>
</g>
</g>
<!-- Node3 -->
<g id="Node000003" class="node">
<title>Node3</title>
<g id="a_Node000003"><a xlink:href="item_8h.html" target="_top" xlink:title=" ">
<polygon fill="white" stroke="#666666" points="134,-129.75 64.75,-129.75 64.75,-110.5 134,-110.5 134,-129.75"/>
<text text-anchor="middle" x="99.38" y="-116.25" font-family="Helvetica,sans-Serif" font-size="10.00">albert/item.h</text>
</a>
</g>
</g>
<!-- Node1&#45;&gt;Node3 -->
<g id="edge2_Node000001_Node000003" class="edge">
<title>Node1&#45;&gt;Node3</title>
<g id="a_edge2_Node000001_Node000003"><a xlink:title=" ">
<path fill="none" stroke="#63b8ff" d="M99.38,-165.45C99.38,-158.21 99.38,-149.34 99.38,-141.44"/>
<polygon fill="#63b8ff" stroke="#63b8ff" points="102.88,-141.71 99.38,-131.71 95.88,-141.71 102.88,-141.71"/>
</a>
</g>
</g>
<!-- Node9 -->
<g id="Node000009" class="node">
<title>Node9</title>
<g id="a_Node000009"><a xlink:title=" ">
<polygon fill="#e0e0e0" stroke="#999999" points="202.62,-129.75 152.12,-129.75 152.12,-110.5 202.62,-110.5 202.62,-129.75"/>
<text text-anchor="middle" x="177.38" y="-116.25" font-family="Helvetica,sans-Serif" font-size="10.00">memory</text>
</a>
</g>
</g>
<!-- Node1&#45;&gt;Node9 -->
<g id="edge10_Node000001_Node000009" class="edge">
<title>Node1&#45;&gt;Node9</title>
<g id="a_edge10_Node000001_Node000009"><a xlink:title=" ">
<path fill="none" stroke="#63b8ff" d="M118.66,-165.45C130.08,-156.83 144.56,-145.9 156.28,-137.05"/>
<polygon fill="#63b8ff" stroke="#63b8ff" points="158.27,-139.93 164.14,-131.11 154.05,-134.34 158.27,-139.93"/>
</a>
</g>
</g>
<!-- Node3&#45;&gt;Node2 -->
<g id="edge8_Node000003_Node000002" class="edge">
<title>Node3&#45;&gt;Node2</title>
<g id="a_edge8_Node000003_Node000002"><a xlink:title=" ">
<path fill="none" stroke="#63b8ff" d="M88.58,-110.28C79.09,-101.97 65.55,-88.7 57.38,-74.5 49.5,-60.82 44.63,-43.58 41.79,-30.46"/>
<polygon fill="#63b8ff" stroke="#63b8ff" points="45.27,-30.04 39.94,-20.88 38.4,-31.37 45.27,-30.04"/>
</a>
</g>
</g>
<!-- Node4 -->
<g id="Node000004" class="node">
<title>Node4</title>
<g id="a_Node000004"><a xlink:title=" ">
<polygon fill="#e0e0e0" stroke="#999999" points="132.12,-74.5 66.62,-74.5 66.62,-55.25 132.12,-55.25 132.12,-74.5"/>
<text text-anchor="middle" x="99.38" y="-61" font-family="Helvetica,sans-Serif" font-size="10.00">QStringList</text>
</a>
</g>
</g>
<!-- Node3&#45;&gt;Node4 -->
<g id="edge3_Node000003_Node000004" class="edge">
<title>Node3&#45;&gt;Node4</title>
<g id="a_edge3_Node000003_Node000004"><a xlink:title=" ">
<path fill="none" stroke="#63b8ff" d="M99.38,-110.33C99.38,-103.82 99.38,-94.67 99.38,-86.37"/>
<polygon fill="#63b8ff" stroke="#63b8ff" points="102.88,-86.37 99.38,-76.37 95.88,-86.37 102.88,-86.37"/>
</a>
</g>
</g>
<!-- Node5 -->
<g id="Node000005" class="node">
<title>Node5</title>
<g id="a_Node000005"><a xlink:href="action_8h.html" target="_top" xlink:title=" ">
<polygon fill="white" stroke="#666666" points="226.75,-74.5 150,-74.5 150,-55.25 226.75,-55.25 226.75,-74.5"/>
<text text-anchor="middle" x="188.38" y="-61" font-family="Helvetica,sans-Serif" font-size="10.00">albert/action.h</text>
</a>
</g>
</g>
<!-- Node3&#45;&gt;Node5 -->
<g id="edge4_Node000003_Node000005" class="edge">
<title>Node3&#45;&gt;Node5</title>
<g id="a_edge4_Node000003_Node000005"><a xlink:title=" ">
<path fill="none" stroke="#63b8ff" d="M114.47,-110.09C127.9,-102.06 147.79,-90.16 163.55,-80.73"/>
<polygon fill="#63b8ff" stroke="#63b8ff" points="165.12,-83.87 171.9,-75.73 161.53,-77.86 165.12,-83.87"/>
</a>
</g>
</g>
<!-- Node8 -->
<g id="Node000008" class="node">
<title>Node8</title>
<g id="a_Node000008"><a xlink:title=" ">
<polygon fill="#e0e0e0" stroke="#999999" points="287.88,-74.5 244.88,-74.5 244.88,-55.25 287.88,-55.25 287.88,-74.5"/>
<text text-anchor="middle" x="266.38" y="-61" font-family="Helvetica,sans-Serif" font-size="10.00">vector</text>
</a>
</g>
</g>
<!-- Node3&#45;&gt;Node8 -->
<g id="edge9_Node000003_Node000008" class="edge">
<title>Node3&#45;&gt;Node8</title>
<g id="a_edge9_Node000003_Node000008"><a xlink:title=" ">
<path fill="none" stroke="#63b8ff" d="M127.7,-110.09C157.13,-100.71 203.09,-86.05 233.95,-76.21"/>
<polygon fill="#63b8ff" stroke="#63b8ff" points="234.67,-79.66 243.13,-73.29 232.54,-72.99 234.67,-79.66"/>
</a>
</g>
</g>
<!-- Node5&#45;&gt;Node2 -->
<g id="edge6_Node000005_Node000002" class="edge">
<title>Node5&#45;&gt;Node2</title>
<g id="a_edge6_Node000005_Node000002"><a xlink:title=" ">
<path fill="none" stroke="#63b8ff" d="M162.93,-54.84C138.69,-46.24 101.94,-33.19 74.64,-23.5"/>
<polygon fill="#63b8ff" stroke="#63b8ff" points="75.97,-20.26 65.37,-20.21 73.62,-26.85 75.97,-20.26"/>
</a>
</g>
</g>
<!-- Node6 -->
<g id="Node000006" class="node">
<title>Node6</title>
<g id="a_Node000006"><a xlink:title=" ">
<polygon fill="#e0e0e0" stroke="#999999" points="177.88,-19.25 128.88,-19.25 128.88,0 177.88,0 177.88,-19.25"/>
<text text-anchor="middle" x="153.38" y="-5.75" font-family="Helvetica,sans-Serif" font-size="10.00">QString</text>
</a>
</g>
</g>
<!-- Node5&#45;&gt;Node6 -->
<g id="edge5_Node000005_Node000006" class="edge">
<title>Node5&#45;&gt;Node6</title>
<g id="a_edge5_Node000005_Node000006"><a xlink:title=" ">
<path fill="none" stroke="#63b8ff" d="M182.6,-55.08C177.96,-48.03 171.3,-37.9 165.51,-29.08"/>
<polygon fill="#63b8ff" stroke="#63b8ff" points="168.53,-27.31 160.11,-20.87 162.68,-31.15 168.53,-27.31"/>
</a>
</g>
</g>
<!-- Node7 -->
<g id="Node000007" class="node">
<title>Node7</title>
<g id="a_Node000007"><a xlink:title=" ">
<polygon fill="#e0e0e0" stroke="#999999" points="254.38,-19.25 196.38,-19.25 196.38,0 254.38,0 254.38,-19.25"/>
<text text-anchor="middle" x="225.38" y="-5.75" font-family="Helvetica,sans-Serif" font-size="10.00">functional</text>
</a>
</g>
</g>
<!-- Node5&#45;&gt;Node7 -->
<g id="edge7_Node000005_Node000007" class="edge">
<title>Node5&#45;&gt;Node7</title>
<g id="a_edge7_Node000005_Node000007"><a xlink:title=" ">
<path fill="none" stroke="#63b8ff" d="M194.48,-55.08C199.44,-47.96 206.58,-37.68 212.75,-28.8"/>
<polygon fill="#63b8ff" stroke="#63b8ff" points="215.44,-31.06 218.27,-20.85 209.69,-27.07 215.44,-31.06"/>
</a>
</g>
</g>
</g>
</svg>
