<?xml version="1.0" encoding="UTF-8" standalone="no"?>
<!DOCTYPE svg PUBLIC "-//W3C//DTD SVG 1.1//EN"
 "http://www.w3.org/Graphics/SVG/1.1/DTD/svg11.dtd">
<!-- Generated by graphviz version 9.0.0 (20230911.1827)
 -->
<!-- Title: workspace/albert/include/albert/rankitem.h Pages: 1 -->
<svg width="193pt" height="238pt"
 viewBox="0.00 0.00 192.62 238.00" xmlns="http://www.w3.org/2000/svg" xmlns:xlink="http://www.w3.org/1999/xlink">
<g id="graph0" class="graph" transform="scale(1 1) rotate(0) translate(4 234)">
<title>workspace/albert/include/albert/rankitem.h</title>
<!-- Node1 -->
<g id="Node000001" class="node">
<title>Node1</title>
<g id="a_Node000001"><a xlink:title=" ">
<polygon fill="#999999" stroke="#666666" points="128.88,-230 4.88,-230 4.88,-199.5 128.88,-199.5 128.88,-230"/>
<text text-anchor="start" x="12.88" y="-216.5" font-family="Helvetica,sans-Serif" font-size="10.00">workspace/albert/include</text>
<text text-anchor="middle" x="66.88" y="-205.25" font-family="Helvetica,sans-Serif" font-size="10.00">/albert/rankitem.h</text>
</a>
</g>
</g>
<!-- Node2 -->
<g id="Node000002" class="node">
<title>Node2</title>
<g id="a_Node000002"><a xlink:href="globalqueryhandler_8h.html" target="_top" xlink:title=" ">
<polygon fill="white" stroke="#666666" points="133.75,-97 0,-97 0,-66.5 133.75,-66.5 133.75,-97"/>
<text text-anchor="start" x="8" y="-83.5" font-family="Helvetica,sans-Serif" font-size="10.00">workspace/albert/include</text>
<text text-anchor="middle" x="66.88" y="-72.25" font-family="Helvetica,sans-Serif" font-size="10.00">/albert/globalqueryhandler.h</text>
</a>
</g>
</g>
<!-- Node1&#45;&gt;Node2 -->
<g id="edge1_Node000001_Node000002" class="edge">
<title>Node1&#45;&gt;Node2</title>
<g id="a_edge1_Node000001_Node000002"><a xlink:title=" ">
<path fill="none" stroke="#63b8ff" d="M49.55,-189.63C44.81,-181.69 40.3,-172.57 37.88,-163.5 34.37,-150.41 34.37,-146.09 37.88,-133 41.37,-119.96 49.15,-106.81 55.77,-97.23"/>
<polygon fill="#63b8ff" stroke="#63b8ff" points="46.59,-191.5 54.95,-198 52.47,-187.7 46.59,-191.5"/>
</a>
</g>
</g>
<!-- Node4 -->
<g id="Node000004" class="node">
<title>Node4</title>
<g id="a_Node000004"><a xlink:href="rankedqueryhandler_8h.html" target="_top" xlink:title=" ">
<polygon fill="white" stroke="#666666" points="184.62,-163.5 47.12,-163.5 47.12,-133 184.62,-133 184.62,-163.5"/>
<text text-anchor="start" x="55.12" y="-150" font-family="Helvetica,sans-Serif" font-size="10.00">workspace/albert/include</text>
<text text-anchor="middle" x="115.88" y="-138.75" font-family="Helvetica,sans-Serif" font-size="10.00">/albert/rankedqueryhandler.h</text>
</a>
</g>
</g>
<!-- Node1&#45;&gt;Node4 -->
<g id="edge3_Node000001_Node000004" class="edge">
<title>Node1&#45;&gt;Node4</title>
<g id="a_edge3_Node000001_Node000004"><a xlink:title=" ">
<path fill="none" stroke="#63b8ff" d="M84.86,-190.07C91.54,-181.28 98.92,-171.57 104.8,-163.83"/>
<polygon fill="#63b8ff" stroke="#63b8ff" points="82.17,-187.83 78.91,-197.91 87.75,-192.06 82.17,-187.83"/>
</a>
</g>
</g>
<!-- Node3 -->
<g id="Node000003" class="node">
<title>Node3</title>
<g id="a_Node000003"><a xlink:href="indexqueryhandler_8h.html" target="_top" xlink:title=" ">
<polygon fill="white" stroke="#666666" points="132.25,-30.5 1.5,-30.5 1.5,0 132.25,0 132.25,-30.5"/>
<text text-anchor="start" x="9.5" y="-17" font-family="Helvetica,sans-Serif" font-size="10.00">workspace/albert/include</text>
<text text-anchor="middle" x="66.88" y="-5.75" font-family="Helvetica,sans-Serif" font-size="10.00">/albert/indexqueryhandler.h</text>
</a>
</g>
</g>
<!-- Node2&#45;&gt;Node3 -->
<g id="edge2_Node000002_Node000003" class="edge">
<title>Node2&#45;&gt;Node3</title>
<g id="a_edge2_Node000002_Node000003"><a xlink:title=" ">
<path fill="none" stroke="#63b8ff" d="M66.88,-54.81C66.88,-46.64 66.88,-37.91 66.88,-30.83"/>
<polygon fill="#63b8ff" stroke="#63b8ff" points="63.38,-54.6 66.88,-64.6 70.38,-54.6 63.38,-54.6"/>
</a>
</g>
</g>
<!-- Node4&#45;&gt;Node2 -->
<g id="edge4_Node000004_Node000002" class="edge">
<title>Node4&#45;&gt;Node2</title>
<g id="a_edge4_Node000004_Node000002"><a xlink:title=" ">
<path fill="none" stroke="#63b8ff" d="M97.89,-123.57C91.21,-114.78 83.83,-105.07 77.95,-97.33"/>
<polygon fill="#63b8ff" stroke="#63b8ff" points="95,-125.56 103.84,-131.41 100.58,-121.33 95,-125.56"/>
</a>
</g>
</g>
</g>
</svg>
