<?xml version="1.0" encoding="UTF-8" standalone="no"?>
<!DOCTYPE svg PUBLIC "-//W3C//DTD SVG 1.1//EN"
 "http://www.w3.org/Graphics/SVG/1.1/DTD/svg11.dtd">
<!-- Generated by graphviz version 9.0.0 (20230911.1827)
 -->
<!-- Title: workspace/albert/include/albert/standarditem.h Pages: 1 -->
<svg width="359pt" height="149pt"
 viewBox="0.00 0.00 359.00 149.00" xmlns="http://www.w3.org/2000/svg" xmlns:xlink="http://www.w3.org/1999/xlink">
<g id="graph0" class="graph" transform="scale(1 1) rotate(0) translate(4 145)">
<title>workspace/albert/include/albert/standarditem.h</title>
<!-- Node1 -->
<g id="Node000001" class="node">
<title>Node1</title>
<g id="a_Node000001"><a xlink:title=" ">
<polygon fill="#999999" stroke="#666666" points="334.75,-141 210.75,-141 210.75,-110.5 334.75,-110.5 334.75,-141"/>
<text text-anchor="start" x="218.75" y="-127.5" font-family="Helvetica,sans-Serif" font-size="10.00">workspace/albert/include</text>
<text text-anchor="middle" x="272.75" y="-116.25" font-family="Helvetica,sans-Serif" font-size="10.00">/albert/standarditem.h</text>
</a>
</g>
</g>
<!-- Node2 -->
<g id="Node000002" class="node">
<title>Node2</title>
<g id="a_Node000002"><a xlink:href="item_8h.html" target="_top" xlink:title=" ">
<polygon fill="white" stroke="#666666" points="241.38,-74.5 172.12,-74.5 172.12,-55.25 241.38,-55.25 241.38,-74.5"/>
<text text-anchor="middle" x="206.75" y="-61" font-family="Helvetica,sans-Serif" font-size="10.00">albert/item.h</text>
</a>
</g>
</g>
<!-- Node1&#45;&gt;Node2 -->
<g id="edge1_Node000001_Node000002" class="edge">
<title>Node1&#45;&gt;Node2</title>
<g id="a_edge1_Node000001_Node000002"><a xlink:title=" ">
<path fill="none" stroke="#63b8ff" d="M256.44,-110.2C247.06,-101.84 235.25,-91.3 225.5,-82.6"/>
<polygon fill="#63b8ff" stroke="#63b8ff" points="227.85,-80 218.05,-75.96 223.19,-85.23 227.85,-80"/>
</a>
</g>
</g>
<!-- Node6 -->
<g id="Node000006" class="node">
<title>Node6</title>
<g id="a_Node000006"><a xlink:title=" ">
<polygon fill="#e0e0e0" stroke="#999999" points="297.25,-19.25 254.25,-19.25 254.25,0 297.25,0 297.25,-19.25"/>
<text text-anchor="middle" x="275.75" y="-5.75" font-family="Helvetica,sans-Serif" font-size="10.00">vector</text>
</a>
</g>
</g>
<!-- Node1&#45;&gt;Node6 -->
<g id="edge7_Node000001_Node000006" class="edge">
<title>Node1&#45;&gt;Node6</title>
<g id="a_edge7_Node000001_Node000006"><a xlink:title=" ">
<path fill="none" stroke="#63b8ff" d="M273.13,-110.3C273.66,-90.25 274.61,-53.9 275.21,-31.07"/>
<polygon fill="#63b8ff" stroke="#63b8ff" points="278.71,-31.3 275.47,-21.21 271.71,-31.12 278.71,-31.3"/>
</a>
</g>
</g>
<!-- Node7 -->
<g id="Node000007" class="node">
<title>Node7</title>
<g id="a_Node000007"><a xlink:title=" ">
<polygon fill="#e0e0e0" stroke="#999999" points="351,-74.5 300.5,-74.5 300.5,-55.25 351,-55.25 351,-74.5"/>
<text text-anchor="middle" x="325.75" y="-61" font-family="Helvetica,sans-Serif" font-size="10.00">memory</text>
</a>
</g>
</g>
<!-- Node1&#45;&gt;Node7 -->
<g id="edge6_Node000001_Node000007" class="edge">
<title>Node1&#45;&gt;Node7</title>
<g id="a_edge6_Node000001_Node000007"><a xlink:title=" ">
<path fill="none" stroke="#63b8ff" d="M285.85,-110.2C293.14,-102.09 302.28,-91.95 309.96,-83.41"/>
<polygon fill="#63b8ff" stroke="#63b8ff" points="312.48,-85.85 316.57,-76.08 307.28,-81.17 312.48,-85.85"/>
</a>
</g>
</g>
<!-- Node3 -->
<g id="Node000003" class="node">
<title>Node3</title>
<g id="a_Node000003"><a xlink:title=" ">
<polygon fill="#e0e0e0" stroke="#999999" points="65.5,-19.25 0,-19.25 0,0 65.5,0 65.5,-19.25"/>
<text text-anchor="middle" x="32.75" y="-5.75" font-family="Helvetica,sans-Serif" font-size="10.00">QStringList</text>
</a>
</g>
</g>
<!-- Node2&#45;&gt;Node3 -->
<g id="edge2_Node000002_Node000003" class="edge">
<title>Node2&#45;&gt;Node3</title>
<g id="a_edge2_Node000002_Node000003"><a xlink:title=" ">
<path fill="none" stroke="#63b8ff" d="M177.23,-54.84C148.61,-46.08 104.97,-32.73 73.13,-22.98"/>
<polygon fill="#63b8ff" stroke="#63b8ff" points="74.45,-19.73 63.86,-20.15 72.4,-26.42 74.45,-19.73"/>
</a>
</g>
</g>
<!-- Node4 -->
<g id="Node000004" class="node">
<title>Node4</title>
<g id="a_Node000004"><a xlink:title=" ">
<polygon fill="#e0e0e0" stroke="#999999" points="160.12,-19.25 83.38,-19.25 83.38,0 160.12,0 160.12,-19.25"/>
<text text-anchor="middle" x="121.75" y="-5.75" font-family="Helvetica,sans-Serif" font-size="10.00">albert/export.h</text>
</a>
</g>
</g>
<!-- Node2&#45;&gt;Node4 -->
<g id="edge3_Node000002_Node000004" class="edge">
<title>Node2&#45;&gt;Node4</title>
<g id="a_edge3_Node000002_Node000004"><a xlink:title=" ">
<path fill="none" stroke="#63b8ff" d="M192.33,-54.84C179.63,-46.89 160.88,-35.14 145.89,-25.75"/>
<polygon fill="#63b8ff" stroke="#63b8ff" points="147.85,-22.85 137.52,-20.51 144.14,-28.78 147.85,-22.85"/>
</a>
</g>
</g>
<!-- Node5 -->
<g id="Node000005" class="node">
<title>Node5</title>
<g id="a_Node000005"><a xlink:title=" ">
<polygon fill="#e0e0e0" stroke="#999999" points="235.75,-19.25 177.75,-19.25 177.75,0 235.75,0 235.75,-19.25"/>
<text text-anchor="middle" x="206.75" y="-5.75" font-family="Helvetica,sans-Serif" font-size="10.00">functional</text>
</a>
</g>
</g>
<!-- Node2&#45;&gt;Node5 -->
<g id="edge4_Node000002_Node000005" class="edge">
<title>Node2&#45;&gt;Node5</title>
<g id="a_edge4_Node000002_Node000005"><a xlink:title=" ">
<path fill="none" stroke="#63b8ff" d="M206.75,-55.08C206.75,-48.57 206.75,-39.42 206.75,-31.12"/>
<polygon fill="#63b8ff" stroke="#63b8ff" points="210.25,-31.12 206.75,-21.12 203.25,-31.12 210.25,-31.12"/>
</a>
</g>
</g>
<!-- Node2&#45;&gt;Node6 -->
<g id="edge5_Node000002_Node000006" class="edge">
<title>Node2&#45;&gt;Node6</title>
<g id="a_edge5_Node000002_Node000006"><a xlink:title=" ">
<path fill="none" stroke="#63b8ff" d="M218.45,-54.84C228.53,-47.07 243.29,-35.67 255.31,-26.4"/>
<polygon fill="#63b8ff" stroke="#63b8ff" points="257.24,-29.33 263.02,-20.45 252.96,-23.79 257.24,-29.33"/>
</a>
</g>
</g>
</g>
</svg>
