<?xml version="1.0" encoding="UTF-8" standalone="no"?>
<!DOCTYPE svg PUBLIC "-//W3C//DTD SVG 1.1//EN"
 "http://www.w3.org/Graphics/SVG/1.1/DTD/svg11.dtd">
<!-- Generated by graphviz version 9.0.0 (20230911.1827)
 -->
<!-- Title: workspace/albert/include/albert/standarditem.h Pages: 1 -->
<svg width="276pt" height="204pt"
 viewBox="0.00 0.00 275.75 204.25" xmlns="http://www.w3.org/2000/svg" xmlns:xlink="http://www.w3.org/1999/xlink">
<g id="graph0" class="graph" transform="scale(1 1) rotate(0) translate(4 200.25)">
<title>workspace/albert/include/albert/standarditem.h</title>
<!-- Node1 -->
<g id="Node000001" class="node">
<title>Node1</title>
<g id="a_Node000001"><a xlink:title=" ">
<polygon fill="#999999" stroke="#666666" points="267.75,-196.25 143.75,-196.25 143.75,-165.75 267.75,-165.75 267.75,-196.25"/>
<text text-anchor="start" x="151.75" y="-182.75" font-family="Helvetica,sans-Serif" font-size="10.00">workspace/albert/include</text>
<text text-anchor="middle" x="205.75" y="-171.5" font-family="Helvetica,sans-Serif" font-size="10.00">/albert/standarditem.h</text>
</a>
</g>
</g>
<!-- Node2 -->
<g id="Node000002" class="node">
<title>Node2</title>
<g id="a_Node000002"><a xlink:href="item_8h.html" target="_top" xlink:title=" ">
<polygon fill="white" stroke="#666666" points="209.38,-129.75 140.12,-129.75 140.12,-110.5 209.38,-110.5 209.38,-129.75"/>
<text text-anchor="middle" x="174.75" y="-116.25" font-family="Helvetica,sans-Serif" font-size="10.00">albert/item.h</text>
</a>
</g>
</g>
<!-- Node1&#45;&gt;Node2 -->
<g id="edge1_Node000001_Node000002" class="edge">
<title>Node1&#45;&gt;Node2</title>
<g id="a_edge1_Node000001_Node000002"><a xlink:title=" ">
<path fill="none" stroke="#63b8ff" d="M198.09,-165.45C194.09,-157.86 189.16,-148.49 184.86,-140.32"/>
<polygon fill="#63b8ff" stroke="#63b8ff" points="187.99,-138.76 180.23,-131.54 181.8,-142.02 187.99,-138.76"/>
</a>
</g>
</g>
<!-- Node8 -->
<g id="Node000008" class="node">
<title>Node8</title>
<g id="a_Node000008"><a xlink:title=" ">
<polygon fill="#e0e0e0" stroke="#999999" points="259.25,-74.5 216.25,-74.5 216.25,-55.25 259.25,-55.25 259.25,-74.5"/>
<text text-anchor="middle" x="237.75" y="-61" font-family="Helvetica,sans-Serif" font-size="10.00">vector</text>
</a>
</g>
</g>
<!-- Node1&#45;&gt;Node8 -->
<g id="edge9_Node000001_Node000008" class="edge">
<title>Node1&#45;&gt;Node8</title>
<g id="a_edge9_Node000001_Node000008"><a xlink:title=" ">
<path fill="none" stroke="#63b8ff" d="M209.8,-165.55C215.45,-145.4 225.71,-108.81 232.11,-86"/>
<polygon fill="#63b8ff" stroke="#63b8ff" points="235.47,-86.98 234.8,-76.41 228.73,-85.09 235.47,-86.98"/>
</a>
</g>
</g>
<!-- Node3 -->
<g id="Node000003" class="node">
<title>Node3</title>
<g id="a_Node000003"><a xlink:title=" ">
<polygon fill="#e0e0e0" stroke="#999999" points="65.5,-74.5 0,-74.5 0,-55.25 65.5,-55.25 65.5,-74.5"/>
<text text-anchor="middle" x="32.75" y="-61" font-family="Helvetica,sans-Serif" font-size="10.00">QStringList</text>
</a>
</g>
</g>
<!-- Node2&#45;&gt;Node3 -->
<g id="edge2_Node000002_Node000003" class="edge">
<title>Node2&#45;&gt;Node3</title>
<g id="a_edge2_Node000002_Node000003"><a xlink:title=" ">
<path fill="none" stroke="#63b8ff" d="M150.66,-110.09C127.81,-101.52 93.23,-88.56 67.42,-78.88"/>
<polygon fill="#63b8ff" stroke="#63b8ff" points="68.97,-75.72 58.37,-75.48 66.51,-82.27 68.97,-75.72"/>
</a>
</g>
</g>
<!-- Node4 -->
<g id="Node000004" class="node">
<title>Node4</title>
<g id="a_Node000004"><a xlink:href="action_8h.html" target="_top" xlink:title=" ">
<polygon fill="white" stroke="#666666" points="160.12,-74.5 83.38,-74.5 83.38,-55.25 160.12,-55.25 160.12,-74.5"/>
<text text-anchor="middle" x="121.75" y="-61" font-family="Helvetica,sans-Serif" font-size="10.00">albert/action.h</text>
</a>
</g>
</g>
<!-- Node2&#45;&gt;Node4 -->
<g id="edge3_Node000002_Node000004" class="edge">
<title>Node2&#45;&gt;Node4</title>
<g id="a_edge3_Node000002_Node000004"><a xlink:title=" ">
<path fill="none" stroke="#63b8ff" d="M166,-110.33C158.6,-102.9 147.79,-92.04 138.7,-82.91"/>
<polygon fill="#63b8ff" stroke="#63b8ff" points="141.29,-80.55 131.76,-75.93 136.33,-85.49 141.29,-80.55"/>
</a>
</g>
</g>
<!-- Node6 -->
<g id="Node000006" class="node">
<title>Node6</title>
<g id="a_Node000006"><a xlink:title=" ">
<polygon fill="#e0e0e0" stroke="#999999" points="236.12,-19.25 159.38,-19.25 159.38,0 236.12,0 236.12,-19.25"/>
<text text-anchor="middle" x="197.75" y="-5.75" font-family="Helvetica,sans-Serif" font-size="10.00">albert/export.h</text>
</a>
</g>
</g>
<!-- Node2&#45;&gt;Node6 -->
<g id="edge7_Node000002_Node000006" class="edge">
<title>Node2&#45;&gt;Node6</title>
<g id="a_edge7_Node000002_Node000006"><a xlink:title=" ">
<path fill="none" stroke="#63b8ff" d="M176.63,-110.25C180.29,-93 188.43,-54.58 193.47,-30.81"/>
<polygon fill="#63b8ff" stroke="#63b8ff" points="196.88,-31.62 195.53,-21.11 190.03,-30.16 196.88,-31.62"/>
</a>
</g>
</g>
<!-- Node2&#45;&gt;Node8 -->
<g id="edge8_Node000002_Node000008" class="edge">
<title>Node2&#45;&gt;Node8</title>
<g id="a_edge8_Node000002_Node000008"><a xlink:title=" ">
<path fill="none" stroke="#63b8ff" d="M185.44,-110.09C194.45,-102.47 207.58,-91.37 218.43,-82.2"/>
<polygon fill="#63b8ff" stroke="#63b8ff" points="220.69,-84.88 226.06,-75.75 216.17,-79.53 220.69,-84.88"/>
</a>
</g>
</g>
<!-- Node5 -->
<g id="Node000005" class="node">
<title>Node5</title>
<g id="a_Node000005"><a xlink:title=" ">
<polygon fill="#e0e0e0" stroke="#999999" points="65.25,-19.25 16.25,-19.25 16.25,0 65.25,0 65.25,-19.25"/>
<text text-anchor="middle" x="40.75" y="-5.75" font-family="Helvetica,sans-Serif" font-size="10.00">QString</text>
</a>
</g>
</g>
<!-- Node4&#45;&gt;Node5 -->
<g id="edge4_Node000004_Node000005" class="edge">
<title>Node4&#45;&gt;Node5</title>
<g id="a_edge4_Node000004_Node000005"><a xlink:title=" ">
<path fill="none" stroke="#63b8ff" d="M108.01,-54.84C96.02,-46.96 78.38,-35.36 64.17,-26.02"/>
<polygon fill="#63b8ff" stroke="#63b8ff" points="66.1,-23.1 55.82,-20.53 62.26,-28.95 66.1,-23.1"/>
</a>
</g>
</g>
<!-- Node4&#45;&gt;Node6 -->
<g id="edge5_Node000004_Node000006" class="edge">
<title>Node4&#45;&gt;Node6</title>
<g id="a_edge5_Node000004_Node000006"><a xlink:title=" ">
<path fill="none" stroke="#63b8ff" d="M134.64,-54.84C145.78,-47.04 162.12,-35.59 175.39,-26.29"/>
<polygon fill="#63b8ff" stroke="#63b8ff" points="177.37,-29.18 183.55,-20.57 173.36,-23.44 177.37,-29.18"/>
</a>
</g>
</g>
<!-- Node7 -->
<g id="Node000007" class="node">
<title>Node7</title>
<g id="a_Node000007"><a xlink:title=" ">
<polygon fill="#e0e0e0" stroke="#999999" points="141.75,-19.25 83.75,-19.25 83.75,0 141.75,0 141.75,-19.25"/>
<text text-anchor="middle" x="112.75" y="-5.75" font-family="Helvetica,sans-Serif" font-size="10.00">functional</text>
</a>
</g>
</g>
<!-- Node4&#45;&gt;Node7 -->
<g id="edge6_Node000004_Node000007" class="edge">
<title>Node4&#45;&gt;Node7</title>
<g id="a_edge6_Node000004_Node000007"><a xlink:title=" ">
<path fill="none" stroke="#63b8ff" d="M120.26,-55.08C119.15,-48.49 117.58,-39.21 116.16,-30.82"/>
<polygon fill="#63b8ff" stroke="#63b8ff" points="119.64,-30.38 114.52,-21.1 112.74,-31.55 119.64,-30.38"/>
</a>
</g>
</g>
</g>
</svg>
