<?xml version="1.0" encoding="UTF-8" standalone="no"?>
<!DOCTYPE svg PUBLIC "-//W3C//DTD SVG 1.1//EN"
 "http://www.w3.org/Graphics/SVG/1.1/DTD/svg11.dtd">
<!-- Generated by graphviz version 9.0.0 (20230911.1827)
 -->
<!-- Title: workspace/albert/include/albert/systemutil.h Pages: 1 -->
<svg width="235pt" height="94pt"
 viewBox="0.00 0.00 234.88 93.75" xmlns="http://www.w3.org/2000/svg" xmlns:xlink="http://www.w3.org/1999/xlink">
<g id="graph0" class="graph" transform="scale(1 1) rotate(0) translate(4 89.75)">
<title>workspace/albert/include/albert/systemutil.h</title>
<!-- Node1 -->
<g id="Node000001" class="node">
<title>Node1</title>
<g id="a_Node000001"><a xlink:title=" ">
<polygon fill="#999999" stroke="#666666" points="173.12,-85.75 49.12,-85.75 49.12,-55.25 173.12,-55.25 173.12,-85.75"/>
<text text-anchor="start" x="57.12" y="-72.25" font-family="Helvetica,sans-Serif" font-size="10.00">workspace/albert/include</text>
<text text-anchor="middle" x="111.12" y="-61" font-family="Helvetica,sans-Serif" font-size="10.00">/albert/systemutil.h</text>
</a>
</g>
</g>
<!-- Node2 -->
<g id="Node000002" class="node">
<title>Node2</title>
<g id="a_Node000002"><a xlink:title=" ">
<polygon fill="#e0e0e0" stroke="#999999" points="54.25,-19.25 0,-19.25 0,0 54.25,0 54.25,-19.25"/>
<text text-anchor="middle" x="27.12" y="-5.75" font-family="Helvetica,sans-Serif" font-size="10.00">QtGlobal</text>
</a>
</g>
</g>
<!-- Node1&#45;&gt;Node2 -->
<g id="edge1_Node000001_Node000002" class="edge">
<title>Node1&#45;&gt;Node2</title>
<g id="a_edge1_Node000001_Node000002"><a xlink:title=" ">
<path fill="none" stroke="#63b8ff" d="M90.36,-54.95C77.94,-46.24 62.16,-35.18 49.47,-26.28"/>
<polygon fill="#63b8ff" stroke="#63b8ff" points="51.51,-23.44 41.31,-20.57 47.49,-29.18 51.51,-23.44"/>
</a>
</g>
</g>
<!-- Node3 -->
<g id="Node000003" class="node">
<title>Node3</title>
<g id="a_Node000003"><a xlink:title=" ">
<polygon fill="#e0e0e0" stroke="#999999" points="149.5,-19.25 72.75,-19.25 72.75,0 149.5,0 149.5,-19.25"/>
<text text-anchor="middle" x="111.12" y="-5.75" font-family="Helvetica,sans-Serif" font-size="10.00">albert/export.h</text>
</a>
</g>
</g>
<!-- Node1&#45;&gt;Node3 -->
<g id="edge2_Node000001_Node000003" class="edge">
<title>Node1&#45;&gt;Node3</title>
<g id="a_edge2_Node000001_Node000003"><a xlink:title=" ">
<path fill="none" stroke="#63b8ff" d="M111.12,-54.95C111.12,-47.71 111.12,-38.84 111.12,-30.94"/>
<polygon fill="#63b8ff" stroke="#63b8ff" points="114.63,-31.21 111.13,-21.21 107.63,-31.21 114.63,-31.21"/>
</a>
</g>
</g>
<!-- Node4 -->
<g id="Node000004" class="node">
<title>Node4</title>
<g id="a_Node000004"><a xlink:title=" ">
<polygon fill="#e0e0e0" stroke="#999999" points="226.88,-19.25 167.38,-19.25 167.38,0 226.88,0 226.88,-19.25"/>
<text text-anchor="middle" x="197.12" y="-5.75" font-family="Helvetica,sans-Serif" font-size="10.00">filesystem</text>
</a>
</g>
</g>
<!-- Node1&#45;&gt;Node4 -->
<g id="edge3_Node000001_Node000004" class="edge">
<title>Node1&#45;&gt;Node4</title>
<g id="a_edge3_Node000001_Node000004"><a xlink:title=" ">
<path fill="none" stroke="#63b8ff" d="M132.38,-54.95C145.23,-46.15 161.58,-34.96 174.64,-26.02"/>
<polygon fill="#63b8ff" stroke="#63b8ff" points="176.34,-29.09 182.62,-20.56 172.39,-23.32 176.34,-29.09"/>
</a>
</g>
</g>
</g>
</svg>
