<?xml version="1.0" encoding="UTF-8" standalone="no"?>
<!DOCTYPE svg PUBLIC "-//W3C//DTD SVG 1.1//EN"
 "http://www.w3.org/Graphics/SVG/1.1/DTD/svg11.dtd">
<!-- Generated by graphviz version 9.0.0 (20230911.1827)
 -->
<!-- Title: workspace/albert/include/albert/telemetryprovider.h Pages: 1 -->
<svg width="229pt" height="149pt"
 viewBox="0.00 0.00 229.38 149.00" xmlns="http://www.w3.org/2000/svg" xmlns:xlink="http://www.w3.org/1999/xlink">
<g id="graph0" class="graph" transform="scale(1 1) rotate(0) translate(4 145)">
<title>workspace/albert/include/albert/telemetryprovider.h</title>
<!-- Node1 -->
<g id="Node000001" class="node">
<title>Node1</title>
<g id="a_Node000001"><a xlink:title=" ">
<polygon fill="#999999" stroke="#666666" points="165.38,-141 37.62,-141 37.62,-110.5 165.38,-110.5 165.38,-141"/>
<text text-anchor="start" x="45.62" y="-127.5" font-family="Helvetica,sans-Serif" font-size="10.00">workspace/albert/include</text>
<text text-anchor="middle" x="101.5" y="-116.25" font-family="Helvetica,sans-Serif" font-size="10.00">/albert/telemetryprovider.h</text>
</a>
</g>
</g>
<!-- Node2 -->
<g id="Node000002" class="node">
<title>Node2</title>
<g id="a_Node000002"><a xlink:title=" ">
<polygon fill="#e0e0e0" stroke="#999999" points="73,-74.5 0,-74.5 0,-55.25 73,-55.25 73,-74.5"/>
<text text-anchor="middle" x="36.5" y="-61" font-family="Helvetica,sans-Serif" font-size="10.00">QJsonObject</text>
</a>
</g>
</g>
<!-- Node1&#45;&gt;Node2 -->
<g id="edge1_Node000001_Node000002" class="edge">
<title>Node1&#45;&gt;Node2</title>
<g id="a_edge1_Node000001_Node000002"><a xlink:title=" ">
<path fill="none" stroke="#63b8ff" d="M85.43,-110.2C76.2,-101.84 64.57,-91.3 54.97,-82.6"/>
<polygon fill="#63b8ff" stroke="#63b8ff" points="57.4,-80.09 47.64,-75.97 52.7,-85.27 57.4,-80.09"/>
</a>
</g>
</g>
<!-- Node3 -->
<g id="Node000003" class="node">
<title>Node3</title>
<g id="a_Node000003"><a xlink:title=" ">
<polygon fill="#e0e0e0" stroke="#999999" points="139.88,-19.25 63.12,-19.25 63.12,0 139.88,0 139.88,-19.25"/>
<text text-anchor="middle" x="101.5" y="-5.75" font-family="Helvetica,sans-Serif" font-size="10.00">albert/export.h</text>
</a>
</g>
</g>
<!-- Node1&#45;&gt;Node3 -->
<g id="edge2_Node000001_Node000003" class="edge">
<title>Node1&#45;&gt;Node3</title>
<g id="a_edge2_Node000001_Node000003"><a xlink:title=" ">
<path fill="none" stroke="#63b8ff" d="M101.5,-110.3C101.5,-90.25 101.5,-53.9 101.5,-31.07"/>
<polygon fill="#63b8ff" stroke="#63b8ff" points="105,-31.21 101.5,-21.21 98,-31.21 105,-31.21"/>
</a>
</g>
</g>
<!-- Node4 -->
<g id="Node000004" class="node">
<title>Node4</title>
<g id="a_Node000004"><a xlink:href="extension_8h.html" target="_top" xlink:title=" ">
<polygon fill="white" stroke="#666666" points="221.38,-74.5 129.62,-74.5 129.62,-55.25 221.38,-55.25 221.38,-74.5"/>
<text text-anchor="middle" x="175.5" y="-61" font-family="Helvetica,sans-Serif" font-size="10.00">albert/extension.h</text>
</a>
</g>
</g>
<!-- Node1&#45;&gt;Node4 -->
<g id="edge3_Node000001_Node000004" class="edge">
<title>Node1&#45;&gt;Node4</title>
<g id="a_edge3_Node000001_Node000004"><a xlink:title=" ">
<path fill="none" stroke="#63b8ff" d="M119.79,-110.2C130.52,-101.66 144.09,-90.87 155.15,-82.06"/>
<polygon fill="#63b8ff" stroke="#63b8ff" points="157.26,-84.86 162.91,-75.89 152.9,-79.38 157.26,-84.86"/>
</a>
</g>
</g>
<!-- Node4&#45;&gt;Node3 -->
<g id="edge5_Node000004_Node000003" class="edge">
<title>Node4&#45;&gt;Node3</title>
<g id="a_edge5_Node000004_Node000003"><a xlink:title=" ">
<path fill="none" stroke="#63b8ff" d="M162.95,-54.84C152.04,-46.99 136,-35.45 123.04,-26.12"/>
<polygon fill="#63b8ff" stroke="#63b8ff" points="125.26,-23.41 115.1,-20.41 121.17,-29.09 125.26,-23.41"/>
</a>
</g>
</g>
<!-- Node5 -->
<g id="Node000005" class="node">
<title>Node5</title>
<g id="a_Node000005"><a xlink:title=" ">
<polygon fill="#e0e0e0" stroke="#999999" points="207,-19.25 158,-19.25 158,0 207,0 207,-19.25"/>
<text text-anchor="middle" x="182.5" y="-5.75" font-family="Helvetica,sans-Serif" font-size="10.00">QString</text>
</a>
</g>
</g>
<!-- Node4&#45;&gt;Node5 -->
<g id="edge4_Node000004_Node000005" class="edge">
<title>Node4&#45;&gt;Node5</title>
<g id="a_edge4_Node000004_Node000005"><a xlink:title=" ">
<path fill="none" stroke="#63b8ff" d="M176.66,-55.08C177.52,-48.49 178.74,-39.21 179.84,-30.82"/>
<polygon fill="#63b8ff" stroke="#63b8ff" points="183.29,-31.48 181.12,-21.11 176.35,-30.57 183.29,-31.48"/>
</a>
</g>
</g>
</g>
</svg>
