<?xml version="1.0" encoding="UTF-8" standalone="no"?>
<!DOCTYPE svg PUBLIC "-//W3C//DTD SVG 1.1//EN"
 "http://www.w3.org/Graphics/SVG/1.1/DTD/svg11.dtd">
<!-- Generated by graphviz version 9.0.0 (20230911.1827)
 -->
<!-- Title: workspace/albert/include/albert/triggerqueryhandler.h Pages: 1 -->
<svg width="474pt" height="149pt"
 viewBox="0.00 0.00 473.50 149.00" xmlns="http://www.w3.org/2000/svg" xmlns:xlink="http://www.w3.org/1999/xlink">
<g id="graph0" class="graph" transform="scale(1 1) rotate(0) translate(4 145)">
<title>workspace/albert/include/albert/triggerqueryhandler.h</title>
<!-- Node1 -->
<g id="Node000001" class="node">
<title>Node1</title>
<g id="a_Node000001"><a xlink:title=" ">
<polygon fill="#999999" stroke="#666666" points="213.12,-141 77.88,-141 77.88,-110.5 213.12,-110.5 213.12,-141"/>
<text text-anchor="start" x="85.88" y="-127.5" font-family="Helvetica,sans-Serif" font-size="10.00">workspace/albert/include</text>
<text text-anchor="middle" x="145.5" y="-116.25" font-family="Helvetica,sans-Serif" font-size="10.00">/albert/triggerqueryhandler.h</text>
</a>
</g>
</g>
<!-- Node2 -->
<g id="Node000002" class="node">
<title>Node2</title>
<g id="a_Node000002"><a xlink:href="extension_8h.html" target="_top" xlink:title=" ">
<polygon fill="white" stroke="#666666" points="141.38,-74.5 49.62,-74.5 49.62,-55.25 141.38,-55.25 141.38,-74.5"/>
<text text-anchor="middle" x="95.5" y="-61" font-family="Helvetica,sans-Serif" font-size="10.00">albert/extension.h</text>
</a>
</g>
</g>
<!-- Node1&#45;&gt;Node2 -->
<g id="edge1_Node000001_Node000002" class="edge">
<title>Node1&#45;&gt;Node2</title>
<g id="a_edge1_Node000001_Node000002"><a xlink:title=" ">
<path fill="none" stroke="#63b8ff" d="M133.14,-110.2C126.33,-102.18 117.83,-92.17 110.63,-83.69"/>
<polygon fill="#63b8ff" stroke="#63b8ff" points="113.33,-81.46 104.19,-76.1 107.99,-85.99 113.33,-81.46"/>
</a>
</g>
</g>
<!-- Node5 -->
<g id="Node000005" class="node">
<title>Node5</title>
<g id="a_Node000005"><a xlink:href="query_8h.html" target="_top" xlink:title=" ">
<polygon fill="white" stroke="#666666" points="233.38,-74.5 159.62,-74.5 159.62,-55.25 233.38,-55.25 233.38,-74.5"/>
<text text-anchor="middle" x="196.5" y="-61" font-family="Helvetica,sans-Serif" font-size="10.00">albert/query.h</text>
</a>
</g>
</g>
<!-- Node1&#45;&gt;Node5 -->
<g id="edge4_Node000001_Node000005" class="edge">
<title>Node1&#45;&gt;Node5</title>
<g id="a_edge4_Node000001_Node000005"><a xlink:title=" ">
<path fill="none" stroke="#63b8ff" d="M158.11,-110.2C165.13,-102.09 173.91,-91.95 181.31,-83.41"/>
<polygon fill="#63b8ff" stroke="#63b8ff" points="183.74,-85.95 187.65,-76.1 178.45,-81.36 183.74,-85.95"/>
</a>
</g>
</g>
<!-- Node3 -->
<g id="Node000003" class="node">
<title>Node3</title>
<g id="a_Node000003"><a xlink:title=" ">
<polygon fill="#e0e0e0" stroke="#999999" points="49,-19.25 0,-19.25 0,0 49,0 49,-19.25"/>
<text text-anchor="middle" x="24.5" y="-5.75" font-family="Helvetica,sans-Serif" font-size="10.00">QString</text>
</a>
</g>
</g>
<!-- Node2&#45;&gt;Node3 -->
<g id="edge2_Node000002_Node000003" class="edge">
<title>Node2&#45;&gt;Node3</title>
<g id="a_edge2_Node000002_Node000003"><a xlink:title=" ">
<path fill="none" stroke="#63b8ff" d="M83.46,-54.84C73.09,-47.07 57.9,-35.67 45.53,-26.4"/>
<polygon fill="#63b8ff" stroke="#63b8ff" points="47.68,-23.63 37.58,-20.43 43.48,-29.23 47.68,-23.63"/>
</a>
</g>
</g>
<!-- Node4 -->
<g id="Node000004" class="node">
<title>Node4</title>
<g id="a_Node000004"><a xlink:title=" ">
<polygon fill="#e0e0e0" stroke="#999999" points="143.88,-19.25 67.12,-19.25 67.12,0 143.88,0 143.88,-19.25"/>
<text text-anchor="middle" x="105.5" y="-5.75" font-family="Helvetica,sans-Serif" font-size="10.00">albert/export.h</text>
</a>
</g>
</g>
<!-- Node2&#45;&gt;Node4 -->
<g id="edge3_Node000002_Node000004" class="edge">
<title>Node2&#45;&gt;Node4</title>
<g id="a_edge3_Node000002_Node000004"><a xlink:title=" ">
<path fill="none" stroke="#63b8ff" d="M97.15,-55.08C98.39,-48.49 100.13,-39.21 101.71,-30.82"/>
<polygon fill="#63b8ff" stroke="#63b8ff" points="105.13,-31.57 103.53,-21.1 98.25,-30.28 105.13,-31.57"/>
</a>
</g>
</g>
<!-- Node5&#45;&gt;Node3 -->
<g id="edge7_Node000005_Node000003" class="edge">
<title>Node5&#45;&gt;Node3</title>
<g id="a_edge7_Node000005_Node000003"><a xlink:title=" ">
<path fill="none" stroke="#63b8ff" d="M167.32,-54.84C137.79,-45.7 92.07,-31.54 60.34,-21.72"/>
<polygon fill="#63b8ff" stroke="#63b8ff" points="61.38,-18.38 50.79,-18.76 59.31,-25.07 61.38,-18.38"/>
</a>
</g>
</g>
<!-- Node5&#45;&gt;Node4 -->
<g id="edge8_Node000005_Node000004" class="edge">
<title>Node5&#45;&gt;Node4</title>
<g id="a_edge8_Node000005_Node000004"><a xlink:title=" ">
<path fill="none" stroke="#63b8ff" d="M181.06,-54.84C167.34,-46.81 147,-34.91 130.88,-25.48"/>
<polygon fill="#63b8ff" stroke="#63b8ff" points="132.72,-22.5 122.32,-20.47 129.18,-28.54 132.72,-22.5"/>
</a>
</g>
</g>
<!-- Node6 -->
<g id="Node000006" class="node">
<title>Node6</title>
<g id="a_Node000006"><a xlink:title=" ">
<polygon fill="#e0e0e0" stroke="#999999" points="395,-19.25 292,-19.25 292,0 395,0 395,-19.25"/>
<text text-anchor="middle" x="343.5" y="-5.75" font-family="Helvetica,sans-Serif" font-size="10.00">QAbstractListModel</text>
</a>
</g>
</g>
<!-- Node5&#45;&gt;Node6 -->
<g id="edge5_Node000005_Node000006" class="edge">
<title>Node5&#45;&gt;Node6</title>
<g id="a_edge5_Node000005_Node000006"><a xlink:title=" ">
<path fill="none" stroke="#63b8ff" d="M221.44,-54.84C245.19,-46.24 281.21,-33.19 307.96,-23.5"/>
<polygon fill="#63b8ff" stroke="#63b8ff" points="308.81,-26.91 317.02,-20.22 306.42,-20.33 308.81,-26.91"/>
</a>
</g>
</g>
<!-- Node7 -->
<g id="Node000007" class="node">
<title>Node7</title>
<g id="a_Node000007"><a xlink:title=" ">
<polygon fill="#e0e0e0" stroke="#999999" points="465.5,-19.25 413.5,-19.25 413.5,0 465.5,0 465.5,-19.25"/>
<text text-anchor="middle" x="439.5" y="-5.75" font-family="Helvetica,sans-Serif" font-size="10.00">QObject</text>
</a>
</g>
</g>
<!-- Node5&#45;&gt;Node7 -->
<g id="edge6_Node000005_Node000007" class="edge">
<title>Node5&#45;&gt;Node7</title>
<g id="a_edge6_Node000005_Node000007"><a xlink:title=" ">
<path fill="none" stroke="#63b8ff" d="M233.77,-56.23C273.18,-48.08 337.42,-34.56 401.95,-19.79"/>
<polygon fill="#63b8ff" stroke="#63b8ff" points="402.71,-23.2 411.67,-17.55 401.14,-16.38 402.71,-23.2"/>
</a>
</g>
</g>
<!-- Node8 -->
<g id="Node000008" class="node">
<title>Node8</title>
<g id="a_Node000008"><a xlink:title=" ">
<polygon fill="#e0e0e0" stroke="#999999" points="212.75,-19.25 162.25,-19.25 162.25,0 212.75,0 212.75,-19.25"/>
<text text-anchor="middle" x="187.5" y="-5.75" font-family="Helvetica,sans-Serif" font-size="10.00">memory</text>
</a>
</g>
</g>
<!-- Node5&#45;&gt;Node8 -->
<g id="edge9_Node000005_Node000008" class="edge">
<title>Node5&#45;&gt;Node8</title>
<g id="a_edge9_Node000005_Node000008"><a xlink:title=" ">
<path fill="none" stroke="#63b8ff" d="M195.01,-55.08C193.9,-48.49 192.33,-39.21 190.91,-30.82"/>
<polygon fill="#63b8ff" stroke="#63b8ff" points="194.39,-30.38 189.27,-21.1 187.49,-31.55 194.39,-30.38"/>
</a>
</g>
</g>
<!-- Node9 -->
<g id="Node000009" class="node">
<title>Node9</title>
<g id="a_Node000009"><a xlink:title=" ">
<polygon fill="#e0e0e0" stroke="#999999" points="274,-19.25 231,-19.25 231,0 274,0 274,-19.25"/>
<text text-anchor="middle" x="252.5" y="-5.75" font-family="Helvetica,sans-Serif" font-size="10.00">vector</text>
</a>
</g>
</g>
<!-- Node5&#45;&gt;Node9 -->
<g id="edge10_Node000005_Node000009" class="edge">
<title>Node5&#45;&gt;Node9</title>
<g id="a_edge10_Node000005_Node000009"><a xlink:title=" ">
<path fill="none" stroke="#63b8ff" d="M206,-54.84C213.93,-47.3 225.45,-36.35 235.04,-27.23"/>
<polygon fill="#63b8ff" stroke="#63b8ff" points="237.21,-29.99 242.04,-20.57 232.39,-24.92 237.21,-29.99"/>
</a>
</g>
</g>
</g>
</svg>
