<?xml version="1.0" encoding="UTF-8" standalone="no"?>
<!DOCTYPE svg PUBLIC "-//W3C//DTD SVG 1.1//EN"
 "http://www.w3.org/Graphics/SVG/1.1/DTD/svg11.dtd">
<!-- Generated by graphviz version 9.0.0 (20230911.1827)
 -->
<!-- Title: workspace/albert/include/albert/urlhandler.h Pages: 1 -->
<svg width="166pt" height="149pt"
 viewBox="0.00 0.00 166.25 149.00" xmlns="http://www.w3.org/2000/svg" xmlns:xlink="http://www.w3.org/1999/xlink">
<g id="graph0" class="graph" transform="scale(1 1) rotate(0) translate(4 145)">
<title>workspace/albert/include/albert/urlhandler.h</title>
<!-- Node1 -->
<g id="Node000001" class="node">
<title>Node1</title>
<g id="a_Node000001"><a xlink:title=" ">
<polygon fill="#999999" stroke="#666666" points="137.38,-141 13.38,-141 13.38,-110.5 137.38,-110.5 137.38,-141"/>
<text text-anchor="start" x="21.38" y="-127.5" font-family="Helvetica,sans-Serif" font-size="10.00">workspace/albert/include</text>
<text text-anchor="middle" x="75.38" y="-116.25" font-family="Helvetica,sans-Serif" font-size="10.00">/albert/urlhandler.h</text>
</a>
</g>
</g>
<!-- Node2 -->
<g id="Node000002" class="node">
<title>Node2</title>
<g id="a_Node000002"><a xlink:title=" ">
<polygon fill="#e0e0e0" stroke="#999999" points="76.75,-19.25 0,-19.25 0,0 76.75,0 76.75,-19.25"/>
<text text-anchor="middle" x="38.38" y="-5.75" font-family="Helvetica,sans-Serif" font-size="10.00">albert/export.h</text>
</a>
</g>
</g>
<!-- Node1&#45;&gt;Node2 -->
<g id="edge1_Node000001_Node000002" class="edge">
<title>Node1&#45;&gt;Node2</title>
<g id="a_edge1_Node000001_Node000002"><a xlink:title=" ">
<path fill="none" stroke="#63b8ff" d="M69.96,-110.31C66.28,-100.31 61.36,-86.65 57.38,-74.5 52.57,-59.82 47.61,-43.08 43.96,-30.42"/>
<polygon fill="#63b8ff" stroke="#63b8ff" points="47.33,-29.46 41.22,-20.81 40.59,-31.38 47.33,-29.46"/>
</a>
</g>
</g>
<!-- Node3 -->
<g id="Node000003" class="node">
<title>Node3</title>
<g id="a_Node000003"><a xlink:href="extension_8h.html" target="_top" xlink:title=" ">
<polygon fill="white" stroke="#666666" points="158.25,-74.5 66.5,-74.5 66.5,-55.25 158.25,-55.25 158.25,-74.5"/>
<text text-anchor="middle" x="112.38" y="-61" font-family="Helvetica,sans-Serif" font-size="10.00">albert/extension.h</text>
</a>
</g>
</g>
<!-- Node1&#45;&gt;Node3 -->
<g id="edge2_Node000001_Node000003" class="edge">
<title>Node1&#45;&gt;Node3</title>
<g id="a_edge2_Node000001_Node000003"><a xlink:title=" ">
<path fill="none" stroke="#63b8ff" d="M84.52,-110.2C89.4,-102.44 95.45,-92.81 100.66,-84.51"/>
<polygon fill="#63b8ff" stroke="#63b8ff" points="103.51,-86.56 105.87,-76.23 97.58,-82.84 103.51,-86.56"/>
</a>
</g>
</g>
<!-- Node3&#45;&gt;Node2 -->
<g id="edge4_Node000003_Node000002" class="edge">
<title>Node3&#45;&gt;Node2</title>
<g id="a_edge4_Node000003_Node000002"><a xlink:title=" ">
<path fill="none" stroke="#63b8ff" d="M99.82,-54.84C88.91,-46.99 72.87,-35.45 59.91,-26.12"/>
<polygon fill="#63b8ff" stroke="#63b8ff" points="62.13,-23.41 51.97,-20.41 58.04,-29.09 62.13,-23.41"/>
</a>
</g>
</g>
<!-- Node4 -->
<g id="Node000004" class="node">
<title>Node4</title>
<g id="a_Node000004"><a xlink:title=" ">
<polygon fill="#e0e0e0" stroke="#999999" points="143.88,-19.25 94.88,-19.25 94.88,0 143.88,0 143.88,-19.25"/>
<text text-anchor="middle" x="119.38" y="-5.75" font-family="Helvetica,sans-Serif" font-size="10.00">QString</text>
</a>
</g>
</g>
<!-- Node3&#45;&gt;Node4 -->
<g id="edge3_Node000003_Node000004" class="edge">
<title>Node3&#45;&gt;Node4</title>
<g id="a_edge3_Node000003_Node000004"><a xlink:title=" ">
<path fill="none" stroke="#63b8ff" d="M113.53,-55.08C114.4,-48.49 115.62,-39.21 116.72,-30.82"/>
<polygon fill="#63b8ff" stroke="#63b8ff" points="120.16,-31.48 118,-21.11 113.22,-30.57 120.16,-31.48"/>
</a>
</g>
</g>
</g>
</svg>
