<?xml version="1.0" encoding="UTF-8" standalone="no"?>
<!DOCTYPE svg PUBLIC "-//W3C//DTD SVG 1.1//EN"
 "http://www.w3.org/Graphics/SVG/1.1/DTD/svg11.dtd">
<!-- Generated by graphviz version 9.0.0 (20230911.1827)
 -->
<!-- Title: workspace/albert/include/albert/urlhandler.h Pages: 1 -->
<svg width="153pt" height="149pt"
 viewBox="0.00 0.00 152.88 149.00" xmlns="http://www.w3.org/2000/svg" xmlns:xlink="http://www.w3.org/1999/xlink">
<g id="graph0" class="graph" transform="scale(1 1) rotate(0) translate(4 145)">
<title>workspace/albert/include/albert/urlhandler.h</title>
<!-- Node1 -->
<g id="Node000001" class="node">
<title>Node1</title>
<g id="a_Node000001"><a xlink:title=" ">
<polygon fill="#999999" stroke="#666666" points="124,-141 0,-141 0,-110.5 124,-110.5 124,-141"/>
<text text-anchor="start" x="8" y="-127.5" font-family="Helvetica,sans-Serif" font-size="10.00">workspace/albert/include</text>
<text text-anchor="middle" x="62" y="-116.25" font-family="Helvetica,sans-Serif" font-size="10.00">/albert/urlhandler.h</text>
</a>
</g>
</g>
<!-- Node2 -->
<g id="Node000002" class="node">
<title>Node2</title>
<g id="a_Node000002"><a xlink:title=" ">
<polygon fill="#e0e0e0" stroke="#999999" points="100.38,-19.25 23.62,-19.25 23.62,0 100.38,0 100.38,-19.25"/>
<text text-anchor="middle" x="62" y="-5.75" font-family="Helvetica,sans-Serif" font-size="10.00">albert/export.h</text>
</a>
</g>
</g>
<!-- Node1&#45;&gt;Node2 -->
<g id="edge1_Node000001_Node000002" class="edge">
<title>Node1&#45;&gt;Node2</title>
<g id="a_edge1_Node000001_Node000002"><a xlink:title=" ">
<path fill="none" stroke="#63b8ff" d="M54.33,-110.23C47.89,-96.25 40.27,-74.46 44,-55.25 45.67,-46.65 48.99,-37.6 52.34,-29.92"/>
<polygon fill="#63b8ff" stroke="#63b8ff" points="55.48,-31.45 56.57,-20.91 49.15,-28.47 55.48,-31.45"/>
</a>
</g>
</g>
<!-- Node3 -->
<g id="Node000003" class="node">
<title>Node3</title>
<g id="a_Node000003"><a xlink:href="extension_8h.html" target="_top" xlink:title=" ">
<polygon fill="white" stroke="#666666" points="144.88,-74.5 53.12,-74.5 53.12,-55.25 144.88,-55.25 144.88,-74.5"/>
<text text-anchor="middle" x="99" y="-61" font-family="Helvetica,sans-Serif" font-size="10.00">albert/extension.h</text>
</a>
</g>
</g>
<!-- Node1&#45;&gt;Node3 -->
<g id="edge2_Node000001_Node000003" class="edge">
<title>Node1&#45;&gt;Node3</title>
<g id="a_edge2_Node000001_Node000003"><a xlink:title=" ">
<path fill="none" stroke="#63b8ff" d="M71.15,-110.2C76.02,-102.44 82.07,-92.81 87.29,-84.51"/>
<polygon fill="#63b8ff" stroke="#63b8ff" points="90.13,-86.56 92.49,-76.23 84.21,-82.84 90.13,-86.56"/>
</a>
</g>
</g>
<!-- Node3&#45;&gt;Node2 -->
<g id="edge3_Node000003_Node000002" class="edge">
<title>Node3&#45;&gt;Node2</title>
<g id="a_edge3_Node000003_Node000002"><a xlink:title=" ">
<path fill="none" stroke="#63b8ff" d="M92.89,-55.08C87.94,-47.96 80.8,-37.68 74.63,-28.8"/>
<polygon fill="#63b8ff" stroke="#63b8ff" points="77.69,-27.07 69.11,-20.85 71.94,-31.06 77.69,-27.07"/>
</a>
</g>
</g>
</g>
</svg>
