<?xml version="1.0" encoding="UTF-8" standalone="no"?>
<!DOCTYPE svg PUBLIC "-//W3C//DTD SVG 1.1//EN"
 "http://www.w3.org/Graphics/SVG/1.1/DTD/svg11.dtd">
<!-- Generated by graphviz version 9.0.0 (20230911.1827)
 -->
<!-- Title: workspace/albert/include/albert/widgetsutil.h Pages: 1 -->
<svg width="499pt" height="94pt"
 viewBox="0.00 0.00 499.25 93.75" xmlns="http://www.w3.org/2000/svg" xmlns:xlink="http://www.w3.org/1999/xlink">
<g id="graph0" class="graph" transform="scale(1 1) rotate(0) translate(4 89.75)">
<title>workspace/albert/include/albert/widgetsutil.h</title>
<!-- Node1 -->
<g id="Node000001" class="node">
<title>Node1</title>
<g id="a_Node000001"><a xlink:title=" ">
<polygon fill="#999999" stroke="#666666" points="322.88,-85.75 198.88,-85.75 198.88,-55.25 322.88,-55.25 322.88,-85.75"/>
<text text-anchor="start" x="206.88" y="-72.25" font-family="Helvetica,sans-Serif" font-size="10.00">workspace/albert/include</text>
<text text-anchor="middle" x="260.88" y="-61" font-family="Helvetica,sans-Serif" font-size="10.00">/albert/widgetsutil.h</text>
</a>
</g>
</g>
<!-- Node2 -->
<g id="Node000002" class="node">
<title>Node2</title>
<g id="a_Node000002"><a xlink:title=" ">
<polygon fill="#e0e0e0" stroke="#999999" points="67.75,-19.25 0,-19.25 0,0 67.75,0 67.75,-19.25"/>
<text text-anchor="middle" x="33.88" y="-5.75" font-family="Helvetica,sans-Serif" font-size="10.00">QCheckBox</text>
</a>
</g>
</g>
<!-- Node1&#45;&gt;Node2 -->
<g id="edge1_Node000001_Node000002" class="edge">
<title>Node1&#45;&gt;Node2</title>
<g id="a_edge1_Node000001_Node000002"><a xlink:title=" ">
<path fill="none" stroke="#63b8ff" d="M204.18,-54.8C165.55,-44.78 115.09,-31.69 79.15,-22.37"/>
<polygon fill="#63b8ff" stroke="#63b8ff" points="80.05,-18.98 69.49,-19.86 78.29,-25.76 80.05,-18.98"/>
</a>
</g>
</g>
<!-- Node3 -->
<g id="Node000003" class="node">
<title>Node3</title>
<g id="a_Node000003"><a xlink:title=" ">
<polygon fill="#e0e0e0" stroke="#999999" points="175.62,-19.25 86.12,-19.25 86.12,0 175.62,0 175.62,-19.25"/>
<text text-anchor="middle" x="130.88" y="-5.75" font-family="Helvetica,sans-Serif" font-size="10.00">QDoubleSpinBox</text>
</a>
</g>
</g>
<!-- Node1&#45;&gt;Node3 -->
<g id="edge2_Node000001_Node000003" class="edge">
<title>Node1&#45;&gt;Node3</title>
<g id="a_edge2_Node000001_Node000003"><a xlink:title=" ">
<path fill="none" stroke="#63b8ff" d="M228.41,-54.8C207.85,-45.48 181.44,-33.52 161.29,-24.4"/>
<polygon fill="#63b8ff" stroke="#63b8ff" points="162.74,-21.22 152.19,-20.28 159.86,-27.59 162.74,-21.22"/>
</a>
</g>
</g>
<!-- Node4 -->
<g id="Node000004" class="node">
<title>Node4</title>
<g id="a_Node000004"><a xlink:title=" ">
<polygon fill="#e0e0e0" stroke="#999999" points="252.25,-19.25 193.5,-19.25 193.5,0 252.25,0 252.25,-19.25"/>
<text text-anchor="middle" x="222.88" y="-5.75" font-family="Helvetica,sans-Serif" font-size="10.00">QLineEdit</text>
</a>
</g>
</g>
<!-- Node1&#45;&gt;Node4 -->
<g id="edge3_Node000001_Node000004" class="edge">
<title>Node1&#45;&gt;Node4</title>
<g id="a_edge3_Node000001_Node000004"><a xlink:title=" ">
<path fill="none" stroke="#63b8ff" d="M251.48,-54.95C246.47,-47.19 240.26,-37.56 234.9,-29.26"/>
<polygon fill="#63b8ff" stroke="#63b8ff" points="237.92,-27.48 229.55,-20.97 232.04,-31.27 237.92,-27.48"/>
</a>
</g>
</g>
<!-- Node5 -->
<g id="Node000005" class="node">
<title>Node5</title>
<g id="a_Node000005"><a xlink:title=" ">
<polygon fill="#e0e0e0" stroke="#999999" points="329.62,-19.25 270.12,-19.25 270.12,0 329.62,0 329.62,-19.25"/>
<text text-anchor="middle" x="299.88" y="-5.75" font-family="Helvetica,sans-Serif" font-size="10.00">QSpinBox</text>
</a>
</g>
</g>
<!-- Node1&#45;&gt;Node5 -->
<g id="edge4_Node000001_Node000005" class="edge">
<title>Node1&#45;&gt;Node5</title>
<g id="a_edge4_Node000001_Node000005"><a xlink:title=" ">
<path fill="none" stroke="#63b8ff" d="M270.52,-54.95C275.65,-47.19 282.03,-37.56 287.53,-29.26"/>
<polygon fill="#63b8ff" stroke="#63b8ff" points="290.42,-31.23 293.03,-20.96 284.59,-27.37 290.42,-31.23"/>
</a>
</g>
</g>
<!-- Node6 -->
<g id="Node000006" class="node">
<title>Node6</title>
<g id="a_Node000006"><a xlink:title=" ">
<polygon fill="#e0e0e0" stroke="#999999" points="396.38,-19.25 347.38,-19.25 347.38,0 396.38,0 396.38,-19.25"/>
<text text-anchor="middle" x="371.88" y="-5.75" font-family="Helvetica,sans-Serif" font-size="10.00">QString</text>
</a>
</g>
</g>
<!-- Node1&#45;&gt;Node6 -->
<g id="edge5_Node000001_Node000006" class="edge">
<title>Node1&#45;&gt;Node6</title>
<g id="a_edge5_Node000001_Node000006"><a xlink:title=" ">
<path fill="none" stroke="#63b8ff" d="M288.6,-54.8C305.83,-45.66 327.87,-33.97 344.95,-24.91"/>
<polygon fill="#63b8ff" stroke="#63b8ff" points="346.32,-28.14 353.52,-20.36 343.04,-21.96 346.32,-28.14"/>
</a>
</g>
</g>
<!-- Node7 -->
<g id="Node000007" class="node">
<title>Node7</title>
<g id="a_Node000007"><a xlink:title=" ">
<polygon fill="#e0e0e0" stroke="#999999" points="491.25,-19.25 414.5,-19.25 414.5,0 491.25,0 491.25,-19.25"/>
<text text-anchor="middle" x="452.88" y="-5.75" font-family="Helvetica,sans-Serif" font-size="10.00">albert/export.h</text>
</a>
</g>
</g>
<!-- Node1&#45;&gt;Node7 -->
<g id="edge6_Node000001_Node000007" class="edge">
<title>Node1&#45;&gt;Node7</title>
<g id="a_edge6_Node000001_Node000007"><a xlink:title=" ">
<path fill="none" stroke="#63b8ff" d="M308.83,-54.8C340.64,-45.04 381.94,-32.38 412.15,-23.11"/>
<polygon fill="#63b8ff" stroke="#63b8ff" points="413.17,-26.46 421.7,-20.18 411.11,-19.77 413.17,-26.46"/>
</a>
</g>
</g>
</g>
</svg>
