<?xml version="1.0" encoding="UTF-8" standalone="no"?>
<svg
   xmlns:dc="http://purl.org/dc/elements/1.1/"
   xmlns:cc="http://creativecommons.org/ns#"
   xmlns:rdf="http://www.w3.org/1999/02/22-rdf-syntax-ns#"
   xmlns:svg="http://www.w3.org/2000/svg"
   xmlns="http://www.w3.org/2000/svg"
   xmlns:sodipodi="http://sodipodi.sourceforge.net/DTD/sodipodi-0.dtd"
   xmlns:inkscape="http://www.inkscape.org/namespaces/inkscape"
   height="36"
   width="144.00002"
   version="1.1"
   id="svg17"
   sodipodi:docname="bitcoin.svg"
   inkscape:version="0.92.2 5c3e80d, 2017-08-06">
  <metadata
     id="metadata23">
    <rdf:RDF>
      <cc:Work
         rdf:about="">
        <dc:format>image/svg+xml</dc:format>
        <dc:type
           rdf:resource="http://purl.org/dc/dcmitype/StillImage" />
      </cc:Work>
    </rdf:RDF>
  </metadata>
  <defs
     id="defs21" />
  <sodipodi:namedview
     pagecolor="#ffffff"
     bordercolor="#666666"
     borderopacity="1"
     objecttolerance="10"
     gridtolerance="10"
     guidetolerance="10"
     inkscape:pageopacity="0"
     inkscape:pageshadow="2"
     inkscape:window-width="1920"
     inkscape:window-height="1027"
     id="namedview19"
     showgrid="false"
     inkscape:zoom="1.4142136"
     inkscape:cx="68.165384"
     inkscape:cy="34.34924"
     inkscape:window-x="0"
     inkscape:window-y="25"
     inkscape:window-maximized="1"
     inkscape:current-layer="svg17" />
  <linearGradient
     y2="94"
     x2="0"
     gradientUnits="userSpaceOnUse"
     id="a"
     gradientTransform="scale(0.38297874)">
    <stop
       offset="0"
       stop-color="#fff"
       id="stop2" />
    <stop
       offset="1"
       stop-color="#d9d9d9"
       id="stop4" />
  </linearGradient>
  <rect
     ry="5.7446809"
     rx="5.7446809"
     height="35.234043"
     width="143.23405"
     y="0.38297874"
     x="0.38297874"
     id="rect7"
     style="fill:url(#a);stroke:#b3b3b3;stroke-width:0.76595747" />
  <path
     d="m 37.914895,18.382979 a 12.255319,12.255319 0 0 1 -12.25532,12.25532 12.255319,12.255319 0 0 1 -12.25532,-12.25532 12.255319,12.255319 0 0 1 12.25532,-12.2553188 12.255319,12.255319 0 0 1 12.25532,12.2553188 z m 16.915404,5.11315 q -0.896169,0 -1.837149,-0.07469 -0.940978,-0.07468 -1.702723,-0.238978 l 2.389787,-10.007236 q 0.851362,-0.164298 1.777404,-0.224042 0.940979,-0.05974 1.71766,-0.05974 0.89617,0 1.538425,0.194171 0.657192,0.179234 1.060469,0.492894 0.418212,0.313659 0.612382,0.746808 0.209107,0.418213 0.209107,0.89617 0,0.328596 -0.07469,0.687064 -0.05974,0.358469 -0.268851,0.716936 -0.19417,0.343532 -0.552638,0.657192 -0.343532,0.313659 -0.911106,0.567574 0.672127,0.298724 0.985787,0.821489 0.313659,0.507831 0.313659,1.135149 0,0.716937 -0.283786,1.389065 -0.283788,0.657191 -0.911107,1.179956 -0.62732,0.507831 -1.628043,0.82149 -1.000724,0.298724 -2.434595,0.298724 z m -0.209106,-4.660086 -0.642255,2.688511 q 0.238979,0.0448 0.597447,0.07468 0.373404,0.01493 0.687063,0.01493 0.448086,0 0.881234,-0.05974 0.448085,-0.07468 0.791617,-0.253914 0.358468,-0.179234 0.582511,-0.492894 0.224042,-0.31366 0.224042,-0.806553 0,-0.209107 -0.08962,-0.418214 -0.07468,-0.209105 -0.253916,-0.373403 -0.179233,-0.164298 -0.477957,-0.268852 -0.283787,-0.104553 -0.687064,-0.104553 z m 0.433149,-1.747531 h 1.463745 q 0.896169,0 1.329319,-0.388341 0.448085,-0.388341 0.448085,-0.926043 0,-0.283787 -0.134426,-0.477957 -0.119488,-0.209106 -0.328595,-0.328596 -0.209107,-0.11949 -0.477958,-0.164298 -0.268851,-0.05974 -0.552638,-0.05974 -0.31366,0 -0.672128,0.02987 -0.358468,0.01493 -0.537702,0.04481 z m 8.203021,6.27319 H 61.04681 l 1.867021,-7.856425 h 2.225106 l -1.881191,7.856425 z m 1.075405,-8.812339 q -0.463405,0 -0.836425,-0.268852 -0.373405,-0.283788 -0.373405,-0.851361 0,-0.31366 0.119489,-0.582512 0.134042,-0.283786 0.343532,-0.477957 0.209106,-0.209106 0.477957,-0.328596 0.283404,-0.119489 0.597447,-0.119489 0.463022,0 0.836426,0.283787 0.373404,0.268852 0.373404,0.836426 0,0.313659 -0.134426,0.597447 -0.119489,0.268851 -0.328595,0.477957 -0.209107,0.194171 -0.492894,0.31366 -0.268851,0.11949 -0.58251,0.11949 z m 3.079914,-1.000724 2.315107,-0.358469 -0.567574,2.315107 h 2.479404 l -0.448086,1.822213 h -2.464467 l -0.657192,2.748255 q -0.08962,0.343532 -0.119489,0.642256 -0.01532,0.298723 0.07468,0.522766 0.104553,0.209106 0.343531,0.328595 0.238979,0.11949 0.657192,0.11949 0.358468,0 0.687064,-0.05974 0.343532,-0.07469 0.687064,-0.19417 l 0.164298,1.702724 q -0.448085,0.164297 -0.970851,0.283786 -0.522766,0.11949 -1.239703,0.11949 -1.030595,0 -1.59817,-0.298724 -0.567575,-0.313659 -0.806553,-0.836425 -0.238979,-0.537702 -0.209107,-1.224765 0.02987,-0.687065 0.209107,-1.448809 z m 4.292426,6.676469 q 0,-1.01566 0.328596,-1.911831 0.328596,-0.896169 0.940978,-1.568298 0.612767,-0.672127 1.478685,-1.060468 0.881233,-0.38834 1.957018,-0.38834 0.671745,0 1.194893,0.134426 0.537322,0.119489 0.97047,0.328595 l -0.761745,1.732596 q -0.298725,-0.119489 -0.627323,-0.209107 -0.313657,-0.104553 -0.776685,-0.104553 -1.1202,0 -1.762459,0.761745 -0.642257,0.746808 -0.642257,2.046255 0,0.761745 0.328595,1.239703 0.328597,0.463021 1.210216,0.463021 0.432765,0 0.83604,-0.08962 0.403275,-0.08962 0.71694,-0.224043 l 0.164678,1.777405 q -0.418598,0.164297 -0.92643,0.283787 -0.492893,0.134425 -1.209825,0.134425 -0.926044,0 -1.5683,-0.268851 -0.642255,-0.268851 -1.060468,-0.716936 -0.418212,-0.463021 -0.612383,-1.075404 -0.179234,-0.612384 -0.179234,-1.28451 z m 9.903835,3.345701 q -0.791617,0 -1.374135,-0.238978 -0.582128,-0.238979 -0.970853,-0.672128 -0.373402,-0.433149 -0.56757,-1.01566 -0.194167,-0.597446 -0.194167,-1.314382 0,-0.896172 0.283777,-1.792341 0.298725,-0.896171 0.86631,-1.613106 0.56757,-0.716937 1.389061,-1.165022 0.82149,-0.463021 1.88196,-0.463021 0.776677,0 1.35957,0.238979 0.59745,0.238978 0.97047,0.672127 0.388335,0.433149 0.582502,1.030596 0.194183,0.58251 0.194183,1.299447 0,0.896169 -0.28341,1.792341 -0.284168,0.89617 -0.836805,1.613106 -0.552645,0.716936 -1.389068,1.179958 -0.82149,0.448084 -1.911825,0.448084 z m 1.105268,-6.392681 q -0.492893,0 -0.866295,0.283788 -0.373403,0.283787 -0.627323,0.716936 -0.253905,0.433148 -0.388335,0.955915 -0.11949,0.507829 -0.11949,0.970851 0,0.761745 0.23898,1.179958 0.23898,0.403276 0.866295,0.403276 0.492893,0 0.866295,-0.283788 0.373403,-0.283787 0.627323,-0.716936 0.25392,-0.433149 0.373402,-0.940979 0.13443,-0.522765 0.13443,-0.985787 0,-0.761744 -0.23898,-1.165021 -0.23898,-0.418213 -0.866302,-0.418213 z m 6.127282,6.183574 h -2.21055 l 1.867013,-7.856425 h 2.225107 l -1.881187,7.856425 z m 1.075403,-8.812339 q -0.46341,0 -0.836423,-0.268852 -0.37341,-0.283788 -0.37341,-0.851361 0,-0.31366 0.11949,-0.582512 0.13404,-0.283786 0.34353,-0.477957 0.209115,-0.209106 0.47796,-0.328596 0.283403,-0.119489 0.59745,-0.119489 0.46302,0 0.836423,0.283787 0.373402,0.268852 0.373402,0.836426 0,0.313659 -0.134422,0.597447 -0.11949,0.268851 -0.328598,0.477957 -0.209107,0.194171 -0.492892,0.31366 -0.268845,0.11949 -0.58251,0.11949 z m 2.751322,1.314382 q 0.253913,-0.07468 0.552638,-0.164298 0.313657,-0.104552 0.68706,-0.179233 0.388343,-0.08962 0.851363,-0.134426 0.477952,-0.05974 1.075402,-0.05974 1.76247,0 2.419665,1.01566 0.657188,1.01566 0.22404,2.778127 l -1.015657,4.241867 h -2.225498 l 0.985793,-4.152254 q 0.08962,-0.388341 0.134047,-0.74681 0.06015,-0.373403 0,-0.642255 -0.0594,-0.283787 -0.28341,-0.448084 -0.209107,-0.179234 -0.657195,-0.179234 -0.43314,0 -0.881227,0.08962 l -1.448813,6.079017 h -2.225483 z"
     id="path9"
     inkscape:connector-curvature="0"
     style="fill:#ffffff;stroke-width:0.38297874" />
  <path
     d="M 37.914895,18 A 12.255319,12.255319 0 0 1 25.659575,30.25532 12.255319,12.255319 0 0 1 13.404255,18 12.255319,12.255319 0 0 1 25.659575,5.7446812 12.255319,12.255319 0 0 1 37.914895,18 Z"
     id="path11"
     inkscape:connector-curvature="0"
     style="fill:#f7931a;stroke-width:0.38297874" />
  <path
     d="m 31.060724,16.25515 c 0.243958,-1.630724 -0.997659,-2.507362 -2.695404,-3.092171 l 0.550723,-2.209021 -1.344638,-0.335106 -0.53617,2.150808 c -0.35349,-0.08808 -0.716554,-0.171192 -1.077319,-0.253532 l 0.54,-2.164978 -1.343872,-0.335106 -0.551108,2.208254 c -0.292595,-0.06664 -0.579829,-0.13251 -0.858637,-0.20183 l 0.0016,-0.0069 -1.854383,-0.463021 -0.357702,1.43617 c 0,0 0.99766,0.228639 0.976596,0.242809 0.544596,0.135957 0.643021,0.49634 0.626553,0.782042 l -0.627349,2.516575 c 0.03753,0.0096 0.08617,0.02335 0.139788,0.04481 l -0.142086,-0.03523 -0.879318,3.52532 c -0.06664,0.165447 -0.235533,0.413617 -0.616213,0.319404 0.0134,0.01953 -0.977363,-0.243957 -0.977363,-0.243957 l -0.667531,1.539191 1.74983,0.436214 c 0.325532,0.08157 0.644553,0.166978 0.958595,0.247403 l -0.556468,2.234298 1.343107,0.335107 0.551107,-2.210554 c 0.366893,0.09958 0.723063,0.19149 1.071574,0.278043 l -0.549192,2.200213 1.344638,0.335106 0.556469,-2.230085 c 2.292893,0.433915 4.017064,0.258894 4.742808,-1.814936 0.584809,-1.669787 -0.02911,-2.63298 -1.235489,-3.261064 0.878554,-0.202595 1.54034,-0.780511 1.716893,-1.974255 z m -3.072255,4.308127 c -0.415532,1.669788 -3.226979,0.767107 -4.138468,0.540766 l 0.738383,-2.960042 c 0.911489,0.227489 3.834383,0.677872 3.400085,2.419276 z m 0.415915,-4.332255 c -0.379149,1.518894 -2.719149,0.747192 -3.478213,0.558 l 0.669447,-2.684681 c 0.759064,0.189191 3.203617,0.542298 2.808766,2.126681 z"
     id="path13"
     inkscape:connector-curvature="0"
     style="fill:#ffffff;stroke-width:0.38297874" />
  <path
     d="m 54.830299,23.113149 q -0.896169,0 -1.837149,-0.07468 -0.940978,-0.07468 -1.702723,-0.238979 l 2.389787,-10.007235 q 0.851362,-0.164298 1.777404,-0.224042 0.940979,-0.05974 1.71766,-0.05974 0.89617,0 1.538425,0.194169 0.657192,0.179234 1.060469,0.492894 0.418212,0.31366 0.612382,0.746808 0.209107,0.418213 0.209107,0.89617 0,0.328596 -0.07469,0.687064 -0.05974,0.358469 -0.268851,0.716937 -0.19417,0.343532 -0.552638,0.657191 -0.343532,0.31366 -0.911106,0.567574 0.672127,0.298724 0.985787,0.821489 0.313659,0.507831 0.313659,1.13515 0,0.716936 -0.283786,1.389064 -0.283788,0.657191 -0.911107,1.179958 -0.62732,0.507829 -1.628043,0.821489 -1.000724,0.298723 -2.434595,0.298723 z m -0.209106,-4.660085 -0.642255,2.688511 q 0.238979,0.04481 0.597447,0.07468 0.373404,0.01493 0.687063,0.01493 0.448086,0 0.881234,-0.05974 0.448085,-0.07468 0.791617,-0.253915 0.358468,-0.179234 0.582511,-0.492894 0.224042,-0.313659 0.224042,-0.806553 0,-0.209106 -0.08962,-0.418212 -0.07468,-0.209107 -0.253916,-0.373405 -0.179233,-0.164298 -0.477957,-0.268851 -0.283787,-0.104554 -0.687064,-0.104554 z m 0.433149,-1.747532 h 1.463745 q 0.896169,0 1.329319,-0.38834 0.448085,-0.38834 0.448085,-0.926042 0,-0.283787 -0.134426,-0.477958 -0.119488,-0.209107 -0.328595,-0.328596 -0.209107,-0.119488 -0.477958,-0.164297 -0.268851,-0.05975 -0.552638,-0.05975 -0.31366,0 -0.672128,0.02987 -0.358468,0.01493 -0.537702,0.04481 z m 8.203021,6.273193 H 61.04681 l 1.867021,-7.856426 h 2.225106 l -1.881191,7.856426 z m 1.075405,-8.812341 q -0.463405,0 -0.836425,-0.268852 -0.373405,-0.283787 -0.373405,-0.851362 0,-0.313659 0.119489,-0.58251 0.134042,-0.283787 0.343532,-0.477957 0.209106,-0.209107 0.477957,-0.328596 0.283404,-0.119489 0.597447,-0.119489 0.463022,0 0.836426,0.283787 0.373404,0.268851 0.373404,0.836425 0,0.31366 -0.134426,0.597447 -0.119489,0.268851 -0.328595,0.477957 -0.209107,0.194171 -0.492894,0.31366 -0.268851,0.11949 -0.58251,0.11949 z m 3.079914,-1.000724 2.315107,-0.358468 -0.567574,2.315107 h 2.479404 l -0.448086,1.822213 h -2.464467 l -0.657192,2.748255 q -0.08962,0.343532 -0.119489,0.642255 -0.01532,0.298723 0.07468,0.522766 0.104553,0.209107 0.343531,0.328596 0.238979,0.119489 0.657192,0.119489 0.358468,0 0.687064,-0.05975 0.343532,-0.07468 0.687064,-0.194169 l 0.164298,1.702723 q -0.448085,0.164298 -0.970851,0.283787 -0.522766,0.119489 -1.239703,0.119489 -1.030595,0 -1.59817,-0.298723 -0.567575,-0.313662 -0.806553,-0.836428 -0.238979,-0.537703 -0.209107,-1.224767 0.02987,-0.687064 0.209107,-1.448809 z m 4.292426,6.676468 q 0,-1.015659 0.328596,-1.911829 0.328596,-0.896171 0.940978,-1.568298 0.612767,-0.672128 1.478685,-1.060468 0.881233,-0.388341 1.957018,-0.388341 0.671745,0 1.194893,0.134426 0.537322,0.119489 0.97047,0.328596 L 77.814003,17.10881 Q 77.515278,16.98932 77.18668,16.899703 76.873023,16.79515 76.409995,16.79515 q -1.1202,0 -1.762459,0.761744 -0.642257,0.746809 -0.642257,2.046255 0,0.761745 0.328595,1.239703 0.328597,0.463021 1.210216,0.463021 0.432765,0 0.83604,-0.08962 0.403275,-0.08962 0.71694,-0.224042 l 0.164678,1.777404 q -0.418598,0.164298 -0.92643,0.283787 -0.492893,0.134426 -1.209825,0.134426 -0.926044,0 -1.5683,-0.268851 -0.642255,-0.268851 -1.060468,-0.716937 -0.418212,-0.463021 -0.612383,-1.075404 -0.179234,-0.612383 -0.179234,-1.284511 z m 9.903835,3.345703 q -0.791617,0 -1.374135,-0.238979 -0.582128,-0.238978 -0.970853,-0.672128 -0.373402,-0.433148 -0.56757,-1.01566 -0.194167,-0.597446 -0.194167,-1.314383 0,-0.896169 0.283777,-1.79234 0.298725,-0.89617 0.86631,-1.613107 0.56757,-0.716936 1.389061,-1.16502 0.82149,-0.463022 1.88196,-0.463022 0.776677,0 1.35957,0.238979 0.59745,0.238979 0.97047,0.672127 0.388335,0.43315 0.582502,1.030596 0.194183,0.582511 0.194183,1.299447 0,0.896171 -0.28341,1.79234 -0.284168,0.896171 -0.836805,1.613107 -0.552645,0.716936 -1.389068,1.179957 -0.82149,0.448086 -1.911825,0.448086 z m 1.105268,-6.392681 q -0.492893,0 -0.866295,0.283787 -0.373403,0.283787 -0.627323,0.716936 -0.253905,0.433149 -0.388335,0.955915 -0.11949,0.50783 -0.11949,0.970851 0,0.761744 0.23898,1.179958 0.23898,0.403276 0.866295,0.403276 0.492893,0 0.866295,-0.283787 0.373403,-0.283787 0.627323,-0.716937 0.25392,-0.433148 0.373402,-0.940978 0.13443,-0.522766 0.13443,-0.985788 0,-0.761744 -0.23898,-1.16502 -0.23898,-0.418213 -0.866302,-0.418213 z m 6.127282,6.183575 h -2.21055 l 1.867013,-7.856426 h 2.225107 l -1.881187,7.856426 z m 1.075403,-8.812341 q -0.46341,0 -0.836423,-0.268852 -0.37341,-0.283787 -0.37341,-0.851362 0,-0.313659 0.11949,-0.58251 0.13404,-0.283787 0.34353,-0.477957 0.209115,-0.209107 0.47796,-0.328596 0.283403,-0.119489 0.59745,-0.119489 0.46302,0 0.836423,0.283787 0.373402,0.268851 0.373402,0.836425 0,0.31366 -0.134422,0.597447 -0.11949,0.268851 -0.328598,0.477957 -0.209107,0.194171 -0.492892,0.31366 -0.268845,0.11949 -0.58251,0.11949 z m 2.751322,1.314383 q 0.253913,-0.07468 0.552638,-0.164298 0.313657,-0.104553 0.68706,-0.179234 0.388343,-0.08962 0.851363,-0.134426 0.477952,-0.05974 1.075402,-0.05974 1.76247,0 2.419665,1.01566 0.657188,1.015659 0.22404,2.778127 l -1.015657,4.241873 h -2.225498 l 0.985793,-4.152256 q 0.08962,-0.38834 0.134047,-0.746808 0.06015,-0.373405 0,-0.642256 -0.0594,-0.283787 -0.28341,-0.448085 -0.209107,-0.179234 -0.657195,-0.179234 -0.43314,0 -0.881227,0.08962 l -1.448813,6.079022 h -2.225483 z"
     id="path15"
     inkscape:connector-curvature="0"
     style="fill:#4d4d4d;stroke-width:0.38297874" />
</svg>
